<?xml version="1.0" encoding="utf-8" standalone="no"?>
<!DOCTYPE svg PUBLIC "-//W3C//DTD SVG 1.1//EN"
  "http://www.w3.org/Graphics/SVG/1.1/DTD/svg11.dtd">
<svg xmlns:xlink="http://www.w3.org/1999/xlink" width="460.8pt" height="345.6pt" viewBox="0 0 460.8 345.6" xmlns="http://www.w3.org/2000/svg" version="1.1">
 <metadata>
  <rdf:RDF xmlns:dc="http://purl.org/dc/elements/1.1/" xmlns:cc="http://creativecommons.org/ns#" xmlns:rdf="http://www.w3.org/1999/02/22-rdf-syntax-ns#">
   <cc:Work>
    <dc:type rdf:resource="http://purl.org/dc/dcmitype/StillImage"/>
    <dc:date>2024-06-22T20:35:14.999525</dc:date>
    <dc:format>image/svg+xml</dc:format>
    <dc:creator>
     <cc:Agent>
      <dc:title>Matplotlib v3.6.0, https://matplotlib.org/</dc:title>
     </cc:Agent>
    </dc:creator>
   </cc:Work>
  </rdf:RDF>
 </metadata>
 <defs>
  <style type="text/css">*{stroke-linejoin: round; stroke-linecap: butt}</style>
 </defs>
 <g id="figure_1">
  <g id="patch_1">
   <path d="M 0 345.6 
L 460.8 345.6 
L 460.8 0 
L 0 0 
z
" style="fill: #ffffff"/>
  </g>
  <g id="axes_1">
   <g id="patch_2">
    <path d="M 57.6 307.584 
L 414.72 307.584 
L 414.72 41.472 
L 57.6 41.472 
z
" style="fill: #ffffff"/>
   </g>
   <g id="PolyCollection_1"/>
   <g id="matplotlib.axis_1">
    <g id="xtick_1">
     <g id="line2d_1">
      <defs>
       <path id="m77c4d0b8bb" d="M 0 0 
L 0 3.5 
" style="stroke: #000000; stroke-width: 0.8"/>
      </defs>
      <g>
       <use xlink:href="#m77c4d0b8bb" x="73.812435" y="307.584" style="stroke: #000000; stroke-width: 0.8"/>
      </g>
     </g>
     <g id="text_1">
      <!-- 0 -->
      <g transform="translate(70.631185 322.182437) scale(0.1 -0.1)">
       <defs>
        <path id="DejaVuSans-30" d="M 2034 4250 
Q 1547 4250 1301 3770 
Q 1056 3291 1056 2328 
Q 1056 1369 1301 889 
Q 1547 409 2034 409 
Q 2525 409 2770 889 
Q 3016 1369 3016 2328 
Q 3016 3291 2770 3770 
Q 2525 4250 2034 4250 
z
M 2034 4750 
Q 2819 4750 3233 4129 
Q 3647 3509 3647 2328 
Q 3647 1150 3233 529 
Q 2819 -91 2034 -91 
Q 1250 -91 836 529 
Q 422 1150 422 2328 
Q 422 3509 836 4129 
Q 1250 4750 2034 4750 
z
" transform="scale(0.015625)"/>
       </defs>
       <use xlink:href="#DejaVuSans-30"/>
      </g>
     </g>
    </g>
    <g id="xtick_2">
     <g id="line2d_2">
      <g>
       <use xlink:href="#m77c4d0b8bb" x="114.39679" y="307.584" style="stroke: #000000; stroke-width: 0.8"/>
      </g>
     </g>
     <g id="text_2">
      <!-- 2000 -->
      <g transform="translate(101.67179 322.182437) scale(0.1 -0.1)">
       <defs>
        <path id="DejaVuSans-32" d="M 1228 531 
L 3431 531 
L 3431 0 
L 469 0 
L 469 531 
Q 828 903 1448 1529 
Q 2069 2156 2228 2338 
Q 2531 2678 2651 2914 
Q 2772 3150 2772 3378 
Q 2772 3750 2511 3984 
Q 2250 4219 1831 4219 
Q 1534 4219 1204 4116 
Q 875 4013 500 3803 
L 500 4441 
Q 881 4594 1212 4672 
Q 1544 4750 1819 4750 
Q 2544 4750 2975 4387 
Q 3406 4025 3406 3419 
Q 3406 3131 3298 2873 
Q 3191 2616 2906 2266 
Q 2828 2175 2409 1742 
Q 1991 1309 1228 531 
z
" transform="scale(0.015625)"/>
       </defs>
       <use xlink:href="#DejaVuSans-32"/>
       <use xlink:href="#DejaVuSans-30" x="63.623047"/>
       <use xlink:href="#DejaVuSans-30" x="127.246094"/>
       <use xlink:href="#DejaVuSans-30" x="190.869141"/>
      </g>
     </g>
    </g>
    <g id="xtick_3">
     <g id="line2d_3">
      <g>
       <use xlink:href="#m77c4d0b8bb" x="154.981145" y="307.584" style="stroke: #000000; stroke-width: 0.8"/>
      </g>
     </g>
     <g id="text_3">
      <!-- 4000 -->
      <g transform="translate(142.256145 322.182437) scale(0.1 -0.1)">
       <defs>
        <path id="DejaVuSans-34" d="M 2419 4116 
L 825 1625 
L 2419 1625 
L 2419 4116 
z
M 2253 4666 
L 3047 4666 
L 3047 1625 
L 3713 1625 
L 3713 1100 
L 3047 1100 
L 3047 0 
L 2419 0 
L 2419 1100 
L 313 1100 
L 313 1709 
L 2253 4666 
z
" transform="scale(0.015625)"/>
       </defs>
       <use xlink:href="#DejaVuSans-34"/>
       <use xlink:href="#DejaVuSans-30" x="63.623047"/>
       <use xlink:href="#DejaVuSans-30" x="127.246094"/>
       <use xlink:href="#DejaVuSans-30" x="190.869141"/>
      </g>
     </g>
    </g>
    <g id="xtick_4">
     <g id="line2d_4">
      <g>
       <use xlink:href="#m77c4d0b8bb" x="195.565499" y="307.584" style="stroke: #000000; stroke-width: 0.8"/>
      </g>
     </g>
     <g id="text_4">
      <!-- 6000 -->
      <g transform="translate(182.840499 322.182437) scale(0.1 -0.1)">
       <defs>
        <path id="DejaVuSans-36" d="M 2113 2584 
Q 1688 2584 1439 2293 
Q 1191 2003 1191 1497 
Q 1191 994 1439 701 
Q 1688 409 2113 409 
Q 2538 409 2786 701 
Q 3034 994 3034 1497 
Q 3034 2003 2786 2293 
Q 2538 2584 2113 2584 
z
M 3366 4563 
L 3366 3988 
Q 3128 4100 2886 4159 
Q 2644 4219 2406 4219 
Q 1781 4219 1451 3797 
Q 1122 3375 1075 2522 
Q 1259 2794 1537 2939 
Q 1816 3084 2150 3084 
Q 2853 3084 3261 2657 
Q 3669 2231 3669 1497 
Q 3669 778 3244 343 
Q 2819 -91 2113 -91 
Q 1303 -91 875 529 
Q 447 1150 447 2328 
Q 447 3434 972 4092 
Q 1497 4750 2381 4750 
Q 2619 4750 2861 4703 
Q 3103 4656 3366 4563 
z
" transform="scale(0.015625)"/>
       </defs>
       <use xlink:href="#DejaVuSans-36"/>
       <use xlink:href="#DejaVuSans-30" x="63.623047"/>
       <use xlink:href="#DejaVuSans-30" x="127.246094"/>
       <use xlink:href="#DejaVuSans-30" x="190.869141"/>
      </g>
     </g>
    </g>
    <g id="xtick_5">
     <g id="line2d_5">
      <g>
       <use xlink:href="#m77c4d0b8bb" x="236.149854" y="307.584" style="stroke: #000000; stroke-width: 0.8"/>
      </g>
     </g>
     <g id="text_5">
      <!-- 8000 -->
      <g transform="translate(223.424854 322.182437) scale(0.1 -0.1)">
       <defs>
        <path id="DejaVuSans-38" d="M 2034 2216 
Q 1584 2216 1326 1975 
Q 1069 1734 1069 1313 
Q 1069 891 1326 650 
Q 1584 409 2034 409 
Q 2484 409 2743 651 
Q 3003 894 3003 1313 
Q 3003 1734 2745 1975 
Q 2488 2216 2034 2216 
z
M 1403 2484 
Q 997 2584 770 2862 
Q 544 3141 544 3541 
Q 544 4100 942 4425 
Q 1341 4750 2034 4750 
Q 2731 4750 3128 4425 
Q 3525 4100 3525 3541 
Q 3525 3141 3298 2862 
Q 3072 2584 2669 2484 
Q 3125 2378 3379 2068 
Q 3634 1759 3634 1313 
Q 3634 634 3220 271 
Q 2806 -91 2034 -91 
Q 1263 -91 848 271 
Q 434 634 434 1313 
Q 434 1759 690 2068 
Q 947 2378 1403 2484 
z
M 1172 3481 
Q 1172 3119 1398 2916 
Q 1625 2713 2034 2713 
Q 2441 2713 2670 2916 
Q 2900 3119 2900 3481 
Q 2900 3844 2670 4047 
Q 2441 4250 2034 4250 
Q 1625 4250 1398 4047 
Q 1172 3844 1172 3481 
z
" transform="scale(0.015625)"/>
       </defs>
       <use xlink:href="#DejaVuSans-38"/>
       <use xlink:href="#DejaVuSans-30" x="63.623047"/>
       <use xlink:href="#DejaVuSans-30" x="127.246094"/>
       <use xlink:href="#DejaVuSans-30" x="190.869141"/>
      </g>
     </g>
    </g>
    <g id="xtick_6">
     <g id="line2d_6">
      <g>
       <use xlink:href="#m77c4d0b8bb" x="276.734209" y="307.584" style="stroke: #000000; stroke-width: 0.8"/>
      </g>
     </g>
     <g id="text_6">
      <!-- 10000 -->
      <g transform="translate(260.827959 322.182437) scale(0.1 -0.1)">
       <defs>
        <path id="DejaVuSans-31" d="M 794 531 
L 1825 531 
L 1825 4091 
L 703 3866 
L 703 4441 
L 1819 4666 
L 2450 4666 
L 2450 531 
L 3481 531 
L 3481 0 
L 794 0 
L 794 531 
z
" transform="scale(0.015625)"/>
       </defs>
       <use xlink:href="#DejaVuSans-31"/>
       <use xlink:href="#DejaVuSans-30" x="63.623047"/>
       <use xlink:href="#DejaVuSans-30" x="127.246094"/>
       <use xlink:href="#DejaVuSans-30" x="190.869141"/>
       <use xlink:href="#DejaVuSans-30" x="254.492188"/>
      </g>
     </g>
    </g>
    <g id="xtick_7">
     <g id="line2d_7">
      <g>
       <use xlink:href="#m77c4d0b8bb" x="317.318563" y="307.584" style="stroke: #000000; stroke-width: 0.8"/>
      </g>
     </g>
     <g id="text_7">
      <!-- 12000 -->
      <g transform="translate(301.412313 322.182437) scale(0.1 -0.1)">
       <use xlink:href="#DejaVuSans-31"/>
       <use xlink:href="#DejaVuSans-32" x="63.623047"/>
       <use xlink:href="#DejaVuSans-30" x="127.246094"/>
       <use xlink:href="#DejaVuSans-30" x="190.869141"/>
       <use xlink:href="#DejaVuSans-30" x="254.492188"/>
      </g>
     </g>
    </g>
    <g id="xtick_8">
     <g id="line2d_8">
      <g>
       <use xlink:href="#m77c4d0b8bb" x="357.902918" y="307.584" style="stroke: #000000; stroke-width: 0.8"/>
      </g>
     </g>
     <g id="text_8">
      <!-- 14000 -->
      <g transform="translate(341.996668 322.182437) scale(0.1 -0.1)">
       <use xlink:href="#DejaVuSans-31"/>
       <use xlink:href="#DejaVuSans-34" x="63.623047"/>
       <use xlink:href="#DejaVuSans-30" x="127.246094"/>
       <use xlink:href="#DejaVuSans-30" x="190.869141"/>
       <use xlink:href="#DejaVuSans-30" x="254.492188"/>
      </g>
     </g>
    </g>
    <g id="xtick_9">
     <g id="line2d_9">
      <g>
       <use xlink:href="#m77c4d0b8bb" x="398.487273" y="307.584" style="stroke: #000000; stroke-width: 0.8"/>
      </g>
     </g>
     <g id="text_9">
      <!-- 16000 -->
      <g transform="translate(382.581023 322.182437) scale(0.1 -0.1)">
       <use xlink:href="#DejaVuSans-31"/>
       <use xlink:href="#DejaVuSans-36" x="63.623047"/>
       <use xlink:href="#DejaVuSans-30" x="127.246094"/>
       <use xlink:href="#DejaVuSans-30" x="190.869141"/>
       <use xlink:href="#DejaVuSans-30" x="254.492188"/>
      </g>
     </g>
    </g>
    <g id="text_10">
     <!-- Nucleotide position -->
     <g transform="translate(187.982656 335.860562) scale(0.1 -0.1)">
      <defs>
       <path id="DejaVuSans-4e" d="M 628 4666 
L 1478 4666 
L 3547 763 
L 3547 4666 
L 4159 4666 
L 4159 0 
L 3309 0 
L 1241 3903 
L 1241 0 
L 628 0 
L 628 4666 
z
" transform="scale(0.015625)"/>
       <path id="DejaVuSans-75" d="M 544 1381 
L 544 3500 
L 1119 3500 
L 1119 1403 
Q 1119 906 1312 657 
Q 1506 409 1894 409 
Q 2359 409 2629 706 
Q 2900 1003 2900 1516 
L 2900 3500 
L 3475 3500 
L 3475 0 
L 2900 0 
L 2900 538 
Q 2691 219 2414 64 
Q 2138 -91 1772 -91 
Q 1169 -91 856 284 
Q 544 659 544 1381 
z
M 1991 3584 
L 1991 3584 
z
" transform="scale(0.015625)"/>
       <path id="DejaVuSans-63" d="M 3122 3366 
L 3122 2828 
Q 2878 2963 2633 3030 
Q 2388 3097 2138 3097 
Q 1578 3097 1268 2742 
Q 959 2388 959 1747 
Q 959 1106 1268 751 
Q 1578 397 2138 397 
Q 2388 397 2633 464 
Q 2878 531 3122 666 
L 3122 134 
Q 2881 22 2623 -34 
Q 2366 -91 2075 -91 
Q 1284 -91 818 406 
Q 353 903 353 1747 
Q 353 2603 823 3093 
Q 1294 3584 2113 3584 
Q 2378 3584 2631 3529 
Q 2884 3475 3122 3366 
z
" transform="scale(0.015625)"/>
       <path id="DejaVuSans-6c" d="M 603 4863 
L 1178 4863 
L 1178 0 
L 603 0 
L 603 4863 
z
" transform="scale(0.015625)"/>
       <path id="DejaVuSans-65" d="M 3597 1894 
L 3597 1613 
L 953 1613 
Q 991 1019 1311 708 
Q 1631 397 2203 397 
Q 2534 397 2845 478 
Q 3156 559 3463 722 
L 3463 178 
Q 3153 47 2828 -22 
Q 2503 -91 2169 -91 
Q 1331 -91 842 396 
Q 353 884 353 1716 
Q 353 2575 817 3079 
Q 1281 3584 2069 3584 
Q 2775 3584 3186 3129 
Q 3597 2675 3597 1894 
z
M 3022 2063 
Q 3016 2534 2758 2815 
Q 2500 3097 2075 3097 
Q 1594 3097 1305 2825 
Q 1016 2553 972 2059 
L 3022 2063 
z
" transform="scale(0.015625)"/>
       <path id="DejaVuSans-6f" d="M 1959 3097 
Q 1497 3097 1228 2736 
Q 959 2375 959 1747 
Q 959 1119 1226 758 
Q 1494 397 1959 397 
Q 2419 397 2687 759 
Q 2956 1122 2956 1747 
Q 2956 2369 2687 2733 
Q 2419 3097 1959 3097 
z
M 1959 3584 
Q 2709 3584 3137 3096 
Q 3566 2609 3566 1747 
Q 3566 888 3137 398 
Q 2709 -91 1959 -91 
Q 1206 -91 779 398 
Q 353 888 353 1747 
Q 353 2609 779 3096 
Q 1206 3584 1959 3584 
z
" transform="scale(0.015625)"/>
       <path id="DejaVuSans-74" d="M 1172 4494 
L 1172 3500 
L 2356 3500 
L 2356 3053 
L 1172 3053 
L 1172 1153 
Q 1172 725 1289 603 
Q 1406 481 1766 481 
L 2356 481 
L 2356 0 
L 1766 0 
Q 1100 0 847 248 
Q 594 497 594 1153 
L 594 3053 
L 172 3053 
L 172 3500 
L 594 3500 
L 594 4494 
L 1172 4494 
z
" transform="scale(0.015625)"/>
       <path id="DejaVuSans-69" d="M 603 3500 
L 1178 3500 
L 1178 0 
L 603 0 
L 603 3500 
z
M 603 4863 
L 1178 4863 
L 1178 4134 
L 603 4134 
L 603 4863 
z
" transform="scale(0.015625)"/>
       <path id="DejaVuSans-64" d="M 2906 2969 
L 2906 4863 
L 3481 4863 
L 3481 0 
L 2906 0 
L 2906 525 
Q 2725 213 2448 61 
Q 2172 -91 1784 -91 
Q 1150 -91 751 415 
Q 353 922 353 1747 
Q 353 2572 751 3078 
Q 1150 3584 1784 3584 
Q 2172 3584 2448 3432 
Q 2725 3281 2906 2969 
z
M 947 1747 
Q 947 1113 1208 752 
Q 1469 391 1925 391 
Q 2381 391 2643 752 
Q 2906 1113 2906 1747 
Q 2906 2381 2643 2742 
Q 2381 3103 1925 3103 
Q 1469 3103 1208 2742 
Q 947 2381 947 1747 
z
" transform="scale(0.015625)"/>
       <path id="DejaVuSans-20" transform="scale(0.015625)"/>
       <path id="DejaVuSans-70" d="M 1159 525 
L 1159 -1331 
L 581 -1331 
L 581 3500 
L 1159 3500 
L 1159 2969 
Q 1341 3281 1617 3432 
Q 1894 3584 2278 3584 
Q 2916 3584 3314 3078 
Q 3713 2572 3713 1747 
Q 3713 922 3314 415 
Q 2916 -91 2278 -91 
Q 1894 -91 1617 61 
Q 1341 213 1159 525 
z
M 3116 1747 
Q 3116 2381 2855 2742 
Q 2594 3103 2138 3103 
Q 1681 3103 1420 2742 
Q 1159 2381 1159 1747 
Q 1159 1113 1420 752 
Q 1681 391 2138 391 
Q 2594 391 2855 752 
Q 3116 1113 3116 1747 
z
" transform="scale(0.015625)"/>
       <path id="DejaVuSans-73" d="M 2834 3397 
L 2834 2853 
Q 2591 2978 2328 3040 
Q 2066 3103 1784 3103 
Q 1356 3103 1142 2972 
Q 928 2841 928 2578 
Q 928 2378 1081 2264 
Q 1234 2150 1697 2047 
L 1894 2003 
Q 2506 1872 2764 1633 
Q 3022 1394 3022 966 
Q 3022 478 2636 193 
Q 2250 -91 1575 -91 
Q 1294 -91 989 -36 
Q 684 19 347 128 
L 347 722 
Q 666 556 975 473 
Q 1284 391 1588 391 
Q 1994 391 2212 530 
Q 2431 669 2431 922 
Q 2431 1156 2273 1281 
Q 2116 1406 1581 1522 
L 1381 1569 
Q 847 1681 609 1914 
Q 372 2147 372 2553 
Q 372 3047 722 3315 
Q 1072 3584 1716 3584 
Q 2034 3584 2315 3537 
Q 2597 3491 2834 3397 
z
" transform="scale(0.015625)"/>
       <path id="DejaVuSans-6e" d="M 3513 2113 
L 3513 0 
L 2938 0 
L 2938 2094 
Q 2938 2591 2744 2837 
Q 2550 3084 2163 3084 
Q 1697 3084 1428 2787 
Q 1159 2491 1159 1978 
L 1159 0 
L 581 0 
L 581 3500 
L 1159 3500 
L 1159 2956 
Q 1366 3272 1645 3428 
Q 1925 3584 2291 3584 
Q 2894 3584 3203 3211 
Q 3513 2838 3513 2113 
z
" transform="scale(0.015625)"/>
      </defs>
      <use xlink:href="#DejaVuSans-4e"/>
      <use xlink:href="#DejaVuSans-75" x="74.804688"/>
      <use xlink:href="#DejaVuSans-63" x="138.183594"/>
      <use xlink:href="#DejaVuSans-6c" x="193.164062"/>
      <use xlink:href="#DejaVuSans-65" x="220.947266"/>
      <use xlink:href="#DejaVuSans-6f" x="282.470703"/>
      <use xlink:href="#DejaVuSans-74" x="343.652344"/>
      <use xlink:href="#DejaVuSans-69" x="382.861328"/>
      <use xlink:href="#DejaVuSans-64" x="410.644531"/>
      <use xlink:href="#DejaVuSans-65" x="474.121094"/>
      <use xlink:href="#DejaVuSans-20" x="535.644531"/>
      <use xlink:href="#DejaVuSans-70" x="567.431641"/>
      <use xlink:href="#DejaVuSans-6f" x="630.908203"/>
      <use xlink:href="#DejaVuSans-73" x="692.089844"/>
      <use xlink:href="#DejaVuSans-69" x="744.189453"/>
      <use xlink:href="#DejaVuSans-74" x="771.972656"/>
      <use xlink:href="#DejaVuSans-69" x="811.181641"/>
      <use xlink:href="#DejaVuSans-6f" x="838.964844"/>
      <use xlink:href="#DejaVuSans-6e" x="900.146484"/>
     </g>
    </g>
   </g>
   <g id="matplotlib.axis_2">
    <g id="ytick_1">
     <g id="line2d_10">
      <defs>
       <path id="m7175114de0" d="M 0 0 
L -3.5 0 
" style="stroke: #000000; stroke-width: 0.8"/>
      </defs>
      <g>
       <use xlink:href="#m7175114de0" x="57.6" y="295.488" style="stroke: #000000; stroke-width: 0.8"/>
      </g>
     </g>
     <g id="text_11">
      <!-- 0 -->
      <g transform="translate(44.2375 299.287219) scale(0.1 -0.1)">
       <use xlink:href="#DejaVuSans-30"/>
      </g>
     </g>
    </g>
    <g id="ytick_2">
     <g id="line2d_11">
      <g>
       <use xlink:href="#m7175114de0" x="57.6" y="242.896696" style="stroke: #000000; stroke-width: 0.8"/>
      </g>
     </g>
     <g id="text_12">
      <!-- 5 -->
      <g transform="translate(44.2375 246.695914) scale(0.1 -0.1)">
       <defs>
        <path id="DejaVuSans-35" d="M 691 4666 
L 3169 4666 
L 3169 4134 
L 1269 4134 
L 1269 2991 
Q 1406 3038 1543 3061 
Q 1681 3084 1819 3084 
Q 2600 3084 3056 2656 
Q 3513 2228 3513 1497 
Q 3513 744 3044 326 
Q 2575 -91 1722 -91 
Q 1428 -91 1123 -41 
Q 819 9 494 109 
L 494 744 
Q 775 591 1075 516 
Q 1375 441 1709 441 
Q 2250 441 2565 725 
Q 2881 1009 2881 1497 
Q 2881 1984 2565 2268 
Q 2250 2553 1709 2553 
Q 1456 2553 1204 2497 
Q 953 2441 691 2322 
L 691 4666 
z
" transform="scale(0.015625)"/>
       </defs>
       <use xlink:href="#DejaVuSans-35"/>
      </g>
     </g>
    </g>
    <g id="ytick_3">
     <g id="line2d_12">
      <g>
       <use xlink:href="#m7175114de0" x="57.6" y="190.305391" style="stroke: #000000; stroke-width: 0.8"/>
      </g>
     </g>
     <g id="text_13">
      <!-- 10 -->
      <g transform="translate(37.875 194.10461) scale(0.1 -0.1)">
       <use xlink:href="#DejaVuSans-31"/>
       <use xlink:href="#DejaVuSans-30" x="63.623047"/>
      </g>
     </g>
    </g>
    <g id="ytick_4">
     <g id="line2d_13">
      <g>
       <use xlink:href="#m7175114de0" x="57.6" y="137.714087" style="stroke: #000000; stroke-width: 0.8"/>
      </g>
     </g>
     <g id="text_14">
      <!-- 15 -->
      <g transform="translate(37.875 141.513306) scale(0.1 -0.1)">
       <use xlink:href="#DejaVuSans-31"/>
       <use xlink:href="#DejaVuSans-35" x="63.623047"/>
      </g>
     </g>
    </g>
    <g id="ytick_5">
     <g id="line2d_14">
      <g>
       <use xlink:href="#m7175114de0" x="57.6" y="85.122783" style="stroke: #000000; stroke-width: 0.8"/>
      </g>
     </g>
     <g id="text_15">
      <!-- 20 -->
      <g transform="translate(37.875 88.922001) scale(0.1 -0.1)">
       <use xlink:href="#DejaVuSans-32"/>
       <use xlink:href="#DejaVuSans-30" x="63.623047"/>
      </g>
     </g>
    </g>
    <g id="text_16">
     <!-- Coverage -->
     <g transform="translate(31.795312 198.485031) rotate(-90) scale(0.1 -0.1)">
      <defs>
       <path id="DejaVuSans-43" d="M 4122 4306 
L 4122 3641 
Q 3803 3938 3442 4084 
Q 3081 4231 2675 4231 
Q 1875 4231 1450 3742 
Q 1025 3253 1025 2328 
Q 1025 1406 1450 917 
Q 1875 428 2675 428 
Q 3081 428 3442 575 
Q 3803 722 4122 1019 
L 4122 359 
Q 3791 134 3420 21 
Q 3050 -91 2638 -91 
Q 1578 -91 968 557 
Q 359 1206 359 2328 
Q 359 3453 968 4101 
Q 1578 4750 2638 4750 
Q 3056 4750 3426 4639 
Q 3797 4528 4122 4306 
z
" transform="scale(0.015625)"/>
       <path id="DejaVuSans-76" d="M 191 3500 
L 800 3500 
L 1894 563 
L 2988 3500 
L 3597 3500 
L 2284 0 
L 1503 0 
L 191 3500 
z
" transform="scale(0.015625)"/>
       <path id="DejaVuSans-72" d="M 2631 2963 
Q 2534 3019 2420 3045 
Q 2306 3072 2169 3072 
Q 1681 3072 1420 2755 
Q 1159 2438 1159 1844 
L 1159 0 
L 581 0 
L 581 3500 
L 1159 3500 
L 1159 2956 
Q 1341 3275 1631 3429 
Q 1922 3584 2338 3584 
Q 2397 3584 2469 3576 
Q 2541 3569 2628 3553 
L 2631 2963 
z
" transform="scale(0.015625)"/>
       <path id="DejaVuSans-61" d="M 2194 1759 
Q 1497 1759 1228 1600 
Q 959 1441 959 1056 
Q 959 750 1161 570 
Q 1363 391 1709 391 
Q 2188 391 2477 730 
Q 2766 1069 2766 1631 
L 2766 1759 
L 2194 1759 
z
M 3341 1997 
L 3341 0 
L 2766 0 
L 2766 531 
Q 2569 213 2275 61 
Q 1981 -91 1556 -91 
Q 1019 -91 701 211 
Q 384 513 384 1019 
Q 384 1609 779 1909 
Q 1175 2209 1959 2209 
L 2766 2209 
L 2766 2266 
Q 2766 2663 2505 2880 
Q 2244 3097 1772 3097 
Q 1472 3097 1187 3025 
Q 903 2953 641 2809 
L 641 3341 
Q 956 3463 1253 3523 
Q 1550 3584 1831 3584 
Q 2591 3584 2966 3190 
Q 3341 2797 3341 1997 
z
" transform="scale(0.015625)"/>
       <path id="DejaVuSans-67" d="M 2906 1791 
Q 2906 2416 2648 2759 
Q 2391 3103 1925 3103 
Q 1463 3103 1205 2759 
Q 947 2416 947 1791 
Q 947 1169 1205 825 
Q 1463 481 1925 481 
Q 2391 481 2648 825 
Q 2906 1169 2906 1791 
z
M 3481 434 
Q 3481 -459 3084 -895 
Q 2688 -1331 1869 -1331 
Q 1566 -1331 1297 -1286 
Q 1028 -1241 775 -1147 
L 775 -588 
Q 1028 -725 1275 -790 
Q 1522 -856 1778 -856 
Q 2344 -856 2625 -561 
Q 2906 -266 2906 331 
L 2906 616 
Q 2728 306 2450 153 
Q 2172 0 1784 0 
Q 1141 0 747 490 
Q 353 981 353 1791 
Q 353 2603 747 3093 
Q 1141 3584 1784 3584 
Q 2172 3584 2450 3431 
Q 2728 3278 2906 2969 
L 2906 3500 
L 3481 3500 
L 3481 434 
z
" transform="scale(0.015625)"/>
      </defs>
      <use xlink:href="#DejaVuSans-43"/>
      <use xlink:href="#DejaVuSans-6f" x="69.824219"/>
      <use xlink:href="#DejaVuSans-76" x="131.005859"/>
      <use xlink:href="#DejaVuSans-65" x="190.185547"/>
      <use xlink:href="#DejaVuSans-72" x="251.708984"/>
      <use xlink:href="#DejaVuSans-61" x="292.822266"/>
      <use xlink:href="#DejaVuSans-67" x="354.101562"/>
      <use xlink:href="#DejaVuSans-65" x="417.578125"/>
     </g>
    </g>
   </g>
   <g id="line2d_15">
    <path d="M 73.832727 295.488 
L 77.688241 295.488 
L 77.809994 284.969739 
L 79.63629 284.969739 
L 79.758043 295.488 
L 88.037251 295.488 
L 88.159004 284.969739 
L 88.503971 284.969739 
L 88.625725 274.451478 
L 90.594066 274.451478 
L 90.715819 284.969739 
L 91.020201 284.969739 
L 91.141955 295.488 
L 92.21744 295.488 
L 92.339193 284.969739 
L 92.379777 284.969739 
L 92.50153 274.451478 
L 94.896007 274.451478 
L 95.01776 284.969739 
L 95.058345 284.969739 
L 95.180098 295.488 
L 106.401672 295.488 
L 106.523425 284.969739 
L 106.888684 284.969739 
L 107.010437 274.451478 
L 109.080239 274.451478 
L 109.201992 284.969739 
L 109.567252 284.969739 
L 109.689005 295.488 
L 135.033934 295.488 
L 135.155687 284.969739 
L 135.399193 284.969739 
L 135.520946 274.451478 
L 135.602115 274.451478 
L 135.723868 284.969739 
L 135.967374 284.969739 
L 136.089127 295.488 
L 154.00712 295.488 
L 154.128873 274.451478 
L 154.981145 274.451478 
L 155.102898 263.933217 
L 155.265235 263.933217 
L 155.386988 242.896696 
L 155.508741 242.896696 
L 155.630494 232.378435 
L 156.645103 232.378435 
L 156.766856 253.414957 
L 157.659712 253.414957 
L 157.781465 263.933217 
L 157.943802 263.933217 
L 158.065555 284.969739 
L 158.167016 284.969739 
L 158.288769 295.488 
L 159.607761 295.488 
L 159.729514 284.969739 
L 162.266036 284.969739 
L 162.387789 295.488 
L 164.173501 295.488 
L 164.295254 284.969739 
L 166.811484 284.969739 
L 166.933237 295.488 
L 241.222898 295.488 
L 241.344651 284.969739 
L 241.628742 284.969739 
L 241.750495 295.488 
L 267.136009 295.488 
L 267.257762 284.969739 
L 268.008572 284.969739 
L 268.130325 295.488 
L 272.777234 295.488 
L 272.898987 284.969739 
L 273.183078 284.969739 
L 273.304831 295.488 
L 292.724444 295.488 
L 292.846197 284.969739 
L 293.109996 284.969739 
L 293.231749 274.451478 
L 294.855123 274.451478 
L 294.976876 284.969739 
L 295.220382 284.969739 
L 295.342135 295.488 
L 304.209817 295.488 
L 304.33157 284.969739 
L 306.868092 284.969739 
L 306.989845 295.488 
L 309.445199 295.488 
L 309.566952 284.969739 
L 312.042597 284.969739 
L 312.16435 295.488 
L 348.426471 295.488 
L 348.548224 284.969739 
L 350.009261 284.969739 
L 350.131014 274.451478 
L 351.064454 274.451478 
L 351.186207 284.969739 
L 352.687828 284.969739 
L 352.809582 295.488 
L 370.666698 295.488 
L 370.788451 284.969739 
L 371.092833 284.969739 
L 371.214586 295.488 
L 373.893154 295.488 
L 374.014907 284.969739 
L 374.055491 284.969739 
L 374.177244 274.451478 
L 374.197536 274.451478 
L 374.31929 242.896696 
L 374.380166 242.896696 
L 374.583088 190.305391 
L 374.806302 190.305391 
L 374.948347 169.26887 
L 375.009224 169.26887 
L 375.212145 116.677565 
L 375.273022 116.677565 
L 375.394775 106.159304 
L 375.861495 106.159304 
L 376.023832 74.604522 
L 376.226754 74.604522 
L 376.348507 53.568 
L 376.490552 74.604522 
L 376.693474 74.604522 
L 376.815227 85.122783 
L 376.855812 85.122783 
L 376.977565 106.159304 
L 377.018149 106.159304 
L 377.079026 116.677565 
L 377.11961 106.159304 
L 377.139902 106.159304 
L 377.261655 148.232348 
L 377.464577 148.232348 
L 377.606622 200.823652 
L 377.626914 200.823652 
L 377.748667 211.341913 
L 377.76896 211.341913 
L 377.890713 242.896696 
L 377.931297 242.896696 
L 378.05305 253.414957 
L 378.458894 253.414957 
L 378.580647 242.896696 
L 378.661815 242.896696 
L 378.783569 263.933217 
L 378.803861 263.933217 
L 378.905322 242.896696 
L 378.925614 253.414957 
L 378.98649 253.414957 
L 379.108243 242.896696 
L 379.189412 242.896696 
L 379.331457 221.860174 
L 379.432918 232.378435 
L 379.514087 211.341913 
L 379.554671 221.860174 
L 379.696716 221.860174 
L 379.757593 211.341913 
L 379.798177 221.860174 
L 379.838762 221.860174 
L 379.899638 211.341913 
L 379.940223 221.860174 
L 380.021391 221.860174 
L 380.183729 190.305391 
L 380.366358 190.305391 
L 380.386651 200.823652 
L 380.467819 190.305391 
L 380.589572 190.305391 
L 380.711325 200.823652 
L 380.731618 200.823652 
L 380.853371 211.341913 
L 380.934539 211.341913 
L 381.076585 232.378435 
L 381.137461 221.860174 
L 381.178045 232.378435 
L 381.401259 232.378435 
L 381.523012 242.896696 
L 381.604181 242.896696 
L 381.746226 221.860174 
L 382.111486 221.860174 
L 382.253531 242.896696 
L 382.375284 242.896696 
L 382.456453 253.414957 
L 382.476745 242.896696 
L 382.760835 242.896696 
L 382.862296 263.933217 
L 383.004341 242.896696 
L 383.755152 242.896696 
L 383.876905 253.414957 
L 384.059535 253.414957 
L 384.181288 242.896696 
L 384.242164 242.896696 
L 384.262456 253.414957 
L 384.343625 242.896696 
L 384.445086 242.896696 
L 384.587131 221.860174 
L 384.810345 221.860174 
L 384.95239 200.823652 
L 385.13502 200.823652 
L 385.277065 221.860174 
L 385.459695 221.860174 
L 385.479987 211.341913 
L 385.561156 221.860174 
L 385.60174 221.860174 
L 385.723493 242.896696 
L 386.291674 242.896696 
L 386.413427 232.378435 
L 386.71781 232.378435 
L 386.758394 242.896696 
L 386.819271 232.378435 
L 386.941024 232.378435 
L 387.062777 242.896696 
L 387.143946 242.896696 
L 387.306283 211.341913 
L 387.488913 211.341913 
L 387.610666 200.823652 
L 387.732419 200.823652 
L 387.854172 179.78713 
L 387.975925 190.305391 
L 387.996217 190.305391 
L 388.138262 211.341913 
L 388.219431 211.341913 
L 388.341184 221.860174 
L 388.361476 221.860174 
L 388.483229 232.378435 
L 388.929657 232.378435 
L 389.05141 221.860174 
L 389.436962 221.860174 
L 389.558715 232.378435 
L 389.802221 232.378435 
L 389.923974 242.896696 
L 389.964558 242.896696 
L 390.086311 253.414957 
L 390.126896 253.414957 
L 390.248649 232.378435 
L 390.329817 232.378435 
L 390.471863 211.341913 
L 390.755953 211.341913 
L 390.81683 200.823652 
L 390.857414 211.341913 
L 390.958875 211.341913 
L 391.080628 221.860174 
L 391.10092 221.860174 
L 391.182089 232.378435 
L 391.263258 211.341913 
L 391.28355 221.860174 
L 391.486472 221.860174 
L 391.547348 211.341913 
L 391.587932 221.860174 
L 391.628517 221.860174 
L 391.689393 232.378435 
L 391.729978 221.860174 
L 391.790854 221.860174 
L 391.912607 211.341913 
L 391.932899 211.341913 
L 392.054653 200.823652 
L 392.074945 200.823652 
L 392.237282 169.26887 
L 392.460496 169.26887 
L 392.582249 158.750609 
L 392.663418 158.750609 
L 392.785171 148.232348 
L 392.805463 148.232348 
L 392.927216 158.750609 
L 392.9678 158.750609 
L 393.028677 148.232348 
L 393.069261 158.750609 
L 393.292475 158.750609 
L 393.414228 148.232348 
L 393.434521 148.232348 
L 393.596858 179.78713 
L 393.779488 179.78713 
L 393.860656 169.26887 
L 393.941825 200.823652 
L 393.962117 179.78713 
L 394.144747 179.78713 
L 394.165039 169.26887 
L 394.246208 179.78713 
L 394.449129 179.78713 
L 394.570882 190.305391 
L 394.773804 190.305391 
L 394.794096 179.78713 
L 394.875265 190.305391 
L 394.997018 190.305391 
L 395.139063 169.26887 
L 395.240524 169.26887 
L 395.362277 158.750609 
L 395.402862 158.750609 
L 395.544907 137.714087 
L 395.727537 137.714087 
L 395.768121 148.232348 
L 395.808705 137.714087 
L 395.828997 127.195826 
L 395.910166 137.714087 
L 395.950751 137.714087 
L 396.072504 116.677565 
L 396.234841 148.232348 
L 396.31601 148.232348 
L 396.498639 190.305391 
L 396.518932 190.305391 
L 396.620392 179.78713 
L 396.742145 211.341913 
L 396.823314 211.341913 
L 396.904483 221.860174 
L 396.924775 211.341913 
L 397.492956 211.341913 
L 397.614709 221.860174 
L 397.878507 221.860174 
L 398.00026 232.378435 
L 398.020553 232.378435 
L 398.142306 242.896696 
L 398.426396 242.896696 
L 398.487273 295.488 
L 398.487273 295.488 
" clip-path="url(#p49041ba365)" style="fill: none; stroke: #1f77b4; stroke-width: 1.5; stroke-linecap: square"/>
   </g>
   <g id="line2d_16">
    <path d="M 373.994615 307.584 
L 373.994615 41.472 
" clip-path="url(#p49041ba365)" style="fill: none; stroke-dasharray: 5.55,2.4; stroke-dashoffset: 0; stroke: #ff0000; stroke-width: 1.5"/>
   </g>
   <g id="line2d_17">
    <path d="M 381.036 307.584 
L 381.036 41.472 
" clip-path="url(#p49041ba365)" style="fill: none; stroke-dasharray: 5.55,2.4; stroke-dashoffset: 0; stroke: #ff0000; stroke-width: 1.5"/>
   </g>
   <g id="patch_3">
    <path d="M 57.6 307.584 
L 57.6 41.472 
" style="fill: none; stroke: #000000; stroke-width: 0.8; stroke-linejoin: miter; stroke-linecap: square"/>
   </g>
   <g id="patch_4">
    <path d="M 414.72 307.584 
L 414.72 41.472 
" style="fill: none; stroke: #000000; stroke-width: 0.8; stroke-linejoin: miter; stroke-linecap: square"/>
   </g>
   <g id="patch_5">
    <path d="M 57.6 307.584 
L 414.72 307.584 
" style="fill: none; stroke: #000000; stroke-width: 0.8; stroke-linejoin: miter; stroke-linecap: square"/>
   </g>
   <g id="patch_6">
    <path d="M 57.6 41.472 
L 414.72 41.472 
" style="fill: none; stroke: #000000; stroke-width: 0.8; stroke-linejoin: miter; stroke-linecap: square"/>
   </g>
   <g id="text_17">
    <!-- Viral coverage: Caudoviricetes sp. isolate ctUyu4 -->
    <g transform="translate(88.731562 22.034625) scale(0.12 -0.12)">
     <defs>
      <path id="DejaVuSans-56" d="M 1831 0 
L 50 4666 
L 709 4666 
L 2188 738 
L 3669 4666 
L 4325 4666 
L 2547 0 
L 1831 0 
z
" transform="scale(0.015625)"/>
      <path id="DejaVuSans-3a" d="M 750 794 
L 1409 794 
L 1409 0 
L 750 0 
L 750 794 
z
M 750 3309 
L 1409 3309 
L 1409 2516 
L 750 2516 
L 750 3309 
z
" transform="scale(0.015625)"/>
      <path id="DejaVuSans-2e" d="M 684 794 
L 1344 794 
L 1344 0 
L 684 0 
L 684 794 
z
" transform="scale(0.015625)"/>
      <path id="DejaVuSans-55" d="M 556 4666 
L 1191 4666 
L 1191 1831 
Q 1191 1081 1462 751 
Q 1734 422 2344 422 
Q 2950 422 3222 751 
Q 3494 1081 3494 1831 
L 3494 4666 
L 4128 4666 
L 4128 1753 
Q 4128 841 3676 375 
Q 3225 -91 2344 -91 
Q 1459 -91 1007 375 
Q 556 841 556 1753 
L 556 4666 
z
" transform="scale(0.015625)"/>
      <path id="DejaVuSans-79" d="M 2059 -325 
Q 1816 -950 1584 -1140 
Q 1353 -1331 966 -1331 
L 506 -1331 
L 506 -850 
L 844 -850 
Q 1081 -850 1212 -737 
Q 1344 -625 1503 -206 
L 1606 56 
L 191 3500 
L 800 3500 
L 1894 763 
L 2988 3500 
L 3597 3500 
L 2059 -325 
z
" transform="scale(0.015625)"/>
     </defs>
     <use xlink:href="#DejaVuSans-56"/>
     <use xlink:href="#DejaVuSans-69" x="66.158203"/>
     <use xlink:href="#DejaVuSans-72" x="93.941406"/>
     <use xlink:href="#DejaVuSans-61" x="135.054688"/>
     <use xlink:href="#DejaVuSans-6c" x="196.333984"/>
     <use xlink:href="#DejaVuSans-20" x="224.117188"/>
     <use xlink:href="#DejaVuSans-63" x="255.904297"/>
     <use xlink:href="#DejaVuSans-6f" x="310.884766"/>
     <use xlink:href="#DejaVuSans-76" x="372.066406"/>
     <use xlink:href="#DejaVuSans-65" x="431.246094"/>
     <use xlink:href="#DejaVuSans-72" x="492.769531"/>
     <use xlink:href="#DejaVuSans-61" x="533.882812"/>
     <use xlink:href="#DejaVuSans-67" x="595.162109"/>
     <use xlink:href="#DejaVuSans-65" x="658.638672"/>
     <use xlink:href="#DejaVuSans-3a" x="720.162109"/>
     <use xlink:href="#DejaVuSans-20" x="753.853516"/>
     <use xlink:href="#DejaVuSans-43" x="785.640625"/>
     <use xlink:href="#DejaVuSans-61" x="855.464844"/>
     <use xlink:href="#DejaVuSans-75" x="916.744141"/>
     <use xlink:href="#DejaVuSans-64" x="980.123047"/>
     <use xlink:href="#DejaVuSans-6f" x="1043.599609"/>
     <use xlink:href="#DejaVuSans-76" x="1104.78125"/>
     <use xlink:href="#DejaVuSans-69" x="1163.960938"/>
     <use xlink:href="#DejaVuSans-72" x="1191.744141"/>
     <use xlink:href="#DejaVuSans-69" x="1232.857422"/>
     <use xlink:href="#DejaVuSans-63" x="1260.640625"/>
     <use xlink:href="#DejaVuSans-65" x="1315.621094"/>
     <use xlink:href="#DejaVuSans-74" x="1377.144531"/>
     <use xlink:href="#DejaVuSans-65" x="1416.353516"/>
     <use xlink:href="#DejaVuSans-73" x="1477.876953"/>
     <use xlink:href="#DejaVuSans-20" x="1529.976562"/>
     <use xlink:href="#DejaVuSans-73" x="1561.763672"/>
     <use xlink:href="#DejaVuSans-70" x="1613.863281"/>
     <use xlink:href="#DejaVuSans-2e" x="1677.339844"/>
     <use xlink:href="#DejaVuSans-20" x="1709.126953"/>
     <use xlink:href="#DejaVuSans-69" x="1740.914062"/>
     <use xlink:href="#DejaVuSans-73" x="1768.697266"/>
     <use xlink:href="#DejaVuSans-6f" x="1820.796875"/>
     <use xlink:href="#DejaVuSans-6c" x="1881.978516"/>
     <use xlink:href="#DejaVuSans-61" x="1909.761719"/>
     <use xlink:href="#DejaVuSans-74" x="1971.041016"/>
     <use xlink:href="#DejaVuSans-65" x="2010.25"/>
     <use xlink:href="#DejaVuSans-20" x="2071.773438"/>
     <use xlink:href="#DejaVuSans-63" x="2103.560547"/>
     <use xlink:href="#DejaVuSans-74" x="2158.541016"/>
     <use xlink:href="#DejaVuSans-55" x="2197.75"/>
     <use xlink:href="#DejaVuSans-79" x="2270.943359"/>
     <use xlink:href="#DejaVuSans-75" x="2330.123047"/>
     <use xlink:href="#DejaVuSans-34" x="2393.501953"/>
    </g>
    <!-- Total coverage: 18.48% -->
    <g transform="translate(165.5775 35.472) scale(0.12 -0.12)">
     <defs>
      <path id="DejaVuSans-54" d="M -19 4666 
L 3928 4666 
L 3928 4134 
L 2272 4134 
L 2272 0 
L 1638 0 
L 1638 4134 
L -19 4134 
L -19 4666 
z
" transform="scale(0.015625)"/>
      <path id="DejaVuSans-25" d="M 4653 2053 
Q 4381 2053 4226 1822 
Q 4072 1591 4072 1178 
Q 4072 772 4226 539 
Q 4381 306 4653 306 
Q 4919 306 5073 539 
Q 5228 772 5228 1178 
Q 5228 1588 5073 1820 
Q 4919 2053 4653 2053 
z
M 4653 2450 
Q 5147 2450 5437 2106 
Q 5728 1763 5728 1178 
Q 5728 594 5436 251 
Q 5144 -91 4653 -91 
Q 4153 -91 3862 251 
Q 3572 594 3572 1178 
Q 3572 1766 3864 2108 
Q 4156 2450 4653 2450 
z
M 1428 4353 
Q 1159 4353 1004 4120 
Q 850 3888 850 3481 
Q 850 3069 1003 2837 
Q 1156 2606 1428 2606 
Q 1700 2606 1854 2837 
Q 2009 3069 2009 3481 
Q 2009 3884 1853 4118 
Q 1697 4353 1428 4353 
z
M 4250 4750 
L 4750 4750 
L 1831 -91 
L 1331 -91 
L 4250 4750 
z
M 1428 4750 
Q 1922 4750 2215 4408 
Q 2509 4066 2509 3481 
Q 2509 2891 2217 2550 
Q 1925 2209 1428 2209 
Q 931 2209 642 2551 
Q 353 2894 353 3481 
Q 353 4063 643 4406 
Q 934 4750 1428 4750 
z
" transform="scale(0.015625)"/>
     </defs>
     <use xlink:href="#DejaVuSans-54"/>
     <use xlink:href="#DejaVuSans-6f" x="44.083984"/>
     <use xlink:href="#DejaVuSans-74" x="105.265625"/>
     <use xlink:href="#DejaVuSans-61" x="144.474609"/>
     <use xlink:href="#DejaVuSans-6c" x="205.753906"/>
     <use xlink:href="#DejaVuSans-20" x="233.537109"/>
     <use xlink:href="#DejaVuSans-63" x="265.324219"/>
     <use xlink:href="#DejaVuSans-6f" x="320.304688"/>
     <use xlink:href="#DejaVuSans-76" x="381.486328"/>
     <use xlink:href="#DejaVuSans-65" x="440.666016"/>
     <use xlink:href="#DejaVuSans-72" x="502.189453"/>
     <use xlink:href="#DejaVuSans-61" x="543.302734"/>
     <use xlink:href="#DejaVuSans-67" x="604.582031"/>
     <use xlink:href="#DejaVuSans-65" x="668.058594"/>
     <use xlink:href="#DejaVuSans-3a" x="729.582031"/>
     <use xlink:href="#DejaVuSans-20" x="763.273438"/>
     <use xlink:href="#DejaVuSans-31" x="795.060547"/>
     <use xlink:href="#DejaVuSans-38" x="858.683594"/>
     <use xlink:href="#DejaVuSans-2e" x="922.306641"/>
     <use xlink:href="#DejaVuSans-34" x="954.09375"/>
     <use xlink:href="#DejaVuSans-38" x="1017.716797"/>
     <use xlink:href="#DejaVuSans-25" x="1081.339844"/>
    </g>
   </g>
  </g>
 </g>
 <defs>
  <clipPath id="p49041ba365">
   <rect x="57.6" y="41.472" width="357.12" height="266.112"/>
  </clipPath>
 </defs>
</svg>
