<?xml version="1.0" encoding="utf-8" standalone="no"?>
<!DOCTYPE svg PUBLIC "-//W3C//DTD SVG 1.1//EN"
  "http://www.w3.org/Graphics/SVG/1.1/DTD/svg11.dtd">
<svg xmlns:xlink="http://www.w3.org/1999/xlink" width="460.8pt" height="345.6pt" viewBox="0 0 460.8 345.6" xmlns="http://www.w3.org/2000/svg" version="1.1">
 <metadata>
  <rdf:RDF xmlns:dc="http://purl.org/dc/elements/1.1/" xmlns:cc="http://creativecommons.org/ns#" xmlns:rdf="http://www.w3.org/1999/02/22-rdf-syntax-ns#">
   <cc:Work>
    <dc:type rdf:resource="http://purl.org/dc/dcmitype/StillImage"/>
    <dc:date>2024-06-22T20:35:21.125341</dc:date>
    <dc:format>image/svg+xml</dc:format>
    <dc:creator>
     <cc:Agent>
      <dc:title>Matplotlib v3.6.0, https://matplotlib.org/</dc:title>
     </cc:Agent>
    </dc:creator>
   </cc:Work>
  </rdf:RDF>
 </metadata>
 <defs>
  <style type="text/css">*{stroke-linejoin: round; stroke-linecap: butt}</style>
 </defs>
 <g id="figure_1">
  <g id="patch_1">
   <path d="M 0 345.6 
L 460.8 345.6 
L 460.8 0 
L 0 0 
z
" style="fill: #ffffff"/>
  </g>
  <g id="axes_1">
   <g id="patch_2">
    <path d="M 57.6 307.584 
L 414.72 307.584 
L 414.72 41.472 
L 57.6 41.472 
z
" style="fill: #ffffff"/>
   </g>
   <g id="PolyCollection_1"/>
   <g id="matplotlib.axis_1">
    <g id="xtick_1">
     <g id="line2d_1">
      <defs>
       <path id="m089a2dd6b3" d="M 0 0 
L 0 3.5 
" style="stroke: #000000; stroke-width: 0.8"/>
      </defs>
      <g>
       <use xlink:href="#m089a2dd6b3" x="73.825509" y="307.584" style="stroke: #000000; stroke-width: 0.8"/>
      </g>
     </g>
     <g id="text_1">
      <!-- 0 -->
      <g transform="translate(70.644259 322.182437) scale(0.1 -0.1)">
       <defs>
        <path id="DejaVuSans-30" d="M 2034 4250 
Q 1547 4250 1301 3770 
Q 1056 3291 1056 2328 
Q 1056 1369 1301 889 
Q 1547 409 2034 409 
Q 2525 409 2770 889 
Q 3016 1369 3016 2328 
Q 3016 3291 2770 3770 
Q 2525 4250 2034 4250 
z
M 2034 4750 
Q 2819 4750 3233 4129 
Q 3647 3509 3647 2328 
Q 3647 1150 3233 529 
Q 2819 -91 2034 -91 
Q 1250 -91 836 529 
Q 422 1150 422 2328 
Q 422 3509 836 4129 
Q 1250 4750 2034 4750 
z
" transform="scale(0.015625)"/>
       </defs>
       <use xlink:href="#DejaVuSans-30"/>
      </g>
     </g>
    </g>
    <g id="xtick_2">
     <g id="line2d_2">
      <g>
       <use xlink:href="#m089a2dd6b3" x="146.004648" y="307.584" style="stroke: #000000; stroke-width: 0.8"/>
      </g>
     </g>
     <g id="text_2">
      <!-- 10000 -->
      <g transform="translate(130.098398 322.182437) scale(0.1 -0.1)">
       <defs>
        <path id="DejaVuSans-31" d="M 794 531 
L 1825 531 
L 1825 4091 
L 703 3866 
L 703 4441 
L 1819 4666 
L 2450 4666 
L 2450 531 
L 3481 531 
L 3481 0 
L 794 0 
L 794 531 
z
" transform="scale(0.015625)"/>
       </defs>
       <use xlink:href="#DejaVuSans-31"/>
       <use xlink:href="#DejaVuSans-30" x="63.623047"/>
       <use xlink:href="#DejaVuSans-30" x="127.246094"/>
       <use xlink:href="#DejaVuSans-30" x="190.869141"/>
       <use xlink:href="#DejaVuSans-30" x="254.492188"/>
      </g>
     </g>
    </g>
    <g id="xtick_3">
     <g id="line2d_3">
      <g>
       <use xlink:href="#m089a2dd6b3" x="218.183786" y="307.584" style="stroke: #000000; stroke-width: 0.8"/>
      </g>
     </g>
     <g id="text_3">
      <!-- 20000 -->
      <g transform="translate(202.277536 322.182437) scale(0.1 -0.1)">
       <defs>
        <path id="DejaVuSans-32" d="M 1228 531 
L 3431 531 
L 3431 0 
L 469 0 
L 469 531 
Q 828 903 1448 1529 
Q 2069 2156 2228 2338 
Q 2531 2678 2651 2914 
Q 2772 3150 2772 3378 
Q 2772 3750 2511 3984 
Q 2250 4219 1831 4219 
Q 1534 4219 1204 4116 
Q 875 4013 500 3803 
L 500 4441 
Q 881 4594 1212 4672 
Q 1544 4750 1819 4750 
Q 2544 4750 2975 4387 
Q 3406 4025 3406 3419 
Q 3406 3131 3298 2873 
Q 3191 2616 2906 2266 
Q 2828 2175 2409 1742 
Q 1991 1309 1228 531 
z
" transform="scale(0.015625)"/>
       </defs>
       <use xlink:href="#DejaVuSans-32"/>
       <use xlink:href="#DejaVuSans-30" x="63.623047"/>
       <use xlink:href="#DejaVuSans-30" x="127.246094"/>
       <use xlink:href="#DejaVuSans-30" x="190.869141"/>
       <use xlink:href="#DejaVuSans-30" x="254.492188"/>
      </g>
     </g>
    </g>
    <g id="xtick_4">
     <g id="line2d_4">
      <g>
       <use xlink:href="#m089a2dd6b3" x="290.362924" y="307.584" style="stroke: #000000; stroke-width: 0.8"/>
      </g>
     </g>
     <g id="text_4">
      <!-- 30000 -->
      <g transform="translate(274.456674 322.182437) scale(0.1 -0.1)">
       <defs>
        <path id="DejaVuSans-33" d="M 2597 2516 
Q 3050 2419 3304 2112 
Q 3559 1806 3559 1356 
Q 3559 666 3084 287 
Q 2609 -91 1734 -91 
Q 1441 -91 1130 -33 
Q 819 25 488 141 
L 488 750 
Q 750 597 1062 519 
Q 1375 441 1716 441 
Q 2309 441 2620 675 
Q 2931 909 2931 1356 
Q 2931 1769 2642 2001 
Q 2353 2234 1838 2234 
L 1294 2234 
L 1294 2753 
L 1863 2753 
Q 2328 2753 2575 2939 
Q 2822 3125 2822 3475 
Q 2822 3834 2567 4026 
Q 2313 4219 1838 4219 
Q 1578 4219 1281 4162 
Q 984 4106 628 3988 
L 628 4550 
Q 988 4650 1302 4700 
Q 1616 4750 1894 4750 
Q 2613 4750 3031 4423 
Q 3450 4097 3450 3541 
Q 3450 3153 3228 2886 
Q 3006 2619 2597 2516 
z
" transform="scale(0.015625)"/>
       </defs>
       <use xlink:href="#DejaVuSans-33"/>
       <use xlink:href="#DejaVuSans-30" x="63.623047"/>
       <use xlink:href="#DejaVuSans-30" x="127.246094"/>
       <use xlink:href="#DejaVuSans-30" x="190.869141"/>
       <use xlink:href="#DejaVuSans-30" x="254.492188"/>
      </g>
     </g>
    </g>
    <g id="xtick_5">
     <g id="line2d_5">
      <g>
       <use xlink:href="#m089a2dd6b3" x="362.542062" y="307.584" style="stroke: #000000; stroke-width: 0.8"/>
      </g>
     </g>
     <g id="text_5">
      <!-- 40000 -->
      <g transform="translate(346.635812 322.182437) scale(0.1 -0.1)">
       <defs>
        <path id="DejaVuSans-34" d="M 2419 4116 
L 825 1625 
L 2419 1625 
L 2419 4116 
z
M 2253 4666 
L 3047 4666 
L 3047 1625 
L 3713 1625 
L 3713 1100 
L 3047 1100 
L 3047 0 
L 2419 0 
L 2419 1100 
L 313 1100 
L 313 1709 
L 2253 4666 
z
" transform="scale(0.015625)"/>
       </defs>
       <use xlink:href="#DejaVuSans-34"/>
       <use xlink:href="#DejaVuSans-30" x="63.623047"/>
       <use xlink:href="#DejaVuSans-30" x="127.246094"/>
       <use xlink:href="#DejaVuSans-30" x="190.869141"/>
       <use xlink:href="#DejaVuSans-30" x="254.492188"/>
      </g>
     </g>
    </g>
    <g id="text_6">
     <!-- Nucleotide position -->
     <g transform="translate(187.982656 335.860562) scale(0.1 -0.1)">
      <defs>
       <path id="DejaVuSans-4e" d="M 628 4666 
L 1478 4666 
L 3547 763 
L 3547 4666 
L 4159 4666 
L 4159 0 
L 3309 0 
L 1241 3903 
L 1241 0 
L 628 0 
L 628 4666 
z
" transform="scale(0.015625)"/>
       <path id="DejaVuSans-75" d="M 544 1381 
L 544 3500 
L 1119 3500 
L 1119 1403 
Q 1119 906 1312 657 
Q 1506 409 1894 409 
Q 2359 409 2629 706 
Q 2900 1003 2900 1516 
L 2900 3500 
L 3475 3500 
L 3475 0 
L 2900 0 
L 2900 538 
Q 2691 219 2414 64 
Q 2138 -91 1772 -91 
Q 1169 -91 856 284 
Q 544 659 544 1381 
z
M 1991 3584 
L 1991 3584 
z
" transform="scale(0.015625)"/>
       <path id="DejaVuSans-63" d="M 3122 3366 
L 3122 2828 
Q 2878 2963 2633 3030 
Q 2388 3097 2138 3097 
Q 1578 3097 1268 2742 
Q 959 2388 959 1747 
Q 959 1106 1268 751 
Q 1578 397 2138 397 
Q 2388 397 2633 464 
Q 2878 531 3122 666 
L 3122 134 
Q 2881 22 2623 -34 
Q 2366 -91 2075 -91 
Q 1284 -91 818 406 
Q 353 903 353 1747 
Q 353 2603 823 3093 
Q 1294 3584 2113 3584 
Q 2378 3584 2631 3529 
Q 2884 3475 3122 3366 
z
" transform="scale(0.015625)"/>
       <path id="DejaVuSans-6c" d="M 603 4863 
L 1178 4863 
L 1178 0 
L 603 0 
L 603 4863 
z
" transform="scale(0.015625)"/>
       <path id="DejaVuSans-65" d="M 3597 1894 
L 3597 1613 
L 953 1613 
Q 991 1019 1311 708 
Q 1631 397 2203 397 
Q 2534 397 2845 478 
Q 3156 559 3463 722 
L 3463 178 
Q 3153 47 2828 -22 
Q 2503 -91 2169 -91 
Q 1331 -91 842 396 
Q 353 884 353 1716 
Q 353 2575 817 3079 
Q 1281 3584 2069 3584 
Q 2775 3584 3186 3129 
Q 3597 2675 3597 1894 
z
M 3022 2063 
Q 3016 2534 2758 2815 
Q 2500 3097 2075 3097 
Q 1594 3097 1305 2825 
Q 1016 2553 972 2059 
L 3022 2063 
z
" transform="scale(0.015625)"/>
       <path id="DejaVuSans-6f" d="M 1959 3097 
Q 1497 3097 1228 2736 
Q 959 2375 959 1747 
Q 959 1119 1226 758 
Q 1494 397 1959 397 
Q 2419 397 2687 759 
Q 2956 1122 2956 1747 
Q 2956 2369 2687 2733 
Q 2419 3097 1959 3097 
z
M 1959 3584 
Q 2709 3584 3137 3096 
Q 3566 2609 3566 1747 
Q 3566 888 3137 398 
Q 2709 -91 1959 -91 
Q 1206 -91 779 398 
Q 353 888 353 1747 
Q 353 2609 779 3096 
Q 1206 3584 1959 3584 
z
" transform="scale(0.015625)"/>
       <path id="DejaVuSans-74" d="M 1172 4494 
L 1172 3500 
L 2356 3500 
L 2356 3053 
L 1172 3053 
L 1172 1153 
Q 1172 725 1289 603 
Q 1406 481 1766 481 
L 2356 481 
L 2356 0 
L 1766 0 
Q 1100 0 847 248 
Q 594 497 594 1153 
L 594 3053 
L 172 3053 
L 172 3500 
L 594 3500 
L 594 4494 
L 1172 4494 
z
" transform="scale(0.015625)"/>
       <path id="DejaVuSans-69" d="M 603 3500 
L 1178 3500 
L 1178 0 
L 603 0 
L 603 3500 
z
M 603 4863 
L 1178 4863 
L 1178 4134 
L 603 4134 
L 603 4863 
z
" transform="scale(0.015625)"/>
       <path id="DejaVuSans-64" d="M 2906 2969 
L 2906 4863 
L 3481 4863 
L 3481 0 
L 2906 0 
L 2906 525 
Q 2725 213 2448 61 
Q 2172 -91 1784 -91 
Q 1150 -91 751 415 
Q 353 922 353 1747 
Q 353 2572 751 3078 
Q 1150 3584 1784 3584 
Q 2172 3584 2448 3432 
Q 2725 3281 2906 2969 
z
M 947 1747 
Q 947 1113 1208 752 
Q 1469 391 1925 391 
Q 2381 391 2643 752 
Q 2906 1113 2906 1747 
Q 2906 2381 2643 2742 
Q 2381 3103 1925 3103 
Q 1469 3103 1208 2742 
Q 947 2381 947 1747 
z
" transform="scale(0.015625)"/>
       <path id="DejaVuSans-20" transform="scale(0.015625)"/>
       <path id="DejaVuSans-70" d="M 1159 525 
L 1159 -1331 
L 581 -1331 
L 581 3500 
L 1159 3500 
L 1159 2969 
Q 1341 3281 1617 3432 
Q 1894 3584 2278 3584 
Q 2916 3584 3314 3078 
Q 3713 2572 3713 1747 
Q 3713 922 3314 415 
Q 2916 -91 2278 -91 
Q 1894 -91 1617 61 
Q 1341 213 1159 525 
z
M 3116 1747 
Q 3116 2381 2855 2742 
Q 2594 3103 2138 3103 
Q 1681 3103 1420 2742 
Q 1159 2381 1159 1747 
Q 1159 1113 1420 752 
Q 1681 391 2138 391 
Q 2594 391 2855 752 
Q 3116 1113 3116 1747 
z
" transform="scale(0.015625)"/>
       <path id="DejaVuSans-73" d="M 2834 3397 
L 2834 2853 
Q 2591 2978 2328 3040 
Q 2066 3103 1784 3103 
Q 1356 3103 1142 2972 
Q 928 2841 928 2578 
Q 928 2378 1081 2264 
Q 1234 2150 1697 2047 
L 1894 2003 
Q 2506 1872 2764 1633 
Q 3022 1394 3022 966 
Q 3022 478 2636 193 
Q 2250 -91 1575 -91 
Q 1294 -91 989 -36 
Q 684 19 347 128 
L 347 722 
Q 666 556 975 473 
Q 1284 391 1588 391 
Q 1994 391 2212 530 
Q 2431 669 2431 922 
Q 2431 1156 2273 1281 
Q 2116 1406 1581 1522 
L 1381 1569 
Q 847 1681 609 1914 
Q 372 2147 372 2553 
Q 372 3047 722 3315 
Q 1072 3584 1716 3584 
Q 2034 3584 2315 3537 
Q 2597 3491 2834 3397 
z
" transform="scale(0.015625)"/>
       <path id="DejaVuSans-6e" d="M 3513 2113 
L 3513 0 
L 2938 0 
L 2938 2094 
Q 2938 2591 2744 2837 
Q 2550 3084 2163 3084 
Q 1697 3084 1428 2787 
Q 1159 2491 1159 1978 
L 1159 0 
L 581 0 
L 581 3500 
L 1159 3500 
L 1159 2956 
Q 1366 3272 1645 3428 
Q 1925 3584 2291 3584 
Q 2894 3584 3203 3211 
Q 3513 2838 3513 2113 
z
" transform="scale(0.015625)"/>
      </defs>
      <use xlink:href="#DejaVuSans-4e"/>
      <use xlink:href="#DejaVuSans-75" x="74.804688"/>
      <use xlink:href="#DejaVuSans-63" x="138.183594"/>
      <use xlink:href="#DejaVuSans-6c" x="193.164062"/>
      <use xlink:href="#DejaVuSans-65" x="220.947266"/>
      <use xlink:href="#DejaVuSans-6f" x="282.470703"/>
      <use xlink:href="#DejaVuSans-74" x="343.652344"/>
      <use xlink:href="#DejaVuSans-69" x="382.861328"/>
      <use xlink:href="#DejaVuSans-64" x="410.644531"/>
      <use xlink:href="#DejaVuSans-65" x="474.121094"/>
      <use xlink:href="#DejaVuSans-20" x="535.644531"/>
      <use xlink:href="#DejaVuSans-70" x="567.431641"/>
      <use xlink:href="#DejaVuSans-6f" x="630.908203"/>
      <use xlink:href="#DejaVuSans-73" x="692.089844"/>
      <use xlink:href="#DejaVuSans-69" x="744.189453"/>
      <use xlink:href="#DejaVuSans-74" x="771.972656"/>
      <use xlink:href="#DejaVuSans-69" x="811.181641"/>
      <use xlink:href="#DejaVuSans-6f" x="838.964844"/>
      <use xlink:href="#DejaVuSans-6e" x="900.146484"/>
     </g>
    </g>
   </g>
   <g id="matplotlib.axis_2">
    <g id="ytick_1">
     <g id="line2d_6">
      <defs>
       <path id="mbb022dca76" d="M 0 0 
L -3.5 0 
" style="stroke: #000000; stroke-width: 0.8"/>
      </defs>
      <g>
       <use xlink:href="#mbb022dca76" x="57.6" y="295.488" style="stroke: #000000; stroke-width: 0.8"/>
      </g>
     </g>
     <g id="text_7">
      <!-- 0 -->
      <g transform="translate(44.2375 299.287219) scale(0.1 -0.1)">
       <use xlink:href="#DejaVuSans-30"/>
      </g>
     </g>
    </g>
    <g id="ytick_2">
     <g id="line2d_7">
      <g>
       <use xlink:href="#mbb022dca76" x="57.6" y="248.964923" style="stroke: #000000; stroke-width: 0.8"/>
      </g>
     </g>
     <g id="text_8">
      <!-- 5 -->
      <g transform="translate(44.2375 252.764142) scale(0.1 -0.1)">
       <defs>
        <path id="DejaVuSans-35" d="M 691 4666 
L 3169 4666 
L 3169 4134 
L 1269 4134 
L 1269 2991 
Q 1406 3038 1543 3061 
Q 1681 3084 1819 3084 
Q 2600 3084 3056 2656 
Q 3513 2228 3513 1497 
Q 3513 744 3044 326 
Q 2575 -91 1722 -91 
Q 1428 -91 1123 -41 
Q 819 9 494 109 
L 494 744 
Q 775 591 1075 516 
Q 1375 441 1709 441 
Q 2250 441 2565 725 
Q 2881 1009 2881 1497 
Q 2881 1984 2565 2268 
Q 2250 2553 1709 2553 
Q 1456 2553 1204 2497 
Q 953 2441 691 2322 
L 691 4666 
z
" transform="scale(0.015625)"/>
       </defs>
       <use xlink:href="#DejaVuSans-35"/>
      </g>
     </g>
    </g>
    <g id="ytick_3">
     <g id="line2d_8">
      <g>
       <use xlink:href="#mbb022dca76" x="57.6" y="202.441846" style="stroke: #000000; stroke-width: 0.8"/>
      </g>
     </g>
     <g id="text_9">
      <!-- 10 -->
      <g transform="translate(37.875 206.241065) scale(0.1 -0.1)">
       <use xlink:href="#DejaVuSans-31"/>
       <use xlink:href="#DejaVuSans-30" x="63.623047"/>
      </g>
     </g>
    </g>
    <g id="ytick_4">
     <g id="line2d_9">
      <g>
       <use xlink:href="#mbb022dca76" x="57.6" y="155.918769" style="stroke: #000000; stroke-width: 0.8"/>
      </g>
     </g>
     <g id="text_10">
      <!-- 15 -->
      <g transform="translate(37.875 159.717988) scale(0.1 -0.1)">
       <use xlink:href="#DejaVuSans-31"/>
       <use xlink:href="#DejaVuSans-35" x="63.623047"/>
      </g>
     </g>
    </g>
    <g id="ytick_5">
     <g id="line2d_10">
      <g>
       <use xlink:href="#mbb022dca76" x="57.6" y="109.395692" style="stroke: #000000; stroke-width: 0.8"/>
      </g>
     </g>
     <g id="text_11">
      <!-- 20 -->
      <g transform="translate(37.875 113.194911) scale(0.1 -0.1)">
       <use xlink:href="#DejaVuSans-32"/>
       <use xlink:href="#DejaVuSans-30" x="63.623047"/>
      </g>
     </g>
    </g>
    <g id="ytick_6">
     <g id="line2d_11">
      <g>
       <use xlink:href="#mbb022dca76" x="57.6" y="62.872615" style="stroke: #000000; stroke-width: 0.8"/>
      </g>
     </g>
     <g id="text_12">
      <!-- 25 -->
      <g transform="translate(37.875 66.671834) scale(0.1 -0.1)">
       <use xlink:href="#DejaVuSans-32"/>
       <use xlink:href="#DejaVuSans-35" x="63.623047"/>
      </g>
     </g>
    </g>
    <g id="text_13">
     <!-- Coverage -->
     <g transform="translate(31.795312 198.485031) rotate(-90) scale(0.1 -0.1)">
      <defs>
       <path id="DejaVuSans-43" d="M 4122 4306 
L 4122 3641 
Q 3803 3938 3442 4084 
Q 3081 4231 2675 4231 
Q 1875 4231 1450 3742 
Q 1025 3253 1025 2328 
Q 1025 1406 1450 917 
Q 1875 428 2675 428 
Q 3081 428 3442 575 
Q 3803 722 4122 1019 
L 4122 359 
Q 3791 134 3420 21 
Q 3050 -91 2638 -91 
Q 1578 -91 968 557 
Q 359 1206 359 2328 
Q 359 3453 968 4101 
Q 1578 4750 2638 4750 
Q 3056 4750 3426 4639 
Q 3797 4528 4122 4306 
z
" transform="scale(0.015625)"/>
       <path id="DejaVuSans-76" d="M 191 3500 
L 800 3500 
L 1894 563 
L 2988 3500 
L 3597 3500 
L 2284 0 
L 1503 0 
L 191 3500 
z
" transform="scale(0.015625)"/>
       <path id="DejaVuSans-72" d="M 2631 2963 
Q 2534 3019 2420 3045 
Q 2306 3072 2169 3072 
Q 1681 3072 1420 2755 
Q 1159 2438 1159 1844 
L 1159 0 
L 581 0 
L 581 3500 
L 1159 3500 
L 1159 2956 
Q 1341 3275 1631 3429 
Q 1922 3584 2338 3584 
Q 2397 3584 2469 3576 
Q 2541 3569 2628 3553 
L 2631 2963 
z
" transform="scale(0.015625)"/>
       <path id="DejaVuSans-61" d="M 2194 1759 
Q 1497 1759 1228 1600 
Q 959 1441 959 1056 
Q 959 750 1161 570 
Q 1363 391 1709 391 
Q 2188 391 2477 730 
Q 2766 1069 2766 1631 
L 2766 1759 
L 2194 1759 
z
M 3341 1997 
L 3341 0 
L 2766 0 
L 2766 531 
Q 2569 213 2275 61 
Q 1981 -91 1556 -91 
Q 1019 -91 701 211 
Q 384 513 384 1019 
Q 384 1609 779 1909 
Q 1175 2209 1959 2209 
L 2766 2209 
L 2766 2266 
Q 2766 2663 2505 2880 
Q 2244 3097 1772 3097 
Q 1472 3097 1187 3025 
Q 903 2953 641 2809 
L 641 3341 
Q 956 3463 1253 3523 
Q 1550 3584 1831 3584 
Q 2591 3584 2966 3190 
Q 3341 2797 3341 1997 
z
" transform="scale(0.015625)"/>
       <path id="DejaVuSans-67" d="M 2906 1791 
Q 2906 2416 2648 2759 
Q 2391 3103 1925 3103 
Q 1463 3103 1205 2759 
Q 947 2416 947 1791 
Q 947 1169 1205 825 
Q 1463 481 1925 481 
Q 2391 481 2648 825 
Q 2906 1169 2906 1791 
z
M 3481 434 
Q 3481 -459 3084 -895 
Q 2688 -1331 1869 -1331 
Q 1566 -1331 1297 -1286 
Q 1028 -1241 775 -1147 
L 775 -588 
Q 1028 -725 1275 -790 
Q 1522 -856 1778 -856 
Q 2344 -856 2625 -561 
Q 2906 -266 2906 331 
L 2906 616 
Q 2728 306 2450 153 
Q 2172 0 1784 0 
Q 1141 0 747 490 
Q 353 981 353 1791 
Q 353 2603 747 3093 
Q 1141 3584 1784 3584 
Q 2172 3584 2450 3431 
Q 2728 3278 2906 2969 
L 2906 3500 
L 3481 3500 
L 3481 434 
z
" transform="scale(0.015625)"/>
      </defs>
      <use xlink:href="#DejaVuSans-43"/>
      <use xlink:href="#DejaVuSans-6f" x="69.824219"/>
      <use xlink:href="#DejaVuSans-76" x="131.005859"/>
      <use xlink:href="#DejaVuSans-65" x="190.185547"/>
      <use xlink:href="#DejaVuSans-72" x="251.708984"/>
      <use xlink:href="#DejaVuSans-61" x="292.822266"/>
      <use xlink:href="#DejaVuSans-67" x="354.101562"/>
      <use xlink:href="#DejaVuSans-65" x="417.578125"/>
     </g>
    </g>
   </g>
   <g id="line2d_12">
    <path d="M 73.832727 295.488 
L 74.049265 295.488 
L 74.164751 276.878769 
L 74.186405 276.878769 
L 74.30911 258.269538 
L 74.532865 258.269538 
L 74.655569 239.660308 
L 74.662787 239.660308 
L 74.79271 211.746462 
L 74.821581 211.746462 
L 74.937068 202.441846 
L 74.994811 202.441846 
L 75.117516 230.355692 
L 75.211349 221.051077 
L 75.225785 230.355692 
L 75.233003 230.355692 
L 75.355707 248.964923 
L 75.391797 248.964923 
L 75.507283 267.574154 
L 75.579462 248.964923 
L 75.615552 258.269538 
L 75.767128 258.269538 
L 75.925922 193.137231 
L 75.93314 193.137231 
L 76.055845 128.004923 
L 76.070281 128.004923 
L 76.091934 137.309538 
L 76.156896 109.395692 
L 76.164113 109.395692 
L 76.207421 109.395692 
L 76.337343 81.481846 
L 76.351779 81.481846 
L 76.48892 118.700308 
L 76.510573 118.700308 
L 76.62606 128.004923 
L 76.712675 128.004923 
L 76.871469 193.137231 
L 76.878687 193.137231 
L 77.023045 239.660308 
L 77.030263 239.660308 
L 77.174621 286.183385 
L 77.275672 286.183385 
L 77.391159 295.488 
L 82.883991 295.488 
L 82.999478 286.183385 
L 83.035567 286.183385 
L 83.151054 295.488 
L 100.986519 295.488 
L 101.102006 286.183385 
L 101.130877 286.183385 
L 101.246364 295.488 
L 102.220782 295.488 
L 102.336269 286.183385 
L 102.531153 286.183385 
L 102.646639 295.488 
L 152.63791 295.488 
L 152.818358 202.441846 
L 152.84723 202.441846 
L 152.977152 174.528 
L 152.998806 174.528 
L 153.128728 146.614154 
L 153.208125 146.614154 
L 153.352484 100.091077 
L 153.36692 100.091077 
L 153.489624 53.568 
L 153.54015 53.568 
L 153.706162 128.004923 
L 153.713379 128.004923 
L 153.843302 155.918769 
L 153.872174 155.918769 
L 154.002096 193.137231 
L 154.132018 165.223385 
L 154.153672 165.223385 
L 154.29803 211.746462 
L 154.319684 211.746462 
L 154.442389 258.269538 
L 154.846592 258.269538 
L 154.954861 230.355692 
L 154.969296 239.660308 
L 154.998168 239.660308 
L 155.005386 230.355692 
L 155.106437 239.660308 
L 155.380718 239.660308 
L 155.47455 211.746462 
L 155.496204 221.051077 
L 155.553947 221.051077 
L 155.611691 211.746462 
L 155.662216 221.051077 
L 155.68387 221.051077 
L 155.799357 211.746462 
L 155.893189 211.746462 
L 155.958151 230.355692 
L 156.008676 221.051077 
L 156.102509 221.051077 
L 156.225213 202.441846 
L 156.261303 202.441846 
L 156.405661 248.964923 
L 156.499494 248.964923 
L 156.614981 258.269538 
L 156.737685 258.269538 
L 156.744903 267.574154 
L 156.809864 239.660308 
L 156.831518 239.660308 
L 156.896479 239.660308 
L 156.925351 248.964923 
L 157.004748 239.660308 
L 157.026402 239.660308 
L 157.149106 258.269538 
L 157.538874 258.269538 
L 157.65436 239.660308 
L 157.697668 239.660308 
L 157.820372 258.269538 
L 157.878116 258.269538 
L 157.971949 267.574154 
L 157.986384 258.269538 
L 158.109089 258.269538 
L 158.224576 248.964923 
L 158.303973 248.964923 
L 158.419459 258.269538 
L 158.433895 258.269538 
L 158.563818 286.183385 
L 158.65765 286.183385 
L 158.773137 295.488 
L 159.220648 295.488 
L 159.336134 276.878769 
L 159.379442 276.878769 
L 159.509364 248.964923 
L 159.531018 248.964923 
L 159.682594 193.137231 
L 159.790863 193.137231 
L 159.90635 183.832615 
L 159.985747 183.832615 
L 160.101233 174.528 
L 160.115669 174.528 
L 160.238374 155.918769 
L 160.274463 155.918769 
L 160.317771 146.614154 
L 160.332206 165.223385 
L 160.375514 165.223385 
L 160.38995 165.223385 
L 160.512654 193.137231 
L 160.519872 183.832615 
L 160.577615 230.355692 
L 160.592051 230.355692 
L 160.606487 230.355692 
L 160.743628 193.137231 
L 160.859114 202.441846 
L 160.924075 202.441846 
L 160.945729 211.746462 
L 160.960165 193.137231 
L 161.025126 193.137231 
L 161.039562 193.137231 
L 161.068434 183.832615 
L 161.140613 193.137231 
L 161.270535 221.051077 
L 161.277753 221.051077 
L 161.39324 230.355692 
L 161.544816 230.355692 
L 161.681956 267.574154 
L 161.891276 267.574154 
L 162.006762 295.488 
L 166.842765 295.488 
L 166.958251 276.878769 
L 167.124263 276.878769 
L 167.261404 239.660308 
L 167.283057 239.660308 
L 167.405762 221.051077 
L 167.521249 221.051077 
L 167.636735 202.441846 
L 167.643953 202.441846 
L 167.75944 193.137231 
L 167.788311 193.137231 
L 167.903798 211.746462 
L 167.997631 211.746462 
L 168.113118 221.051077 
L 168.127553 221.051077 
L 168.264694 258.269538 
L 168.308001 258.269538 
L 168.423488 267.574154 
L 168.466795 267.574154 
L 168.5895 286.183385 
L 168.596718 286.183385 
L 168.712204 295.488 
L 170.632169 295.488 
L 170.754874 276.878769 
L 170.805399 276.878769 
L 170.928104 258.269538 
L 170.993065 258.269538 
L 171.108552 248.964923 
L 171.159077 248.964923 
L 171.289 221.051077 
L 171.332307 221.051077 
L 171.447794 211.746462 
L 171.469447 211.746462 
L 171.584934 202.441846 
L 171.592152 202.441846 
L 171.707639 211.746462 
L 171.750946 211.746462 
L 171.758164 193.137231 
L 171.765382 221.051077 
L 171.859215 211.746462 
L 171.888086 211.746462 
L 171.953048 221.051077 
L 171.996355 211.746462 
L 172.08297 211.746462 
L 172.198457 221.051077 
L 172.205675 221.051077 
L 172.212893 211.746462 
L 172.313943 221.051077 
L 172.335597 221.051077 
L 172.458302 202.441846 
L 172.516045 202.441846 
L 172.559352 183.832615 
L 172.631532 193.137231 
L 172.682057 193.137231 
L 172.703711 183.832615 
L 172.747018 221.051077 
L 172.77589 211.746462 
L 172.855287 211.746462 
L 172.970774 230.355692 
L 172.992427 230.355692 
L 173.100696 221.051077 
L 173.12235 230.355692 
L 173.187311 193.137231 
L 173.338887 193.137231 
L 173.346105 202.441846 
L 173.447156 193.137231 
L 173.46881 193.137231 
L 173.490463 211.746462 
L 173.584296 202.441846 
L 173.620386 202.441846 
L 173.74309 221.051077 
L 173.793616 221.051077 
L 173.829705 230.355692 
L 173.851359 211.746462 
L 173.894666 211.746462 
L 173.95241 211.746462 
L 174.075114 230.355692 
L 174.096768 221.051077 
L 174.140076 248.964923 
L 174.168947 248.964923 
L 174.284434 248.964923 
L 174.313305 258.269538 
L 174.371049 239.660308 
L 174.385485 239.660308 
L 174.443228 239.660308 
L 174.558715 248.964923 
L 174.616458 248.964923 
L 174.74638 221.051077 
L 174.768034 221.051077 
L 174.890739 239.660308 
L 174.977354 239.660308 
L 175.100058 221.051077 
L 175.258852 221.051077 
L 175.381557 239.660308 
L 175.511479 239.660308 
L 175.626966 221.051077 
L 175.74967 239.660308 
L 175.756888 239.660308 
L 175.879593 221.051077 
L 175.930118 221.051077 
L 176.002297 248.964923 
L 176.052823 239.660308 
L 176.168309 239.660308 
L 176.283796 248.964923 
L 176.298232 248.964923 
L 176.413718 258.269538 
L 176.457026 258.269538 
L 176.572513 286.183385 
L 176.709653 286.183385 
L 176.825139 295.488 
L 177.337611 295.488 
L 177.460316 276.878769 
L 177.48197 276.878769 
L 177.539713 286.183385 
L 177.590238 276.878769 
L 177.662417 276.878769 
L 177.785122 258.269538 
L 177.857301 258.269538 
L 177.972788 248.964923 
L 178.081056 248.964923 
L 178.196543 239.660308 
L 178.225415 239.660308 
L 178.340901 230.355692 
L 178.463606 248.964923 
L 178.564657 248.964923 
L 178.607964 258.269538 
L 178.615182 239.660308 
L 178.665708 239.660308 
L 178.810066 239.660308 
L 178.925552 248.964923 
L 179.019385 248.964923 
L 179.134872 258.269538 
L 179.170961 258.269538 
L 179.286448 267.574154 
L 179.553511 267.574154 
L 179.62569 295.488 
L 179.668998 286.183385 
L 179.705087 286.183385 
L 179.827792 267.574154 
L 179.856663 267.574154 
L 179.986586 239.660308 
L 180.123726 239.660308 
L 180.239213 230.355692 
L 180.268084 230.355692 
L 180.405225 193.137231 
L 180.520711 193.137231 
L 180.556801 183.832615 
L 180.564019 202.441846 
L 180.621762 202.441846 
L 180.62898 202.441846 
L 180.758903 230.355692 
L 180.823864 230.355692 
L 180.946568 248.964923 
L 181.018747 248.964923 
L 181.134234 258.269538 
L 181.155888 258.269538 
L 181.293028 295.488 
L 183.50171 295.488 
L 183.617196 286.183385 
L 184.447256 286.183385 
L 184.562743 295.488 
L 188.489288 295.488 
L 188.611993 276.878769 
L 189.304912 276.878769 
L 189.420399 286.183385 
L 189.442053 286.183385 
L 189.557539 295.488 
L 190.48865 295.488 
L 190.604137 286.183385 
L 191.39089 286.183385 
L 191.506376 276.878769 
L 192.300347 276.878769 
L 192.423051 295.488 
L 194.032646 295.488 
L 194.148133 286.183385 
L 194.509028 286.183385 
L 194.624515 276.878769 
L 194.970975 276.878769 
L 195.086461 286.183385 
L 195.461793 286.183385 
L 195.57728 295.488 
L 196.991991 295.488 
L 197.121913 267.574154 
L 197.51168 267.574154 
L 197.663257 211.746462 
L 197.68491 211.746462 
L 197.800397 202.441846 
L 197.887012 202.441846 
L 197.959191 183.832615 
L 197.995281 202.441846 
L 198.009717 202.441846 
L 198.081896 211.746462 
L 198.110767 193.137231 
L 198.146857 193.137231 
L 198.168511 202.441846 
L 198.255126 193.137231 
L 198.385048 193.137231 
L 198.500535 183.832615 
L 198.536624 183.832615 
L 198.680983 230.355692 
L 198.717072 230.355692 
L 198.803687 239.660308 
L 198.810905 221.051077 
L 198.818123 221.051077 
L 198.832559 221.051077 
L 198.955263 239.660308 
L 199.056314 239.660308 
L 199.179019 258.269538 
L 199.330595 258.269538 
L 199.446081 267.574154 
L 199.503825 267.574154 
L 199.619311 276.878769 
L 199.749234 276.878769 
L 199.86472 295.488 
L 200.456589 295.488 
L 200.579294 276.878769 
L 200.600948 276.878769 
L 200.73087 248.964923 
L 201.409354 248.964923 
L 201.532058 267.574154 
L 201.553712 267.574154 
L 201.683635 295.488 
L 209.536725 295.488 
L 209.652212 286.183385 
L 210.323478 286.183385 
L 210.438964 276.878769 
L 210.48949 276.878769 
L 210.568887 286.183385 
L 210.597758 276.878769 
L 210.850385 276.878769 
L 210.965872 267.574154 
L 211.182409 267.574154 
L 211.261806 258.269538 
L 211.290678 267.574154 
L 211.391729 267.574154 
L 211.507215 239.660308 
L 211.514433 248.964923 
L 211.752624 248.964923 
L 211.795932 239.660308 
L 211.860893 248.964923 
L 211.947508 248.964923 
L 212.062995 239.660308 
L 212.077431 239.660308 
L 212.214571 202.441846 
L 212.236225 202.441846 
L 212.344493 193.137231 
L 212.467198 211.746462 
L 212.517723 211.746462 
L 212.611556 221.051077 
L 212.625992 211.746462 
L 212.654864 211.746462 
L 212.777568 230.355692 
L 212.820876 230.355692 
L 212.94358 211.746462 
L 213.022977 211.746462 
L 213.1529 239.660308 
L 213.188989 239.660308 
L 213.318912 211.746462 
L 213.340565 211.746462 
L 213.46327 193.137231 
L 213.506577 193.137231 
L 213.622064 183.832615 
L 213.737551 193.137231 
L 213.766422 193.137231 
L 213.77364 183.832615 
L 213.853037 211.746462 
L 213.860255 211.746462 
L 213.94687 211.746462 
L 214.069575 193.137231 
L 214.134536 193.137231 
L 214.257241 211.746462 
L 214.29333 211.746462 
L 214.423253 239.660308 
L 214.459342 239.660308 
L 214.574829 248.964923 
L 214.6037 248.964923 
L 214.711969 239.660308 
L 214.740841 248.964923 
L 214.748059 230.355692 
L 214.81302 230.355692 
L 214.957378 230.355692 
L 215.015121 211.746462 
L 215.072865 221.051077 
L 215.080083 221.051077 
L 215.224441 174.528 
L 215.29662 174.528 
L 215.440978 128.004923 
L 215.455414 128.004923 
L 215.484286 100.091077 
L 215.563683 128.004923 
L 215.592555 128.004923 
L 215.621426 137.309538 
L 215.693605 128.004923 
L 215.722477 109.395692 
L 215.801874 118.700308 
L 215.809092 118.700308 
L 215.924579 90.786462 
L 215.95345 90.786462 
L 215.982322 100.091077 
L 216.054501 90.786462 
L 216.068937 81.481846 
L 216.148334 100.091077 
L 216.191641 118.700308 
L 216.263821 109.395692 
L 216.271038 109.395692 
L 216.364871 81.481846 
L 216.379307 100.091077 
L 216.400961 100.091077 
L 216.480358 118.700308 
L 216.50923 109.395692 
L 216.516448 109.395692 
L 216.552537 100.091077 
L 216.581409 128.004923 
L 216.61028 128.004923 
L 216.617498 128.004923 
L 216.624716 118.700308 
L 216.64637 137.309538 
L 216.725767 128.004923 
L 216.754639 128.004923 
L 216.761857 118.700308 
L 216.805164 146.614154 
L 216.848472 146.614154 
L 216.920651 146.614154 
L 217.050573 174.528 
L 217.093881 174.528 
L 217.245457 230.355692 
L 217.288764 230.355692 
L 217.411469 248.964923 
L 217.469212 248.964923 
L 217.584699 258.269538 
L 217.700185 239.660308 
L 217.794018 239.660308 
L 217.801236 248.964923 
L 217.82289 230.355692 
L 217.895069 230.355692 
L 217.902287 230.355692 
L 218.017774 202.441846 
L 218.061081 202.441846 
L 218.126042 193.137231 
L 218.16935 202.441846 
L 218.205439 202.441846 
L 218.335362 174.528 
L 218.34258 174.528 
L 218.465284 155.918769 
L 218.537463 155.918769 
L 218.660168 193.137231 
L 218.710693 193.137231 
L 218.840616 221.051077 
L 218.855052 221.051077 
L 218.934449 239.660308 
L 218.96332 230.355692 
L 219.006628 230.355692 
L 219.13655 202.441846 
L 219.150986 202.441846 
L 219.273691 239.660308 
L 219.396395 258.269538 
L 219.461356 258.269538 
L 219.576843 248.964923 
L 219.591279 248.964923 
L 219.706765 239.660308 
L 219.721201 239.660308 
L 219.843906 258.269538 
L 219.858342 258.269538 
L 219.995482 295.488 
L 220.204802 295.488 
L 220.320288 286.183385 
L 220.428557 286.183385 
L 220.544043 276.878769 
L 220.616223 276.878769 
L 220.731709 267.574154 
L 220.86885 267.574154 
L 220.984336 258.269538 
L 221.013208 258.269538 
L 221.128694 248.964923 
L 221.157566 248.964923 
L 221.164784 258.269538 
L 221.222527 239.660308 
L 221.258617 239.660308 
L 221.374104 239.660308 
L 221.48959 248.964923 
L 221.561769 248.964923 
L 221.677256 258.269538 
L 221.785525 258.269538 
L 221.901011 267.574154 
L 221.951537 267.574154 
L 222.067023 276.878769 
L 222.095895 276.878769 
L 222.218599 295.488 
L 226.325592 295.488 
L 226.448297 258.269538 
L 226.462733 258.269538 
L 226.556566 248.964923 
L 226.571001 258.269538 
L 226.621527 258.269538 
L 226.693706 248.964923 
L 226.729796 258.269538 
L 226.794757 258.269538 
L 226.917461 211.746462 
L 226.924679 211.746462 
L 227.040166 183.832615 
L 227.054602 183.832615 
L 227.133999 174.528 
L 227.16287 183.832615 
L 227.263921 183.832615 
L 227.379408 211.746462 
L 227.502112 193.137231 
L 227.54542 193.137231 
L 227.668124 211.746462 
L 227.68256 211.746462 
L 227.740304 202.441846 
L 227.798047 221.051077 
L 227.834136 221.051077 
L 227.920751 230.355692 
L 227.942405 221.051077 
L 228.000148 221.051077 
L 228.122853 202.441846 
L 228.216686 202.441846 
L 228.259993 211.746462 
L 228.317737 202.441846 
L 228.332172 193.137231 
L 228.37548 211.746462 
L 228.418787 211.746462 
L 228.541492 211.746462 
L 228.671414 239.660308 
L 228.714722 239.660308 
L 228.837426 221.051077 
L 228.851862 221.051077 
L 228.873516 211.746462 
L 228.952913 221.051077 
L 228.960131 230.355692 
L 228.974567 211.746462 
L 229.061182 221.051077 
L 229.082836 221.051077 
L 229.198322 211.746462 
L 229.20554 211.746462 
L 229.212758 202.441846 
L 229.277719 221.051077 
L 229.306591 221.051077 
L 229.364334 221.051077 
L 229.37877 230.355692 
L 229.393206 211.746462 
L 229.465385 211.746462 
L 229.501475 211.746462 
L 229.645833 165.223385 
L 229.674704 165.223385 
L 229.681922 174.528 
L 229.761319 146.614154 
L 229.768537 146.614154 
L 229.775755 146.614154 
L 229.912896 109.395692 
L 229.920114 109.395692 
L 229.992293 118.700308 
L 230.028382 109.395692 
L 230.0356 109.395692 
L 230.165523 137.309538 
L 230.201612 137.309538 
L 230.324317 155.918769 
L 230.353188 155.918769 
L 230.454239 146.614154 
L 230.461457 155.918769 
L 230.526418 155.918769 
L 230.598597 193.137231 
L 230.641905 183.832615 
L 230.677994 183.832615 
L 230.815135 221.051077 
L 230.822353 221.051077 
L 230.959493 258.269538 
L 231.096633 258.269538 
L 231.21212 267.574154 
L 231.305953 267.574154 
L 231.42144 276.878769 
L 231.544144 276.878769 
L 231.666849 295.488 
L 232.706228 295.488 
L 232.821715 286.183385 
L 232.951637 286.183385 
L 233.067124 276.878769 
L 233.608467 276.878769 
L 233.723954 286.183385 
L 233.904402 286.183385 
L 234.019889 295.488 
L 246.420264 295.488 
L 246.579059 230.355692 
L 246.586277 230.355692 
L 246.716199 202.441846 
L 246.766724 202.441846 
L 246.889429 183.832615 
L 246.903865 183.832615 
L 247.062659 118.700308 
L 247.105966 118.700308 
L 247.149274 100.091077 
L 247.214235 109.395692 
L 247.286414 109.395692 
L 247.430772 155.918769 
L 247.43799 155.918769 
L 247.582349 202.441846 
L 247.589567 202.441846 
L 247.719489 230.355692 
L 247.726707 230.355692 
L 247.849411 248.964923 
L 247.863847 248.964923 
L 248.000988 286.183385 
L 248.037077 286.183385 
L 248.152564 295.488 
L 248.563985 295.488 
L 248.679472 286.183385 
L 248.722779 286.183385 
L 248.838266 295.488 
L 249.740505 295.488 
L 249.855991 267.574154 
L 250.036439 267.574154 
L 250.159144 248.964923 
L 250.166362 248.964923 
L 250.296284 221.051077 
L 250.455078 221.051077 
L 250.577783 202.441846 
L 250.686052 202.441846 
L 250.823192 239.660308 
L 250.902589 239.660308 
L 250.96755 230.355692 
L 251.010858 239.660308 
L 251.039729 239.660308 
L 251.162434 258.269538 
L 251.184088 258.269538 
L 251.299574 267.574154 
L 251.407843 267.574154 
L 251.530547 286.183385 
L 251.674906 286.183385 
L 251.790392 295.488 
L 253.753665 295.488 
L 253.876369 276.878769 
L 254.15065 276.878769 
L 254.273355 258.269538 
L 254.32388 258.269538 
L 254.439367 230.355692 
L 254.5332 230.355692 
L 254.67034 183.832615 
L 254.793045 202.441846 
L 254.901313 202.441846 
L 255.0168 174.528 
L 255.088979 174.528 
L 255.211684 193.137231 
L 255.269427 193.137231 
L 255.392131 230.355692 
L 255.485964 230.355692 
L 255.608669 248.964923 
L 255.615887 248.964923 
L 255.630323 267.574154 
L 255.724155 258.269538 
L 255.774681 258.269538 
L 255.911821 295.488 
L 266.774781 295.488 
L 266.911922 258.269538 
L 266.91914 258.269538 
L 267.041844 239.660308 
L 267.121241 239.660308 
L 267.236728 230.355692 
L 267.301689 230.355692 
L 267.424394 211.746462 
L 267.446047 211.746462 
L 267.568752 193.137231 
L 267.583188 193.137231 
L 267.698674 183.832615 
L 267.835815 221.051077 
L 267.850251 221.051077 
L 267.980173 248.964923 
L 268.066788 248.964923 
L 268.182275 258.269538 
L 268.240018 258.269538 
L 268.355505 267.574154 
L 268.485427 239.660308 
L 268.535952 239.660308 
L 268.651439 248.964923 
L 268.673093 248.964923 
L 268.788579 239.660308 
L 268.918502 239.660308 
L 269.033988 230.355692 
L 269.120603 230.355692 
L 269.2 211.746462 
L 269.228872 221.051077 
L 269.286615 221.051077 
L 269.416538 248.964923 
L 269.423756 248.964923 
L 269.474281 258.269538 
L 269.495935 239.660308 
L 269.524807 239.660308 
L 269.568114 239.660308 
L 269.625857 202.441846 
L 269.683601 211.746462 
L 269.690819 211.746462 
L 269.842395 155.918769 
L 269.864049 155.918769 
L 269.878484 165.223385 
L 269.943446 137.309538 
L 269.965099 146.614154 
L 270.073368 146.614154 
L 270.188855 155.918769 
L 270.217726 137.309538 
L 270.304341 146.614154 
L 270.427046 146.614154 
L 270.441482 137.309538 
L 270.528097 155.918769 
L 270.535315 155.918769 
L 270.658019 174.528 
L 270.672455 174.528 
L 270.701327 165.223385 
L 270.737416 202.441846 
L 270.75907 202.441846 
L 270.903428 248.964923 
L 270.910646 248.964923 
L 270.982825 258.269538 
L 271.018915 248.964923 
L 271.062222 248.964923 
L 271.112748 239.660308 
L 271.170491 248.964923 
L 271.249888 248.964923 
L 271.372593 230.355692 
L 271.37981 230.355692 
L 271.408682 239.660308 
L 271.4159 211.746462 
L 271.473643 211.746462 
L 271.531387 211.746462 
L 271.610784 193.137231 
L 271.646873 202.441846 
L 271.719052 202.441846 
L 271.834539 193.137231 
L 271.885064 193.137231 
L 272.007769 174.528 
L 272.014987 174.528 
L 272.051076 183.832615 
L 272.123256 174.528 
L 272.195435 165.223385 
L 272.231524 174.528 
L 272.253178 174.528 
L 272.390318 211.746462 
L 272.476933 211.746462 
L 272.599638 230.355692 
L 272.606856 230.355692 
L 272.722342 239.660308 
L 272.816175 239.660308 
L 272.946098 267.574154 
L 272.996623 267.574154 
L 273.119328 286.183385 
L 273.148199 286.183385 
L 273.263686 258.269538 
L 273.270904 258.269538 
L 273.38639 267.574154 
L 273.891644 267.574154 
L 274.007131 258.269538 
L 274.014349 258.269538 
L 274.129836 239.660308 
L 274.137054 239.660308 
L 274.25254 248.964923 
L 274.28863 248.964923 
L 274.418552 221.051077 
L 274.42577 221.051077 
L 274.548475 202.441846 
L 274.627872 202.441846 
L 274.743358 193.137231 
L 274.837191 193.137231 
L 274.952678 202.441846 
L 274.959896 202.441846 
L 275.0826 239.660308 
L 275.219741 239.660308 
L 275.342445 258.269538 
L 275.349663 258.269538 
L 275.400188 276.878769 
L 275.457932 258.269538 
L 275.479586 258.269538 
L 275.595072 267.574154 
L 275.609508 267.574154 
L 275.724995 258.269538 
L 275.768302 258.269538 
L 275.891007 239.660308 
L 275.955968 239.660308 
L 276.08589 211.746462 
L 276.107544 211.746462 
L 276.223031 202.441846 
L 276.309646 202.441846 
L 276.43235 221.051077 
L 276.482876 221.051077 
L 276.620016 258.269538 
L 276.713849 258.269538 
L 276.829335 267.574154 
L 276.908732 267.574154 
L 277.031437 286.183385 
L 277.053091 286.183385 
L 277.168577 295.488 
L 278.626596 295.488 
L 278.763736 258.269538 
L 278.778172 258.269538 
L 278.900877 239.660308 
L 278.99471 239.660308 
L 279.023581 211.746462 
L 279.117414 221.051077 
L 279.139068 221.051077 
L 279.261772 202.441846 
L 279.297862 202.441846 
L 279.413349 193.137231 
L 279.427784 193.137231 
L 279.543271 183.832615 
L 279.557707 183.832615 
L 279.694847 221.051077 
L 279.75259 221.051077 
L 279.933038 128.004923 
L 279.940256 128.004923 
L 279.998 146.614154 
L 280.026871 118.700308 
L 280.041307 118.700308 
L 280.048525 118.700308 
L 280.171229 137.309538 
L 280.351677 137.309538 
L 280.452728 128.004923 
L 280.459946 137.309538 
L 280.510471 137.309538 
L 280.633176 155.918769 
L 280.65483 155.918769 
L 280.799188 202.441846 
L 280.806406 202.441846 
L 280.943546 276.878769 
L 281.066251 295.488 
L 283.823494 295.488 
L 283.93898 286.183385 
L 284.191607 286.183385 
L 284.307094 276.878769 
L 284.783476 276.878769 
L 284.898963 286.183385 
L 285.144372 286.183385 
L 285.259859 295.488 
L 285.382563 295.488 
L 285.505268 276.878769 
L 285.563011 276.878769 
L 285.714587 221.051077 
L 285.837292 221.051077 
L 285.952778 211.746462 
L 286.003304 211.746462 
L 286.11879 221.051077 
L 286.133226 221.051077 
L 286.227059 239.660308 
L 286.241495 221.051077 
L 286.284802 221.051077 
L 286.400289 202.441846 
L 286.522994 174.528 
L 286.530212 183.832615 
L 286.573519 155.918769 
L 286.616827 155.918769 
L 286.624044 155.918769 
L 286.739531 183.832615 
L 286.775621 183.832615 
L 286.891107 193.137231 
L 287.013812 174.528 
L 287.071555 174.528 
L 287.201478 202.441846 
L 287.208695 202.441846 
L 287.3314 221.051077 
L 287.410797 221.051077 
L 287.533502 267.574154 
L 287.576809 267.574154 
L 287.692296 258.269538 
L 287.750039 258.269538 
L 287.815 248.964923 
L 287.858308 258.269538 
L 287.916051 258.269538 
L 288.031538 267.574154 
L 288.457395 267.574154 
L 288.580099 286.183385 
L 288.702804 286.183385 
L 288.81829 295.488 
L 290.629987 295.488 
L 290.745473 286.183385 
L 290.947575 286.183385 
L 291.063061 276.878769 
L 291.243509 276.878769 
L 291.373432 248.964923 
L 291.582751 248.964923 
L 291.698238 258.269538 
L 291.712674 258.269538 
L 291.82816 248.964923 
L 291.893122 248.964923 
L 292.008608 258.269538 
L 292.196274 258.269538 
L 292.326196 286.183385 
L 292.665438 286.183385 
L 292.708746 295.488 
L 292.773707 286.183385 
L 292.874758 286.183385 
L 292.997462 267.574154 
L 293.199564 267.574154 
L 293.322268 248.964923 
L 293.647075 248.964923 
L 293.762561 258.269538 
L 293.820305 258.269538 
L 293.863612 276.878769 
L 293.935791 267.574154 
L 294.072931 230.355692 
L 294.152329 230.355692 
L 294.238944 248.964923 
L 294.267815 239.660308 
L 294.332776 239.660308 
L 294.448263 230.355692 
L 294.635929 230.355692 
L 294.758633 211.746462 
L 294.816377 211.746462 
L 294.866902 221.051077 
L 294.87412 202.441846 
L 294.917427 202.441846 
L 294.967953 202.441846 
L 295.025696 230.355692 
L 295.090657 221.051077 
L 295.177272 221.051077 
L 295.299977 239.660308 
L 295.458771 239.660308 
L 295.581475 221.051077 
L 295.588693 221.051077 
L 295.711398 239.660308 
L 295.812449 239.660308 
L 295.884628 267.574154 
L 295.920717 248.964923 
L 295.978461 248.964923 
L 295.985679 258.269538 
L 296.065076 239.660308 
L 296.079512 239.660308 
L 296.245524 239.660308 
L 296.36101 230.355692 
L 296.411536 230.355692 
L 296.53424 248.964923 
L 296.642509 248.964923 
L 296.757995 239.660308 
L 296.822957 239.660308 
L 296.952879 267.574154 
L 297.003404 267.574154 
L 297.118891 276.878769 
L 297.183852 276.878769 
L 297.299339 286.183385 
L 297.588056 286.183385 
L 297.653017 295.488 
L 297.689106 286.183385 
L 297.855118 211.746462 
L 298.042784 211.746462 
L 298.187142 165.223385 
L 298.266539 165.223385 
L 298.317065 155.918769 
L 298.374808 165.223385 
L 298.396462 165.223385 
L 298.490295 183.832615 
L 298.511948 174.528 
L 298.533602 174.528 
L 298.598563 165.223385 
L 298.634653 174.528 
L 298.771793 211.746462 
L 298.793447 211.746462 
L 298.807883 221.051077 
L 298.865626 183.832615 
L 298.880062 183.832615 
L 298.959459 183.832615 
L 299.017202 146.614154 
L 299.067728 174.528 
L 299.118253 183.832615 
L 299.175997 174.528 
L 299.19765 174.528 
L 299.313137 183.832615 
L 299.428624 183.832615 
L 299.54411 211.746462 
L 299.5802 211.746462 
L 299.695686 221.051077 
L 299.702904 221.051077 
L 299.760648 193.137231 
L 299.811173 211.746462 
L 299.948313 248.964923 
L 299.955531 248.964923 
L 300.013275 258.269538 
L 300.020492 239.660308 
L 300.056582 239.660308 
L 300.0638 239.660308 
L 300.179287 248.964923 
L 300.215376 248.964923 
L 300.338081 230.355692 
L 300.352517 230.355692 
L 300.482439 202.441846 
L 300.648451 202.441846 
L 300.763938 230.355692 
L 300.886642 230.355692 
L 301.016565 258.269538 
L 301.023782 258.269538 
L 301.139269 267.574154 
L 301.254756 267.574154 
L 301.370242 276.878769 
L 301.391896 276.878769 
L 301.514601 295.488 
L 303.7305 295.488 
L 303.845987 286.183385 
L 303.882076 286.183385 
L 303.997563 295.488 
L 308.804694 295.488 
L 308.92018 286.183385 
L 308.941834 286.183385 
L 309.064538 267.574154 
L 309.259422 267.574154 
L 309.374909 258.269538 
L 309.504831 258.269538 
L 309.627536 239.660308 
L 309.685279 239.660308 
L 309.735804 230.355692 
L 309.793548 239.660308 
L 309.851291 239.660308 
L 309.894599 230.355692 
L 309.916252 248.964923 
L 309.952342 248.964923 
L 309.995649 248.964923 
L 310.140008 202.441846 
L 310.212187 202.441846 
L 310.327673 211.746462 
L 310.44316 211.746462 
L 310.558647 221.051077 
L 310.630826 221.051077 
L 310.746312 230.355692 
L 310.804056 230.355692 
L 310.811274 239.660308 
L 310.912324 230.355692 
L 310.92676 230.355692 
L 310.984504 248.964923 
L 311.042247 239.660308 
L 311.049465 239.660308 
L 311.056683 258.269538 
L 311.157733 248.964923 
L 311.330963 248.964923 
L 311.395925 239.660308 
L 311.439232 248.964923 
L 311.468104 248.964923 
L 311.605244 211.746462 
L 311.662987 211.746462 
L 311.75682 193.137231 
L 311.778474 202.441846 
L 311.850653 202.441846 
L 311.922832 193.137231 
L 311.944486 211.746462 
L 311.951704 211.746462 
L 312.009447 211.746462 
L 312.074409 221.051077 
L 312.117716 211.746462 
L 312.161024 211.746462 
L 312.189895 221.051077 
L 312.269292 211.746462 
L 312.27651 211.746462 
L 312.391997 221.051077 
L 312.420868 221.051077 
L 312.550791 248.964923 
L 312.615752 248.964923 
L 312.731239 258.269538 
L 312.7962 258.269538 
L 312.911687 267.574154 
L 313.012737 267.574154 
L 313.128224 276.878769 
L 313.135442 276.878769 
L 313.258146 295.488 
L 314.925484 295.488 
L 315.077061 239.660308 
L 315.098714 239.660308 
L 315.221419 221.051077 
L 315.250291 221.051077 
L 315.365777 230.355692 
L 315.387431 230.355692 
L 315.510136 248.964923 
L 315.531789 248.964923 
L 315.647276 258.269538 
L 315.697801 258.269538 
L 315.813288 267.574154 
L 315.834942 267.574154 
L 315.957646 286.183385 
L 315.964864 286.183385 
L 316.080351 295.488 
L 318.46948 295.488 
L 318.592185 276.878769 
L 318.664364 276.878769 
L 318.77985 267.574154 
L 318.837594 267.574154 
L 318.981952 221.051077 
L 319.018042 221.051077 
L 319.169618 165.223385 
L 319.234579 165.223385 
L 319.350066 155.918769 
L 319.465552 155.918769 
L 319.588257 137.309538 
L 319.617128 137.309538 
L 319.674872 146.614154 
L 319.718179 128.004923 
L 319.775923 128.004923 
L 319.920281 174.528 
L 319.941935 174.528 
L 320.035767 146.614154 
L 320.042985 155.918769 
L 320.158472 183.832615 
L 320.180126 183.832615 
L 320.266741 193.137231 
L 320.288394 183.832615 
L 320.331702 183.832615 
L 320.375009 174.528 
L 320.418317 193.137231 
L 320.432753 193.137231 
L 320.51215 193.137231 
L 320.584329 211.746462 
L 320.620418 193.137231 
L 320.627636 193.137231 
L 320.721469 211.746462 
L 320.735905 193.137231 
L 320.771995 193.137231 
L 320.880263 183.832615 
L 321.002968 221.051077 
L 321.010186 211.746462 
L 321.03184 211.746462 
L 321.147326 221.051077 
L 321.20507 221.051077 
L 321.327774 239.660308 
L 321.501004 239.660308 
L 321.616491 248.964923 
L 321.638144 248.964923 
L 321.760849 267.574154 
L 321.941297 267.574154 
L 322.056783 239.660308 
L 322.114527 239.660308 
L 322.230013 230.355692 
L 322.237231 230.355692 
L 322.244449 239.660308 
L 322.3455 230.355692 
L 322.533166 230.355692 
L 322.648652 221.051077 
L 322.677524 221.051077 
L 322.814664 183.832615 
L 322.879626 183.832615 
L 323.016766 230.355692 
L 323.13947 211.746462 
L 323.197214 211.746462 
L 323.269393 221.051077 
L 323.276611 202.441846 
L 323.298265 202.441846 
L 323.449841 202.441846 
L 323.572545 183.832615 
L 323.579763 183.832615 
L 323.702468 165.223385 
L 323.724121 165.223385 
L 323.839608 193.137231 
L 323.875698 193.137231 
L 324.012838 155.918769 
L 324.056145 155.918769 
L 324.171632 146.614154 
L 324.21494 146.614154 
L 324.229375 165.223385 
L 324.323208 155.918769 
L 324.366516 155.918769 
L 324.482002 128.004923 
L 324.510874 128.004923 
L 324.633579 146.614154 
L 324.799591 146.614154 
L 324.864552 128.004923 
L 324.900641 146.614154 
L 325.030564 174.528 
L 325.073871 174.528 
L 325.088307 165.223385 
L 325.18214 174.528 
L 325.225448 174.528 
L 325.247101 183.832615 
L 325.290409 165.223385 
L 325.333716 174.528 
L 325.348152 174.528 
L 325.485292 211.746462 
L 325.514164 211.746462 
L 325.636869 193.137231 
L 325.680176 193.137231 
L 325.745137 174.528 
L 325.774009 202.441846 
L 325.781227 202.441846 
L 325.802881 202.441846 
L 325.925585 165.223385 
L 326.026636 155.918769 
L 326.033854 165.223385 
L 326.178212 165.223385 
L 326.293699 174.528 
L 326.315352 174.528 
L 326.380314 165.223385 
L 326.416403 174.528 
L 326.539108 193.137231 
L 326.683466 100.091077 
L 326.755645 100.091077 
L 326.770081 118.700308 
L 326.820606 90.786462 
L 326.863914 109.395692 
L 326.871132 109.395692 
L 326.972183 128.004923 
L 326.986618 118.700308 
L 326.993836 118.700308 
L 327.080451 128.004923 
L 327.087669 109.395692 
L 327.094887 109.395692 
L 327.210374 100.091077 
L 327.275335 100.091077 
L 327.390822 72.177231 
L 327.477437 72.177231 
L 327.614577 155.918769 
L 327.621795 155.918769 
L 327.744499 174.528 
L 327.751717 174.528 
L 327.88164 202.441846 
L 327.924947 202.441846 
L 328.062088 239.660308 
L 328.105395 239.660308 
L 328.249753 286.183385 
L 328.610649 286.183385 
L 328.726136 295.488 
L 329.635593 295.488 
L 329.758297 276.878769 
L 329.844912 276.878769 
L 329.960399 258.269538 
L 330.010924 258.269538 
L 330.133629 221.051077 
L 330.140847 221.051077 
L 330.299641 155.918769 
L 330.342948 155.918769 
L 330.443999 146.614154 
L 330.451217 155.918769 
L 330.595575 155.918769 
L 330.711062 165.223385 
L 330.797677 165.223385 
L 330.913164 193.137231 
L 330.963689 193.137231 
L 331.079176 239.660308 
L 331.093611 239.660308 
L 331.245188 295.488 
L 331.497815 295.488 
L 331.627737 267.574154 
L 331.642173 267.574154 
L 331.764877 248.964923 
L 331.844274 248.964923 
L 331.959761 239.660308 
L 332.118555 239.660308 
L 332.24126 221.051077 
L 332.443361 221.051077 
L 332.558848 248.964923 
L 332.566066 239.660308 
L 332.594938 239.660308 
L 332.717642 258.269538 
L 332.775385 258.269538 
L 332.890872 248.964923 
L 333.020794 248.964923 
L 333.157935 211.746462 
L 333.172371 221.051077 
L 333.266204 211.746462 
L 333.446651 211.746462 
L 333.569356 193.137231 
L 333.627099 193.137231 
L 333.72815 183.832615 
L 333.735368 193.137231 
L 333.785893 193.137231 
L 333.908598 174.528 
L 333.930252 174.528 
L 333.959123 165.223385 
L 334.002431 193.137231 
L 334.024084 193.137231 
L 334.139571 202.441846 
L 334.197314 202.441846 
L 334.312801 174.528 
L 334.320019 174.528 
L 334.399416 155.918769 
L 334.428288 165.223385 
L 334.464377 165.223385 
L 334.601518 202.441846 
L 334.702568 202.441846 
L 334.832491 230.355692 
L 334.875798 230.355692 
L 334.933542 239.660308 
L 334.984067 230.355692 
L 335.020157 230.355692 
L 335.121207 221.051077 
L 335.128425 230.355692 
L 335.150079 230.355692 
L 335.287219 267.574154 
L 335.575936 267.574154 
L 335.691423 258.269538 
L 335.87187 258.269538 
L 336.001793 286.183385 
L 336.153369 286.183385 
L 336.312163 221.051077 
L 336.369906 221.051077 
L 336.499829 193.137231 
L 336.507047 193.137231 
L 336.622533 202.441846 
L 337.005083 202.441846 
L 337.127787 221.051077 
L 337.142223 221.051077 
L 337.286581 267.574154 
L 337.315453 267.574154 
L 337.445376 295.488 
L 339.365341 295.488 
L 339.480827 286.183385 
L 339.560224 286.183385 
L 339.697365 248.964923 
L 339.719018 248.964923 
L 339.834505 239.660308 
L 339.928338 239.660308 
L 340.043825 230.355692 
L 340.173747 230.355692 
L 340.296452 248.964923 
L 340.303669 248.964923 
L 340.419156 258.269538 
L 340.512989 258.269538 
L 340.57795 286.183385 
L 340.628476 267.574154 
L 340.881103 267.574154 
L 340.996589 276.878769 
L 341.23478 276.878769 
L 341.350267 267.574154 
L 341.509061 267.574154 
L 341.631766 286.183385 
L 341.725598 286.183385 
L 341.761688 295.488 
L 341.833867 286.183385 
L 342.050405 286.183385 
L 342.165891 276.878769 
L 342.425736 276.878769 
L 342.562876 239.660308 
L 342.627838 239.660308 
L 342.707235 221.051077 
L 342.743324 230.355692 
L 342.808286 230.355692 
L 342.93099 211.746462 
L 343.003169 211.746462 
L 343.024823 221.051077 
L 343.082566 183.832615 
L 343.089784 183.832615 
L 343.183617 183.832615 
L 343.327975 137.309538 
L 343.364065 137.309538 
L 343.501205 174.528 
L 343.580602 174.528 
L 343.645564 193.137231 
L 343.696089 183.832615 
L 343.811576 174.528 
L 343.826011 174.528 
L 343.941498 183.832615 
L 343.977588 183.832615 
L 344.100292 221.051077 
L 344.121946 221.051077 
L 344.266304 267.574154 
L 344.439534 267.574154 
L 344.562239 248.964923 
L 344.569457 248.964923 
L 344.634418 239.660308 
L 344.677725 248.964923 
L 344.713815 248.964923 
L 344.807648 258.269538 
L 344.822084 248.964923 
L 344.93757 248.964923 
L 345.053057 258.269538 
L 345.14689 258.269538 
L 345.269594 239.660308 
L 345.334555 239.660308 
L 345.363427 230.355692 
L 345.442824 239.660308 
L 345.522221 239.660308 
L 345.587182 258.269538 
L 345.637708 248.964923 
L 345.760412 221.051077 
L 345.832591 230.355692 
L 345.854245 211.746462 
L 345.861463 211.746462 
L 346.092436 211.746462 
L 346.099654 202.441846 
L 346.15018 221.051077 
L 346.193487 221.051077 
L 346.236795 221.051077 
L 346.352281 211.746462 
L 346.373935 211.746462 
L 346.489422 202.441846 
L 346.525511 202.441846 
L 346.619344 193.137231 
L 346.640998 211.746462 
L 346.655434 211.746462 
L 346.778138 183.832615 
L 346.857535 202.441846 
L 346.886407 183.832615 
L 347.037983 183.832615 
L 347.15347 193.137231 
L 347.189559 193.137231 
L 347.312264 211.746462 
L 347.319482 211.746462 
L 347.434968 221.051077 
L 347.442186 221.051077 
L 347.557673 193.137231 
L 347.564891 202.441846 
L 347.608198 202.441846 
L 347.644288 211.746462 
L 347.716467 202.441846 
L 347.723685 202.441846 
L 347.853607 230.355692 
L 347.911351 230.355692 
L 348.034055 211.746462 
L 348.041273 211.746462 
L 348.15676 202.441846 
L 348.228939 202.441846 
L 348.337208 193.137231 
L 348.481566 239.660308 
L 348.539309 239.660308 
L 348.582617 230.355692 
L 348.647578 239.660308 
L 348.669232 239.660308 
L 348.791936 221.051077 
L 348.799154 221.051077 
L 348.878551 211.746462 
L 348.907423 221.051077 
L 348.921859 221.051077 
L 348.994038 202.441846 
L 349.037345 211.746462 
L 349.181703 211.746462 
L 349.196139 221.051077 
L 349.232229 202.441846 
L 349.282754 202.441846 
L 349.398241 202.441846 
L 349.484856 193.137231 
L 349.50651 202.441846 
L 349.621996 202.441846 
L 349.737483 211.746462 
L 349.751919 211.746462 
L 349.867405 230.355692 
L 349.874623 221.051077 
L 349.889059 239.660308 
L 349.968456 239.660308 
L 350.018981 239.660308 
L 350.134468 230.355692 
L 350.148904 230.355692 
L 350.192211 239.660308 
L 350.221083 221.051077 
L 350.249955 221.051077 
L 350.271608 221.051077 
L 350.387095 193.137231 
L 350.430403 193.137231 
L 350.459274 202.441846 
L 350.538671 193.137231 
L 350.654158 183.832615 
L 350.661376 183.832615 
L 350.776862 174.528 
L 350.791298 174.528 
L 350.906785 155.918769 
L 350.950092 155.918769 
L 350.971746 165.223385 
L 350.986182 137.309538 
L 351.051143 146.614154 
L 351.101669 146.614154 
L 351.144976 128.004923 
L 351.209937 146.614154 
L 351.224373 146.614154 
L 351.33986 174.528 
L 351.361513 174.528 
L 351.412039 165.223385 
L 351.455346 183.832615 
L 351.462564 183.832615 
L 351.491436 183.832615 
L 351.621358 211.746462 
L 351.693537 211.746462 
L 351.758499 239.660308 
L 351.809024 221.051077 
L 351.852332 221.051077 
L 351.9606 248.964923 
L 351.975036 239.660308 
L 352.032779 239.660308 
L 352.112176 248.964923 
L 352.141048 239.660308 
L 352.184356 239.660308 
L 352.299842 193.137231 
L 352.321496 202.441846 
L 352.328714 202.441846 
L 352.379239 193.137231 
L 352.436983 202.441846 
L 352.509162 202.441846 
L 352.552469 211.746462 
L 352.610213 193.137231 
L 352.711263 193.137231 
L 352.761789 211.746462 
L 352.819532 193.137231 
L 352.82675 193.137231 
L 352.906147 155.918769 
L 352.956672 165.223385 
L 352.96389 165.223385 
L 353.093813 137.309538 
L 353.101031 137.309538 
L 353.129902 128.004923 
L 353.17321 146.614154 
L 353.202081 146.614154 
L 353.230953 146.614154 
L 353.274261 165.223385 
L 353.339222 146.614154 
L 353.498016 146.614154 
L 353.505234 137.309538 
L 353.562977 165.223385 
L 353.591849 165.223385 
L 353.606285 165.223385 
L 353.714553 155.918769 
L 353.851694 193.137231 
L 353.959962 193.137231 
L 354.089885 221.051077 
L 354.104321 221.051077 
L 354.118757 211.746462 
L 354.154846 230.355692 
L 354.205371 230.355692 
L 354.219807 230.355692 
L 354.335294 239.660308 
L 354.450781 239.660308 
L 354.573485 258.269538 
L 354.62401 258.269538 
L 354.739497 267.574154 
L 354.79724 267.574154 
L 354.912727 258.269538 
L 354.934381 258.269538 
L 354.999342 276.878769 
L 355.035432 258.269538 
L 355.158136 221.051077 
L 355.194226 221.051077 
L 355.309712 211.746462 
L 355.735569 211.746462 
L 355.742787 202.441846 
L 355.843838 211.746462 
L 355.916017 211.746462 
L 356.053157 258.269538 
L 356.18308 230.355692 
L 356.327438 230.355692 
L 356.450143 211.746462 
L 356.623373 211.746462 
L 356.738859 202.441846 
L 356.774949 202.441846 
L 356.897653 221.051077 
L 356.926525 221.051077 
L 357.04923 202.441846 
L 357.056447 202.441846 
L 357.070883 211.746462 
L 357.179152 183.832615 
L 357.280203 183.832615 
L 357.402907 202.441846 
L 357.576137 202.441846 
L 357.70606 230.355692 
L 357.87929 230.355692 
L 358.001994 248.964923 
L 358.023648 248.964923 
L 358.15357 276.878769 
L 358.160788 276.878769 
L 358.290711 248.964923 
L 358.413415 248.964923 
L 358.543338 221.051077 
L 358.593863 221.051077 
L 358.716568 174.528 
L 358.723786 174.528 
L 358.84649 155.918769 
L 358.853708 155.918769 
L 358.976413 193.137231 
L 358.98363 193.137231 
L 359.099117 211.746462 
L 359.113553 202.441846 
L 359.200168 211.746462 
L 359.279565 230.355692 
L 359.308437 221.051077 
L 359.337308 221.051077 
L 359.474449 183.832615 
L 359.546628 183.832615 
L 359.669332 202.441846 
L 359.755947 202.441846 
L 359.878652 221.051077 
L 359.88587 221.051077 
L 360.008574 239.660308 
L 360.015792 239.660308 
L 360.138497 258.269538 
L 360.16015 258.269538 
L 360.282855 276.878769 
L 360.290073 276.878769 
L 360.412777 295.488 
L 362.282217 295.488 
L 362.397704 286.183385 
L 362.527626 286.183385 
L 362.657549 258.269538 
L 362.679202 258.269538 
L 362.794689 248.964923 
L 362.85965 248.964923 
L 363.004008 202.441846 
L 363.054534 202.441846 
L 363.17002 193.137231 
L 363.20611 193.137231 
L 363.321597 183.832615 
L 363.372122 183.832615 
L 363.502044 155.918769 
L 363.530916 155.918769 
L 363.588659 146.614154 
L 363.595877 165.223385 
L 363.631967 165.223385 
L 363.747454 165.223385 
L 363.783543 146.614154 
L 363.834069 174.528 
L 363.848504 174.528 
L 363.86294 174.528 
L 363.870158 193.137231 
L 363.884594 146.614154 
L 363.971209 174.528 
L 364.07226 174.528 
L 364.144439 183.832615 
L 364.180528 165.223385 
L 364.202182 174.528 
L 364.238272 155.918769 
L 364.288797 165.223385 
L 364.353758 165.223385 
L 364.476463 183.832615 
L 364.577514 165.223385 
L 364.591949 174.528 
L 364.620821 174.528 
L 364.743526 155.918769 
L 364.801269 155.918769 
L 364.880666 183.832615 
L 364.923973 174.528 
L 364.945627 174.528 
L 365.07555 202.441846 
L 365.097203 202.441846 
L 365.104421 183.832615 
L 365.191036 221.051077 
L 365.198254 221.051077 
L 365.277651 221.051077 
L 365.400356 239.660308 
L 365.429227 230.355692 
L 365.465317 248.964923 
L 365.508625 239.660308 
L 365.566368 239.660308 
L 365.681854 248.964923 
L 365.826213 248.964923 
L 365.90561 258.269538 
L 365.912828 239.660308 
L 365.927264 239.660308 
L 366.04275 239.660308 
L 366.165455 258.269538 
L 366.345903 258.269538 
L 366.468607 276.878769 
L 366.851156 276.878769 
L 366.973861 295.488 
L 388.743089 295.488 
L 388.858576 286.183385 
L 388.873012 286.183385 
L 388.887447 276.878769 
L 388.98128 286.183385 
L 389.024588 286.183385 
L 389.140074 295.488 
L 397.476765 295.488 
L 397.592251 286.183385 
L 397.606687 286.183385 
L 397.722174 276.878769 
L 397.751046 276.878769 
L 397.866532 286.183385 
L 398.487273 286.183385 
L 398.487273 286.183385 
" clip-path="url(#p8e45e703ea)" style="fill: none; stroke: #1f77b4; stroke-width: 1.5; stroke-linecap: square"/>
   </g>
   <g id="line2d_13">
    <path d="M 74.670005 307.584 
L 74.670005 41.472 
" clip-path="url(#p8e45e703ea)" style="fill: none; stroke-dasharray: 5.55,2.4; stroke-dashoffset: 0; stroke: #ff0000; stroke-width: 1.5"/>
   </g>
   <g id="line2d_14">
    <path d="M 77.160186 307.584 
L 77.160186 41.472 
" clip-path="url(#p8e45e703ea)" style="fill: none; stroke-dasharray: 5.55,2.4; stroke-dashoffset: 0; stroke: #ff0000; stroke-width: 1.5"/>
   </g>
   <g id="patch_3">
    <path d="M 57.6 307.584 
L 57.6 41.472 
" style="fill: none; stroke: #000000; stroke-width: 0.8; stroke-linejoin: miter; stroke-linecap: square"/>
   </g>
   <g id="patch_4">
    <path d="M 414.72 307.584 
L 414.72 41.472 
" style="fill: none; stroke: #000000; stroke-width: 0.8; stroke-linejoin: miter; stroke-linecap: square"/>
   </g>
   <g id="patch_5">
    <path d="M 57.6 307.584 
L 414.72 307.584 
" style="fill: none; stroke: #000000; stroke-width: 0.8; stroke-linejoin: miter; stroke-linecap: square"/>
   </g>
   <g id="patch_6">
    <path d="M 57.6 41.472 
L 414.72 41.472 
" style="fill: none; stroke: #000000; stroke-width: 0.8; stroke-linejoin: miter; stroke-linecap: square"/>
   </g>
   <g id="text_14">
    <!-- Viral coverage: Caudoviricetes sp. isolate ctInE22 -->
    <g transform="translate(87.295312 22.034625) scale(0.12 -0.12)">
     <defs>
      <path id="DejaVuSans-56" d="M 1831 0 
L 50 4666 
L 709 4666 
L 2188 738 
L 3669 4666 
L 4325 4666 
L 2547 0 
L 1831 0 
z
" transform="scale(0.015625)"/>
      <path id="DejaVuSans-3a" d="M 750 794 
L 1409 794 
L 1409 0 
L 750 0 
L 750 794 
z
M 750 3309 
L 1409 3309 
L 1409 2516 
L 750 2516 
L 750 3309 
z
" transform="scale(0.015625)"/>
      <path id="DejaVuSans-2e" d="M 684 794 
L 1344 794 
L 1344 0 
L 684 0 
L 684 794 
z
" transform="scale(0.015625)"/>
      <path id="DejaVuSans-49" d="M 628 4666 
L 1259 4666 
L 1259 0 
L 628 0 
L 628 4666 
z
" transform="scale(0.015625)"/>
      <path id="DejaVuSans-45" d="M 628 4666 
L 3578 4666 
L 3578 4134 
L 1259 4134 
L 1259 2753 
L 3481 2753 
L 3481 2222 
L 1259 2222 
L 1259 531 
L 3634 531 
L 3634 0 
L 628 0 
L 628 4666 
z
" transform="scale(0.015625)"/>
     </defs>
     <use xlink:href="#DejaVuSans-56"/>
     <use xlink:href="#DejaVuSans-69" x="66.158203"/>
     <use xlink:href="#DejaVuSans-72" x="93.941406"/>
     <use xlink:href="#DejaVuSans-61" x="135.054688"/>
     <use xlink:href="#DejaVuSans-6c" x="196.333984"/>
     <use xlink:href="#DejaVuSans-20" x="224.117188"/>
     <use xlink:href="#DejaVuSans-63" x="255.904297"/>
     <use xlink:href="#DejaVuSans-6f" x="310.884766"/>
     <use xlink:href="#DejaVuSans-76" x="372.066406"/>
     <use xlink:href="#DejaVuSans-65" x="431.246094"/>
     <use xlink:href="#DejaVuSans-72" x="492.769531"/>
     <use xlink:href="#DejaVuSans-61" x="533.882812"/>
     <use xlink:href="#DejaVuSans-67" x="595.162109"/>
     <use xlink:href="#DejaVuSans-65" x="658.638672"/>
     <use xlink:href="#DejaVuSans-3a" x="720.162109"/>
     <use xlink:href="#DejaVuSans-20" x="753.853516"/>
     <use xlink:href="#DejaVuSans-43" x="785.640625"/>
     <use xlink:href="#DejaVuSans-61" x="855.464844"/>
     <use xlink:href="#DejaVuSans-75" x="916.744141"/>
     <use xlink:href="#DejaVuSans-64" x="980.123047"/>
     <use xlink:href="#DejaVuSans-6f" x="1043.599609"/>
     <use xlink:href="#DejaVuSans-76" x="1104.78125"/>
     <use xlink:href="#DejaVuSans-69" x="1163.960938"/>
     <use xlink:href="#DejaVuSans-72" x="1191.744141"/>
     <use xlink:href="#DejaVuSans-69" x="1232.857422"/>
     <use xlink:href="#DejaVuSans-63" x="1260.640625"/>
     <use xlink:href="#DejaVuSans-65" x="1315.621094"/>
     <use xlink:href="#DejaVuSans-74" x="1377.144531"/>
     <use xlink:href="#DejaVuSans-65" x="1416.353516"/>
     <use xlink:href="#DejaVuSans-73" x="1477.876953"/>
     <use xlink:href="#DejaVuSans-20" x="1529.976562"/>
     <use xlink:href="#DejaVuSans-73" x="1561.763672"/>
     <use xlink:href="#DejaVuSans-70" x="1613.863281"/>
     <use xlink:href="#DejaVuSans-2e" x="1677.339844"/>
     <use xlink:href="#DejaVuSans-20" x="1709.126953"/>
     <use xlink:href="#DejaVuSans-69" x="1740.914062"/>
     <use xlink:href="#DejaVuSans-73" x="1768.697266"/>
     <use xlink:href="#DejaVuSans-6f" x="1820.796875"/>
     <use xlink:href="#DejaVuSans-6c" x="1881.978516"/>
     <use xlink:href="#DejaVuSans-61" x="1909.761719"/>
     <use xlink:href="#DejaVuSans-74" x="1971.041016"/>
     <use xlink:href="#DejaVuSans-65" x="2010.25"/>
     <use xlink:href="#DejaVuSans-20" x="2071.773438"/>
     <use xlink:href="#DejaVuSans-63" x="2103.560547"/>
     <use xlink:href="#DejaVuSans-74" x="2158.541016"/>
     <use xlink:href="#DejaVuSans-49" x="2197.75"/>
     <use xlink:href="#DejaVuSans-6e" x="2227.242188"/>
     <use xlink:href="#DejaVuSans-45" x="2290.621094"/>
     <use xlink:href="#DejaVuSans-32" x="2353.804688"/>
     <use xlink:href="#DejaVuSans-32" x="2417.427734"/>
    </g>
    <!-- Total coverage: 41.87% -->
    <g transform="translate(165.5775 35.472) scale(0.12 -0.12)">
     <defs>
      <path id="DejaVuSans-54" d="M -19 4666 
L 3928 4666 
L 3928 4134 
L 2272 4134 
L 2272 0 
L 1638 0 
L 1638 4134 
L -19 4134 
L -19 4666 
z
" transform="scale(0.015625)"/>
      <path id="DejaVuSans-38" d="M 2034 2216 
Q 1584 2216 1326 1975 
Q 1069 1734 1069 1313 
Q 1069 891 1326 650 
Q 1584 409 2034 409 
Q 2484 409 2743 651 
Q 3003 894 3003 1313 
Q 3003 1734 2745 1975 
Q 2488 2216 2034 2216 
z
M 1403 2484 
Q 997 2584 770 2862 
Q 544 3141 544 3541 
Q 544 4100 942 4425 
Q 1341 4750 2034 4750 
Q 2731 4750 3128 4425 
Q 3525 4100 3525 3541 
Q 3525 3141 3298 2862 
Q 3072 2584 2669 2484 
Q 3125 2378 3379 2068 
Q 3634 1759 3634 1313 
Q 3634 634 3220 271 
Q 2806 -91 2034 -91 
Q 1263 -91 848 271 
Q 434 634 434 1313 
Q 434 1759 690 2068 
Q 947 2378 1403 2484 
z
M 1172 3481 
Q 1172 3119 1398 2916 
Q 1625 2713 2034 2713 
Q 2441 2713 2670 2916 
Q 2900 3119 2900 3481 
Q 2900 3844 2670 4047 
Q 2441 4250 2034 4250 
Q 1625 4250 1398 4047 
Q 1172 3844 1172 3481 
z
" transform="scale(0.015625)"/>
      <path id="DejaVuSans-37" d="M 525 4666 
L 3525 4666 
L 3525 4397 
L 1831 0 
L 1172 0 
L 2766 4134 
L 525 4134 
L 525 4666 
z
" transform="scale(0.015625)"/>
      <path id="DejaVuSans-25" d="M 4653 2053 
Q 4381 2053 4226 1822 
Q 4072 1591 4072 1178 
Q 4072 772 4226 539 
Q 4381 306 4653 306 
Q 4919 306 5073 539 
Q 5228 772 5228 1178 
Q 5228 1588 5073 1820 
Q 4919 2053 4653 2053 
z
M 4653 2450 
Q 5147 2450 5437 2106 
Q 5728 1763 5728 1178 
Q 5728 594 5436 251 
Q 5144 -91 4653 -91 
Q 4153 -91 3862 251 
Q 3572 594 3572 1178 
Q 3572 1766 3864 2108 
Q 4156 2450 4653 2450 
z
M 1428 4353 
Q 1159 4353 1004 4120 
Q 850 3888 850 3481 
Q 850 3069 1003 2837 
Q 1156 2606 1428 2606 
Q 1700 2606 1854 2837 
Q 2009 3069 2009 3481 
Q 2009 3884 1853 4118 
Q 1697 4353 1428 4353 
z
M 4250 4750 
L 4750 4750 
L 1831 -91 
L 1331 -91 
L 4250 4750 
z
M 1428 4750 
Q 1922 4750 2215 4408 
Q 2509 4066 2509 3481 
Q 2509 2891 2217 2550 
Q 1925 2209 1428 2209 
Q 931 2209 642 2551 
Q 353 2894 353 3481 
Q 353 4063 643 4406 
Q 934 4750 1428 4750 
z
" transform="scale(0.015625)"/>
     </defs>
     <use xlink:href="#DejaVuSans-54"/>
     <use xlink:href="#DejaVuSans-6f" x="44.083984"/>
     <use xlink:href="#DejaVuSans-74" x="105.265625"/>
     <use xlink:href="#DejaVuSans-61" x="144.474609"/>
     <use xlink:href="#DejaVuSans-6c" x="205.753906"/>
     <use xlink:href="#DejaVuSans-20" x="233.537109"/>
     <use xlink:href="#DejaVuSans-63" x="265.324219"/>
     <use xlink:href="#DejaVuSans-6f" x="320.304688"/>
     <use xlink:href="#DejaVuSans-76" x="381.486328"/>
     <use xlink:href="#DejaVuSans-65" x="440.666016"/>
     <use xlink:href="#DejaVuSans-72" x="502.189453"/>
     <use xlink:href="#DejaVuSans-61" x="543.302734"/>
     <use xlink:href="#DejaVuSans-67" x="604.582031"/>
     <use xlink:href="#DejaVuSans-65" x="668.058594"/>
     <use xlink:href="#DejaVuSans-3a" x="729.582031"/>
     <use xlink:href="#DejaVuSans-20" x="763.273438"/>
     <use xlink:href="#DejaVuSans-34" x="795.060547"/>
     <use xlink:href="#DejaVuSans-31" x="858.683594"/>
     <use xlink:href="#DejaVuSans-2e" x="922.306641"/>
     <use xlink:href="#DejaVuSans-38" x="954.09375"/>
     <use xlink:href="#DejaVuSans-37" x="1017.716797"/>
     <use xlink:href="#DejaVuSans-25" x="1081.339844"/>
    </g>
   </g>
  </g>
 </g>
 <defs>
  <clipPath id="p8e45e703ea">
   <rect x="57.6" y="41.472" width="357.12" height="266.112"/>
  </clipPath>
 </defs>
</svg>
