<?xml version="1.0" encoding="utf-8" standalone="no"?>
<!DOCTYPE svg PUBLIC "-//W3C//DTD SVG 1.1//EN"
  "http://www.w3.org/Graphics/SVG/1.1/DTD/svg11.dtd">
<svg xmlns:xlink="http://www.w3.org/1999/xlink" width="460.8pt" height="345.6pt" viewBox="0 0 460.8 345.6" xmlns="http://www.w3.org/2000/svg" version="1.1">
 <metadata>
  <rdf:RDF xmlns:dc="http://purl.org/dc/elements/1.1/" xmlns:cc="http://creativecommons.org/ns#" xmlns:rdf="http://www.w3.org/1999/02/22-rdf-syntax-ns#">
   <cc:Work>
    <dc:type rdf:resource="http://purl.org/dc/dcmitype/StillImage"/>
    <dc:date>2024-09-18T15:31:41.043008</dc:date>
    <dc:format>image/svg+xml</dc:format>
    <dc:creator>
     <cc:Agent>
      <dc:title>Matplotlib v3.9.1.post1, https://matplotlib.org/</dc:title>
     </cc:Agent>
    </dc:creator>
   </cc:Work>
  </rdf:RDF>
 </metadata>
 <defs>
  <style type="text/css">*{stroke-linejoin: round; stroke-linecap: butt}</style>
 </defs>
 <g id="figure_1">
  <g id="patch_1">
   <path d="M 0 345.6 
L 460.8 345.6 
L 460.8 0 
L 0 0 
z
" style="fill: #ffffff"/>
  </g>
  <g id="axes_1">
   <g id="patch_2">
    <path d="M 57.6 307.584 
L 414.72 307.584 
L 414.72 41.472 
L 57.6 41.472 
z
" style="fill: #ffffff"/>
   </g>
   <g id="PolyCollection_1"/>
   <g id="matplotlib.axis_1">
    <g id="xtick_1">
     <g id="line2d_1">
      <defs>
       <path id="m162a29bfbe" d="M 0 0 
L 0 3.5 
" style="stroke: #000000; stroke-width: 0.8"/>
      </defs>
      <g>
       <use xlink:href="#m162a29bfbe" x="73.754854" y="307.584" style="stroke: #000000; stroke-width: 0.8"/>
      </g>
     </g>
     <g id="text_1">
      <!-- 0 -->
      <g transform="translate(70.573604 322.182437) scale(0.1 -0.1)">
       <defs>
        <path id="DejaVuSans-30" d="M 2034 4250 
Q 1547 4250 1301 3770 
Q 1056 3291 1056 2328 
Q 1056 1369 1301 889 
Q 1547 409 2034 409 
Q 2525 409 2770 889 
Q 3016 1369 3016 2328 
Q 3016 3291 2770 3770 
Q 2525 4250 2034 4250 
z
M 2034 4750 
Q 2819 4750 3233 4129 
Q 3647 3509 3647 2328 
Q 3647 1150 3233 529 
Q 2819 -91 2034 -91 
Q 1250 -91 836 529 
Q 422 1150 422 2328 
Q 422 3509 836 4129 
Q 1250 4750 2034 4750 
z
" transform="scale(0.015625)"/>
       </defs>
       <use xlink:href="#DejaVuSans-30"/>
      </g>
     </g>
    </g>
    <g id="xtick_2">
     <g id="line2d_2">
      <g>
       <use xlink:href="#m162a29bfbe" x="151.628336" y="307.584" style="stroke: #000000; stroke-width: 0.8"/>
      </g>
     </g>
     <g id="text_2">
      <!-- 1000 -->
      <g transform="translate(138.903336 322.182437) scale(0.1 -0.1)">
       <defs>
        <path id="DejaVuSans-31" d="M 794 531 
L 1825 531 
L 1825 4091 
L 703 3866 
L 703 4441 
L 1819 4666 
L 2450 4666 
L 2450 531 
L 3481 531 
L 3481 0 
L 794 0 
L 794 531 
z
" transform="scale(0.015625)"/>
       </defs>
       <use xlink:href="#DejaVuSans-31"/>
       <use xlink:href="#DejaVuSans-30" x="63.623047"/>
       <use xlink:href="#DejaVuSans-30" x="127.246094"/>
       <use xlink:href="#DejaVuSans-30" x="190.869141"/>
      </g>
     </g>
    </g>
    <g id="xtick_3">
     <g id="line2d_3">
      <g>
       <use xlink:href="#m162a29bfbe" x="229.501817" y="307.584" style="stroke: #000000; stroke-width: 0.8"/>
      </g>
     </g>
     <g id="text_3">
      <!-- 2000 -->
      <g transform="translate(216.776817 322.182437) scale(0.1 -0.1)">
       <defs>
        <path id="DejaVuSans-32" d="M 1228 531 
L 3431 531 
L 3431 0 
L 469 0 
L 469 531 
Q 828 903 1448 1529 
Q 2069 2156 2228 2338 
Q 2531 2678 2651 2914 
Q 2772 3150 2772 3378 
Q 2772 3750 2511 3984 
Q 2250 4219 1831 4219 
Q 1534 4219 1204 4116 
Q 875 4013 500 3803 
L 500 4441 
Q 881 4594 1212 4672 
Q 1544 4750 1819 4750 
Q 2544 4750 2975 4387 
Q 3406 4025 3406 3419 
Q 3406 3131 3298 2873 
Q 3191 2616 2906 2266 
Q 2828 2175 2409 1742 
Q 1991 1309 1228 531 
z
" transform="scale(0.015625)"/>
       </defs>
       <use xlink:href="#DejaVuSans-32"/>
       <use xlink:href="#DejaVuSans-30" x="63.623047"/>
       <use xlink:href="#DejaVuSans-30" x="127.246094"/>
       <use xlink:href="#DejaVuSans-30" x="190.869141"/>
      </g>
     </g>
    </g>
    <g id="xtick_4">
     <g id="line2d_4">
      <g>
       <use xlink:href="#m162a29bfbe" x="307.375299" y="307.584" style="stroke: #000000; stroke-width: 0.8"/>
      </g>
     </g>
     <g id="text_4">
      <!-- 3000 -->
      <g transform="translate(294.650299 322.182437) scale(0.1 -0.1)">
       <defs>
        <path id="DejaVuSans-33" d="M 2597 2516 
Q 3050 2419 3304 2112 
Q 3559 1806 3559 1356 
Q 3559 666 3084 287 
Q 2609 -91 1734 -91 
Q 1441 -91 1130 -33 
Q 819 25 488 141 
L 488 750 
Q 750 597 1062 519 
Q 1375 441 1716 441 
Q 2309 441 2620 675 
Q 2931 909 2931 1356 
Q 2931 1769 2642 2001 
Q 2353 2234 1838 2234 
L 1294 2234 
L 1294 2753 
L 1863 2753 
Q 2328 2753 2575 2939 
Q 2822 3125 2822 3475 
Q 2822 3834 2567 4026 
Q 2313 4219 1838 4219 
Q 1578 4219 1281 4162 
Q 984 4106 628 3988 
L 628 4550 
Q 988 4650 1302 4700 
Q 1616 4750 1894 4750 
Q 2613 4750 3031 4423 
Q 3450 4097 3450 3541 
Q 3450 3153 3228 2886 
Q 3006 2619 2597 2516 
z
" transform="scale(0.015625)"/>
       </defs>
       <use xlink:href="#DejaVuSans-33"/>
       <use xlink:href="#DejaVuSans-30" x="63.623047"/>
       <use xlink:href="#DejaVuSans-30" x="127.246094"/>
       <use xlink:href="#DejaVuSans-30" x="190.869141"/>
      </g>
     </g>
    </g>
    <g id="xtick_5">
     <g id="line2d_5">
      <g>
       <use xlink:href="#m162a29bfbe" x="385.248781" y="307.584" style="stroke: #000000; stroke-width: 0.8"/>
      </g>
     </g>
     <g id="text_5">
      <!-- 4000 -->
      <g transform="translate(372.523781 322.182437) scale(0.1 -0.1)">
       <defs>
        <path id="DejaVuSans-34" d="M 2419 4116 
L 825 1625 
L 2419 1625 
L 2419 4116 
z
M 2253 4666 
L 3047 4666 
L 3047 1625 
L 3713 1625 
L 3713 1100 
L 3047 1100 
L 3047 0 
L 2419 0 
L 2419 1100 
L 313 1100 
L 313 1709 
L 2253 4666 
z
" transform="scale(0.015625)"/>
       </defs>
       <use xlink:href="#DejaVuSans-34"/>
       <use xlink:href="#DejaVuSans-30" x="63.623047"/>
       <use xlink:href="#DejaVuSans-30" x="127.246094"/>
       <use xlink:href="#DejaVuSans-30" x="190.869141"/>
      </g>
     </g>
    </g>
    <g id="text_6">
     <!-- Base -->
     <g transform="translate(223.984219 335.860562) scale(0.1 -0.1)">
      <defs>
       <path id="DejaVuSans-42" d="M 1259 2228 
L 1259 519 
L 2272 519 
Q 2781 519 3026 730 
Q 3272 941 3272 1375 
Q 3272 1813 3026 2020 
Q 2781 2228 2272 2228 
L 1259 2228 
z
M 1259 4147 
L 1259 2741 
L 2194 2741 
Q 2656 2741 2882 2914 
Q 3109 3088 3109 3444 
Q 3109 3797 2882 3972 
Q 2656 4147 2194 4147 
L 1259 4147 
z
M 628 4666 
L 2241 4666 
Q 2963 4666 3353 4366 
Q 3744 4066 3744 3513 
Q 3744 3084 3544 2831 
Q 3344 2578 2956 2516 
Q 3422 2416 3680 2098 
Q 3938 1781 3938 1306 
Q 3938 681 3513 340 
Q 3088 0 2303 0 
L 628 0 
L 628 4666 
z
" transform="scale(0.015625)"/>
       <path id="DejaVuSans-61" d="M 2194 1759 
Q 1497 1759 1228 1600 
Q 959 1441 959 1056 
Q 959 750 1161 570 
Q 1363 391 1709 391 
Q 2188 391 2477 730 
Q 2766 1069 2766 1631 
L 2766 1759 
L 2194 1759 
z
M 3341 1997 
L 3341 0 
L 2766 0 
L 2766 531 
Q 2569 213 2275 61 
Q 1981 -91 1556 -91 
Q 1019 -91 701 211 
Q 384 513 384 1019 
Q 384 1609 779 1909 
Q 1175 2209 1959 2209 
L 2766 2209 
L 2766 2266 
Q 2766 2663 2505 2880 
Q 2244 3097 1772 3097 
Q 1472 3097 1187 3025 
Q 903 2953 641 2809 
L 641 3341 
Q 956 3463 1253 3523 
Q 1550 3584 1831 3584 
Q 2591 3584 2966 3190 
Q 3341 2797 3341 1997 
z
" transform="scale(0.015625)"/>
       <path id="DejaVuSans-73" d="M 2834 3397 
L 2834 2853 
Q 2591 2978 2328 3040 
Q 2066 3103 1784 3103 
Q 1356 3103 1142 2972 
Q 928 2841 928 2578 
Q 928 2378 1081 2264 
Q 1234 2150 1697 2047 
L 1894 2003 
Q 2506 1872 2764 1633 
Q 3022 1394 3022 966 
Q 3022 478 2636 193 
Q 2250 -91 1575 -91 
Q 1294 -91 989 -36 
Q 684 19 347 128 
L 347 722 
Q 666 556 975 473 
Q 1284 391 1588 391 
Q 1994 391 2212 530 
Q 2431 669 2431 922 
Q 2431 1156 2273 1281 
Q 2116 1406 1581 1522 
L 1381 1569 
Q 847 1681 609 1914 
Q 372 2147 372 2553 
Q 372 3047 722 3315 
Q 1072 3584 1716 3584 
Q 2034 3584 2315 3537 
Q 2597 3491 2834 3397 
z
" transform="scale(0.015625)"/>
       <path id="DejaVuSans-65" d="M 3597 1894 
L 3597 1613 
L 953 1613 
Q 991 1019 1311 708 
Q 1631 397 2203 397 
Q 2534 397 2845 478 
Q 3156 559 3463 722 
L 3463 178 
Q 3153 47 2828 -22 
Q 2503 -91 2169 -91 
Q 1331 -91 842 396 
Q 353 884 353 1716 
Q 353 2575 817 3079 
Q 1281 3584 2069 3584 
Q 2775 3584 3186 3129 
Q 3597 2675 3597 1894 
z
M 3022 2063 
Q 3016 2534 2758 2815 
Q 2500 3097 2075 3097 
Q 1594 3097 1305 2825 
Q 1016 2553 972 2059 
L 3022 2063 
z
" transform="scale(0.015625)"/>
      </defs>
      <use xlink:href="#DejaVuSans-42"/>
      <use xlink:href="#DejaVuSans-61" x="68.603516"/>
      <use xlink:href="#DejaVuSans-73" x="129.882812"/>
      <use xlink:href="#DejaVuSans-65" x="181.982422"/>
     </g>
    </g>
   </g>
   <g id="matplotlib.axis_2">
    <g id="ytick_1">
     <g id="line2d_6">
      <defs>
       <path id="m0df681922b" d="M 0 0 
L -3.5 0 
" style="stroke: #000000; stroke-width: 0.8"/>
      </defs>
      <g>
       <use xlink:href="#m0df681922b" x="57.6" y="295.488" style="stroke: #000000; stroke-width: 0.8"/>
      </g>
     </g>
     <g id="text_7">
      <!-- 0.0 -->
      <g transform="translate(34.696875 299.287219) scale(0.1 -0.1)">
       <defs>
        <path id="DejaVuSans-2e" d="M 684 794 
L 1344 794 
L 1344 0 
L 684 0 
L 684 794 
z
" transform="scale(0.015625)"/>
       </defs>
       <use xlink:href="#DejaVuSans-30"/>
       <use xlink:href="#DejaVuSans-2e" x="63.623047"/>
       <use xlink:href="#DejaVuSans-30" x="95.410156"/>
      </g>
     </g>
    </g>
    <g id="ytick_2">
     <g id="line2d_7">
      <g>
       <use xlink:href="#m0df681922b" x="57.6" y="258.362028" style="stroke: #000000; stroke-width: 0.8"/>
      </g>
     </g>
     <g id="text_8">
      <!-- 0.5 -->
      <g transform="translate(34.696875 262.161247) scale(0.1 -0.1)">
       <defs>
        <path id="DejaVuSans-35" d="M 691 4666 
L 3169 4666 
L 3169 4134 
L 1269 4134 
L 1269 2991 
Q 1406 3038 1543 3061 
Q 1681 3084 1819 3084 
Q 2600 3084 3056 2656 
Q 3513 2228 3513 1497 
Q 3513 744 3044 326 
Q 2575 -91 1722 -91 
Q 1428 -91 1123 -41 
Q 819 9 494 109 
L 494 744 
Q 775 591 1075 516 
Q 1375 441 1709 441 
Q 2250 441 2565 725 
Q 2881 1009 2881 1497 
Q 2881 1984 2565 2268 
Q 2250 2553 1709 2553 
Q 1456 2553 1204 2497 
Q 953 2441 691 2322 
L 691 4666 
z
" transform="scale(0.015625)"/>
       </defs>
       <use xlink:href="#DejaVuSans-30"/>
       <use xlink:href="#DejaVuSans-2e" x="63.623047"/>
       <use xlink:href="#DejaVuSans-35" x="95.410156"/>
      </g>
     </g>
    </g>
    <g id="ytick_3">
     <g id="line2d_8">
      <g>
       <use xlink:href="#m0df681922b" x="57.6" y="221.236057" style="stroke: #000000; stroke-width: 0.8"/>
      </g>
     </g>
     <g id="text_9">
      <!-- 1.0 -->
      <g transform="translate(34.696875 225.035275) scale(0.1 -0.1)">
       <use xlink:href="#DejaVuSans-31"/>
       <use xlink:href="#DejaVuSans-2e" x="63.623047"/>
       <use xlink:href="#DejaVuSans-30" x="95.410156"/>
      </g>
     </g>
    </g>
    <g id="ytick_4">
     <g id="line2d_9">
      <g>
       <use xlink:href="#m0df681922b" x="57.6" y="184.110085" style="stroke: #000000; stroke-width: 0.8"/>
      </g>
     </g>
     <g id="text_10">
      <!-- 1.5 -->
      <g transform="translate(34.696875 187.909304) scale(0.1 -0.1)">
       <use xlink:href="#DejaVuSans-31"/>
       <use xlink:href="#DejaVuSans-2e" x="63.623047"/>
       <use xlink:href="#DejaVuSans-35" x="95.410156"/>
      </g>
     </g>
    </g>
    <g id="ytick_5">
     <g id="line2d_10">
      <g>
       <use xlink:href="#m0df681922b" x="57.6" y="146.984113" style="stroke: #000000; stroke-width: 0.8"/>
      </g>
     </g>
     <g id="text_11">
      <!-- 2.0 -->
      <g transform="translate(34.696875 150.783332) scale(0.1 -0.1)">
       <use xlink:href="#DejaVuSans-32"/>
       <use xlink:href="#DejaVuSans-2e" x="63.623047"/>
       <use xlink:href="#DejaVuSans-30" x="95.410156"/>
      </g>
     </g>
    </g>
    <g id="ytick_6">
     <g id="line2d_11">
      <g>
       <use xlink:href="#m0df681922b" x="57.6" y="109.858141" style="stroke: #000000; stroke-width: 0.8"/>
      </g>
     </g>
     <g id="text_12">
      <!-- 2.5 -->
      <g transform="translate(34.696875 113.65736) scale(0.1 -0.1)">
       <use xlink:href="#DejaVuSans-32"/>
       <use xlink:href="#DejaVuSans-2e" x="63.623047"/>
       <use xlink:href="#DejaVuSans-35" x="95.410156"/>
      </g>
     </g>
    </g>
    <g id="ytick_7">
     <g id="line2d_12">
      <g>
       <use xlink:href="#m0df681922b" x="57.6" y="72.73217" style="stroke: #000000; stroke-width: 0.8"/>
      </g>
     </g>
     <g id="text_13">
      <!-- 3.0 -->
      <g transform="translate(34.696875 76.531388) scale(0.1 -0.1)">
       <use xlink:href="#DejaVuSans-33"/>
       <use xlink:href="#DejaVuSans-2e" x="63.623047"/>
       <use xlink:href="#DejaVuSans-30" x="95.410156"/>
      </g>
     </g>
    </g>
    <g id="text_14">
     <!-- Coverage (log10) -->
     <g transform="translate(28.617187 217.960813) rotate(-90) scale(0.1 -0.1)">
      <defs>
       <path id="DejaVuSans-43" d="M 4122 4306 
L 4122 3641 
Q 3803 3938 3442 4084 
Q 3081 4231 2675 4231 
Q 1875 4231 1450 3742 
Q 1025 3253 1025 2328 
Q 1025 1406 1450 917 
Q 1875 428 2675 428 
Q 3081 428 3442 575 
Q 3803 722 4122 1019 
L 4122 359 
Q 3791 134 3420 21 
Q 3050 -91 2638 -91 
Q 1578 -91 968 557 
Q 359 1206 359 2328 
Q 359 3453 968 4101 
Q 1578 4750 2638 4750 
Q 3056 4750 3426 4639 
Q 3797 4528 4122 4306 
z
" transform="scale(0.015625)"/>
       <path id="DejaVuSans-6f" d="M 1959 3097 
Q 1497 3097 1228 2736 
Q 959 2375 959 1747 
Q 959 1119 1226 758 
Q 1494 397 1959 397 
Q 2419 397 2687 759 
Q 2956 1122 2956 1747 
Q 2956 2369 2687 2733 
Q 2419 3097 1959 3097 
z
M 1959 3584 
Q 2709 3584 3137 3096 
Q 3566 2609 3566 1747 
Q 3566 888 3137 398 
Q 2709 -91 1959 -91 
Q 1206 -91 779 398 
Q 353 888 353 1747 
Q 353 2609 779 3096 
Q 1206 3584 1959 3584 
z
" transform="scale(0.015625)"/>
       <path id="DejaVuSans-76" d="M 191 3500 
L 800 3500 
L 1894 563 
L 2988 3500 
L 3597 3500 
L 2284 0 
L 1503 0 
L 191 3500 
z
" transform="scale(0.015625)"/>
       <path id="DejaVuSans-72" d="M 2631 2963 
Q 2534 3019 2420 3045 
Q 2306 3072 2169 3072 
Q 1681 3072 1420 2755 
Q 1159 2438 1159 1844 
L 1159 0 
L 581 0 
L 581 3500 
L 1159 3500 
L 1159 2956 
Q 1341 3275 1631 3429 
Q 1922 3584 2338 3584 
Q 2397 3584 2469 3576 
Q 2541 3569 2628 3553 
L 2631 2963 
z
" transform="scale(0.015625)"/>
       <path id="DejaVuSans-67" d="M 2906 1791 
Q 2906 2416 2648 2759 
Q 2391 3103 1925 3103 
Q 1463 3103 1205 2759 
Q 947 2416 947 1791 
Q 947 1169 1205 825 
Q 1463 481 1925 481 
Q 2391 481 2648 825 
Q 2906 1169 2906 1791 
z
M 3481 434 
Q 3481 -459 3084 -895 
Q 2688 -1331 1869 -1331 
Q 1566 -1331 1297 -1286 
Q 1028 -1241 775 -1147 
L 775 -588 
Q 1028 -725 1275 -790 
Q 1522 -856 1778 -856 
Q 2344 -856 2625 -561 
Q 2906 -266 2906 331 
L 2906 616 
Q 2728 306 2450 153 
Q 2172 0 1784 0 
Q 1141 0 747 490 
Q 353 981 353 1791 
Q 353 2603 747 3093 
Q 1141 3584 1784 3584 
Q 2172 3584 2450 3431 
Q 2728 3278 2906 2969 
L 2906 3500 
L 3481 3500 
L 3481 434 
z
" transform="scale(0.015625)"/>
       <path id="DejaVuSans-20" transform="scale(0.015625)"/>
       <path id="DejaVuSans-28" d="M 1984 4856 
Q 1566 4138 1362 3434 
Q 1159 2731 1159 2009 
Q 1159 1288 1364 580 
Q 1569 -128 1984 -844 
L 1484 -844 
Q 1016 -109 783 600 
Q 550 1309 550 2009 
Q 550 2706 781 3412 
Q 1013 4119 1484 4856 
L 1984 4856 
z
" transform="scale(0.015625)"/>
       <path id="DejaVuSans-6c" d="M 603 4863 
L 1178 4863 
L 1178 0 
L 603 0 
L 603 4863 
z
" transform="scale(0.015625)"/>
       <path id="DejaVuSans-29" d="M 513 4856 
L 1013 4856 
Q 1481 4119 1714 3412 
Q 1947 2706 1947 2009 
Q 1947 1309 1714 600 
Q 1481 -109 1013 -844 
L 513 -844 
Q 928 -128 1133 580 
Q 1338 1288 1338 2009 
Q 1338 2731 1133 3434 
Q 928 4138 513 4856 
z
" transform="scale(0.015625)"/>
      </defs>
      <use xlink:href="#DejaVuSans-43"/>
      <use xlink:href="#DejaVuSans-6f" x="69.824219"/>
      <use xlink:href="#DejaVuSans-76" x="131.005859"/>
      <use xlink:href="#DejaVuSans-65" x="190.185547"/>
      <use xlink:href="#DejaVuSans-72" x="251.708984"/>
      <use xlink:href="#DejaVuSans-61" x="292.822266"/>
      <use xlink:href="#DejaVuSans-67" x="354.101562"/>
      <use xlink:href="#DejaVuSans-65" x="417.578125"/>
      <use xlink:href="#DejaVuSans-20" x="479.101562"/>
      <use xlink:href="#DejaVuSans-28" x="510.888672"/>
      <use xlink:href="#DejaVuSans-6c" x="549.902344"/>
      <use xlink:href="#DejaVuSans-6f" x="577.685547"/>
      <use xlink:href="#DejaVuSans-67" x="638.867188"/>
      <use xlink:href="#DejaVuSans-31" x="702.34375"/>
      <use xlink:href="#DejaVuSans-30" x="765.966797"/>
      <use xlink:href="#DejaVuSans-29" x="829.589844"/>
     </g>
    </g>
   </g>
   <g id="line2d_13">
    <path d="M 73.832727 295.488 
L 73.910601 295.488 
L 74.066348 244.020475 
L 74.845083 244.020475 
L 75.000829 213.913902 
L 78.271516 213.913902 
L 78.427263 192.552949 
L 81.308582 192.552949 
L 81.464328 175.984107 
L 84.034153 175.984107 
L 84.1899 192.552949 
L 85.046509 192.552949 
L 85.202256 213.913902 
L 86.136737 213.913902 
L 86.292484 192.552949 
L 87.149093 192.552949 
L 87.30484 175.984107 
L 87.460587 175.984107 
L 87.616334 162.446377 
L 87.772081 175.984107 
L 88.395068 175.984107 
L 88.550815 192.552949 
L 90.497652 192.552949 
L 90.653399 175.984107 
L 91.510008 175.984107 
L 91.665755 192.552949 
L 93.924086 192.552949 
L 94.079833 175.984107 
L 96.26029 175.984107 
L 96.338164 162.446377 
L 96.49391 175.984107 
L 97.116898 175.984107 
L 97.272645 192.552949 
L 97.584139 192.552949 
L 97.739886 213.913902 
L 99.453103 213.913902 
L 99.60885 192.552949 
L 100.465458 192.552949 
L 100.621205 175.984107 
L 100.776952 175.984107 
L 100.932699 192.552949 
L 101.945054 192.552949 
L 102.100801 175.984107 
L 104.203385 175.984107 
L 104.359132 192.552949 
L 109.498782 192.552949 
L 109.732402 244.020475 
L 110.12177 244.020475 
L 110.277517 213.913902 
L 110.511137 213.913902 
L 110.666884 192.552949 
L 110.900505 192.552949 
L 111.056252 213.913902 
L 111.757113 213.913902 
L 111.91286 175.984107 
L 112.302227 175.984107 
L 112.457974 162.446377 
L 113.626076 162.446377 
L 113.859697 141.085424 
L 114.638432 141.085424 
L 114.794179 132.339805 
L 115.027799 132.339805 
L 115.183546 124.516582 
L 115.417167 124.516582 
L 115.572913 132.339805 
L 116.507395 132.339805 
L 116.663142 141.085424 
L 116.818889 132.339805 
L 116.974636 141.085424 
L 117.675498 141.085424 
L 117.831244 132.339805 
L 118.142738 132.339805 
L 118.298485 124.516582 
L 118.999347 124.516582 
L 119.155094 117.439616 
L 119.544461 117.439616 
L 119.700208 110.978852 
L 119.778082 110.978852 
L 120.011702 99.532864 
L 120.323196 99.532864 
L 120.556816 110.978852 
L 120.63469 110.978852 
L 120.790437 105.035525 
L 121.101931 105.035525 
L 121.335551 117.439616 
L 121.413425 117.439616 
L 121.569172 124.516582 
L 121.802792 124.516582 
L 122.036412 141.085424 
L 122.114286 141.085424 
L 122.270033 132.339805 
L 122.581527 132.339805 
L 122.737274 110.978852 
L 124.21687 110.978852 
L 124.372617 105.035525 
L 124.761984 105.035525 
L 124.917731 99.532864 
L 125.073478 105.035525 
L 126.319454 105.035525 
L 126.475201 110.978852 
L 126.630948 110.978852 
L 126.786695 117.439616 
L 127.331809 117.439616 
L 127.409683 124.516582 
L 127.56543 117.439616 
L 127.721177 117.439616 
L 127.876924 124.516582 
L 128.422038 124.516582 
L 128.499911 132.339805 
L 128.655658 124.516582 
L 128.733532 124.516582 
L 128.889279 117.439616 
L 129.045026 117.439616 
L 129.200773 105.035525 
L 129.278646 105.035525 
L 129.434393 110.978852 
L 129.668014 110.978852 
L 129.823761 105.035525 
L 129.901634 105.035525 
L 130.057381 94.41001 
L 130.213128 99.532864 
L 132.627206 99.532864 
L 132.782953 105.035525 
L 133.016573 105.035525 
L 133.17232 110.978852 
L 133.483814 110.978852 
L 133.639561 105.035525 
L 134.262549 105.035525 
L 134.418296 99.532864 
L 134.574043 105.035525 
L 134.807663 105.035525 
L 134.96341 110.978852 
L 135.430651 110.978852 
L 135.586398 105.035525 
L 136.443007 105.035525 
L 136.598754 99.532864 
L 137.455362 99.532864 
L 137.611109 105.035525 
L 138.156223 105.035525 
L 138.31197 110.978852 
L 138.779211 110.978852 
L 139.090705 132.339805 
L 139.324325 132.339805 
L 139.480072 141.085424 
L 139.635819 141.085424 
L 139.791566 151.00039 
L 139.947313 151.00039 
L 140.180934 175.984107 
L 140.258807 175.984107 
L 140.414554 162.446377 
L 141.738403 162.446377 
L 141.89415 141.085424 
L 142.049897 141.085424 
L 142.205644 132.339805 
L 143.062253 132.339805 
L 143.218 141.085424 
L 144.541849 141.085424 
L 144.697596 151.00039 
L 145.24271 151.00039 
L 145.398457 162.446377 
L 145.709951 162.446377 
L 145.865698 175.984107 
L 146.099318 175.984107 
L 146.255065 192.552949 
L 146.644433 192.552949 
L 146.80018 213.913902 
L 148.59127 213.913902 
L 148.747017 192.552949 
L 148.82489 192.552949 
L 148.980637 162.446377 
L 150.148739 162.446377 
L 150.38236 141.085424 
L 151.939829 141.085424 
L 152.095576 151.00039 
L 152.251323 141.085424 
L 152.329197 141.085424 
L 152.484944 151.00039 
L 153.653046 151.00039 
L 153.808793 162.446377 
L 153.96454 151.00039 
L 154.276034 151.00039 
L 154.431781 132.339805 
L 155.677757 132.339805 
L 155.833504 141.085424 
L 156.456491 141.085424 
L 156.612238 151.00039 
L 157.079479 151.00039 
L 157.235226 162.446377 
L 157.390973 151.00039 
L 157.624594 151.00039 
L 157.780341 141.085424 
L 158.792696 141.085424 
L 158.948443 151.00039 
L 160.194419 151.00039 
L 160.350166 141.085424 
L 160.661659 141.085424 
L 160.817406 132.339805 
L 161.284647 132.339805 
L 161.440394 124.516582 
L 161.596141 124.516582 
L 161.829762 110.978852 
L 161.985509 110.978852 
L 162.063382 117.439616 
L 162.219129 110.978852 
L 162.608496 110.978852 
L 162.764243 105.035525 
L 164.088093 105.035525 
L 164.24384 110.978852 
L 164.399587 110.978852 
L 164.555334 117.439616 
L 164.944701 117.439616 
L 165.178321 105.035525 
L 165.256195 105.035525 
L 165.411942 110.978852 
L 166.26855 110.978852 
L 166.424297 105.035525 
L 166.580044 105.035525 
L 166.735791 99.532864 
L 167.436652 99.532864 
L 167.592399 105.035525 
L 167.670273 105.035525 
L 167.82602 110.978852 
L 168.526881 110.978852 
L 168.682628 105.035525 
L 168.838375 105.035525 
L 169.227742 85.116403 
L 170.084351 85.116403 
L 170.240098 80.87228 
L 170.473718 80.87228 
L 170.629465 85.116403 
L 170.785212 85.116403 
L 170.940959 80.87228 
L 171.096706 85.116403 
L 171.563947 85.116403 
L 171.719694 89.617899 
L 171.875441 89.617899 
L 172.109061 99.532864 
L 172.342682 99.532864 
L 172.498429 105.035525 
L 172.732049 105.035525 
L 172.96567 117.439616 
L 173.666531 117.439616 
L 173.822278 110.978852 
L 174.133772 110.978852 
L 174.289519 117.439616 
L 174.834633 117.439616 
L 174.99038 124.516582 
L 175.224001 105.035525 
L 175.379747 110.978852 
L 175.691241 110.978852 
L 175.846988 105.035525 
L 176.54785 105.035525 
L 176.703597 110.978852 
L 177.482331 110.978852 
L 177.638078 117.439616 
L 178.728307 117.439616 
L 179.039801 141.085424 
L 179.117675 141.085424 
L 179.429169 175.984107 
L 179.818536 175.984107 
L 179.974283 162.446377 
L 180.285777 162.446377 
L 180.441524 175.984107 
L 180.986638 175.984107 
L 181.142385 192.552949 
L 182.076867 192.552949 
L 182.232614 175.984107 
L 185.113933 175.984107 
L 185.191806 192.552949 
L 185.347553 175.984107 
L 185.5033 192.552949 
L 185.970541 192.552949 
L 186.126288 213.913902 
L 187.06077 213.913902 
L 187.216517 192.552949 
L 187.29439 192.552949 
L 187.450137 175.984107 
L 188.228872 175.984107 
L 188.384619 162.446377 
L 190.097836 162.446377 
L 190.253583 175.984107 
L 190.565076 175.984107 
L 190.720823 162.446377 
L 191.188064 162.446377 
L 191.343811 151.00039 
L 192.356167 151.00039 
L 192.511913 162.446377 
L 193.835763 162.446377 
L 193.99151 151.00039 
L 195.471106 151.00039 
L 195.626853 162.446377 
L 195.704726 162.446377 
L 195.860473 151.00039 
L 197.262196 151.00039 
L 197.417943 175.984107 
L 197.57369 162.446377 
L 197.80731 162.446377 
L 197.963057 141.085424 
L 198.508172 141.085424 
L 198.663919 151.00039 
L 199.286906 151.00039 
L 199.442653 141.085424 
L 199.5984 141.085424 
L 199.754147 124.516582 
L 201.38949 124.516582 
L 201.545237 132.339805 
L 201.700984 132.339805 
L 201.934605 117.439616 
L 203.258454 117.439616 
L 203.414201 124.516582 
L 203.569948 117.439616 
L 203.803568 117.439616 
L 204.037189 105.035525 
L 204.115062 105.035525 
L 204.270809 110.978852 
L 204.893797 110.978852 
L 205.127418 99.532864 
L 205.361038 99.532864 
L 205.516785 94.41001 
L 205.984026 94.41001 
L 206.139773 89.617899 
L 206.29552 89.617899 
L 206.451267 85.116403 
L 206.52914 85.116403 
L 206.684887 89.617899 
L 207.074255 89.617899 
L 207.230002 94.41001 
L 207.619369 94.41001 
L 207.775116 89.617899 
L 208.08661 89.617899 
L 208.164483 99.532864 
L 208.32023 89.617899 
L 208.553851 89.617899 
L 208.709598 94.41001 
L 209.721953 94.41001 
L 209.8777 99.532864 
L 210.422814 99.532864 
L 210.578561 105.035525 
L 211.980284 105.035525 
L 212.136031 117.439616 
L 212.291778 110.978852 
L 212.525398 110.978852 
L 212.681145 105.035525 
L 213.45988 105.035525 
L 213.615627 110.978852 
L 213.693501 110.978852 
L 213.771374 117.439616 
L 213.927121 110.978852 
L 214.160741 110.978852 
L 214.316488 105.035525 
L 215.328844 105.035525 
L 215.562464 117.439616 
L 216.185452 117.439616 
L 216.341199 132.339805 
L 216.496946 124.516582 
L 216.80844 124.516582 
L 216.964187 117.439616 
L 217.820795 117.439616 
L 217.976542 132.339805 
L 218.288036 132.339805 
L 218.443783 117.439616 
L 218.911024 117.439616 
L 219.066771 110.978852 
L 220.079126 110.978852 
L 220.234873 117.439616 
L 220.312746 117.439616 
L 220.468493 110.978852 
L 221.792343 110.978852 
L 221.94809 105.035525 
L 222.41533 105.035525 
L 222.571077 110.978852 
L 222.804698 110.978852 
L 222.960445 132.339805 
L 223.116192 141.085424 
L 224.050674 141.085424 
L 224.284294 162.446377 
L 224.440041 162.446377 
L 224.673661 213.913902 
L 224.751535 213.913902 
L 224.907282 192.552949 
L 225.452396 192.552949 
L 225.608143 175.984107 
L 225.997511 175.984107 
L 226.153258 151.00039 
L 226.620498 151.00039 
L 226.776245 162.446377 
L 228.333715 162.446377 
L 228.489462 175.984107 
L 228.878829 175.984107 
L 229.034576 151.00039 
L 229.11245 151.00039 
L 229.268197 162.446377 
L 229.579691 162.446377 
L 229.891185 132.339805 
L 229.969058 132.339805 
L 230.124805 124.516582 
L 230.358426 124.516582 
L 230.514173 117.439616 
L 231.915895 117.439616 
L 232.071642 110.978852 
L 232.46101 110.978852 
L 232.616757 105.035525 
L 232.772504 105.035525 
L 232.928251 99.532864 
L 233.161871 99.532864 
L 233.395491 89.617899 
L 234.48572 89.617899 
L 234.641467 85.116403 
L 235.342328 85.116403 
L 235.498075 80.87228 
L 235.653822 80.87228 
L 235.887443 89.617899 
L 236.27681 89.617899 
L 236.432557 99.532864 
L 237.133419 99.532864 
L 237.289165 105.035525 
L 237.912153 105.035525 
L 238.0679 99.532864 
L 239.158129 99.532864 
L 239.313876 110.978852 
L 239.469623 99.532864 
L 239.62537 117.439616 
L 240.248358 117.439616 
L 240.404105 124.516582 
L 240.559852 124.516582 
L 240.715599 132.339805 
L 240.871346 117.439616 
L 241.027093 110.978852 
L 241.104966 110.978852 
L 241.260713 105.035525 
L 241.494334 105.035525 
L 241.65008 99.532864 
L 242.662436 99.532864 
L 242.818183 105.035525 
L 243.051803 105.035525 
L 243.129677 110.978852 
L 243.285424 105.035525 
L 243.441171 110.978852 
L 244.687146 110.978852 
L 244.842893 117.439616 
L 245.154387 117.439616 
L 245.310134 124.516582 
L 245.621628 124.516582 
L 245.777375 132.339805 
L 246.088869 132.339805 
L 246.322489 117.439616 
L 247.179098 117.439616 
L 247.334845 110.978852 
L 248.191453 110.978852 
L 248.3472 117.439616 
L 249.593176 117.439616 
L 249.826796 132.339805 
L 250.216163 132.339805 
L 250.37191 124.516582 
L 250.994898 124.516582 
L 251.150645 162.446377 
L 251.773633 162.446377 
L 251.851507 175.984107 
L 252.007254 141.085424 
L 252.318747 141.085424 
L 252.474494 132.339805 
L 253.253229 132.339805 
L 253.408976 141.085424 
L 255.900928 141.085424 
L 256.056675 132.339805 
L 256.212422 132.339805 
L 256.368169 141.085424 
L 256.446042 141.085424 
L 256.601789 151.00039 
L 256.757536 151.00039 
L 256.913283 141.085424 
L 257.146903 141.085424 
L 257.30265 151.00039 
L 257.925638 151.00039 
L 258.081385 141.085424 
L 260.028222 141.085424 
L 260.183969 132.339805 
L 260.41759 132.339805 
L 260.573337 141.085424 
L 262.052933 141.085424 
L 262.286553 175.984107 
L 262.598047 175.984107 
L 262.753794 192.552949 
L 263.143161 192.552949 
L 263.298908 175.984107 
L 264.23339 175.984107 
L 264.389137 162.446377 
L 265.089998 162.446377 
L 265.323619 141.085424 
L 265.401492 141.085424 
L 265.557239 117.439616 
L 265.868733 117.439616 
L 266.02448 110.978852 
L 266.180227 117.439616 
L 266.491721 117.439616 
L 266.647468 110.978852 
L 266.958962 110.978852 
L 267.114709 117.439616 
L 267.504076 117.439616 
L 267.81557 99.532864 
L 268.204938 99.532864 
L 268.360685 105.035525 
L 269.061546 105.035525 
L 269.37304 89.617899 
L 269.762407 89.617899 
L 269.918154 80.87228 
L 270.307522 80.87228 
L 270.463269 85.116403 
L 270.696889 76.857683 
L 273.266714 76.857683 
L 273.422461 80.87228 
L 274.123322 80.87228 
L 274.279069 76.857683 
L 274.51269 76.857683 
L 274.668437 80.87228 
L 274.824184 80.87228 
L 274.979931 85.116403 
L 275.135678 85.116403 
L 275.291425 89.617899 
L 275.602919 89.617899 
L 275.680792 85.116403 
L 275.836539 99.532864 
L 276.070159 99.532864 
L 276.225906 105.035525 
L 276.381653 105.035525 
L 276.5374 94.41001 
L 276.771021 94.41001 
L 276.848894 99.532864 
L 277.004641 94.41001 
L 277.627629 94.41001 
L 277.783376 89.617899 
L 277.939123 94.41001 
L 278.32849 94.41001 
L 278.484237 89.617899 
L 278.795731 89.617899 
L 278.951478 99.532864 
L 279.107225 99.532864 
L 279.262972 94.41001 
L 279.418719 99.532864 
L 279.65234 99.532864 
L 279.808087 94.41001 
L 280.041707 94.41001 
L 280.197454 105.035525 
L 280.664695 105.035525 
L 280.742568 110.978852 
L 280.898315 105.035525 
L 281.054062 105.035525 
L 281.209809 99.532864 
L 282.611532 99.532864 
L 282.845152 89.617899 
L 283.312393 89.617899 
L 283.623887 76.857683 
L 284.013255 76.857683 
L 284.169002 73.049057 
L 284.324748 73.049057 
L 284.480495 76.857683 
L 284.947736 76.857683 
L 285.103483 73.049057 
L 285.414977 73.049057 
L 285.726471 62.671461 
L 285.804345 62.671461 
L 285.960092 65.97209 
L 286.349459 65.97209 
L 286.505206 73.049057 
L 286.660953 76.857683 
L 286.894573 76.857683 
L 287.05032 73.049057 
L 287.206067 73.049057 
L 287.361814 69.426292 
L 287.673308 69.426292 
L 287.906929 85.116403 
L 287.984802 85.116403 
L 288.062676 89.617899 
L 288.218423 85.116403 
L 289.152904 85.116403 
L 289.308651 80.87228 
L 289.386525 80.87228 
L 289.542272 85.116403 
L 289.931639 85.116403 
L 290.087386 89.617899 
L 291.021868 89.617899 
L 291.177615 94.41001 
L 291.333362 94.41001 
L 291.489109 105.035525 
L 292.735084 105.035525 
L 292.812958 99.532864 
L 292.968705 110.978852 
L 293.124452 117.439616 
L 293.591693 117.439616 
L 293.903187 141.085424 
L 294.759795 141.085424 
L 294.915542 132.339805 
L 295.382783 132.339805 
L 295.53853 141.085424 
L 295.77215 141.085424 
L 295.927897 151.00039 
L 296.862379 151.00039 
L 297.018126 132.339805 
L 297.173873 141.085424 
L 298.341975 141.085424 
L 298.497722 151.00039 
L 299.042837 151.00039 
L 299.198583 141.085424 
L 299.35433 141.085424 
L 299.510077 151.00039 
L 301.768408 151.00039 
L 301.924155 141.085424 
L 302.002029 141.085424 
L 302.313523 117.439616 
L 302.46927 117.439616 
L 302.625017 110.978852 
L 302.936511 110.978852 
L 303.092258 117.439616 
L 304.182486 117.439616 
L 304.338233 110.978852 
L 304.961221 110.978852 
L 305.116968 117.439616 
L 305.194842 117.439616 
L 305.428462 105.035525 
L 305.506336 105.035525 
L 305.662082 110.978852 
L 305.973576 110.978852 
L 306.129323 105.035525 
L 306.440817 105.035525 
L 306.596564 99.532864 
L 306.830185 99.532864 
L 306.985932 94.41001 
L 307.063805 94.41001 
L 307.297426 105.035525 
L 307.453173 105.035525 
L 307.531046 110.978852 
L 307.686793 105.035525 
L 308.543401 105.035525 
L 308.699148 99.532864 
L 308.854895 99.532864 
L 309.010642 105.035525 
L 309.244263 105.035525 
L 309.40001 110.978852 
L 310.256618 110.978852 
L 310.412365 117.439616 
L 311.969834 117.439616 
L 312.203455 132.339805 
L 312.359202 132.339805 
L 312.514949 162.446377 
L 312.98219 162.446377 
L 313.137937 175.984107 
L 313.21581 175.984107 
L 313.371557 162.446377 
L 314.228165 162.446377 
L 314.461786 192.552949 
L 315.0069 192.552949 
L 315.162647 175.984107 
L 316.175003 175.984107 
L 316.252876 162.446377 
L 316.408623 175.984107 
L 317.810346 175.984107 
L 317.966093 192.552949 
L 318.35546 192.552949 
L 318.511207 175.984107 
L 318.822701 175.984107 
L 318.978448 192.552949 
L 319.990803 192.552949 
L 320.14655 213.913902 
L 322.327008 213.913902 
L 322.482755 192.552949 
L 325.2862 192.552949 
L 325.441947 213.913902 
L 326.376429 213.913902 
L 326.532176 244.020475 
L 326.687923 244.020475 
L 326.84367 213.913902 
L 327.07729 213.913902 
L 327.233037 192.552949 
L 328.167519 192.552949 
L 328.323266 175.984107 
L 328.479013 175.984107 
L 328.556886 192.552949 
L 328.712633 175.984107 
L 329.179874 175.984107 
L 329.335621 162.446377 
L 329.880735 162.446377 
L 330.036482 175.984107 
L 330.815217 175.984107 
L 331.048838 151.00039 
L 331.282458 151.00039 
L 331.438205 141.085424 
L 332.294813 141.085424 
L 332.45056 124.516582 
L 332.606307 132.339805 
L 332.762054 132.339805 
L 332.917801 117.439616 
L 334.631018 117.439616 
L 334.786765 110.978852 
L 335.876993 110.978852 
L 336.110614 99.532864 
L 336.266361 99.532864 
L 336.422108 94.41001 
L 337.278716 94.41001 
L 337.35659 89.617899 
L 337.512337 94.41001 
L 337.59021 94.41001 
L 337.668083 89.617899 
L 337.82383 94.41001 
L 338.524692 94.41001 
L 338.758312 85.116403 
L 338.991933 94.41001 
L 339.069806 94.41001 
L 339.225553 89.617899 
L 339.537047 105.035525 
L 339.614921 105.035525 
L 339.770667 110.978852 
L 340.393655 110.978852 
L 340.549402 105.035525 
L 340.705149 105.035525 
L 340.860896 110.978852 
L 341.016643 110.978852 
L 341.17239 117.439616 
L 341.873251 117.439616 
L 342.106872 105.035525 
L 342.885607 105.035525 
L 343.041354 110.978852 
L 344.053709 110.978852 
L 344.209456 117.439616 
L 344.832444 117.439616 
L 344.988191 124.516582 
L 345.533305 124.516582 
L 345.689052 132.339805 
L 346.07842 132.339805 
L 346.234166 141.085424 
L 346.467787 141.085424 
L 346.623534 162.446377 
L 347.791636 162.446377 
L 347.947383 175.984107 
L 348.33675 175.984107 
L 348.492497 162.446377 
L 348.648244 162.446377 
L 348.803991 175.984107 
L 349.193359 175.984107 
L 349.349106 192.552949 
L 349.504853 192.552949 
L 349.6606 175.984107 
L 350.672955 175.984107 
L 350.828702 192.552949 
L 351.140196 192.552949 
L 351.295943 213.913902 
L 352.152551 213.913902 
L 352.308298 244.020475 
L 352.541918 244.020475 
L 352.775539 175.984107 
L 353.554274 175.984107 
L 353.710021 162.446377 
L 354.410882 162.446377 
L 354.566629 151.00039 
L 356.046225 151.00039 
L 356.201972 162.446377 
L 357.837315 162.446377 
L 357.993062 151.00039 
L 358.460303 151.00039 
L 358.61605 162.446377 
L 359.784152 162.446377 
L 359.939899 175.984107 
L 360.329267 175.984107 
L 360.485014 162.446377 
L 361.730989 162.446377 
L 361.886736 151.00039 
L 362.353977 151.00039 
L 362.509724 141.085424 
L 362.821218 141.085424 
L 362.899092 151.00039 
L 362.976965 175.984107 
L 363.132712 151.00039 
L 363.599953 151.00039 
L 363.7557 141.085424 
L 363.833573 141.085424 
L 363.98932 151.00039 
L 364.145067 141.085424 
L 364.378688 141.085424 
L 364.534435 132.339805 
L 366.014031 132.339805 
L 366.169778 124.516582 
L 367.493627 124.516582 
L 367.649374 117.439616 
L 367.882994 117.439616 
L 368.038741 124.516582 
L 368.194488 117.439616 
L 370.608566 117.439616 
L 370.764313 124.516582 
L 371.854542 124.516582 
L 372.010289 132.339805 
L 372.088162 132.339805 
L 372.243909 117.439616 
L 372.399656 110.978852 
L 372.47753 110.978852 
L 372.633277 99.532864 
L 372.789024 105.035525 
L 373.022644 105.035525 
L 373.334138 124.516582 
L 373.489885 117.439616 
L 373.567759 117.439616 
L 373.723506 110.978852 
L 374.112873 110.978852 
L 374.190746 105.035525 
L 374.346493 110.978852 
L 374.50224 105.035525 
L 374.580114 105.035525 
L 374.735861 110.978852 
L 374.813734 110.978852 
L 374.969481 105.035525 
L 375.748216 105.035525 
L 375.903963 99.532864 
L 376.371204 99.532864 
L 376.526951 94.41001 
L 376.838445 94.41001 
L 376.994192 89.617899 
L 378.084421 89.617899 
L 378.318041 80.87228 
L 378.395914 80.87228 
L 378.551661 76.857683 
L 378.863155 76.857683 
L 379.096776 69.426292 
L 379.174649 69.426292 
L 379.330396 65.97209 
L 379.486143 65.97209 
L 379.64189 62.671461 
L 379.875511 62.671461 
L 380.031258 59.511327 
L 380.809992 59.511327 
L 380.965739 56.480214 
L 381.43298 56.480214 
L 381.588727 53.568 
L 381.666601 53.568 
L 381.822348 56.480214 
L 381.978095 53.568 
L 382.367462 53.568 
L 382.523209 56.480214 
L 382.678956 56.480214 
L 382.834703 62.671461 
L 382.99045 59.511327 
L 383.22407 59.511327 
L 383.301944 56.480214 
L 383.457691 59.511327 
L 383.535564 59.511327 
L 383.691311 65.97209 
L 383.924932 65.97209 
L 384.080679 69.426292 
L 384.314299 69.426292 
L 384.547919 76.857683 
L 384.625793 76.857683 
L 384.703666 73.049057 
L 384.859413 76.857683 
L 384.937287 76.857683 
L 385.170907 85.116403 
L 385.871769 85.116403 
L 386.027516 89.617899 
L 386.33901 89.617899 
L 386.494757 94.41001 
L 386.650503 94.41001 
L 386.80625 99.532864 
L 387.039871 99.532864 
L 387.195618 105.035525 
L 387.662859 105.035525 
L 387.818606 99.532864 
L 388.052226 99.532864 
L 388.207973 94.41001 
L 388.285847 94.41001 
L 388.36372 99.532864 
L 388.519467 117.439616 
L 388.675214 117.439616 
L 388.830961 124.516582 
L 389.064581 124.516582 
L 389.220328 132.339805 
L 389.298202 132.339805 
L 389.453949 141.085424 
L 389.687569 141.085424 
L 389.92119 162.446377 
L 390.076937 162.446377 
L 390.232684 175.984107 
L 390.777798 175.984107 
L 390.933545 192.552949 
L 391.089292 192.552949 
L 391.245039 175.984107 
L 392.491015 175.984107 
L 392.646762 162.446377 
L 392.958256 162.446377 
L 393.114002 151.00039 
L 393.659117 151.00039 
L 393.814864 141.085424 
L 394.905093 141.085424 
L 395.138713 162.446377 
L 395.839574 162.446377 
L 395.995321 175.984107 
L 396.384689 175.984107 
L 396.540436 192.552949 
L 397.552791 192.552949 
L 397.708538 213.913902 
L 397.942158 213.913902 
L 398.097905 244.020475 
L 398.331526 244.020475 
L 398.487273 295.488 
L 398.487273 295.488 
" clip-path="url(#p92e2ba1dd7)" style="fill: none; stroke: #1f77b4; stroke-width: 1.5; stroke-linecap: square"/>
   </g>
   <g id="line2d_14">
    <path d="M 389.609696 307.584 
L 389.609696 41.472 
" clip-path="url(#p92e2ba1dd7)" style="fill: none; stroke-dasharray: 5.55,2.4; stroke-dashoffset: 0; stroke: #ff0000; stroke-width: 1.5"/>
   </g>
   <g id="line2d_15">
    <path d="M 397.552791 307.584 
L 397.552791 41.472 
" clip-path="url(#p92e2ba1dd7)" style="fill: none; stroke-dasharray: 5.55,2.4; stroke-dashoffset: 0; stroke: #ff0000; stroke-width: 1.5"/>
   </g>
   <g id="patch_3">
    <path d="M 57.6 307.584 
L 57.6 41.472 
" style="fill: none; stroke: #000000; stroke-width: 0.8; stroke-linejoin: miter; stroke-linecap: square"/>
   </g>
   <g id="patch_4">
    <path d="M 414.72 307.584 
L 414.72 41.472 
" style="fill: none; stroke: #000000; stroke-width: 0.8; stroke-linejoin: miter; stroke-linecap: square"/>
   </g>
   <g id="patch_5">
    <path d="M 57.6 307.584 
L 414.72 307.584 
" style="fill: none; stroke: #000000; stroke-width: 0.8; stroke-linejoin: miter; stroke-linecap: square"/>
   </g>
   <g id="patch_6">
    <path d="M 57.6 41.472 
L 414.72 41.472 
" style="fill: none; stroke: #000000; stroke-width: 0.8; stroke-linejoin: miter; stroke-linecap: square"/>
   </g>
   <g id="text_15">
    <!-- Scaffold 11136 -->
    <g transform="translate(191.009062 22.034625) scale(0.12 -0.12)">
     <defs>
      <path id="DejaVuSans-53" d="M 3425 4513 
L 3425 3897 
Q 3066 4069 2747 4153 
Q 2428 4238 2131 4238 
Q 1616 4238 1336 4038 
Q 1056 3838 1056 3469 
Q 1056 3159 1242 3001 
Q 1428 2844 1947 2747 
L 2328 2669 
Q 3034 2534 3370 2195 
Q 3706 1856 3706 1288 
Q 3706 609 3251 259 
Q 2797 -91 1919 -91 
Q 1588 -91 1214 -16 
Q 841 59 441 206 
L 441 856 
Q 825 641 1194 531 
Q 1563 422 1919 422 
Q 2459 422 2753 634 
Q 3047 847 3047 1241 
Q 3047 1584 2836 1778 
Q 2625 1972 2144 2069 
L 1759 2144 
Q 1053 2284 737 2584 
Q 422 2884 422 3419 
Q 422 4038 858 4394 
Q 1294 4750 2059 4750 
Q 2388 4750 2728 4690 
Q 3069 4631 3425 4513 
z
" transform="scale(0.015625)"/>
      <path id="DejaVuSans-63" d="M 3122 3366 
L 3122 2828 
Q 2878 2963 2633 3030 
Q 2388 3097 2138 3097 
Q 1578 3097 1268 2742 
Q 959 2388 959 1747 
Q 959 1106 1268 751 
Q 1578 397 2138 397 
Q 2388 397 2633 464 
Q 2878 531 3122 666 
L 3122 134 
Q 2881 22 2623 -34 
Q 2366 -91 2075 -91 
Q 1284 -91 818 406 
Q 353 903 353 1747 
Q 353 2603 823 3093 
Q 1294 3584 2113 3584 
Q 2378 3584 2631 3529 
Q 2884 3475 3122 3366 
z
" transform="scale(0.015625)"/>
      <path id="DejaVuSans-66" d="M 2375 4863 
L 2375 4384 
L 1825 4384 
Q 1516 4384 1395 4259 
Q 1275 4134 1275 3809 
L 1275 3500 
L 2222 3500 
L 2222 3053 
L 1275 3053 
L 1275 0 
L 697 0 
L 697 3053 
L 147 3053 
L 147 3500 
L 697 3500 
L 697 3744 
Q 697 4328 969 4595 
Q 1241 4863 1831 4863 
L 2375 4863 
z
" transform="scale(0.015625)"/>
      <path id="DejaVuSans-64" d="M 2906 2969 
L 2906 4863 
L 3481 4863 
L 3481 0 
L 2906 0 
L 2906 525 
Q 2725 213 2448 61 
Q 2172 -91 1784 -91 
Q 1150 -91 751 415 
Q 353 922 353 1747 
Q 353 2572 751 3078 
Q 1150 3584 1784 3584 
Q 2172 3584 2448 3432 
Q 2725 3281 2906 2969 
z
M 947 1747 
Q 947 1113 1208 752 
Q 1469 391 1925 391 
Q 2381 391 2643 752 
Q 2906 1113 2906 1747 
Q 2906 2381 2643 2742 
Q 2381 3103 1925 3103 
Q 1469 3103 1208 2742 
Q 947 2381 947 1747 
z
" transform="scale(0.015625)"/>
      <path id="DejaVuSans-36" d="M 2113 2584 
Q 1688 2584 1439 2293 
Q 1191 2003 1191 1497 
Q 1191 994 1439 701 
Q 1688 409 2113 409 
Q 2538 409 2786 701 
Q 3034 994 3034 1497 
Q 3034 2003 2786 2293 
Q 2538 2584 2113 2584 
z
M 3366 4563 
L 3366 3988 
Q 3128 4100 2886 4159 
Q 2644 4219 2406 4219 
Q 1781 4219 1451 3797 
Q 1122 3375 1075 2522 
Q 1259 2794 1537 2939 
Q 1816 3084 2150 3084 
Q 2853 3084 3261 2657 
Q 3669 2231 3669 1497 
Q 3669 778 3244 343 
Q 2819 -91 2113 -91 
Q 1303 -91 875 529 
Q 447 1150 447 2328 
Q 447 3434 972 4092 
Q 1497 4750 2381 4750 
Q 2619 4750 2861 4703 
Q 3103 4656 3366 4563 
z
" transform="scale(0.015625)"/>
     </defs>
     <use xlink:href="#DejaVuSans-53"/>
     <use xlink:href="#DejaVuSans-63" x="63.476562"/>
     <use xlink:href="#DejaVuSans-61" x="118.457031"/>
     <use xlink:href="#DejaVuSans-66" x="179.736328"/>
     <use xlink:href="#DejaVuSans-66" x="214.941406"/>
     <use xlink:href="#DejaVuSans-6f" x="250.146484"/>
     <use xlink:href="#DejaVuSans-6c" x="311.328125"/>
     <use xlink:href="#DejaVuSans-64" x="339.111328"/>
     <use xlink:href="#DejaVuSans-20" x="402.587891"/>
     <use xlink:href="#DejaVuSans-31" x="434.375"/>
     <use xlink:href="#DejaVuSans-31" x="497.998047"/>
     <use xlink:href="#DejaVuSans-31" x="561.621094"/>
     <use xlink:href="#DejaVuSans-33" x="625.244141"/>
     <use xlink:href="#DejaVuSans-36" x="688.867188"/>
    </g>
    <!--  Total coverage with Viral DNA reads: 100% -->
    <g transform="translate(105.744375 35.472) scale(0.12 -0.12)">
     <defs>
      <path id="DejaVuSans-54" d="M -19 4666 
L 3928 4666 
L 3928 4134 
L 2272 4134 
L 2272 0 
L 1638 0 
L 1638 4134 
L -19 4134 
L -19 4666 
z
" transform="scale(0.015625)"/>
      <path id="DejaVuSans-74" d="M 1172 4494 
L 1172 3500 
L 2356 3500 
L 2356 3053 
L 1172 3053 
L 1172 1153 
Q 1172 725 1289 603 
Q 1406 481 1766 481 
L 2356 481 
L 2356 0 
L 1766 0 
Q 1100 0 847 248 
Q 594 497 594 1153 
L 594 3053 
L 172 3053 
L 172 3500 
L 594 3500 
L 594 4494 
L 1172 4494 
z
" transform="scale(0.015625)"/>
      <path id="DejaVuSans-77" d="M 269 3500 
L 844 3500 
L 1563 769 
L 2278 3500 
L 2956 3500 
L 3675 769 
L 4391 3500 
L 4966 3500 
L 4050 0 
L 3372 0 
L 2619 2869 
L 1863 0 
L 1184 0 
L 269 3500 
z
" transform="scale(0.015625)"/>
      <path id="DejaVuSans-69" d="M 603 3500 
L 1178 3500 
L 1178 0 
L 603 0 
L 603 3500 
z
M 603 4863 
L 1178 4863 
L 1178 4134 
L 603 4134 
L 603 4863 
z
" transform="scale(0.015625)"/>
      <path id="DejaVuSans-68" d="M 3513 2113 
L 3513 0 
L 2938 0 
L 2938 2094 
Q 2938 2591 2744 2837 
Q 2550 3084 2163 3084 
Q 1697 3084 1428 2787 
Q 1159 2491 1159 1978 
L 1159 0 
L 581 0 
L 581 4863 
L 1159 4863 
L 1159 2956 
Q 1366 3272 1645 3428 
Q 1925 3584 2291 3584 
Q 2894 3584 3203 3211 
Q 3513 2838 3513 2113 
z
" transform="scale(0.015625)"/>
      <path id="DejaVuSans-56" d="M 1831 0 
L 50 4666 
L 709 4666 
L 2188 738 
L 3669 4666 
L 4325 4666 
L 2547 0 
L 1831 0 
z
" transform="scale(0.015625)"/>
      <path id="DejaVuSans-44" d="M 1259 4147 
L 1259 519 
L 2022 519 
Q 2988 519 3436 956 
Q 3884 1394 3884 2338 
Q 3884 3275 3436 3711 
Q 2988 4147 2022 4147 
L 1259 4147 
z
M 628 4666 
L 1925 4666 
Q 3281 4666 3915 4102 
Q 4550 3538 4550 2338 
Q 4550 1131 3912 565 
Q 3275 0 1925 0 
L 628 0 
L 628 4666 
z
" transform="scale(0.015625)"/>
      <path id="DejaVuSans-4e" d="M 628 4666 
L 1478 4666 
L 3547 763 
L 3547 4666 
L 4159 4666 
L 4159 0 
L 3309 0 
L 1241 3903 
L 1241 0 
L 628 0 
L 628 4666 
z
" transform="scale(0.015625)"/>
      <path id="DejaVuSans-41" d="M 2188 4044 
L 1331 1722 
L 3047 1722 
L 2188 4044 
z
M 1831 4666 
L 2547 4666 
L 4325 0 
L 3669 0 
L 3244 1197 
L 1141 1197 
L 716 0 
L 50 0 
L 1831 4666 
z
" transform="scale(0.015625)"/>
      <path id="DejaVuSans-3a" d="M 750 794 
L 1409 794 
L 1409 0 
L 750 0 
L 750 794 
z
M 750 3309 
L 1409 3309 
L 1409 2516 
L 750 2516 
L 750 3309 
z
" transform="scale(0.015625)"/>
      <path id="DejaVuSans-25" d="M 4653 2053 
Q 4381 2053 4226 1822 
Q 4072 1591 4072 1178 
Q 4072 772 4226 539 
Q 4381 306 4653 306 
Q 4919 306 5073 539 
Q 5228 772 5228 1178 
Q 5228 1588 5073 1820 
Q 4919 2053 4653 2053 
z
M 4653 2450 
Q 5147 2450 5437 2106 
Q 5728 1763 5728 1178 
Q 5728 594 5436 251 
Q 5144 -91 4653 -91 
Q 4153 -91 3862 251 
Q 3572 594 3572 1178 
Q 3572 1766 3864 2108 
Q 4156 2450 4653 2450 
z
M 1428 4353 
Q 1159 4353 1004 4120 
Q 850 3888 850 3481 
Q 850 3069 1003 2837 
Q 1156 2606 1428 2606 
Q 1700 2606 1854 2837 
Q 2009 3069 2009 3481 
Q 2009 3884 1853 4118 
Q 1697 4353 1428 4353 
z
M 4250 4750 
L 4750 4750 
L 1831 -91 
L 1331 -91 
L 4250 4750 
z
M 1428 4750 
Q 1922 4750 2215 4408 
Q 2509 4066 2509 3481 
Q 2509 2891 2217 2550 
Q 1925 2209 1428 2209 
Q 931 2209 642 2551 
Q 353 2894 353 3481 
Q 353 4063 643 4406 
Q 934 4750 1428 4750 
z
" transform="scale(0.015625)"/>
     </defs>
     <use xlink:href="#DejaVuSans-20"/>
     <use xlink:href="#DejaVuSans-54" x="31.787109"/>
     <use xlink:href="#DejaVuSans-6f" x="75.871094"/>
     <use xlink:href="#DejaVuSans-74" x="137.052734"/>
     <use xlink:href="#DejaVuSans-61" x="176.261719"/>
     <use xlink:href="#DejaVuSans-6c" x="237.541016"/>
     <use xlink:href="#DejaVuSans-20" x="265.324219"/>
     <use xlink:href="#DejaVuSans-63" x="297.111328"/>
     <use xlink:href="#DejaVuSans-6f" x="352.091797"/>
     <use xlink:href="#DejaVuSans-76" x="413.273438"/>
     <use xlink:href="#DejaVuSans-65" x="472.453125"/>
     <use xlink:href="#DejaVuSans-72" x="533.976562"/>
     <use xlink:href="#DejaVuSans-61" x="575.089844"/>
     <use xlink:href="#DejaVuSans-67" x="636.369141"/>
     <use xlink:href="#DejaVuSans-65" x="699.845703"/>
     <use xlink:href="#DejaVuSans-20" x="761.369141"/>
     <use xlink:href="#DejaVuSans-77" x="793.15625"/>
     <use xlink:href="#DejaVuSans-69" x="874.943359"/>
     <use xlink:href="#DejaVuSans-74" x="902.726562"/>
     <use xlink:href="#DejaVuSans-68" x="941.935547"/>
     <use xlink:href="#DejaVuSans-20" x="1005.314453"/>
     <use xlink:href="#DejaVuSans-56" x="1037.101562"/>
     <use xlink:href="#DejaVuSans-69" x="1103.259766"/>
     <use xlink:href="#DejaVuSans-72" x="1131.042969"/>
     <use xlink:href="#DejaVuSans-61" x="1172.15625"/>
     <use xlink:href="#DejaVuSans-6c" x="1233.435547"/>
     <use xlink:href="#DejaVuSans-20" x="1261.21875"/>
     <use xlink:href="#DejaVuSans-44" x="1293.005859"/>
     <use xlink:href="#DejaVuSans-4e" x="1370.007812"/>
     <use xlink:href="#DejaVuSans-41" x="1444.8125"/>
     <use xlink:href="#DejaVuSans-20" x="1513.220703"/>
     <use xlink:href="#DejaVuSans-72" x="1545.007812"/>
     <use xlink:href="#DejaVuSans-65" x="1583.871094"/>
     <use xlink:href="#DejaVuSans-61" x="1645.394531"/>
     <use xlink:href="#DejaVuSans-64" x="1706.673828"/>
     <use xlink:href="#DejaVuSans-73" x="1770.150391"/>
     <use xlink:href="#DejaVuSans-3a" x="1822.25"/>
     <use xlink:href="#DejaVuSans-20" x="1855.941406"/>
     <use xlink:href="#DejaVuSans-31" x="1887.728516"/>
     <use xlink:href="#DejaVuSans-30" x="1951.351562"/>
     <use xlink:href="#DejaVuSans-30" x="2014.974609"/>
     <use xlink:href="#DejaVuSans-25" x="2078.597656"/>
    </g>
   </g>
  </g>
 </g>
 <defs>
  <clipPath id="p92e2ba1dd7">
   <rect x="57.6" y="41.472" width="357.12" height="266.112"/>
  </clipPath>
 </defs>
</svg>
