<?xml version="1.0" encoding="utf-8" standalone="no"?>
<!DOCTYPE svg PUBLIC "-//W3C//DTD SVG 1.1//EN"
  "http://www.w3.org/Graphics/SVG/1.1/DTD/svg11.dtd">
<svg xmlns:xlink="http://www.w3.org/1999/xlink" width="460.8pt" height="345.6pt" viewBox="0 0 460.8 345.6" xmlns="http://www.w3.org/2000/svg" version="1.1">
 <metadata>
  <rdf:RDF xmlns:dc="http://purl.org/dc/elements/1.1/" xmlns:cc="http://creativecommons.org/ns#" xmlns:rdf="http://www.w3.org/1999/02/22-rdf-syntax-ns#">
   <cc:Work>
    <dc:type rdf:resource="http://purl.org/dc/dcmitype/StillImage"/>
    <dc:date>2024-09-18T15:31:40.742405</dc:date>
    <dc:format>image/svg+xml</dc:format>
    <dc:creator>
     <cc:Agent>
      <dc:title>Matplotlib v3.9.1.post1, https://matplotlib.org/</dc:title>
     </cc:Agent>
    </dc:creator>
   </cc:Work>
  </rdf:RDF>
 </metadata>
 <defs>
  <style type="text/css">*{stroke-linejoin: round; stroke-linecap: butt}</style>
 </defs>
 <g id="figure_1">
  <g id="patch_1">
   <path d="M 0 345.6 
L 460.8 345.6 
L 460.8 0 
L 0 0 
z
" style="fill: #ffffff"/>
  </g>
  <g id="axes_1">
   <g id="patch_2">
    <path d="M 57.6 307.584 
L 414.72 307.584 
L 414.72 41.472 
L 57.6 41.472 
z
" style="fill: #ffffff"/>
   </g>
   <g id="PolyCollection_1"/>
   <g id="matplotlib.axis_1">
    <g id="xtick_1">
     <g id="line2d_1">
      <defs>
       <path id="m0fb4856714" d="M 0 0 
L 0 3.5 
" style="stroke: #000000; stroke-width: 0.8"/>
      </defs>
      <g>
       <use xlink:href="#m0fb4856714" x="73.754854" y="307.584" style="stroke: #000000; stroke-width: 0.8"/>
      </g>
     </g>
     <g id="text_1">
      <!-- 0 -->
      <g transform="translate(70.573604 322.182437) scale(0.1 -0.1)">
       <defs>
        <path id="DejaVuSans-30" d="M 2034 4250 
Q 1547 4250 1301 3770 
Q 1056 3291 1056 2328 
Q 1056 1369 1301 889 
Q 1547 409 2034 409 
Q 2525 409 2770 889 
Q 3016 1369 3016 2328 
Q 3016 3291 2770 3770 
Q 2525 4250 2034 4250 
z
M 2034 4750 
Q 2819 4750 3233 4129 
Q 3647 3509 3647 2328 
Q 3647 1150 3233 529 
Q 2819 -91 2034 -91 
Q 1250 -91 836 529 
Q 422 1150 422 2328 
Q 422 3509 836 4129 
Q 1250 4750 2034 4750 
z
" transform="scale(0.015625)"/>
       </defs>
       <use xlink:href="#DejaVuSans-30"/>
      </g>
     </g>
    </g>
    <g id="xtick_2">
     <g id="line2d_2">
      <g>
       <use xlink:href="#m0fb4856714" x="151.628336" y="307.584" style="stroke: #000000; stroke-width: 0.8"/>
      </g>
     </g>
     <g id="text_2">
      <!-- 1000 -->
      <g transform="translate(138.903336 322.182437) scale(0.1 -0.1)">
       <defs>
        <path id="DejaVuSans-31" d="M 794 531 
L 1825 531 
L 1825 4091 
L 703 3866 
L 703 4441 
L 1819 4666 
L 2450 4666 
L 2450 531 
L 3481 531 
L 3481 0 
L 794 0 
L 794 531 
z
" transform="scale(0.015625)"/>
       </defs>
       <use xlink:href="#DejaVuSans-31"/>
       <use xlink:href="#DejaVuSans-30" x="63.623047"/>
       <use xlink:href="#DejaVuSans-30" x="127.246094"/>
       <use xlink:href="#DejaVuSans-30" x="190.869141"/>
      </g>
     </g>
    </g>
    <g id="xtick_3">
     <g id="line2d_3">
      <g>
       <use xlink:href="#m0fb4856714" x="229.501817" y="307.584" style="stroke: #000000; stroke-width: 0.8"/>
      </g>
     </g>
     <g id="text_3">
      <!-- 2000 -->
      <g transform="translate(216.776817 322.182437) scale(0.1 -0.1)">
       <defs>
        <path id="DejaVuSans-32" d="M 1228 531 
L 3431 531 
L 3431 0 
L 469 0 
L 469 531 
Q 828 903 1448 1529 
Q 2069 2156 2228 2338 
Q 2531 2678 2651 2914 
Q 2772 3150 2772 3378 
Q 2772 3750 2511 3984 
Q 2250 4219 1831 4219 
Q 1534 4219 1204 4116 
Q 875 4013 500 3803 
L 500 4441 
Q 881 4594 1212 4672 
Q 1544 4750 1819 4750 
Q 2544 4750 2975 4387 
Q 3406 4025 3406 3419 
Q 3406 3131 3298 2873 
Q 3191 2616 2906 2266 
Q 2828 2175 2409 1742 
Q 1991 1309 1228 531 
z
" transform="scale(0.015625)"/>
       </defs>
       <use xlink:href="#DejaVuSans-32"/>
       <use xlink:href="#DejaVuSans-30" x="63.623047"/>
       <use xlink:href="#DejaVuSans-30" x="127.246094"/>
       <use xlink:href="#DejaVuSans-30" x="190.869141"/>
      </g>
     </g>
    </g>
    <g id="xtick_4">
     <g id="line2d_4">
      <g>
       <use xlink:href="#m0fb4856714" x="307.375299" y="307.584" style="stroke: #000000; stroke-width: 0.8"/>
      </g>
     </g>
     <g id="text_4">
      <!-- 3000 -->
      <g transform="translate(294.650299 322.182437) scale(0.1 -0.1)">
       <defs>
        <path id="DejaVuSans-33" d="M 2597 2516 
Q 3050 2419 3304 2112 
Q 3559 1806 3559 1356 
Q 3559 666 3084 287 
Q 2609 -91 1734 -91 
Q 1441 -91 1130 -33 
Q 819 25 488 141 
L 488 750 
Q 750 597 1062 519 
Q 1375 441 1716 441 
Q 2309 441 2620 675 
Q 2931 909 2931 1356 
Q 2931 1769 2642 2001 
Q 2353 2234 1838 2234 
L 1294 2234 
L 1294 2753 
L 1863 2753 
Q 2328 2753 2575 2939 
Q 2822 3125 2822 3475 
Q 2822 3834 2567 4026 
Q 2313 4219 1838 4219 
Q 1578 4219 1281 4162 
Q 984 4106 628 3988 
L 628 4550 
Q 988 4650 1302 4700 
Q 1616 4750 1894 4750 
Q 2613 4750 3031 4423 
Q 3450 4097 3450 3541 
Q 3450 3153 3228 2886 
Q 3006 2619 2597 2516 
z
" transform="scale(0.015625)"/>
       </defs>
       <use xlink:href="#DejaVuSans-33"/>
       <use xlink:href="#DejaVuSans-30" x="63.623047"/>
       <use xlink:href="#DejaVuSans-30" x="127.246094"/>
       <use xlink:href="#DejaVuSans-30" x="190.869141"/>
      </g>
     </g>
    </g>
    <g id="xtick_5">
     <g id="line2d_5">
      <g>
       <use xlink:href="#m0fb4856714" x="385.248781" y="307.584" style="stroke: #000000; stroke-width: 0.8"/>
      </g>
     </g>
     <g id="text_5">
      <!-- 4000 -->
      <g transform="translate(372.523781 322.182437) scale(0.1 -0.1)">
       <defs>
        <path id="DejaVuSans-34" d="M 2419 4116 
L 825 1625 
L 2419 1625 
L 2419 4116 
z
M 2253 4666 
L 3047 4666 
L 3047 1625 
L 3713 1625 
L 3713 1100 
L 3047 1100 
L 3047 0 
L 2419 0 
L 2419 1100 
L 313 1100 
L 313 1709 
L 2253 4666 
z
" transform="scale(0.015625)"/>
       </defs>
       <use xlink:href="#DejaVuSans-34"/>
       <use xlink:href="#DejaVuSans-30" x="63.623047"/>
       <use xlink:href="#DejaVuSans-30" x="127.246094"/>
       <use xlink:href="#DejaVuSans-30" x="190.869141"/>
      </g>
     </g>
    </g>
    <g id="text_6">
     <!-- Base -->
     <g transform="translate(223.984219 335.860562) scale(0.1 -0.1)">
      <defs>
       <path id="DejaVuSans-42" d="M 1259 2228 
L 1259 519 
L 2272 519 
Q 2781 519 3026 730 
Q 3272 941 3272 1375 
Q 3272 1813 3026 2020 
Q 2781 2228 2272 2228 
L 1259 2228 
z
M 1259 4147 
L 1259 2741 
L 2194 2741 
Q 2656 2741 2882 2914 
Q 3109 3088 3109 3444 
Q 3109 3797 2882 3972 
Q 2656 4147 2194 4147 
L 1259 4147 
z
M 628 4666 
L 2241 4666 
Q 2963 4666 3353 4366 
Q 3744 4066 3744 3513 
Q 3744 3084 3544 2831 
Q 3344 2578 2956 2516 
Q 3422 2416 3680 2098 
Q 3938 1781 3938 1306 
Q 3938 681 3513 340 
Q 3088 0 2303 0 
L 628 0 
L 628 4666 
z
" transform="scale(0.015625)"/>
       <path id="DejaVuSans-61" d="M 2194 1759 
Q 1497 1759 1228 1600 
Q 959 1441 959 1056 
Q 959 750 1161 570 
Q 1363 391 1709 391 
Q 2188 391 2477 730 
Q 2766 1069 2766 1631 
L 2766 1759 
L 2194 1759 
z
M 3341 1997 
L 3341 0 
L 2766 0 
L 2766 531 
Q 2569 213 2275 61 
Q 1981 -91 1556 -91 
Q 1019 -91 701 211 
Q 384 513 384 1019 
Q 384 1609 779 1909 
Q 1175 2209 1959 2209 
L 2766 2209 
L 2766 2266 
Q 2766 2663 2505 2880 
Q 2244 3097 1772 3097 
Q 1472 3097 1187 3025 
Q 903 2953 641 2809 
L 641 3341 
Q 956 3463 1253 3523 
Q 1550 3584 1831 3584 
Q 2591 3584 2966 3190 
Q 3341 2797 3341 1997 
z
" transform="scale(0.015625)"/>
       <path id="DejaVuSans-73" d="M 2834 3397 
L 2834 2853 
Q 2591 2978 2328 3040 
Q 2066 3103 1784 3103 
Q 1356 3103 1142 2972 
Q 928 2841 928 2578 
Q 928 2378 1081 2264 
Q 1234 2150 1697 2047 
L 1894 2003 
Q 2506 1872 2764 1633 
Q 3022 1394 3022 966 
Q 3022 478 2636 193 
Q 2250 -91 1575 -91 
Q 1294 -91 989 -36 
Q 684 19 347 128 
L 347 722 
Q 666 556 975 473 
Q 1284 391 1588 391 
Q 1994 391 2212 530 
Q 2431 669 2431 922 
Q 2431 1156 2273 1281 
Q 2116 1406 1581 1522 
L 1381 1569 
Q 847 1681 609 1914 
Q 372 2147 372 2553 
Q 372 3047 722 3315 
Q 1072 3584 1716 3584 
Q 2034 3584 2315 3537 
Q 2597 3491 2834 3397 
z
" transform="scale(0.015625)"/>
       <path id="DejaVuSans-65" d="M 3597 1894 
L 3597 1613 
L 953 1613 
Q 991 1019 1311 708 
Q 1631 397 2203 397 
Q 2534 397 2845 478 
Q 3156 559 3463 722 
L 3463 178 
Q 3153 47 2828 -22 
Q 2503 -91 2169 -91 
Q 1331 -91 842 396 
Q 353 884 353 1716 
Q 353 2575 817 3079 
Q 1281 3584 2069 3584 
Q 2775 3584 3186 3129 
Q 3597 2675 3597 1894 
z
M 3022 2063 
Q 3016 2534 2758 2815 
Q 2500 3097 2075 3097 
Q 1594 3097 1305 2825 
Q 1016 2553 972 2059 
L 3022 2063 
z
" transform="scale(0.015625)"/>
      </defs>
      <use xlink:href="#DejaVuSans-42"/>
      <use xlink:href="#DejaVuSans-61" x="68.603516"/>
      <use xlink:href="#DejaVuSans-73" x="129.882812"/>
      <use xlink:href="#DejaVuSans-65" x="181.982422"/>
     </g>
    </g>
   </g>
   <g id="matplotlib.axis_2">
    <g id="ytick_1">
     <g id="line2d_6">
      <defs>
       <path id="mf6046435a9" d="M 0 0 
L -3.5 0 
" style="stroke: #000000; stroke-width: 0.8"/>
      </defs>
      <g>
       <use xlink:href="#mf6046435a9" x="57.6" y="305.1648" style="stroke: #000000; stroke-width: 0.8"/>
      </g>
     </g>
     <g id="text_7">
      <!-- 0 -->
      <g transform="translate(44.2375 308.964019) scale(0.1 -0.1)">
       <use xlink:href="#DejaVuSans-30"/>
      </g>
     </g>
    </g>
    <g id="ytick_2">
     <g id="line2d_7">
      <g>
       <use xlink:href="#mf6046435a9" x="57.6" y="256.7808" style="stroke: #000000; stroke-width: 0.8"/>
      </g>
     </g>
     <g id="text_8">
      <!-- 5 -->
      <g transform="translate(44.2375 260.580019) scale(0.1 -0.1)">
       <defs>
        <path id="DejaVuSans-35" d="M 691 4666 
L 3169 4666 
L 3169 4134 
L 1269 4134 
L 1269 2991 
Q 1406 3038 1543 3061 
Q 1681 3084 1819 3084 
Q 2600 3084 3056 2656 
Q 3513 2228 3513 1497 
Q 3513 744 3044 326 
Q 2575 -91 1722 -91 
Q 1428 -91 1123 -41 
Q 819 9 494 109 
L 494 744 
Q 775 591 1075 516 
Q 1375 441 1709 441 
Q 2250 441 2565 725 
Q 2881 1009 2881 1497 
Q 2881 1984 2565 2268 
Q 2250 2553 1709 2553 
Q 1456 2553 1204 2497 
Q 953 2441 691 2322 
L 691 4666 
z
" transform="scale(0.015625)"/>
       </defs>
       <use xlink:href="#DejaVuSans-35"/>
      </g>
     </g>
    </g>
    <g id="ytick_3">
     <g id="line2d_8">
      <g>
       <use xlink:href="#mf6046435a9" x="57.6" y="208.3968" style="stroke: #000000; stroke-width: 0.8"/>
      </g>
     </g>
     <g id="text_9">
      <!-- 10 -->
      <g transform="translate(37.875 212.196019) scale(0.1 -0.1)">
       <use xlink:href="#DejaVuSans-31"/>
       <use xlink:href="#DejaVuSans-30" x="63.623047"/>
      </g>
     </g>
    </g>
    <g id="ytick_4">
     <g id="line2d_9">
      <g>
       <use xlink:href="#mf6046435a9" x="57.6" y="160.0128" style="stroke: #000000; stroke-width: 0.8"/>
      </g>
     </g>
     <g id="text_10">
      <!-- 15 -->
      <g transform="translate(37.875 163.812019) scale(0.1 -0.1)">
       <use xlink:href="#DejaVuSans-31"/>
       <use xlink:href="#DejaVuSans-35" x="63.623047"/>
      </g>
     </g>
    </g>
    <g id="ytick_5">
     <g id="line2d_10">
      <g>
       <use xlink:href="#mf6046435a9" x="57.6" y="111.6288" style="stroke: #000000; stroke-width: 0.8"/>
      </g>
     </g>
     <g id="text_11">
      <!-- 20 -->
      <g transform="translate(37.875 115.428019) scale(0.1 -0.1)">
       <use xlink:href="#DejaVuSans-32"/>
       <use xlink:href="#DejaVuSans-30" x="63.623047"/>
      </g>
     </g>
    </g>
    <g id="ytick_6">
     <g id="line2d_11">
      <g>
       <use xlink:href="#mf6046435a9" x="57.6" y="63.2448" style="stroke: #000000; stroke-width: 0.8"/>
      </g>
     </g>
     <g id="text_12">
      <!-- 25 -->
      <g transform="translate(37.875 67.044019) scale(0.1 -0.1)">
       <use xlink:href="#DejaVuSans-32"/>
       <use xlink:href="#DejaVuSans-35" x="63.623047"/>
      </g>
     </g>
    </g>
    <g id="text_13">
     <!-- Coverage -->
     <g transform="translate(31.795312 198.485031) rotate(-90) scale(0.1 -0.1)">
      <defs>
       <path id="DejaVuSans-43" d="M 4122 4306 
L 4122 3641 
Q 3803 3938 3442 4084 
Q 3081 4231 2675 4231 
Q 1875 4231 1450 3742 
Q 1025 3253 1025 2328 
Q 1025 1406 1450 917 
Q 1875 428 2675 428 
Q 3081 428 3442 575 
Q 3803 722 4122 1019 
L 4122 359 
Q 3791 134 3420 21 
Q 3050 -91 2638 -91 
Q 1578 -91 968 557 
Q 359 1206 359 2328 
Q 359 3453 968 4101 
Q 1578 4750 2638 4750 
Q 3056 4750 3426 4639 
Q 3797 4528 4122 4306 
z
" transform="scale(0.015625)"/>
       <path id="DejaVuSans-6f" d="M 1959 3097 
Q 1497 3097 1228 2736 
Q 959 2375 959 1747 
Q 959 1119 1226 758 
Q 1494 397 1959 397 
Q 2419 397 2687 759 
Q 2956 1122 2956 1747 
Q 2956 2369 2687 2733 
Q 2419 3097 1959 3097 
z
M 1959 3584 
Q 2709 3584 3137 3096 
Q 3566 2609 3566 1747 
Q 3566 888 3137 398 
Q 2709 -91 1959 -91 
Q 1206 -91 779 398 
Q 353 888 353 1747 
Q 353 2609 779 3096 
Q 1206 3584 1959 3584 
z
" transform="scale(0.015625)"/>
       <path id="DejaVuSans-76" d="M 191 3500 
L 800 3500 
L 1894 563 
L 2988 3500 
L 3597 3500 
L 2284 0 
L 1503 0 
L 191 3500 
z
" transform="scale(0.015625)"/>
       <path id="DejaVuSans-72" d="M 2631 2963 
Q 2534 3019 2420 3045 
Q 2306 3072 2169 3072 
Q 1681 3072 1420 2755 
Q 1159 2438 1159 1844 
L 1159 0 
L 581 0 
L 581 3500 
L 1159 3500 
L 1159 2956 
Q 1341 3275 1631 3429 
Q 1922 3584 2338 3584 
Q 2397 3584 2469 3576 
Q 2541 3569 2628 3553 
L 2631 2963 
z
" transform="scale(0.015625)"/>
       <path id="DejaVuSans-67" d="M 2906 1791 
Q 2906 2416 2648 2759 
Q 2391 3103 1925 3103 
Q 1463 3103 1205 2759 
Q 947 2416 947 1791 
Q 947 1169 1205 825 
Q 1463 481 1925 481 
Q 2391 481 2648 825 
Q 2906 1169 2906 1791 
z
M 3481 434 
Q 3481 -459 3084 -895 
Q 2688 -1331 1869 -1331 
Q 1566 -1331 1297 -1286 
Q 1028 -1241 775 -1147 
L 775 -588 
Q 1028 -725 1275 -790 
Q 1522 -856 1778 -856 
Q 2344 -856 2625 -561 
Q 2906 -266 2906 331 
L 2906 616 
Q 2728 306 2450 153 
Q 2172 0 1784 0 
Q 1141 0 747 490 
Q 353 981 353 1791 
Q 353 2603 747 3093 
Q 1141 3584 1784 3584 
Q 2172 3584 2450 3431 
Q 2728 3278 2906 2969 
L 2906 3500 
L 3481 3500 
L 3481 434 
z
" transform="scale(0.015625)"/>
      </defs>
      <use xlink:href="#DejaVuSans-43"/>
      <use xlink:href="#DejaVuSans-6f" x="69.824219"/>
      <use xlink:href="#DejaVuSans-76" x="131.005859"/>
      <use xlink:href="#DejaVuSans-65" x="190.185547"/>
      <use xlink:href="#DejaVuSans-72" x="251.708984"/>
      <use xlink:href="#DejaVuSans-61" x="292.822266"/>
      <use xlink:href="#DejaVuSans-67" x="354.101562"/>
      <use xlink:href="#DejaVuSans-65" x="417.578125"/>
     </g>
    </g>
   </g>
   <g id="line2d_12">
    <path d="M 73.832727 295.488 
L 73.910601 295.488 
L 74.066348 285.8112 
L 74.845083 285.8112 
L 75.000829 276.1344 
L 78.271516 276.1344 
L 78.427263 266.4576 
L 81.308582 266.4576 
L 81.464328 256.7808 
L 84.034153 256.7808 
L 84.1899 266.4576 
L 85.046509 266.4576 
L 85.202256 276.1344 
L 86.136737 276.1344 
L 86.292484 266.4576 
L 87.149093 266.4576 
L 87.30484 256.7808 
L 87.460587 256.7808 
L 87.616334 247.104 
L 87.772081 256.7808 
L 88.395068 256.7808 
L 88.550815 266.4576 
L 90.497652 266.4576 
L 90.653399 256.7808 
L 91.510008 256.7808 
L 91.665755 266.4576 
L 93.924086 266.4576 
L 94.079833 256.7808 
L 96.26029 256.7808 
L 96.338164 247.104 
L 96.49391 256.7808 
L 97.116898 256.7808 
L 97.272645 266.4576 
L 97.584139 266.4576 
L 97.739886 276.1344 
L 99.453103 276.1344 
L 99.60885 266.4576 
L 100.465458 266.4576 
L 100.621205 256.7808 
L 100.776952 256.7808 
L 100.932699 266.4576 
L 101.945054 266.4576 
L 102.100801 256.7808 
L 104.203385 256.7808 
L 104.359132 266.4576 
L 109.498782 266.4576 
L 109.732402 285.8112 
L 110.12177 285.8112 
L 110.277517 276.1344 
L 110.511137 276.1344 
L 110.666884 266.4576 
L 110.900505 266.4576 
L 111.056252 276.1344 
L 111.757113 276.1344 
L 111.91286 256.7808 
L 112.302227 256.7808 
L 112.457974 247.104 
L 113.626076 247.104 
L 113.859697 227.7504 
L 114.638432 227.7504 
L 114.794179 218.0736 
L 115.027799 218.0736 
L 115.183546 208.3968 
L 115.417167 208.3968 
L 115.572913 218.0736 
L 116.507395 218.0736 
L 116.663142 227.7504 
L 116.818889 218.0736 
L 116.974636 227.7504 
L 117.675498 227.7504 
L 117.831244 218.0736 
L 118.142738 218.0736 
L 118.298485 208.3968 
L 118.999347 208.3968 
L 119.155094 198.72 
L 119.544461 198.72 
L 119.700208 189.0432 
L 119.778082 189.0432 
L 120.011702 169.6896 
L 120.323196 169.6896 
L 120.556816 189.0432 
L 120.63469 189.0432 
L 120.790437 179.3664 
L 121.101931 179.3664 
L 121.335551 198.72 
L 121.413425 198.72 
L 121.569172 208.3968 
L 121.802792 208.3968 
L 122.036412 227.7504 
L 122.114286 227.7504 
L 122.270033 218.0736 
L 122.581527 218.0736 
L 122.737274 189.0432 
L 124.21687 189.0432 
L 124.372617 179.3664 
L 124.761984 179.3664 
L 124.917731 169.6896 
L 125.073478 179.3664 
L 126.319454 179.3664 
L 126.475201 189.0432 
L 126.630948 189.0432 
L 126.786695 198.72 
L 127.331809 198.72 
L 127.409683 208.3968 
L 127.56543 198.72 
L 127.721177 198.72 
L 127.876924 208.3968 
L 128.422038 208.3968 
L 128.499911 218.0736 
L 128.655658 208.3968 
L 128.733532 208.3968 
L 128.889279 198.72 
L 129.045026 198.72 
L 129.200773 179.3664 
L 129.278646 179.3664 
L 129.434393 189.0432 
L 129.668014 189.0432 
L 129.823761 179.3664 
L 129.901634 179.3664 
L 130.057381 160.0128 
L 130.213128 169.6896 
L 132.627206 169.6896 
L 132.782953 179.3664 
L 133.016573 179.3664 
L 133.17232 189.0432 
L 133.483814 189.0432 
L 133.639561 179.3664 
L 134.262549 179.3664 
L 134.418296 169.6896 
L 134.574043 179.3664 
L 134.807663 179.3664 
L 134.96341 189.0432 
L 135.430651 189.0432 
L 135.586398 179.3664 
L 136.443007 179.3664 
L 136.598754 169.6896 
L 137.455362 169.6896 
L 137.611109 179.3664 
L 138.156223 179.3664 
L 138.31197 189.0432 
L 138.779211 189.0432 
L 139.090705 218.0736 
L 139.324325 218.0736 
L 139.480072 227.7504 
L 139.635819 227.7504 
L 139.791566 237.4272 
L 139.947313 237.4272 
L 140.180934 256.7808 
L 140.258807 256.7808 
L 140.414554 247.104 
L 141.738403 247.104 
L 141.89415 227.7504 
L 142.049897 227.7504 
L 142.205644 218.0736 
L 143.062253 218.0736 
L 143.218 227.7504 
L 144.541849 227.7504 
L 144.697596 237.4272 
L 145.24271 237.4272 
L 145.398457 247.104 
L 145.709951 247.104 
L 145.865698 256.7808 
L 146.099318 256.7808 
L 146.255065 266.4576 
L 146.644433 266.4576 
L 146.80018 276.1344 
L 148.59127 276.1344 
L 148.747017 266.4576 
L 148.82489 266.4576 
L 148.980637 247.104 
L 150.148739 247.104 
L 150.38236 227.7504 
L 151.939829 227.7504 
L 152.095576 237.4272 
L 152.251323 227.7504 
L 152.329197 227.7504 
L 152.484944 237.4272 
L 153.653046 237.4272 
L 153.808793 247.104 
L 153.96454 237.4272 
L 154.276034 237.4272 
L 154.431781 218.0736 
L 155.677757 218.0736 
L 155.833504 227.7504 
L 156.456491 227.7504 
L 156.612238 237.4272 
L 157.079479 237.4272 
L 157.235226 247.104 
L 157.390973 237.4272 
L 157.624594 237.4272 
L 157.780341 227.7504 
L 158.792696 227.7504 
L 158.948443 237.4272 
L 160.194419 237.4272 
L 160.350166 227.7504 
L 160.661659 227.7504 
L 160.817406 218.0736 
L 161.284647 218.0736 
L 161.440394 208.3968 
L 161.596141 208.3968 
L 161.829762 189.0432 
L 161.985509 189.0432 
L 162.063382 198.72 
L 162.219129 189.0432 
L 162.608496 189.0432 
L 162.764243 179.3664 
L 164.088093 179.3664 
L 164.24384 189.0432 
L 164.399587 189.0432 
L 164.555334 198.72 
L 164.944701 198.72 
L 165.178321 179.3664 
L 165.256195 179.3664 
L 165.411942 189.0432 
L 166.26855 189.0432 
L 166.424297 179.3664 
L 166.580044 179.3664 
L 166.735791 169.6896 
L 167.436652 169.6896 
L 167.592399 179.3664 
L 167.670273 179.3664 
L 167.82602 189.0432 
L 168.526881 189.0432 
L 168.682628 179.3664 
L 168.838375 179.3664 
L 169.227742 140.6592 
L 170.084351 140.6592 
L 170.240098 130.9824 
L 170.473718 130.9824 
L 170.629465 140.6592 
L 170.785212 140.6592 
L 170.940959 130.9824 
L 171.096706 140.6592 
L 171.563947 140.6592 
L 171.719694 150.336 
L 171.875441 150.336 
L 172.109061 169.6896 
L 172.342682 169.6896 
L 172.498429 179.3664 
L 172.732049 179.3664 
L 172.96567 198.72 
L 173.666531 198.72 
L 173.822278 189.0432 
L 174.133772 189.0432 
L 174.289519 198.72 
L 174.834633 198.72 
L 174.99038 208.3968 
L 175.224001 179.3664 
L 175.379747 189.0432 
L 175.691241 189.0432 
L 175.846988 179.3664 
L 176.54785 179.3664 
L 176.703597 189.0432 
L 177.482331 189.0432 
L 177.638078 198.72 
L 178.728307 198.72 
L 179.039801 227.7504 
L 179.117675 227.7504 
L 179.429169 256.7808 
L 179.818536 256.7808 
L 179.974283 247.104 
L 180.285777 247.104 
L 180.441524 256.7808 
L 180.986638 256.7808 
L 181.142385 266.4576 
L 182.076867 266.4576 
L 182.232614 256.7808 
L 185.113933 256.7808 
L 185.191806 266.4576 
L 185.347553 256.7808 
L 185.5033 266.4576 
L 185.970541 266.4576 
L 186.126288 276.1344 
L 187.06077 276.1344 
L 187.216517 266.4576 
L 187.29439 266.4576 
L 187.450137 256.7808 
L 188.228872 256.7808 
L 188.384619 247.104 
L 190.097836 247.104 
L 190.253583 256.7808 
L 190.565076 256.7808 
L 190.720823 247.104 
L 191.188064 247.104 
L 191.343811 237.4272 
L 192.356167 237.4272 
L 192.511913 247.104 
L 193.835763 247.104 
L 193.99151 237.4272 
L 195.471106 237.4272 
L 195.626853 247.104 
L 195.704726 247.104 
L 195.860473 237.4272 
L 197.262196 237.4272 
L 197.417943 256.7808 
L 197.57369 247.104 
L 197.80731 247.104 
L 197.963057 227.7504 
L 198.508172 227.7504 
L 198.663919 237.4272 
L 199.286906 237.4272 
L 199.442653 227.7504 
L 199.5984 227.7504 
L 199.754147 208.3968 
L 201.38949 208.3968 
L 201.545237 218.0736 
L 201.700984 218.0736 
L 201.934605 198.72 
L 203.258454 198.72 
L 203.414201 208.3968 
L 203.569948 198.72 
L 203.803568 198.72 
L 204.037189 179.3664 
L 204.115062 179.3664 
L 204.270809 189.0432 
L 204.893797 189.0432 
L 205.127418 169.6896 
L 205.361038 169.6896 
L 205.516785 160.0128 
L 205.984026 160.0128 
L 206.139773 150.336 
L 206.29552 150.336 
L 206.451267 140.6592 
L 206.52914 140.6592 
L 206.684887 150.336 
L 207.074255 150.336 
L 207.230002 160.0128 
L 207.619369 160.0128 
L 207.775116 150.336 
L 208.08661 150.336 
L 208.164483 169.6896 
L 208.32023 150.336 
L 208.553851 150.336 
L 208.709598 160.0128 
L 209.721953 160.0128 
L 209.8777 169.6896 
L 210.422814 169.6896 
L 210.578561 179.3664 
L 211.980284 179.3664 
L 212.136031 198.72 
L 212.291778 189.0432 
L 212.525398 189.0432 
L 212.681145 179.3664 
L 213.45988 179.3664 
L 213.615627 189.0432 
L 213.693501 189.0432 
L 213.771374 198.72 
L 213.927121 189.0432 
L 214.160741 189.0432 
L 214.316488 179.3664 
L 215.328844 179.3664 
L 215.562464 198.72 
L 216.185452 198.72 
L 216.341199 218.0736 
L 216.496946 208.3968 
L 216.80844 208.3968 
L 216.964187 198.72 
L 217.820795 198.72 
L 217.976542 218.0736 
L 218.288036 218.0736 
L 218.443783 198.72 
L 218.911024 198.72 
L 219.066771 189.0432 
L 220.079126 189.0432 
L 220.234873 198.72 
L 220.312746 198.72 
L 220.468493 189.0432 
L 221.792343 189.0432 
L 221.94809 179.3664 
L 222.41533 179.3664 
L 222.571077 189.0432 
L 222.804698 189.0432 
L 222.960445 218.0736 
L 223.116192 227.7504 
L 224.050674 227.7504 
L 224.284294 247.104 
L 224.440041 247.104 
L 224.595788 276.1344 
L 224.751535 276.1344 
L 224.907282 266.4576 
L 225.452396 266.4576 
L 225.608143 256.7808 
L 225.997511 256.7808 
L 226.153258 237.4272 
L 226.620498 237.4272 
L 226.776245 247.104 
L 228.333715 247.104 
L 228.489462 256.7808 
L 228.878829 256.7808 
L 229.034576 237.4272 
L 229.11245 237.4272 
L 229.268197 247.104 
L 229.579691 247.104 
L 229.891185 218.0736 
L 229.969058 218.0736 
L 230.124805 208.3968 
L 230.358426 208.3968 
L 230.514173 198.72 
L 231.915895 198.72 
L 232.071642 189.0432 
L 232.46101 189.0432 
L 232.616757 179.3664 
L 232.772504 179.3664 
L 232.928251 169.6896 
L 233.161871 169.6896 
L 233.395491 150.336 
L 234.48572 150.336 
L 234.641467 140.6592 
L 235.342328 140.6592 
L 235.498075 130.9824 
L 235.653822 130.9824 
L 235.887443 150.336 
L 236.27681 150.336 
L 236.432557 169.6896 
L 237.133419 169.6896 
L 237.289165 179.3664 
L 237.912153 179.3664 
L 238.0679 169.6896 
L 239.158129 169.6896 
L 239.313876 189.0432 
L 239.469623 169.6896 
L 239.62537 198.72 
L 240.248358 198.72 
L 240.404105 208.3968 
L 240.559852 208.3968 
L 240.715599 218.0736 
L 240.871346 198.72 
L 241.027093 189.0432 
L 241.104966 189.0432 
L 241.260713 179.3664 
L 241.494334 179.3664 
L 241.65008 169.6896 
L 242.662436 169.6896 
L 242.818183 179.3664 
L 243.051803 179.3664 
L 243.129677 189.0432 
L 243.285424 179.3664 
L 243.441171 189.0432 
L 244.687146 189.0432 
L 244.842893 198.72 
L 245.154387 198.72 
L 245.310134 208.3968 
L 245.621628 208.3968 
L 245.777375 218.0736 
L 246.088869 218.0736 
L 246.322489 198.72 
L 247.179098 198.72 
L 247.334845 189.0432 
L 248.191453 189.0432 
L 248.3472 198.72 
L 249.593176 198.72 
L 249.826796 218.0736 
L 250.216163 218.0736 
L 250.37191 208.3968 
L 250.994898 208.3968 
L 251.150645 247.104 
L 251.773633 247.104 
L 251.851507 256.7808 
L 252.007254 227.7504 
L 252.318747 227.7504 
L 252.474494 218.0736 
L 253.253229 218.0736 
L 253.408976 227.7504 
L 255.900928 227.7504 
L 256.056675 218.0736 
L 256.212422 218.0736 
L 256.368169 227.7504 
L 256.446042 227.7504 
L 256.601789 237.4272 
L 256.757536 237.4272 
L 256.913283 227.7504 
L 257.146903 227.7504 
L 257.30265 237.4272 
L 257.925638 237.4272 
L 258.081385 227.7504 
L 260.028222 227.7504 
L 260.183969 218.0736 
L 260.41759 218.0736 
L 260.573337 227.7504 
L 262.052933 227.7504 
L 262.20868 247.104 
L 262.364427 256.7808 
L 262.598047 256.7808 
L 262.753794 266.4576 
L 263.143161 266.4576 
L 263.298908 256.7808 
L 264.23339 256.7808 
L 264.389137 247.104 
L 265.089998 247.104 
L 265.323619 227.7504 
L 265.401492 227.7504 
L 265.557239 198.72 
L 265.868733 198.72 
L 266.02448 189.0432 
L 266.180227 198.72 
L 266.491721 198.72 
L 266.647468 189.0432 
L 266.958962 189.0432 
L 267.114709 198.72 
L 267.504076 198.72 
L 267.81557 169.6896 
L 268.204938 169.6896 
L 268.360685 179.3664 
L 269.061546 179.3664 
L 269.37304 150.336 
L 269.762407 150.336 
L 269.918154 130.9824 
L 270.307522 130.9824 
L 270.463269 140.6592 
L 270.696889 121.3056 
L 273.266714 121.3056 
L 273.422461 130.9824 
L 274.123322 130.9824 
L 274.279069 121.3056 
L 274.51269 121.3056 
L 274.668437 130.9824 
L 274.824184 130.9824 
L 274.979931 140.6592 
L 275.135678 140.6592 
L 275.291425 150.336 
L 275.602919 150.336 
L 275.680792 140.6592 
L 275.836539 169.6896 
L 276.070159 169.6896 
L 276.225906 179.3664 
L 276.381653 179.3664 
L 276.5374 160.0128 
L 276.771021 160.0128 
L 276.848894 169.6896 
L 277.004641 160.0128 
L 277.627629 160.0128 
L 277.783376 150.336 
L 277.939123 160.0128 
L 278.32849 160.0128 
L 278.484237 150.336 
L 278.795731 150.336 
L 278.951478 169.6896 
L 279.107225 169.6896 
L 279.262972 160.0128 
L 279.418719 169.6896 
L 279.65234 169.6896 
L 279.808087 160.0128 
L 280.041707 160.0128 
L 280.197454 179.3664 
L 280.664695 179.3664 
L 280.742568 189.0432 
L 280.898315 179.3664 
L 281.054062 179.3664 
L 281.209809 169.6896 
L 282.611532 169.6896 
L 282.845152 150.336 
L 283.312393 150.336 
L 283.623887 121.3056 
L 284.013255 121.3056 
L 284.169002 111.6288 
L 284.324748 111.6288 
L 284.480495 121.3056 
L 284.947736 121.3056 
L 285.103483 111.6288 
L 285.414977 111.6288 
L 285.726471 82.5984 
L 285.804345 82.5984 
L 285.960092 92.2752 
L 286.349459 92.2752 
L 286.505206 111.6288 
L 286.660953 121.3056 
L 286.894573 121.3056 
L 287.05032 111.6288 
L 287.206067 111.6288 
L 287.361814 101.952 
L 287.673308 101.952 
L 287.906929 140.6592 
L 287.984802 140.6592 
L 288.062676 150.336 
L 288.218423 140.6592 
L 289.152904 140.6592 
L 289.308651 130.9824 
L 289.386525 130.9824 
L 289.542272 140.6592 
L 289.931639 140.6592 
L 290.087386 150.336 
L 291.021868 150.336 
L 291.177615 160.0128 
L 291.333362 160.0128 
L 291.489109 179.3664 
L 292.735084 179.3664 
L 292.812958 169.6896 
L 292.968705 189.0432 
L 293.124452 198.72 
L 293.591693 198.72 
L 293.903187 227.7504 
L 294.759795 227.7504 
L 294.915542 218.0736 
L 295.382783 218.0736 
L 295.53853 227.7504 
L 295.77215 227.7504 
L 295.927897 237.4272 
L 296.862379 237.4272 
L 297.018126 218.0736 
L 297.173873 227.7504 
L 298.341975 227.7504 
L 298.497722 237.4272 
L 299.042837 237.4272 
L 299.198583 227.7504 
L 299.35433 227.7504 
L 299.510077 237.4272 
L 301.768408 237.4272 
L 301.924155 227.7504 
L 302.002029 227.7504 
L 302.313523 198.72 
L 302.46927 198.72 
L 302.625017 189.0432 
L 302.936511 189.0432 
L 303.092258 198.72 
L 304.182486 198.72 
L 304.338233 189.0432 
L 304.961221 189.0432 
L 305.116968 198.72 
L 305.194842 198.72 
L 305.428462 179.3664 
L 305.506336 179.3664 
L 305.662082 189.0432 
L 305.973576 189.0432 
L 306.129323 179.3664 
L 306.440817 179.3664 
L 306.596564 169.6896 
L 306.830185 169.6896 
L 306.985932 160.0128 
L 307.063805 160.0128 
L 307.297426 179.3664 
L 307.453173 179.3664 
L 307.531046 189.0432 
L 307.686793 179.3664 
L 308.543401 179.3664 
L 308.699148 169.6896 
L 308.854895 169.6896 
L 309.010642 179.3664 
L 309.244263 179.3664 
L 309.40001 189.0432 
L 310.256618 189.0432 
L 310.412365 198.72 
L 311.969834 198.72 
L 312.203455 218.0736 
L 312.359202 218.0736 
L 312.514949 247.104 
L 312.98219 247.104 
L 313.137937 256.7808 
L 313.21581 256.7808 
L 313.371557 247.104 
L 314.228165 247.104 
L 314.461786 266.4576 
L 315.0069 266.4576 
L 315.162647 256.7808 
L 316.175003 256.7808 
L 316.252876 247.104 
L 316.408623 256.7808 
L 317.810346 256.7808 
L 317.966093 266.4576 
L 318.35546 266.4576 
L 318.511207 256.7808 
L 318.822701 256.7808 
L 318.978448 266.4576 
L 319.990803 266.4576 
L 320.14655 276.1344 
L 322.327008 276.1344 
L 322.482755 266.4576 
L 325.2862 266.4576 
L 325.441947 276.1344 
L 326.376429 276.1344 
L 326.532176 285.8112 
L 326.687923 285.8112 
L 326.84367 276.1344 
L 327.07729 276.1344 
L 327.233037 266.4576 
L 328.167519 266.4576 
L 328.323266 256.7808 
L 328.479013 256.7808 
L 328.556886 266.4576 
L 328.712633 256.7808 
L 329.179874 256.7808 
L 329.335621 247.104 
L 329.880735 247.104 
L 330.036482 256.7808 
L 330.815217 256.7808 
L 331.048838 237.4272 
L 331.282458 237.4272 
L 331.438205 227.7504 
L 332.294813 227.7504 
L 332.45056 208.3968 
L 332.606307 218.0736 
L 332.762054 218.0736 
L 332.917801 198.72 
L 334.631018 198.72 
L 334.786765 189.0432 
L 335.876993 189.0432 
L 336.110614 169.6896 
L 336.266361 169.6896 
L 336.422108 160.0128 
L 337.278716 160.0128 
L 337.35659 150.336 
L 337.512337 160.0128 
L 337.59021 160.0128 
L 337.668083 150.336 
L 337.82383 160.0128 
L 338.524692 160.0128 
L 338.758312 140.6592 
L 338.991933 160.0128 
L 339.069806 160.0128 
L 339.225553 150.336 
L 339.537047 179.3664 
L 339.614921 179.3664 
L 339.770667 189.0432 
L 340.393655 189.0432 
L 340.549402 179.3664 
L 340.705149 179.3664 
L 340.860896 189.0432 
L 341.016643 189.0432 
L 341.17239 198.72 
L 341.873251 198.72 
L 342.106872 179.3664 
L 342.885607 179.3664 
L 343.041354 189.0432 
L 344.053709 189.0432 
L 344.209456 198.72 
L 344.832444 198.72 
L 344.988191 208.3968 
L 345.533305 208.3968 
L 345.689052 218.0736 
L 346.07842 218.0736 
L 346.234166 227.7504 
L 346.467787 227.7504 
L 346.623534 247.104 
L 347.791636 247.104 
L 347.947383 256.7808 
L 348.33675 256.7808 
L 348.492497 247.104 
L 348.648244 247.104 
L 348.803991 256.7808 
L 349.193359 256.7808 
L 349.349106 266.4576 
L 349.504853 266.4576 
L 349.6606 256.7808 
L 350.672955 256.7808 
L 350.828702 266.4576 
L 351.140196 266.4576 
L 351.295943 276.1344 
L 352.152551 276.1344 
L 352.308298 285.8112 
L 352.541918 285.8112 
L 352.853412 256.7808 
L 353.554274 256.7808 
L 353.710021 247.104 
L 354.410882 247.104 
L 354.566629 237.4272 
L 356.046225 237.4272 
L 356.201972 247.104 
L 357.837315 247.104 
L 357.993062 237.4272 
L 358.460303 237.4272 
L 358.61605 247.104 
L 359.784152 247.104 
L 359.939899 256.7808 
L 360.329267 256.7808 
L 360.485014 247.104 
L 361.730989 247.104 
L 361.886736 237.4272 
L 362.353977 237.4272 
L 362.509724 227.7504 
L 362.821218 227.7504 
L 362.976965 256.7808 
L 363.132712 237.4272 
L 363.599953 237.4272 
L 363.7557 227.7504 
L 363.833573 227.7504 
L 363.98932 237.4272 
L 364.145067 227.7504 
L 364.378688 227.7504 
L 364.534435 218.0736 
L 366.014031 218.0736 
L 366.169778 208.3968 
L 367.493627 208.3968 
L 367.649374 198.72 
L 367.882994 198.72 
L 368.038741 208.3968 
L 368.194488 198.72 
L 370.608566 198.72 
L 370.764313 208.3968 
L 371.854542 208.3968 
L 372.010289 218.0736 
L 372.088162 218.0736 
L 372.243909 198.72 
L 372.399656 189.0432 
L 372.47753 189.0432 
L 372.633277 169.6896 
L 372.789024 179.3664 
L 373.022644 179.3664 
L 373.334138 208.3968 
L 373.489885 198.72 
L 373.567759 198.72 
L 373.723506 189.0432 
L 374.112873 189.0432 
L 374.190746 179.3664 
L 374.346493 189.0432 
L 374.50224 179.3664 
L 374.580114 179.3664 
L 374.735861 189.0432 
L 374.813734 189.0432 
L 374.969481 179.3664 
L 375.748216 179.3664 
L 375.903963 169.6896 
L 376.371204 169.6896 
L 376.526951 160.0128 
L 376.838445 160.0128 
L 376.994192 150.336 
L 378.084421 150.336 
L 378.318041 130.9824 
L 378.395914 130.9824 
L 378.551661 121.3056 
L 378.863155 121.3056 
L 379.096776 101.952 
L 379.174649 101.952 
L 379.330396 92.2752 
L 379.486143 92.2752 
L 379.64189 82.5984 
L 379.875511 82.5984 
L 380.031258 72.9216 
L 380.809992 72.9216 
L 380.965739 63.2448 
L 381.43298 63.2448 
L 381.588727 53.568 
L 381.666601 53.568 
L 381.822348 63.2448 
L 381.978095 53.568 
L 382.367462 53.568 
L 382.523209 63.2448 
L 382.678956 63.2448 
L 382.834703 82.5984 
L 382.99045 72.9216 
L 383.22407 72.9216 
L 383.301944 63.2448 
L 383.457691 72.9216 
L 383.535564 72.9216 
L 383.691311 92.2752 
L 383.924932 92.2752 
L 384.080679 101.952 
L 384.314299 101.952 
L 384.547919 121.3056 
L 384.625793 121.3056 
L 384.703666 111.6288 
L 384.859413 121.3056 
L 384.937287 121.3056 
L 385.170907 140.6592 
L 385.871769 140.6592 
L 386.027516 150.336 
L 386.33901 150.336 
L 386.494757 160.0128 
L 386.650503 160.0128 
L 386.80625 169.6896 
L 387.039871 169.6896 
L 387.195618 179.3664 
L 387.662859 179.3664 
L 387.818606 169.6896 
L 388.052226 169.6896 
L 388.207973 160.0128 
L 388.285847 160.0128 
L 388.36372 169.6896 
L 388.519467 198.72 
L 388.675214 198.72 
L 388.830961 208.3968 
L 389.064581 208.3968 
L 389.220328 218.0736 
L 389.298202 218.0736 
L 389.453949 227.7504 
L 389.687569 227.7504 
L 389.92119 247.104 
L 390.076937 247.104 
L 390.232684 256.7808 
L 390.777798 256.7808 
L 390.933545 266.4576 
L 391.089292 266.4576 
L 391.245039 256.7808 
L 392.491015 256.7808 
L 392.646762 247.104 
L 392.958256 247.104 
L 393.114002 237.4272 
L 393.659117 237.4272 
L 393.814864 227.7504 
L 394.905093 227.7504 
L 395.138713 247.104 
L 395.839574 247.104 
L 395.995321 256.7808 
L 396.384689 256.7808 
L 396.540436 266.4576 
L 397.552791 266.4576 
L 397.708538 276.1344 
L 397.942158 276.1344 
L 398.097905 285.8112 
L 398.331526 285.8112 
L 398.487273 295.488 
L 398.487273 295.488 
" clip-path="url(#p7d68dd51de)" style="fill: none; stroke: #1f77b4; stroke-width: 1.5; stroke-linecap: square"/>
   </g>
   <g id="line2d_13">
    <path d="M 389.609696 307.584 
L 389.609696 41.472 
" clip-path="url(#p7d68dd51de)" style="fill: none; stroke-dasharray: 5.55,2.4; stroke-dashoffset: 0; stroke: #ff0000; stroke-width: 1.5"/>
   </g>
   <g id="line2d_14">
    <path d="M 397.552791 307.584 
L 397.552791 41.472 
" clip-path="url(#p7d68dd51de)" style="fill: none; stroke-dasharray: 5.55,2.4; stroke-dashoffset: 0; stroke: #ff0000; stroke-width: 1.5"/>
   </g>
   <g id="patch_3">
    <path d="M 57.6 307.584 
L 57.6 41.472 
" style="fill: none; stroke: #000000; stroke-width: 0.8; stroke-linejoin: miter; stroke-linecap: square"/>
   </g>
   <g id="patch_4">
    <path d="M 414.72 307.584 
L 414.72 41.472 
" style="fill: none; stroke: #000000; stroke-width: 0.8; stroke-linejoin: miter; stroke-linecap: square"/>
   </g>
   <g id="patch_5">
    <path d="M 57.6 307.584 
L 414.72 307.584 
" style="fill: none; stroke: #000000; stroke-width: 0.8; stroke-linejoin: miter; stroke-linecap: square"/>
   </g>
   <g id="patch_6">
    <path d="M 57.6 41.472 
L 414.72 41.472 
" style="fill: none; stroke: #000000; stroke-width: 0.8; stroke-linejoin: miter; stroke-linecap: square"/>
   </g>
   <g id="text_14">
    <!-- Scaffold 11136 -->
    <g transform="translate(191.009062 22.034625) scale(0.12 -0.12)">
     <defs>
      <path id="DejaVuSans-53" d="M 3425 4513 
L 3425 3897 
Q 3066 4069 2747 4153 
Q 2428 4238 2131 4238 
Q 1616 4238 1336 4038 
Q 1056 3838 1056 3469 
Q 1056 3159 1242 3001 
Q 1428 2844 1947 2747 
L 2328 2669 
Q 3034 2534 3370 2195 
Q 3706 1856 3706 1288 
Q 3706 609 3251 259 
Q 2797 -91 1919 -91 
Q 1588 -91 1214 -16 
Q 841 59 441 206 
L 441 856 
Q 825 641 1194 531 
Q 1563 422 1919 422 
Q 2459 422 2753 634 
Q 3047 847 3047 1241 
Q 3047 1584 2836 1778 
Q 2625 1972 2144 2069 
L 1759 2144 
Q 1053 2284 737 2584 
Q 422 2884 422 3419 
Q 422 4038 858 4394 
Q 1294 4750 2059 4750 
Q 2388 4750 2728 4690 
Q 3069 4631 3425 4513 
z
" transform="scale(0.015625)"/>
      <path id="DejaVuSans-63" d="M 3122 3366 
L 3122 2828 
Q 2878 2963 2633 3030 
Q 2388 3097 2138 3097 
Q 1578 3097 1268 2742 
Q 959 2388 959 1747 
Q 959 1106 1268 751 
Q 1578 397 2138 397 
Q 2388 397 2633 464 
Q 2878 531 3122 666 
L 3122 134 
Q 2881 22 2623 -34 
Q 2366 -91 2075 -91 
Q 1284 -91 818 406 
Q 353 903 353 1747 
Q 353 2603 823 3093 
Q 1294 3584 2113 3584 
Q 2378 3584 2631 3529 
Q 2884 3475 3122 3366 
z
" transform="scale(0.015625)"/>
      <path id="DejaVuSans-66" d="M 2375 4863 
L 2375 4384 
L 1825 4384 
Q 1516 4384 1395 4259 
Q 1275 4134 1275 3809 
L 1275 3500 
L 2222 3500 
L 2222 3053 
L 1275 3053 
L 1275 0 
L 697 0 
L 697 3053 
L 147 3053 
L 147 3500 
L 697 3500 
L 697 3744 
Q 697 4328 969 4595 
Q 1241 4863 1831 4863 
L 2375 4863 
z
" transform="scale(0.015625)"/>
      <path id="DejaVuSans-6c" d="M 603 4863 
L 1178 4863 
L 1178 0 
L 603 0 
L 603 4863 
z
" transform="scale(0.015625)"/>
      <path id="DejaVuSans-64" d="M 2906 2969 
L 2906 4863 
L 3481 4863 
L 3481 0 
L 2906 0 
L 2906 525 
Q 2725 213 2448 61 
Q 2172 -91 1784 -91 
Q 1150 -91 751 415 
Q 353 922 353 1747 
Q 353 2572 751 3078 
Q 1150 3584 1784 3584 
Q 2172 3584 2448 3432 
Q 2725 3281 2906 2969 
z
M 947 1747 
Q 947 1113 1208 752 
Q 1469 391 1925 391 
Q 2381 391 2643 752 
Q 2906 1113 2906 1747 
Q 2906 2381 2643 2742 
Q 2381 3103 1925 3103 
Q 1469 3103 1208 2742 
Q 947 2381 947 1747 
z
" transform="scale(0.015625)"/>
      <path id="DejaVuSans-20" transform="scale(0.015625)"/>
      <path id="DejaVuSans-36" d="M 2113 2584 
Q 1688 2584 1439 2293 
Q 1191 2003 1191 1497 
Q 1191 994 1439 701 
Q 1688 409 2113 409 
Q 2538 409 2786 701 
Q 3034 994 3034 1497 
Q 3034 2003 2786 2293 
Q 2538 2584 2113 2584 
z
M 3366 4563 
L 3366 3988 
Q 3128 4100 2886 4159 
Q 2644 4219 2406 4219 
Q 1781 4219 1451 3797 
Q 1122 3375 1075 2522 
Q 1259 2794 1537 2939 
Q 1816 3084 2150 3084 
Q 2853 3084 3261 2657 
Q 3669 2231 3669 1497 
Q 3669 778 3244 343 
Q 2819 -91 2113 -91 
Q 1303 -91 875 529 
Q 447 1150 447 2328 
Q 447 3434 972 4092 
Q 1497 4750 2381 4750 
Q 2619 4750 2861 4703 
Q 3103 4656 3366 4563 
z
" transform="scale(0.015625)"/>
     </defs>
     <use xlink:href="#DejaVuSans-53"/>
     <use xlink:href="#DejaVuSans-63" x="63.476562"/>
     <use xlink:href="#DejaVuSans-61" x="118.457031"/>
     <use xlink:href="#DejaVuSans-66" x="179.736328"/>
     <use xlink:href="#DejaVuSans-66" x="214.941406"/>
     <use xlink:href="#DejaVuSans-6f" x="250.146484"/>
     <use xlink:href="#DejaVuSans-6c" x="311.328125"/>
     <use xlink:href="#DejaVuSans-64" x="339.111328"/>
     <use xlink:href="#DejaVuSans-20" x="402.587891"/>
     <use xlink:href="#DejaVuSans-31" x="434.375"/>
     <use xlink:href="#DejaVuSans-31" x="497.998047"/>
     <use xlink:href="#DejaVuSans-31" x="561.621094"/>
     <use xlink:href="#DejaVuSans-33" x="625.244141"/>
     <use xlink:href="#DejaVuSans-36" x="688.867188"/>
    </g>
    <!--  Total coverage with Viral DNA reads: 100% -->
    <g transform="translate(105.744375 35.472) scale(0.12 -0.12)">
     <defs>
      <path id="DejaVuSans-54" d="M -19 4666 
L 3928 4666 
L 3928 4134 
L 2272 4134 
L 2272 0 
L 1638 0 
L 1638 4134 
L -19 4134 
L -19 4666 
z
" transform="scale(0.015625)"/>
      <path id="DejaVuSans-74" d="M 1172 4494 
L 1172 3500 
L 2356 3500 
L 2356 3053 
L 1172 3053 
L 1172 1153 
Q 1172 725 1289 603 
Q 1406 481 1766 481 
L 2356 481 
L 2356 0 
L 1766 0 
Q 1100 0 847 248 
Q 594 497 594 1153 
L 594 3053 
L 172 3053 
L 172 3500 
L 594 3500 
L 594 4494 
L 1172 4494 
z
" transform="scale(0.015625)"/>
      <path id="DejaVuSans-77" d="M 269 3500 
L 844 3500 
L 1563 769 
L 2278 3500 
L 2956 3500 
L 3675 769 
L 4391 3500 
L 4966 3500 
L 4050 0 
L 3372 0 
L 2619 2869 
L 1863 0 
L 1184 0 
L 269 3500 
z
" transform="scale(0.015625)"/>
      <path id="DejaVuSans-69" d="M 603 3500 
L 1178 3500 
L 1178 0 
L 603 0 
L 603 3500 
z
M 603 4863 
L 1178 4863 
L 1178 4134 
L 603 4134 
L 603 4863 
z
" transform="scale(0.015625)"/>
      <path id="DejaVuSans-68" d="M 3513 2113 
L 3513 0 
L 2938 0 
L 2938 2094 
Q 2938 2591 2744 2837 
Q 2550 3084 2163 3084 
Q 1697 3084 1428 2787 
Q 1159 2491 1159 1978 
L 1159 0 
L 581 0 
L 581 4863 
L 1159 4863 
L 1159 2956 
Q 1366 3272 1645 3428 
Q 1925 3584 2291 3584 
Q 2894 3584 3203 3211 
Q 3513 2838 3513 2113 
z
" transform="scale(0.015625)"/>
      <path id="DejaVuSans-56" d="M 1831 0 
L 50 4666 
L 709 4666 
L 2188 738 
L 3669 4666 
L 4325 4666 
L 2547 0 
L 1831 0 
z
" transform="scale(0.015625)"/>
      <path id="DejaVuSans-44" d="M 1259 4147 
L 1259 519 
L 2022 519 
Q 2988 519 3436 956 
Q 3884 1394 3884 2338 
Q 3884 3275 3436 3711 
Q 2988 4147 2022 4147 
L 1259 4147 
z
M 628 4666 
L 1925 4666 
Q 3281 4666 3915 4102 
Q 4550 3538 4550 2338 
Q 4550 1131 3912 565 
Q 3275 0 1925 0 
L 628 0 
L 628 4666 
z
" transform="scale(0.015625)"/>
      <path id="DejaVuSans-4e" d="M 628 4666 
L 1478 4666 
L 3547 763 
L 3547 4666 
L 4159 4666 
L 4159 0 
L 3309 0 
L 1241 3903 
L 1241 0 
L 628 0 
L 628 4666 
z
" transform="scale(0.015625)"/>
      <path id="DejaVuSans-41" d="M 2188 4044 
L 1331 1722 
L 3047 1722 
L 2188 4044 
z
M 1831 4666 
L 2547 4666 
L 4325 0 
L 3669 0 
L 3244 1197 
L 1141 1197 
L 716 0 
L 50 0 
L 1831 4666 
z
" transform="scale(0.015625)"/>
      <path id="DejaVuSans-3a" d="M 750 794 
L 1409 794 
L 1409 0 
L 750 0 
L 750 794 
z
M 750 3309 
L 1409 3309 
L 1409 2516 
L 750 2516 
L 750 3309 
z
" transform="scale(0.015625)"/>
      <path id="DejaVuSans-25" d="M 4653 2053 
Q 4381 2053 4226 1822 
Q 4072 1591 4072 1178 
Q 4072 772 4226 539 
Q 4381 306 4653 306 
Q 4919 306 5073 539 
Q 5228 772 5228 1178 
Q 5228 1588 5073 1820 
Q 4919 2053 4653 2053 
z
M 4653 2450 
Q 5147 2450 5437 2106 
Q 5728 1763 5728 1178 
Q 5728 594 5436 251 
Q 5144 -91 4653 -91 
Q 4153 -91 3862 251 
Q 3572 594 3572 1178 
Q 3572 1766 3864 2108 
Q 4156 2450 4653 2450 
z
M 1428 4353 
Q 1159 4353 1004 4120 
Q 850 3888 850 3481 
Q 850 3069 1003 2837 
Q 1156 2606 1428 2606 
Q 1700 2606 1854 2837 
Q 2009 3069 2009 3481 
Q 2009 3884 1853 4118 
Q 1697 4353 1428 4353 
z
M 4250 4750 
L 4750 4750 
L 1831 -91 
L 1331 -91 
L 4250 4750 
z
M 1428 4750 
Q 1922 4750 2215 4408 
Q 2509 4066 2509 3481 
Q 2509 2891 2217 2550 
Q 1925 2209 1428 2209 
Q 931 2209 642 2551 
Q 353 2894 353 3481 
Q 353 4063 643 4406 
Q 934 4750 1428 4750 
z
" transform="scale(0.015625)"/>
     </defs>
     <use xlink:href="#DejaVuSans-20"/>
     <use xlink:href="#DejaVuSans-54" x="31.787109"/>
     <use xlink:href="#DejaVuSans-6f" x="75.871094"/>
     <use xlink:href="#DejaVuSans-74" x="137.052734"/>
     <use xlink:href="#DejaVuSans-61" x="176.261719"/>
     <use xlink:href="#DejaVuSans-6c" x="237.541016"/>
     <use xlink:href="#DejaVuSans-20" x="265.324219"/>
     <use xlink:href="#DejaVuSans-63" x="297.111328"/>
     <use xlink:href="#DejaVuSans-6f" x="352.091797"/>
     <use xlink:href="#DejaVuSans-76" x="413.273438"/>
     <use xlink:href="#DejaVuSans-65" x="472.453125"/>
     <use xlink:href="#DejaVuSans-72" x="533.976562"/>
     <use xlink:href="#DejaVuSans-61" x="575.089844"/>
     <use xlink:href="#DejaVuSans-67" x="636.369141"/>
     <use xlink:href="#DejaVuSans-65" x="699.845703"/>
     <use xlink:href="#DejaVuSans-20" x="761.369141"/>
     <use xlink:href="#DejaVuSans-77" x="793.15625"/>
     <use xlink:href="#DejaVuSans-69" x="874.943359"/>
     <use xlink:href="#DejaVuSans-74" x="902.726562"/>
     <use xlink:href="#DejaVuSans-68" x="941.935547"/>
     <use xlink:href="#DejaVuSans-20" x="1005.314453"/>
     <use xlink:href="#DejaVuSans-56" x="1037.101562"/>
     <use xlink:href="#DejaVuSans-69" x="1103.259766"/>
     <use xlink:href="#DejaVuSans-72" x="1131.042969"/>
     <use xlink:href="#DejaVuSans-61" x="1172.15625"/>
     <use xlink:href="#DejaVuSans-6c" x="1233.435547"/>
     <use xlink:href="#DejaVuSans-20" x="1261.21875"/>
     <use xlink:href="#DejaVuSans-44" x="1293.005859"/>
     <use xlink:href="#DejaVuSans-4e" x="1370.007812"/>
     <use xlink:href="#DejaVuSans-41" x="1444.8125"/>
     <use xlink:href="#DejaVuSans-20" x="1513.220703"/>
     <use xlink:href="#DejaVuSans-72" x="1545.007812"/>
     <use xlink:href="#DejaVuSans-65" x="1583.871094"/>
     <use xlink:href="#DejaVuSans-61" x="1645.394531"/>
     <use xlink:href="#DejaVuSans-64" x="1706.673828"/>
     <use xlink:href="#DejaVuSans-73" x="1770.150391"/>
     <use xlink:href="#DejaVuSans-3a" x="1822.25"/>
     <use xlink:href="#DejaVuSans-20" x="1855.941406"/>
     <use xlink:href="#DejaVuSans-31" x="1887.728516"/>
     <use xlink:href="#DejaVuSans-30" x="1951.351562"/>
     <use xlink:href="#DejaVuSans-30" x="2014.974609"/>
     <use xlink:href="#DejaVuSans-25" x="2078.597656"/>
    </g>
   </g>
  </g>
 </g>
 <defs>
  <clipPath id="p7d68dd51de">
   <rect x="57.6" y="41.472" width="357.12" height="266.112"/>
  </clipPath>
 </defs>
</svg>
