<?xml version="1.0" encoding="utf-8" standalone="no"?>
<!DOCTYPE svg PUBLIC "-//W3C//DTD SVG 1.1//EN"
  "http://www.w3.org/Graphics/SVG/1.1/DTD/svg11.dtd">
<svg xmlns:xlink="http://www.w3.org/1999/xlink" width="460.8pt" height="345.6pt" viewBox="0 0 460.8 345.6" xmlns="http://www.w3.org/2000/svg" version="1.1">
 <metadata>
  <rdf:RDF xmlns:dc="http://purl.org/dc/elements/1.1/" xmlns:cc="http://creativecommons.org/ns#" xmlns:rdf="http://www.w3.org/1999/02/22-rdf-syntax-ns#">
   <cc:Work>
    <dc:type rdf:resource="http://purl.org/dc/dcmitype/StillImage"/>
    <dc:date>2024-06-23T21:08:38.663375</dc:date>
    <dc:format>image/svg+xml</dc:format>
    <dc:creator>
     <cc:Agent>
      <dc:title>Matplotlib v3.9.0, https://matplotlib.org/</dc:title>
     </cc:Agent>
    </dc:creator>
   </cc:Work>
  </rdf:RDF>
 </metadata>
 <defs>
  <style type="text/css">*{stroke-linejoin: round; stroke-linecap: butt}</style>
 </defs>
 <g id="figure_1">
  <g id="patch_1">
   <path d="M 0 345.6 
L 460.8 345.6 
L 460.8 0 
L 0 0 
z
" style="fill: #ffffff"/>
  </g>
  <g id="axes_1">
   <g id="patch_2">
    <path d="M 57.6 307.584 
L 414.72 307.584 
L 414.72 41.472 
L 57.6 41.472 
z
" style="fill: #ffffff"/>
   </g>
   <g id="PolyCollection_1"/>
   <g id="matplotlib.axis_1">
    <g id="xtick_1">
     <g id="line2d_1">
      <defs>
       <path id="mf33bab968b" d="M 0 0 
L 0 3.5 
" style="stroke: #000000; stroke-width: 0.8"/>
      </defs>
      <g>
       <use xlink:href="#mf33bab968b" x="73.676943" y="307.584" style="stroke: #000000; stroke-width: 0.8"/>
      </g>
     </g>
     <g id="text_1">
      <!-- 0 -->
      <g transform="translate(70.495693 322.182437) scale(0.1 -0.1)">
       <defs>
        <path id="DejaVuSans-30" d="M 2034 4250 
Q 1547 4250 1301 3770 
Q 1056 3291 1056 2328 
Q 1056 1369 1301 889 
Q 1547 409 2034 409 
Q 2525 409 2770 889 
Q 3016 1369 3016 2328 
Q 3016 3291 2770 3770 
Q 2525 4250 2034 4250 
z
M 2034 4750 
Q 2819 4750 3233 4129 
Q 3647 3509 3647 2328 
Q 3647 1150 3233 529 
Q 2819 -91 2034 -91 
Q 1250 -91 836 529 
Q 422 1150 422 2328 
Q 422 3509 836 4129 
Q 1250 4750 2034 4750 
z
" transform="scale(0.015625)"/>
       </defs>
       <use xlink:href="#DejaVuSans-30"/>
      </g>
     </g>
    </g>
    <g id="xtick_2">
     <g id="line2d_2">
      <g>
       <use xlink:href="#mf33bab968b" x="151.569108" y="307.584" style="stroke: #000000; stroke-width: 0.8"/>
      </g>
     </g>
     <g id="text_2">
      <!-- 1000 -->
      <g transform="translate(138.844108 322.182437) scale(0.1 -0.1)">
       <defs>
        <path id="DejaVuSans-31" d="M 794 531 
L 1825 531 
L 1825 4091 
L 703 3866 
L 703 4441 
L 1819 4666 
L 2450 4666 
L 2450 531 
L 3481 531 
L 3481 0 
L 794 0 
L 794 531 
z
" transform="scale(0.015625)"/>
       </defs>
       <use xlink:href="#DejaVuSans-31"/>
       <use xlink:href="#DejaVuSans-30" x="63.623047"/>
       <use xlink:href="#DejaVuSans-30" x="127.246094"/>
       <use xlink:href="#DejaVuSans-30" x="190.869141"/>
      </g>
     </g>
    </g>
    <g id="xtick_3">
     <g id="line2d_3">
      <g>
       <use xlink:href="#mf33bab968b" x="229.461274" y="307.584" style="stroke: #000000; stroke-width: 0.8"/>
      </g>
     </g>
     <g id="text_3">
      <!-- 2000 -->
      <g transform="translate(216.736274 322.182437) scale(0.1 -0.1)">
       <defs>
        <path id="DejaVuSans-32" d="M 1228 531 
L 3431 531 
L 3431 0 
L 469 0 
L 469 531 
Q 828 903 1448 1529 
Q 2069 2156 2228 2338 
Q 2531 2678 2651 2914 
Q 2772 3150 2772 3378 
Q 2772 3750 2511 3984 
Q 2250 4219 1831 4219 
Q 1534 4219 1204 4116 
Q 875 4013 500 3803 
L 500 4441 
Q 881 4594 1212 4672 
Q 1544 4750 1819 4750 
Q 2544 4750 2975 4387 
Q 3406 4025 3406 3419 
Q 3406 3131 3298 2873 
Q 3191 2616 2906 2266 
Q 2828 2175 2409 1742 
Q 1991 1309 1228 531 
z
" transform="scale(0.015625)"/>
       </defs>
       <use xlink:href="#DejaVuSans-32"/>
       <use xlink:href="#DejaVuSans-30" x="63.623047"/>
       <use xlink:href="#DejaVuSans-30" x="127.246094"/>
       <use xlink:href="#DejaVuSans-30" x="190.869141"/>
      </g>
     </g>
    </g>
    <g id="xtick_4">
     <g id="line2d_4">
      <g>
       <use xlink:href="#mf33bab968b" x="307.353439" y="307.584" style="stroke: #000000; stroke-width: 0.8"/>
      </g>
     </g>
     <g id="text_4">
      <!-- 3000 -->
      <g transform="translate(294.628439 322.182437) scale(0.1 -0.1)">
       <defs>
        <path id="DejaVuSans-33" d="M 2597 2516 
Q 3050 2419 3304 2112 
Q 3559 1806 3559 1356 
Q 3559 666 3084 287 
Q 2609 -91 1734 -91 
Q 1441 -91 1130 -33 
Q 819 25 488 141 
L 488 750 
Q 750 597 1062 519 
Q 1375 441 1716 441 
Q 2309 441 2620 675 
Q 2931 909 2931 1356 
Q 2931 1769 2642 2001 
Q 2353 2234 1838 2234 
L 1294 2234 
L 1294 2753 
L 1863 2753 
Q 2328 2753 2575 2939 
Q 2822 3125 2822 3475 
Q 2822 3834 2567 4026 
Q 2313 4219 1838 4219 
Q 1578 4219 1281 4162 
Q 984 4106 628 3988 
L 628 4550 
Q 988 4650 1302 4700 
Q 1616 4750 1894 4750 
Q 2613 4750 3031 4423 
Q 3450 4097 3450 3541 
Q 3450 3153 3228 2886 
Q 3006 2619 2597 2516 
z
" transform="scale(0.015625)"/>
       </defs>
       <use xlink:href="#DejaVuSans-33"/>
       <use xlink:href="#DejaVuSans-30" x="63.623047"/>
       <use xlink:href="#DejaVuSans-30" x="127.246094"/>
       <use xlink:href="#DejaVuSans-30" x="190.869141"/>
      </g>
     </g>
    </g>
    <g id="xtick_5">
     <g id="line2d_5">
      <g>
       <use xlink:href="#mf33bab968b" x="385.245605" y="307.584" style="stroke: #000000; stroke-width: 0.8"/>
      </g>
     </g>
     <g id="text_5">
      <!-- 4000 -->
      <g transform="translate(372.520605 322.182437) scale(0.1 -0.1)">
       <defs>
        <path id="DejaVuSans-34" d="M 2419 4116 
L 825 1625 
L 2419 1625 
L 2419 4116 
z
M 2253 4666 
L 3047 4666 
L 3047 1625 
L 3713 1625 
L 3713 1100 
L 3047 1100 
L 3047 0 
L 2419 0 
L 2419 1100 
L 313 1100 
L 313 1709 
L 2253 4666 
z
" transform="scale(0.015625)"/>
       </defs>
       <use xlink:href="#DejaVuSans-34"/>
       <use xlink:href="#DejaVuSans-30" x="63.623047"/>
       <use xlink:href="#DejaVuSans-30" x="127.246094"/>
       <use xlink:href="#DejaVuSans-30" x="190.869141"/>
      </g>
     </g>
    </g>
    <g id="text_6">
     <!-- Base -->
     <g transform="translate(223.984219 335.860562) scale(0.1 -0.1)">
      <defs>
       <path id="DejaVuSans-42" d="M 1259 2228 
L 1259 519 
L 2272 519 
Q 2781 519 3026 730 
Q 3272 941 3272 1375 
Q 3272 1813 3026 2020 
Q 2781 2228 2272 2228 
L 1259 2228 
z
M 1259 4147 
L 1259 2741 
L 2194 2741 
Q 2656 2741 2882 2914 
Q 3109 3088 3109 3444 
Q 3109 3797 2882 3972 
Q 2656 4147 2194 4147 
L 1259 4147 
z
M 628 4666 
L 2241 4666 
Q 2963 4666 3353 4366 
Q 3744 4066 3744 3513 
Q 3744 3084 3544 2831 
Q 3344 2578 2956 2516 
Q 3422 2416 3680 2098 
Q 3938 1781 3938 1306 
Q 3938 681 3513 340 
Q 3088 0 2303 0 
L 628 0 
L 628 4666 
z
" transform="scale(0.015625)"/>
       <path id="DejaVuSans-61" d="M 2194 1759 
Q 1497 1759 1228 1600 
Q 959 1441 959 1056 
Q 959 750 1161 570 
Q 1363 391 1709 391 
Q 2188 391 2477 730 
Q 2766 1069 2766 1631 
L 2766 1759 
L 2194 1759 
z
M 3341 1997 
L 3341 0 
L 2766 0 
L 2766 531 
Q 2569 213 2275 61 
Q 1981 -91 1556 -91 
Q 1019 -91 701 211 
Q 384 513 384 1019 
Q 384 1609 779 1909 
Q 1175 2209 1959 2209 
L 2766 2209 
L 2766 2266 
Q 2766 2663 2505 2880 
Q 2244 3097 1772 3097 
Q 1472 3097 1187 3025 
Q 903 2953 641 2809 
L 641 3341 
Q 956 3463 1253 3523 
Q 1550 3584 1831 3584 
Q 2591 3584 2966 3190 
Q 3341 2797 3341 1997 
z
" transform="scale(0.015625)"/>
       <path id="DejaVuSans-73" d="M 2834 3397 
L 2834 2853 
Q 2591 2978 2328 3040 
Q 2066 3103 1784 3103 
Q 1356 3103 1142 2972 
Q 928 2841 928 2578 
Q 928 2378 1081 2264 
Q 1234 2150 1697 2047 
L 1894 2003 
Q 2506 1872 2764 1633 
Q 3022 1394 3022 966 
Q 3022 478 2636 193 
Q 2250 -91 1575 -91 
Q 1294 -91 989 -36 
Q 684 19 347 128 
L 347 722 
Q 666 556 975 473 
Q 1284 391 1588 391 
Q 1994 391 2212 530 
Q 2431 669 2431 922 
Q 2431 1156 2273 1281 
Q 2116 1406 1581 1522 
L 1381 1569 
Q 847 1681 609 1914 
Q 372 2147 372 2553 
Q 372 3047 722 3315 
Q 1072 3584 1716 3584 
Q 2034 3584 2315 3537 
Q 2597 3491 2834 3397 
z
" transform="scale(0.015625)"/>
       <path id="DejaVuSans-65" d="M 3597 1894 
L 3597 1613 
L 953 1613 
Q 991 1019 1311 708 
Q 1631 397 2203 397 
Q 2534 397 2845 478 
Q 3156 559 3463 722 
L 3463 178 
Q 3153 47 2828 -22 
Q 2503 -91 2169 -91 
Q 1331 -91 842 396 
Q 353 884 353 1716 
Q 353 2575 817 3079 
Q 1281 3584 2069 3584 
Q 2775 3584 3186 3129 
Q 3597 2675 3597 1894 
z
M 3022 2063 
Q 3016 2534 2758 2815 
Q 2500 3097 2075 3097 
Q 1594 3097 1305 2825 
Q 1016 2553 972 2059 
L 3022 2063 
z
" transform="scale(0.015625)"/>
      </defs>
      <use xlink:href="#DejaVuSans-42"/>
      <use xlink:href="#DejaVuSans-61" x="68.603516"/>
      <use xlink:href="#DejaVuSans-73" x="129.882812"/>
      <use xlink:href="#DejaVuSans-65" x="181.982422"/>
     </g>
    </g>
   </g>
   <g id="matplotlib.axis_2">
    <g id="ytick_1">
     <g id="line2d_6">
      <defs>
       <path id="ma613f461e3" d="M 0 0 
L -3.5 0 
" style="stroke: #000000; stroke-width: 0.8"/>
      </defs>
      <g>
       <use xlink:href="#ma613f461e3" x="57.6" y="295.488" style="stroke: #000000; stroke-width: 0.8"/>
      </g>
     </g>
     <g id="text_7">
      <!-- 0 -->
      <g transform="translate(44.2375 299.287219) scale(0.1 -0.1)">
       <use xlink:href="#DejaVuSans-30"/>
      </g>
     </g>
    </g>
    <g id="ytick_2">
     <g id="line2d_7">
      <g>
       <use xlink:href="#ma613f461e3" x="57.6" y="244.216591" style="stroke: #000000; stroke-width: 0.8"/>
      </g>
     </g>
     <g id="text_8">
      <!-- 2 -->
      <g transform="translate(44.2375 248.015809) scale(0.1 -0.1)">
       <use xlink:href="#DejaVuSans-32"/>
      </g>
     </g>
    </g>
    <g id="ytick_3">
     <g id="line2d_8">
      <g>
       <use xlink:href="#ma613f461e3" x="57.6" y="192.945181" style="stroke: #000000; stroke-width: 0.8"/>
      </g>
     </g>
     <g id="text_9">
      <!-- 4 -->
      <g transform="translate(44.2375 196.7444) scale(0.1 -0.1)">
       <use xlink:href="#DejaVuSans-34"/>
      </g>
     </g>
    </g>
    <g id="ytick_4">
     <g id="line2d_9">
      <g>
       <use xlink:href="#ma613f461e3" x="57.6" y="141.673772" style="stroke: #000000; stroke-width: 0.8"/>
      </g>
     </g>
     <g id="text_10">
      <!-- 6 -->
      <g transform="translate(44.2375 145.47299) scale(0.1 -0.1)">
       <defs>
        <path id="DejaVuSans-36" d="M 2113 2584 
Q 1688 2584 1439 2293 
Q 1191 2003 1191 1497 
Q 1191 994 1439 701 
Q 1688 409 2113 409 
Q 2538 409 2786 701 
Q 3034 994 3034 1497 
Q 3034 2003 2786 2293 
Q 2538 2584 2113 2584 
z
M 3366 4563 
L 3366 3988 
Q 3128 4100 2886 4159 
Q 2644 4219 2406 4219 
Q 1781 4219 1451 3797 
Q 1122 3375 1075 2522 
Q 1259 2794 1537 2939 
Q 1816 3084 2150 3084 
Q 2853 3084 3261 2657 
Q 3669 2231 3669 1497 
Q 3669 778 3244 343 
Q 2819 -91 2113 -91 
Q 1303 -91 875 529 
Q 447 1150 447 2328 
Q 447 3434 972 4092 
Q 1497 4750 2381 4750 
Q 2619 4750 2861 4703 
Q 3103 4656 3366 4563 
z
" transform="scale(0.015625)"/>
       </defs>
       <use xlink:href="#DejaVuSans-36"/>
      </g>
     </g>
    </g>
    <g id="ytick_5">
     <g id="line2d_10">
      <g>
       <use xlink:href="#ma613f461e3" x="57.6" y="90.402362" style="stroke: #000000; stroke-width: 0.8"/>
      </g>
     </g>
     <g id="text_11">
      <!-- 8 -->
      <g transform="translate(44.2375 94.201581) scale(0.1 -0.1)">
       <defs>
        <path id="DejaVuSans-38" d="M 2034 2216 
Q 1584 2216 1326 1975 
Q 1069 1734 1069 1313 
Q 1069 891 1326 650 
Q 1584 409 2034 409 
Q 2484 409 2743 651 
Q 3003 894 3003 1313 
Q 3003 1734 2745 1975 
Q 2488 2216 2034 2216 
z
M 1403 2484 
Q 997 2584 770 2862 
Q 544 3141 544 3541 
Q 544 4100 942 4425 
Q 1341 4750 2034 4750 
Q 2731 4750 3128 4425 
Q 3525 4100 3525 3541 
Q 3525 3141 3298 2862 
Q 3072 2584 2669 2484 
Q 3125 2378 3379 2068 
Q 3634 1759 3634 1313 
Q 3634 634 3220 271 
Q 2806 -91 2034 -91 
Q 1263 -91 848 271 
Q 434 634 434 1313 
Q 434 1759 690 2068 
Q 947 2378 1403 2484 
z
M 1172 3481 
Q 1172 3119 1398 2916 
Q 1625 2713 2034 2713 
Q 2441 2713 2670 2916 
Q 2900 3119 2900 3481 
Q 2900 3844 2670 4047 
Q 2441 4250 2034 4250 
Q 1625 4250 1398 4047 
Q 1172 3844 1172 3481 
z
" transform="scale(0.015625)"/>
       </defs>
       <use xlink:href="#DejaVuSans-38"/>
      </g>
     </g>
    </g>
    <g id="text_12">
     <!-- Coverage (log10) -->
     <g transform="translate(38.157812 217.960813) rotate(-90) scale(0.1 -0.1)">
      <defs>
       <path id="DejaVuSans-43" d="M 4122 4306 
L 4122 3641 
Q 3803 3938 3442 4084 
Q 3081 4231 2675 4231 
Q 1875 4231 1450 3742 
Q 1025 3253 1025 2328 
Q 1025 1406 1450 917 
Q 1875 428 2675 428 
Q 3081 428 3442 575 
Q 3803 722 4122 1019 
L 4122 359 
Q 3791 134 3420 21 
Q 3050 -91 2638 -91 
Q 1578 -91 968 557 
Q 359 1206 359 2328 
Q 359 3453 968 4101 
Q 1578 4750 2638 4750 
Q 3056 4750 3426 4639 
Q 3797 4528 4122 4306 
z
" transform="scale(0.015625)"/>
       <path id="DejaVuSans-6f" d="M 1959 3097 
Q 1497 3097 1228 2736 
Q 959 2375 959 1747 
Q 959 1119 1226 758 
Q 1494 397 1959 397 
Q 2419 397 2687 759 
Q 2956 1122 2956 1747 
Q 2956 2369 2687 2733 
Q 2419 3097 1959 3097 
z
M 1959 3584 
Q 2709 3584 3137 3096 
Q 3566 2609 3566 1747 
Q 3566 888 3137 398 
Q 2709 -91 1959 -91 
Q 1206 -91 779 398 
Q 353 888 353 1747 
Q 353 2609 779 3096 
Q 1206 3584 1959 3584 
z
" transform="scale(0.015625)"/>
       <path id="DejaVuSans-76" d="M 191 3500 
L 800 3500 
L 1894 563 
L 2988 3500 
L 3597 3500 
L 2284 0 
L 1503 0 
L 191 3500 
z
" transform="scale(0.015625)"/>
       <path id="DejaVuSans-72" d="M 2631 2963 
Q 2534 3019 2420 3045 
Q 2306 3072 2169 3072 
Q 1681 3072 1420 2755 
Q 1159 2438 1159 1844 
L 1159 0 
L 581 0 
L 581 3500 
L 1159 3500 
L 1159 2956 
Q 1341 3275 1631 3429 
Q 1922 3584 2338 3584 
Q 2397 3584 2469 3576 
Q 2541 3569 2628 3553 
L 2631 2963 
z
" transform="scale(0.015625)"/>
       <path id="DejaVuSans-67" d="M 2906 1791 
Q 2906 2416 2648 2759 
Q 2391 3103 1925 3103 
Q 1463 3103 1205 2759 
Q 947 2416 947 1791 
Q 947 1169 1205 825 
Q 1463 481 1925 481 
Q 2391 481 2648 825 
Q 2906 1169 2906 1791 
z
M 3481 434 
Q 3481 -459 3084 -895 
Q 2688 -1331 1869 -1331 
Q 1566 -1331 1297 -1286 
Q 1028 -1241 775 -1147 
L 775 -588 
Q 1028 -725 1275 -790 
Q 1522 -856 1778 -856 
Q 2344 -856 2625 -561 
Q 2906 -266 2906 331 
L 2906 616 
Q 2728 306 2450 153 
Q 2172 0 1784 0 
Q 1141 0 747 490 
Q 353 981 353 1791 
Q 353 2603 747 3093 
Q 1141 3584 1784 3584 
Q 2172 3584 2450 3431 
Q 2728 3278 2906 2969 
L 2906 3500 
L 3481 3500 
L 3481 434 
z
" transform="scale(0.015625)"/>
       <path id="DejaVuSans-20" transform="scale(0.015625)"/>
       <path id="DejaVuSans-28" d="M 1984 4856 
Q 1566 4138 1362 3434 
Q 1159 2731 1159 2009 
Q 1159 1288 1364 580 
Q 1569 -128 1984 -844 
L 1484 -844 
Q 1016 -109 783 600 
Q 550 1309 550 2009 
Q 550 2706 781 3412 
Q 1013 4119 1484 4856 
L 1984 4856 
z
" transform="scale(0.015625)"/>
       <path id="DejaVuSans-6c" d="M 603 4863 
L 1178 4863 
L 1178 0 
L 603 0 
L 603 4863 
z
" transform="scale(0.015625)"/>
       <path id="DejaVuSans-29" d="M 513 4856 
L 1013 4856 
Q 1481 4119 1714 3412 
Q 1947 2706 1947 2009 
Q 1947 1309 1714 600 
Q 1481 -109 1013 -844 
L 513 -844 
Q 928 -128 1133 580 
Q 1338 1288 1338 2009 
Q 1338 2731 1133 3434 
Q 928 4138 513 4856 
z
" transform="scale(0.015625)"/>
      </defs>
      <use xlink:href="#DejaVuSans-43"/>
      <use xlink:href="#DejaVuSans-6f" x="69.824219"/>
      <use xlink:href="#DejaVuSans-76" x="131.005859"/>
      <use xlink:href="#DejaVuSans-65" x="190.185547"/>
      <use xlink:href="#DejaVuSans-72" x="251.708984"/>
      <use xlink:href="#DejaVuSans-61" x="292.822266"/>
      <use xlink:href="#DejaVuSans-67" x="354.101562"/>
      <use xlink:href="#DejaVuSans-65" x="417.578125"/>
      <use xlink:href="#DejaVuSans-20" x="479.101562"/>
      <use xlink:href="#DejaVuSans-28" x="510.888672"/>
      <use xlink:href="#DejaVuSans-6c" x="549.902344"/>
      <use xlink:href="#DejaVuSans-6f" x="577.685547"/>
      <use xlink:href="#DejaVuSans-67" x="638.867188"/>
      <use xlink:href="#DejaVuSans-31" x="702.34375"/>
      <use xlink:href="#DejaVuSans-30" x="765.966797"/>
      <use xlink:href="#DejaVuSans-29" x="829.589844"/>
     </g>
    </g>
   </g>
   <g id="line2d_11">
    <path d="M 73.832727 295.488 
L 73.988512 254.228925 
L 74.144296 259.949367 
L 76.948414 295.488 
L 80.453561 295.488 
L 80.609346 277.718684 
L 80.687238 295.488 
L 84.815523 295.488 
L 84.971307 229.733716 
L 85.049199 229.733716 
L 85.204983 234.016265 
L 85.360768 229.733716 
L 85.516552 295.488 
L 89.099592 295.488 
L 89.255376 259.949367 
L 89.333268 277.718684 
L 90.11219 295.488 
L 90.657435 267.3243 
L 90.813219 267.3243 
L 92.29317 196.786753 
L 92.371063 197.33808 
L 92.448955 197.33808 
L 92.604739 295.488 
L 92.760523 277.718684 
L 92.838416 295.488 
L 94.707828 277.718684 
L 94.863612 267.3243 
L 94.941504 295.488 
L 96.421455 295.488 
L 96.499347 277.718684 
L 96.655132 295.488 
L 102.574936 295.488 
L 104.288564 254.228925 
L 104.366456 254.228925 
L 104.52224 267.3243 
L 104.755917 267.3243 
L 105.067486 295.488 
L 109.974692 295.488 
L 110.675722 254.228925 
L 110.831506 224.410734 
L 110.98729 245.603222 
L 112.389349 295.488 
L 113.557732 295.488 
L 113.713516 249.554983 
L 113.8693 249.554983 
L 114.648222 295.488 
L 114.804006 249.554983 
L 114.959791 249.554983 
L 115.037683 295.488 
L 123.138468 295.488 
L 123.683713 249.554983 
L 123.91739 277.718684 
L 124.073174 277.718684 
L 124.462635 295.488 
L 124.618419 277.718684 
L 124.696311 295.488 
L 126.409939 295.488 
L 126.565723 277.718684 
L 126.643615 277.718684 
L 126.7994 295.488 
L 127.033076 259.949367 
L 127.188861 259.949367 
L 127.344645 295.488 
L 127.500429 245.603222 
L 127.656214 259.949367 
L 128.59092 295.488 
L 128.98038 295.488 
L 129.136165 267.3243 
L 129.447733 267.3243 
L 131.317145 295.488 
L 133.342342 295.488 
L 133.576018 259.949367 
L 133.731802 295.488 
L 133.887587 277.718684 
L 133.965479 277.718684 
L 134.121263 295.488 
L 134.199155 295.488 
L 134.35494 277.718684 
L 134.666508 277.718684 
L 134.822293 254.228925 
L 134.978077 254.228925 
L 137.782195 277.718684 
L 137.937979 267.3243 
L 138.015872 277.718684 
L 138.716901 295.488 
L 138.794793 295.488 
L 138.950578 277.718684 
L 139.02847 277.718684 
L 139.963176 295.488 
L 140.81999 277.718684 
L 140.897882 295.488 
L 141.131558 242.180051 
L 141.443127 242.180051 
L 141.521019 231.785667 
L 141.754696 277.718684 
L 142.533617 295.488 
L 142.611509 295.488 
L 143.624107 254.228925 
L 144.013568 254.228925 
L 144.247245 190.957454 
L 144.403029 192.295273 
L 144.480921 193.227583 
L 145.493519 295.488 
L 146.661902 295.488 
L 146.817686 277.718684 
L 146.895578 295.488 
L 147.051363 277.718684 
L 147.207147 277.718684 
L 147.362931 267.3243 
L 147.518716 277.718684 
L 147.596608 277.718684 
L 147.908177 267.3243 
L 148.219745 295.488 
L 149.46602 295.488 
L 149.933373 277.718684 
L 150.011265 267.3243 
L 150.167049 295.488 
L 154.295334 295.488 
L 154.451118 205.087263 
L 154.529011 205.087263 
L 154.684795 205.852565 
L 154.762687 277.718684 
L 155.463717 295.488 
L 155.697393 205.852565 
L 155.853177 205.852565 
L 156.086854 204.344147 
L 158.267835 227.833906 
L 158.345727 226.065225 
L 158.501511 229.733716 
L 158.657295 249.554983 
L 158.81308 249.554983 
L 158.890972 254.228925 
L 159.046756 295.488 
L 159.202541 259.949367 
L 159.280433 295.488 
L 161.071953 295.488 
L 161.227737 277.718684 
L 161.305629 277.718684 
L 161.461413 295.488 
L 162.240335 295.488 
L 163.642394 277.718684 
L 163.720286 259.949367 
L 163.798178 267.3243 
L 164.5771 267.3243 
L 165.122345 295.488 
L 167.926463 295.488 
L 168.627493 277.718684 
L 168.783277 295.488 
L 170.730581 295.488 
L 170.964258 267.3243 
L 171.275826 267.3243 
L 171.431611 277.718684 
L 171.587395 277.718684 
L 172.444209 254.228925 
L 172.599993 226.065225 
L 172.677885 226.065225 
L 172.83367 236.459608 
L 173.22313 236.459608 
L 173.301023 277.718684 
L 173.378915 267.3243 
L 173.456807 267.3243 
L 173.690483 249.554983 
L 173.768376 249.554983 
L 173.92416 259.949367 
L 174.079944 245.603222 
L 174.157836 254.228925 
L 174.235728 206.641418 
L 174.313621 210.996899 
L 174.625189 210.996899 
L 174.703081 198.477632 
L 174.858866 222.856579 
L 174.936758 222.856579 
L 175.092542 218.690292 
L 175.170434 221.391283 
L 175.326219 295.488 
L 175.482003 267.3243 
L 178.052445 254.228925 
L 178.130337 254.228925 
L 178.441905 295.488 
L 178.675582 295.488 
L 179.610288 259.949367 
L 179.766072 220.005232 
L 179.999749 220.005232 
L 180.155533 217.439522 
L 180.233425 217.439522 
L 180.311317 295.488 
L 180.700778 277.718684 
L 180.856563 259.949367 
L 181.012347 267.3243 
L 181.090239 267.3243 
L 182.102837 295.488 
L 182.258622 295.488 
L 182.414406 277.718684 
L 182.492298 277.718684 
L 182.648082 295.488 
L 182.725975 295.488 
L 182.959651 239.1606 
L 183.037543 229.733716 
L 183.115435 231.785667 
L 183.27122 259.949367 
L 183.504896 249.554983 
L 183.660681 267.3243 
L 183.738573 267.3243 
L 183.894357 295.488 
L 184.050141 226.065225 
L 184.128034 227.833906 
L 184.36171 224.410734 
L 184.439602 224.410734 
L 184.595386 190.957454 
L 184.751171 190.526592 
L 184.829063 190.526592 
L 184.984847 227.833906 
L 185.4522 227.833906 
L 185.685877 224.410734 
L 185.763769 210.996899 
L 185.841661 211.964399 
L 185.919553 211.964399 
L 186.075338 212.96985 
L 186.231122 212.96985 
L 186.386906 227.833906 
L 186.542691 218.690292 
L 186.698475 221.391283 
L 186.854259 227.833906 
L 189.969946 227.833906 
L 190.12573 217.439522 
L 190.359407 215.107396 
L 190.515191 218.690292 
L 190.670975 227.833906 
L 190.904652 227.833906 
L 191.138328 222.856579 
L 191.294113 208.295908 
L 191.372005 208.295908 
L 191.527789 210.064589 
L 191.683574 210.064589 
L 191.839358 227.833906 
L 191.995142 227.833906 
L 192.150927 226.065225 
L 192.306711 227.833906 
L 193.319309 227.833906 
L 193.475093 222.856579 
L 193.630878 222.856579 
L 193.70877 221.391283 
L 193.786662 217.439522 
L 193.942446 220.005232 
L 194.098231 221.391283 
L 194.176123 218.690292 
L 194.487692 226.065225 
L 194.643476 227.833906 
L 195.344505 227.833906 
L 196.045535 295.488 
L 196.201319 242.180051 
L 196.434996 216.246948 
L 196.512888 216.246948 
L 196.668672 218.690292 
L 196.824456 218.690292 
L 197.213917 295.488 
L 197.525486 295.488 
L 197.68127 277.718684 
L 197.759162 295.488 
L 198.460192 295.488 
L 198.615976 239.1606 
L 198.771761 239.1606 
L 198.927545 242.180051 
L 199.161221 277.718684 
L 199.239114 277.718684 
L 199.862251 295.488 
L 200.56328 295.488 
L 201.26431 249.554983 
L 201.420094 227.833906 
L 201.497986 234.016265 
L 201.653771 254.228925 
L 202.043232 254.228925 
L 202.588477 239.1606 
L 202.744261 245.603222 
L 203.523183 295.488 
L 205.158918 295.488 
L 205.314702 254.228925 
L 205.626271 254.228925 
L 206.093624 295.488 
L 207.417791 295.488 
L 207.573575 277.718684 
L 207.72936 295.488 
L 209.598772 295.488 
L 209.832448 254.228925 
L 210.144017 254.228925 
L 210.221909 249.554983 
L 210.299801 295.488 
L 212.714458 295.488 
L 213.727056 242.180051 
L 213.882841 242.180051 
L 214.038625 295.488 
L 214.350194 295.488 
L 214.505978 239.1606 
L 214.58387 239.1606 
L 214.661762 242.180051 
L 214.817547 267.3243 
L 215.596468 295.488 
L 215.752253 267.3243 
L 215.830145 295.488 
L 217.46588 295.488 
L 217.777449 207.455318 
L 217.855341 207.455318 
L 217.933233 206.641418 
L 218.089018 207.455318 
L 218.16691 227.833906 
L 218.244802 277.718684 
L 218.790047 295.488 
L 219.101616 295.488 
L 219.646861 259.949367 
L 219.802645 259.949367 
L 220.192106 277.718684 
L 220.34789 277.718684 
L 220.503675 295.488 
L 223.463577 295.488 
L 223.619361 267.3243 
L 223.93093 267.3243 
L 224.086714 295.488 
L 230.707548 295.488 
L 230.863333 267.3243 
L 231.642254 295.488 
L 231.720147 295.488 
L 231.953823 222.856579 
L 232.031715 222.856579 
L 232.1875 234.016265 
L 232.343284 277.718684 
L 232.499068 277.718684 
L 232.654853 295.488 
L 232.966421 277.718684 
L 233.122206 192.295273 
L 233.27799 193.227583 
L 233.355882 197.33808 
L 233.589559 295.488 
L 234.056912 295.488 
L 234.212696 239.1606 
L 234.36848 236.459608 
L 234.524265 295.488 
L 234.835833 277.718684 
L 234.913725 295.488 
L 237.717843 295.488 
L 237.873628 267.3243 
L 237.95152 277.718684 
L 238.652549 190.526592 
L 238.808334 190.957454 
L 238.886226 194.195083 
L 239.04201 214.01635 
L 239.587255 259.949367 
L 239.665147 249.554983 
L 239.820932 217.439522 
L 239.976716 229.733716 
L 240.054608 295.488 
L 241.690344 295.488 
L 241.92402 254.228925 
L 242.001912 254.228925 
L 242.079805 267.3243 
L 243.637648 295.488 
L 243.793432 295.488 
L 244.105001 277.718684 
L 244.260785 277.718684 
L 244.41657 295.488 
L 245.429168 295.488 
L 245.50706 267.3243 
L 245.584952 277.718684 
L 246.052305 277.718684 
L 246.208089 206.641418 
L 246.363874 210.064589 
L 246.59755 210.064589 
L 246.753334 295.488 
L 246.909119 267.3243 
L 246.987011 295.488 
L 249.012207 295.488 
L 249.090099 277.718684 
L 249.167992 295.488 
L 249.323776 267.3243 
L 249.401668 267.3243 
L 249.47956 295.488 
L 249.635345 267.3243 
L 249.791129 277.718684 
L 249.869021 277.718684 
L 250.18059 295.488 
L 250.336374 227.833906 
L 250.492158 196.786753 
L 250.570051 196.786753 
L 250.725835 196.247034 
L 250.803727 295.488 
L 252.127894 236.459608 
L 252.205786 239.1606 
L 252.283678 231.785667 
L 252.439463 295.488 
L 252.751031 245.603222 
L 252.906816 242.180051 
L 252.984708 295.488 
L 254.15309 183.800699 
L 254.464659 183.800699 
L 254.542551 184.131487 
L 254.698335 259.949367 
L 254.776228 295.488 
L 255.165688 259.949367 
L 255.321473 267.3243 
L 255.399365 267.3243 
L 256.022502 295.488 
L 256.178287 295.488 
L 256.256179 277.718684 
L 256.411963 295.488 
L 257.502453 295.488 
L 257.658238 216.246948 
L 257.814022 217.439522 
L 258.047698 217.439522 
L 258.203483 277.718684 
L 258.592944 267.3243 
L 258.670836 267.3243 
L 258.748728 259.949367 
L 258.904512 295.488 
L 259.060297 227.833906 
L 259.138189 227.833906 
L 259.293973 231.785667 
L 259.449757 229.733716 
L 259.52765 267.3243 
L 259.995003 277.718684 
L 260.072895 277.718684 
L 260.150787 295.488 
L 260.929709 295.488 
L 261.630738 204.344147 
L 261.70863 201.570015 
L 261.786522 202.235915 
L 262.020199 205.852565 
L 262.40966 295.488 
L 262.565444 295.488 
L 263.967503 242.180051 
L 264.123287 227.833906 
L 264.512748 295.488 
L 265.759023 295.488 
L 266.304268 194.195083 
L 266.537945 192.295273 
L 266.615837 254.228925 
L 267.005298 295.488 
L 267.161082 236.459608 
L 267.238974 236.459608 
L 267.316866 245.603222 
L 267.394758 277.718684 
L 267.550543 200.920976 
L 267.706327 201.570015 
L 267.784219 206.641418 
L 267.940003 249.554983 
L 268.17368 249.554983 
L 268.329464 231.785667 
L 268.563141 254.228925 
L 268.718925 254.228925 
L 269.030494 245.603222 
L 269.186278 194.195083 
L 269.26417 194.195083 
L 269.419955 193.227583 
L 269.497847 295.488 
L 269.809415 295.488 
L 270.666229 277.718684 
L 270.822014 259.949367 
L 272.301965 245.603222 
L 272.457749 245.603222 
L 273.626132 295.488 
L 273.704024 249.554983 
L 273.781916 254.228925 
L 273.9377 254.228925 
L 274.560838 277.718684 
L 274.950298 277.718684 
L 275.028191 267.3243 
L 275.106083 295.488 
L 275.72922 295.488 
L 275.885004 254.228925 
L 275.962897 254.228925 
L 276.040789 245.603222 
L 276.274465 259.949367 
L 276.43025 295.488 
L 278.299661 295.488 
L 278.455446 267.3243 
L 278.61123 277.718684 
L 278.767014 277.718684 
L 279.623828 295.488 
L 280.714319 295.488 
L 280.792211 277.718684 
L 280.947995 295.488 
L 281.025887 295.488 
L 282.272162 201.570015 
L 282.427946 201.570015 
L 282.505838 209.164998 
L 283.051084 295.488 
L 283.907897 295.488 
L 284.531035 277.718684 
L 284.686819 277.718684 
L 284.842603 267.3243 
L 284.920496 267.3243 
L 285.154172 295.488 
L 285.232064 295.488 
L 285.387849 259.949367 
L 285.465741 267.3243 
L 285.543633 277.718684 
L 285.621525 249.554983 
L 285.699417 254.228925 
L 285.855202 245.603222 
L 287.101476 208.295908 
L 287.257261 200.920976 
L 287.568829 188.872101 
L 287.724614 222.856579 
L 287.95829 222.856579 
L 288.036182 236.459608 
L 288.269859 295.488 
L 288.347751 295.488 
L 288.581427 193.706769 
L 288.815104 198.477632 
L 289.983486 259.949367 
L 290.061378 254.228925 
L 290.217163 259.949367 
L 290.372947 295.488 
L 291.54133 295.488 
L 291.697114 267.3243 
L 291.852898 295.488 
L 292.398143 295.488 
L 292.553928 277.718684 
L 293.644418 267.3243 
L 293.72231 295.488 
L 294.033879 295.488 
L 294.189663 242.180051 
L 294.345448 267.3243 
L 294.890693 295.488 
L 297.772703 295.488 
L 297.928487 277.718684 
L 298.006379 277.718684 
L 298.084272 267.3243 
L 298.240056 277.718684 
L 298.317948 221.391283 
L 298.39584 224.410734 
L 298.473732 224.410734 
L 298.629517 216.246948 
L 298.707409 212.96985 
L 298.785301 214.01635 
L 298.941085 277.718684 
L 299.09687 259.949367 
L 299.174762 295.488 
L 301.122066 277.718684 
L 301.27785 277.718684 
L 301.433635 295.488 
L 315.064764 295.488 
L 315.220548 277.718684 
L 315.376332 295.488 
L 315.532117 295.488 
L 315.610009 234.016265 
L 315.687901 236.459608 
L 315.843685 245.603222 
L 316.700499 267.3243 
L 316.934176 176.673456 
L 317.08996 174.987873 
L 317.245744 175.221991 
L 317.323636 259.949367 
L 318.647803 267.3243 
L 318.803588 259.949367 
L 318.959372 259.949367 
L 320.984568 249.554983 
L 321.140352 249.554983 
L 321.296137 259.949367 
L 322.620304 222.856579 
L 322.698196 222.856579 
L 322.931872 218.690292 
L 323.009764 221.391283 
L 323.243441 295.488 
L 323.477117 249.554983 
L 323.710794 242.180051 
L 323.788686 249.554983 
L 323.94447 277.718684 
L 324.723392 277.718684 
L 324.879176 202.919575 
L 325.034961 200.287963 
L 325.112853 202.919575 
L 325.190745 202.235915 
L 325.268637 202.235915 
L 325.424422 242.180051 
L 326.281235 267.3243 
L 326.748588 267.3243 
L 328.22854 210.064589 
L 328.306432 210.064589 
L 328.540108 277.718684 
L 328.695893 229.733716 
L 328.851677 229.733716 
L 329.007461 242.180051 
L 331.188442 277.718684 
L 331.266334 295.488 
L 332.278932 277.718684 
L 332.356824 277.718684 
L 332.590501 295.488 
L 332.979962 295.488 
L 333.057854 254.228925 
L 333.135746 259.949367 
L 333.29153 259.949367 
L 333.836775 295.488 
L 333.914668 295.488 
L 335.550403 277.718684 
L 335.861972 277.718684 
L 337.186139 295.488 
L 337.419815 242.180051 
L 337.497707 249.554983 
L 337.887168 267.3243 
L 338.042952 267.3243 
L 338.198737 277.718684 
L 338.276629 277.718684 
L 338.432413 295.488 
L 340.379717 295.488 
L 340.535502 200.287963 
L 340.691286 198.477632 
L 340.769178 198.477632 
L 340.84707 259.949367 
L 342.249129 267.3243 
L 342.327021 295.488 
L 346.299522 295.488 
L 346.455306 277.718684 
L 346.611091 295.488 
L 347.234228 295.488 
L 347.467904 267.3243 
L 347.545797 295.488 
L 348.091042 295.488 
L 348.246826 227.833906 
L 348.40261 218.690292 
L 348.558395 227.833906 
L 349.804669 277.718684 
L 349.882562 267.3243 
L 350.038346 295.488 
L 350.817267 295.488 
L 350.89516 249.554983 
L 350.973052 254.228925 
L 351.050944 245.603222 
L 351.362513 171.102785 
L 351.440405 171.102785 
L 351.596189 171.506505 
L 351.751973 267.3243 
L 351.907758 267.3243 
L 352.141434 295.488 
L 352.219326 295.488 
L 352.297219 234.016265 
L 352.375111 236.459608 
L 352.530895 245.603222 
L 353.154032 259.949367 
L 353.309817 254.228925 
L 354.088738 254.228925 
L 354.166631 295.488 
L 354.945552 254.228925 
L 355.101337 259.949367 
L 355.257121 295.488 
L 356.581288 295.488 
L 357.282317 277.718684 
L 357.905455 295.488 
L 359.307514 295.488 
L 359.463298 277.718684 
L 359.619082 295.488 
L 359.696974 295.488 
L 359.852759 254.228925 
L 359.930651 259.949367 
L 360.086435 267.3243 
L 360.320112 267.3243 
L 360.475896 259.949367 
L 360.63168 179.848938 
L 360.709573 179.848938 
L 360.787465 180.132208 
L 360.865357 181.900889 
L 361.176925 277.718684 
L 361.254818 267.3243 
L 361.33271 295.488 
L 361.488494 249.554983 
L 361.644278 249.554983 
L 361.722171 295.488 
L 363.12423 295.488 
L 363.280014 277.718684 
L 363.435798 295.488 
L 364.058936 277.718684 
L 364.136828 295.488 
L 365.227318 267.3243 
L 365.383102 245.603222 
L 365.538887 249.554983 
L 365.616779 249.554983 
L 365.772563 259.949367 
L 366.317808 259.949367 
L 366.395701 267.3243 
L 367.641975 295.488 
L 368.654573 295.488 
L 368.88825 259.949367 
L 368.966142 267.3243 
L 369.121926 295.488 
L 369.667172 267.3243 
L 369.745064 254.228925 
L 369.97874 277.718684 
L 370.913446 295.488 
L 371.225015 295.488 
L 371.458691 239.1606 
L 371.536583 231.785667 
L 371.848152 167.905923 
L 372.003936 142.607441 
L 372.159721 71.824294 
L 372.393397 70.44548 
L 372.549182 70.186214 
L 372.627074 70.158869 
L 372.86075 68.34286 
L 373.016535 68.078702 
L 373.250211 66.855547 
L 373.405995 66.752785 
L 373.639672 66.044757 
L 374.65227 63.050814 
L 374.885947 60.737993 
L 374.963839 60.670491 
L 375.119623 59.152368 
L 375.586976 57.767253 
L 375.820653 56.341314 
L 375.976437 56.006439 
L 376.132221 55.842861 
L 376.365898 54.820405 
L 376.44379 54.768945 
L 376.599574 54.255748 
L 376.755359 54.199122 
L 376.989035 54.046646 
L 377.222712 54.061228 
L 377.378496 54.138441 
L 377.456388 63.435379 
L 377.53428 63.33346 
L 377.612172 63.384369 
L 377.690065 63.841054 
L 377.767957 63.774009 
L 378.157418 62.226837 
L 378.313202 62.092521 
L 378.546878 60.412924 
L 378.624771 60.415594 
L 378.858447 60.007703 
L 378.936339 60.081384 
L 379.014231 59.970941 
L 379.092124 60.202893 
L 379.170016 60.076114 
L 379.3258 58.881864 
L 379.403692 58.997806 
L 379.637369 58.248483 
L 379.871045 58.287768 
L 379.948937 58.599257 
L 380.02683 58.495006 
L 380.338398 57.57774 
L 380.494183 57.427607 
L 380.572075 57.498989 
L 380.805751 58.758935 
L 380.961536 58.806531 
L 381.11732 54.491984 
L 381.195212 54.306187 
L 381.350996 53.568 
L 381.428889 53.570044 
L 381.740457 54.023749 
L 381.818349 53.982169 
L 382.129918 54.715451 
L 382.20781 54.593899 
L 382.363594 54.192838 
L 382.597271 54.052894 
L 382.675163 54.113373 
L 382.90884 53.982169 
L 382.986732 54.023749 
L 383.142516 53.901283 
L 383.2983 54.203312 
L 383.454085 58.881864 
L 383.531977 58.907024 
L 383.609869 59.093981 
L 383.843546 60.370247 
L 383.99933 60.189657 
L 384.077222 60.501171 
L 384.155114 60.420934 
L 384.310899 62.287079 
L 384.388791 62.281335 
L 384.700359 63.586001 
L 384.778252 63.582979 
L 385.011928 64.216067 
L 385.08982 64.120256 
L 385.245605 65.862508 
L 385.323497 66.014846 
L 385.557173 67.417695 
L 385.635065 67.614921 
L 385.712958 67.438754 
L 385.868742 67.632604 
L 385.946634 67.561944 
L 386.413987 70.767296 
L 386.647664 71.62095 
L 386.725556 71.43972 
L 386.803448 71.966344 
L 386.88134 73.897433 
L 387.037124 88.672909 
L 387.270801 90.687373 
L 387.348693 90.678679 
L 387.738154 92.265453 
L 387.816046 92.367385 
L 388.127615 93.613513 
L 388.361291 97.958166 
L 388.517076 98.260176 
L 388.67286 99.763991 
L 388.828644 100.492899 
L 388.906536 100.302392 
L 389.062321 102.49391 
L 389.295997 103.549026 
L 389.373889 104.042035 
L 389.451782 104.012771 
L 389.529674 104.115343 
L 389.841242 105.988061 
L 389.919135 105.924958 
L 389.997027 106.369978 
L 390.074919 109.305398 
L 390.152811 109.108406 
L 390.230703 109.019362 
L 390.386488 109.777122 
L 390.46438 109.740526 
L 390.620164 109.251522 
L 390.775948 109.431549 
L 390.853841 109.251522 
L 391.243301 110.652528 
L 391.321194 110.766464 
L 391.944331 113.728884 
L 392.178007 114.53176 
L 392.255899 114.399844 
L 392.411684 112.580045 
L 392.489576 108.231586 
L 392.567468 108.439304 
L 392.64536 108.45669 
L 392.723252 108.248832 
L 392.801145 109.467707 
L 392.879037 109.019362 
L 392.956929 109.233589 
L 393.034821 111.015078 
L 393.112713 110.69045 
L 393.190605 111.716402 
L 393.268498 111.324412 
L 393.34639 108.561254 
L 393.424282 108.877532 
L 393.502174 108.930626 
L 393.891635 110.201778 
L 393.969527 110.295033 
L 394.125311 110.842704 
L 394.203204 110.900034 
L 394.592664 111.775721 
L 394.670557 111.795525 
L 394.748449 112.074393 
L 394.904233 112.888294 
L 395.060017 113.200294 
L 395.215802 113.857384 
L 395.52737 114.509727 
L 396.072616 116.429875 
L 396.2284 117.127652 
L 396.306292 117.200932 
L 396.384184 117.471431 
L 396.539969 119.502789 
L 396.617861 119.961787 
L 396.851537 122.269276 
L 396.929429 122.328964 
L 397.163106 123.179515 
L 397.240998 123.30336 
L 398.01992 129.016044 
L 398.253596 131.929063 
L 398.409381 147.854495 
L 398.487273 181.297668 
L 398.487273 181.297668 
" clip-path="url(#p8c2ecf5ede)" style="fill: none; stroke: #1f77b4; stroke-width: 1.5; stroke-linecap: square"/>
   </g>
   <g id="line2d_12">
    <path d="M 389.607566 307.584 
L 389.607566 41.472 
" clip-path="url(#p8c2ecf5ede)" style="fill: none; stroke-dasharray: 5.55,2.4; stroke-dashoffset: 0; stroke: #ff0000; stroke-width: 1.5"/>
   </g>
   <g id="line2d_13">
    <path d="M 397.552567 307.584 
L 397.552567 41.472 
" clip-path="url(#p8c2ecf5ede)" style="fill: none; stroke-dasharray: 5.55,2.4; stroke-dashoffset: 0; stroke: #ff0000; stroke-width: 1.5"/>
   </g>
   <g id="patch_3">
    <path d="M 57.6 307.584 
L 57.6 41.472 
" style="fill: none; stroke: #000000; stroke-width: 0.8; stroke-linejoin: miter; stroke-linecap: square"/>
   </g>
   <g id="patch_4">
    <path d="M 414.72 307.584 
L 414.72 41.472 
" style="fill: none; stroke: #000000; stroke-width: 0.8; stroke-linejoin: miter; stroke-linecap: square"/>
   </g>
   <g id="patch_5">
    <path d="M 57.6 307.584 
L 414.72 307.584 
" style="fill: none; stroke: #000000; stroke-width: 0.8; stroke-linejoin: miter; stroke-linecap: square"/>
   </g>
   <g id="patch_6">
    <path d="M 57.6 41.472 
L 414.72 41.472 
" style="fill: none; stroke: #000000; stroke-width: 0.8; stroke-linejoin: miter; stroke-linecap: square"/>
   </g>
   <g id="text_13">
    <!-- Coverage per base Scaffold 11136 with RNA (46% coverage) -->
    <g transform="translate(53.275313 35.472) scale(0.12 -0.12)">
     <defs>
      <path id="DejaVuSans-70" d="M 1159 525 
L 1159 -1331 
L 581 -1331 
L 581 3500 
L 1159 3500 
L 1159 2969 
Q 1341 3281 1617 3432 
Q 1894 3584 2278 3584 
Q 2916 3584 3314 3078 
Q 3713 2572 3713 1747 
Q 3713 922 3314 415 
Q 2916 -91 2278 -91 
Q 1894 -91 1617 61 
Q 1341 213 1159 525 
z
M 3116 1747 
Q 3116 2381 2855 2742 
Q 2594 3103 2138 3103 
Q 1681 3103 1420 2742 
Q 1159 2381 1159 1747 
Q 1159 1113 1420 752 
Q 1681 391 2138 391 
Q 2594 391 2855 752 
Q 3116 1113 3116 1747 
z
" transform="scale(0.015625)"/>
      <path id="DejaVuSans-62" d="M 3116 1747 
Q 3116 2381 2855 2742 
Q 2594 3103 2138 3103 
Q 1681 3103 1420 2742 
Q 1159 2381 1159 1747 
Q 1159 1113 1420 752 
Q 1681 391 2138 391 
Q 2594 391 2855 752 
Q 3116 1113 3116 1747 
z
M 1159 2969 
Q 1341 3281 1617 3432 
Q 1894 3584 2278 3584 
Q 2916 3584 3314 3078 
Q 3713 2572 3713 1747 
Q 3713 922 3314 415 
Q 2916 -91 2278 -91 
Q 1894 -91 1617 61 
Q 1341 213 1159 525 
L 1159 0 
L 581 0 
L 581 4863 
L 1159 4863 
L 1159 2969 
z
" transform="scale(0.015625)"/>
      <path id="DejaVuSans-53" d="M 3425 4513 
L 3425 3897 
Q 3066 4069 2747 4153 
Q 2428 4238 2131 4238 
Q 1616 4238 1336 4038 
Q 1056 3838 1056 3469 
Q 1056 3159 1242 3001 
Q 1428 2844 1947 2747 
L 2328 2669 
Q 3034 2534 3370 2195 
Q 3706 1856 3706 1288 
Q 3706 609 3251 259 
Q 2797 -91 1919 -91 
Q 1588 -91 1214 -16 
Q 841 59 441 206 
L 441 856 
Q 825 641 1194 531 
Q 1563 422 1919 422 
Q 2459 422 2753 634 
Q 3047 847 3047 1241 
Q 3047 1584 2836 1778 
Q 2625 1972 2144 2069 
L 1759 2144 
Q 1053 2284 737 2584 
Q 422 2884 422 3419 
Q 422 4038 858 4394 
Q 1294 4750 2059 4750 
Q 2388 4750 2728 4690 
Q 3069 4631 3425 4513 
z
" transform="scale(0.015625)"/>
      <path id="DejaVuSans-63" d="M 3122 3366 
L 3122 2828 
Q 2878 2963 2633 3030 
Q 2388 3097 2138 3097 
Q 1578 3097 1268 2742 
Q 959 2388 959 1747 
Q 959 1106 1268 751 
Q 1578 397 2138 397 
Q 2388 397 2633 464 
Q 2878 531 3122 666 
L 3122 134 
Q 2881 22 2623 -34 
Q 2366 -91 2075 -91 
Q 1284 -91 818 406 
Q 353 903 353 1747 
Q 353 2603 823 3093 
Q 1294 3584 2113 3584 
Q 2378 3584 2631 3529 
Q 2884 3475 3122 3366 
z
" transform="scale(0.015625)"/>
      <path id="DejaVuSans-66" d="M 2375 4863 
L 2375 4384 
L 1825 4384 
Q 1516 4384 1395 4259 
Q 1275 4134 1275 3809 
L 1275 3500 
L 2222 3500 
L 2222 3053 
L 1275 3053 
L 1275 0 
L 697 0 
L 697 3053 
L 147 3053 
L 147 3500 
L 697 3500 
L 697 3744 
Q 697 4328 969 4595 
Q 1241 4863 1831 4863 
L 2375 4863 
z
" transform="scale(0.015625)"/>
      <path id="DejaVuSans-64" d="M 2906 2969 
L 2906 4863 
L 3481 4863 
L 3481 0 
L 2906 0 
L 2906 525 
Q 2725 213 2448 61 
Q 2172 -91 1784 -91 
Q 1150 -91 751 415 
Q 353 922 353 1747 
Q 353 2572 751 3078 
Q 1150 3584 1784 3584 
Q 2172 3584 2448 3432 
Q 2725 3281 2906 2969 
z
M 947 1747 
Q 947 1113 1208 752 
Q 1469 391 1925 391 
Q 2381 391 2643 752 
Q 2906 1113 2906 1747 
Q 2906 2381 2643 2742 
Q 2381 3103 1925 3103 
Q 1469 3103 1208 2742 
Q 947 2381 947 1747 
z
" transform="scale(0.015625)"/>
      <path id="DejaVuSans-77" d="M 269 3500 
L 844 3500 
L 1563 769 
L 2278 3500 
L 2956 3500 
L 3675 769 
L 4391 3500 
L 4966 3500 
L 4050 0 
L 3372 0 
L 2619 2869 
L 1863 0 
L 1184 0 
L 269 3500 
z
" transform="scale(0.015625)"/>
      <path id="DejaVuSans-69" d="M 603 3500 
L 1178 3500 
L 1178 0 
L 603 0 
L 603 3500 
z
M 603 4863 
L 1178 4863 
L 1178 4134 
L 603 4134 
L 603 4863 
z
" transform="scale(0.015625)"/>
      <path id="DejaVuSans-74" d="M 1172 4494 
L 1172 3500 
L 2356 3500 
L 2356 3053 
L 1172 3053 
L 1172 1153 
Q 1172 725 1289 603 
Q 1406 481 1766 481 
L 2356 481 
L 2356 0 
L 1766 0 
Q 1100 0 847 248 
Q 594 497 594 1153 
L 594 3053 
L 172 3053 
L 172 3500 
L 594 3500 
L 594 4494 
L 1172 4494 
z
" transform="scale(0.015625)"/>
      <path id="DejaVuSans-68" d="M 3513 2113 
L 3513 0 
L 2938 0 
L 2938 2094 
Q 2938 2591 2744 2837 
Q 2550 3084 2163 3084 
Q 1697 3084 1428 2787 
Q 1159 2491 1159 1978 
L 1159 0 
L 581 0 
L 581 4863 
L 1159 4863 
L 1159 2956 
Q 1366 3272 1645 3428 
Q 1925 3584 2291 3584 
Q 2894 3584 3203 3211 
Q 3513 2838 3513 2113 
z
" transform="scale(0.015625)"/>
      <path id="DejaVuSans-52" d="M 2841 2188 
Q 3044 2119 3236 1894 
Q 3428 1669 3622 1275 
L 4263 0 
L 3584 0 
L 2988 1197 
Q 2756 1666 2539 1819 
Q 2322 1972 1947 1972 
L 1259 1972 
L 1259 0 
L 628 0 
L 628 4666 
L 2053 4666 
Q 2853 4666 3247 4331 
Q 3641 3997 3641 3322 
Q 3641 2881 3436 2590 
Q 3231 2300 2841 2188 
z
M 1259 4147 
L 1259 2491 
L 2053 2491 
Q 2509 2491 2742 2702 
Q 2975 2913 2975 3322 
Q 2975 3731 2742 3939 
Q 2509 4147 2053 4147 
L 1259 4147 
z
" transform="scale(0.015625)"/>
      <path id="DejaVuSans-4e" d="M 628 4666 
L 1478 4666 
L 3547 763 
L 3547 4666 
L 4159 4666 
L 4159 0 
L 3309 0 
L 1241 3903 
L 1241 0 
L 628 0 
L 628 4666 
z
" transform="scale(0.015625)"/>
      <path id="DejaVuSans-41" d="M 2188 4044 
L 1331 1722 
L 3047 1722 
L 2188 4044 
z
M 1831 4666 
L 2547 4666 
L 4325 0 
L 3669 0 
L 3244 1197 
L 1141 1197 
L 716 0 
L 50 0 
L 1831 4666 
z
" transform="scale(0.015625)"/>
      <path id="DejaVuSans-25" d="M 4653 2053 
Q 4381 2053 4226 1822 
Q 4072 1591 4072 1178 
Q 4072 772 4226 539 
Q 4381 306 4653 306 
Q 4919 306 5073 539 
Q 5228 772 5228 1178 
Q 5228 1588 5073 1820 
Q 4919 2053 4653 2053 
z
M 4653 2450 
Q 5147 2450 5437 2106 
Q 5728 1763 5728 1178 
Q 5728 594 5436 251 
Q 5144 -91 4653 -91 
Q 4153 -91 3862 251 
Q 3572 594 3572 1178 
Q 3572 1766 3864 2108 
Q 4156 2450 4653 2450 
z
M 1428 4353 
Q 1159 4353 1004 4120 
Q 850 3888 850 3481 
Q 850 3069 1003 2837 
Q 1156 2606 1428 2606 
Q 1700 2606 1854 2837 
Q 2009 3069 2009 3481 
Q 2009 3884 1853 4118 
Q 1697 4353 1428 4353 
z
M 4250 4750 
L 4750 4750 
L 1831 -91 
L 1331 -91 
L 4250 4750 
z
M 1428 4750 
Q 1922 4750 2215 4408 
Q 2509 4066 2509 3481 
Q 2509 2891 2217 2550 
Q 1925 2209 1428 2209 
Q 931 2209 642 2551 
Q 353 2894 353 3481 
Q 353 4063 643 4406 
Q 934 4750 1428 4750 
z
" transform="scale(0.015625)"/>
     </defs>
     <use xlink:href="#DejaVuSans-43"/>
     <use xlink:href="#DejaVuSans-6f" x="69.824219"/>
     <use xlink:href="#DejaVuSans-76" x="131.005859"/>
     <use xlink:href="#DejaVuSans-65" x="190.185547"/>
     <use xlink:href="#DejaVuSans-72" x="251.708984"/>
     <use xlink:href="#DejaVuSans-61" x="292.822266"/>
     <use xlink:href="#DejaVuSans-67" x="354.101562"/>
     <use xlink:href="#DejaVuSans-65" x="417.578125"/>
     <use xlink:href="#DejaVuSans-20" x="479.101562"/>
     <use xlink:href="#DejaVuSans-70" x="510.888672"/>
     <use xlink:href="#DejaVuSans-65" x="574.365234"/>
     <use xlink:href="#DejaVuSans-72" x="635.888672"/>
     <use xlink:href="#DejaVuSans-20" x="677.001953"/>
     <use xlink:href="#DejaVuSans-62" x="708.789062"/>
     <use xlink:href="#DejaVuSans-61" x="772.265625"/>
     <use xlink:href="#DejaVuSans-73" x="833.544922"/>
     <use xlink:href="#DejaVuSans-65" x="885.644531"/>
     <use xlink:href="#DejaVuSans-20" x="947.167969"/>
     <use xlink:href="#DejaVuSans-53" x="978.955078"/>
     <use xlink:href="#DejaVuSans-63" x="1042.431641"/>
     <use xlink:href="#DejaVuSans-61" x="1097.412109"/>
     <use xlink:href="#DejaVuSans-66" x="1158.691406"/>
     <use xlink:href="#DejaVuSans-66" x="1193.896484"/>
     <use xlink:href="#DejaVuSans-6f" x="1229.101562"/>
     <use xlink:href="#DejaVuSans-6c" x="1290.283203"/>
     <use xlink:href="#DejaVuSans-64" x="1318.066406"/>
     <use xlink:href="#DejaVuSans-20" x="1381.542969"/>
     <use xlink:href="#DejaVuSans-31" x="1413.330078"/>
     <use xlink:href="#DejaVuSans-31" x="1476.953125"/>
     <use xlink:href="#DejaVuSans-31" x="1540.576172"/>
     <use xlink:href="#DejaVuSans-33" x="1604.199219"/>
     <use xlink:href="#DejaVuSans-36" x="1667.822266"/>
     <use xlink:href="#DejaVuSans-20" x="1731.445312"/>
     <use xlink:href="#DejaVuSans-77" x="1763.232422"/>
     <use xlink:href="#DejaVuSans-69" x="1845.019531"/>
     <use xlink:href="#DejaVuSans-74" x="1872.802734"/>
     <use xlink:href="#DejaVuSans-68" x="1912.011719"/>
     <use xlink:href="#DejaVuSans-20" x="1975.390625"/>
     <use xlink:href="#DejaVuSans-52" x="2007.177734"/>
     <use xlink:href="#DejaVuSans-4e" x="2076.660156"/>
     <use xlink:href="#DejaVuSans-41" x="2151.464844"/>
     <use xlink:href="#DejaVuSans-20" x="2219.873047"/>
     <use xlink:href="#DejaVuSans-28" x="2251.660156"/>
     <use xlink:href="#DejaVuSans-34" x="2290.673828"/>
     <use xlink:href="#DejaVuSans-36" x="2354.296875"/>
     <use xlink:href="#DejaVuSans-25" x="2417.919922"/>
     <use xlink:href="#DejaVuSans-20" x="2512.939453"/>
     <use xlink:href="#DejaVuSans-63" x="2544.726562"/>
     <use xlink:href="#DejaVuSans-6f" x="2599.707031"/>
     <use xlink:href="#DejaVuSans-76" x="2660.888672"/>
     <use xlink:href="#DejaVuSans-65" x="2720.068359"/>
     <use xlink:href="#DejaVuSans-72" x="2781.591797"/>
     <use xlink:href="#DejaVuSans-61" x="2822.705078"/>
     <use xlink:href="#DejaVuSans-67" x="2883.984375"/>
     <use xlink:href="#DejaVuSans-65" x="2947.460938"/>
     <use xlink:href="#DejaVuSans-29" x="3008.984375"/>
    </g>
   </g>
  </g>
 </g>
 <defs>
  <clipPath id="p8c2ecf5ede">
   <rect x="57.6" y="41.472" width="357.12" height="266.112"/>
  </clipPath>
 </defs>
</svg>
