<?xml version="1.0" encoding="utf-8" standalone="no"?>
<!DOCTYPE svg PUBLIC "-//W3C//DTD SVG 1.1//EN"
  "http://www.w3.org/Graphics/SVG/1.1/DTD/svg11.dtd">
<svg xmlns:xlink="http://www.w3.org/1999/xlink" width="460.8pt" height="345.6pt" viewBox="0 0 460.8 345.6" xmlns="http://www.w3.org/2000/svg" version="1.1">
 <metadata>
  <rdf:RDF xmlns:dc="http://purl.org/dc/elements/1.1/" xmlns:cc="http://creativecommons.org/ns#" xmlns:rdf="http://www.w3.org/1999/02/22-rdf-syntax-ns#">
   <cc:Work>
    <dc:type rdf:resource="http://purl.org/dc/dcmitype/StillImage"/>
    <dc:date>2024-06-22T15:06:46.530131</dc:date>
    <dc:format>image/svg+xml</dc:format>
    <dc:creator>
     <cc:Agent>
      <dc:title>Matplotlib v3.6.3, https://matplotlib.org/</dc:title>
     </cc:Agent>
    </dc:creator>
   </cc:Work>
  </rdf:RDF>
 </metadata>
 <defs>
  <style type="text/css">*{stroke-linejoin: round; stroke-linecap: butt}</style>
 </defs>
 <g id="figure_1">
  <g id="patch_1">
   <path d="M 0 345.6 
L 460.8 345.6 
L 460.8 0 
L 0 0 
z
" style="fill: #ffffff"/>
  </g>
  <g id="axes_1">
   <g id="patch_2">
    <path d="M 57.6 307.584 
L 414.72 307.584 
L 414.72 41.472 
L 57.6 41.472 
z
" style="fill: #ffffff"/>
   </g>
   <g id="PolyCollection_1"/>
   <g id="matplotlib.axis_1">
    <g id="xtick_1">
     <g id="line2d_1">
      <defs>
       <path id="mce265deee7" d="M 0 0 
L 0 3.5 
" style="stroke: #000000; stroke-width: 0.8"/>
      </defs>
      <g>
       <use xlink:href="#mce265deee7" x="73.822873" y="307.584" style="stroke: #000000; stroke-width: 0.8"/>
      </g>
     </g>
     <g id="text_1">
      <!-- 0 -->
      <g transform="translate(70.641623 322.182437) scale(0.1 -0.1)">
       <defs>
        <path id="DejaVuSans-30" d="M 2034 4250 
Q 1547 4250 1301 3770 
Q 1056 3291 1056 2328 
Q 1056 1369 1301 889 
Q 1547 409 2034 409 
Q 2525 409 2770 889 
Q 3016 1369 3016 2328 
Q 3016 3291 2770 3770 
Q 2525 4250 2034 4250 
z
M 2034 4750 
Q 2819 4750 3233 4129 
Q 3647 3509 3647 2328 
Q 3647 1150 3233 529 
Q 2819 -91 2034 -91 
Q 1250 -91 836 529 
Q 422 1150 422 2328 
Q 422 3509 836 4129 
Q 1250 4750 2034 4750 
z
" transform="scale(0.015625)"/>
       </defs>
       <use xlink:href="#DejaVuSans-30"/>
      </g>
     </g>
    </g>
    <g id="xtick_2">
     <g id="line2d_2">
      <g>
       <use xlink:href="#mce265deee7" x="123.096571" y="307.584" style="stroke: #000000; stroke-width: 0.8"/>
      </g>
     </g>
     <g id="text_2">
      <!-- 5000 -->
      <g transform="translate(110.371571 322.182437) scale(0.1 -0.1)">
       <defs>
        <path id="DejaVuSans-35" d="M 691 4666 
L 3169 4666 
L 3169 4134 
L 1269 4134 
L 1269 2991 
Q 1406 3038 1543 3061 
Q 1681 3084 1819 3084 
Q 2600 3084 3056 2656 
Q 3513 2228 3513 1497 
Q 3513 744 3044 326 
Q 2575 -91 1722 -91 
Q 1428 -91 1123 -41 
Q 819 9 494 109 
L 494 744 
Q 775 591 1075 516 
Q 1375 441 1709 441 
Q 2250 441 2565 725 
Q 2881 1009 2881 1497 
Q 2881 1984 2565 2268 
Q 2250 2553 1709 2553 
Q 1456 2553 1204 2497 
Q 953 2441 691 2322 
L 691 4666 
z
" transform="scale(0.015625)"/>
       </defs>
       <use xlink:href="#DejaVuSans-35"/>
       <use xlink:href="#DejaVuSans-30" x="63.623047"/>
       <use xlink:href="#DejaVuSans-30" x="127.246094"/>
       <use xlink:href="#DejaVuSans-30" x="190.869141"/>
      </g>
     </g>
    </g>
    <g id="xtick_3">
     <g id="line2d_3">
      <g>
       <use xlink:href="#mce265deee7" x="172.37027" y="307.584" style="stroke: #000000; stroke-width: 0.8"/>
      </g>
     </g>
     <g id="text_3">
      <!-- 10000 -->
      <g transform="translate(156.46402 322.182437) scale(0.1 -0.1)">
       <defs>
        <path id="DejaVuSans-31" d="M 794 531 
L 1825 531 
L 1825 4091 
L 703 3866 
L 703 4441 
L 1819 4666 
L 2450 4666 
L 2450 531 
L 3481 531 
L 3481 0 
L 794 0 
L 794 531 
z
" transform="scale(0.015625)"/>
       </defs>
       <use xlink:href="#DejaVuSans-31"/>
       <use xlink:href="#DejaVuSans-30" x="63.623047"/>
       <use xlink:href="#DejaVuSans-30" x="127.246094"/>
       <use xlink:href="#DejaVuSans-30" x="190.869141"/>
       <use xlink:href="#DejaVuSans-30" x="254.492188"/>
      </g>
     </g>
    </g>
    <g id="xtick_4">
     <g id="line2d_4">
      <g>
       <use xlink:href="#mce265deee7" x="221.643968" y="307.584" style="stroke: #000000; stroke-width: 0.8"/>
      </g>
     </g>
     <g id="text_4">
      <!-- 15000 -->
      <g transform="translate(205.737718 322.182437) scale(0.1 -0.1)">
       <use xlink:href="#DejaVuSans-31"/>
       <use xlink:href="#DejaVuSans-35" x="63.623047"/>
       <use xlink:href="#DejaVuSans-30" x="127.246094"/>
       <use xlink:href="#DejaVuSans-30" x="190.869141"/>
       <use xlink:href="#DejaVuSans-30" x="254.492188"/>
      </g>
     </g>
    </g>
    <g id="xtick_5">
     <g id="line2d_5">
      <g>
       <use xlink:href="#mce265deee7" x="270.917667" y="307.584" style="stroke: #000000; stroke-width: 0.8"/>
      </g>
     </g>
     <g id="text_5">
      <!-- 20000 -->
      <g transform="translate(255.011417 322.182437) scale(0.1 -0.1)">
       <defs>
        <path id="DejaVuSans-32" d="M 1228 531 
L 3431 531 
L 3431 0 
L 469 0 
L 469 531 
Q 828 903 1448 1529 
Q 2069 2156 2228 2338 
Q 2531 2678 2651 2914 
Q 2772 3150 2772 3378 
Q 2772 3750 2511 3984 
Q 2250 4219 1831 4219 
Q 1534 4219 1204 4116 
Q 875 4013 500 3803 
L 500 4441 
Q 881 4594 1212 4672 
Q 1544 4750 1819 4750 
Q 2544 4750 2975 4387 
Q 3406 4025 3406 3419 
Q 3406 3131 3298 2873 
Q 3191 2616 2906 2266 
Q 2828 2175 2409 1742 
Q 1991 1309 1228 531 
z
" transform="scale(0.015625)"/>
       </defs>
       <use xlink:href="#DejaVuSans-32"/>
       <use xlink:href="#DejaVuSans-30" x="63.623047"/>
       <use xlink:href="#DejaVuSans-30" x="127.246094"/>
       <use xlink:href="#DejaVuSans-30" x="190.869141"/>
       <use xlink:href="#DejaVuSans-30" x="254.492188"/>
      </g>
     </g>
    </g>
    <g id="xtick_6">
     <g id="line2d_6">
      <g>
       <use xlink:href="#mce265deee7" x="320.191366" y="307.584" style="stroke: #000000; stroke-width: 0.8"/>
      </g>
     </g>
     <g id="text_6">
      <!-- 25000 -->
      <g transform="translate(304.285116 322.182437) scale(0.1 -0.1)">
       <use xlink:href="#DejaVuSans-32"/>
       <use xlink:href="#DejaVuSans-35" x="63.623047"/>
       <use xlink:href="#DejaVuSans-30" x="127.246094"/>
       <use xlink:href="#DejaVuSans-30" x="190.869141"/>
       <use xlink:href="#DejaVuSans-30" x="254.492188"/>
      </g>
     </g>
    </g>
    <g id="xtick_7">
     <g id="line2d_7">
      <g>
       <use xlink:href="#mce265deee7" x="369.465064" y="307.584" style="stroke: #000000; stroke-width: 0.8"/>
      </g>
     </g>
     <g id="text_7">
      <!-- 30000 -->
      <g transform="translate(353.558814 322.182437) scale(0.1 -0.1)">
       <defs>
        <path id="DejaVuSans-33" d="M 2597 2516 
Q 3050 2419 3304 2112 
Q 3559 1806 3559 1356 
Q 3559 666 3084 287 
Q 2609 -91 1734 -91 
Q 1441 -91 1130 -33 
Q 819 25 488 141 
L 488 750 
Q 750 597 1062 519 
Q 1375 441 1716 441 
Q 2309 441 2620 675 
Q 2931 909 2931 1356 
Q 2931 1769 2642 2001 
Q 2353 2234 1838 2234 
L 1294 2234 
L 1294 2753 
L 1863 2753 
Q 2328 2753 2575 2939 
Q 2822 3125 2822 3475 
Q 2822 3834 2567 4026 
Q 2313 4219 1838 4219 
Q 1578 4219 1281 4162 
Q 984 4106 628 3988 
L 628 4550 
Q 988 4650 1302 4700 
Q 1616 4750 1894 4750 
Q 2613 4750 3031 4423 
Q 3450 4097 3450 3541 
Q 3450 3153 3228 2886 
Q 3006 2619 2597 2516 
z
" transform="scale(0.015625)"/>
       </defs>
       <use xlink:href="#DejaVuSans-33"/>
       <use xlink:href="#DejaVuSans-30" x="63.623047"/>
       <use xlink:href="#DejaVuSans-30" x="127.246094"/>
       <use xlink:href="#DejaVuSans-30" x="190.869141"/>
       <use xlink:href="#DejaVuSans-30" x="254.492188"/>
      </g>
     </g>
    </g>
    <g id="text_8">
     <!-- Nucleotide position -->
     <g transform="translate(187.982656 335.860562) scale(0.1 -0.1)">
      <defs>
       <path id="DejaVuSans-4e" d="M 628 4666 
L 1478 4666 
L 3547 763 
L 3547 4666 
L 4159 4666 
L 4159 0 
L 3309 0 
L 1241 3903 
L 1241 0 
L 628 0 
L 628 4666 
z
" transform="scale(0.015625)"/>
       <path id="DejaVuSans-75" d="M 544 1381 
L 544 3500 
L 1119 3500 
L 1119 1403 
Q 1119 906 1312 657 
Q 1506 409 1894 409 
Q 2359 409 2629 706 
Q 2900 1003 2900 1516 
L 2900 3500 
L 3475 3500 
L 3475 0 
L 2900 0 
L 2900 538 
Q 2691 219 2414 64 
Q 2138 -91 1772 -91 
Q 1169 -91 856 284 
Q 544 659 544 1381 
z
M 1991 3584 
L 1991 3584 
z
" transform="scale(0.015625)"/>
       <path id="DejaVuSans-63" d="M 3122 3366 
L 3122 2828 
Q 2878 2963 2633 3030 
Q 2388 3097 2138 3097 
Q 1578 3097 1268 2742 
Q 959 2388 959 1747 
Q 959 1106 1268 751 
Q 1578 397 2138 397 
Q 2388 397 2633 464 
Q 2878 531 3122 666 
L 3122 134 
Q 2881 22 2623 -34 
Q 2366 -91 2075 -91 
Q 1284 -91 818 406 
Q 353 903 353 1747 
Q 353 2603 823 3093 
Q 1294 3584 2113 3584 
Q 2378 3584 2631 3529 
Q 2884 3475 3122 3366 
z
" transform="scale(0.015625)"/>
       <path id="DejaVuSans-6c" d="M 603 4863 
L 1178 4863 
L 1178 0 
L 603 0 
L 603 4863 
z
" transform="scale(0.015625)"/>
       <path id="DejaVuSans-65" d="M 3597 1894 
L 3597 1613 
L 953 1613 
Q 991 1019 1311 708 
Q 1631 397 2203 397 
Q 2534 397 2845 478 
Q 3156 559 3463 722 
L 3463 178 
Q 3153 47 2828 -22 
Q 2503 -91 2169 -91 
Q 1331 -91 842 396 
Q 353 884 353 1716 
Q 353 2575 817 3079 
Q 1281 3584 2069 3584 
Q 2775 3584 3186 3129 
Q 3597 2675 3597 1894 
z
M 3022 2063 
Q 3016 2534 2758 2815 
Q 2500 3097 2075 3097 
Q 1594 3097 1305 2825 
Q 1016 2553 972 2059 
L 3022 2063 
z
" transform="scale(0.015625)"/>
       <path id="DejaVuSans-6f" d="M 1959 3097 
Q 1497 3097 1228 2736 
Q 959 2375 959 1747 
Q 959 1119 1226 758 
Q 1494 397 1959 397 
Q 2419 397 2687 759 
Q 2956 1122 2956 1747 
Q 2956 2369 2687 2733 
Q 2419 3097 1959 3097 
z
M 1959 3584 
Q 2709 3584 3137 3096 
Q 3566 2609 3566 1747 
Q 3566 888 3137 398 
Q 2709 -91 1959 -91 
Q 1206 -91 779 398 
Q 353 888 353 1747 
Q 353 2609 779 3096 
Q 1206 3584 1959 3584 
z
" transform="scale(0.015625)"/>
       <path id="DejaVuSans-74" d="M 1172 4494 
L 1172 3500 
L 2356 3500 
L 2356 3053 
L 1172 3053 
L 1172 1153 
Q 1172 725 1289 603 
Q 1406 481 1766 481 
L 2356 481 
L 2356 0 
L 1766 0 
Q 1100 0 847 248 
Q 594 497 594 1153 
L 594 3053 
L 172 3053 
L 172 3500 
L 594 3500 
L 594 4494 
L 1172 4494 
z
" transform="scale(0.015625)"/>
       <path id="DejaVuSans-69" d="M 603 3500 
L 1178 3500 
L 1178 0 
L 603 0 
L 603 3500 
z
M 603 4863 
L 1178 4863 
L 1178 4134 
L 603 4134 
L 603 4863 
z
" transform="scale(0.015625)"/>
       <path id="DejaVuSans-64" d="M 2906 2969 
L 2906 4863 
L 3481 4863 
L 3481 0 
L 2906 0 
L 2906 525 
Q 2725 213 2448 61 
Q 2172 -91 1784 -91 
Q 1150 -91 751 415 
Q 353 922 353 1747 
Q 353 2572 751 3078 
Q 1150 3584 1784 3584 
Q 2172 3584 2448 3432 
Q 2725 3281 2906 2969 
z
M 947 1747 
Q 947 1113 1208 752 
Q 1469 391 1925 391 
Q 2381 391 2643 752 
Q 2906 1113 2906 1747 
Q 2906 2381 2643 2742 
Q 2381 3103 1925 3103 
Q 1469 3103 1208 2742 
Q 947 2381 947 1747 
z
" transform="scale(0.015625)"/>
       <path id="DejaVuSans-20" transform="scale(0.015625)"/>
       <path id="DejaVuSans-70" d="M 1159 525 
L 1159 -1331 
L 581 -1331 
L 581 3500 
L 1159 3500 
L 1159 2969 
Q 1341 3281 1617 3432 
Q 1894 3584 2278 3584 
Q 2916 3584 3314 3078 
Q 3713 2572 3713 1747 
Q 3713 922 3314 415 
Q 2916 -91 2278 -91 
Q 1894 -91 1617 61 
Q 1341 213 1159 525 
z
M 3116 1747 
Q 3116 2381 2855 2742 
Q 2594 3103 2138 3103 
Q 1681 3103 1420 2742 
Q 1159 2381 1159 1747 
Q 1159 1113 1420 752 
Q 1681 391 2138 391 
Q 2594 391 2855 752 
Q 3116 1113 3116 1747 
z
" transform="scale(0.015625)"/>
       <path id="DejaVuSans-73" d="M 2834 3397 
L 2834 2853 
Q 2591 2978 2328 3040 
Q 2066 3103 1784 3103 
Q 1356 3103 1142 2972 
Q 928 2841 928 2578 
Q 928 2378 1081 2264 
Q 1234 2150 1697 2047 
L 1894 2003 
Q 2506 1872 2764 1633 
Q 3022 1394 3022 966 
Q 3022 478 2636 193 
Q 2250 -91 1575 -91 
Q 1294 -91 989 -36 
Q 684 19 347 128 
L 347 722 
Q 666 556 975 473 
Q 1284 391 1588 391 
Q 1994 391 2212 530 
Q 2431 669 2431 922 
Q 2431 1156 2273 1281 
Q 2116 1406 1581 1522 
L 1381 1569 
Q 847 1681 609 1914 
Q 372 2147 372 2553 
Q 372 3047 722 3315 
Q 1072 3584 1716 3584 
Q 2034 3584 2315 3537 
Q 2597 3491 2834 3397 
z
" transform="scale(0.015625)"/>
       <path id="DejaVuSans-6e" d="M 3513 2113 
L 3513 0 
L 2938 0 
L 2938 2094 
Q 2938 2591 2744 2837 
Q 2550 3084 2163 3084 
Q 1697 3084 1428 2787 
Q 1159 2491 1159 1978 
L 1159 0 
L 581 0 
L 581 3500 
L 1159 3500 
L 1159 2956 
Q 1366 3272 1645 3428 
Q 1925 3584 2291 3584 
Q 2894 3584 3203 3211 
Q 3513 2838 3513 2113 
z
" transform="scale(0.015625)"/>
      </defs>
      <use xlink:href="#DejaVuSans-4e"/>
      <use xlink:href="#DejaVuSans-75" x="74.804688"/>
      <use xlink:href="#DejaVuSans-63" x="138.183594"/>
      <use xlink:href="#DejaVuSans-6c" x="193.164062"/>
      <use xlink:href="#DejaVuSans-65" x="220.947266"/>
      <use xlink:href="#DejaVuSans-6f" x="282.470703"/>
      <use xlink:href="#DejaVuSans-74" x="343.652344"/>
      <use xlink:href="#DejaVuSans-69" x="382.861328"/>
      <use xlink:href="#DejaVuSans-64" x="410.644531"/>
      <use xlink:href="#DejaVuSans-65" x="474.121094"/>
      <use xlink:href="#DejaVuSans-20" x="535.644531"/>
      <use xlink:href="#DejaVuSans-70" x="567.431641"/>
      <use xlink:href="#DejaVuSans-6f" x="630.908203"/>
      <use xlink:href="#DejaVuSans-73" x="692.089844"/>
      <use xlink:href="#DejaVuSans-69" x="744.189453"/>
      <use xlink:href="#DejaVuSans-74" x="771.972656"/>
      <use xlink:href="#DejaVuSans-69" x="811.181641"/>
      <use xlink:href="#DejaVuSans-6f" x="838.964844"/>
      <use xlink:href="#DejaVuSans-6e" x="900.146484"/>
     </g>
    </g>
   </g>
   <g id="matplotlib.axis_2">
    <g id="ytick_1">
     <g id="line2d_8">
      <defs>
       <path id="m19e79b28f8" d="M 0 0 
L -3.5 0 
" style="stroke: #000000; stroke-width: 0.8"/>
      </defs>
      <g>
       <use xlink:href="#m19e79b28f8" x="57.6" y="295.488" style="stroke: #000000; stroke-width: 0.8"/>
      </g>
     </g>
     <g id="text_9">
      <!-- 0 -->
      <g transform="translate(44.2375 299.287219) scale(0.1 -0.1)">
       <use xlink:href="#DejaVuSans-30"/>
      </g>
     </g>
    </g>
    <g id="ytick_2">
     <g id="line2d_9">
      <g>
       <use xlink:href="#m19e79b28f8" x="57.6" y="251.502545" style="stroke: #000000; stroke-width: 0.8"/>
      </g>
     </g>
     <g id="text_10">
      <!-- 2 -->
      <g transform="translate(44.2375 255.301764) scale(0.1 -0.1)">
       <use xlink:href="#DejaVuSans-32"/>
      </g>
     </g>
    </g>
    <g id="ytick_3">
     <g id="line2d_10">
      <g>
       <use xlink:href="#m19e79b28f8" x="57.6" y="207.517091" style="stroke: #000000; stroke-width: 0.8"/>
      </g>
     </g>
     <g id="text_11">
      <!-- 4 -->
      <g transform="translate(44.2375 211.31631) scale(0.1 -0.1)">
       <defs>
        <path id="DejaVuSans-34" d="M 2419 4116 
L 825 1625 
L 2419 1625 
L 2419 4116 
z
M 2253 4666 
L 3047 4666 
L 3047 1625 
L 3713 1625 
L 3713 1100 
L 3047 1100 
L 3047 0 
L 2419 0 
L 2419 1100 
L 313 1100 
L 313 1709 
L 2253 4666 
z
" transform="scale(0.015625)"/>
       </defs>
       <use xlink:href="#DejaVuSans-34"/>
      </g>
     </g>
    </g>
    <g id="ytick_4">
     <g id="line2d_11">
      <g>
       <use xlink:href="#m19e79b28f8" x="57.6" y="163.531636" style="stroke: #000000; stroke-width: 0.8"/>
      </g>
     </g>
     <g id="text_12">
      <!-- 6 -->
      <g transform="translate(44.2375 167.330855) scale(0.1 -0.1)">
       <defs>
        <path id="DejaVuSans-36" d="M 2113 2584 
Q 1688 2584 1439 2293 
Q 1191 2003 1191 1497 
Q 1191 994 1439 701 
Q 1688 409 2113 409 
Q 2538 409 2786 701 
Q 3034 994 3034 1497 
Q 3034 2003 2786 2293 
Q 2538 2584 2113 2584 
z
M 3366 4563 
L 3366 3988 
Q 3128 4100 2886 4159 
Q 2644 4219 2406 4219 
Q 1781 4219 1451 3797 
Q 1122 3375 1075 2522 
Q 1259 2794 1537 2939 
Q 1816 3084 2150 3084 
Q 2853 3084 3261 2657 
Q 3669 2231 3669 1497 
Q 3669 778 3244 343 
Q 2819 -91 2113 -91 
Q 1303 -91 875 529 
Q 447 1150 447 2328 
Q 447 3434 972 4092 
Q 1497 4750 2381 4750 
Q 2619 4750 2861 4703 
Q 3103 4656 3366 4563 
z
" transform="scale(0.015625)"/>
       </defs>
       <use xlink:href="#DejaVuSans-36"/>
      </g>
     </g>
    </g>
    <g id="ytick_5">
     <g id="line2d_12">
      <g>
       <use xlink:href="#m19e79b28f8" x="57.6" y="119.546182" style="stroke: #000000; stroke-width: 0.8"/>
      </g>
     </g>
     <g id="text_13">
      <!-- 8 -->
      <g transform="translate(44.2375 123.345401) scale(0.1 -0.1)">
       <defs>
        <path id="DejaVuSans-38" d="M 2034 2216 
Q 1584 2216 1326 1975 
Q 1069 1734 1069 1313 
Q 1069 891 1326 650 
Q 1584 409 2034 409 
Q 2484 409 2743 651 
Q 3003 894 3003 1313 
Q 3003 1734 2745 1975 
Q 2488 2216 2034 2216 
z
M 1403 2484 
Q 997 2584 770 2862 
Q 544 3141 544 3541 
Q 544 4100 942 4425 
Q 1341 4750 2034 4750 
Q 2731 4750 3128 4425 
Q 3525 4100 3525 3541 
Q 3525 3141 3298 2862 
Q 3072 2584 2669 2484 
Q 3125 2378 3379 2068 
Q 3634 1759 3634 1313 
Q 3634 634 3220 271 
Q 2806 -91 2034 -91 
Q 1263 -91 848 271 
Q 434 634 434 1313 
Q 434 1759 690 2068 
Q 947 2378 1403 2484 
z
M 1172 3481 
Q 1172 3119 1398 2916 
Q 1625 2713 2034 2713 
Q 2441 2713 2670 2916 
Q 2900 3119 2900 3481 
Q 2900 3844 2670 4047 
Q 2441 4250 2034 4250 
Q 1625 4250 1398 4047 
Q 1172 3844 1172 3481 
z
" transform="scale(0.015625)"/>
       </defs>
       <use xlink:href="#DejaVuSans-38"/>
      </g>
     </g>
    </g>
    <g id="ytick_6">
     <g id="line2d_13">
      <g>
       <use xlink:href="#m19e79b28f8" x="57.6" y="75.560727" style="stroke: #000000; stroke-width: 0.8"/>
      </g>
     </g>
     <g id="text_14">
      <!-- 10 -->
      <g transform="translate(37.875 79.359946) scale(0.1 -0.1)">
       <use xlink:href="#DejaVuSans-31"/>
       <use xlink:href="#DejaVuSans-30" x="63.623047"/>
      </g>
     </g>
    </g>
    <g id="text_15">
     <!-- Coverage -->
     <g transform="translate(31.795312 198.485031) rotate(-90) scale(0.1 -0.1)">
      <defs>
       <path id="DejaVuSans-43" d="M 4122 4306 
L 4122 3641 
Q 3803 3938 3442 4084 
Q 3081 4231 2675 4231 
Q 1875 4231 1450 3742 
Q 1025 3253 1025 2328 
Q 1025 1406 1450 917 
Q 1875 428 2675 428 
Q 3081 428 3442 575 
Q 3803 722 4122 1019 
L 4122 359 
Q 3791 134 3420 21 
Q 3050 -91 2638 -91 
Q 1578 -91 968 557 
Q 359 1206 359 2328 
Q 359 3453 968 4101 
Q 1578 4750 2638 4750 
Q 3056 4750 3426 4639 
Q 3797 4528 4122 4306 
z
" transform="scale(0.015625)"/>
       <path id="DejaVuSans-76" d="M 191 3500 
L 800 3500 
L 1894 563 
L 2988 3500 
L 3597 3500 
L 2284 0 
L 1503 0 
L 191 3500 
z
" transform="scale(0.015625)"/>
       <path id="DejaVuSans-72" d="M 2631 2963 
Q 2534 3019 2420 3045 
Q 2306 3072 2169 3072 
Q 1681 3072 1420 2755 
Q 1159 2438 1159 1844 
L 1159 0 
L 581 0 
L 581 3500 
L 1159 3500 
L 1159 2956 
Q 1341 3275 1631 3429 
Q 1922 3584 2338 3584 
Q 2397 3584 2469 3576 
Q 2541 3569 2628 3553 
L 2631 2963 
z
" transform="scale(0.015625)"/>
       <path id="DejaVuSans-61" d="M 2194 1759 
Q 1497 1759 1228 1600 
Q 959 1441 959 1056 
Q 959 750 1161 570 
Q 1363 391 1709 391 
Q 2188 391 2477 730 
Q 2766 1069 2766 1631 
L 2766 1759 
L 2194 1759 
z
M 3341 1997 
L 3341 0 
L 2766 0 
L 2766 531 
Q 2569 213 2275 61 
Q 1981 -91 1556 -91 
Q 1019 -91 701 211 
Q 384 513 384 1019 
Q 384 1609 779 1909 
Q 1175 2209 1959 2209 
L 2766 2209 
L 2766 2266 
Q 2766 2663 2505 2880 
Q 2244 3097 1772 3097 
Q 1472 3097 1187 3025 
Q 903 2953 641 2809 
L 641 3341 
Q 956 3463 1253 3523 
Q 1550 3584 1831 3584 
Q 2591 3584 2966 3190 
Q 3341 2797 3341 1997 
z
" transform="scale(0.015625)"/>
       <path id="DejaVuSans-67" d="M 2906 1791 
Q 2906 2416 2648 2759 
Q 2391 3103 1925 3103 
Q 1463 3103 1205 2759 
Q 947 2416 947 1791 
Q 947 1169 1205 825 
Q 1463 481 1925 481 
Q 2391 481 2648 825 
Q 2906 1169 2906 1791 
z
M 3481 434 
Q 3481 -459 3084 -895 
Q 2688 -1331 1869 -1331 
Q 1566 -1331 1297 -1286 
Q 1028 -1241 775 -1147 
L 775 -588 
Q 1028 -725 1275 -790 
Q 1522 -856 1778 -856 
Q 2344 -856 2625 -561 
Q 2906 -266 2906 331 
L 2906 616 
Q 2728 306 2450 153 
Q 2172 0 1784 0 
Q 1141 0 747 490 
Q 353 981 353 1791 
Q 353 2603 747 3093 
Q 1141 3584 1784 3584 
Q 2172 3584 2450 3431 
Q 2728 3278 2906 2969 
L 2906 3500 
L 3481 3500 
L 3481 434 
z
" transform="scale(0.015625)"/>
      </defs>
      <use xlink:href="#DejaVuSans-43"/>
      <use xlink:href="#DejaVuSans-6f" x="69.824219"/>
      <use xlink:href="#DejaVuSans-76" x="131.005859"/>
      <use xlink:href="#DejaVuSans-65" x="190.185547"/>
      <use xlink:href="#DejaVuSans-72" x="251.708984"/>
      <use xlink:href="#DejaVuSans-61" x="292.822266"/>
      <use xlink:href="#DejaVuSans-67" x="354.101562"/>
      <use xlink:href="#DejaVuSans-65" x="417.578125"/>
     </g>
    </g>
   </g>
   <g id="line2d_14">
    <path d="M 73.832727 295.488 
L 74.305755 295.488 
L 74.424012 273.495273 
L 74.729509 273.495273 
L 74.847765 251.502545 
L 75.60658 251.502545 
L 75.724837 273.495273 
L 75.862804 273.495273 
L 75.981061 251.502545 
L 76.00077 251.502545 
L 76.079608 273.495273 
L 76.109172 251.502545 
L 77.134065 251.502545 
L 77.14392 273.495273 
L 77.242467 251.502545 
L 77.360724 251.502545 
L 77.478981 273.495273 
L 77.577528 273.495273 
L 77.695785 207.517091 
L 78.326489 207.517091 
L 78.365908 163.531636 
L 78.434891 207.517091 
L 78.592567 207.517091 
L 78.710823 163.531636 
L 78.84879 163.531636 
L 78.976901 207.517091 
L 79.03603 207.517091 
L 79.154287 185.524364 
L 79.213415 185.524364 
L 79.331672 163.531636 
L 79.3908 163.531636 
L 79.509057 185.524364 
L 79.558331 185.524364 
L 79.656878 229.509818 
L 79.676588 207.517091 
L 79.814554 207.517091 
L 79.873683 185.524364 
L 79.883537 229.509818 
L 79.922956 207.517091 
L 80.041213 207.517091 
L 80.15947 185.524364 
L 80.317146 185.524364 
L 80.435403 163.531636 
L 80.524096 163.531636 
L 80.652207 119.546182 
L 80.869011 119.546182 
L 80.997123 163.531636 
L 81.105525 163.531636 
L 81.233637 207.517091 
L 81.312475 207.517091 
L 81.430732 229.509818 
L 81.588407 229.509818 
L 81.706664 251.502545 
L 81.726374 251.502545 
L 81.824921 229.509818 
L 81.834776 251.502545 
L 81.913614 251.502545 
L 82.031871 273.495273 
L 82.583736 273.495273 
L 82.701993 251.502545 
L 82.869524 251.502545 
L 82.98778 229.509818 
L 83.027199 229.509818 
L 83.145456 251.502545 
L 83.322842 251.502545 
L 83.441099 229.509818 
L 83.500227 229.509818 
L 83.618484 207.517091 
L 83.864852 207.517091 
L 83.983109 229.509818 
L 84.170349 229.509818 
L 84.288606 251.502545 
L 84.357589 251.502545 
L 84.475846 229.509818 
L 84.603958 229.509818 
L 84.633522 251.502545 
L 84.71236 229.509818 
L 84.801053 229.509818 
L 84.820762 251.502545 
L 84.909455 229.509818 
L 85.10655 229.509818 
L 85.224806 185.524364 
L 85.29379 185.524364 
L 85.421901 97.553455 
L 85.658415 97.553455 
L 85.776672 119.546182 
L 85.865364 119.546182 
L 85.875219 97.553455 
L 85.944202 163.531636 
L 85.954057 163.531636 
L 86.062459 163.531636 
L 86.180716 229.509818 
L 86.367956 229.509818 
L 86.486213 207.517091 
L 86.703017 207.517091 
L 86.831129 251.502545 
L 87.136626 251.502545 
L 87.254883 273.495273 
L 87.649072 273.495273 
L 87.767329 295.488 
L 87.816603 295.488 
L 87.944715 251.502545 
L 87.993988 251.502545 
L 88.112245 229.509818 
L 89.107574 229.509818 
L 89.225831 251.502545 
L 89.284959 251.502545 
L 89.403216 273.495273 
L 89.62002 273.495273 
L 89.738277 251.502545 
L 89.905808 251.502545 
L 90.024065 229.509818 
L 90.359126 229.509818 
L 90.477383 207.517091 
L 90.59564 229.509818 
L 90.615349 229.509818 
L 90.733606 185.524364 
L 90.78288 185.524364 
L 90.891282 163.531636 
L 91.009539 185.524364 
L 91.058812 185.524364 
L 91.186924 141.538909 
L 91.206633 141.538909 
L 91.32489 163.531636 
L 91.590968 163.531636 
L 91.659951 141.538909 
L 91.69937 163.531636 
L 91.916175 163.531636 
L 92.034432 207.517091 
L 92.063996 207.517091 
L 92.182253 229.509818 
L 92.359638 229.509818 
L 92.48775 273.495273 
L 92.606006 251.502545 
L 92.881939 251.502545 
L 93.000196 273.495273 
L 93.088889 273.495273 
L 93.207146 251.502545 
L 93.226855 251.502545 
L 93.345112 229.509818 
L 93.384531 229.509818 
L 93.502788 163.531636 
L 93.522497 163.531636 
L 93.660464 97.553455 
L 93.739302 97.553455 
L 93.867413 53.568 
L 94.222184 53.568 
L 94.340441 119.546182 
L 94.370005 119.546182 
L 94.507971 185.524364 
L 94.517826 185.524364 
L 94.636083 207.517091 
L 94.665647 207.517091 
L 94.695211 185.524364 
L 94.705066 229.509818 
L 94.764194 229.509818 
L 94.882451 229.509818 
L 95.000708 207.517091 
L 95.049982 207.517091 
L 95.168239 229.509818 
L 95.582138 229.509818 
L 95.700395 207.517091 
L 95.729959 207.517091 
L 95.848216 229.509818 
L 95.966473 229.509818 
L 96.045311 251.502545 
L 96.074875 229.509818 
L 96.183277 229.509818 
L 96.193132 251.502545 
L 96.291679 229.509818 
L 96.478919 229.509818 
L 96.607031 185.524364 
L 96.873109 185.524364 
L 96.892818 207.517091 
L 96.981511 185.524364 
L 97.149041 185.524364 
L 97.267298 163.531636 
L 97.316572 163.531636 
L 97.336282 141.538909 
L 97.424974 163.531636 
L 97.484103 163.531636 
L 97.602359 185.524364 
L 97.691052 185.524364 
L 97.750181 163.531636 
L 97.799454 185.524364 
L 97.868437 185.524364 
L 97.927566 207.517091 
L 97.97684 185.524364 
L 98.193644 185.524364 
L 98.311901 207.517091 
L 98.420303 207.517091 
L 98.440012 185.524364 
L 98.528705 207.517091 
L 98.617398 207.517091 
L 98.735655 229.509818 
L 98.982023 229.509818 
L 99.011587 251.502545 
L 99.090425 229.509818 
L 99.110135 229.509818 
L 99.228392 207.517091 
L 99.346648 229.509818 
L 99.632436 229.509818 
L 99.721129 207.517091 
L 99.740838 229.509818 
L 99.760547 229.509818 
L 99.888659 185.524364 
L 100.302558 185.524364 
L 100.43067 229.509818 
L 100.440525 229.509818 
L 100.558781 207.517091 
L 100.933262 207.517091 
L 100.952971 229.509818 
L 101.041664 207.517091 
L 101.061373 207.517091 
L 101.189485 251.502545 
L 101.721641 251.502545 
L 101.790624 273.495273 
L 101.830043 251.502545 
L 102.204523 251.502545 
L 102.243942 229.509818 
L 102.312925 251.502545 
L 103.052031 251.502545 
L 103.170287 273.495273 
L 103.485639 273.495273 
L 103.603896 295.488 
L 103.899538 295.488 
L 104.017795 273.495273 
L 104.697772 273.495273 
L 104.816029 251.502545 
L 105.101816 251.502545 
L 105.220073 273.495273 
L 105.249638 273.495273 
L 105.367894 251.502545 
L 105.969034 251.502545 
L 106.08729 273.495273 
L 106.097145 273.495273 
L 106.215402 251.502545 
L 106.520899 251.502545 
L 106.639156 273.495273 
L 106.708139 273.495273 
L 106.836251 163.531636 
L 107.240295 163.531636 
L 107.358552 185.524364 
L 107.368407 185.524364 
L 107.486663 207.517091 
L 107.60492 163.531636 
L 107.989255 163.531636 
L 108.117367 251.502545 
L 108.146931 251.502545 
L 108.265188 229.509818 
L 108.304607 229.509818 
L 108.422864 185.524364 
L 108.432718 185.524364 
L 108.550975 163.531636 
L 108.787489 163.531636 
L 108.905746 207.517091 
L 109.428047 207.517091 
L 109.546304 229.509818 
L 109.575868 229.509818 
L 109.694125 273.495273 
L 109.723689 273.495273 
L 109.841946 295.488 
L 109.89122 295.488 
L 110.009477 273.495273 
L 110.117879 273.495273 
L 110.236136 251.502545 
L 111.192046 251.502545 
L 111.310302 273.495273 
L 111.418705 273.495273 
L 111.536961 295.488 
L 113.28125 295.488 
L 113.409362 251.502545 
L 113.498055 251.502545 
L 113.616312 229.509818 
L 114.4244 229.509818 
L 114.542657 207.517091 
L 114.562367 207.517091 
L 114.601786 229.509818 
L 114.670769 207.517091 
L 114.690478 207.517091 
L 114.808735 229.509818 
L 115.528131 229.509818 
L 115.646388 207.517091 
L 115.725226 207.517091 
L 115.843483 229.509818 
L 115.912466 229.509818 
L 116.030723 251.502545 
L 116.040578 251.502545 
L 116.14898 273.495273 
L 116.267237 251.502545 
L 116.799392 251.502545 
L 116.917649 273.495273 
L 117.173873 273.495273 
L 117.292129 251.502545 
L 117.410386 251.502545 
L 117.528643 273.495273 
L 118.474698 273.495273 
L 118.592955 295.488 
L 118.878743 295.488 
L 118.996999 273.495273 
L 119.361625 273.495273 
L 119.489736 229.509818 
L 119.607993 229.509818 
L 119.72625 207.517091 
L 120.159859 207.517091 
L 120.278116 229.509818 
L 120.386518 229.509818 
L 120.435791 207.517091 
L 120.49492 229.509818 
L 120.623031 229.509818 
L 120.751143 273.495273 
L 121.687343 273.495273 
L 121.8056 295.488 
L 121.82531 295.488 
L 121.943567 273.495273 
L 123.037443 273.495273 
L 123.1557 251.502545 
L 124.141174 251.502545 
L 124.25943 229.509818 
L 124.338268 229.509818 
L 124.456525 251.502545 
L 125.42229 251.502545 
L 125.540547 273.495273 
L 125.717932 273.495273 
L 125.836189 295.488 
L 125.993865 295.488 
L 126.112122 273.495273 
L 126.595004 273.495273 
L 126.713261 251.502545 
L 127.274981 251.502545 
L 127.393238 273.495273 
L 127.816991 273.495273 
L 127.826846 251.502545 
L 127.925394 273.495273 
L 127.994377 273.495273 
L 128.112634 251.502545 
L 128.240745 251.502545 
L 128.359002 273.495273 
L 128.427985 273.495273 
L 128.546242 295.488 
L 128.989706 295.488 
L 129.107962 273.495273 
L 129.728811 273.495273 
L 129.847068 251.502545 
L 130.251112 251.502545 
L 130.369369 273.495273 
L 130.428498 273.495273 
L 130.556609 229.509818 
L 130.714285 229.509818 
L 130.832542 251.502545 
L 131.561793 251.502545 
L 131.611066 229.509818 
L 131.670195 251.502545 
L 131.729323 251.502545 
L 131.84758 273.495273 
L 132.862618 273.495273 
L 132.980875 295.488 
L 134.271846 295.488 
L 134.390103 273.495273 
L 134.429522 273.495273 
L 134.567488 207.517091 
L 135.572672 207.517091 
L 135.690929 229.509818 
L 135.700783 229.509818 
L 135.83875 295.488 
L 136.558146 295.488 
L 136.676402 273.495273 
L 137.849117 273.495273 
L 137.9181 295.488 
L 137.957519 273.495273 
L 138.075776 273.495273 
L 138.194032 251.502545 
L 138.519239 251.502545 
L 138.637496 229.509818 
L 139.04154 229.509818 
L 139.159797 207.517091 
L 139.218925 207.517091 
L 139.337182 229.509818 
L 139.455439 207.517091 
L 139.820064 207.517091 
L 139.938321 229.509818 
L 140.312801 229.509818 
L 140.431058 251.502545 
L 140.628153 251.502545 
L 140.756265 295.488 
L 141.012488 295.488 
L 141.130745 273.495273 
L 142.066945 273.495273 
L 142.185202 251.502545 
L 142.293604 251.502545 
L 142.411861 273.495273 
L 143.121402 273.495273 
L 143.239659 251.502545 
L 143.338207 251.502545 
L 143.456463 273.495273 
L 143.9492 273.495273 
L 144.067457 251.502545 
L 144.185714 251.502545 
L 144.303971 229.509818 
L 144.412373 229.509818 
L 144.53063 251.502545 
L 145.240171 251.502545 
L 145.358428 273.495273 
L 145.48654 273.495273 
L 145.604797 295.488 
L 145.644216 295.488 
L 145.782182 229.509818 
L 146.935187 229.509818 
L 147.073153 295.488 
L 147.220974 295.488 
L 147.349086 251.502545 
L 148.50209 251.502545 
L 148.620347 273.495273 
L 148.640057 273.495273 
L 148.758313 295.488 
L 149.349598 295.488 
L 149.467855 273.495273 
L 149.635385 273.495273 
L 149.753642 251.502545 
L 149.822625 251.502545 
L 149.881754 229.509818 
L 149.931027 251.502545 
L 150.059139 251.502545 
L 150.177396 273.495273 
L 150.374491 273.495273 
L 150.492748 251.502545 
L 150.640569 251.502545 
L 150.758826 273.495273 
L 150.906647 273.495273 
L 151.024904 251.502545 
L 151.16287 251.502545 
L 151.281127 229.509818 
L 151.655607 229.509818 
L 151.734445 251.502545 
L 151.764009 229.509818 
L 152.09907 229.509818 
L 152.207472 185.524364 
L 152.217327 207.517091 
L 152.463696 207.517091 
L 152.581952 229.509818 
L 152.739628 229.509818 
L 152.857885 207.517091 
L 152.976142 207.517091 
L 153.03527 185.524364 
L 153.084544 207.517091 
L 153.153527 207.517091 
L 153.271784 185.524364 
L 153.281639 185.524364 
L 153.370332 163.531636 
L 153.390041 185.524364 
L 153.399896 185.524364 
L 153.528007 229.509818 
L 153.557572 229.509818 
L 153.675829 251.502545 
L 153.951761 251.502545 
L 154.020744 229.509818 
L 154.060163 251.502545 
L 154.582465 251.502545 
L 154.700721 273.495273 
L 155.232877 273.495273 
L 155.242732 295.488 
L 155.34128 273.495273 
L 156.523848 273.495273 
L 156.642105 295.488 
L 157.676853 295.488 
L 157.804964 251.502545 
L 157.864093 251.502545 
L 157.98235 229.509818 
L 158.061188 229.509818 
L 158.189299 185.524364 
L 158.297701 185.524364 
L 158.415958 163.531636 
L 158.849567 163.531636 
L 158.967824 185.524364 
L 159.026952 185.524364 
L 159.155064 229.509818 
L 159.362013 229.509818 
L 159.430997 251.502545 
L 159.470415 229.509818 
L 159.598527 229.509818 
L 159.716784 251.502545 
L 160.160247 251.502545 
L 160.278504 229.509818 
L 160.692403 229.509818 
L 160.820515 273.495273 
L 161.244269 273.495273 
L 161.362525 251.502545 
L 161.431509 251.502545 
L 161.549766 273.495273 
L 161.707441 273.495273 
L 161.825698 251.502545 
L 162.12134 251.502545 
L 162.239597 229.509818 
L 162.545094 229.509818 
L 162.584513 251.502545 
L 162.653496 229.509818 
L 162.761899 229.509818 
L 162.880155 207.517091 
L 162.998412 207.517091 
L 163.116669 229.509818 
L 163.195507 229.509818 
L 163.313764 251.502545 
L 163.343328 251.502545 
L 163.422166 229.509818 
L 163.45173 251.502545 
L 163.974032 251.502545 
L 164.092288 229.509818 
L 164.269674 229.509818 
L 164.309093 207.517091 
L 164.378076 229.509818 
L 164.644154 229.509818 
L 164.762411 251.502545 
L 165.127036 251.502545 
L 165.245293 229.509818 
L 165.274857 229.509818 
L 165.393114 251.502545 
L 165.442388 251.502545 
L 165.560645 229.509818 
L 165.629628 251.502545 
L 165.669047 229.509818 
L 166.220912 229.509818 
L 166.339169 207.517091 
L 166.398297 207.517091 
L 166.516554 229.509818 
L 166.595392 229.509818 
L 166.713649 207.517091 
L 166.723504 207.517091 
L 166.851616 251.502545 
L 167.314788 251.502545 
L 167.433045 229.509818 
L 167.502028 229.509818 
L 167.620285 251.502545 
L 167.886363 251.502545 
L 167.994765 273.495273 
L 168.113022 251.502545 
L 168.408664 251.502545 
L 168.526921 229.509818 
L 168.605759 229.509818 
L 168.724016 251.502545 
L 169.216753 251.502545 
L 169.275881 229.509818 
L 169.325155 251.502545 
L 169.70949 251.502545 
L 169.827747 273.495273 
L 170.064261 273.495273 
L 170.182518 251.502545 
L 170.517579 251.502545 
L 170.635836 273.495273 
L 171.355232 273.495273 
L 171.473488 295.488 
L 171.739566 295.488 
L 171.857823 273.495273 
L 172.104192 273.495273 
L 172.222449 251.502545 
L 172.498381 251.502545 
L 172.616638 229.509818 
L 173.030537 229.509818 
L 173.148794 251.502545 
L 173.247342 251.502545 
L 173.375453 207.517091 
L 173.405017 207.517091 
L 173.523274 229.509818 
L 173.799207 229.509818 
L 173.917464 251.502545 
L 174.459475 251.502545 
L 174.538313 229.509818 
L 174.567877 251.502545 
L 174.656569 251.502545 
L 174.666424 273.495273 
L 174.764972 251.502545 
L 174.814245 251.502545 
L 174.942357 207.517091 
L 175.277418 207.517091 
L 175.395675 185.524364 
L 175.7603 185.524364 
L 175.839138 207.517091 
L 175.868702 185.524364 
L 175.96725 185.524364 
L 176.085507 207.517091 
L 176.105216 207.517091 
L 176.233328 251.502545 
L 176.558534 251.502545 
L 176.676791 273.495273 
L 176.795048 251.502545 
L 177.356768 251.502545 
L 177.475025 273.495273 
L 178.42108 273.495273 
L 178.539337 295.488 
L 178.578756 295.488 
L 178.697013 273.495273 
L 178.854689 273.495273 
L 178.972945 251.502545 
L 179.327716 251.502545 
L 179.445973 229.509818 
L 179.514956 229.509818 
L 179.633213 207.517091 
L 179.859872 207.517091 
L 179.978129 229.509818 
L 180.086531 229.509818 
L 180.214643 273.495273 
L 180.648251 273.495273 
L 180.766508 251.502545 
L 180.815782 251.502545 
L 180.934039 273.495273 
L 181.121279 273.495273 
L 181.239536 251.502545 
L 181.554887 251.502545 
L 181.682999 207.517091 
L 181.820965 207.517091 
L 181.939222 185.524364 
L 181.978641 207.517091 
L 181.99835 163.531636 
L 182.037769 163.531636 
L 182.225009 163.531636 
L 182.353121 119.546182 
L 182.41225 119.546182 
L 182.530506 141.538909 
L 182.698037 141.538909 
L 182.747311 119.546182 
L 182.806439 141.538909 
L 182.855713 141.538909 
L 182.983824 185.524364 
L 183.279467 185.524364 
L 183.407578 229.509818 
L 183.525835 229.509818 
L 183.663801 295.488 
L 186.344291 295.488 
L 186.462548 273.495273 
L 187.122815 273.495273 
L 187.241072 251.502545 
L 187.625407 251.502545 
L 187.743664 229.509818 
L 188.423641 229.509818 
L 188.541898 251.502545 
L 188.63059 251.502545 
L 188.748847 229.509818 
L 188.876959 229.509818 
L 188.926233 207.517091 
L 188.985361 229.509818 
L 188.995216 229.509818 
L 189.113473 251.502545 
L 189.832869 251.502545 
L 189.951125 273.495273 
L 190.177784 273.495273 
L 190.296041 295.488 
L 190.995728 295.488 
L 191.113985 273.495273 
L 191.212532 273.495273 
L 191.330789 251.502545 
L 191.468755 251.502545 
L 191.587012 229.509818 
L 191.862945 229.509818 
L 191.981202 207.517091 
L 192.296553 207.517091 
L 192.41481 229.509818 
L 192.483794 229.509818 
L 192.572486 251.502545 
L 192.592196 229.509818 
L 192.710453 229.509818 
L 192.828709 251.502545 
L 192.986385 251.502545 
L 193.104642 229.509818 
L 193.144061 229.509818 
L 193.262318 251.502545 
L 193.57767 251.502545 
L 193.695927 229.509818 
L 193.833893 229.509818 
L 193.863457 207.517091 
L 193.942295 229.509818 
L 194.277356 229.509818 
L 194.395613 251.502545 
L 194.444887 251.502545 
L 194.563144 229.509818 
L 194.641982 229.509818 
L 194.760238 207.517091 
L 194.878495 207.517091 
L 194.996752 229.509818 
L 195.105154 229.509818 
L 195.223411 251.502545 
L 195.617601 251.502545 
L 195.676729 229.509818 
L 195.726003 251.502545 
L 195.942807 251.502545 
L 196.061064 273.495273 
L 196.336997 273.495273 
L 196.455254 251.502545 
L 196.898717 251.502545 
L 197.016974 273.495273 
L 197.184504 273.495273 
L 197.312616 229.509818 
L 197.608258 229.509818 
L 197.726515 251.502545 
L 198.416347 251.502545 
L 198.455766 229.509818 
L 198.514894 273.495273 
L 198.544458 273.495273 
L 198.662715 251.502545 
L 198.928793 251.502545 
L 199.056905 207.517091 
L 199.106179 207.517091 
L 199.23429 163.531636 
L 199.579206 163.531636 
L 199.717173 229.509818 
L 199.776301 229.509818 
L 199.904413 273.495273 
L 200.160636 273.495273 
L 200.278893 251.502545 
L 200.387295 251.502545 
L 200.505552 273.495273 
L 200.860322 273.495273 
L 200.978579 251.502545 
L 200.998289 251.502545 
L 201.116546 273.495273 
L 201.224948 273.495273 
L 201.343205 251.502545 
L 201.628992 251.502545 
L 201.747249 229.509818 
L 201.816232 229.509818 
L 201.944344 185.524364 
L 202.161148 185.524364 
L 202.200567 207.517091 
L 202.26955 185.524364 
L 202.358243 185.524364 
L 202.486354 141.538909 
L 202.496209 141.538909 
L 202.525773 119.546182 
L 202.604611 141.538909 
L 202.64403 141.538909 
L 202.66374 163.531636 
L 202.703159 119.546182 
L 202.752432 141.538909 
L 202.821416 141.538909 
L 202.949527 185.524364 
L 203.03822 185.524364 
L 203.156477 163.531636 
L 203.215605 163.531636 
L 203.353571 229.509818 
L 203.442264 229.509818 
L 203.560521 251.502545 
L 203.590085 251.502545 
L 203.708342 229.509818 
L 203.728052 229.509818 
L 203.846308 251.502545 
L 203.984275 251.502545 
L 204.102532 273.495273 
L 204.772654 273.495273 
L 204.890911 251.502545 
L 205.009168 273.495273 
L 205.088006 273.495273 
L 205.206263 251.502545 
L 205.876385 251.502545 
L 206.004496 207.517091 
L 206.093189 207.517091 
L 206.211446 185.524364 
L 206.378977 185.524364 
L 206.497233 207.517091 
L 206.526798 207.517091 
L 206.645055 229.509818 
L 206.714038 229.509818 
L 206.723892 251.502545 
L 206.792876 207.517091 
L 206.812585 207.517091 
L 207.17721 207.517091 
L 207.295467 229.509818 
L 207.472853 229.509818 
L 207.59111 207.517091 
L 208.024718 207.517091 
L 208.15283 251.502545 
L 208.231668 251.502545 
L 208.349924 229.509818 
L 208.625857 229.509818 
L 208.744114 251.502545 
L 208.773678 229.509818 
L 208.852516 251.502545 
L 209.335398 251.502545 
L 209.473365 185.524364 
L 209.522639 185.524364 
L 209.640895 207.517091 
L 210.015376 207.517091 
L 210.04494 229.509818 
L 210.104068 163.531636 
L 210.133632 163.531636 
L 210.251889 141.538909 
L 210.340582 141.538909 
L 210.458839 119.546182 
L 210.557386 119.546182 
L 210.616515 97.553455 
L 210.655934 119.546182 
L 210.764336 163.531636 
L 210.77419 141.538909 
L 210.951576 141.538909 
L 211.069833 119.546182 
L 211.326056 119.546182 
L 211.454168 229.509818 
L 211.513296 229.509818 
L 211.641408 273.495273 
L 211.759664 251.502545 
L 211.858212 251.502545 
L 211.976469 273.495273 
L 212.745138 273.495273 
L 212.863395 251.502545 
L 212.932378 251.502545 
L 213.050635 229.509818 
L 213.109764 229.509818 
L 213.228021 207.517091 
L 213.62221 207.517091 
L 213.740467 229.509818 
L 213.80945 229.509818 
L 213.937562 273.495273 
L 214.036109 273.495273 
L 214.085383 251.502545 
L 214.144511 273.495273 
L 214.469718 273.495273 
L 214.587975 251.502545 
L 215.297516 251.502545 
L 215.405918 273.495273 
L 215.524175 251.502545 
L 215.770544 251.502545 
L 215.8888 273.495273 
L 216.687034 273.495273 
L 216.805291 251.502545 
L 217.150207 251.502545 
L 217.268464 229.509818 
L 217.573961 229.509818 
L 217.692218 207.517091 
L 217.889313 207.517091 
L 217.98786 185.524364 
L 217.997715 207.517091 
L 218.056843 207.517091 
L 218.1751 229.509818 
L 218.313066 229.509818 
L 218.441178 185.524364 
L 218.559435 207.517091 
L 218.75653 207.517091 
L 218.825513 163.531636 
L 218.874787 185.524364 
L 218.953624 185.524364 
L 219.071881 163.531636 
L 219.140864 163.531636 
L 219.259121 141.538909 
L 219.387233 141.538909 
L 219.50549 119.546182 
L 219.613892 119.546182 
L 219.742004 163.531636 
L 219.998227 163.531636 
L 220.136193 229.509818 
L 220.205176 229.509818 
L 220.323433 251.502545 
L 220.540238 251.502545 
L 220.62893 273.495273 
L 220.638785 229.509818 
L 220.658494 229.509818 
L 220.688059 207.517091 
L 220.766897 229.509818 
L 221.791789 229.509818 
L 221.910046 185.524364 
L 222.028303 251.502545 
L 222.067722 251.502545 
L 222.185979 185.524364 
L 222.619588 185.524364 
L 222.747699 141.538909 
L 223.072906 141.538909 
L 223.201017 185.524364 
L 223.279855 185.524364 
L 223.368548 163.531636 
L 223.378403 207.517091 
L 223.427676 207.517091 
L 223.467095 229.509818 
L 223.536078 207.517091 
L 223.66419 207.517091 
L 223.782447 229.509818 
L 223.841575 229.509818 
L 223.979542 295.488 
L 224.107653 251.502545 
L 225.270513 251.502545 
L 225.388769 273.495273 
L 225.398624 273.495273 
L 225.516881 295.488 
L 227.271025 295.488 
L 227.389282 273.495273 
L 227.477974 273.495273 
L 227.606086 229.509818 
L 228.552141 229.509818 
L 228.621124 251.502545 
L 228.660543 229.509818 
L 228.7788 229.509818 
L 228.897057 251.502545 
L 229.084297 251.502545 
L 229.212408 207.517091 
L 229.439068 207.517091 
L 229.567179 163.531636 
L 229.872676 163.531636 
L 229.92195 141.538909 
L 229.981078 163.531636 
L 230.10919 163.531636 
L 230.227447 185.524364 
L 230.375268 185.524364 
L 230.48367 229.509818 
L 230.493525 207.517091 
L 230.592072 207.517091 
L 230.710329 163.531636 
L 230.739893 163.531636 
L 230.779312 185.524364 
L 230.848295 163.531636 
L 230.87786 163.531636 
L 230.996116 185.524364 
L 231.153792 185.524364 
L 231.272049 207.517091 
L 231.331178 207.517091 
L 231.449434 185.524364 
L 231.666239 185.524364 
L 231.764786 141.538909 
L 231.784496 163.531636 
L 231.892898 163.531636 
L 232.011155 185.524364 
L 232.040719 185.524364 
L 232.080138 163.531636 
L 232.149121 185.524364 
L 232.218104 185.524364 
L 232.336361 163.531636 
L 232.395489 163.531636 
L 232.464473 119.546182 
L 232.513746 141.538909 
L 232.612294 141.538909 
L 232.740405 185.524364 
L 232.868517 185.524364 
L 232.986774 207.517091 
L 233.193723 207.517091 
L 233.31198 229.509818 
L 233.341544 229.509818 
L 233.459801 251.502545 
L 233.68646 251.502545 
L 233.804717 273.495273 
L 233.962393 273.495273 
L 234.090505 229.509818 
L 234.24818 229.509818 
L 234.366437 251.502545 
L 234.484694 229.509818 
L 234.740917 229.509818 
L 234.869029 185.524364 
L 234.928158 185.524364 
L 235.046414 163.531636 
L 235.253364 163.531636 
L 235.381476 207.517091 
L 235.667263 207.517091 
L 235.746101 229.509818 
L 235.775665 207.517091 
L 236.022034 207.517091 
L 236.150145 251.502545 
L 236.189564 251.502545 
L 236.228983 229.509818 
L 236.297966 251.502545 
L 236.859687 251.502545 
L 236.987798 207.517091 
L 237.046927 207.517091 
L 237.165183 229.509818 
L 237.214457 229.509818 
L 237.342569 185.524364 
L 237.450971 185.524364 
L 237.49039 163.531636 
L 237.559373 185.524364 
L 237.963417 185.524364 
L 238.101384 119.546182 
L 238.150657 119.546182 
L 238.229495 163.531636 
L 238.268914 141.538909 
L 238.328043 141.538909 
L 238.456154 97.553455 
L 238.495573 97.553455 
L 238.623685 141.538909 
L 238.722232 141.538909 
L 238.840489 185.524364 
L 239.244534 185.524364 
L 239.372645 273.495273 
L 239.687997 273.495273 
L 239.806254 295.488 
L 240.111751 295.488 
L 240.230008 273.495273 
L 240.752309 273.495273 
L 240.870566 251.502545 
L 241.383012 251.502545 
L 241.501269 273.495273 
L 242.013715 273.495273 
L 242.131972 295.488 
L 243.491926 295.488 
L 243.610183 273.495273 
L 244.773043 273.495273 
L 244.891299 295.488 
L 245.157377 295.488 
L 245.275634 273.495273 
L 245.413601 273.495273 
L 245.531857 251.502545 
L 245.659969 251.502545 
L 245.778226 185.524364 
L 246.349801 185.524364 
L 246.477912 229.509818 
L 246.55675 229.509818 
L 246.675007 251.502545 
L 246.960795 251.502545 
L 247.088906 295.488 
L 249.276659 295.488 
L 249.394915 273.495273 
L 250.577484 273.495273 
L 250.695741 295.488 
L 252.085259 295.488 
L 252.203516 273.495273 
L 253.346666 273.495273 
L 253.464923 295.488 
L 256.983065 295.488 
L 257.101322 273.495273 
L 257.820718 273.495273 
L 257.938975 251.502545 
L 258.283891 251.502545 
L 258.402148 273.495273 
L 259.091979 273.495273 
L 259.210236 295.488 
L 260.057744 295.488 
L 260.176001 273.495273 
L 261.358569 273.495273 
L 261.476826 295.488 
L 261.565519 295.488 
L 261.683776 273.495273 
L 262.196222 273.495273 
L 262.314479 251.502545 
L 262.866345 251.502545 
L 262.955037 273.495273 
L 262.974747 251.502545 
L 263.221115 251.502545 
L 263.339372 229.509818 
L 263.408355 229.509818 
L 263.497048 207.517091 
L 263.516757 229.509818 
L 264.255863 229.509818 
L 264.383975 273.495273 
L 264.443103 273.495273 
L 264.521941 251.502545 
L 264.551505 273.495273 
L 264.797874 273.495273 
L 264.916131 251.502545 
L 265.734074 251.502545 
L 265.743929 229.509818 
L 265.842476 251.502545 
L 266.098699 251.502545 
L 266.216956 273.495273 
L 266.345068 273.495273 
L 266.463325 295.488 
L 267.340396 295.488 
L 267.458653 273.495273 
L 268.621513 273.495273 
L 268.73977 295.488 
L 268.995993 295.488 
L 269.11425 273.495273 
L 270.296818 273.495273 
L 270.415075 295.488 
L 271.203454 295.488 
L 271.321711 273.495273 
L 272.257912 273.495273 
L 272.376168 251.502545 
L 272.50428 251.502545 
L 272.622537 273.495273 
L 273.056146 273.495273 
L 273.174402 251.502545 
L 273.558737 251.502545 
L 273.637575 273.495273 
L 273.667139 251.502545 
L 274.169731 251.502545 
L 274.287988 229.509818 
L 274.356971 229.509818 
L 274.475228 251.502545 
L 274.918691 251.502545 
L 275.036948 273.495273 
L 275.135496 273.495273 
L 275.253752 251.502545 
L 275.460702 251.502545 
L 275.578959 273.495273 
L 275.963294 273.495273 
L 276.081551 251.502545 
L 276.426467 251.502545 
L 276.446176 273.495273 
L 276.534869 251.502545 
L 277.214846 251.502545 
L 277.333103 273.495273 
L 277.471069 273.495273 
L 277.589326 251.502545 
L 277.737147 251.502545 
L 277.855404 273.495273 
L 278.74233 273.495273 
L 278.860587 295.488 
L 286.153095 295.488 
L 286.271351 273.495273 
L 287.434211 273.495273 
L 287.552468 295.488 
L 287.788981 295.488 
L 287.907238 273.495273 
L 289.079952 273.495273 
L 289.198209 295.488 
L 289.868331 295.488 
L 289.986588 273.495273 
L 290.449761 273.495273 
L 290.568018 251.502545 
L 291.169157 251.502545 
L 291.287414 273.495273 
L 291.721023 273.495273 
L 291.839279 295.488 
L 305.290999 295.488 
L 305.409256 273.495273 
L 306.591825 273.495273 
L 306.710082 295.488 
L 307.89265 295.488 
L 308.010907 273.495273 
L 309.193476 273.495273 
L 309.311733 295.488 
L 310.247933 295.488 
L 310.36619 273.495273 
L 311.538904 273.495273 
L 311.657161 295.488 
L 312.011932 295.488 
L 312.130189 273.495273 
L 313.312757 273.495273 
L 313.431014 295.488 
L 318.131725 295.488 
L 318.249982 273.495273 
L 318.318965 273.495273 
L 318.437222 251.502545 
L 318.466786 251.502545 
L 318.585043 273.495273 
L 318.644171 273.495273 
L 318.762428 295.488 
L 331.662283 295.488 
L 331.78054 273.495273 
L 332.933544 273.495273 
L 333.051801 295.488 
L 333.554393 295.488 
L 333.67265 273.495273 
L 334.835509 273.495273 
L 334.953766 295.488 
L 337.309049 295.488 
L 337.427305 273.495273 
L 338.600019 273.495273 
L 338.718276 295.488 
L 339.950119 295.488 
L 340.068376 273.495273 
L 341.24109 273.495273 
L 341.359347 295.488 
L 341.921067 295.488 
L 342.059033 229.509818 
L 342.817848 229.509818 
L 342.936105 207.517091 
L 343.212038 207.517091 
L 343.350004 273.495273 
L 344.108819 273.495273 
L 344.217221 295.488 
L 344.335478 273.495273 
L 344.345333 273.495273 
L 344.46359 251.502545 
L 344.512863 251.502545 
L 344.63112 229.509818 
L 345.370226 229.509818 
L 345.488482 207.517091 
L 345.498337 207.517091 
L 345.616594 229.509818 
L 345.646158 229.509818 
L 345.675723 251.502545 
L 345.75456 229.509818 
L 345.813689 229.509818 
L 345.931946 251.502545 
L 346.572504 251.502545 
L 346.690761 229.509818 
L 346.956839 229.509818 
L 347.075096 251.502545 
L 347.87333 251.502545 
L 348.001441 295.488 
L 351.332343 295.488 
L 351.460455 251.502545 
L 351.677259 251.502545 
L 351.795516 229.509818 
L 351.884209 229.509818 
L 352.002465 207.517091 
L 352.189706 207.517091 
L 352.307962 185.524364 
L 352.514912 185.524364 
L 352.633169 163.531636 
L 352.751426 207.517091 
L 352.958375 207.517091 
L 353.076632 229.509818 
L 353.185034 229.509818 
L 353.303291 251.502545 
L 353.352565 251.502545 
L 353.470822 229.509818 
L 353.490531 229.509818 
L 353.579224 251.502545 
L 353.598933 229.509818 
L 353.628498 229.509818 
L 353.746754 207.517091 
L 353.796028 207.517091 
L 353.914285 229.509818 
L 354.643536 229.509818 
L 354.761793 251.502545 
L 354.870195 251.502545 
L 354.998306 295.488 
L 355.934507 295.488 
L 356.062618 251.502545 
L 356.210439 251.502545 
L 356.328696 229.509818 
L 356.791869 229.509818 
L 356.910126 207.517091 
L 357.235332 207.517091 
L 357.363444 251.502545 
L 357.50141 251.502545 
L 357.619667 273.495273 
L 357.728069 273.495273 
L 357.846326 251.502545 
L 358.072985 251.502545 
L 358.191242 273.495273 
L 358.989476 273.495273 
L 359.107733 295.488 
L 359.324537 295.488 
L 359.442794 273.495273 
L 359.728581 273.495273 
L 359.846838 251.502545 
L 360.605653 251.502545 
L 360.72391 273.495273 
L 361.019552 273.495273 
L 361.137809 295.488 
L 363.975974 295.488 
L 364.094231 273.495273 
L 365.266945 273.495273 
L 365.385202 295.488 
L 366.686028 295.488 
L 366.804285 273.495273 
L 366.922541 273.495273 
L 367.040798 251.502545 
L 367.967144 251.502545 
L 368.085401 273.495273 
L 368.12482 273.495273 
L 368.213512 251.502545 
L 368.233222 273.495273 
L 368.913199 273.495273 
L 369.031456 251.502545 
L 369.405936 251.502545 
L 369.484774 273.495273 
L 369.514338 251.502545 
L 370.174606 251.502545 
L 370.18446 229.509818 
L 370.283008 251.502545 
L 370.775745 251.502545 
L 370.894002 273.495273 
L 371.012258 273.495273 
L 371.14037 229.509818 
L 371.150225 229.509818 
L 371.307901 119.546182 
L 371.485286 119.546182 
L 371.603543 141.538909 
L 372.165263 141.538909 
L 372.28352 119.546182 
L 372.313084 119.546182 
L 372.372212 141.538909 
L 372.421486 119.546182 
L 372.45105 119.546182 
L 372.608726 229.509818 
L 373.23943 229.509818 
L 373.357686 207.517091 
L 373.466089 207.517091 
L 373.584345 229.509818 
L 373.643474 229.509818 
L 373.771586 273.495273 
L 374.540255 273.495273 
L 374.658512 295.488 
L 374.757059 295.488 
L 374.875316 273.495273 
L 375.200523 273.495273 
L 375.31878 251.502545 
L 375.348344 251.502545 
L 375.466601 229.509818 
L 376.057885 229.509818 
L 376.097304 251.502545 
L 376.166287 229.509818 
L 376.491494 229.509818 
L 376.609751 251.502545 
L 376.649169 251.502545 
L 376.767426 273.495273 
L 377.37842 273.495273 
L 377.496677 295.488 
L 381.497701 295.488 
L 381.615958 273.495273 
L 382.798527 273.495273 
L 382.897074 295.488 
L 382.906929 273.495273 
L 383.82342 273.495273 
L 383.941677 251.502545 
L 383.971241 251.502545 
L 384.089498 229.509818 
L 384.178191 229.509818 
L 384.296448 251.502545 
L 384.877877 251.502545 
L 384.996134 229.509818 
L 385.124246 229.509818 
L 385.15381 251.502545 
L 385.232648 229.509818 
L 385.272067 229.509818 
L 385.390324 251.502545 
L 386.168848 251.502545 
L 386.287105 273.495273 
L 386.434926 273.495273 
L 386.553183 295.488 
L 389.036577 295.488 
L 389.154834 273.495273 
L 389.213963 273.495273 
L 389.342074 229.509818 
L 389.49975 229.509818 
L 389.618007 207.517091 
L 389.696845 207.517091 
L 389.824957 163.531636 
L 389.844666 163.531636 
L 389.962923 185.524364 
L 390.031906 185.524364 
L 390.08118 207.517091 
L 390.140308 185.524364 
L 390.45566 185.524364 
L 390.583771 229.509818 
L 390.987816 229.509818 
L 391.115927 273.495273 
L 391.342586 273.495273 
L 391.460843 295.488 
L 394.584796 295.488 
L 394.712907 251.502545 
L 395.284482 251.502545 
L 395.402739 229.509818 
L 395.727946 229.509818 
L 395.846202 207.517091 
L 395.875767 207.517091 
L 395.994024 229.509818 
L 396.585308 229.509818 
L 396.703565 251.502545 
L 397.028771 251.502545 
L 397.107609 273.495273 
L 397.137173 251.502545 
L 397.235721 251.502545 
L 397.353978 273.495273 
L 398.388725 273.495273 
L 398.487273 295.488 
L 398.487273 295.488 
" clip-path="url(#p32ff4eba8b)" style="fill: none; stroke: #1f77b4; stroke-width: 1.5; stroke-linecap: square"/>
   </g>
   <g id="line2d_15">
    <path d="M 266.414051 307.584 
L 266.414051 41.472 
" clip-path="url(#p32ff4eba8b)" style="fill: none; stroke-dasharray: 5.55,2.4; stroke-dashoffset: 0; stroke: #ff0000; stroke-width: 1.5"/>
   </g>
   <g id="line2d_16">
    <path d="M 269.912484 307.584 
L 269.912484 41.472 
" clip-path="url(#p32ff4eba8b)" style="fill: none; stroke-dasharray: 5.55,2.4; stroke-dashoffset: 0; stroke: #ff0000; stroke-width: 1.5"/>
   </g>
   <g id="patch_3">
    <path d="M 57.6 307.584 
L 57.6 41.472 
" style="fill: none; stroke: #000000; stroke-width: 0.8; stroke-linejoin: miter; stroke-linecap: square"/>
   </g>
   <g id="patch_4">
    <path d="M 414.72 307.584 
L 414.72 41.472 
" style="fill: none; stroke: #000000; stroke-width: 0.8; stroke-linejoin: miter; stroke-linecap: square"/>
   </g>
   <g id="patch_5">
    <path d="M 57.6 307.584 
L 414.72 307.584 
" style="fill: none; stroke: #000000; stroke-width: 0.8; stroke-linejoin: miter; stroke-linecap: square"/>
   </g>
   <g id="patch_6">
    <path d="M 57.6 41.472 
L 414.72 41.472 
" style="fill: none; stroke: #000000; stroke-width: 0.8; stroke-linejoin: miter; stroke-linecap: square"/>
   </g>
   <g id="text_16">
    <!-- Viral coverage: Caudorviricetes sp. isolate ctJ1L4 -->
    <g transform="translate(89.079375 22.034625) scale(0.12 -0.12)">
     <defs>
      <path id="DejaVuSans-56" d="M 1831 0 
L 50 4666 
L 709 4666 
L 2188 738 
L 3669 4666 
L 4325 4666 
L 2547 0 
L 1831 0 
z
" transform="scale(0.015625)"/>
      <path id="DejaVuSans-3a" d="M 750 794 
L 1409 794 
L 1409 0 
L 750 0 
L 750 794 
z
M 750 3309 
L 1409 3309 
L 1409 2516 
L 750 2516 
L 750 3309 
z
" transform="scale(0.015625)"/>
      <path id="DejaVuSans-2e" d="M 684 794 
L 1344 794 
L 1344 0 
L 684 0 
L 684 794 
z
" transform="scale(0.015625)"/>
      <path id="DejaVuSans-4a" d="M 628 4666 
L 1259 4666 
L 1259 325 
Q 1259 -519 939 -900 
Q 619 -1281 -91 -1281 
L -331 -1281 
L -331 -750 
L -134 -750 
Q 284 -750 456 -515 
Q 628 -281 628 325 
L 628 4666 
z
" transform="scale(0.015625)"/>
      <path id="DejaVuSans-4c" d="M 628 4666 
L 1259 4666 
L 1259 531 
L 3531 531 
L 3531 0 
L 628 0 
L 628 4666 
z
" transform="scale(0.015625)"/>
     </defs>
     <use xlink:href="#DejaVuSans-56"/>
     <use xlink:href="#DejaVuSans-69" x="66.158203"/>
     <use xlink:href="#DejaVuSans-72" x="93.941406"/>
     <use xlink:href="#DejaVuSans-61" x="135.054688"/>
     <use xlink:href="#DejaVuSans-6c" x="196.333984"/>
     <use xlink:href="#DejaVuSans-20" x="224.117188"/>
     <use xlink:href="#DejaVuSans-63" x="255.904297"/>
     <use xlink:href="#DejaVuSans-6f" x="310.884766"/>
     <use xlink:href="#DejaVuSans-76" x="372.066406"/>
     <use xlink:href="#DejaVuSans-65" x="431.246094"/>
     <use xlink:href="#DejaVuSans-72" x="492.769531"/>
     <use xlink:href="#DejaVuSans-61" x="533.882812"/>
     <use xlink:href="#DejaVuSans-67" x="595.162109"/>
     <use xlink:href="#DejaVuSans-65" x="658.638672"/>
     <use xlink:href="#DejaVuSans-3a" x="720.162109"/>
     <use xlink:href="#DejaVuSans-20" x="753.853516"/>
     <use xlink:href="#DejaVuSans-43" x="785.640625"/>
     <use xlink:href="#DejaVuSans-61" x="855.464844"/>
     <use xlink:href="#DejaVuSans-75" x="916.744141"/>
     <use xlink:href="#DejaVuSans-64" x="980.123047"/>
     <use xlink:href="#DejaVuSans-6f" x="1043.599609"/>
     <use xlink:href="#DejaVuSans-72" x="1104.78125"/>
     <use xlink:href="#DejaVuSans-76" x="1145.894531"/>
     <use xlink:href="#DejaVuSans-69" x="1205.074219"/>
     <use xlink:href="#DejaVuSans-72" x="1232.857422"/>
     <use xlink:href="#DejaVuSans-69" x="1273.970703"/>
     <use xlink:href="#DejaVuSans-63" x="1301.753906"/>
     <use xlink:href="#DejaVuSans-65" x="1356.734375"/>
     <use xlink:href="#DejaVuSans-74" x="1418.257812"/>
     <use xlink:href="#DejaVuSans-65" x="1457.466797"/>
     <use xlink:href="#DejaVuSans-73" x="1518.990234"/>
     <use xlink:href="#DejaVuSans-20" x="1571.089844"/>
     <use xlink:href="#DejaVuSans-73" x="1602.876953"/>
     <use xlink:href="#DejaVuSans-70" x="1654.976562"/>
     <use xlink:href="#DejaVuSans-2e" x="1718.453125"/>
     <use xlink:href="#DejaVuSans-20" x="1750.240234"/>
     <use xlink:href="#DejaVuSans-69" x="1782.027344"/>
     <use xlink:href="#DejaVuSans-73" x="1809.810547"/>
     <use xlink:href="#DejaVuSans-6f" x="1861.910156"/>
     <use xlink:href="#DejaVuSans-6c" x="1923.091797"/>
     <use xlink:href="#DejaVuSans-61" x="1950.875"/>
     <use xlink:href="#DejaVuSans-74" x="2012.154297"/>
     <use xlink:href="#DejaVuSans-65" x="2051.363281"/>
     <use xlink:href="#DejaVuSans-20" x="2112.886719"/>
     <use xlink:href="#DejaVuSans-63" x="2144.673828"/>
     <use xlink:href="#DejaVuSans-74" x="2199.654297"/>
     <use xlink:href="#DejaVuSans-4a" x="2238.863281"/>
     <use xlink:href="#DejaVuSans-31" x="2268.355469"/>
     <use xlink:href="#DejaVuSans-4c" x="2331.978516"/>
     <use xlink:href="#DejaVuSans-34" x="2387.691406"/>
    </g>
    <!-- Total coverage: 70.46% -->
    <g transform="translate(165.5775 35.472) scale(0.12 -0.12)">
     <defs>
      <path id="DejaVuSans-54" d="M -19 4666 
L 3928 4666 
L 3928 4134 
L 2272 4134 
L 2272 0 
L 1638 0 
L 1638 4134 
L -19 4134 
L -19 4666 
z
" transform="scale(0.015625)"/>
      <path id="DejaVuSans-37" d="M 525 4666 
L 3525 4666 
L 3525 4397 
L 1831 0 
L 1172 0 
L 2766 4134 
L 525 4134 
L 525 4666 
z
" transform="scale(0.015625)"/>
      <path id="DejaVuSans-25" d="M 4653 2053 
Q 4381 2053 4226 1822 
Q 4072 1591 4072 1178 
Q 4072 772 4226 539 
Q 4381 306 4653 306 
Q 4919 306 5073 539 
Q 5228 772 5228 1178 
Q 5228 1588 5073 1820 
Q 4919 2053 4653 2053 
z
M 4653 2450 
Q 5147 2450 5437 2106 
Q 5728 1763 5728 1178 
Q 5728 594 5436 251 
Q 5144 -91 4653 -91 
Q 4153 -91 3862 251 
Q 3572 594 3572 1178 
Q 3572 1766 3864 2108 
Q 4156 2450 4653 2450 
z
M 1428 4353 
Q 1159 4353 1004 4120 
Q 850 3888 850 3481 
Q 850 3069 1003 2837 
Q 1156 2606 1428 2606 
Q 1700 2606 1854 2837 
Q 2009 3069 2009 3481 
Q 2009 3884 1853 4118 
Q 1697 4353 1428 4353 
z
M 4250 4750 
L 4750 4750 
L 1831 -91 
L 1331 -91 
L 4250 4750 
z
M 1428 4750 
Q 1922 4750 2215 4408 
Q 2509 4066 2509 3481 
Q 2509 2891 2217 2550 
Q 1925 2209 1428 2209 
Q 931 2209 642 2551 
Q 353 2894 353 3481 
Q 353 4063 643 4406 
Q 934 4750 1428 4750 
z
" transform="scale(0.015625)"/>
     </defs>
     <use xlink:href="#DejaVuSans-54"/>
     <use xlink:href="#DejaVuSans-6f" x="44.083984"/>
     <use xlink:href="#DejaVuSans-74" x="105.265625"/>
     <use xlink:href="#DejaVuSans-61" x="144.474609"/>
     <use xlink:href="#DejaVuSans-6c" x="205.753906"/>
     <use xlink:href="#DejaVuSans-20" x="233.537109"/>
     <use xlink:href="#DejaVuSans-63" x="265.324219"/>
     <use xlink:href="#DejaVuSans-6f" x="320.304688"/>
     <use xlink:href="#DejaVuSans-76" x="381.486328"/>
     <use xlink:href="#DejaVuSans-65" x="440.666016"/>
     <use xlink:href="#DejaVuSans-72" x="502.189453"/>
     <use xlink:href="#DejaVuSans-61" x="543.302734"/>
     <use xlink:href="#DejaVuSans-67" x="604.582031"/>
     <use xlink:href="#DejaVuSans-65" x="668.058594"/>
     <use xlink:href="#DejaVuSans-3a" x="729.582031"/>
     <use xlink:href="#DejaVuSans-20" x="763.273438"/>
     <use xlink:href="#DejaVuSans-37" x="795.060547"/>
     <use xlink:href="#DejaVuSans-30" x="858.683594"/>
     <use xlink:href="#DejaVuSans-2e" x="922.306641"/>
     <use xlink:href="#DejaVuSans-34" x="954.09375"/>
     <use xlink:href="#DejaVuSans-36" x="1017.716797"/>
     <use xlink:href="#DejaVuSans-25" x="1081.339844"/>
    </g>
   </g>
  </g>
 </g>
 <defs>
  <clipPath id="p32ff4eba8b">
   <rect x="57.6" y="41.472" width="357.12" height="266.112"/>
  </clipPath>
 </defs>
</svg>
