<?xml version="1.0" encoding="utf-8" standalone="no"?>
<!DOCTYPE svg PUBLIC "-//W3C//DTD SVG 1.1//EN"
  "http://www.w3.org/Graphics/SVG/1.1/DTD/svg11.dtd">
<svg xmlns:xlink="http://www.w3.org/1999/xlink" width="460.8pt" height="345.6pt" viewBox="0 0 460.8 345.6" xmlns="http://www.w3.org/2000/svg" version="1.1">
 <metadata>
  <rdf:RDF xmlns:dc="http://purl.org/dc/elements/1.1/" xmlns:cc="http://creativecommons.org/ns#" xmlns:rdf="http://www.w3.org/1999/02/22-rdf-syntax-ns#">
   <cc:Work>
    <dc:type rdf:resource="http://purl.org/dc/dcmitype/StillImage"/>
    <dc:date>2024-09-18T15:22:32.265423</dc:date>
    <dc:format>image/svg+xml</dc:format>
    <dc:creator>
     <cc:Agent>
      <dc:title>Matplotlib v3.9.1.post1, https://matplotlib.org/</dc:title>
     </cc:Agent>
    </dc:creator>
   </cc:Work>
  </rdf:RDF>
 </metadata>
 <defs>
  <style type="text/css">*{stroke-linejoin: round; stroke-linecap: butt}</style>
 </defs>
 <g id="figure_1">
  <g id="patch_1">
   <path d="M 0 345.6 
L 460.8 345.6 
L 460.8 0 
L 0 0 
z
" style="fill: #ffffff"/>
  </g>
  <g id="axes_1">
   <g id="patch_2">
    <path d="M 57.6 307.584 
L 414.72 307.584 
L 414.72 41.472 
L 57.6 41.472 
z
" style="fill: #ffffff"/>
   </g>
   <g id="PolyCollection_1"/>
   <g id="matplotlib.axis_1">
    <g id="xtick_1">
     <g id="line2d_1">
      <defs>
       <path id="m5dc83bbdb2" d="M 0 0 
L 0 3.5 
" style="stroke: #000000; stroke-width: 0.8"/>
      </defs>
      <g>
       <use xlink:href="#m5dc83bbdb2" x="73.823936" y="307.584" style="stroke: #000000; stroke-width: 0.8"/>
      </g>
     </g>
     <g id="text_1">
      <!-- 0 -->
      <g transform="translate(70.642686 322.182437) scale(0.1 -0.1)">
       <defs>
        <path id="DejaVuSans-30" d="M 2034 4250 
Q 1547 4250 1301 3770 
Q 1056 3291 1056 2328 
Q 1056 1369 1301 889 
Q 1547 409 2034 409 
Q 2525 409 2770 889 
Q 3016 1369 3016 2328 
Q 3016 3291 2770 3770 
Q 2525 4250 2034 4250 
z
M 2034 4750 
Q 2819 4750 3233 4129 
Q 3647 3509 3647 2328 
Q 3647 1150 3233 529 
Q 2819 -91 2034 -91 
Q 1250 -91 836 529 
Q 422 1150 422 2328 
Q 422 3509 836 4129 
Q 1250 4750 2034 4750 
z
" transform="scale(0.015625)"/>
       </defs>
       <use xlink:href="#DejaVuSans-30"/>
      </g>
     </g>
    </g>
    <g id="xtick_2">
     <g id="line2d_2">
      <g>
       <use xlink:href="#m5dc83bbdb2" x="117.778141" y="307.584" style="stroke: #000000; stroke-width: 0.8"/>
      </g>
     </g>
     <g id="text_2">
      <!-- 5000 -->
      <g transform="translate(105.053141 322.182437) scale(0.1 -0.1)">
       <defs>
        <path id="DejaVuSans-35" d="M 691 4666 
L 3169 4666 
L 3169 4134 
L 1269 4134 
L 1269 2991 
Q 1406 3038 1543 3061 
Q 1681 3084 1819 3084 
Q 2600 3084 3056 2656 
Q 3513 2228 3513 1497 
Q 3513 744 3044 326 
Q 2575 -91 1722 -91 
Q 1428 -91 1123 -41 
Q 819 9 494 109 
L 494 744 
Q 775 591 1075 516 
Q 1375 441 1709 441 
Q 2250 441 2565 725 
Q 2881 1009 2881 1497 
Q 2881 1984 2565 2268 
Q 2250 2553 1709 2553 
Q 1456 2553 1204 2497 
Q 953 2441 691 2322 
L 691 4666 
z
" transform="scale(0.015625)"/>
       </defs>
       <use xlink:href="#DejaVuSans-35"/>
       <use xlink:href="#DejaVuSans-30" x="63.623047"/>
       <use xlink:href="#DejaVuSans-30" x="127.246094"/>
       <use xlink:href="#DejaVuSans-30" x="190.869141"/>
      </g>
     </g>
    </g>
    <g id="xtick_3">
     <g id="line2d_3">
      <g>
       <use xlink:href="#m5dc83bbdb2" x="161.732345" y="307.584" style="stroke: #000000; stroke-width: 0.8"/>
      </g>
     </g>
     <g id="text_3">
      <!-- 10000 -->
      <g transform="translate(145.826095 322.182437) scale(0.1 -0.1)">
       <defs>
        <path id="DejaVuSans-31" d="M 794 531 
L 1825 531 
L 1825 4091 
L 703 3866 
L 703 4441 
L 1819 4666 
L 2450 4666 
L 2450 531 
L 3481 531 
L 3481 0 
L 794 0 
L 794 531 
z
" transform="scale(0.015625)"/>
       </defs>
       <use xlink:href="#DejaVuSans-31"/>
       <use xlink:href="#DejaVuSans-30" x="63.623047"/>
       <use xlink:href="#DejaVuSans-30" x="127.246094"/>
       <use xlink:href="#DejaVuSans-30" x="190.869141"/>
       <use xlink:href="#DejaVuSans-30" x="254.492188"/>
      </g>
     </g>
    </g>
    <g id="xtick_4">
     <g id="line2d_4">
      <g>
       <use xlink:href="#m5dc83bbdb2" x="205.68655" y="307.584" style="stroke: #000000; stroke-width: 0.8"/>
      </g>
     </g>
     <g id="text_4">
      <!-- 15000 -->
      <g transform="translate(189.7803 322.182437) scale(0.1 -0.1)">
       <use xlink:href="#DejaVuSans-31"/>
       <use xlink:href="#DejaVuSans-35" x="63.623047"/>
       <use xlink:href="#DejaVuSans-30" x="127.246094"/>
       <use xlink:href="#DejaVuSans-30" x="190.869141"/>
       <use xlink:href="#DejaVuSans-30" x="254.492188"/>
      </g>
     </g>
    </g>
    <g id="xtick_5">
     <g id="line2d_5">
      <g>
       <use xlink:href="#m5dc83bbdb2" x="249.640755" y="307.584" style="stroke: #000000; stroke-width: 0.8"/>
      </g>
     </g>
     <g id="text_5">
      <!-- 20000 -->
      <g transform="translate(233.734505 322.182437) scale(0.1 -0.1)">
       <defs>
        <path id="DejaVuSans-32" d="M 1228 531 
L 3431 531 
L 3431 0 
L 469 0 
L 469 531 
Q 828 903 1448 1529 
Q 2069 2156 2228 2338 
Q 2531 2678 2651 2914 
Q 2772 3150 2772 3378 
Q 2772 3750 2511 3984 
Q 2250 4219 1831 4219 
Q 1534 4219 1204 4116 
Q 875 4013 500 3803 
L 500 4441 
Q 881 4594 1212 4672 
Q 1544 4750 1819 4750 
Q 2544 4750 2975 4387 
Q 3406 4025 3406 3419 
Q 3406 3131 3298 2873 
Q 3191 2616 2906 2266 
Q 2828 2175 2409 1742 
Q 1991 1309 1228 531 
z
" transform="scale(0.015625)"/>
       </defs>
       <use xlink:href="#DejaVuSans-32"/>
       <use xlink:href="#DejaVuSans-30" x="63.623047"/>
       <use xlink:href="#DejaVuSans-30" x="127.246094"/>
       <use xlink:href="#DejaVuSans-30" x="190.869141"/>
       <use xlink:href="#DejaVuSans-30" x="254.492188"/>
      </g>
     </g>
    </g>
    <g id="xtick_6">
     <g id="line2d_6">
      <g>
       <use xlink:href="#m5dc83bbdb2" x="293.594959" y="307.584" style="stroke: #000000; stroke-width: 0.8"/>
      </g>
     </g>
     <g id="text_6">
      <!-- 25000 -->
      <g transform="translate(277.688709 322.182437) scale(0.1 -0.1)">
       <use xlink:href="#DejaVuSans-32"/>
       <use xlink:href="#DejaVuSans-35" x="63.623047"/>
       <use xlink:href="#DejaVuSans-30" x="127.246094"/>
       <use xlink:href="#DejaVuSans-30" x="190.869141"/>
       <use xlink:href="#DejaVuSans-30" x="254.492188"/>
      </g>
     </g>
    </g>
    <g id="xtick_7">
     <g id="line2d_7">
      <g>
       <use xlink:href="#m5dc83bbdb2" x="337.549164" y="307.584" style="stroke: #000000; stroke-width: 0.8"/>
      </g>
     </g>
     <g id="text_7">
      <!-- 30000 -->
      <g transform="translate(321.642914 322.182437) scale(0.1 -0.1)">
       <defs>
        <path id="DejaVuSans-33" d="M 2597 2516 
Q 3050 2419 3304 2112 
Q 3559 1806 3559 1356 
Q 3559 666 3084 287 
Q 2609 -91 1734 -91 
Q 1441 -91 1130 -33 
Q 819 25 488 141 
L 488 750 
Q 750 597 1062 519 
Q 1375 441 1716 441 
Q 2309 441 2620 675 
Q 2931 909 2931 1356 
Q 2931 1769 2642 2001 
Q 2353 2234 1838 2234 
L 1294 2234 
L 1294 2753 
L 1863 2753 
Q 2328 2753 2575 2939 
Q 2822 3125 2822 3475 
Q 2822 3834 2567 4026 
Q 2313 4219 1838 4219 
Q 1578 4219 1281 4162 
Q 984 4106 628 3988 
L 628 4550 
Q 988 4650 1302 4700 
Q 1616 4750 1894 4750 
Q 2613 4750 3031 4423 
Q 3450 4097 3450 3541 
Q 3450 3153 3228 2886 
Q 3006 2619 2597 2516 
z
" transform="scale(0.015625)"/>
       </defs>
       <use xlink:href="#DejaVuSans-33"/>
       <use xlink:href="#DejaVuSans-30" x="63.623047"/>
       <use xlink:href="#DejaVuSans-30" x="127.246094"/>
       <use xlink:href="#DejaVuSans-30" x="190.869141"/>
       <use xlink:href="#DejaVuSans-30" x="254.492188"/>
      </g>
     </g>
    </g>
    <g id="xtick_8">
     <g id="line2d_8">
      <g>
       <use xlink:href="#m5dc83bbdb2" x="381.503368" y="307.584" style="stroke: #000000; stroke-width: 0.8"/>
      </g>
     </g>
     <g id="text_8">
      <!-- 35000 -->
      <g transform="translate(365.597118 322.182437) scale(0.1 -0.1)">
       <use xlink:href="#DejaVuSans-33"/>
       <use xlink:href="#DejaVuSans-35" x="63.623047"/>
       <use xlink:href="#DejaVuSans-30" x="127.246094"/>
       <use xlink:href="#DejaVuSans-30" x="190.869141"/>
       <use xlink:href="#DejaVuSans-30" x="254.492188"/>
      </g>
     </g>
    </g>
    <g id="text_9">
     <!-- Nucleotide position -->
     <g transform="translate(187.982656 335.860562) scale(0.1 -0.1)">
      <defs>
       <path id="DejaVuSans-4e" d="M 628 4666 
L 1478 4666 
L 3547 763 
L 3547 4666 
L 4159 4666 
L 4159 0 
L 3309 0 
L 1241 3903 
L 1241 0 
L 628 0 
L 628 4666 
z
" transform="scale(0.015625)"/>
       <path id="DejaVuSans-75" d="M 544 1381 
L 544 3500 
L 1119 3500 
L 1119 1403 
Q 1119 906 1312 657 
Q 1506 409 1894 409 
Q 2359 409 2629 706 
Q 2900 1003 2900 1516 
L 2900 3500 
L 3475 3500 
L 3475 0 
L 2900 0 
L 2900 538 
Q 2691 219 2414 64 
Q 2138 -91 1772 -91 
Q 1169 -91 856 284 
Q 544 659 544 1381 
z
M 1991 3584 
L 1991 3584 
z
" transform="scale(0.015625)"/>
       <path id="DejaVuSans-63" d="M 3122 3366 
L 3122 2828 
Q 2878 2963 2633 3030 
Q 2388 3097 2138 3097 
Q 1578 3097 1268 2742 
Q 959 2388 959 1747 
Q 959 1106 1268 751 
Q 1578 397 2138 397 
Q 2388 397 2633 464 
Q 2878 531 3122 666 
L 3122 134 
Q 2881 22 2623 -34 
Q 2366 -91 2075 -91 
Q 1284 -91 818 406 
Q 353 903 353 1747 
Q 353 2603 823 3093 
Q 1294 3584 2113 3584 
Q 2378 3584 2631 3529 
Q 2884 3475 3122 3366 
z
" transform="scale(0.015625)"/>
       <path id="DejaVuSans-6c" d="M 603 4863 
L 1178 4863 
L 1178 0 
L 603 0 
L 603 4863 
z
" transform="scale(0.015625)"/>
       <path id="DejaVuSans-65" d="M 3597 1894 
L 3597 1613 
L 953 1613 
Q 991 1019 1311 708 
Q 1631 397 2203 397 
Q 2534 397 2845 478 
Q 3156 559 3463 722 
L 3463 178 
Q 3153 47 2828 -22 
Q 2503 -91 2169 -91 
Q 1331 -91 842 396 
Q 353 884 353 1716 
Q 353 2575 817 3079 
Q 1281 3584 2069 3584 
Q 2775 3584 3186 3129 
Q 3597 2675 3597 1894 
z
M 3022 2063 
Q 3016 2534 2758 2815 
Q 2500 3097 2075 3097 
Q 1594 3097 1305 2825 
Q 1016 2553 972 2059 
L 3022 2063 
z
" transform="scale(0.015625)"/>
       <path id="DejaVuSans-6f" d="M 1959 3097 
Q 1497 3097 1228 2736 
Q 959 2375 959 1747 
Q 959 1119 1226 758 
Q 1494 397 1959 397 
Q 2419 397 2687 759 
Q 2956 1122 2956 1747 
Q 2956 2369 2687 2733 
Q 2419 3097 1959 3097 
z
M 1959 3584 
Q 2709 3584 3137 3096 
Q 3566 2609 3566 1747 
Q 3566 888 3137 398 
Q 2709 -91 1959 -91 
Q 1206 -91 779 398 
Q 353 888 353 1747 
Q 353 2609 779 3096 
Q 1206 3584 1959 3584 
z
" transform="scale(0.015625)"/>
       <path id="DejaVuSans-74" d="M 1172 4494 
L 1172 3500 
L 2356 3500 
L 2356 3053 
L 1172 3053 
L 1172 1153 
Q 1172 725 1289 603 
Q 1406 481 1766 481 
L 2356 481 
L 2356 0 
L 1766 0 
Q 1100 0 847 248 
Q 594 497 594 1153 
L 594 3053 
L 172 3053 
L 172 3500 
L 594 3500 
L 594 4494 
L 1172 4494 
z
" transform="scale(0.015625)"/>
       <path id="DejaVuSans-69" d="M 603 3500 
L 1178 3500 
L 1178 0 
L 603 0 
L 603 3500 
z
M 603 4863 
L 1178 4863 
L 1178 4134 
L 603 4134 
L 603 4863 
z
" transform="scale(0.015625)"/>
       <path id="DejaVuSans-64" d="M 2906 2969 
L 2906 4863 
L 3481 4863 
L 3481 0 
L 2906 0 
L 2906 525 
Q 2725 213 2448 61 
Q 2172 -91 1784 -91 
Q 1150 -91 751 415 
Q 353 922 353 1747 
Q 353 2572 751 3078 
Q 1150 3584 1784 3584 
Q 2172 3584 2448 3432 
Q 2725 3281 2906 2969 
z
M 947 1747 
Q 947 1113 1208 752 
Q 1469 391 1925 391 
Q 2381 391 2643 752 
Q 2906 1113 2906 1747 
Q 2906 2381 2643 2742 
Q 2381 3103 1925 3103 
Q 1469 3103 1208 2742 
Q 947 2381 947 1747 
z
" transform="scale(0.015625)"/>
       <path id="DejaVuSans-20" transform="scale(0.015625)"/>
       <path id="DejaVuSans-70" d="M 1159 525 
L 1159 -1331 
L 581 -1331 
L 581 3500 
L 1159 3500 
L 1159 2969 
Q 1341 3281 1617 3432 
Q 1894 3584 2278 3584 
Q 2916 3584 3314 3078 
Q 3713 2572 3713 1747 
Q 3713 922 3314 415 
Q 2916 -91 2278 -91 
Q 1894 -91 1617 61 
Q 1341 213 1159 525 
z
M 3116 1747 
Q 3116 2381 2855 2742 
Q 2594 3103 2138 3103 
Q 1681 3103 1420 2742 
Q 1159 2381 1159 1747 
Q 1159 1113 1420 752 
Q 1681 391 2138 391 
Q 2594 391 2855 752 
Q 3116 1113 3116 1747 
z
" transform="scale(0.015625)"/>
       <path id="DejaVuSans-73" d="M 2834 3397 
L 2834 2853 
Q 2591 2978 2328 3040 
Q 2066 3103 1784 3103 
Q 1356 3103 1142 2972 
Q 928 2841 928 2578 
Q 928 2378 1081 2264 
Q 1234 2150 1697 2047 
L 1894 2003 
Q 2506 1872 2764 1633 
Q 3022 1394 3022 966 
Q 3022 478 2636 193 
Q 2250 -91 1575 -91 
Q 1294 -91 989 -36 
Q 684 19 347 128 
L 347 722 
Q 666 556 975 473 
Q 1284 391 1588 391 
Q 1994 391 2212 530 
Q 2431 669 2431 922 
Q 2431 1156 2273 1281 
Q 2116 1406 1581 1522 
L 1381 1569 
Q 847 1681 609 1914 
Q 372 2147 372 2553 
Q 372 3047 722 3315 
Q 1072 3584 1716 3584 
Q 2034 3584 2315 3537 
Q 2597 3491 2834 3397 
z
" transform="scale(0.015625)"/>
       <path id="DejaVuSans-6e" d="M 3513 2113 
L 3513 0 
L 2938 0 
L 2938 2094 
Q 2938 2591 2744 2837 
Q 2550 3084 2163 3084 
Q 1697 3084 1428 2787 
Q 1159 2491 1159 1978 
L 1159 0 
L 581 0 
L 581 3500 
L 1159 3500 
L 1159 2956 
Q 1366 3272 1645 3428 
Q 1925 3584 2291 3584 
Q 2894 3584 3203 3211 
Q 3513 2838 3513 2113 
z
" transform="scale(0.015625)"/>
      </defs>
      <use xlink:href="#DejaVuSans-4e"/>
      <use xlink:href="#DejaVuSans-75" x="74.804688"/>
      <use xlink:href="#DejaVuSans-63" x="138.183594"/>
      <use xlink:href="#DejaVuSans-6c" x="193.164062"/>
      <use xlink:href="#DejaVuSans-65" x="220.947266"/>
      <use xlink:href="#DejaVuSans-6f" x="282.470703"/>
      <use xlink:href="#DejaVuSans-74" x="343.652344"/>
      <use xlink:href="#DejaVuSans-69" x="382.861328"/>
      <use xlink:href="#DejaVuSans-64" x="410.644531"/>
      <use xlink:href="#DejaVuSans-65" x="474.121094"/>
      <use xlink:href="#DejaVuSans-20" x="535.644531"/>
      <use xlink:href="#DejaVuSans-70" x="567.431641"/>
      <use xlink:href="#DejaVuSans-6f" x="630.908203"/>
      <use xlink:href="#DejaVuSans-73" x="692.089844"/>
      <use xlink:href="#DejaVuSans-69" x="744.189453"/>
      <use xlink:href="#DejaVuSans-74" x="771.972656"/>
      <use xlink:href="#DejaVuSans-69" x="811.181641"/>
      <use xlink:href="#DejaVuSans-6f" x="838.964844"/>
      <use xlink:href="#DejaVuSans-6e" x="900.146484"/>
     </g>
    </g>
   </g>
   <g id="matplotlib.axis_2">
    <g id="ytick_1">
     <g id="line2d_9">
      <defs>
       <path id="m6e4dd91e90" d="M 0 0 
L -3.5 0 
" style="stroke: #000000; stroke-width: 0.8"/>
      </defs>
      <g>
       <use xlink:href="#m6e4dd91e90" x="57.6" y="295.488" style="stroke: #000000; stroke-width: 0.8"/>
      </g>
     </g>
     <g id="text_10">
      <!-- 0 -->
      <g transform="translate(44.2375 299.287219) scale(0.1 -0.1)">
       <use xlink:href="#DejaVuSans-30"/>
      </g>
     </g>
    </g>
    <g id="ytick_2">
     <g id="line2d_10">
      <g>
       <use xlink:href="#m6e4dd91e90" x="57.6" y="241.728" style="stroke: #000000; stroke-width: 0.8"/>
      </g>
     </g>
     <g id="text_11">
      <!-- 2 -->
      <g transform="translate(44.2375 245.527219) scale(0.1 -0.1)">
       <use xlink:href="#DejaVuSans-32"/>
      </g>
     </g>
    </g>
    <g id="ytick_3">
     <g id="line2d_11">
      <g>
       <use xlink:href="#m6e4dd91e90" x="57.6" y="187.968" style="stroke: #000000; stroke-width: 0.8"/>
      </g>
     </g>
     <g id="text_12">
      <!-- 4 -->
      <g transform="translate(44.2375 191.767219) scale(0.1 -0.1)">
       <defs>
        <path id="DejaVuSans-34" d="M 2419 4116 
L 825 1625 
L 2419 1625 
L 2419 4116 
z
M 2253 4666 
L 3047 4666 
L 3047 1625 
L 3713 1625 
L 3713 1100 
L 3047 1100 
L 3047 0 
L 2419 0 
L 2419 1100 
L 313 1100 
L 313 1709 
L 2253 4666 
z
" transform="scale(0.015625)"/>
       </defs>
       <use xlink:href="#DejaVuSans-34"/>
      </g>
     </g>
    </g>
    <g id="ytick_4">
     <g id="line2d_12">
      <g>
       <use xlink:href="#m6e4dd91e90" x="57.6" y="134.208" style="stroke: #000000; stroke-width: 0.8"/>
      </g>
     </g>
     <g id="text_13">
      <!-- 6 -->
      <g transform="translate(44.2375 138.007219) scale(0.1 -0.1)">
       <defs>
        <path id="DejaVuSans-36" d="M 2113 2584 
Q 1688 2584 1439 2293 
Q 1191 2003 1191 1497 
Q 1191 994 1439 701 
Q 1688 409 2113 409 
Q 2538 409 2786 701 
Q 3034 994 3034 1497 
Q 3034 2003 2786 2293 
Q 2538 2584 2113 2584 
z
M 3366 4563 
L 3366 3988 
Q 3128 4100 2886 4159 
Q 2644 4219 2406 4219 
Q 1781 4219 1451 3797 
Q 1122 3375 1075 2522 
Q 1259 2794 1537 2939 
Q 1816 3084 2150 3084 
Q 2853 3084 3261 2657 
Q 3669 2231 3669 1497 
Q 3669 778 3244 343 
Q 2819 -91 2113 -91 
Q 1303 -91 875 529 
Q 447 1150 447 2328 
Q 447 3434 972 4092 
Q 1497 4750 2381 4750 
Q 2619 4750 2861 4703 
Q 3103 4656 3366 4563 
z
" transform="scale(0.015625)"/>
       </defs>
       <use xlink:href="#DejaVuSans-36"/>
      </g>
     </g>
    </g>
    <g id="ytick_5">
     <g id="line2d_13">
      <g>
       <use xlink:href="#m6e4dd91e90" x="57.6" y="80.448" style="stroke: #000000; stroke-width: 0.8"/>
      </g>
     </g>
     <g id="text_14">
      <!-- 8 -->
      <g transform="translate(44.2375 84.247219) scale(0.1 -0.1)">
       <defs>
        <path id="DejaVuSans-38" d="M 2034 2216 
Q 1584 2216 1326 1975 
Q 1069 1734 1069 1313 
Q 1069 891 1326 650 
Q 1584 409 2034 409 
Q 2484 409 2743 651 
Q 3003 894 3003 1313 
Q 3003 1734 2745 1975 
Q 2488 2216 2034 2216 
z
M 1403 2484 
Q 997 2584 770 2862 
Q 544 3141 544 3541 
Q 544 4100 942 4425 
Q 1341 4750 2034 4750 
Q 2731 4750 3128 4425 
Q 3525 4100 3525 3541 
Q 3525 3141 3298 2862 
Q 3072 2584 2669 2484 
Q 3125 2378 3379 2068 
Q 3634 1759 3634 1313 
Q 3634 634 3220 271 
Q 2806 -91 2034 -91 
Q 1263 -91 848 271 
Q 434 634 434 1313 
Q 434 1759 690 2068 
Q 947 2378 1403 2484 
z
M 1172 3481 
Q 1172 3119 1398 2916 
Q 1625 2713 2034 2713 
Q 2441 2713 2670 2916 
Q 2900 3119 2900 3481 
Q 2900 3844 2670 4047 
Q 2441 4250 2034 4250 
Q 1625 4250 1398 4047 
Q 1172 3844 1172 3481 
z
" transform="scale(0.015625)"/>
       </defs>
       <use xlink:href="#DejaVuSans-38"/>
      </g>
     </g>
    </g>
    <g id="text_15">
     <!-- Coverage -->
     <g transform="translate(38.157812 198.485031) rotate(-90) scale(0.1 -0.1)">
      <defs>
       <path id="DejaVuSans-43" d="M 4122 4306 
L 4122 3641 
Q 3803 3938 3442 4084 
Q 3081 4231 2675 4231 
Q 1875 4231 1450 3742 
Q 1025 3253 1025 2328 
Q 1025 1406 1450 917 
Q 1875 428 2675 428 
Q 3081 428 3442 575 
Q 3803 722 4122 1019 
L 4122 359 
Q 3791 134 3420 21 
Q 3050 -91 2638 -91 
Q 1578 -91 968 557 
Q 359 1206 359 2328 
Q 359 3453 968 4101 
Q 1578 4750 2638 4750 
Q 3056 4750 3426 4639 
Q 3797 4528 4122 4306 
z
" transform="scale(0.015625)"/>
       <path id="DejaVuSans-76" d="M 191 3500 
L 800 3500 
L 1894 563 
L 2988 3500 
L 3597 3500 
L 2284 0 
L 1503 0 
L 191 3500 
z
" transform="scale(0.015625)"/>
       <path id="DejaVuSans-72" d="M 2631 2963 
Q 2534 3019 2420 3045 
Q 2306 3072 2169 3072 
Q 1681 3072 1420 2755 
Q 1159 2438 1159 1844 
L 1159 0 
L 581 0 
L 581 3500 
L 1159 3500 
L 1159 2956 
Q 1341 3275 1631 3429 
Q 1922 3584 2338 3584 
Q 2397 3584 2469 3576 
Q 2541 3569 2628 3553 
L 2631 2963 
z
" transform="scale(0.015625)"/>
       <path id="DejaVuSans-61" d="M 2194 1759 
Q 1497 1759 1228 1600 
Q 959 1441 959 1056 
Q 959 750 1161 570 
Q 1363 391 1709 391 
Q 2188 391 2477 730 
Q 2766 1069 2766 1631 
L 2766 1759 
L 2194 1759 
z
M 3341 1997 
L 3341 0 
L 2766 0 
L 2766 531 
Q 2569 213 2275 61 
Q 1981 -91 1556 -91 
Q 1019 -91 701 211 
Q 384 513 384 1019 
Q 384 1609 779 1909 
Q 1175 2209 1959 2209 
L 2766 2209 
L 2766 2266 
Q 2766 2663 2505 2880 
Q 2244 3097 1772 3097 
Q 1472 3097 1187 3025 
Q 903 2953 641 2809 
L 641 3341 
Q 956 3463 1253 3523 
Q 1550 3584 1831 3584 
Q 2591 3584 2966 3190 
Q 3341 2797 3341 1997 
z
" transform="scale(0.015625)"/>
       <path id="DejaVuSans-67" d="M 2906 1791 
Q 2906 2416 2648 2759 
Q 2391 3103 1925 3103 
Q 1463 3103 1205 2759 
Q 947 2416 947 1791 
Q 947 1169 1205 825 
Q 1463 481 1925 481 
Q 2391 481 2648 825 
Q 2906 1169 2906 1791 
z
M 3481 434 
Q 3481 -459 3084 -895 
Q 2688 -1331 1869 -1331 
Q 1566 -1331 1297 -1286 
Q 1028 -1241 775 -1147 
L 775 -588 
Q 1028 -725 1275 -790 
Q 1522 -856 1778 -856 
Q 2344 -856 2625 -561 
Q 2906 -266 2906 331 
L 2906 616 
Q 2728 306 2450 153 
Q 2172 0 1784 0 
Q 1141 0 747 490 
Q 353 981 353 1791 
Q 353 2603 747 3093 
Q 1141 3584 1784 3584 
Q 2172 3584 2450 3431 
Q 2728 3278 2906 2969 
L 2906 3500 
L 3481 3500 
L 3481 434 
z
" transform="scale(0.015625)"/>
      </defs>
      <use xlink:href="#DejaVuSans-43"/>
      <use xlink:href="#DejaVuSans-6f" x="69.824219"/>
      <use xlink:href="#DejaVuSans-76" x="131.005859"/>
      <use xlink:href="#DejaVuSans-65" x="190.185547"/>
      <use xlink:href="#DejaVuSans-72" x="251.708984"/>
      <use xlink:href="#DejaVuSans-61" x="292.822266"/>
      <use xlink:href="#DejaVuSans-67" x="354.101562"/>
      <use xlink:href="#DejaVuSans-65" x="417.578125"/>
     </g>
    </g>
   </g>
   <g id="line2d_14">
    <path d="M 73.832727 295.488 
L 74.342596 295.488 
L 74.474459 161.088 
L 74.817301 161.088 
L 74.931582 187.968 
L 75.037072 187.968 
L 75.151353 134.208 
L 75.485405 134.208 
L 75.608477 241.728 
L 75.626059 241.728 
L 75.74034 214.848 
L 75.766712 214.848 
L 75.889784 134.208 
L 76.197463 134.208 
L 76.311744 187.968 
L 76.768868 187.968 
L 76.883149 214.848 
L 76.900731 214.848 
L 77.015012 268.608 
L 77.032593 268.608 
L 77.146874 295.488 
L 77.182038 295.488 
L 77.296319 268.608 
L 77.384227 268.608 
L 77.498508 241.728 
L 78.342429 241.728 
L 78.45671 268.608 
L 78.544618 268.608 
L 78.658899 295.488 
L 80.206087 295.488 
L 80.329159 241.728 
L 80.399485 241.728 
L 80.513766 214.848 
L 81.225824 214.848 
L 81.340105 187.968 
L 81.348896 187.968 
L 81.38406 214.848 
L 81.454386 187.968 
L 81.463177 187.968 
L 81.577458 214.848 
L 82.210399 214.848 
L 82.32468 187.968 
L 82.386215 187.968 
L 82.500496 214.848 
L 82.553241 214.848 
L 82.676313 268.608 
L 82.764222 268.608 
L 82.878503 241.728 
L 83.344417 241.728 
L 83.458698 268.608 
L 83.678469 268.608 
L 83.79275 241.728 
L 83.889449 241.728 
L 84.00373 268.608 
L 84.83886 268.608 
L 84.953141 295.488 
L 85.199285 295.488 
L 85.313565 268.608 
L 85.630036 268.608 
L 85.753108 214.848 
L 85.849807 214.848 
L 85.964088 187.968 
L 86.342094 187.968 
L 86.456375 214.848 
L 86.544283 214.848 
L 86.588237 187.968 
L 86.649773 214.848 
L 86.755263 214.848 
L 86.878335 268.608 
L 87.704674 268.608 
L 87.818955 295.488 
L 87.827746 295.488 
L 87.942027 268.608 
L 88.909019 268.608 
L 89.0233 241.728 
L 89.893594 241.728 
L 90.007875 214.848 
L 90.06941 214.848 
L 90.183691 241.728 
L 91.036403 241.728 
L 91.150684 268.608 
L 91.300128 268.608 
L 91.414409 295.488 
L 91.546272 295.488 
L 91.660553 268.608 
L 92.082513 268.608 
L 92.196794 241.728 
L 92.689081 241.728 
L 92.803362 268.608 
L 93.172577 268.608 
L 93.181368 241.728 
L 93.278067 268.608 
L 93.330812 268.608 
L 93.445093 241.728 
L 93.550583 241.728 
L 93.664864 268.608 
L 93.717609 268.608 
L 93.83189 295.488 
L 94.218687 295.488 
L 94.332968 268.608 
L 94.878 268.608 
L 94.992281 241.728 
L 95.343915 241.728 
L 95.458196 268.608 
L 95.50215 268.608 
L 95.625222 214.848 
L 95.757084 214.848 
L 95.871365 241.728 
L 96.513097 241.728 
L 96.557051 214.848 
L 96.618587 241.728 
L 96.662541 241.728 
L 96.776822 268.608 
L 97.673488 268.608 
L 97.787769 295.488 
L 98.930578 295.488 
L 99.044859 268.608 
L 99.071232 268.608 
L 99.203094 187.968 
L 100.090969 187.968 
L 100.214041 241.728 
L 100.249204 241.728 
L 100.372276 295.488 
L 100.970053 295.488 
L 101.084334 268.608 
L 102.121653 268.608 
L 102.235934 295.488 
L 103.185345 295.488 
L 103.299626 268.608 
L 103.44907 268.608 
L 103.572142 214.848 
L 104.310573 214.848 
L 104.424854 241.728 
L 104.59188 241.728 
L 104.714951 295.488 
L 104.934722 295.488 
L 105.049003 268.608 
L 105.875342 268.608 
L 105.989623 241.728 
L 106.077532 241.728 
L 106.191813 268.608 
L 106.815962 268.608 
L 106.930243 241.728 
L 107.009361 241.728 
L 107.123642 268.608 
L 107.554393 268.608 
L 107.668674 241.728 
L 107.765373 241.728 
L 107.879654 214.848 
L 107.967563 214.848 
L 108.081843 241.728 
L 108.705993 241.728 
L 108.820274 268.608 
L 108.925764 268.608 
L 109.040045 295.488 
L 109.066418 295.488 
L 109.19828 214.848 
L 110.218018 214.848 
L 110.34988 295.488 
L 110.472952 295.488 
L 110.596024 241.728 
L 111.615761 241.728 
L 111.730042 268.608 
L 111.738833 268.608 
L 111.853114 295.488 
L 112.371774 295.488 
L 112.486055 268.608 
L 112.626708 268.608 
L 112.740989 241.728 
L 112.793734 241.728 
L 112.846479 214.848 
L 112.899224 241.728 
L 113.004714 241.728 
L 113.118995 268.608 
L 113.286021 268.608 
L 113.400302 241.728 
L 113.523374 241.728 
L 113.637655 268.608 
L 113.760727 268.608 
L 113.875008 241.728 
L 113.989289 241.728 
L 114.103569 214.848 
L 114.428831 214.848 
L 114.499157 241.728 
L 114.534321 214.848 
L 114.824418 214.848 
L 114.921118 161.088 
L 114.938699 187.968 
L 115.14968 187.968 
L 115.26396 214.848 
L 115.395823 214.848 
L 115.510104 187.968 
L 115.606803 187.968 
L 115.659548 161.088 
L 115.712293 187.968 
L 115.765038 187.968 
L 115.88811 134.208 
L 115.958437 134.208 
L 116.0903 214.848 
L 116.125463 214.848 
L 116.239744 241.728 
L 116.477097 241.728 
L 116.538632 214.848 
L 116.582587 241.728 
L 117.03971 241.728 
L 117.153991 268.608 
L 117.619906 268.608 
L 117.628697 295.488 
L 117.725396 268.608 
L 118.771506 268.608 
L 118.885787 295.488 
L 119.800034 295.488 
L 119.923106 241.728 
L 119.96706 241.728 
L 120.081341 214.848 
L 120.142877 214.848 
L 120.265949 161.088 
L 120.353857 161.088 
L 120.468138 134.208 
L 120.846144 134.208 
L 120.960425 161.088 
L 121.00438 161.088 
L 121.127451 214.848 
L 121.303268 214.848 
L 121.364804 241.728 
L 121.408758 214.848 
L 121.514248 214.848 
L 121.628529 241.728 
L 122.015326 241.728 
L 122.129607 214.848 
L 122.490032 214.848 
L 122.613103 268.608 
L 122.982319 268.608 
L 123.0966 241.728 
L 123.149345 241.728 
L 123.263626 268.608 
L 123.395488 268.608 
L 123.509769 241.728 
L 123.764704 241.728 
L 123.878985 214.848 
L 124.14271 214.848 
L 124.177873 241.728 
L 124.2482 214.848 
L 124.336108 214.848 
L 124.450389 187.968 
L 124.547088 187.968 
L 124.661369 214.848 
L 124.722905 214.848 
L 124.837186 241.728 
L 124.854768 241.728 
L 124.925095 214.848 
L 124.960258 241.728 
L 125.417382 241.728 
L 125.531663 214.848 
L 125.681107 214.848 
L 125.71627 187.968 
L 125.786597 214.848 
L 126.015159 214.848 
L 126.12944 241.728 
L 126.44591 241.728 
L 126.560191 214.848 
L 126.577773 214.848 
L 126.692054 241.728 
L 126.727217 241.728 
L 126.832707 214.848 
L 126.894243 241.728 
L 126.938197 214.848 
L 127.421693 214.848 
L 127.535974 187.968 
L 127.579929 187.968 
L 127.694209 214.848 
L 127.755745 214.848 
L 127.870026 187.968 
L 127.993098 241.728 
L 128.397477 241.728 
L 128.511758 214.848 
L 128.564503 214.848 
L 128.678784 241.728 
L 128.907346 241.728 
L 129.004045 268.608 
L 129.012836 241.728 
L 129.37326 241.728 
L 129.487541 214.848 
L 129.549077 214.848 
L 129.663358 241.728 
L 130.094109 241.728 
L 130.146854 214.848 
L 130.199599 241.728 
L 130.533651 241.728 
L 130.647932 268.608 
L 130.850121 268.608 
L 130.964402 241.728 
L 131.2545 241.728 
L 131.368781 268.608 
L 132.001722 268.608 
L 132.116002 295.488 
L 132.344564 295.488 
L 132.458845 268.608 
L 132.669825 268.608 
L 132.784106 241.728 
L 133.021459 241.728 
L 133.13574 214.848 
L 133.496164 214.848 
L 133.610445 241.728 
L 133.689563 241.728 
L 133.812635 187.968 
L 133.830216 187.968 
L 133.944497 214.848 
L 134.18185 214.848 
L 134.296131 241.728 
L 134.770836 241.728 
L 134.841163 214.848 
L 134.876327 241.728 
L 134.946653 241.728 
L 134.955444 268.608 
L 135.052143 241.728 
L 135.087307 241.728 
L 135.210378 187.968 
L 135.500476 187.968 
L 135.614757 161.088 
L 135.931227 161.088 
L 136.001554 187.968 
L 136.036718 161.088 
L 136.115835 161.088 
L 136.230116 187.968 
L 136.238907 187.968 
L 136.361979 241.728 
L 136.643286 241.728 
L 136.748776 268.608 
L 136.863057 241.728 
L 137.355344 241.728 
L 137.469625 268.608 
L 138.304754 268.608 
L 138.419035 295.488 
L 138.445408 295.488 
L 138.559689 268.608 
L 138.691551 268.608 
L 138.805832 241.728 
L 139.113512 241.728 
L 139.227793 214.848 
L 139.280538 214.848 
L 139.394819 187.968 
L 139.588217 187.968 
L 139.702498 214.848 
L 139.790407 214.848 
L 139.913478 268.608 
L 140.291485 268.608 
L 140.405765 241.728 
L 140.440929 241.728 
L 140.55521 268.608 
L 140.713445 268.608 
L 140.827726 241.728 
L 141.100242 241.728 
L 141.223314 187.968 
L 141.337595 187.968 
L 141.443085 161.088 
L 141.478248 187.968 
L 141.49583 134.208 
L 141.539784 134.208 
L 141.698019 134.208 
L 141.821091 80.448 
L 141.865045 80.448 
L 141.979326 107.328 
L 142.119979 107.328 
L 142.163934 80.448 
L 142.22547 107.328 
L 142.260633 107.328 
L 142.383705 161.088 
L 142.638639 161.088 
L 142.761711 214.848 
L 142.85841 214.848 
L 142.990273 295.488 
L 145.372591 295.488 
L 145.486871 268.608 
L 146.067067 268.608 
L 146.181348 241.728 
L 146.5154 241.728 
L 146.629681 214.848 
L 147.227458 214.848 
L 147.341739 241.728 
L 147.412066 241.728 
L 147.526347 214.848 
L 147.631837 214.848 
L 147.675791 187.968 
L 147.737327 214.848 
L 147.851608 241.728 
L 148.484548 241.728 
L 148.598829 268.608 
L 148.792228 268.608 
L 148.906509 295.488 
L 149.521867 295.488 
L 149.636148 268.608 
L 149.715266 268.608 
L 149.829547 241.728 
L 150.295461 241.728 
L 150.409742 214.848 
L 150.682258 214.848 
L 150.796539 241.728 
L 150.849284 241.728 
L 150.928402 268.608 
L 150.954775 241.728 
L 151.297617 241.728 
L 151.411898 214.848 
L 151.438271 214.848 
L 151.552552 241.728 
L 151.825068 241.728 
L 151.939349 214.848 
L 152.05363 214.848 
L 152.080002 187.968 
L 152.15912 214.848 
L 152.449217 214.848 
L 152.563498 241.728 
L 152.774479 241.728 
L 152.88876 214.848 
L 152.985459 214.848 
L 153.09974 241.728 
L 153.187648 241.728 
L 153.301929 268.608 
L 153.93487 268.608 
L 154.049151 295.488 
L 154.286503 295.488 
L 154.400784 268.608 
L 155.042516 268.608 
L 155.165587 214.848 
L 155.420522 214.848 
L 155.534803 241.728 
L 156.141371 241.728 
L 156.176534 214.848 
L 156.229279 268.608 
L 156.23807 268.608 
L 156.255652 268.608 
L 156.369933 241.728 
L 156.598494 241.728 
L 156.721566 187.968 
L 156.75673 187.968 
L 156.879801 134.208 
L 157.17869 134.208 
L 157.310553 214.848 
L 157.354507 214.848 
L 157.477578 268.608 
L 157.899539 268.608 
L 158.01382 295.488 
L 158.321499 295.488 
L 158.43578 268.608 
L 158.64676 268.608 
L 158.761041 241.728 
L 159.007185 241.728 
L 159.121466 214.848 
L 159.174211 214.848 
L 159.297283 161.088 
L 159.48189 161.088 
L 159.517054 187.968 
L 159.58738 161.088 
L 159.657707 161.088 
L 159.78957 80.448 
L 159.807151 80.448 
L 159.930223 134.208 
L 160.00055 80.448 
L 160.044504 107.328 
L 160.070877 107.328 
L 160.193948 161.088 
L 160.42251 161.088 
L 160.545582 214.848 
L 160.6247 214.848 
L 160.73898 241.728 
L 160.756562 241.728 
L 160.870843 214.848 
L 160.879634 214.848 
L 160.993915 241.728 
L 161.108196 241.728 
L 161.222477 268.608 
L 161.811463 268.608 
L 161.916953 241.728 
L 162.031234 268.608 
L 162.09277 268.608 
L 162.207051 241.728 
L 162.796037 241.728 
L 162.919109 187.968 
L 162.989436 187.968 
L 163.103717 161.088 
L 163.24437 161.088 
L 163.358651 187.968 
L 163.376233 187.968 
L 163.490514 214.848 
L 163.543259 214.848 
L 163.55205 241.728 
L 163.613585 187.968 
L 163.639958 187.968 
L 163.956428 187.968 
L 164.070709 214.848 
L 164.220153 214.848 
L 164.334434 187.968 
L 164.712441 187.968 
L 164.835512 241.728 
L 164.897048 241.728 
L 165.011329 214.848 
L 165.248682 214.848 
L 165.354172 241.728 
L 165.380544 214.848 
L 165.459662 241.728 
L 165.881622 241.728 
L 166.013485 161.088 
L 166.048648 161.088 
L 166.162929 187.968 
L 166.48819 187.968 
L 166.514563 214.848 
L 166.567308 134.208 
L 166.576099 134.208 
L 166.59368 134.208 
L 166.707961 107.328 
L 166.778288 107.328 
L 166.892569 80.448 
L 166.971687 80.448 
L 167.024432 53.568 
L 167.068386 107.328 
L 167.094758 107.328 
L 167.156294 134.208 
L 167.200249 107.328 
L 167.32332 107.328 
L 167.437601 80.448 
L 167.657372 80.448 
L 167.789235 214.848 
L 167.824398 214.848 
L 167.938679 268.608 
L 168.05296 241.728 
L 168.132078 241.728 
L 168.246359 268.608 
L 168.923253 268.608 
L 169.037534 241.728 
L 169.090279 241.728 
L 169.20456 214.848 
L 169.248514 214.848 
L 169.362795 187.968 
L 169.705638 187.968 
L 169.819919 214.848 
L 169.872664 214.848 
L 169.995736 268.608 
L 170.074853 268.608 
L 170.118808 241.728 
L 170.180344 268.608 
L 170.46165 268.608 
L 170.575931 241.728 
L 171.200081 241.728 
L 171.29678 268.608 
L 171.305571 241.728 
L 171.622041 241.728 
L 171.736322 268.608 
L 172.43959 268.608 
L 172.553871 241.728 
L 172.852759 241.728 
L 172.96704 214.848 
L 173.230765 214.848 
L 173.345046 187.968 
L 173.512072 187.968 
L 173.599981 161.088 
L 173.617562 187.968 
L 173.661517 187.968 
L 173.775798 214.848 
L 173.890078 214.848 
L 174.004359 161.088 
L 174.11864 187.968 
L 174.285666 187.968 
L 174.347202 134.208 
L 174.399947 161.088 
L 174.461483 161.088 
L 174.575764 134.208 
L 174.628509 134.208 
L 174.74279 107.328 
L 174.84828 107.328 
L 174.962561 80.448 
L 175.050469 80.448 
L 175.173541 134.208 
L 175.393312 134.208 
L 175.525175 214.848 
L 175.57792 214.848 
L 175.692201 241.728 
L 175.876808 241.728 
L 175.955926 268.608 
L 175.964717 214.848 
L 175.973508 214.848 
L 175.982299 214.848 
L 176.008671 187.968 
L 176.087789 214.848 
L 176.993245 214.848 
L 177.098735 161.088 
L 177.221807 241.728 
L 177.239389 241.728 
L 177.362461 161.088 
L 177.731676 161.088 
L 177.854748 107.328 
L 178.136055 107.328 
L 178.259126 161.088 
L 178.320662 161.088 
L 178.39978 134.208 
L 178.408571 187.968 
L 178.417362 187.968 
L 178.452525 187.968 
L 178.487688 214.848 
L 178.558015 187.968 
L 178.663505 187.968 
L 178.777786 214.848 
L 178.82174 214.848 
L 178.944812 295.488 
L 179.067884 241.728 
L 180.096412 241.728 
L 180.219484 295.488 
L 181.880953 295.488 
L 181.995234 268.608 
L 182.06556 268.608 
L 182.188632 214.848 
L 183.023762 214.848 
L 183.085298 241.728 
L 183.129252 214.848 
L 183.225951 214.848 
L 183.340232 241.728 
L 183.498468 241.728 
L 183.621539 187.968 
L 183.814938 187.968 
L 183.93801 134.208 
L 184.201735 134.208 
L 184.245689 107.328 
L 184.307225 134.208 
L 184.412715 134.208 
L 184.526996 161.088 
L 184.650068 161.088 
L 184.746767 214.848 
L 184.764349 187.968 
L 184.843466 187.968 
L 184.957747 134.208 
L 184.975329 134.208 
L 185.010492 161.088 
L 185.080819 134.208 
L 185.098401 134.208 
L 185.212682 161.088 
L 185.344544 161.088 
L 185.458825 187.968 
L 185.502779 187.968 
L 185.61706 161.088 
L 185.801668 161.088 
L 185.889576 107.328 
L 185.915949 134.208 
L 186.003857 134.208 
L 186.118138 161.088 
L 186.13572 161.088 
L 186.170883 134.208 
L 186.24121 161.088 
L 186.293955 161.088 
L 186.408236 134.208 
L 186.45219 134.208 
L 186.513726 80.448 
L 186.566471 107.328 
L 186.645589 107.328 
L 186.76866 161.088 
L 186.87415 161.088 
L 186.988431 187.968 
L 187.164248 187.968 
L 187.278529 214.848 
L 187.296111 214.848 
L 187.410392 241.728 
L 187.60379 241.728 
L 187.718071 268.608 
L 187.849934 268.608 
L 187.973006 214.848 
L 188.104868 214.848 
L 188.210358 241.728 
L 188.324639 214.848 
L 188.54441 214.848 
L 188.667482 161.088 
L 188.711436 161.088 
L 188.825717 134.208 
L 189.001534 134.208 
L 189.124606 187.968 
L 189.370749 187.968 
L 189.441076 214.848 
L 189.476239 187.968 
L 189.68722 187.968 
L 189.810291 241.728 
L 189.836664 241.728 
L 189.871827 214.848 
L 189.942154 241.728 
L 190.434441 241.728 
L 190.557513 187.968 
L 190.601467 187.968 
L 190.715748 214.848 
L 190.750911 214.848 
L 190.865192 187.968 
L 190.961891 187.968 
L 190.997055 161.088 
L 191.067382 187.968 
L 191.419015 187.968 
L 191.550878 107.328 
L 191.586041 107.328 
L 191.656368 161.088 
L 191.700322 134.208 
L 191.744276 134.208 
L 191.867348 80.448 
L 191.893721 80.448 
L 192.008002 107.328 
L 192.09591 107.328 
L 192.210191 161.088 
L 192.561825 161.088 
L 192.684896 268.608 
L 192.957412 268.608 
L 193.071693 295.488 
L 193.335419 295.488 
L 193.449699 268.608 
L 193.906823 268.608 
L 194.021104 241.728 
L 194.469437 241.728 
L 194.583718 268.608 
L 195.032051 268.608 
L 195.146332 295.488 
L 196.350677 295.488 
L 196.464958 268.608 
L 197.493486 268.608 
L 197.607767 295.488 
L 197.836329 295.488 
L 197.95061 268.608 
L 198.064891 268.608 
L 198.179172 241.728 
L 198.231917 241.728 
L 198.37257 134.208 
L 198.900021 134.208 
L 198.987929 187.968 
L 199.014302 161.088 
L 199.031883 161.088 
L 199.084628 134.208 
L 199.137374 161.088 
L 199.383517 161.088 
L 199.506589 214.848 
L 200.14832 214.848 
L 200.262601 268.608 
L 201.317502 268.608 
L 201.431783 295.488 
L 201.50211 295.488 
L 201.616391 268.608 
L 202.064724 268.608 
L 202.179004 241.728 
L 202.662501 241.728 
L 202.741618 268.608 
L 202.767991 241.728 
L 202.978971 241.728 
L 203.093252 214.848 
L 203.145997 214.848 
L 203.225115 187.968 
L 203.251487 214.848 
L 203.902009 214.848 
L 204.025081 268.608 
L 204.069035 268.608 
L 204.139362 241.728 
L 204.174525 268.608 
L 204.385506 268.608 
L 204.499786 241.728 
L 205.220635 241.728 
L 205.229426 214.848 
L 205.326126 241.728 
L 205.545897 241.728 
L 205.660177 268.608 
L 205.765668 268.608 
L 205.879949 295.488 
L 206.644752 295.488 
L 206.759033 268.608 
L 207.787561 268.608 
L 207.901842 295.488 
L 210.257787 295.488 
L 210.372068 268.608 
L 211.180826 268.608 
L 211.303897 214.848 
L 211.356642 214.848 
L 211.479714 268.608 
L 211.673113 268.608 
L 211.787394 241.728 
L 212.033537 241.728 
L 212.147818 214.848 
L 212.323635 214.848 
L 212.437916 241.728 
L 212.745595 241.728 
L 212.859876 214.848 
L 213.149974 214.848 
L 213.273046 161.088 
L 213.923568 161.088 
L 214.04664 214.848 
L 214.240038 214.848 
L 214.310365 187.968 
L 214.345528 214.848 
L 214.354319 214.848 
L 214.477391 268.608 
L 214.820234 268.608 
L 214.934515 241.728 
L 215.083959 241.728 
L 215.19824 214.848 
L 215.321312 214.848 
L 215.391638 187.968 
L 215.426802 214.848 
L 215.532292 214.848 
L 215.655364 161.088 
L 215.839971 161.088 
L 215.954252 134.208 
L 215.963043 134.208 
L 216.077324 161.088 
L 216.24435 161.088 
L 216.297095 187.968 
L 216.34984 161.088 
L 216.481703 161.088 
L 216.587193 187.968 
L 216.675101 161.088 
L 216.692683 187.968 
L 216.710264 187.968 
L 216.824545 214.848 
L 216.930036 214.848 
L 217.000362 187.968 
L 217.035526 214.848 
L 217.105852 214.848 
L 217.220133 187.968 
L 217.448695 187.968 
L 217.510231 214.848 
L 217.554185 187.968 
L 217.730002 187.968 
L 217.765165 161.088 
L 217.835492 187.968 
L 218.108008 187.968 
L 218.222289 214.848 
L 218.257452 214.848 
L 218.371733 241.728 
L 218.644249 241.728 
L 218.75853 268.608 
L 218.864021 268.608 
L 218.881602 241.728 
L 218.969511 268.608 
L 219.285981 268.608 
L 219.400262 241.728 
L 219.945294 241.728 
L 220.015621 214.848 
L 220.050784 241.728 
L 220.446372 241.728 
L 220.560653 268.608 
L 220.965031 268.608 
L 221.079312 241.728 
L 221.105685 241.728 
L 221.219966 268.608 
L 222.125422 268.608 
L 222.239703 295.488 
L 222.93418 295.488 
L 223.048461 268.608 
L 223.25065 268.608 
L 223.364931 241.728 
L 223.584702 241.728 
L 223.707774 187.968 
L 223.901172 187.968 
L 224.006662 134.208 
L 224.015453 161.088 
L 224.375878 161.088 
L 224.490159 187.968 
L 224.736302 187.968 
L 224.850583 214.848 
L 225.043982 214.848 
L 225.167053 268.608 
L 225.931857 268.608 
L 226.046138 295.488 
L 234.371064 295.488 
L 234.485345 268.608 
L 234.599626 268.608 
L 234.713907 241.728 
L 234.819397 241.728 
L 234.933678 214.848 
L 235.338056 214.848 
L 235.469919 134.208 
L 235.575409 134.208 
L 235.698481 80.448 
L 235.760017 80.448 
L 235.79518 107.328 
L 235.865507 80.448 
L 235.979788 80.448 
L 236.094069 107.328 
L 236.498447 107.328 
L 236.63031 187.968 
L 236.691846 187.968 
L 236.823708 268.608 
L 236.929199 268.608 
L 237.04348 295.488 
L 237.553348 295.488 
L 237.667629 268.608 
L 237.746747 268.608 
L 237.861028 241.728 
L 238.520341 241.728 
L 238.634622 214.848 
L 238.713739 214.848 
L 238.72253 241.728 
L 238.819229 214.848 
L 238.907138 214.848 
L 238.915929 241.728 
L 239.012628 214.848 
L 239.03021 214.848 
L 239.153281 161.088 
L 239.293935 161.088 
L 239.408216 134.208 
L 239.460961 134.208 
L 239.575242 107.328 
L 239.627987 107.328 
L 239.742268 134.208 
L 239.962039 134.208 
L 240.058738 107.328 
L 240.173019 161.088 
L 240.18181 161.088 
L 240.243346 241.728 
L 240.304881 214.848 
L 240.313672 214.848 
L 240.427953 187.968 
L 240.735633 187.968 
L 240.797169 161.088 
L 240.841123 187.968 
L 240.893868 187.968 
L 241.01694 134.208 
L 241.060894 134.208 
L 241.183966 187.968 
L 241.22792 187.968 
L 241.324619 214.848 
L 241.33341 187.968 
L 241.403737 187.968 
L 241.526808 241.728 
L 242.133376 241.728 
L 242.238866 268.608 
L 242.353147 214.848 
L 242.493801 214.848 
L 242.608082 241.728 
L 243.346512 241.728 
L 243.381676 161.088 
L 243.452003 214.848 
L 243.478375 214.848 
L 243.592656 187.968 
L 244.489322 187.968 
L 244.612394 268.608 
L 244.638766 268.608 
L 244.753047 295.488 
L 245.016772 295.488 
L 245.131053 268.608 
L 245.175007 268.608 
L 245.289288 241.728 
L 245.83432 241.728 
L 245.948601 187.968 
L 245.974974 187.968 
L 246.089255 214.848 
L 246.142 214.848 
L 246.256281 241.728 
L 246.968339 241.728 
L 247.091411 295.488 
L 247.223273 295.488 
L 247.337554 268.608 
L 248.383664 268.608 
L 248.497945 295.488 
L 248.700135 295.488 
L 248.814415 268.608 
L 249.851735 268.608 
L 249.966016 295.488 
L 250.361603 295.488 
L 250.475884 268.608 
L 251.012126 268.608 
L 251.126407 241.728 
L 251.47804 241.728 
L 251.601112 295.488 
L 255.310847 295.488 
L 255.433919 241.728 
L 255.583363 241.728 
L 255.706435 187.968 
L 256.137186 187.968 
L 256.251467 161.088 
L 256.48882 161.088 
L 256.585519 214.848 
L 256.603101 187.968 
L 256.726172 187.968 
L 256.743754 214.848 
L 256.752545 161.088 
L 256.822872 161.088 
L 256.840453 161.088 
L 256.954734 187.968 
L 257.042643 187.968 
L 257.148133 161.088 
L 257.262414 187.968 
L 257.279995 187.968 
L 257.403067 241.728 
L 257.64042 241.728 
L 257.754701 214.848 
L 257.877772 214.848 
L 257.895354 187.968 
L 257.983263 214.848 
L 258.203034 214.848 
L 258.27336 241.728 
L 258.308524 214.848 
L 258.800811 214.848 
L 258.853556 241.728 
L 258.906301 214.848 
L 259.038163 214.848 
L 259.152444 241.728 
L 259.178817 241.728 
L 259.293098 214.848 
L 259.433751 214.848 
L 259.548032 241.728 
L 259.996365 241.728 
L 260.110646 268.608 
L 260.321626 268.608 
L 260.435907 295.488 
L 260.558979 295.488 
L 260.67326 268.608 
L 261.534762 268.608 
L 261.657834 214.848 
L 261.692997 214.848 
L 261.807278 241.728 
L 261.983095 241.728 
L 262.097376 214.848 
L 262.695153 214.848 
L 262.818225 268.608 
L 263.125904 268.608 
L 263.240185 295.488 
L 263.539074 295.488 
L 263.653355 268.608 
L 263.767636 268.608 
L 263.881917 241.728 
L 264.365413 241.728 
L 264.479694 214.848 
L 264.664302 214.848 
L 264.778583 241.728 
L 264.919236 241.728 
L 265.033517 268.608 
L 265.235706 268.608 
L 265.349987 241.728 
L 265.402732 241.728 
L 265.517013 214.848 
L 265.631294 241.728 
L 265.895019 241.728 
L 266.0093 214.848 
L 266.079627 214.848 
L 266.193908 241.728 
L 266.237862 241.728 
L 266.352143 268.608 
L 267.855377 268.608 
L 267.969658 241.728 
L 268.083939 241.728 
L 268.180638 187.968 
L 268.19822 214.848 
L 268.224592 214.848 
L 268.338873 187.968 
L 269.006977 187.968 
L 269.121258 214.848 
L 269.226748 214.848 
L 269.253121 268.608 
L 269.332238 214.848 
L 269.367402 214.848 
L 269.481682 241.728 
L 269.552009 241.728 
L 269.683872 107.328 
L 269.719035 107.328 
L 269.833316 80.448 
L 269.842107 80.448 
L 269.956388 53.568 
L 270.413512 53.568 
L 270.483838 107.328 
L 270.527793 80.448 
L 270.7124 80.448 
L 270.826681 187.968 
L 270.870635 187.968 
L 270.897008 241.728 
L 270.976125 161.088 
L 271.011289 161.088 
L 271.12557 134.208 
L 271.160733 134.208 
L 271.275014 107.328 
L 271.424458 107.328 
L 271.54753 53.568 
L 271.635438 53.568 
L 271.732138 107.328 
L 271.749719 80.448 
L 271.820046 53.568 
L 271.855209 80.448 
L 271.925536 80.448 
L 272.039817 53.568 
L 272.092562 53.568 
L 272.224425 134.208 
L 272.321124 134.208 
L 272.435405 161.088 
L 272.48815 161.088 
L 272.549686 134.208 
L 272.59364 161.088 
L 272.655176 161.088 
L 272.769457 187.968 
L 272.874947 187.968 
L 272.998019 241.728 
L 273.050764 241.728 
L 273.165045 268.608 
L 273.279326 268.608 
L 273.393607 241.728 
L 273.42877 241.728 
L 273.543051 214.848 
L 273.63975 214.848 
L 273.754031 241.728 
L 273.938639 241.728 
L 274.05292 214.848 
L 274.386972 214.848 
L 274.439717 187.968 
L 274.492462 214.848 
L 274.589161 214.848 
L 274.606743 241.728 
L 274.694651 214.848 
L 274.79135 214.848 
L 274.905631 187.968 
L 275.046285 187.968 
L 275.090239 161.088 
L 275.151775 187.968 
L 275.547363 187.968 
L 275.661644 214.848 
L 275.767134 214.848 
L 275.881415 241.728 
L 275.942951 241.728 
L 276.057231 268.608 
L 276.189094 268.608 
L 276.303375 295.488 
L 278.158242 295.488 
L 278.272523 268.608 
L 278.334059 268.608 
L 278.44834 295.488 
L 280.268044 295.488 
L 280.391116 241.728 
L 281.208664 241.728 
L 281.322945 214.848 
L 281.419644 214.848 
L 281.542716 268.608 
L 282.351474 268.608 
L 282.465754 295.488 
L 282.782225 295.488 
L 282.896506 268.608 
L 283.072322 268.608 
L 283.195394 214.848 
L 283.942616 214.848 
L 284.056897 241.728 
L 284.232713 241.728 
L 284.346994 295.488 
L 284.470066 295.488 
L 284.601929 214.848 
L 284.637092 214.848 
L 284.760164 161.088 
L 285.217288 161.088 
L 285.331569 134.208 
L 285.375523 134.208 
L 285.489804 107.328 
L 285.595294 107.328 
L 285.727156 187.968 
L 285.797483 187.968 
L 285.911764 214.848 
L 286.360097 214.848 
L 286.474378 241.728 
L 286.527123 214.848 
L 286.579868 241.728 
L 286.588659 241.728 
L 286.70294 214.848 
L 286.91392 214.848 
L 286.993038 187.968 
L 287.01941 214.848 
L 287.634769 214.848 
L 287.757841 268.608 
L 287.951239 268.608 
L 288.056729 241.728 
L 288.17101 268.608 
L 288.294082 214.848 
L 288.338036 214.848 
L 288.452317 187.968 
L 289.11163 187.968 
L 289.225911 214.848 
L 289.234702 214.848 
L 289.305029 187.968 
L 289.340192 214.848 
L 289.392937 214.848 
L 289.516009 268.608 
L 289.858852 268.608 
L 289.990714 187.968 
L 290.386302 187.968 
L 290.430256 214.848 
L 290.491792 187.968 
L 290.535746 187.968 
L 290.650027 161.088 
L 290.764308 161.088 
L 290.878589 134.208 
L 290.966498 134.208 
L 291.019243 80.448 
L 291.080779 107.328 
L 291.115942 107.328 
L 291.230223 161.088 
L 291.256595 161.088 
L 291.379667 107.328 
L 291.493948 107.328 
L 291.590647 80.448 
L 291.599438 107.328 
L 291.660974 107.328 
L 291.775255 134.208 
L 291.845582 134.208 
L 291.889536 107.328 
L 291.951072 134.208 
L 292.126889 134.208 
L 292.206006 187.968 
L 292.24117 161.088 
L 292.337869 161.088 
L 292.460941 214.848 
L 292.575222 214.848 
L 292.689502 241.728 
L 292.900483 241.728 
L 293.014764 268.608 
L 293.357606 268.608 
L 293.436724 295.488 
L 293.463096 268.608 
L 293.735613 268.608 
L 293.849893 241.728 
L 294.12241 241.728 
L 294.23669 214.848 
L 294.307017 214.848 
L 294.421298 187.968 
L 294.746559 187.968 
L 294.86084 214.848 
L 295.17731 214.848 
L 295.291591 187.968 
L 295.405872 214.848 
L 295.467408 214.848 
L 295.528944 241.728 
L 295.572898 214.848 
L 295.845414 214.848 
L 295.959695 241.728 
L 296.144303 241.728 
L 296.258584 214.848 
L 296.337701 214.848 
L 296.451982 241.728 
L 296.689335 241.728 
L 296.803616 268.608 
L 296.944269 268.608 
L 297.05855 241.728 
L 297.295903 241.728 
L 297.313485 268.608 
L 297.401393 241.728 
L 297.506883 241.728 
L 297.621164 214.848 
L 298.069497 214.848 
L 298.183778 241.728 
L 298.429922 241.728 
L 298.456294 214.848 
L 298.535412 241.728 
L 298.658483 241.728 
L 298.693647 268.608 
L 298.763974 241.728 
L 299.590313 241.728 
L 299.704593 268.608 
L 299.845247 268.608 
L 299.959528 295.488 
L 301.427598 295.488 
L 301.541879 268.608 
L 301.97263 268.608 
L 302.095702 214.848 
L 302.561617 214.848 
L 302.675898 187.968 
L 302.693479 187.968 
L 302.825342 107.328 
L 302.842924 107.328 
L 302.957205 80.448 
L 303.124231 80.448 
L 303.247302 134.208 
L 303.352792 134.208 
L 303.43191 107.328 
L 303.458283 134.208 
L 303.590145 134.208 
L 303.713217 187.968 
L 303.74838 187.968 
L 303.85387 241.728 
L 303.862661 214.848 
L 303.906615 214.848 
L 304.020896 241.728 
L 304.504393 241.728 
L 304.618674 268.608 
L 305.014261 268.608 
L 305.128542 295.488 
L 305.471385 295.488 
L 305.585666 268.608 
L 305.814228 268.608 
L 305.928509 241.728 
L 306.174652 241.728 
L 306.288933 214.848 
L 306.614194 214.848 
L 306.728475 241.728 
L 306.965828 241.728 
L 307.080109 268.608 
L 307.317462 268.608 
L 307.378998 295.488 
L 307.422952 268.608 
L 307.783376 268.608 
L 307.897657 241.728 
L 307.941611 241.728 
L 308.055892 214.848 
L 308.196546 214.848 
L 308.214127 187.968 
L 308.302036 214.848 
L 308.34599 214.848 
L 308.372363 187.968 
L 308.45148 214.848 
L 308.521807 214.848 
L 308.636088 241.728 
L 308.66246 241.728 
L 308.776741 214.848 
L 308.829486 214.848 
L 308.908604 187.968 
L 308.934976 214.848 
L 309.07563 214.848 
L 309.189911 241.728 
L 309.348146 241.728 
L 309.462427 268.608 
L 309.488799 268.608 
L 309.60308 295.488 
L 310.288766 295.488 
L 310.403047 268.608 
L 311.370039 268.608 
L 311.422784 241.728 
L 311.475529 268.608 
L 312.284287 268.608 
L 312.398568 241.728 
L 312.495267 241.728 
L 312.609548 268.608 
L 312.697456 268.608 
L 312.811737 241.728 
L 313.330397 241.728 
L 313.418305 214.848 
L 313.435887 241.728 
L 313.840266 241.728 
L 313.954547 268.608 
L 314.288599 268.608 
L 314.402879 241.728 
L 314.490788 241.728 
L 314.605069 268.608 
L 314.763304 268.608 
L 314.877585 241.728 
L 315.255591 241.728 
L 315.369872 214.848 
L 315.440199 214.848 
L 315.55448 241.728 
L 315.906113 241.728 
L 316.020394 268.608 
L 316.037976 268.608 
L 316.161048 214.848 
L 316.169838 214.848 
L 316.284119 187.968 
L 316.3984 187.968 
L 316.512681 214.848 
L 317.198367 214.848 
L 317.321439 268.608 
L 317.330229 241.728 
L 317.426929 268.608 
L 317.593955 268.608 
L 317.708236 241.728 
L 318.306013 241.728 
L 318.420294 214.848 
L 318.48183 214.848 
L 318.596111 241.728 
L 318.710392 241.728 
L 318.736764 214.848 
L 318.815882 241.728 
L 319.457613 241.728 
L 319.571894 268.608 
L 319.63343 268.608 
L 319.747711 241.728 
L 319.756502 241.728 
L 319.861992 214.848 
L 319.976273 241.728 
L 320.336697 241.728 
L 320.450978 214.848 
L 320.626795 214.848 
L 320.741076 187.968 
L 320.793821 187.968 
L 320.908102 214.848 
L 320.916893 214.848 
L 321.031174 241.728 
L 321.048755 241.728 
L 321.163036 214.848 
L 321.479506 214.848 
L 321.593787 241.728 
L 321.760813 241.728 
L 321.875094 268.608 
L 322.200355 268.608 
L 322.314636 295.488 
L 322.45529 295.488 
L 322.578362 241.728 
L 322.991531 241.728 
L 323.105812 214.848 
L 323.60689 214.848 
L 323.729962 268.608 
L 324.12555 268.608 
L 324.187085 295.488 
L 324.23104 268.608 
L 324.635418 268.608 
L 324.75849 214.848 
L 325.338686 214.848 
L 325.452966 241.728 
L 325.795809 241.728 
L 325.883718 268.608 
L 325.901299 241.728 
L 326.050744 241.728 
L 326.165025 214.848 
L 326.885874 214.848 
L 327.008945 268.608 
L 327.0529 268.608 
L 327.16718 295.488 
L 327.404533 295.488 
L 327.518814 268.608 
L 327.844075 268.608 
L 327.958356 241.728 
L 328.230872 241.728 
L 328.345153 214.848 
L 328.353944 214.848 
L 328.468225 161.088 
L 328.538552 161.088 
L 328.652833 187.968 
L 329.004466 187.968 
L 329.118747 214.848 
L 329.153911 214.848 
L 329.268191 187.968 
L 329.382472 187.968 
L 329.496753 214.848 
L 329.514335 187.968 
L 329.523126 241.728 
L 329.593453 241.728 
L 330.138485 241.728 
L 330.252766 214.848 
L 330.314302 214.848 
L 330.411001 241.728 
L 330.419792 214.848 
L 330.578027 214.848 
L 330.648353 187.968 
L 330.683517 214.848 
L 331.079105 214.848 
L 331.202176 161.088 
L 331.228549 161.088 
L 331.281294 134.208 
L 331.334039 161.088 
L 331.55381 161.088 
L 331.668091 187.968 
L 331.738418 187.968 
L 331.808744 214.848 
L 331.835117 161.088 
L 331.958189 107.328 
L 331.993352 107.328 
L 332.116424 53.568 
L 332.239496 53.568 
L 332.362567 107.328 
L 332.380149 53.568 
L 332.476848 80.448 
L 332.49443 80.448 
L 332.608711 107.328 
L 332.652665 107.328 
L 332.740574 134.208 
L 332.758155 107.328 
L 332.969135 107.328 
L 333.100998 187.968 
L 333.180116 187.968 
L 333.294397 214.848 
L 333.522958 214.848 
L 333.64603 268.608 
L 333.830638 268.608 
L 333.900965 241.728 
L 333.936128 268.608 
L 334.639395 268.608 
L 334.753676 241.728 
L 334.991029 241.728 
L 335.10531 268.608 
L 335.325081 268.608 
L 335.439362 241.728 
L 335.474525 241.728 
L 335.597597 187.968 
L 335.790995 187.968 
L 335.905276 214.848 
L 336.46789 214.848 
L 336.582171 241.728 
L 336.634916 241.728 
L 336.757988 295.488 
L 337.048086 295.488 
L 337.171157 241.728 
L 337.373347 241.728 
L 337.496419 187.968 
L 338.208477 187.968 
L 338.322758 214.848 
L 338.375503 214.848 
L 338.489784 187.968 
L 338.604064 214.848 
L 338.648019 214.848 
L 338.7623 241.728 
L 338.77109 241.728 
L 338.841417 214.848 
L 338.876581 241.728 
L 338.955698 241.728 
L 339.008443 214.848 
L 339.061188 241.728 
L 339.931481 241.728 
L 340.036972 268.608 
L 340.116089 241.728 
L 340.142462 268.608 
L 340.362233 268.608 
L 340.485304 214.848 
L 340.494095 214.848 
L 340.608376 187.968 
L 341.17099 187.968 
L 341.179781 214.848 
L 341.188572 161.088 
L 341.267689 161.088 
L 341.513833 161.088 
L 341.636905 214.848 
L 341.654486 214.848 
L 341.768767 241.728 
L 342.155564 241.728 
L 342.269845 214.848 
L 342.32259 214.848 
L 342.445662 268.608 
L 343.069812 268.608 
L 343.184093 241.728 
L 343.26321 241.728 
L 343.307164 268.608 
L 343.3687 241.728 
L 343.614844 241.728 
L 343.729125 214.848 
L 344.230203 214.848 
L 344.344484 241.728 
L 344.467555 241.728 
L 344.581836 268.608 
L 344.766444 268.608 
L 344.880725 295.488 
L 345.065333 295.488 
L 345.179613 268.608 
L 345.232359 268.608 
L 345.346639 241.728 
L 346.225724 241.728 
L 346.243305 268.608 
L 346.331214 241.728 
L 346.39275 241.728 
L 346.50703 268.608 
L 346.515821 268.608 
L 346.630102 241.728 
L 346.911409 241.728 
L 347.02569 214.848 
L 347.043272 214.848 
L 347.157553 187.968 
L 347.394905 187.968 
L 347.509186 214.848 
L 347.676212 214.848 
L 347.790493 241.728 
L 347.992683 241.728 
L 348.0718 214.848 
L 348.098173 241.728 
L 348.186081 241.728 
L 348.300362 268.608 
L 348.493761 268.608 
L 348.608041 241.728 
L 348.713532 241.728 
L 348.827812 214.848 
L 349.153074 214.848 
L 349.267355 241.728 
L 349.42559 241.728 
L 349.539871 214.848 
L 349.618988 214.848 
L 349.733269 241.728 
L 349.873923 241.728 
L 349.988203 268.608 
L 350.16402 268.608 
L 350.278301 241.728 
L 350.331046 241.728 
L 350.445327 214.848 
L 350.515654 214.848 
L 350.57719 187.968 
L 350.621144 214.848 
L 350.937614 214.848 
L 351.051895 187.968 
L 351.31562 187.968 
L 351.429901 214.848 
L 351.491437 214.848 
L 351.605718 241.728 
L 351.658463 241.728 
L 351.772744 268.608 
L 352.098005 268.608 
L 352.212286 295.488 
L 352.308985 295.488 
L 352.432057 241.728 
L 352.590292 241.728 
L 352.704573 214.848 
L 352.862808 214.848 
L 352.977089 187.968 
L 353.275978 187.968 
L 353.407841 107.328 
L 353.460586 107.328 
L 353.574867 134.208 
L 353.583657 134.208 
L 353.697938 161.088 
L 353.733102 161.088 
L 353.829801 187.968 
L 353.838592 161.088 
L 354.023199 161.088 
L 354.13748 187.968 
L 354.409996 187.968 
L 354.497905 241.728 
L 354.524277 214.848 
L 354.55065 214.848 
L 354.664931 241.728 
L 354.744048 241.728 
L 354.858329 214.848 
L 354.990192 214.848 
L 355.104473 241.728 
L 355.166009 241.728 
L 355.28029 214.848 
L 355.59676 214.848 
L 355.658296 187.968 
L 355.70225 214.848 
L 355.895649 214.848 
L 356.009929 241.728 
L 356.282446 241.728 
L 356.379145 268.608 
L 356.387936 241.728 
L 356.53738 241.728 
L 356.660452 187.968 
L 356.739569 187.968 
L 356.85385 214.848 
L 357.425255 214.848 
L 357.539536 187.968 
L 357.58349 214.848 
L 357.645026 187.968 
L 357.680189 187.968 
L 357.803261 241.728 
L 357.961496 241.728 
L 358.084568 187.968 
L 358.163685 187.968 
L 358.286757 241.728 
L 359.113096 241.728 
L 359.236168 295.488 
L 359.403194 295.488 
L 359.517475 241.728 
L 360.229533 241.728 
L 360.343814 214.848 
L 360.40535 214.848 
L 360.519631 161.088 
L 360.554794 161.088 
L 360.677866 214.848 
L 360.704239 214.848 
L 360.818519 187.968 
L 361.363552 187.968 
L 361.477833 214.848 
L 361.565741 214.848 
L 361.574532 268.608 
L 361.671231 214.848 
L 361.785512 187.968 
L 361.86463 187.968 
L 361.908584 214.848 
L 361.943747 161.088 
L 361.961329 161.088 
L 362.137146 161.088 
L 362.251427 134.208 
L 362.550315 134.208 
L 362.664596 107.328 
L 362.682178 107.328 
L 362.70855 80.448 
L 362.734923 134.208 
L 362.778877 134.208 
L 362.81404 134.208 
L 362.928321 161.088 
L 362.963485 161.088 
L 363.068975 107.328 
L 363.077766 134.208 
L 363.086556 134.208 
L 363.104138 161.088 
L 363.192046 134.208 
L 363.297537 134.208 
L 363.411818 161.088 
L 363.420608 161.088 
L 363.534889 134.208 
L 363.701915 134.208 
L 363.816196 161.088 
L 363.833778 161.088 
L 363.948059 187.968 
L 364.123876 187.968 
L 364.229366 241.728 
L 364.238157 214.848 
L 364.255738 214.848 
L 364.264529 241.728 
L 364.361228 214.848 
L 364.818352 214.848 
L 364.932633 187.968 
L 365.266685 187.968 
L 365.310639 214.848 
L 365.372175 187.968 
L 365.389757 187.968 
L 365.477665 241.728 
L 365.504038 214.848 
L 365.776554 214.848 
L 365.899625 161.088 
L 365.978743 161.088 
L 366.093024 187.968 
L 366.233677 187.968 
L 366.321586 161.088 
L 366.339168 187.968 
L 366.374331 187.968 
L 366.479821 134.208 
L 366.488612 161.088 
L 366.585311 161.088 
L 366.708383 107.328 
L 366.866618 107.328 
L 366.936945 80.448 
L 366.972108 107.328 
L 367.042435 107.328 
L 367.139134 134.208 
L 367.147925 107.328 
L 367.394068 107.328 
L 367.446813 134.208 
L 367.499559 107.328 
L 367.525931 107.328 
L 367.649003 161.088 
L 367.745702 161.088 
L 367.868774 214.848 
L 368.299525 214.848 
L 368.413806 241.728 
L 368.448969 241.728 
L 368.56325 214.848 
L 368.598414 214.848 
L 368.712695 241.728 
L 369.029165 241.728 
L 369.143446 214.848 
L 369.169818 214.848 
L 369.284099 241.728 
L 369.319263 241.728 
L 369.433544 214.848 
L 369.521452 214.848 
L 369.644524 268.608 
L 370.189556 268.608 
L 370.303837 295.488 
L 370.585144 295.488 
L 370.699425 241.728 
L 370.989522 241.728 
L 371.103803 214.848 
L 371.147758 214.848 
L 371.262038 187.968 
L 371.675208 187.968 
L 371.745535 161.088 
L 371.754326 214.848 
L 371.771907 214.848 
L 371.833443 214.848 
L 371.947724 187.968 
L 372.018051 187.968 
L 372.11475 214.848 
L 372.123541 187.968 
L 372.132332 187.968 
L 372.246613 214.848 
L 372.308149 214.848 
L 372.422429 241.728 
L 372.6422 241.728 
L 372.756481 214.848 
L 372.774063 214.848 
L 372.888344 187.968 
L 373.05537 187.968 
L 373.134488 214.848 
L 373.16086 187.968 
L 373.26635 187.968 
L 373.327886 214.848 
L 373.37184 187.968 
L 373.802591 187.968 
L 373.916872 214.848 
L 373.934454 214.848 
L 373.943245 241.728 
L 374.004781 161.088 
L 374.022362 161.088 
L 374.136643 161.088 
L 374.250924 134.208 
L 374.277297 134.208 
L 374.286088 107.328 
L 374.382787 134.208 
L 374.453114 134.208 
L 374.567395 161.088 
L 374.778375 161.088 
L 374.901447 107.328 
L 375.094845 107.328 
L 375.226708 187.968 
L 375.288244 187.968 
L 375.402525 214.848 
L 375.437688 214.848 
L 375.551969 241.728 
L 375.929975 241.728 
L 376.053047 295.488 
L 376.29919 295.488 
L 376.422262 241.728 
L 376.554125 241.728 
L 376.668406 214.848 
L 376.685987 214.848 
L 376.800268 187.968 
L 377.433209 187.968 
L 377.556281 241.728 
L 377.714516 241.728 
L 377.828797 268.608 
L 377.846378 268.608 
L 377.960659 295.488 
L 378.118894 295.488 
L 378.233175 268.608 
L 378.496901 268.608 
L 378.611181 241.728 
L 379.252913 241.728 
L 379.367194 268.608 
L 379.455102 268.608 
L 379.569383 241.728 
L 379.63971 241.728 
L 379.648501 214.848 
L 379.7452 241.728 
L 380.105624 241.728 
L 380.219905 214.848 
L 380.615493 214.848 
L 380.668238 241.728 
L 380.720983 214.848 
L 380.800101 214.848 
L 380.914382 241.728 
L 381.257225 241.728 
L 381.371505 268.608 
L 381.819838 268.608 
L 381.934119 295.488 
L 382.681341 295.488 
L 382.795622 268.608 
L 383.059347 268.608 
L 383.173628 241.728 
L 383.314281 241.728 
L 383.428562 214.848 
L 383.674706 214.848 
L 383.788987 187.968 
L 383.832941 187.968 
L 383.841732 161.088 
L 383.938431 187.968 
L 384.219738 187.968 
L 384.334019 214.848 
L 384.4483 214.848 
L 384.571372 268.608 
L 384.624117 268.608 
L 384.676862 214.848 
L 384.738398 241.728 
L 384.782352 241.728 
L 384.896633 214.848 
L 384.966959 214.848 
L 385.08124 187.968 
L 385.5999 187.968 
L 385.714181 161.088 
L 385.766926 161.088 
L 385.889998 214.848 
L 385.942743 214.848 
L 386.057024 241.728 
L 386.12735 241.728 
L 386.241631 268.608 
L 386.373494 268.608 
L 386.487775 241.728 
L 386.531729 241.728 
L 386.64601 214.848 
L 386.742709 214.848 
L 386.760291 187.968 
L 386.777873 241.728 
L 386.839409 241.728 
L 386.927317 241.728 
L 387.006435 268.608 
L 387.032807 241.728 
L 387.041598 241.728 
L 387.155879 214.848 
L 387.384441 214.848 
L 387.498722 187.968 
L 387.876728 187.968 
L 387.947054 214.848 
L 387.982218 187.968 
L 388.140453 187.968 
L 388.263525 241.728 
L 388.536041 241.728 
L 388.650322 268.608 
L 388.667903 268.608 
L 388.782184 241.728 
L 388.94042 241.728 
L 389.0547 214.848 
L 389.107445 214.848 
L 389.221726 241.728 
L 389.344798 241.728 
L 389.459079 187.968 
L 389.819504 187.968 
L 389.933785 214.848 
L 389.977739 214.848 
L 390.09202 187.968 
L 390.188719 214.848 
L 390.303 161.088 
L 390.505189 161.088 
L 390.61947 214.848 
L 391.13813 214.848 
L 391.252411 241.728 
L 391.313947 241.728 
L 391.428227 295.488 
L 392.298521 295.488 
L 392.412802 268.608 
L 393.432539 268.608 
L 393.54682 295.488 
L 393.731428 295.488 
L 393.845709 268.608 
L 393.889663 268.608 
L 394.003944 241.728 
L 394.346787 241.728 
L 394.461068 214.848 
L 394.733584 214.848 
L 394.847865 187.968 
L 394.891819 187.968 
L 395.0061 214.848 
L 395.041263 214.848 
L 395.050054 241.728 
L 395.058845 187.968 
L 395.137962 187.968 
L 395.498387 187.968 
L 395.53355 214.848 
L 395.603877 187.968 
L 395.73574 107.328 
L 395.814857 107.328 
L 395.885184 80.448 
L 395.920347 107.328 
L 396.201654 107.328 
L 396.254399 161.088 
L 396.315935 134.208 
L 396.693941 134.208 
L 396.817013 187.968 
L 396.878549 187.968 
L 397.001621 241.728 
L 397.019202 241.728 
L 397.133483 214.848 
L 397.379627 214.848 
L 397.493908 241.728 
L 397.889496 241.728 
L 398.003776 268.608 
L 398.162012 268.608 
L 398.276293 295.488 
L 398.487273 295.488 
L 398.487273 295.488 
" clip-path="url(#p64c5e9db07)" style="fill: none; stroke: #1f77b4; stroke-width: 1.5; stroke-linecap: square"/>
   </g>
   <g id="line2d_15">
    <path d="M 205.827203 307.584 
L 205.827203 41.472 
" clip-path="url(#p64c5e9db07)" style="fill: none; stroke-dasharray: 5.55,2.4; stroke-dashoffset: 0; stroke: #ff0000; stroke-width: 1.5"/>
   </g>
   <g id="line2d_16">
    <path d="M 208.974325 307.584 
L 208.974325 41.472 
" clip-path="url(#p64c5e9db07)" style="fill: none; stroke-dasharray: 5.55,2.4; stroke-dashoffset: 0; stroke: #ff0000; stroke-width: 1.5"/>
   </g>
   <g id="patch_3">
    <path d="M 57.6 307.584 
L 57.6 41.472 
" style="fill: none; stroke: #000000; stroke-width: 0.8; stroke-linejoin: miter; stroke-linecap: square"/>
   </g>
   <g id="patch_4">
    <path d="M 414.72 307.584 
L 414.72 41.472 
" style="fill: none; stroke: #000000; stroke-width: 0.8; stroke-linejoin: miter; stroke-linecap: square"/>
   </g>
   <g id="patch_5">
    <path d="M 57.6 307.584 
L 414.72 307.584 
" style="fill: none; stroke: #000000; stroke-width: 0.8; stroke-linejoin: miter; stroke-linecap: square"/>
   </g>
   <g id="patch_6">
    <path d="M 57.6 41.472 
L 414.72 41.472 
" style="fill: none; stroke: #000000; stroke-width: 0.8; stroke-linejoin: miter; stroke-linecap: square"/>
   </g>
   <g id="text_16">
    <!-- Caudoviricetes sp. isolate ctzDR1 -->
    <g transform="translate(135.677813 22.034625) scale(0.12 -0.12)">
     <defs>
      <path id="DejaVuSans-2e" d="M 684 794 
L 1344 794 
L 1344 0 
L 684 0 
L 684 794 
z
" transform="scale(0.015625)"/>
      <path id="DejaVuSans-7a" d="M 353 3500 
L 3084 3500 
L 3084 2975 
L 922 459 
L 3084 459 
L 3084 0 
L 275 0 
L 275 525 
L 2438 3041 
L 353 3041 
L 353 3500 
z
" transform="scale(0.015625)"/>
      <path id="DejaVuSans-44" d="M 1259 4147 
L 1259 519 
L 2022 519 
Q 2988 519 3436 956 
Q 3884 1394 3884 2338 
Q 3884 3275 3436 3711 
Q 2988 4147 2022 4147 
L 1259 4147 
z
M 628 4666 
L 1925 4666 
Q 3281 4666 3915 4102 
Q 4550 3538 4550 2338 
Q 4550 1131 3912 565 
Q 3275 0 1925 0 
L 628 0 
L 628 4666 
z
" transform="scale(0.015625)"/>
      <path id="DejaVuSans-52" d="M 2841 2188 
Q 3044 2119 3236 1894 
Q 3428 1669 3622 1275 
L 4263 0 
L 3584 0 
L 2988 1197 
Q 2756 1666 2539 1819 
Q 2322 1972 1947 1972 
L 1259 1972 
L 1259 0 
L 628 0 
L 628 4666 
L 2053 4666 
Q 2853 4666 3247 4331 
Q 3641 3997 3641 3322 
Q 3641 2881 3436 2590 
Q 3231 2300 2841 2188 
z
M 1259 4147 
L 1259 2491 
L 2053 2491 
Q 2509 2491 2742 2702 
Q 2975 2913 2975 3322 
Q 2975 3731 2742 3939 
Q 2509 4147 2053 4147 
L 1259 4147 
z
" transform="scale(0.015625)"/>
     </defs>
     <use xlink:href="#DejaVuSans-43"/>
     <use xlink:href="#DejaVuSans-61" x="69.824219"/>
     <use xlink:href="#DejaVuSans-75" x="131.103516"/>
     <use xlink:href="#DejaVuSans-64" x="194.482422"/>
     <use xlink:href="#DejaVuSans-6f" x="257.958984"/>
     <use xlink:href="#DejaVuSans-76" x="319.140625"/>
     <use xlink:href="#DejaVuSans-69" x="378.320312"/>
     <use xlink:href="#DejaVuSans-72" x="406.103516"/>
     <use xlink:href="#DejaVuSans-69" x="447.216797"/>
     <use xlink:href="#DejaVuSans-63" x="475"/>
     <use xlink:href="#DejaVuSans-65" x="529.980469"/>
     <use xlink:href="#DejaVuSans-74" x="591.503906"/>
     <use xlink:href="#DejaVuSans-65" x="630.712891"/>
     <use xlink:href="#DejaVuSans-73" x="692.236328"/>
     <use xlink:href="#DejaVuSans-20" x="744.335938"/>
     <use xlink:href="#DejaVuSans-73" x="776.123047"/>
     <use xlink:href="#DejaVuSans-70" x="828.222656"/>
     <use xlink:href="#DejaVuSans-2e" x="891.699219"/>
     <use xlink:href="#DejaVuSans-20" x="923.486328"/>
     <use xlink:href="#DejaVuSans-69" x="955.273438"/>
     <use xlink:href="#DejaVuSans-73" x="983.056641"/>
     <use xlink:href="#DejaVuSans-6f" x="1035.15625"/>
     <use xlink:href="#DejaVuSans-6c" x="1096.337891"/>
     <use xlink:href="#DejaVuSans-61" x="1124.121094"/>
     <use xlink:href="#DejaVuSans-74" x="1185.400391"/>
     <use xlink:href="#DejaVuSans-65" x="1224.609375"/>
     <use xlink:href="#DejaVuSans-20" x="1286.132812"/>
     <use xlink:href="#DejaVuSans-63" x="1317.919922"/>
     <use xlink:href="#DejaVuSans-74" x="1372.900391"/>
     <use xlink:href="#DejaVuSans-7a" x="1412.109375"/>
     <use xlink:href="#DejaVuSans-44" x="1464.599609"/>
     <use xlink:href="#DejaVuSans-52" x="1541.601562"/>
     <use xlink:href="#DejaVuSans-31" x="1611.083984"/>
    </g>
    <!-- Total coverage with Viral DNA reads: 84.86% -->
    <g transform="translate(101.926875 35.472) scale(0.12 -0.12)">
     <defs>
      <path id="DejaVuSans-54" d="M -19 4666 
L 3928 4666 
L 3928 4134 
L 2272 4134 
L 2272 0 
L 1638 0 
L 1638 4134 
L -19 4134 
L -19 4666 
z
" transform="scale(0.015625)"/>
      <path id="DejaVuSans-77" d="M 269 3500 
L 844 3500 
L 1563 769 
L 2278 3500 
L 2956 3500 
L 3675 769 
L 4391 3500 
L 4966 3500 
L 4050 0 
L 3372 0 
L 2619 2869 
L 1863 0 
L 1184 0 
L 269 3500 
z
" transform="scale(0.015625)"/>
      <path id="DejaVuSans-68" d="M 3513 2113 
L 3513 0 
L 2938 0 
L 2938 2094 
Q 2938 2591 2744 2837 
Q 2550 3084 2163 3084 
Q 1697 3084 1428 2787 
Q 1159 2491 1159 1978 
L 1159 0 
L 581 0 
L 581 4863 
L 1159 4863 
L 1159 2956 
Q 1366 3272 1645 3428 
Q 1925 3584 2291 3584 
Q 2894 3584 3203 3211 
Q 3513 2838 3513 2113 
z
" transform="scale(0.015625)"/>
      <path id="DejaVuSans-56" d="M 1831 0 
L 50 4666 
L 709 4666 
L 2188 738 
L 3669 4666 
L 4325 4666 
L 2547 0 
L 1831 0 
z
" transform="scale(0.015625)"/>
      <path id="DejaVuSans-41" d="M 2188 4044 
L 1331 1722 
L 3047 1722 
L 2188 4044 
z
M 1831 4666 
L 2547 4666 
L 4325 0 
L 3669 0 
L 3244 1197 
L 1141 1197 
L 716 0 
L 50 0 
L 1831 4666 
z
" transform="scale(0.015625)"/>
      <path id="DejaVuSans-3a" d="M 750 794 
L 1409 794 
L 1409 0 
L 750 0 
L 750 794 
z
M 750 3309 
L 1409 3309 
L 1409 2516 
L 750 2516 
L 750 3309 
z
" transform="scale(0.015625)"/>
      <path id="DejaVuSans-25" d="M 4653 2053 
Q 4381 2053 4226 1822 
Q 4072 1591 4072 1178 
Q 4072 772 4226 539 
Q 4381 306 4653 306 
Q 4919 306 5073 539 
Q 5228 772 5228 1178 
Q 5228 1588 5073 1820 
Q 4919 2053 4653 2053 
z
M 4653 2450 
Q 5147 2450 5437 2106 
Q 5728 1763 5728 1178 
Q 5728 594 5436 251 
Q 5144 -91 4653 -91 
Q 4153 -91 3862 251 
Q 3572 594 3572 1178 
Q 3572 1766 3864 2108 
Q 4156 2450 4653 2450 
z
M 1428 4353 
Q 1159 4353 1004 4120 
Q 850 3888 850 3481 
Q 850 3069 1003 2837 
Q 1156 2606 1428 2606 
Q 1700 2606 1854 2837 
Q 2009 3069 2009 3481 
Q 2009 3884 1853 4118 
Q 1697 4353 1428 4353 
z
M 4250 4750 
L 4750 4750 
L 1831 -91 
L 1331 -91 
L 4250 4750 
z
M 1428 4750 
Q 1922 4750 2215 4408 
Q 2509 4066 2509 3481 
Q 2509 2891 2217 2550 
Q 1925 2209 1428 2209 
Q 931 2209 642 2551 
Q 353 2894 353 3481 
Q 353 4063 643 4406 
Q 934 4750 1428 4750 
z
" transform="scale(0.015625)"/>
     </defs>
     <use xlink:href="#DejaVuSans-54"/>
     <use xlink:href="#DejaVuSans-6f" x="44.083984"/>
     <use xlink:href="#DejaVuSans-74" x="105.265625"/>
     <use xlink:href="#DejaVuSans-61" x="144.474609"/>
     <use xlink:href="#DejaVuSans-6c" x="205.753906"/>
     <use xlink:href="#DejaVuSans-20" x="233.537109"/>
     <use xlink:href="#DejaVuSans-63" x="265.324219"/>
     <use xlink:href="#DejaVuSans-6f" x="320.304688"/>
     <use xlink:href="#DejaVuSans-76" x="381.486328"/>
     <use xlink:href="#DejaVuSans-65" x="440.666016"/>
     <use xlink:href="#DejaVuSans-72" x="502.189453"/>
     <use xlink:href="#DejaVuSans-61" x="543.302734"/>
     <use xlink:href="#DejaVuSans-67" x="604.582031"/>
     <use xlink:href="#DejaVuSans-65" x="668.058594"/>
     <use xlink:href="#DejaVuSans-20" x="729.582031"/>
     <use xlink:href="#DejaVuSans-77" x="761.369141"/>
     <use xlink:href="#DejaVuSans-69" x="843.15625"/>
     <use xlink:href="#DejaVuSans-74" x="870.939453"/>
     <use xlink:href="#DejaVuSans-68" x="910.148438"/>
     <use xlink:href="#DejaVuSans-20" x="973.527344"/>
     <use xlink:href="#DejaVuSans-56" x="1005.314453"/>
     <use xlink:href="#DejaVuSans-69" x="1071.472656"/>
     <use xlink:href="#DejaVuSans-72" x="1099.255859"/>
     <use xlink:href="#DejaVuSans-61" x="1140.369141"/>
     <use xlink:href="#DejaVuSans-6c" x="1201.648438"/>
     <use xlink:href="#DejaVuSans-20" x="1229.431641"/>
     <use xlink:href="#DejaVuSans-44" x="1261.21875"/>
     <use xlink:href="#DejaVuSans-4e" x="1338.220703"/>
     <use xlink:href="#DejaVuSans-41" x="1413.025391"/>
     <use xlink:href="#DejaVuSans-20" x="1481.433594"/>
     <use xlink:href="#DejaVuSans-72" x="1513.220703"/>
     <use xlink:href="#DejaVuSans-65" x="1552.083984"/>
     <use xlink:href="#DejaVuSans-61" x="1613.607422"/>
     <use xlink:href="#DejaVuSans-64" x="1674.886719"/>
     <use xlink:href="#DejaVuSans-73" x="1738.363281"/>
     <use xlink:href="#DejaVuSans-3a" x="1790.462891"/>
     <use xlink:href="#DejaVuSans-20" x="1824.154297"/>
     <use xlink:href="#DejaVuSans-38" x="1855.941406"/>
     <use xlink:href="#DejaVuSans-34" x="1919.564453"/>
     <use xlink:href="#DejaVuSans-2e" x="1983.1875"/>
     <use xlink:href="#DejaVuSans-38" x="2014.974609"/>
     <use xlink:href="#DejaVuSans-36" x="2078.597656"/>
     <use xlink:href="#DejaVuSans-25" x="2142.220703"/>
    </g>
   </g>
  </g>
 </g>
 <defs>
  <clipPath id="p64c5e9db07">
   <rect x="57.6" y="41.472" width="357.12" height="266.112"/>
  </clipPath>
 </defs>
</svg>
