<?xml version="1.0" encoding="utf-8" standalone="no"?>
<!DOCTYPE svg PUBLIC "-//W3C//DTD SVG 1.1//EN"
  "http://www.w3.org/Graphics/SVG/1.1/DTD/svg11.dtd">
<svg xmlns:xlink="http://www.w3.org/1999/xlink" width="360pt" height="360pt" viewBox="0 0 360 360" xmlns="http://www.w3.org/2000/svg" version="1.1">
 <metadata>
  <rdf:RDF xmlns:dc="http://purl.org/dc/elements/1.1/" xmlns:cc="http://creativecommons.org/ns#" xmlns:rdf="http://www.w3.org/1999/02/22-rdf-syntax-ns#">
   <cc:Work>
    <dc:type rdf:resource="http://purl.org/dc/dcmitype/StillImage"/>
    <dc:date>2025-01-07T09:30:48.644151</dc:date>
    <dc:format>image/svg+xml</dc:format>
    <dc:creator>
     <cc:Agent>
      <dc:title>Matplotlib v3.9.2, https://matplotlib.org/</dc:title>
     </cc:Agent>
    </dc:creator>
   </cc:Work>
  </rdf:RDF>
 </metadata>
 <defs>
  <style type="text/css">*{stroke-linejoin: round; stroke-linecap: butt}</style>
 </defs>
 <g id="figure_1">
  <g id="patch_1">
   <path d="M 0 360 
L 360 360 
L 360 0 
L 0 0 
z
" style="fill: #ffffff"/>
  </g>
  <g id="axes_1">
   <g id="patch_2">
    <path d="M 52.94 332.12 
L 349.2 332.12 
L 349.2 26.88 
L 52.94 26.88 
z
" style="fill: #ffffff"/>
   </g>
   <g id="matplotlib.axis_1">
    <g id="xtick_1">
     <g id="text_1">
      <!-- Our AMPs -->
      <g style="fill: #262626" transform="translate(67.341759 346.718437) scale(0.1 -0.1)">
       <defs>
        <path id="DejaVuSans-Bold-4f" d="M 2719 3878 
Q 2169 3878 1866 3472 
Q 1563 3066 1563 2328 
Q 1563 1594 1866 1187 
Q 2169 781 2719 781 
Q 3272 781 3575 1187 
Q 3878 1594 3878 2328 
Q 3878 3066 3575 3472 
Q 3272 3878 2719 3878 
z
M 2719 4750 
Q 3844 4750 4481 4106 
Q 5119 3463 5119 2328 
Q 5119 1197 4481 553 
Q 3844 -91 2719 -91 
Q 1597 -91 958 553 
Q 319 1197 319 2328 
Q 319 3463 958 4106 
Q 1597 4750 2719 4750 
z
" transform="scale(0.015625)"/>
        <path id="DejaVuSans-Bold-75" d="M 500 1363 
L 500 3500 
L 1625 3500 
L 1625 3150 
Q 1625 2866 1622 2436 
Q 1619 2006 1619 1863 
Q 1619 1441 1641 1255 
Q 1663 1069 1716 984 
Q 1784 875 1895 815 
Q 2006 756 2150 756 
Q 2500 756 2700 1025 
Q 2900 1294 2900 1772 
L 2900 3500 
L 4019 3500 
L 4019 0 
L 2900 0 
L 2900 506 
Q 2647 200 2364 54 
Q 2081 -91 1741 -91 
Q 1134 -91 817 281 
Q 500 653 500 1363 
z
" transform="scale(0.015625)"/>
        <path id="DejaVuSans-Bold-72" d="M 3138 2547 
Q 2991 2616 2845 2648 
Q 2700 2681 2553 2681 
Q 2122 2681 1889 2404 
Q 1656 2128 1656 1613 
L 1656 0 
L 538 0 
L 538 3500 
L 1656 3500 
L 1656 2925 
Q 1872 3269 2151 3426 
Q 2431 3584 2822 3584 
Q 2878 3584 2943 3579 
Q 3009 3575 3134 3559 
L 3138 2547 
z
" transform="scale(0.015625)"/>
        <path id="DejaVuSans-Bold-20" transform="scale(0.015625)"/>
        <path id="DejaVuSans-Bold-41" d="M 3419 850 
L 1538 850 
L 1241 0 
L 31 0 
L 1759 4666 
L 3194 4666 
L 4922 0 
L 3713 0 
L 3419 850 
z
M 1838 1716 
L 3116 1716 
L 2478 3572 
L 1838 1716 
z
" transform="scale(0.015625)"/>
        <path id="DejaVuSans-Bold-4d" d="M 588 4666 
L 2119 4666 
L 3181 2169 
L 4250 4666 
L 5778 4666 
L 5778 0 
L 4641 0 
L 4641 3413 
L 3566 897 
L 2803 897 
L 1728 3413 
L 1728 0 
L 588 0 
L 588 4666 
z
" transform="scale(0.015625)"/>
        <path id="DejaVuSans-Bold-50" d="M 588 4666 
L 2584 4666 
Q 3475 4666 3951 4270 
Q 4428 3875 4428 3144 
Q 4428 2409 3951 2014 
Q 3475 1619 2584 1619 
L 1791 1619 
L 1791 0 
L 588 0 
L 588 4666 
z
M 1791 3794 
L 1791 2491 
L 2456 2491 
Q 2806 2491 2997 2661 
Q 3188 2831 3188 3144 
Q 3188 3456 2997 3625 
Q 2806 3794 2456 3794 
L 1791 3794 
z
" transform="scale(0.015625)"/>
        <path id="DejaVuSans-Bold-73" d="M 3272 3391 
L 3272 2541 
Q 2913 2691 2578 2766 
Q 2244 2841 1947 2841 
Q 1628 2841 1473 2761 
Q 1319 2681 1319 2516 
Q 1319 2381 1436 2309 
Q 1553 2238 1856 2203 
L 2053 2175 
Q 2913 2066 3209 1816 
Q 3506 1566 3506 1031 
Q 3506 472 3093 190 
Q 2681 -91 1863 -91 
Q 1516 -91 1145 -36 
Q 775 19 384 128 
L 384 978 
Q 719 816 1070 734 
Q 1422 653 1784 653 
Q 2113 653 2278 743 
Q 2444 834 2444 1013 
Q 2444 1163 2330 1236 
Q 2216 1309 1875 1350 
L 1678 1375 
Q 931 1469 631 1722 
Q 331 1975 331 2491 
Q 331 3047 712 3315 
Q 1094 3584 1881 3584 
Q 2191 3584 2531 3537 
Q 2872 3491 3272 3391 
z
" transform="scale(0.015625)"/>
       </defs>
       <use xlink:href="#DejaVuSans-Bold-4f"/>
       <use xlink:href="#DejaVuSans-Bold-75" x="85.009766"/>
       <use xlink:href="#DejaVuSans-Bold-72" x="156.201172"/>
       <use xlink:href="#DejaVuSans-Bold-20" x="205.517578"/>
       <use xlink:href="#DejaVuSans-Bold-41" x="240.332031"/>
       <use xlink:href="#DejaVuSans-Bold-4d" x="317.724609"/>
       <use xlink:href="#DejaVuSans-Bold-50" x="417.236328"/>
       <use xlink:href="#DejaVuSans-Bold-73" x="488.777344"/>
      </g>
     </g>
    </g>
    <g id="xtick_2">
     <g id="text_2">
      <!-- APD3 -->
      <g style="fill: #262626" transform="translate(150.468138 346.718437) scale(0.1 -0.1)">
       <defs>
        <path id="DejaVuSans-Bold-44" d="M 1791 3756 
L 1791 909 
L 2222 909 
Q 2959 909 3348 1275 
Q 3738 1641 3738 2338 
Q 3738 3031 3350 3393 
Q 2963 3756 2222 3756 
L 1791 3756 
z
M 588 4666 
L 1856 4666 
Q 2919 4666 3439 4514 
Q 3959 4363 4331 4000 
Q 4659 3684 4818 3271 
Q 4978 2859 4978 2338 
Q 4978 1809 4818 1395 
Q 4659 981 4331 666 
Q 3956 303 3431 151 
Q 2906 0 1856 0 
L 588 0 
L 588 4666 
z
" transform="scale(0.015625)"/>
        <path id="DejaVuSans-Bold-33" d="M 2981 2516 
Q 3453 2394 3698 2092 
Q 3944 1791 3944 1325 
Q 3944 631 3412 270 
Q 2881 -91 1863 -91 
Q 1503 -91 1142 -33 
Q 781 25 428 141 
L 428 1069 
Q 766 900 1098 814 
Q 1431 728 1753 728 
Q 2231 728 2486 893 
Q 2741 1059 2741 1369 
Q 2741 1688 2480 1852 
Q 2219 2016 1709 2016 
L 1228 2016 
L 1228 2791 
L 1734 2791 
Q 2188 2791 2409 2933 
Q 2631 3075 2631 3366 
Q 2631 3634 2415 3781 
Q 2200 3928 1806 3928 
Q 1516 3928 1219 3862 
Q 922 3797 628 3669 
L 628 4550 
Q 984 4650 1334 4700 
Q 1684 4750 2022 4750 
Q 2931 4750 3382 4451 
Q 3834 4153 3834 3553 
Q 3834 3144 3618 2883 
Q 3403 2622 2981 2516 
z
" transform="scale(0.015625)"/>
       </defs>
       <use xlink:href="#DejaVuSans-Bold-41"/>
       <use xlink:href="#DejaVuSans-Bold-50" x="77.392578"/>
       <use xlink:href="#DejaVuSans-Bold-44" x="150.683594"/>
       <use xlink:href="#DejaVuSans-Bold-33" x="233.691406"/>
      </g>
     </g>
    </g>
    <g id="xtick_3">
     <g id="text_3">
      <!-- dbAMP -->
      <g style="fill: #262626" transform="translate(216.83983 346.718437) scale(0.1 -0.1)">
       <defs>
        <path id="DejaVuSans-Bold-64" d="M 2919 2988 
L 2919 4863 
L 4044 4863 
L 4044 0 
L 2919 0 
L 2919 506 
Q 2688 197 2409 53 
Q 2131 -91 1766 -91 
Q 1119 -91 703 423 
Q 288 938 288 1747 
Q 288 2556 703 3070 
Q 1119 3584 1766 3584 
Q 2128 3584 2408 3439 
Q 2688 3294 2919 2988 
z
M 2181 722 
Q 2541 722 2730 984 
Q 2919 1247 2919 1747 
Q 2919 2247 2730 2509 
Q 2541 2772 2181 2772 
Q 1825 2772 1636 2509 
Q 1447 2247 1447 1747 
Q 1447 1247 1636 984 
Q 1825 722 2181 722 
z
" transform="scale(0.015625)"/>
        <path id="DejaVuSans-Bold-62" d="M 2400 722 
Q 2759 722 2948 984 
Q 3138 1247 3138 1747 
Q 3138 2247 2948 2509 
Q 2759 2772 2400 2772 
Q 2041 2772 1848 2508 
Q 1656 2244 1656 1747 
Q 1656 1250 1848 986 
Q 2041 722 2400 722 
z
M 1656 2988 
Q 1888 3294 2169 3439 
Q 2450 3584 2816 3584 
Q 3463 3584 3878 3070 
Q 4294 2556 4294 1747 
Q 4294 938 3878 423 
Q 3463 -91 2816 -91 
Q 2450 -91 2169 54 
Q 1888 200 1656 506 
L 1656 0 
L 538 0 
L 538 4863 
L 1656 4863 
L 1656 2988 
z
" transform="scale(0.015625)"/>
       </defs>
       <use xlink:href="#DejaVuSans-Bold-64"/>
       <use xlink:href="#DejaVuSans-Bold-62" x="71.582031"/>
       <use xlink:href="#DejaVuSans-Bold-41" x="143.164062"/>
       <use xlink:href="#DejaVuSans-Bold-4d" x="220.556641"/>
       <use xlink:href="#DejaVuSans-Bold-50" x="320.068359"/>
      </g>
     </g>
    </g>
    <g id="xtick_4">
     <g id="text_4">
      <!-- DRAMP -->
      <g style="fill: #262626" transform="translate(286.87246 346.718437) scale(0.1 -0.1)">
       <defs>
        <path id="DejaVuSans-Bold-52" d="M 2297 2597 
Q 2675 2597 2839 2737 
Q 3003 2878 3003 3200 
Q 3003 3519 2839 3656 
Q 2675 3794 2297 3794 
L 1791 3794 
L 1791 2597 
L 2297 2597 
z
M 1791 1766 
L 1791 0 
L 588 0 
L 588 4666 
L 2425 4666 
Q 3347 4666 3776 4356 
Q 4206 4047 4206 3378 
Q 4206 2916 3982 2619 
Q 3759 2322 3309 2181 
Q 3556 2125 3751 1926 
Q 3947 1728 4147 1325 
L 4800 0 
L 3519 0 
L 2950 1159 
Q 2778 1509 2601 1637 
Q 2425 1766 2131 1766 
L 1791 1766 
z
" transform="scale(0.015625)"/>
       </defs>
       <use xlink:href="#DejaVuSans-Bold-44"/>
       <use xlink:href="#DejaVuSans-Bold-52" x="83.007812"/>
       <use xlink:href="#DejaVuSans-Bold-41" x="160.009766"/>
       <use xlink:href="#DejaVuSans-Bold-4d" x="237.402344"/>
       <use xlink:href="#DejaVuSans-Bold-50" x="336.914062"/>
      </g>
     </g>
    </g>
   </g>
   <g id="matplotlib.axis_2">
    <g id="ytick_1">
     <g id="text_5">
      <!-- −30 -->
      <g style="fill: #262626" transform="translate(24.835313 325.751388) scale(0.1 -0.1)">
       <defs>
        <path id="DejaVuSans-2212" d="M 678 2272 
L 4684 2272 
L 4684 1741 
L 678 1741 
L 678 2272 
z
" transform="scale(0.015625)"/>
        <path id="DejaVuSans-33" d="M 2597 2516 
Q 3050 2419 3304 2112 
Q 3559 1806 3559 1356 
Q 3559 666 3084 287 
Q 2609 -91 1734 -91 
Q 1441 -91 1130 -33 
Q 819 25 488 141 
L 488 750 
Q 750 597 1062 519 
Q 1375 441 1716 441 
Q 2309 441 2620 675 
Q 2931 909 2931 1356 
Q 2931 1769 2642 2001 
Q 2353 2234 1838 2234 
L 1294 2234 
L 1294 2753 
L 1863 2753 
Q 2328 2753 2575 2939 
Q 2822 3125 2822 3475 
Q 2822 3834 2567 4026 
Q 2313 4219 1838 4219 
Q 1578 4219 1281 4162 
Q 984 4106 628 3988 
L 628 4550 
Q 988 4650 1302 4700 
Q 1616 4750 1894 4750 
Q 2613 4750 3031 4423 
Q 3450 4097 3450 3541 
Q 3450 3153 3228 2886 
Q 3006 2619 2597 2516 
z
" transform="scale(0.015625)"/>
        <path id="DejaVuSans-30" d="M 2034 4250 
Q 1547 4250 1301 3770 
Q 1056 3291 1056 2328 
Q 1056 1369 1301 889 
Q 1547 409 2034 409 
Q 2525 409 2770 889 
Q 3016 1369 3016 2328 
Q 3016 3291 2770 3770 
Q 2525 4250 2034 4250 
z
M 2034 4750 
Q 2819 4750 3233 4129 
Q 3647 3509 3647 2328 
Q 3647 1150 3233 529 
Q 2819 -91 2034 -91 
Q 1250 -91 836 529 
Q 422 1150 422 2328 
Q 422 3509 836 4129 
Q 1250 4750 2034 4750 
z
" transform="scale(0.015625)"/>
       </defs>
       <use xlink:href="#DejaVuSans-2212"/>
       <use xlink:href="#DejaVuSans-33" x="83.789062"/>
       <use xlink:href="#DejaVuSans-30" x="147.412109"/>
      </g>
     </g>
    </g>
    <g id="ytick_2">
     <g id="text_6">
      <!-- −20 -->
      <g style="fill: #262626" transform="translate(24.835313 280.823707) scale(0.1 -0.1)">
       <defs>
        <path id="DejaVuSans-32" d="M 1228 531 
L 3431 531 
L 3431 0 
L 469 0 
L 469 531 
Q 828 903 1448 1529 
Q 2069 2156 2228 2338 
Q 2531 2678 2651 2914 
Q 2772 3150 2772 3378 
Q 2772 3750 2511 3984 
Q 2250 4219 1831 4219 
Q 1534 4219 1204 4116 
Q 875 4013 500 3803 
L 500 4441 
Q 881 4594 1212 4672 
Q 1544 4750 1819 4750 
Q 2544 4750 2975 4387 
Q 3406 4025 3406 3419 
Q 3406 3131 3298 2873 
Q 3191 2616 2906 2266 
Q 2828 2175 2409 1742 
Q 1991 1309 1228 531 
z
" transform="scale(0.015625)"/>
       </defs>
       <use xlink:href="#DejaVuSans-2212"/>
       <use xlink:href="#DejaVuSans-32" x="83.789062"/>
       <use xlink:href="#DejaVuSans-30" x="147.412109"/>
      </g>
     </g>
    </g>
    <g id="ytick_3">
     <g id="text_7">
      <!-- −10 -->
      <g style="fill: #262626" transform="translate(24.835313 235.896027) scale(0.1 -0.1)">
       <defs>
        <path id="DejaVuSans-31" d="M 794 531 
L 1825 531 
L 1825 4091 
L 703 3866 
L 703 4441 
L 1819 4666 
L 2450 4666 
L 2450 531 
L 3481 531 
L 3481 0 
L 794 0 
L 794 531 
z
" transform="scale(0.015625)"/>
       </defs>
       <use xlink:href="#DejaVuSans-2212"/>
       <use xlink:href="#DejaVuSans-31" x="83.789062"/>
       <use xlink:href="#DejaVuSans-30" x="147.412109"/>
      </g>
     </g>
    </g>
    <g id="ytick_4">
     <g id="text_8">
      <!-- 0 -->
      <g style="fill: #262626" transform="translate(39.5775 190.968347) scale(0.1 -0.1)">
       <use xlink:href="#DejaVuSans-30"/>
      </g>
     </g>
    </g>
    <g id="ytick_5">
     <g id="text_9">
      <!-- 10 -->
      <g style="fill: #262626" transform="translate(33.215 146.040667) scale(0.1 -0.1)">
       <use xlink:href="#DejaVuSans-31"/>
       <use xlink:href="#DejaVuSans-30" x="63.623047"/>
      </g>
     </g>
    </g>
    <g id="ytick_6">
     <g id="text_10">
      <!-- 20 -->
      <g style="fill: #262626" transform="translate(33.215 101.112986) scale(0.1 -0.1)">
       <use xlink:href="#DejaVuSans-32"/>
       <use xlink:href="#DejaVuSans-30" x="63.623047"/>
      </g>
     </g>
    </g>
    <g id="ytick_7">
     <g id="text_11">
      <!-- 30 -->
      <g style="fill: #262626" transform="translate(33.215 56.185306) scale(0.1 -0.1)">
       <use xlink:href="#DejaVuSans-33"/>
       <use xlink:href="#DejaVuSans-30" x="63.623047"/>
      </g>
     </g>
    </g>
    <g id="text_12">
     <!-- Net Charge -->
     <g style="fill: #262626" transform="translate(18.6775 211.245313) rotate(-90) scale(0.1 -0.1)">
      <defs>
       <path id="DejaVuSans-Bold-4e" d="M 588 4666 
L 1931 4666 
L 3628 1466 
L 3628 4666 
L 4769 4666 
L 4769 0 
L 3425 0 
L 1728 3200 
L 1728 0 
L 588 0 
L 588 4666 
z
" transform="scale(0.015625)"/>
       <path id="DejaVuSans-Bold-65" d="M 4031 1759 
L 4031 1441 
L 1416 1441 
Q 1456 1047 1700 850 
Q 1944 653 2381 653 
Q 2734 653 3104 758 
Q 3475 863 3866 1075 
L 3866 213 
Q 3469 63 3072 -14 
Q 2675 -91 2278 -91 
Q 1328 -91 801 392 
Q 275 875 275 1747 
Q 275 2603 792 3093 
Q 1309 3584 2216 3584 
Q 3041 3584 3536 3087 
Q 4031 2591 4031 1759 
z
M 2881 2131 
Q 2881 2450 2695 2645 
Q 2509 2841 2209 2841 
Q 1884 2841 1681 2658 
Q 1478 2475 1428 2131 
L 2881 2131 
z
" transform="scale(0.015625)"/>
       <path id="DejaVuSans-Bold-74" d="M 1759 4494 
L 1759 3500 
L 2913 3500 
L 2913 2700 
L 1759 2700 
L 1759 1216 
Q 1759 972 1856 886 
Q 1953 800 2241 800 
L 2816 800 
L 2816 0 
L 1856 0 
Q 1194 0 917 276 
Q 641 553 641 1216 
L 641 2700 
L 84 2700 
L 84 3500 
L 641 3500 
L 641 4494 
L 1759 4494 
z
" transform="scale(0.015625)"/>
       <path id="DejaVuSans-Bold-43" d="M 4288 256 
Q 3956 84 3597 -3 
Q 3238 -91 2847 -91 
Q 1681 -91 1000 561 
Q 319 1213 319 2328 
Q 319 3447 1000 4098 
Q 1681 4750 2847 4750 
Q 3238 4750 3597 4662 
Q 3956 4575 4288 4403 
L 4288 3438 
Q 3953 3666 3628 3772 
Q 3303 3878 2944 3878 
Q 2300 3878 1931 3465 
Q 1563 3053 1563 2328 
Q 1563 1606 1931 1193 
Q 2300 781 2944 781 
Q 3303 781 3628 887 
Q 3953 994 4288 1222 
L 4288 256 
z
" transform="scale(0.015625)"/>
       <path id="DejaVuSans-Bold-68" d="M 4056 2131 
L 4056 0 
L 2931 0 
L 2931 347 
L 2931 1625 
Q 2931 2084 2911 2256 
Q 2891 2428 2841 2509 
Q 2775 2619 2662 2680 
Q 2550 2741 2406 2741 
Q 2056 2741 1856 2470 
Q 1656 2200 1656 1722 
L 1656 0 
L 538 0 
L 538 4863 
L 1656 4863 
L 1656 2988 
Q 1909 3294 2193 3439 
Q 2478 3584 2822 3584 
Q 3428 3584 3742 3212 
Q 4056 2841 4056 2131 
z
" transform="scale(0.015625)"/>
       <path id="DejaVuSans-Bold-61" d="M 2106 1575 
Q 1756 1575 1579 1456 
Q 1403 1338 1403 1106 
Q 1403 894 1545 773 
Q 1688 653 1941 653 
Q 2256 653 2472 879 
Q 2688 1106 2688 1447 
L 2688 1575 
L 2106 1575 
z
M 3816 1997 
L 3816 0 
L 2688 0 
L 2688 519 
Q 2463 200 2181 54 
Q 1900 -91 1497 -91 
Q 953 -91 614 226 
Q 275 544 275 1050 
Q 275 1666 698 1953 
Q 1122 2241 2028 2241 
L 2688 2241 
L 2688 2328 
Q 2688 2594 2478 2717 
Q 2269 2841 1825 2841 
Q 1466 2841 1156 2769 
Q 847 2697 581 2553 
L 581 3406 
Q 941 3494 1303 3539 
Q 1666 3584 2028 3584 
Q 2975 3584 3395 3211 
Q 3816 2838 3816 1997 
z
" transform="scale(0.015625)"/>
       <path id="DejaVuSans-Bold-67" d="M 2919 594 
Q 2688 288 2409 144 
Q 2131 0 1766 0 
Q 1125 0 706 504 
Q 288 1009 288 1791 
Q 288 2575 706 3076 
Q 1125 3578 1766 3578 
Q 2131 3578 2409 3434 
Q 2688 3291 2919 2981 
L 2919 3500 
L 4044 3500 
L 4044 353 
Q 4044 -491 3511 -936 
Q 2978 -1381 1966 -1381 
Q 1638 -1381 1331 -1331 
Q 1025 -1281 716 -1178 
L 716 -306 
Q 1009 -475 1290 -558 
Q 1572 -641 1856 -641 
Q 2406 -641 2662 -400 
Q 2919 -159 2919 353 
L 2919 594 
z
M 2181 2772 
Q 1834 2772 1640 2515 
Q 1447 2259 1447 1791 
Q 1447 1309 1634 1061 
Q 1822 813 2181 813 
Q 2531 813 2725 1069 
Q 2919 1325 2919 1791 
Q 2919 2259 2725 2515 
Q 2531 2772 2181 2772 
z
" transform="scale(0.015625)"/>
      </defs>
      <use xlink:href="#DejaVuSans-Bold-4e"/>
      <use xlink:href="#DejaVuSans-Bold-65" x="83.691406"/>
      <use xlink:href="#DejaVuSans-Bold-74" x="151.513672"/>
      <use xlink:href="#DejaVuSans-Bold-20" x="199.316406"/>
      <use xlink:href="#DejaVuSans-Bold-43" x="234.130859"/>
      <use xlink:href="#DejaVuSans-Bold-68" x="307.519531"/>
      <use xlink:href="#DejaVuSans-Bold-61" x="378.710938"/>
      <use xlink:href="#DejaVuSans-Bold-72" x="446.191406"/>
      <use xlink:href="#DejaVuSans-Bold-67" x="495.507812"/>
      <use xlink:href="#DejaVuSans-Bold-65" x="567.089844"/>
     </g>
    </g>
   </g>
   <g id="patch_3">
    <path d="M 66.406364 188.291419 
L 123.106842 188.291419 
L 123.106842 174.782097 
L 66.406364 174.782097 
L 66.406364 188.291419 
z
" clip-path="url(#pcd69ed1d50)" style="fill: #117a7a; stroke: #2a2a2a; stroke-linejoin: miter"/>
   </g>
   <g id="line2d_1">
    <path d="M 94.756603 188.291419 
L 94.756603 207.438757 
" clip-path="url(#pcd69ed1d50)" style="fill: none; stroke: #2a2a2a"/>
   </g>
   <g id="line2d_2">
    <path d="M 94.756603 174.782097 
L 94.756603 156.401131 
" clip-path="url(#pcd69ed1d50)" style="fill: none; stroke: #2a2a2a"/>
   </g>
   <g id="line2d_3">
    <path d="M 80.581483 207.438757 
L 108.931722 207.438757 
" clip-path="url(#pcd69ed1d50)" style="fill: none; stroke: #2a2a2a; stroke-linecap: round"/>
   </g>
   <g id="line2d_4">
    <path d="M 80.581483 156.401131 
L 108.931722 156.401131 
" clip-path="url(#pcd69ed1d50)" style="fill: none; stroke: #2a2a2a; stroke-linecap: round"/>
   </g>
   <g id="line2d_5">
    <defs>
     <path id="m1636882bc7" d="M 0 3 
C 0.795609 3 1.55874 2.683901 2.12132 2.12132 
C 2.683901 1.55874 3 0.795609 3 0 
C 3 -0.795609 2.683901 -1.55874 2.12132 -2.12132 
C 1.55874 -2.683901 0.795609 -3 0 -3 
C -0.795609 -3 -1.55874 -2.683901 -2.12132 -2.12132 
C -2.683901 -1.55874 -3 -0.795609 -3 0 
C -3 0.795609 -2.683901 1.55874 -2.12132 2.12132 
C -1.55874 2.683901 -0.795609 3 0 3 
z
" style="stroke: #2a2a2a"/>
    </defs>
    <g clip-path="url(#pcd69ed1d50)">
     <use xlink:href="#m1636882bc7" x="94.756603" y="223.481138" style="fill-opacity: 0; stroke: #2a2a2a"/>
     <use xlink:href="#m1636882bc7" x="94.756603" y="210.309517" style="fill-opacity: 0; stroke: #2a2a2a"/>
     <use xlink:href="#m1636882bc7" x="94.756603" y="135.60633" style="fill-opacity: 0; stroke: #2a2a2a"/>
     <use xlink:href="#m1636882bc7" x="94.756603" y="131.050802" style="fill-opacity: 0; stroke: #2a2a2a"/>
     <use xlink:href="#m1636882bc7" x="94.756603" y="153.953569" style="fill-opacity: 0; stroke: #2a2a2a"/>
     <use xlink:href="#m1636882bc7" x="94.756603" y="153.569176" style="fill-opacity: 0; stroke: #2a2a2a"/>
     <use xlink:href="#m1636882bc7" x="94.756603" y="153.569176" style="fill-opacity: 0; stroke: #2a2a2a"/>
    </g>
   </g>
   <g id="patch_4">
    <path d="M 137.281962 188.249251 
L 193.98244 188.249251 
L 193.98244 174.306443 
L 137.281962 174.306443 
L 137.281962 188.249251 
z
" clip-path="url(#pcd69ed1d50)" style="fill: #9345b9; stroke: #2a2a2a; stroke-linejoin: miter"/>
   </g>
   <g id="line2d_6">
    <path d="M 165.632201 188.249251 
L 165.632201 206.622813 
" clip-path="url(#pcd69ed1d50)" style="fill: none; stroke: #2a2a2a"/>
   </g>
   <g id="line2d_7">
    <path d="M 165.632201 174.306443 
L 165.632201 153.504868 
" clip-path="url(#pcd69ed1d50)" style="fill: none; stroke: #2a2a2a"/>
   </g>
   <g id="line2d_8">
    <path d="M 151.457081 206.622813 
L 179.807321 206.622813 
" clip-path="url(#pcd69ed1d50)" style="fill: none; stroke: #2a2a2a; stroke-linecap: round"/>
   </g>
   <g id="line2d_9">
    <path d="M 151.457081 153.504868 
L 179.807321 153.504868 
" clip-path="url(#pcd69ed1d50)" style="fill: none; stroke: #2a2a2a; stroke-linecap: round"/>
   </g>
   <g id="line2d_10">
    <g clip-path="url(#pcd69ed1d50)">
     <use xlink:href="#m1636882bc7" x="165.632201" y="211.006692" style="fill-opacity: 0; stroke: #2a2a2a"/>
     <use xlink:href="#m1636882bc7" x="165.632201" y="138.930336" style="fill-opacity: 0; stroke: #2a2a2a"/>
     <use xlink:href="#m1636882bc7" x="165.632201" y="142.66934" style="fill-opacity: 0; stroke: #2a2a2a"/>
     <use xlink:href="#m1636882bc7" x="165.632201" y="147.228923" style="fill-opacity: 0; stroke: #2a2a2a"/>
    </g>
   </g>
   <g id="patch_5">
    <path d="M 208.15756 189.876257 
L 264.858038 189.876257 
L 264.858038 171.183691 
L 208.15756 171.183691 
L 208.15756 189.876257 
z
" clip-path="url(#pcd69ed1d50)" style="fill: #df2020; stroke: #2a2a2a; stroke-linejoin: miter"/>
   </g>
   <g id="line2d_11">
    <path d="M 236.507799 189.876257 
L 236.507799 216.72888 
" clip-path="url(#pcd69ed1d50)" style="fill: none; stroke: #2a2a2a"/>
   </g>
   <g id="line2d_12">
    <path d="M 236.507799 171.183691 
L 236.507799 143.435984 
" clip-path="url(#pcd69ed1d50)" style="fill: none; stroke: #2a2a2a"/>
   </g>
   <g id="line2d_13">
    <path d="M 222.332679 216.72888 
L 250.682919 216.72888 
" clip-path="url(#pcd69ed1d50)" style="fill: none; stroke: #2a2a2a; stroke-linecap: round"/>
   </g>
   <g id="line2d_14">
    <path d="M 222.332679 143.435984 
L 250.682919 143.435984 
" clip-path="url(#pcd69ed1d50)" style="fill: none; stroke: #2a2a2a; stroke-linecap: round"/>
   </g>
   <g id="line2d_15">
    <g clip-path="url(#pcd69ed1d50)">
     <use xlink:href="#m1636882bc7" x="236.507799" y="224.033047" style="fill-opacity: 0; stroke: #2a2a2a"/>
     <use xlink:href="#m1636882bc7" x="236.507799" y="313.469317" style="fill-opacity: 0; stroke: #2a2a2a"/>
     <use xlink:href="#m1636882bc7" x="236.507799" y="305.94993" style="fill-opacity: 0; stroke: #2a2a2a"/>
     <use xlink:href="#m1636882bc7" x="236.507799" y="305.953626" style="fill-opacity: 0; stroke: #2a2a2a"/>
     <use xlink:href="#m1636882bc7" x="236.507799" y="245.756883" style="fill-opacity: 0; stroke: #2a2a2a"/>
     <use xlink:href="#m1636882bc7" x="236.507799" y="241.733171" style="fill-opacity: 0; stroke: #2a2a2a"/>
     <use xlink:href="#m1636882bc7" x="236.507799" y="227.273787" style="fill-opacity: 0; stroke: #2a2a2a"/>
     <use xlink:href="#m1636882bc7" x="236.507799" y="245.129053" style="fill-opacity: 0; stroke: #2a2a2a"/>
     <use xlink:href="#m1636882bc7" x="236.507799" y="235.862891" style="fill-opacity: 0; stroke: #2a2a2a"/>
     <use xlink:href="#m1636882bc7" x="236.507799" y="246.773733" style="fill-opacity: 0; stroke: #2a2a2a"/>
     <use xlink:href="#m1636882bc7" x="236.507799" y="246.773733" style="fill-opacity: 0; stroke: #2a2a2a"/>
     <use xlink:href="#m1636882bc7" x="236.507799" y="246.773733" style="fill-opacity: 0; stroke: #2a2a2a"/>
     <use xlink:href="#m1636882bc7" x="236.507799" y="226.580043" style="fill-opacity: 0; stroke: #2a2a2a"/>
     <use xlink:href="#m1636882bc7" x="236.507799" y="237.565699" style="fill-opacity: 0; stroke: #2a2a2a"/>
     <use xlink:href="#m1636882bc7" x="236.507799" y="233.423541" style="fill-opacity: 0; stroke: #2a2a2a"/>
     <use xlink:href="#m1636882bc7" x="236.507799" y="247.371952" style="fill-opacity: 0; stroke: #2a2a2a"/>
     <use xlink:href="#m1636882bc7" x="236.507799" y="243.246528" style="fill-opacity: 0; stroke: #2a2a2a"/>
     <use xlink:href="#m1636882bc7" x="236.507799" y="238.758796" style="fill-opacity: 0; stroke: #2a2a2a"/>
     <use xlink:href="#m1636882bc7" x="236.507799" y="219.755623" style="fill-opacity: 0; stroke: #2a2a2a"/>
     <use xlink:href="#m1636882bc7" x="236.507799" y="220.123955" style="fill-opacity: 0; stroke: #2a2a2a"/>
     <use xlink:href="#m1636882bc7" x="236.507799" y="236.250289" style="fill-opacity: 0; stroke: #2a2a2a"/>
     <use xlink:href="#m1636882bc7" x="236.507799" y="232.164198" style="fill-opacity: 0; stroke: #2a2a2a"/>
     <use xlink:href="#m1636882bc7" x="236.507799" y="241.518283" style="fill-opacity: 0; stroke: #2a2a2a"/>
     <use xlink:href="#m1636882bc7" x="236.507799" y="227.663432" style="fill-opacity: 0; stroke: #2a2a2a"/>
     <use xlink:href="#m1636882bc7" x="236.507799" y="240.362235" style="fill-opacity: 0; stroke: #2a2a2a"/>
     <use xlink:href="#m1636882bc7" x="236.507799" y="250.102335" style="fill-opacity: 0; stroke: #2a2a2a"/>
     <use xlink:href="#m1636882bc7" x="236.507799" y="249.665406" style="fill-opacity: 0; stroke: #2a2a2a"/>
     <use xlink:href="#m1636882bc7" x="236.507799" y="232.213671" style="fill-opacity: 0; stroke: #2a2a2a"/>
     <use xlink:href="#m1636882bc7" x="236.507799" y="237.081029" style="fill-opacity: 0; stroke: #2a2a2a"/>
     <use xlink:href="#m1636882bc7" x="236.507799" y="263.161985" style="fill-opacity: 0; stroke: #2a2a2a"/>
     <use xlink:href="#m1636882bc7" x="236.507799" y="249.346307" style="fill-opacity: 0; stroke: #2a2a2a"/>
     <use xlink:href="#m1636882bc7" x="236.507799" y="219.189336" style="fill-opacity: 0; stroke: #2a2a2a"/>
     <use xlink:href="#m1636882bc7" x="236.507799" y="305.70066" style="fill-opacity: 0; stroke: #2a2a2a"/>
     <use xlink:href="#m1636882bc7" x="236.507799" y="268.237867" style="fill-opacity: 0; stroke: #2a2a2a"/>
     <use xlink:href="#m1636882bc7" x="236.507799" y="317.966403" style="fill-opacity: 0; stroke: #2a2a2a"/>
     <use xlink:href="#m1636882bc7" x="236.507799" y="313.486261" style="fill-opacity: 0; stroke: #2a2a2a"/>
     <use xlink:href="#m1636882bc7" x="236.507799" y="313.486261" style="fill-opacity: 0; stroke: #2a2a2a"/>
     <use xlink:href="#m1636882bc7" x="236.507799" y="242.172546" style="fill-opacity: 0; stroke: #2a2a2a"/>
     <use xlink:href="#m1636882bc7" x="236.507799" y="128.629799" style="fill-opacity: 0; stroke: #2a2a2a"/>
     <use xlink:href="#m1636882bc7" x="236.507799" y="138.930336" style="fill-opacity: 0; stroke: #2a2a2a"/>
     <use xlink:href="#m1636882bc7" x="236.507799" y="138.856402" style="fill-opacity: 0; stroke: #2a2a2a"/>
     <use xlink:href="#m1636882bc7" x="236.507799" y="107.024564" style="fill-opacity: 0; stroke: #2a2a2a"/>
     <use xlink:href="#m1636882bc7" x="236.507799" y="142.66934" style="fill-opacity: 0; stroke: #2a2a2a"/>
     <use xlink:href="#m1636882bc7" x="236.507799" y="122.958328" style="fill-opacity: 0; stroke: #2a2a2a"/>
     <use xlink:href="#m1636882bc7" x="236.507799" y="126.21233" style="fill-opacity: 0; stroke: #2a2a2a"/>
     <use xlink:href="#m1636882bc7" x="236.507799" y="130.437051" style="fill-opacity: 0; stroke: #2a2a2a"/>
     <use xlink:href="#m1636882bc7" x="236.507799" y="120.609509" style="fill-opacity: 0; stroke: #2a2a2a"/>
     <use xlink:href="#m1636882bc7" x="236.507799" y="137.287476" style="fill-opacity: 0; stroke: #2a2a2a"/>
    </g>
   </g>
   <g id="patch_6">
    <path d="M 279.033158 188.441289 
L 335.733636 188.441289 
L 335.733636 174.263824 
L 279.033158 174.263824 
L 279.033158 188.441289 
z
" clip-path="url(#pcd69ed1d50)" style="fill: #df8920; stroke: #2a2a2a; stroke-linejoin: miter"/>
   </g>
   <g id="line2d_16">
    <path d="M 307.383397 188.441289 
L 307.383397 207.434982 
" clip-path="url(#pcd69ed1d50)" style="fill: none; stroke: #2a2a2a"/>
   </g>
   <g id="line2d_17">
    <path d="M 307.383397 174.263824 
L 307.383397 153.116865 
" clip-path="url(#pcd69ed1d50)" style="fill: none; stroke: #2a2a2a"/>
   </g>
   <g id="line2d_18">
    <path d="M 293.208278 207.434982 
L 321.558517 207.434982 
" clip-path="url(#pcd69ed1d50)" style="fill: none; stroke: #2a2a2a; stroke-linecap: round"/>
   </g>
   <g id="line2d_19">
    <path d="M 293.208278 153.116865 
L 321.558517 153.116865 
" clip-path="url(#pcd69ed1d50)" style="fill: none; stroke: #2a2a2a; stroke-linecap: round"/>
   </g>
   <g id="line2d_20">
    <g clip-path="url(#pcd69ed1d50)">
     <use xlink:href="#m1636882bc7" x="307.383397" y="211.660569" style="fill-opacity: 0; stroke: #2a2a2a"/>
     <use xlink:href="#m1636882bc7" x="307.383397" y="142.66934" style="fill-opacity: 0; stroke: #2a2a2a"/>
     <use xlink:href="#m1636882bc7" x="307.383397" y="149.015796" style="fill-opacity: 0; stroke: #2a2a2a"/>
     <use xlink:href="#m1636882bc7" x="307.383397" y="138.930336" style="fill-opacity: 0; stroke: #2a2a2a"/>
    </g>
   </g>
   <g id="line2d_21">
    <path d="M 94.756603 95.002879 
L 165.632201 95.002879 
" clip-path="url(#pcd69ed1d50)" style="fill: none; stroke: #000000; stroke-width: 1.5; stroke-linecap: round"/>
   </g>
   <g id="line2d_22">
    <path d="M 94.756603 82.981195 
L 236.507799 82.981195 
" clip-path="url(#pcd69ed1d50)" style="fill: none; stroke: #000000; stroke-width: 1.5; stroke-linecap: round"/>
   </g>
   <g id="line2d_23">
    <path d="M 94.756603 70.95951 
L 307.383397 70.95951 
" clip-path="url(#pcd69ed1d50)" style="fill: none; stroke: #000000; stroke-width: 1.5; stroke-linecap: round"/>
   </g>
   <g id="line2d_24">
    <path d="M 165.632201 58.937826 
L 236.507799 58.937826 
" clip-path="url(#pcd69ed1d50)" style="fill: none; stroke: #000000; stroke-width: 1.5; stroke-linecap: round"/>
   </g>
   <g id="line2d_25">
    <path d="M 165.632201 46.916141 
L 307.383397 46.916141 
" clip-path="url(#pcd69ed1d50)" style="fill: none; stroke: #000000; stroke-width: 1.5; stroke-linecap: round"/>
   </g>
   <g id="line2d_26">
    <path d="M 236.507799 34.894456 
L 307.383397 34.894456 
" clip-path="url(#pcd69ed1d50)" style="fill: none; stroke: #000000; stroke-width: 1.5; stroke-linecap: round"/>
   </g>
   <g id="line2d_27">
    <path d="M 66.406364 182.96222 
L 123.106842 182.96222 
" clip-path="url(#pcd69ed1d50)" style="fill: none; stroke: #2a2a2a"/>
   </g>
   <g id="line2d_28">
    <path d="M 137.281962 182.282225 
L 193.98244 182.282225 
" clip-path="url(#pcd69ed1d50)" style="fill: none; stroke: #2a2a2a"/>
   </g>
   <g id="line2d_29">
    <path d="M 208.15756 180.432743 
L 264.858038 180.432743 
" clip-path="url(#pcd69ed1d50)" style="fill: none; stroke: #2a2a2a"/>
   </g>
   <g id="line2d_30">
    <path d="M 279.033158 182.601102 
L 335.733636 182.601102 
" clip-path="url(#pcd69ed1d50)" style="fill: none; stroke: #2a2a2a"/>
   </g>
   <g id="patch_7">
    <path d="M 52.94 332.12 
L 52.94 26.88 
" style="fill: none; stroke: #262626; stroke-width: 0.8; stroke-linejoin: miter; stroke-linecap: square"/>
   </g>
   <g id="patch_8">
    <path d="M 349.2 332.12 
L 349.2 26.88 
" style="fill: none; stroke: #262626; stroke-width: 0.8; stroke-linejoin: miter; stroke-linecap: square"/>
   </g>
   <g id="patch_9">
    <path d="M 52.94 332.12 
L 349.2 332.12 
" style="fill: none; stroke: #262626; stroke-width: 0.8; stroke-linejoin: miter; stroke-linecap: square"/>
   </g>
   <g id="patch_10">
    <path d="M 52.94 26.88 
L 349.2 26.88 
" style="fill: none; stroke: #262626; stroke-width: 0.8; stroke-linejoin: miter; stroke-linecap: square"/>
   </g>
   <g id="text_13">
    <!-- ns -->
    <g transform="translate(123.266277 92.507254) scale(0.12 -0.12)">
     <defs>
      <path id="DejaVuSans-6e" d="M 3513 2113 
L 3513 0 
L 2938 0 
L 2938 2094 
Q 2938 2591 2744 2837 
Q 2550 3084 2163 3084 
Q 1697 3084 1428 2787 
Q 1159 2491 1159 1978 
L 1159 0 
L 581 0 
L 581 3500 
L 1159 3500 
L 1159 2956 
Q 1366 3272 1645 3428 
Q 1925 3584 2291 3584 
Q 2894 3584 3203 3211 
Q 3513 2838 3513 2113 
z
" transform="scale(0.015625)"/>
      <path id="DejaVuSans-73" d="M 2834 3397 
L 2834 2853 
Q 2591 2978 2328 3040 
Q 2066 3103 1784 3103 
Q 1356 3103 1142 2972 
Q 928 2841 928 2578 
Q 928 2378 1081 2264 
Q 1234 2150 1697 2047 
L 1894 2003 
Q 2506 1872 2764 1633 
Q 3022 1394 3022 966 
Q 3022 478 2636 193 
Q 2250 -91 1575 -91 
Q 1294 -91 989 -36 
Q 684 19 347 128 
L 347 722 
Q 666 556 975 473 
Q 1284 391 1588 391 
Q 1994 391 2212 530 
Q 2431 669 2431 922 
Q 2431 1156 2273 1281 
Q 2116 1406 1581 1522 
L 1381 1569 
Q 847 1681 609 1914 
Q 372 2147 372 2553 
Q 372 3047 722 3315 
Q 1072 3584 1716 3584 
Q 2034 3584 2315 3537 
Q 2597 3491 2834 3397 
z
" transform="scale(0.015625)"/>
     </defs>
     <use xlink:href="#DejaVuSans-6e"/>
     <use xlink:href="#DejaVuSans-73" x="63.378906"/>
    </g>
   </g>
   <g id="text_14">
    <!-- ns -->
    <g transform="translate(158.704076 80.48557) scale(0.12 -0.12)">
     <use xlink:href="#DejaVuSans-6e"/>
     <use xlink:href="#DejaVuSans-73" x="63.378906"/>
    </g>
   </g>
   <g id="text_15">
    <!-- ns -->
    <g transform="translate(194.141875 68.463885) scale(0.12 -0.12)">
     <use xlink:href="#DejaVuSans-6e"/>
     <use xlink:href="#DejaVuSans-73" x="63.378906"/>
    </g>
   </g>
   <g id="text_16">
    <!-- ns -->
    <g transform="translate(194.141875 56.442201) scale(0.12 -0.12)">
     <use xlink:href="#DejaVuSans-6e"/>
     <use xlink:href="#DejaVuSans-73" x="63.378906"/>
    </g>
   </g>
   <g id="text_17">
    <!-- ns -->
    <g transform="translate(229.579674 44.420516) scale(0.12 -0.12)">
     <use xlink:href="#DejaVuSans-6e"/>
     <use xlink:href="#DejaVuSans-73" x="63.378906"/>
    </g>
   </g>
   <g id="text_18">
    <!-- ns -->
    <g transform="translate(265.017473 32.398831) scale(0.12 -0.12)">
     <use xlink:href="#DejaVuSans-6e"/>
     <use xlink:href="#DejaVuSans-73" x="63.378906"/>
    </g>
   </g>
   <g id="text_19">
    <!-- Net Charge Distribution -->
    <g style="fill: #262626" transform="translate(120.510625 20.88) scale(0.12 -0.12)">
     <defs>
      <path id="DejaVuSans-Bold-69" d="M 538 3500 
L 1656 3500 
L 1656 0 
L 538 0 
L 538 3500 
z
M 538 4863 
L 1656 4863 
L 1656 3950 
L 538 3950 
L 538 4863 
z
" transform="scale(0.015625)"/>
      <path id="DejaVuSans-Bold-6f" d="M 2203 2784 
Q 1831 2784 1636 2517 
Q 1441 2250 1441 1747 
Q 1441 1244 1636 976 
Q 1831 709 2203 709 
Q 2569 709 2762 976 
Q 2956 1244 2956 1747 
Q 2956 2250 2762 2517 
Q 2569 2784 2203 2784 
z
M 2203 3584 
Q 3106 3584 3614 3096 
Q 4122 2609 4122 1747 
Q 4122 884 3614 396 
Q 3106 -91 2203 -91 
Q 1297 -91 786 396 
Q 275 884 275 1747 
Q 275 2609 786 3096 
Q 1297 3584 2203 3584 
z
" transform="scale(0.015625)"/>
      <path id="DejaVuSans-Bold-6e" d="M 4056 2131 
L 4056 0 
L 2931 0 
L 2931 347 
L 2931 1631 
Q 2931 2084 2911 2256 
Q 2891 2428 2841 2509 
Q 2775 2619 2662 2680 
Q 2550 2741 2406 2741 
Q 2056 2741 1856 2470 
Q 1656 2200 1656 1722 
L 1656 0 
L 538 0 
L 538 3500 
L 1656 3500 
L 1656 2988 
Q 1909 3294 2193 3439 
Q 2478 3584 2822 3584 
Q 3428 3584 3742 3212 
Q 4056 2841 4056 2131 
z
" transform="scale(0.015625)"/>
     </defs>
     <use xlink:href="#DejaVuSans-Bold-4e"/>
     <use xlink:href="#DejaVuSans-Bold-65" x="83.691406"/>
     <use xlink:href="#DejaVuSans-Bold-74" x="151.513672"/>
     <use xlink:href="#DejaVuSans-Bold-20" x="199.316406"/>
     <use xlink:href="#DejaVuSans-Bold-43" x="234.130859"/>
     <use xlink:href="#DejaVuSans-Bold-68" x="307.519531"/>
     <use xlink:href="#DejaVuSans-Bold-61" x="378.710938"/>
     <use xlink:href="#DejaVuSans-Bold-72" x="446.191406"/>
     <use xlink:href="#DejaVuSans-Bold-67" x="495.507812"/>
     <use xlink:href="#DejaVuSans-Bold-65" x="567.089844"/>
     <use xlink:href="#DejaVuSans-Bold-20" x="634.912109"/>
     <use xlink:href="#DejaVuSans-Bold-44" x="669.726562"/>
     <use xlink:href="#DejaVuSans-Bold-69" x="752.734375"/>
     <use xlink:href="#DejaVuSans-Bold-73" x="787.011719"/>
     <use xlink:href="#DejaVuSans-Bold-74" x="846.533203"/>
     <use xlink:href="#DejaVuSans-Bold-72" x="894.335938"/>
     <use xlink:href="#DejaVuSans-Bold-69" x="943.652344"/>
     <use xlink:href="#DejaVuSans-Bold-62" x="977.929688"/>
     <use xlink:href="#DejaVuSans-Bold-75" x="1049.511719"/>
     <use xlink:href="#DejaVuSans-Bold-74" x="1120.703125"/>
     <use xlink:href="#DejaVuSans-Bold-69" x="1168.505859"/>
     <use xlink:href="#DejaVuSans-Bold-6f" x="1202.783203"/>
     <use xlink:href="#DejaVuSans-Bold-6e" x="1271.484375"/>
    </g>
   </g>
  </g>
 </g>
 <defs>
  <clipPath id="pcd69ed1d50">
   <rect x="52.94" y="26.88" width="296.26" height="305.24"/>
  </clipPath>
 </defs>
</svg>
