<?xml version="1.0" encoding="utf-8" standalone="no"?>
<!DOCTYPE svg PUBLIC "-//W3C//DTD SVG 1.1//EN"
  "http://www.w3.org/Graphics/SVG/1.1/DTD/svg11.dtd">
<svg xmlns:xlink="http://www.w3.org/1999/xlink" width="460.8pt" height="345.6pt" viewBox="0 0 460.8 345.6" xmlns="http://www.w3.org/2000/svg" version="1.1">
 <metadata>
  <rdf:RDF xmlns:dc="http://purl.org/dc/elements/1.1/" xmlns:cc="http://creativecommons.org/ns#" xmlns:rdf="http://www.w3.org/1999/02/22-rdf-syntax-ns#">
   <cc:Work>
    <dc:type rdf:resource="http://purl.org/dc/dcmitype/StillImage"/>
    <dc:date>2024-06-21T21:14:32.006680</dc:date>
    <dc:format>image/svg+xml</dc:format>
    <dc:creator>
     <cc:Agent>
      <dc:title>Matplotlib v3.6.0, https://matplotlib.org/</dc:title>
     </cc:Agent>
    </dc:creator>
   </cc:Work>
  </rdf:RDF>
 </metadata>
 <defs>
  <style type="text/css">*{stroke-linejoin: round; stroke-linecap: butt}</style>
 </defs>
 <g id="figure_1">
  <g id="patch_1">
   <path d="M 0 345.6 
L 460.8 345.6 
L 460.8 0 
L 0 0 
z
" style="fill: #ffffff"/>
  </g>
  <g id="axes_1">
   <g id="patch_2">
    <path d="M 57.6 307.584 
L 414.72 307.584 
L 414.72 41.472 
L 57.6 41.472 
z
" style="fill: #ffffff"/>
   </g>
   <g id="PolyCollection_1"/>
   <g id="matplotlib.axis_1">
    <g id="xtick_1">
     <g id="line2d_1">
      <defs>
       <path id="m6d418a244f" d="M 0 0 
L 0 3.5 
" style="stroke: #000000; stroke-width: 0.8"/>
      </defs>
      <g>
       <use xlink:href="#m6d418a244f" x="73.822873" y="307.584" style="stroke: #000000; stroke-width: 0.8"/>
      </g>
     </g>
     <g id="text_1">
      <!-- 0 -->
      <g transform="translate(70.641623 322.182437) scale(0.1 -0.1)">
       <defs>
        <path id="DejaVuSans-30" d="M 2034 4250 
Q 1547 4250 1301 3770 
Q 1056 3291 1056 2328 
Q 1056 1369 1301 889 
Q 1547 409 2034 409 
Q 2525 409 2770 889 
Q 3016 1369 3016 2328 
Q 3016 3291 2770 3770 
Q 2525 4250 2034 4250 
z
M 2034 4750 
Q 2819 4750 3233 4129 
Q 3647 3509 3647 2328 
Q 3647 1150 3233 529 
Q 2819 -91 2034 -91 
Q 1250 -91 836 529 
Q 422 1150 422 2328 
Q 422 3509 836 4129 
Q 1250 4750 2034 4750 
z
" transform="scale(0.015625)"/>
       </defs>
       <use xlink:href="#DejaVuSans-30"/>
      </g>
     </g>
    </g>
    <g id="xtick_2">
     <g id="line2d_2">
      <g>
       <use xlink:href="#m6d418a244f" x="123.096571" y="307.584" style="stroke: #000000; stroke-width: 0.8"/>
      </g>
     </g>
     <g id="text_2">
      <!-- 5000 -->
      <g transform="translate(110.371571 322.182437) scale(0.1 -0.1)">
       <defs>
        <path id="DejaVuSans-35" d="M 691 4666 
L 3169 4666 
L 3169 4134 
L 1269 4134 
L 1269 2991 
Q 1406 3038 1543 3061 
Q 1681 3084 1819 3084 
Q 2600 3084 3056 2656 
Q 3513 2228 3513 1497 
Q 3513 744 3044 326 
Q 2575 -91 1722 -91 
Q 1428 -91 1123 -41 
Q 819 9 494 109 
L 494 744 
Q 775 591 1075 516 
Q 1375 441 1709 441 
Q 2250 441 2565 725 
Q 2881 1009 2881 1497 
Q 2881 1984 2565 2268 
Q 2250 2553 1709 2553 
Q 1456 2553 1204 2497 
Q 953 2441 691 2322 
L 691 4666 
z
" transform="scale(0.015625)"/>
       </defs>
       <use xlink:href="#DejaVuSans-35"/>
       <use xlink:href="#DejaVuSans-30" x="63.623047"/>
       <use xlink:href="#DejaVuSans-30" x="127.246094"/>
       <use xlink:href="#DejaVuSans-30" x="190.869141"/>
      </g>
     </g>
    </g>
    <g id="xtick_3">
     <g id="line2d_3">
      <g>
       <use xlink:href="#m6d418a244f" x="172.37027" y="307.584" style="stroke: #000000; stroke-width: 0.8"/>
      </g>
     </g>
     <g id="text_3">
      <!-- 10000 -->
      <g transform="translate(156.46402 322.182437) scale(0.1 -0.1)">
       <defs>
        <path id="DejaVuSans-31" d="M 794 531 
L 1825 531 
L 1825 4091 
L 703 3866 
L 703 4441 
L 1819 4666 
L 2450 4666 
L 2450 531 
L 3481 531 
L 3481 0 
L 794 0 
L 794 531 
z
" transform="scale(0.015625)"/>
       </defs>
       <use xlink:href="#DejaVuSans-31"/>
       <use xlink:href="#DejaVuSans-30" x="63.623047"/>
       <use xlink:href="#DejaVuSans-30" x="127.246094"/>
       <use xlink:href="#DejaVuSans-30" x="190.869141"/>
       <use xlink:href="#DejaVuSans-30" x="254.492188"/>
      </g>
     </g>
    </g>
    <g id="xtick_4">
     <g id="line2d_4">
      <g>
       <use xlink:href="#m6d418a244f" x="221.643968" y="307.584" style="stroke: #000000; stroke-width: 0.8"/>
      </g>
     </g>
     <g id="text_4">
      <!-- 15000 -->
      <g transform="translate(205.737718 322.182437) scale(0.1 -0.1)">
       <use xlink:href="#DejaVuSans-31"/>
       <use xlink:href="#DejaVuSans-35" x="63.623047"/>
       <use xlink:href="#DejaVuSans-30" x="127.246094"/>
       <use xlink:href="#DejaVuSans-30" x="190.869141"/>
       <use xlink:href="#DejaVuSans-30" x="254.492188"/>
      </g>
     </g>
    </g>
    <g id="xtick_5">
     <g id="line2d_5">
      <g>
       <use xlink:href="#m6d418a244f" x="270.917667" y="307.584" style="stroke: #000000; stroke-width: 0.8"/>
      </g>
     </g>
     <g id="text_5">
      <!-- 20000 -->
      <g transform="translate(255.011417 322.182437) scale(0.1 -0.1)">
       <defs>
        <path id="DejaVuSans-32" d="M 1228 531 
L 3431 531 
L 3431 0 
L 469 0 
L 469 531 
Q 828 903 1448 1529 
Q 2069 2156 2228 2338 
Q 2531 2678 2651 2914 
Q 2772 3150 2772 3378 
Q 2772 3750 2511 3984 
Q 2250 4219 1831 4219 
Q 1534 4219 1204 4116 
Q 875 4013 500 3803 
L 500 4441 
Q 881 4594 1212 4672 
Q 1544 4750 1819 4750 
Q 2544 4750 2975 4387 
Q 3406 4025 3406 3419 
Q 3406 3131 3298 2873 
Q 3191 2616 2906 2266 
Q 2828 2175 2409 1742 
Q 1991 1309 1228 531 
z
" transform="scale(0.015625)"/>
       </defs>
       <use xlink:href="#DejaVuSans-32"/>
       <use xlink:href="#DejaVuSans-30" x="63.623047"/>
       <use xlink:href="#DejaVuSans-30" x="127.246094"/>
       <use xlink:href="#DejaVuSans-30" x="190.869141"/>
       <use xlink:href="#DejaVuSans-30" x="254.492188"/>
      </g>
     </g>
    </g>
    <g id="xtick_6">
     <g id="line2d_6">
      <g>
       <use xlink:href="#m6d418a244f" x="320.191366" y="307.584" style="stroke: #000000; stroke-width: 0.8"/>
      </g>
     </g>
     <g id="text_6">
      <!-- 25000 -->
      <g transform="translate(304.285116 322.182437) scale(0.1 -0.1)">
       <use xlink:href="#DejaVuSans-32"/>
       <use xlink:href="#DejaVuSans-35" x="63.623047"/>
       <use xlink:href="#DejaVuSans-30" x="127.246094"/>
       <use xlink:href="#DejaVuSans-30" x="190.869141"/>
       <use xlink:href="#DejaVuSans-30" x="254.492188"/>
      </g>
     </g>
    </g>
    <g id="xtick_7">
     <g id="line2d_7">
      <g>
       <use xlink:href="#m6d418a244f" x="369.465064" y="307.584" style="stroke: #000000; stroke-width: 0.8"/>
      </g>
     </g>
     <g id="text_7">
      <!-- 30000 -->
      <g transform="translate(353.558814 322.182437) scale(0.1 -0.1)">
       <defs>
        <path id="DejaVuSans-33" d="M 2597 2516 
Q 3050 2419 3304 2112 
Q 3559 1806 3559 1356 
Q 3559 666 3084 287 
Q 2609 -91 1734 -91 
Q 1441 -91 1130 -33 
Q 819 25 488 141 
L 488 750 
Q 750 597 1062 519 
Q 1375 441 1716 441 
Q 2309 441 2620 675 
Q 2931 909 2931 1356 
Q 2931 1769 2642 2001 
Q 2353 2234 1838 2234 
L 1294 2234 
L 1294 2753 
L 1863 2753 
Q 2328 2753 2575 2939 
Q 2822 3125 2822 3475 
Q 2822 3834 2567 4026 
Q 2313 4219 1838 4219 
Q 1578 4219 1281 4162 
Q 984 4106 628 3988 
L 628 4550 
Q 988 4650 1302 4700 
Q 1616 4750 1894 4750 
Q 2613 4750 3031 4423 
Q 3450 4097 3450 3541 
Q 3450 3153 3228 2886 
Q 3006 2619 2597 2516 
z
" transform="scale(0.015625)"/>
       </defs>
       <use xlink:href="#DejaVuSans-33"/>
       <use xlink:href="#DejaVuSans-30" x="63.623047"/>
       <use xlink:href="#DejaVuSans-30" x="127.246094"/>
       <use xlink:href="#DejaVuSans-30" x="190.869141"/>
       <use xlink:href="#DejaVuSans-30" x="254.492188"/>
      </g>
     </g>
    </g>
    <g id="text_8">
     <!-- Nucleotide position -->
     <g transform="translate(187.982656 335.860562) scale(0.1 -0.1)">
      <defs>
       <path id="DejaVuSans-4e" d="M 628 4666 
L 1478 4666 
L 3547 763 
L 3547 4666 
L 4159 4666 
L 4159 0 
L 3309 0 
L 1241 3903 
L 1241 0 
L 628 0 
L 628 4666 
z
" transform="scale(0.015625)"/>
       <path id="DejaVuSans-75" d="M 544 1381 
L 544 3500 
L 1119 3500 
L 1119 1403 
Q 1119 906 1312 657 
Q 1506 409 1894 409 
Q 2359 409 2629 706 
Q 2900 1003 2900 1516 
L 2900 3500 
L 3475 3500 
L 3475 0 
L 2900 0 
L 2900 538 
Q 2691 219 2414 64 
Q 2138 -91 1772 -91 
Q 1169 -91 856 284 
Q 544 659 544 1381 
z
M 1991 3584 
L 1991 3584 
z
" transform="scale(0.015625)"/>
       <path id="DejaVuSans-63" d="M 3122 3366 
L 3122 2828 
Q 2878 2963 2633 3030 
Q 2388 3097 2138 3097 
Q 1578 3097 1268 2742 
Q 959 2388 959 1747 
Q 959 1106 1268 751 
Q 1578 397 2138 397 
Q 2388 397 2633 464 
Q 2878 531 3122 666 
L 3122 134 
Q 2881 22 2623 -34 
Q 2366 -91 2075 -91 
Q 1284 -91 818 406 
Q 353 903 353 1747 
Q 353 2603 823 3093 
Q 1294 3584 2113 3584 
Q 2378 3584 2631 3529 
Q 2884 3475 3122 3366 
z
" transform="scale(0.015625)"/>
       <path id="DejaVuSans-6c" d="M 603 4863 
L 1178 4863 
L 1178 0 
L 603 0 
L 603 4863 
z
" transform="scale(0.015625)"/>
       <path id="DejaVuSans-65" d="M 3597 1894 
L 3597 1613 
L 953 1613 
Q 991 1019 1311 708 
Q 1631 397 2203 397 
Q 2534 397 2845 478 
Q 3156 559 3463 722 
L 3463 178 
Q 3153 47 2828 -22 
Q 2503 -91 2169 -91 
Q 1331 -91 842 396 
Q 353 884 353 1716 
Q 353 2575 817 3079 
Q 1281 3584 2069 3584 
Q 2775 3584 3186 3129 
Q 3597 2675 3597 1894 
z
M 3022 2063 
Q 3016 2534 2758 2815 
Q 2500 3097 2075 3097 
Q 1594 3097 1305 2825 
Q 1016 2553 972 2059 
L 3022 2063 
z
" transform="scale(0.015625)"/>
       <path id="DejaVuSans-6f" d="M 1959 3097 
Q 1497 3097 1228 2736 
Q 959 2375 959 1747 
Q 959 1119 1226 758 
Q 1494 397 1959 397 
Q 2419 397 2687 759 
Q 2956 1122 2956 1747 
Q 2956 2369 2687 2733 
Q 2419 3097 1959 3097 
z
M 1959 3584 
Q 2709 3584 3137 3096 
Q 3566 2609 3566 1747 
Q 3566 888 3137 398 
Q 2709 -91 1959 -91 
Q 1206 -91 779 398 
Q 353 888 353 1747 
Q 353 2609 779 3096 
Q 1206 3584 1959 3584 
z
" transform="scale(0.015625)"/>
       <path id="DejaVuSans-74" d="M 1172 4494 
L 1172 3500 
L 2356 3500 
L 2356 3053 
L 1172 3053 
L 1172 1153 
Q 1172 725 1289 603 
Q 1406 481 1766 481 
L 2356 481 
L 2356 0 
L 1766 0 
Q 1100 0 847 248 
Q 594 497 594 1153 
L 594 3053 
L 172 3053 
L 172 3500 
L 594 3500 
L 594 4494 
L 1172 4494 
z
" transform="scale(0.015625)"/>
       <path id="DejaVuSans-69" d="M 603 3500 
L 1178 3500 
L 1178 0 
L 603 0 
L 603 3500 
z
M 603 4863 
L 1178 4863 
L 1178 4134 
L 603 4134 
L 603 4863 
z
" transform="scale(0.015625)"/>
       <path id="DejaVuSans-64" d="M 2906 2969 
L 2906 4863 
L 3481 4863 
L 3481 0 
L 2906 0 
L 2906 525 
Q 2725 213 2448 61 
Q 2172 -91 1784 -91 
Q 1150 -91 751 415 
Q 353 922 353 1747 
Q 353 2572 751 3078 
Q 1150 3584 1784 3584 
Q 2172 3584 2448 3432 
Q 2725 3281 2906 2969 
z
M 947 1747 
Q 947 1113 1208 752 
Q 1469 391 1925 391 
Q 2381 391 2643 752 
Q 2906 1113 2906 1747 
Q 2906 2381 2643 2742 
Q 2381 3103 1925 3103 
Q 1469 3103 1208 2742 
Q 947 2381 947 1747 
z
" transform="scale(0.015625)"/>
       <path id="DejaVuSans-20" transform="scale(0.015625)"/>
       <path id="DejaVuSans-70" d="M 1159 525 
L 1159 -1331 
L 581 -1331 
L 581 3500 
L 1159 3500 
L 1159 2969 
Q 1341 3281 1617 3432 
Q 1894 3584 2278 3584 
Q 2916 3584 3314 3078 
Q 3713 2572 3713 1747 
Q 3713 922 3314 415 
Q 2916 -91 2278 -91 
Q 1894 -91 1617 61 
Q 1341 213 1159 525 
z
M 3116 1747 
Q 3116 2381 2855 2742 
Q 2594 3103 2138 3103 
Q 1681 3103 1420 2742 
Q 1159 2381 1159 1747 
Q 1159 1113 1420 752 
Q 1681 391 2138 391 
Q 2594 391 2855 752 
Q 3116 1113 3116 1747 
z
" transform="scale(0.015625)"/>
       <path id="DejaVuSans-73" d="M 2834 3397 
L 2834 2853 
Q 2591 2978 2328 3040 
Q 2066 3103 1784 3103 
Q 1356 3103 1142 2972 
Q 928 2841 928 2578 
Q 928 2378 1081 2264 
Q 1234 2150 1697 2047 
L 1894 2003 
Q 2506 1872 2764 1633 
Q 3022 1394 3022 966 
Q 3022 478 2636 193 
Q 2250 -91 1575 -91 
Q 1294 -91 989 -36 
Q 684 19 347 128 
L 347 722 
Q 666 556 975 473 
Q 1284 391 1588 391 
Q 1994 391 2212 530 
Q 2431 669 2431 922 
Q 2431 1156 2273 1281 
Q 2116 1406 1581 1522 
L 1381 1569 
Q 847 1681 609 1914 
Q 372 2147 372 2553 
Q 372 3047 722 3315 
Q 1072 3584 1716 3584 
Q 2034 3584 2315 3537 
Q 2597 3491 2834 3397 
z
" transform="scale(0.015625)"/>
       <path id="DejaVuSans-6e" d="M 3513 2113 
L 3513 0 
L 2938 0 
L 2938 2094 
Q 2938 2591 2744 2837 
Q 2550 3084 2163 3084 
Q 1697 3084 1428 2787 
Q 1159 2491 1159 1978 
L 1159 0 
L 581 0 
L 581 3500 
L 1159 3500 
L 1159 2956 
Q 1366 3272 1645 3428 
Q 1925 3584 2291 3584 
Q 2894 3584 3203 3211 
Q 3513 2838 3513 2113 
z
" transform="scale(0.015625)"/>
      </defs>
      <use xlink:href="#DejaVuSans-4e"/>
      <use xlink:href="#DejaVuSans-75" x="74.804688"/>
      <use xlink:href="#DejaVuSans-63" x="138.183594"/>
      <use xlink:href="#DejaVuSans-6c" x="193.164062"/>
      <use xlink:href="#DejaVuSans-65" x="220.947266"/>
      <use xlink:href="#DejaVuSans-6f" x="282.470703"/>
      <use xlink:href="#DejaVuSans-74" x="343.652344"/>
      <use xlink:href="#DejaVuSans-69" x="382.861328"/>
      <use xlink:href="#DejaVuSans-64" x="410.644531"/>
      <use xlink:href="#DejaVuSans-65" x="474.121094"/>
      <use xlink:href="#DejaVuSans-20" x="535.644531"/>
      <use xlink:href="#DejaVuSans-70" x="567.431641"/>
      <use xlink:href="#DejaVuSans-6f" x="630.908203"/>
      <use xlink:href="#DejaVuSans-73" x="692.089844"/>
      <use xlink:href="#DejaVuSans-69" x="744.189453"/>
      <use xlink:href="#DejaVuSans-74" x="771.972656"/>
      <use xlink:href="#DejaVuSans-69" x="811.181641"/>
      <use xlink:href="#DejaVuSans-6f" x="838.964844"/>
      <use xlink:href="#DejaVuSans-6e" x="900.146484"/>
     </g>
    </g>
   </g>
   <g id="matplotlib.axis_2">
    <g id="ytick_1">
     <g id="line2d_8">
      <defs>
       <path id="m92d3c9a314" d="M 0 0 
L -3.5 0 
" style="stroke: #000000; stroke-width: 0.8"/>
      </defs>
      <g>
       <use xlink:href="#m92d3c9a314" x="57.6" y="295.488" style="stroke: #000000; stroke-width: 0.8"/>
      </g>
     </g>
     <g id="text_9">
      <!-- 0 -->
      <g transform="translate(44.2375 299.287219) scale(0.1 -0.1)">
       <use xlink:href="#DejaVuSans-30"/>
      </g>
     </g>
    </g>
    <g id="ytick_2">
     <g id="line2d_9">
      <g>
       <use xlink:href="#m92d3c9a314" x="57.6" y="237.074382" style="stroke: #000000; stroke-width: 0.8"/>
      </g>
     </g>
     <g id="text_10">
      <!-- 2000 -->
      <g transform="translate(25.15 240.8736) scale(0.1 -0.1)">
       <use xlink:href="#DejaVuSans-32"/>
       <use xlink:href="#DejaVuSans-30" x="63.623047"/>
       <use xlink:href="#DejaVuSans-30" x="127.246094"/>
       <use xlink:href="#DejaVuSans-30" x="190.869141"/>
      </g>
     </g>
    </g>
    <g id="ytick_3">
     <g id="line2d_10">
      <g>
       <use xlink:href="#m92d3c9a314" x="57.6" y="178.660763" style="stroke: #000000; stroke-width: 0.8"/>
      </g>
     </g>
     <g id="text_11">
      <!-- 4000 -->
      <g transform="translate(25.15 182.459982) scale(0.1 -0.1)">
       <defs>
        <path id="DejaVuSans-34" d="M 2419 4116 
L 825 1625 
L 2419 1625 
L 2419 4116 
z
M 2253 4666 
L 3047 4666 
L 3047 1625 
L 3713 1625 
L 3713 1100 
L 3047 1100 
L 3047 0 
L 2419 0 
L 2419 1100 
L 313 1100 
L 313 1709 
L 2253 4666 
z
" transform="scale(0.015625)"/>
       </defs>
       <use xlink:href="#DejaVuSans-34"/>
       <use xlink:href="#DejaVuSans-30" x="63.623047"/>
       <use xlink:href="#DejaVuSans-30" x="127.246094"/>
       <use xlink:href="#DejaVuSans-30" x="190.869141"/>
      </g>
     </g>
    </g>
    <g id="ytick_4">
     <g id="line2d_11">
      <g>
       <use xlink:href="#m92d3c9a314" x="57.6" y="120.247145" style="stroke: #000000; stroke-width: 0.8"/>
      </g>
     </g>
     <g id="text_12">
      <!-- 6000 -->
      <g transform="translate(25.15 124.046364) scale(0.1 -0.1)">
       <defs>
        <path id="DejaVuSans-36" d="M 2113 2584 
Q 1688 2584 1439 2293 
Q 1191 2003 1191 1497 
Q 1191 994 1439 701 
Q 1688 409 2113 409 
Q 2538 409 2786 701 
Q 3034 994 3034 1497 
Q 3034 2003 2786 2293 
Q 2538 2584 2113 2584 
z
M 3366 4563 
L 3366 3988 
Q 3128 4100 2886 4159 
Q 2644 4219 2406 4219 
Q 1781 4219 1451 3797 
Q 1122 3375 1075 2522 
Q 1259 2794 1537 2939 
Q 1816 3084 2150 3084 
Q 2853 3084 3261 2657 
Q 3669 2231 3669 1497 
Q 3669 778 3244 343 
Q 2819 -91 2113 -91 
Q 1303 -91 875 529 
Q 447 1150 447 2328 
Q 447 3434 972 4092 
Q 1497 4750 2381 4750 
Q 2619 4750 2861 4703 
Q 3103 4656 3366 4563 
z
" transform="scale(0.015625)"/>
       </defs>
       <use xlink:href="#DejaVuSans-36"/>
       <use xlink:href="#DejaVuSans-30" x="63.623047"/>
       <use xlink:href="#DejaVuSans-30" x="127.246094"/>
       <use xlink:href="#DejaVuSans-30" x="190.869141"/>
      </g>
     </g>
    </g>
    <g id="ytick_5">
     <g id="line2d_12">
      <g>
       <use xlink:href="#m92d3c9a314" x="57.6" y="61.833527" style="stroke: #000000; stroke-width: 0.8"/>
      </g>
     </g>
     <g id="text_13">
      <!-- 8000 -->
      <g transform="translate(25.15 65.632746) scale(0.1 -0.1)">
       <defs>
        <path id="DejaVuSans-38" d="M 2034 2216 
Q 1584 2216 1326 1975 
Q 1069 1734 1069 1313 
Q 1069 891 1326 650 
Q 1584 409 2034 409 
Q 2484 409 2743 651 
Q 3003 894 3003 1313 
Q 3003 1734 2745 1975 
Q 2488 2216 2034 2216 
z
M 1403 2484 
Q 997 2584 770 2862 
Q 544 3141 544 3541 
Q 544 4100 942 4425 
Q 1341 4750 2034 4750 
Q 2731 4750 3128 4425 
Q 3525 4100 3525 3541 
Q 3525 3141 3298 2862 
Q 3072 2584 2669 2484 
Q 3125 2378 3379 2068 
Q 3634 1759 3634 1313 
Q 3634 634 3220 271 
Q 2806 -91 2034 -91 
Q 1263 -91 848 271 
Q 434 634 434 1313 
Q 434 1759 690 2068 
Q 947 2378 1403 2484 
z
M 1172 3481 
Q 1172 3119 1398 2916 
Q 1625 2713 2034 2713 
Q 2441 2713 2670 2916 
Q 2900 3119 2900 3481 
Q 2900 3844 2670 4047 
Q 2441 4250 2034 4250 
Q 1625 4250 1398 4047 
Q 1172 3844 1172 3481 
z
" transform="scale(0.015625)"/>
       </defs>
       <use xlink:href="#DejaVuSans-38"/>
       <use xlink:href="#DejaVuSans-30" x="63.623047"/>
       <use xlink:href="#DejaVuSans-30" x="127.246094"/>
       <use xlink:href="#DejaVuSans-30" x="190.869141"/>
      </g>
     </g>
    </g>
    <g id="text_14">
     <!-- Coverage -->
     <g transform="translate(19.070312 198.485031) rotate(-90) scale(0.1 -0.1)">
      <defs>
       <path id="DejaVuSans-43" d="M 4122 4306 
L 4122 3641 
Q 3803 3938 3442 4084 
Q 3081 4231 2675 4231 
Q 1875 4231 1450 3742 
Q 1025 3253 1025 2328 
Q 1025 1406 1450 917 
Q 1875 428 2675 428 
Q 3081 428 3442 575 
Q 3803 722 4122 1019 
L 4122 359 
Q 3791 134 3420 21 
Q 3050 -91 2638 -91 
Q 1578 -91 968 557 
Q 359 1206 359 2328 
Q 359 3453 968 4101 
Q 1578 4750 2638 4750 
Q 3056 4750 3426 4639 
Q 3797 4528 4122 4306 
z
" transform="scale(0.015625)"/>
       <path id="DejaVuSans-76" d="M 191 3500 
L 800 3500 
L 1894 563 
L 2988 3500 
L 3597 3500 
L 2284 0 
L 1503 0 
L 191 3500 
z
" transform="scale(0.015625)"/>
       <path id="DejaVuSans-72" d="M 2631 2963 
Q 2534 3019 2420 3045 
Q 2306 3072 2169 3072 
Q 1681 3072 1420 2755 
Q 1159 2438 1159 1844 
L 1159 0 
L 581 0 
L 581 3500 
L 1159 3500 
L 1159 2956 
Q 1341 3275 1631 3429 
Q 1922 3584 2338 3584 
Q 2397 3584 2469 3576 
Q 2541 3569 2628 3553 
L 2631 2963 
z
" transform="scale(0.015625)"/>
       <path id="DejaVuSans-61" d="M 2194 1759 
Q 1497 1759 1228 1600 
Q 959 1441 959 1056 
Q 959 750 1161 570 
Q 1363 391 1709 391 
Q 2188 391 2477 730 
Q 2766 1069 2766 1631 
L 2766 1759 
L 2194 1759 
z
M 3341 1997 
L 3341 0 
L 2766 0 
L 2766 531 
Q 2569 213 2275 61 
Q 1981 -91 1556 -91 
Q 1019 -91 701 211 
Q 384 513 384 1019 
Q 384 1609 779 1909 
Q 1175 2209 1959 2209 
L 2766 2209 
L 2766 2266 
Q 2766 2663 2505 2880 
Q 2244 3097 1772 3097 
Q 1472 3097 1187 3025 
Q 903 2953 641 2809 
L 641 3341 
Q 956 3463 1253 3523 
Q 1550 3584 1831 3584 
Q 2591 3584 2966 3190 
Q 3341 2797 3341 1997 
z
" transform="scale(0.015625)"/>
       <path id="DejaVuSans-67" d="M 2906 1791 
Q 2906 2416 2648 2759 
Q 2391 3103 1925 3103 
Q 1463 3103 1205 2759 
Q 947 2416 947 1791 
Q 947 1169 1205 825 
Q 1463 481 1925 481 
Q 2391 481 2648 825 
Q 2906 1169 2906 1791 
z
M 3481 434 
Q 3481 -459 3084 -895 
Q 2688 -1331 1869 -1331 
Q 1566 -1331 1297 -1286 
Q 1028 -1241 775 -1147 
L 775 -588 
Q 1028 -725 1275 -790 
Q 1522 -856 1778 -856 
Q 2344 -856 2625 -561 
Q 2906 -266 2906 331 
L 2906 616 
Q 2728 306 2450 153 
Q 2172 0 1784 0 
Q 1141 0 747 490 
Q 353 981 353 1791 
Q 353 2603 747 3093 
Q 1141 3584 1784 3584 
Q 2172 3584 2450 3431 
Q 2728 3278 2906 2969 
L 2906 3500 
L 3481 3500 
L 3481 434 
z
" transform="scale(0.015625)"/>
      </defs>
      <use xlink:href="#DejaVuSans-43"/>
      <use xlink:href="#DejaVuSans-6f" x="69.824219"/>
      <use xlink:href="#DejaVuSans-76" x="131.005859"/>
      <use xlink:href="#DejaVuSans-65" x="190.185547"/>
      <use xlink:href="#DejaVuSans-72" x="251.708984"/>
      <use xlink:href="#DejaVuSans-61" x="292.822266"/>
      <use xlink:href="#DejaVuSans-67" x="354.101562"/>
      <use xlink:href="#DejaVuSans-65" x="417.578125"/>
     </g>
    </g>
   </g>
   <g id="line2d_13">
    <path d="M 73.832727 295.488 
L 76.079608 295.429586 
L 76.158446 294.962277 
L 76.178155 295.166725 
L 76.197865 291.895562 
L 76.286557 295.429586 
L 77.942154 295.341966 
L 77.952008 295.312759 
L 77.991427 295.488 
L 78.001282 295.488 
L 78.129394 295.429586 
L 78.188522 295.371173 
L 78.208232 295.488 
L 78.227941 295.488 
L 80.17918 295.458793 
L 80.208744 295.079105 
L 80.258018 295.488 
L 80.287582 295.488 
L 84.69265 295.40038 
L 84.71236 295.371173 
L 84.732069 295.488 
L 84.771488 295.488 
L 87.077497 295.488 
L 87.116916 291.223806 
L 87.1859 295.488 
L 90.506947 295.458793 
L 90.556221 295.079105 
L 90.57593 295.488 
L 90.615349 295.488 
L 90.78288 295.488 
L 90.861718 294.641003 
L 90.891282 295.341966 
L 91.009539 295.488 
L 91.058812 295.371173 
L 91.117941 295.488 
L 91.945739 295.488 
L 91.995013 295.225139 
L 92.054141 295.488 
L 96.193132 295.458793 
L 96.212841 293.268283 
L 96.301534 295.458793 
L 96.419791 295.488 
L 102.667696 295.429586 
L 102.707115 295.341966 
L 102.726824 295.488 
L 102.766243 295.488 
L 117.321694 295.488 
L 117.361113 295.283552 
L 117.430096 295.488 
L 121.312863 295.458793 
L 121.362137 295.371173 
L 121.371992 295.488 
L 121.421265 295.488 
L 121.785891 295.488 
L 121.835164 295.312759 
L 121.894293 295.488 
L 131.955982 295.488 
L 132.005256 295.371173 
L 132.064384 295.488 
L 133.808673 295.458793 
L 133.828383 295.283552 
L 133.877656 295.488 
L 133.917075 295.488 
L 134.518214 295.488 
L 134.567488 295.341966 
L 134.626617 295.488 
L 138.194032 295.488 
L 138.243306 295.166725 
L 138.302435 295.458793 
L 146.600125 295.488 
L 146.649399 295.254346 
L 146.708528 295.488 
L 148.285286 295.488 
L 148.324705 295.371173 
L 148.393688 295.488 
L 149.113084 295.488 
L 149.142648 295.166725 
L 149.221486 295.488 
L 149.477709 295.488 
L 149.507274 295.371173 
L 149.586112 295.488 
L 151.655607 295.488 
L 151.714735 295.108311 
L 151.764009 295.488 
L 156.011402 295.488 
L 156.031111 293.589557 
L 156.09024 293.122248 
L 156.208497 295.488 
L 160.672694 295.40038 
L 160.692403 295.371173 
L 160.712113 295.488 
L 160.751532 295.488 
L 161.037319 295.458793 
L 161.086593 295.341966 
L 161.096448 295.488 
L 161.145721 295.458793 
L 161.470928 295.40038 
L 161.490637 295.341966 
L 161.549766 295.488 
L 161.55962 295.488 
L 163.82621 295.40038 
L 163.836065 295.371173 
L 163.875484 295.488 
L 163.905048 295.488 
L 164.171126 295.488 
L 164.2204 295.312759 
L 164.279528 295.488 
L 166.240622 295.458793 
L 166.289895 295.254346 
L 166.29975 295.488 
L 166.349024 295.488 
L 170.005132 295.40038 
L 170.113534 295.254346 
L 170.054406 295.488 
L 170.123389 295.371173 
L 170.172663 295.429586 
L 170.29092 295.488 
L 170.970897 295.429586 
L 171.010316 295.312759 
L 171.059589 295.488 
L 171.069444 295.488 
L 174.991631 295.488 
L 175.040904 295.371173 
L 175.100033 295.488 
L 178.874398 295.488 
L 178.933526 295.225139 
L 178.9828 295.488 
L 179.465682 295.458793 
L 179.514956 295.254346 
L 179.524811 295.488 
L 179.574085 295.488 
L 182.422104 295.429586 
L 182.510797 295.371173 
L 182.520652 295.488 
L 183.713075 295.458793 
L 183.732785 295.079105 
L 183.811623 295.488 
L 183.821477 295.488 
L 185.368671 295.488 
L 185.467219 295.341966 
L 185.477074 295.488 
L 189.00507 295.488 
L 189.064199 295.225139 
L 189.113473 295.488 
L 190.108801 295.40038 
L 190.128511 295.341966 
L 190.138365 295.488 
L 190.207349 295.458793 
L 191.961492 295.488 
L 192.079749 295.341966 
L 192.089604 295.341966 
L 192.168442 295.488 
L 192.198006 295.429586 
L 199.667899 295.458793 
L 199.727027 294.816243 
L 199.776301 295.371173 
L 199.805865 295.371173 
L 199.924122 295.488 
L 203.20575 295.488 
L 203.22546 295.371173 
L 203.314153 295.488 
L 203.324007 295.488 
L 203.373281 295.254346 
L 203.432409 295.488 
L 204.585414 295.488 
L 204.634688 295.283552 
L 204.693816 295.488 
L 207.798059 295.488 
L 207.827623 295.341966 
L 207.906461 295.488 
L 218.214519 295.40038 
L 218.244083 295.371173 
L 218.283502 295.458793 
L 218.293357 295.458793 
L 218.411614 295.488 
L 226.482646 295.488 
L 226.581193 295.108311 
L 226.591048 295.488 
L 228.581705 295.429586 
L 228.621124 295.341966 
L 228.640834 295.488 
L 228.680253 295.488 
L 229.301101 295.458793 
L 229.330665 295.283552 
L 229.370084 295.488 
L 229.409503 295.488 
L 230.759603 295.488 
L 230.85815 294.991484 
L 230.868005 295.488 
L 231.508563 295.429586 
L 231.547982 295.341966 
L 231.557837 295.458793 
L 231.60711 295.458793 
L 232.257523 295.488 
L 232.326506 295.312759 
L 232.365925 295.458793 
L 232.464473 295.488 
L 232.474327 295.458793 
L 236.820268 295.458793 
L 236.869541 295.341966 
L 236.879396 295.488 
L 236.92867 295.488 
L 239.924511 295.488 
L 239.973784 295.341966 
L 240.032913 295.488 
L 242.880932 295.458793 
L 242.949916 292.888594 
L 242.969625 295.488 
L 242.989335 295.488 
L 245.551567 295.488 
L 245.62055 292.74256 
L 245.659969 295.488 
L 252.824365 295.458793 
L 252.893348 293.005421 
L 252.932767 295.429586 
L 253.060879 295.488 
L 253.445213 295.40038 
L 253.484632 295.341966 
L 253.494487 295.488 
L 253.533906 295.488 
L 254.223738 295.488 
L 254.292721 295.312759 
L 254.33214 295.429586 
L 254.460252 295.488 
L 254.696765 295.458793 
L 254.746039 295.225139 
L 254.805168 295.488 
L 254.903715 295.40038 
L 254.943134 295.371173 
L 254.982553 295.488 
L 255.228921 295.488 
L 255.248631 295.020691 
L 255.337324 295.488 
L 259.781811 295.40038 
L 259.850794 295.108311 
L 259.880359 295.195932 
L 259.998615 295.488 
L 260.77714 295.488 
L 260.816559 295.371173 
L 260.885542 295.488 
L 261.762614 295.40038 
L 261.802033 295.371173 
L 261.811888 295.488 
L 261.841452 295.488 
L 262.698814 295.488 
L 262.738233 295.341966 
L 262.807216 295.458793 
L 264.265718 295.429586 
L 264.305137 295.341966 
L 264.324846 295.488 
L 264.364265 295.488 
L 264.482522 295.40038 
L 264.521941 283.746863 
L 264.590924 295.40038 
L 264.709181 295.488 
L 266.404196 295.488 
L 266.522453 284.155758 
L 266.729403 280.767768 
L 267.094028 280.855389 
L 267.133447 280.943009 
L 267.153156 280.913802 
L 267.271413 292.947008 
L 267.310832 294.84545 
L 267.429089 294.494968 
L 267.438944 294.494968 
L 267.57691 264.149094 
L 267.655748 264.119887 
L 267.675458 263.973853 
L 267.78386 260.176968 
L 267.793715 260.206175 
L 267.990809 259.213143 
L 268.000664 259.32997 
L 268.040083 255.007363 
L 268.118921 255.270224 
L 268.13863 255.270224 
L 268.168195 255.094983 
L 268.286451 255.94198 
L 268.306161 255.94198 
L 268.316016 256.380083 
L 268.404708 255.503878 
L 268.424418 255.620706 
L 268.483546 253.342574 
L 268.522965 253.517815 
L 268.601803 223.405595 
L 268.641222 223.785284 
L 268.700351 223.142734 
L 268.73977 223.610043 
L 268.769334 224.661488 
L 268.838317 223.756077 
L 268.917155 223.259561 
L 268.92701 223.785284 
L 268.966429 252.904472 
L 269.064976 252.612404 
L 269.143814 247.822488 
L 269.183233 250.4511 
L 269.271925 234.913078 
L 269.340909 53.568 
L 269.390182 53.947689 
L 269.567568 58.649985 
L 269.587277 58.591571 
L 269.646406 56.95599 
L 269.705534 57.160438 
L 269.725243 57.248058 
L 269.774517 57.452506 
L 269.951903 90.777475 
L 270.070159 295.488 
L 270.395366 295.488 
L 270.434785 295.108311 
L 270.503768 295.488 
L 270.513623 295.488 
L 270.562896 295.312759 
L 270.622025 295.488 
L 271.824303 295.488 
L 271.883431 295.020691 
L 271.932705 295.488 
L 273.371497 295.40038 
L 273.391207 295.312759 
L 273.470045 295.488 
L 273.883944 295.488 
L 273.923363 295.254346 
L 273.992346 295.488 
L 274.504792 295.488 
L 274.58363 295.166725 
L 274.623049 295.254346 
L 274.632904 295.254346 
L 274.751161 295.488 
L 274.79058 295.429586 
L 274.859563 295.488 
L 276.436321 295.40038 
L 276.456031 295.371173 
L 276.485595 295.40038 
L 276.49545 285.499271 
L 276.593997 295.488 
L 276.860075 295.429586 
L 276.899494 295.341966 
L 276.909349 295.458793 
L 276.968477 295.40038 
L 277.086734 295.488 
L 277.155717 295.488 
L 277.195136 295.341966 
L 277.264119 295.488 
L 277.904677 295.40038 
L 277.934242 295.341966 
L 277.963806 295.488 
L 277.983515 295.488 
L 279.185794 295.40038 
L 279.235067 295.225139 
L 279.244922 295.488 
L 279.284341 295.488 
L 279.579983 295.488 
L 279.629257 295.312759 
L 279.688385 295.488 
L 280.664005 295.488 
L 280.723133 294.991484 
L 280.772407 295.458793 
L 280.999066 295.458793 
L 281.068049 295.225139 
L 281.077904 295.488 
L 281.107468 295.488 
L 281.481948 295.429586 
L 281.511512 295.283552 
L 281.550931 295.488 
L 281.580495 295.488 
L 282.595534 295.458793 
L 282.605388 295.341966 
L 282.674371 293.151455 
L 282.684226 295.488 
L 282.71379 295.488 
L 283.975197 295.488 
L 284.024471 295.283552 
L 284.083599 295.458793 
L 285.601229 295.458793 
L 285.670212 292.684146 
L 285.680067 295.488 
L 285.709631 295.488 
L 286.300916 295.488 
L 286.350189 295.137518 
L 286.409318 295.488 
L 289.168645 295.40038 
L 289.227773 295.108311 
L 289.237628 295.488 
L 289.267192 295.488 
L 289.415013 295.429586 
L 289.434723 291.311426 
L 289.513561 295.458793 
L 289.523416 295.458793 
L 294.125579 295.429586 
L 294.164998 295.341966 
L 294.174853 295.488 
L 294.224126 295.488 
L 294.697154 295.40038 
L 294.736573 295.341966 
L 294.775992 295.488 
L 294.795701 295.458793 
L 294.844975 295.254346 
L 294.894249 295.488 
L 294.904103 295.488 
L 295.524952 295.488 
L 295.564371 295.371173 
L 295.633354 295.488 
L 295.771321 295.488 
L 295.820594 291.486667 
L 295.879723 295.488 
L 297.229822 295.488 
L 297.279096 295.137518 
L 297.338224 295.458793 
L 298.865709 295.40038 
L 298.924837 295.488 
L 298.99382 295.079105 
L 299.112077 295.488 
L 300.284791 295.488 
L 300.334065 295.254346 
L 300.393194 295.488 
L 300.432612 295.40038 
L 300.501596 295.488 
L 308.444516 295.488 
L 308.49379 295.341966 
L 308.552918 295.488 
L 310.454883 295.40038 
L 310.504156 295.254346 
L 310.514011 295.488 
L 310.55343 295.488 
L 310.967329 295.40038 
L 311.006748 295.312759 
L 311.016603 295.488 
L 311.046167 295.488 
L 312.406121 295.488 
L 312.475104 295.283552 
L 312.514523 295.458793 
L 312.63278 295.488 
L 315.894699 295.488 
L 315.953828 295.049898 
L 316.003101 295.488 
L 316.338162 295.488 
L 316.397291 294.962277 
L 316.446565 295.488 
L 316.702788 295.40038 
L 316.761916 295.049898 
L 316.781626 295.488 
L 316.801335 295.488 
L 317.264508 295.40038 
L 317.284217 295.341966 
L 317.313782 295.488 
L 317.353201 295.488 
L 318.013468 295.458793 
L 318.033178 295.341966 
L 318.102161 295.488 
L 318.12187 295.488 
L 318.989087 295.488 
L 319.008797 295.341966 
L 319.09749 295.488 
L 319.205892 295.458793 
L 319.324149 295.488 
L 319.777467 295.488 
L 319.84645 295.371173 
L 319.885869 295.488 
L 319.954852 295.458793 
L 319.994271 295.488 
L 322.517084 295.488 
L 322.556503 295.371173 
L 322.625486 295.488 
L 324.359921 295.40038 
L 324.399339 295.283552 
L 324.438758 295.488 
L 324.448613 295.488 
L 325.926824 295.429586 
L 325.956388 295.341966 
L 326.025372 293.326696 
L 326.035226 295.488 
L 326.06479 295.488 
L 329.060631 295.40038 
L 329.109905 295.371173 
L 329.11976 295.488 
L 329.139469 295.488 
L 329.592787 295.40038 
L 329.622352 295.225139 
L 329.651916 295.458793 
L 329.701189 295.312759 
L 329.86872 295.488 
L 330.558552 295.40038 
L 330.578261 295.371173 
L 330.61768 295.488 
L 330.63739 295.488 
L 332.292986 295.488 
L 332.32255 295.341966 
L 332.401388 295.488 
L 332.874416 295.488 
L 332.953254 295.312759 
L 332.982818 295.488 
L 333.002527 295.458793 
L 333.041946 293.501937 
L 333.110929 295.458793 
L 334.98333 295.458793 
L 335.042458 293.005421 
L 335.091732 295.458793 
L 335.209989 295.488 
L 338.038299 295.40038 
L 338.097428 295.137518 
L 338.107282 295.488 
L 338.136847 295.488 
L 342.965669 295.429586 
L 342.985379 295.283552 
L 343.024798 295.458793 
L 343.074071 295.458793 
L 344.434025 295.458793 
L 344.503009 291.428254 
L 344.542427 295.40038 
L 345.015455 295.429586 
L 345.064729 295.049898 
L 345.123857 295.458793 
L 345.242114 295.488 
L 347.242626 295.488 
L 347.341174 295.195932 
L 347.351028 295.488 
L 347.833911 295.40038 
L 347.87333 295.312759 
L 347.883184 295.488 
L 347.912748 295.488 
L 348.553307 295.458793 
L 348.592726 295.371173 
L 348.661709 295.458793 
L 348.720837 295.488 
L 348.730692 295.429586 
L 348.760256 295.429586 
L 348.80953 295.40038 
L 348.839094 295.488 
L 348.848949 295.488 
L 349.440233 295.40038 
L 349.469797 295.371173 
L 349.499362 295.488 
L 349.519071 295.488 
L 353.145615 295.458793 
L 353.175179 295.312759 
L 353.254017 295.488 
L 354.919468 295.488 
L 354.949033 295.020691 
L 354.968742 291.194599 
L 355.04758 295.458793 
L 355.057435 295.458793 
L 355.599445 295.488 
L 355.658574 294.787037 
L 355.707848 295.488 
L 355.855669 295.488 
L 355.954216 295.283552 
L 355.964071 295.488 
L 356.841143 295.488 
L 356.890416 295.195932 
L 356.949545 295.488 
L 357.402863 295.429586 
L 357.452137 295.283552 
L 357.461991 295.488 
L 357.50141 295.488 
L 358.743107 295.488 
L 358.782526 295.371173 
L 358.85151 295.488 
L 359.107733 295.488 
L 359.157006 295.166725 
L 359.216135 295.458793 
L 360.871731 295.371173 
L 360.881586 295.341966 
L 360.940714 295.458793 
L 361.058971 295.488 
L 361.453161 295.40038 
L 361.49258 295.283552 
L 361.531999 295.488 
L 361.541854 295.488 
L 362.596311 295.488 
L 362.645584 295.312759 
L 362.704713 295.458793 
L 362.82297 295.488 
L 363.404399 295.488 
L 363.453673 295.312759 
L 363.512801 295.488 
L 363.749315 295.488 
L 363.798589 295.312759 
L 363.857717 295.458793 
L 367.297022 295.488 
L 367.326586 295.283552 
L 367.405424 295.488 
L 370.273153 295.458793 
L 370.312572 295.225139 
L 370.342136 295.488 
L 370.381555 295.488 
L 370.696907 295.488 
L 370.74618 295.312759 
L 370.805309 295.488 
L 372.155408 295.488 
L 372.194827 295.254346 
L 372.26381 295.488 
L 376.136723 295.40038 
L 376.185997 295.195932 
L 376.205706 295.488 
L 376.23527 295.488 
L 376.580186 295.458793 
L 376.62946 295.195932 
L 376.668879 295.488 
L 376.688588 295.488 
L 380.256004 295.429586 
L 380.295423 295.225139 
L 380.354552 295.40038 
L 380.472809 295.488 
L 381.645523 295.458793 
L 381.684941 295.254346 
L 381.734215 295.488 
L 381.753925 295.458793 
L 381.921455 295.429586 
L 381.970729 288.741227 
L 382.000293 295.458793 
L 382.029857 295.458793 
L 382.039712 295.488 
L 382.049567 295.458793 
L 382.108695 294.933071 
L 382.11855 295.488 
L 382.157969 295.488 
L 385.754949 295.488 
L 385.794368 295.341966 
L 385.863351 295.488 
L 386.523619 295.488 
L 386.563038 295.079105 
L 386.632021 295.458793 
L 390.366967 295.458793 
L 390.386677 295.254346 
L 390.426096 295.488 
L 390.475369 295.488 
L 391.41157 295.488 
L 391.500262 295.254346 
L 391.519972 295.429586 
L 391.746631 295.488 
L 391.795904 295.225139 
L 391.855033 295.488 
L 392.682831 295.429586 
L 392.751814 295.341966 
L 392.761669 295.488 
L 392.781378 295.488 
L 394.712907 295.488 
L 394.811455 294.991484 
L 394.82131 295.488 
L 398.083228 295.488 
L 398.142357 294.787037 
L 398.191631 295.488 
L 398.487273 295.488 
L 398.487273 295.488 
" clip-path="url(#pc414418658)" style="fill: none; stroke: #1f77b4; stroke-width: 1.5; stroke-linecap: square"/>
   </g>
   <g id="line2d_14">
    <path d="M 266.414051 307.584 
L 266.414051 41.472 
" clip-path="url(#pc414418658)" style="fill: none; stroke-dasharray: 5.55,2.4; stroke-dashoffset: 0; stroke: #ff0000; stroke-width: 1.5"/>
   </g>
   <g id="line2d_15">
    <path d="M 269.912484 307.584 
L 269.912484 41.472 
" clip-path="url(#pc414418658)" style="fill: none; stroke-dasharray: 5.55,2.4; stroke-dashoffset: 0; stroke: #ff0000; stroke-width: 1.5"/>
   </g>
   <g id="patch_3">
    <path d="M 57.6 307.584 
L 57.6 41.472 
" style="fill: none; stroke: #000000; stroke-width: 0.8; stroke-linejoin: miter; stroke-linecap: square"/>
   </g>
   <g id="patch_4">
    <path d="M 414.72 307.584 
L 414.72 41.472 
" style="fill: none; stroke: #000000; stroke-width: 0.8; stroke-linejoin: miter; stroke-linecap: square"/>
   </g>
   <g id="patch_5">
    <path d="M 57.6 307.584 
L 414.72 307.584 
" style="fill: none; stroke: #000000; stroke-width: 0.8; stroke-linejoin: miter; stroke-linecap: square"/>
   </g>
   <g id="patch_6">
    <path d="M 57.6 41.472 
L 414.72 41.472 
" style="fill: none; stroke: #000000; stroke-width: 0.8; stroke-linejoin: miter; stroke-linecap: square"/>
   </g>
   <g id="text_15">
    <!-- Caudorviricetes sp. isolate ctJ1L4 -->
    <g transform="translate(136.21875 22.034625) scale(0.12 -0.12)">
     <defs>
      <path id="DejaVuSans-2e" d="M 684 794 
L 1344 794 
L 1344 0 
L 684 0 
L 684 794 
z
" transform="scale(0.015625)"/>
      <path id="DejaVuSans-4a" d="M 628 4666 
L 1259 4666 
L 1259 325 
Q 1259 -519 939 -900 
Q 619 -1281 -91 -1281 
L -331 -1281 
L -331 -750 
L -134 -750 
Q 284 -750 456 -515 
Q 628 -281 628 325 
L 628 4666 
z
" transform="scale(0.015625)"/>
      <path id="DejaVuSans-4c" d="M 628 4666 
L 1259 4666 
L 1259 531 
L 3531 531 
L 3531 0 
L 628 0 
L 628 4666 
z
" transform="scale(0.015625)"/>
     </defs>
     <use xlink:href="#DejaVuSans-43"/>
     <use xlink:href="#DejaVuSans-61" x="69.824219"/>
     <use xlink:href="#DejaVuSans-75" x="131.103516"/>
     <use xlink:href="#DejaVuSans-64" x="194.482422"/>
     <use xlink:href="#DejaVuSans-6f" x="257.958984"/>
     <use xlink:href="#DejaVuSans-72" x="319.140625"/>
     <use xlink:href="#DejaVuSans-76" x="360.253906"/>
     <use xlink:href="#DejaVuSans-69" x="419.433594"/>
     <use xlink:href="#DejaVuSans-72" x="447.216797"/>
     <use xlink:href="#DejaVuSans-69" x="488.330078"/>
     <use xlink:href="#DejaVuSans-63" x="516.113281"/>
     <use xlink:href="#DejaVuSans-65" x="571.09375"/>
     <use xlink:href="#DejaVuSans-74" x="632.617188"/>
     <use xlink:href="#DejaVuSans-65" x="671.826172"/>
     <use xlink:href="#DejaVuSans-73" x="733.349609"/>
     <use xlink:href="#DejaVuSans-20" x="785.449219"/>
     <use xlink:href="#DejaVuSans-73" x="817.236328"/>
     <use xlink:href="#DejaVuSans-70" x="869.335938"/>
     <use xlink:href="#DejaVuSans-2e" x="932.8125"/>
     <use xlink:href="#DejaVuSans-20" x="964.599609"/>
     <use xlink:href="#DejaVuSans-69" x="996.386719"/>
     <use xlink:href="#DejaVuSans-73" x="1024.169922"/>
     <use xlink:href="#DejaVuSans-6f" x="1076.269531"/>
     <use xlink:href="#DejaVuSans-6c" x="1137.451172"/>
     <use xlink:href="#DejaVuSans-61" x="1165.234375"/>
     <use xlink:href="#DejaVuSans-74" x="1226.513672"/>
     <use xlink:href="#DejaVuSans-65" x="1265.722656"/>
     <use xlink:href="#DejaVuSans-20" x="1327.246094"/>
     <use xlink:href="#DejaVuSans-63" x="1359.033203"/>
     <use xlink:href="#DejaVuSans-74" x="1414.013672"/>
     <use xlink:href="#DejaVuSans-4a" x="1453.222656"/>
     <use xlink:href="#DejaVuSans-31" x="1482.714844"/>
     <use xlink:href="#DejaVuSans-4c" x="1546.337891"/>
     <use xlink:href="#DejaVuSans-34" x="1602.050781"/>
    </g>
    <!-- Total coverage: 14.70% -->
    <g transform="translate(165.5775 35.472) scale(0.12 -0.12)">
     <defs>
      <path id="DejaVuSans-54" d="M -19 4666 
L 3928 4666 
L 3928 4134 
L 2272 4134 
L 2272 0 
L 1638 0 
L 1638 4134 
L -19 4134 
L -19 4666 
z
" transform="scale(0.015625)"/>
      <path id="DejaVuSans-3a" d="M 750 794 
L 1409 794 
L 1409 0 
L 750 0 
L 750 794 
z
M 750 3309 
L 1409 3309 
L 1409 2516 
L 750 2516 
L 750 3309 
z
" transform="scale(0.015625)"/>
      <path id="DejaVuSans-37" d="M 525 4666 
L 3525 4666 
L 3525 4397 
L 1831 0 
L 1172 0 
L 2766 4134 
L 525 4134 
L 525 4666 
z
" transform="scale(0.015625)"/>
      <path id="DejaVuSans-25" d="M 4653 2053 
Q 4381 2053 4226 1822 
Q 4072 1591 4072 1178 
Q 4072 772 4226 539 
Q 4381 306 4653 306 
Q 4919 306 5073 539 
Q 5228 772 5228 1178 
Q 5228 1588 5073 1820 
Q 4919 2053 4653 2053 
z
M 4653 2450 
Q 5147 2450 5437 2106 
Q 5728 1763 5728 1178 
Q 5728 594 5436 251 
Q 5144 -91 4653 -91 
Q 4153 -91 3862 251 
Q 3572 594 3572 1178 
Q 3572 1766 3864 2108 
Q 4156 2450 4653 2450 
z
M 1428 4353 
Q 1159 4353 1004 4120 
Q 850 3888 850 3481 
Q 850 3069 1003 2837 
Q 1156 2606 1428 2606 
Q 1700 2606 1854 2837 
Q 2009 3069 2009 3481 
Q 2009 3884 1853 4118 
Q 1697 4353 1428 4353 
z
M 4250 4750 
L 4750 4750 
L 1831 -91 
L 1331 -91 
L 4250 4750 
z
M 1428 4750 
Q 1922 4750 2215 4408 
Q 2509 4066 2509 3481 
Q 2509 2891 2217 2550 
Q 1925 2209 1428 2209 
Q 931 2209 642 2551 
Q 353 2894 353 3481 
Q 353 4063 643 4406 
Q 934 4750 1428 4750 
z
" transform="scale(0.015625)"/>
     </defs>
     <use xlink:href="#DejaVuSans-54"/>
     <use xlink:href="#DejaVuSans-6f" x="44.083984"/>
     <use xlink:href="#DejaVuSans-74" x="105.265625"/>
     <use xlink:href="#DejaVuSans-61" x="144.474609"/>
     <use xlink:href="#DejaVuSans-6c" x="205.753906"/>
     <use xlink:href="#DejaVuSans-20" x="233.537109"/>
     <use xlink:href="#DejaVuSans-63" x="265.324219"/>
     <use xlink:href="#DejaVuSans-6f" x="320.304688"/>
     <use xlink:href="#DejaVuSans-76" x="381.486328"/>
     <use xlink:href="#DejaVuSans-65" x="440.666016"/>
     <use xlink:href="#DejaVuSans-72" x="502.189453"/>
     <use xlink:href="#DejaVuSans-61" x="543.302734"/>
     <use xlink:href="#DejaVuSans-67" x="604.582031"/>
     <use xlink:href="#DejaVuSans-65" x="668.058594"/>
     <use xlink:href="#DejaVuSans-3a" x="729.582031"/>
     <use xlink:href="#DejaVuSans-20" x="763.273438"/>
     <use xlink:href="#DejaVuSans-31" x="795.060547"/>
     <use xlink:href="#DejaVuSans-34" x="858.683594"/>
     <use xlink:href="#DejaVuSans-2e" x="922.306641"/>
     <use xlink:href="#DejaVuSans-37" x="954.09375"/>
     <use xlink:href="#DejaVuSans-30" x="1017.716797"/>
     <use xlink:href="#DejaVuSans-25" x="1081.339844"/>
    </g>
   </g>
  </g>
 </g>
 <defs>
  <clipPath id="pc414418658">
   <rect x="57.6" y="41.472" width="357.12" height="266.112"/>
  </clipPath>
 </defs>
</svg>
