<?xml version="1.0" encoding="utf-8" standalone="no"?>
<!DOCTYPE svg PUBLIC "-//W3C//DTD SVG 1.1//EN"
  "http://www.w3.org/Graphics/SVG/1.1/DTD/svg11.dtd">
<svg xmlns:xlink="http://www.w3.org/1999/xlink" width="460.8pt" height="345.6pt" viewBox="0 0 460.8 345.6" xmlns="http://www.w3.org/2000/svg" version="1.1">
 <metadata>
  <rdf:RDF xmlns:dc="http://purl.org/dc/elements/1.1/" xmlns:cc="http://creativecommons.org/ns#" xmlns:rdf="http://www.w3.org/1999/02/22-rdf-syntax-ns#">
   <cc:Work>
    <dc:type rdf:resource="http://purl.org/dc/dcmitype/StillImage"/>
    <dc:date>2024-06-21T21:14:36.631673</dc:date>
    <dc:format>image/svg+xml</dc:format>
    <dc:creator>
     <cc:Agent>
      <dc:title>Matplotlib v3.6.0, https://matplotlib.org/</dc:title>
     </cc:Agent>
    </dc:creator>
   </cc:Work>
  </rdf:RDF>
 </metadata>
 <defs>
  <style type="text/css">*{stroke-linejoin: round; stroke-linecap: butt}</style>
 </defs>
 <g id="figure_1">
  <g id="patch_1">
   <path d="M 0 345.6 
L 460.8 345.6 
L 460.8 0 
L 0 0 
z
" style="fill: #ffffff"/>
  </g>
  <g id="axes_1">
   <g id="patch_2">
    <path d="M 57.6 307.584 
L 414.72 307.584 
L 414.72 41.472 
L 57.6 41.472 
z
" style="fill: #ffffff"/>
   </g>
   <g id="PolyCollection_1"/>
   <g id="matplotlib.axis_1">
    <g id="xtick_1">
     <g id="line2d_1">
      <defs>
       <path id="mf5c8b35b89" d="M 0 0 
L 0 3.5 
" style="stroke: #000000; stroke-width: 0.8"/>
      </defs>
      <g>
       <use xlink:href="#mf5c8b35b89" x="65.872242" y="307.584" style="stroke: #000000; stroke-width: 0.8"/>
      </g>
     </g>
     <g id="text_1">
      <!-- 10000 -->
      <g transform="translate(49.965992 322.182437) scale(0.1 -0.1)">
       <defs>
        <path id="DejaVuSans-31" d="M 794 531 
L 1825 531 
L 1825 4091 
L 703 3866 
L 703 4441 
L 1819 4666 
L 2450 4666 
L 2450 531 
L 3481 531 
L 3481 0 
L 794 0 
L 794 531 
z
" transform="scale(0.015625)"/>
        <path id="DejaVuSans-30" d="M 2034 4250 
Q 1547 4250 1301 3770 
Q 1056 3291 1056 2328 
Q 1056 1369 1301 889 
Q 1547 409 2034 409 
Q 2525 409 2770 889 
Q 3016 1369 3016 2328 
Q 3016 3291 2770 3770 
Q 2525 4250 2034 4250 
z
M 2034 4750 
Q 2819 4750 3233 4129 
Q 3647 3509 3647 2328 
Q 3647 1150 3233 529 
Q 2819 -91 2034 -91 
Q 1250 -91 836 529 
Q 422 1150 422 2328 
Q 422 3509 836 4129 
Q 1250 4750 2034 4750 
z
" transform="scale(0.015625)"/>
       </defs>
       <use xlink:href="#DejaVuSans-31"/>
       <use xlink:href="#DejaVuSans-30" x="63.623047"/>
       <use xlink:href="#DejaVuSans-30" x="127.246094"/>
       <use xlink:href="#DejaVuSans-30" x="190.869141"/>
       <use xlink:href="#DejaVuSans-30" x="254.492188"/>
      </g>
     </g>
    </g>
    <g id="xtick_2">
     <g id="line2d_2">
      <g>
       <use xlink:href="#mf5c8b35b89" x="109.502208" y="307.584" style="stroke: #000000; stroke-width: 0.8"/>
      </g>
     </g>
     <g id="text_2">
      <!-- 12500 -->
      <g transform="translate(93.595958 322.182437) scale(0.1 -0.1)">
       <defs>
        <path id="DejaVuSans-32" d="M 1228 531 
L 3431 531 
L 3431 0 
L 469 0 
L 469 531 
Q 828 903 1448 1529 
Q 2069 2156 2228 2338 
Q 2531 2678 2651 2914 
Q 2772 3150 2772 3378 
Q 2772 3750 2511 3984 
Q 2250 4219 1831 4219 
Q 1534 4219 1204 4116 
Q 875 4013 500 3803 
L 500 4441 
Q 881 4594 1212 4672 
Q 1544 4750 1819 4750 
Q 2544 4750 2975 4387 
Q 3406 4025 3406 3419 
Q 3406 3131 3298 2873 
Q 3191 2616 2906 2266 
Q 2828 2175 2409 1742 
Q 1991 1309 1228 531 
z
" transform="scale(0.015625)"/>
        <path id="DejaVuSans-35" d="M 691 4666 
L 3169 4666 
L 3169 4134 
L 1269 4134 
L 1269 2991 
Q 1406 3038 1543 3061 
Q 1681 3084 1819 3084 
Q 2600 3084 3056 2656 
Q 3513 2228 3513 1497 
Q 3513 744 3044 326 
Q 2575 -91 1722 -91 
Q 1428 -91 1123 -41 
Q 819 9 494 109 
L 494 744 
Q 775 591 1075 516 
Q 1375 441 1709 441 
Q 2250 441 2565 725 
Q 2881 1009 2881 1497 
Q 2881 1984 2565 2268 
Q 2250 2553 1709 2553 
Q 1456 2553 1204 2497 
Q 953 2441 691 2322 
L 691 4666 
z
" transform="scale(0.015625)"/>
       </defs>
       <use xlink:href="#DejaVuSans-31"/>
       <use xlink:href="#DejaVuSans-32" x="63.623047"/>
       <use xlink:href="#DejaVuSans-35" x="127.246094"/>
       <use xlink:href="#DejaVuSans-30" x="190.869141"/>
       <use xlink:href="#DejaVuSans-30" x="254.492188"/>
      </g>
     </g>
    </g>
    <g id="xtick_3">
     <g id="line2d_3">
      <g>
       <use xlink:href="#mf5c8b35b89" x="153.132174" y="307.584" style="stroke: #000000; stroke-width: 0.8"/>
      </g>
     </g>
     <g id="text_3">
      <!-- 15000 -->
      <g transform="translate(137.225924 322.182437) scale(0.1 -0.1)">
       <use xlink:href="#DejaVuSans-31"/>
       <use xlink:href="#DejaVuSans-35" x="63.623047"/>
       <use xlink:href="#DejaVuSans-30" x="127.246094"/>
       <use xlink:href="#DejaVuSans-30" x="190.869141"/>
       <use xlink:href="#DejaVuSans-30" x="254.492188"/>
      </g>
     </g>
    </g>
    <g id="xtick_4">
     <g id="line2d_4">
      <g>
       <use xlink:href="#mf5c8b35b89" x="196.76214" y="307.584" style="stroke: #000000; stroke-width: 0.8"/>
      </g>
     </g>
     <g id="text_4">
      <!-- 17500 -->
      <g transform="translate(180.85589 322.182437) scale(0.1 -0.1)">
       <defs>
        <path id="DejaVuSans-37" d="M 525 4666 
L 3525 4666 
L 3525 4397 
L 1831 0 
L 1172 0 
L 2766 4134 
L 525 4134 
L 525 4666 
z
" transform="scale(0.015625)"/>
       </defs>
       <use xlink:href="#DejaVuSans-31"/>
       <use xlink:href="#DejaVuSans-37" x="63.623047"/>
       <use xlink:href="#DejaVuSans-35" x="127.246094"/>
       <use xlink:href="#DejaVuSans-30" x="190.869141"/>
       <use xlink:href="#DejaVuSans-30" x="254.492188"/>
      </g>
     </g>
    </g>
    <g id="xtick_5">
     <g id="line2d_5">
      <g>
       <use xlink:href="#mf5c8b35b89" x="240.392107" y="307.584" style="stroke: #000000; stroke-width: 0.8"/>
      </g>
     </g>
     <g id="text_5">
      <!-- 20000 -->
      <g transform="translate(224.485857 322.182437) scale(0.1 -0.1)">
       <use xlink:href="#DejaVuSans-32"/>
       <use xlink:href="#DejaVuSans-30" x="63.623047"/>
       <use xlink:href="#DejaVuSans-30" x="127.246094"/>
       <use xlink:href="#DejaVuSans-30" x="190.869141"/>
       <use xlink:href="#DejaVuSans-30" x="254.492188"/>
      </g>
     </g>
    </g>
    <g id="xtick_6">
     <g id="line2d_6">
      <g>
       <use xlink:href="#mf5c8b35b89" x="284.022073" y="307.584" style="stroke: #000000; stroke-width: 0.8"/>
      </g>
     </g>
     <g id="text_6">
      <!-- 22500 -->
      <g transform="translate(268.115823 322.182437) scale(0.1 -0.1)">
       <use xlink:href="#DejaVuSans-32"/>
       <use xlink:href="#DejaVuSans-32" x="63.623047"/>
       <use xlink:href="#DejaVuSans-35" x="127.246094"/>
       <use xlink:href="#DejaVuSans-30" x="190.869141"/>
       <use xlink:href="#DejaVuSans-30" x="254.492188"/>
      </g>
     </g>
    </g>
    <g id="xtick_7">
     <g id="line2d_7">
      <g>
       <use xlink:href="#mf5c8b35b89" x="327.652039" y="307.584" style="stroke: #000000; stroke-width: 0.8"/>
      </g>
     </g>
     <g id="text_7">
      <!-- 25000 -->
      <g transform="translate(311.745789 322.182437) scale(0.1 -0.1)">
       <use xlink:href="#DejaVuSans-32"/>
       <use xlink:href="#DejaVuSans-35" x="63.623047"/>
       <use xlink:href="#DejaVuSans-30" x="127.246094"/>
       <use xlink:href="#DejaVuSans-30" x="190.869141"/>
       <use xlink:href="#DejaVuSans-30" x="254.492188"/>
      </g>
     </g>
    </g>
    <g id="xtick_8">
     <g id="line2d_8">
      <g>
       <use xlink:href="#mf5c8b35b89" x="371.282006" y="307.584" style="stroke: #000000; stroke-width: 0.8"/>
      </g>
     </g>
     <g id="text_8">
      <!-- 27500 -->
      <g transform="translate(355.375756 322.182437) scale(0.1 -0.1)">
       <use xlink:href="#DejaVuSans-32"/>
       <use xlink:href="#DejaVuSans-37" x="63.623047"/>
       <use xlink:href="#DejaVuSans-35" x="127.246094"/>
       <use xlink:href="#DejaVuSans-30" x="190.869141"/>
       <use xlink:href="#DejaVuSans-30" x="254.492188"/>
      </g>
     </g>
    </g>
    <g id="text_9">
     <!-- Nucleotide position -->
     <g transform="translate(187.982656 335.860562) scale(0.1 -0.1)">
      <defs>
       <path id="DejaVuSans-4e" d="M 628 4666 
L 1478 4666 
L 3547 763 
L 3547 4666 
L 4159 4666 
L 4159 0 
L 3309 0 
L 1241 3903 
L 1241 0 
L 628 0 
L 628 4666 
z
" transform="scale(0.015625)"/>
       <path id="DejaVuSans-75" d="M 544 1381 
L 544 3500 
L 1119 3500 
L 1119 1403 
Q 1119 906 1312 657 
Q 1506 409 1894 409 
Q 2359 409 2629 706 
Q 2900 1003 2900 1516 
L 2900 3500 
L 3475 3500 
L 3475 0 
L 2900 0 
L 2900 538 
Q 2691 219 2414 64 
Q 2138 -91 1772 -91 
Q 1169 -91 856 284 
Q 544 659 544 1381 
z
M 1991 3584 
L 1991 3584 
z
" transform="scale(0.015625)"/>
       <path id="DejaVuSans-63" d="M 3122 3366 
L 3122 2828 
Q 2878 2963 2633 3030 
Q 2388 3097 2138 3097 
Q 1578 3097 1268 2742 
Q 959 2388 959 1747 
Q 959 1106 1268 751 
Q 1578 397 2138 397 
Q 2388 397 2633 464 
Q 2878 531 3122 666 
L 3122 134 
Q 2881 22 2623 -34 
Q 2366 -91 2075 -91 
Q 1284 -91 818 406 
Q 353 903 353 1747 
Q 353 2603 823 3093 
Q 1294 3584 2113 3584 
Q 2378 3584 2631 3529 
Q 2884 3475 3122 3366 
z
" transform="scale(0.015625)"/>
       <path id="DejaVuSans-6c" d="M 603 4863 
L 1178 4863 
L 1178 0 
L 603 0 
L 603 4863 
z
" transform="scale(0.015625)"/>
       <path id="DejaVuSans-65" d="M 3597 1894 
L 3597 1613 
L 953 1613 
Q 991 1019 1311 708 
Q 1631 397 2203 397 
Q 2534 397 2845 478 
Q 3156 559 3463 722 
L 3463 178 
Q 3153 47 2828 -22 
Q 2503 -91 2169 -91 
Q 1331 -91 842 396 
Q 353 884 353 1716 
Q 353 2575 817 3079 
Q 1281 3584 2069 3584 
Q 2775 3584 3186 3129 
Q 3597 2675 3597 1894 
z
M 3022 2063 
Q 3016 2534 2758 2815 
Q 2500 3097 2075 3097 
Q 1594 3097 1305 2825 
Q 1016 2553 972 2059 
L 3022 2063 
z
" transform="scale(0.015625)"/>
       <path id="DejaVuSans-6f" d="M 1959 3097 
Q 1497 3097 1228 2736 
Q 959 2375 959 1747 
Q 959 1119 1226 758 
Q 1494 397 1959 397 
Q 2419 397 2687 759 
Q 2956 1122 2956 1747 
Q 2956 2369 2687 2733 
Q 2419 3097 1959 3097 
z
M 1959 3584 
Q 2709 3584 3137 3096 
Q 3566 2609 3566 1747 
Q 3566 888 3137 398 
Q 2709 -91 1959 -91 
Q 1206 -91 779 398 
Q 353 888 353 1747 
Q 353 2609 779 3096 
Q 1206 3584 1959 3584 
z
" transform="scale(0.015625)"/>
       <path id="DejaVuSans-74" d="M 1172 4494 
L 1172 3500 
L 2356 3500 
L 2356 3053 
L 1172 3053 
L 1172 1153 
Q 1172 725 1289 603 
Q 1406 481 1766 481 
L 2356 481 
L 2356 0 
L 1766 0 
Q 1100 0 847 248 
Q 594 497 594 1153 
L 594 3053 
L 172 3053 
L 172 3500 
L 594 3500 
L 594 4494 
L 1172 4494 
z
" transform="scale(0.015625)"/>
       <path id="DejaVuSans-69" d="M 603 3500 
L 1178 3500 
L 1178 0 
L 603 0 
L 603 3500 
z
M 603 4863 
L 1178 4863 
L 1178 4134 
L 603 4134 
L 603 4863 
z
" transform="scale(0.015625)"/>
       <path id="DejaVuSans-64" d="M 2906 2969 
L 2906 4863 
L 3481 4863 
L 3481 0 
L 2906 0 
L 2906 525 
Q 2725 213 2448 61 
Q 2172 -91 1784 -91 
Q 1150 -91 751 415 
Q 353 922 353 1747 
Q 353 2572 751 3078 
Q 1150 3584 1784 3584 
Q 2172 3584 2448 3432 
Q 2725 3281 2906 2969 
z
M 947 1747 
Q 947 1113 1208 752 
Q 1469 391 1925 391 
Q 2381 391 2643 752 
Q 2906 1113 2906 1747 
Q 2906 2381 2643 2742 
Q 2381 3103 1925 3103 
Q 1469 3103 1208 2742 
Q 947 2381 947 1747 
z
" transform="scale(0.015625)"/>
       <path id="DejaVuSans-20" transform="scale(0.015625)"/>
       <path id="DejaVuSans-70" d="M 1159 525 
L 1159 -1331 
L 581 -1331 
L 581 3500 
L 1159 3500 
L 1159 2969 
Q 1341 3281 1617 3432 
Q 1894 3584 2278 3584 
Q 2916 3584 3314 3078 
Q 3713 2572 3713 1747 
Q 3713 922 3314 415 
Q 2916 -91 2278 -91 
Q 1894 -91 1617 61 
Q 1341 213 1159 525 
z
M 3116 1747 
Q 3116 2381 2855 2742 
Q 2594 3103 2138 3103 
Q 1681 3103 1420 2742 
Q 1159 2381 1159 1747 
Q 1159 1113 1420 752 
Q 1681 391 2138 391 
Q 2594 391 2855 752 
Q 3116 1113 3116 1747 
z
" transform="scale(0.015625)"/>
       <path id="DejaVuSans-73" d="M 2834 3397 
L 2834 2853 
Q 2591 2978 2328 3040 
Q 2066 3103 1784 3103 
Q 1356 3103 1142 2972 
Q 928 2841 928 2578 
Q 928 2378 1081 2264 
Q 1234 2150 1697 2047 
L 1894 2003 
Q 2506 1872 2764 1633 
Q 3022 1394 3022 966 
Q 3022 478 2636 193 
Q 2250 -91 1575 -91 
Q 1294 -91 989 -36 
Q 684 19 347 128 
L 347 722 
Q 666 556 975 473 
Q 1284 391 1588 391 
Q 1994 391 2212 530 
Q 2431 669 2431 922 
Q 2431 1156 2273 1281 
Q 2116 1406 1581 1522 
L 1381 1569 
Q 847 1681 609 1914 
Q 372 2147 372 2553 
Q 372 3047 722 3315 
Q 1072 3584 1716 3584 
Q 2034 3584 2315 3537 
Q 2597 3491 2834 3397 
z
" transform="scale(0.015625)"/>
       <path id="DejaVuSans-6e" d="M 3513 2113 
L 3513 0 
L 2938 0 
L 2938 2094 
Q 2938 2591 2744 2837 
Q 2550 3084 2163 3084 
Q 1697 3084 1428 2787 
Q 1159 2491 1159 1978 
L 1159 0 
L 581 0 
L 581 3500 
L 1159 3500 
L 1159 2956 
Q 1366 3272 1645 3428 
Q 1925 3584 2291 3584 
Q 2894 3584 3203 3211 
Q 3513 2838 3513 2113 
z
" transform="scale(0.015625)"/>
      </defs>
      <use xlink:href="#DejaVuSans-4e"/>
      <use xlink:href="#DejaVuSans-75" x="74.804688"/>
      <use xlink:href="#DejaVuSans-63" x="138.183594"/>
      <use xlink:href="#DejaVuSans-6c" x="193.164062"/>
      <use xlink:href="#DejaVuSans-65" x="220.947266"/>
      <use xlink:href="#DejaVuSans-6f" x="282.470703"/>
      <use xlink:href="#DejaVuSans-74" x="343.652344"/>
      <use xlink:href="#DejaVuSans-69" x="382.861328"/>
      <use xlink:href="#DejaVuSans-64" x="410.644531"/>
      <use xlink:href="#DejaVuSans-65" x="474.121094"/>
      <use xlink:href="#DejaVuSans-20" x="535.644531"/>
      <use xlink:href="#DejaVuSans-70" x="567.431641"/>
      <use xlink:href="#DejaVuSans-6f" x="630.908203"/>
      <use xlink:href="#DejaVuSans-73" x="692.089844"/>
      <use xlink:href="#DejaVuSans-69" x="744.189453"/>
      <use xlink:href="#DejaVuSans-74" x="771.972656"/>
      <use xlink:href="#DejaVuSans-69" x="811.181641"/>
      <use xlink:href="#DejaVuSans-6f" x="838.964844"/>
      <use xlink:href="#DejaVuSans-6e" x="900.146484"/>
     </g>
    </g>
   </g>
   <g id="matplotlib.axis_2">
    <g id="ytick_1">
     <g id="line2d_9">
      <defs>
       <path id="mb91bb0df65" d="M 0 0 
L -3.5 0 
" style="stroke: #000000; stroke-width: 0.8"/>
      </defs>
      <g>
       <use xlink:href="#mb91bb0df65" x="57.6" y="295.488" style="stroke: #000000; stroke-width: 0.8"/>
      </g>
     </g>
     <g id="text_10">
      <!-- 0 -->
      <g transform="translate(44.2375 299.287219) scale(0.1 -0.1)">
       <use xlink:href="#DejaVuSans-30"/>
      </g>
     </g>
    </g>
    <g id="ytick_2">
     <g id="line2d_10">
      <g>
       <use xlink:href="#mb91bb0df65" x="57.6" y="237.074382" style="stroke: #000000; stroke-width: 0.8"/>
      </g>
     </g>
     <g id="text_11">
      <!-- 2000 -->
      <g transform="translate(25.15 240.8736) scale(0.1 -0.1)">
       <use xlink:href="#DejaVuSans-32"/>
       <use xlink:href="#DejaVuSans-30" x="63.623047"/>
       <use xlink:href="#DejaVuSans-30" x="127.246094"/>
       <use xlink:href="#DejaVuSans-30" x="190.869141"/>
      </g>
     </g>
    </g>
    <g id="ytick_3">
     <g id="line2d_11">
      <g>
       <use xlink:href="#mb91bb0df65" x="57.6" y="178.660763" style="stroke: #000000; stroke-width: 0.8"/>
      </g>
     </g>
     <g id="text_12">
      <!-- 4000 -->
      <g transform="translate(25.15 182.459982) scale(0.1 -0.1)">
       <defs>
        <path id="DejaVuSans-34" d="M 2419 4116 
L 825 1625 
L 2419 1625 
L 2419 4116 
z
M 2253 4666 
L 3047 4666 
L 3047 1625 
L 3713 1625 
L 3713 1100 
L 3047 1100 
L 3047 0 
L 2419 0 
L 2419 1100 
L 313 1100 
L 313 1709 
L 2253 4666 
z
" transform="scale(0.015625)"/>
       </defs>
       <use xlink:href="#DejaVuSans-34"/>
       <use xlink:href="#DejaVuSans-30" x="63.623047"/>
       <use xlink:href="#DejaVuSans-30" x="127.246094"/>
       <use xlink:href="#DejaVuSans-30" x="190.869141"/>
      </g>
     </g>
    </g>
    <g id="ytick_4">
     <g id="line2d_12">
      <g>
       <use xlink:href="#mb91bb0df65" x="57.6" y="120.247145" style="stroke: #000000; stroke-width: 0.8"/>
      </g>
     </g>
     <g id="text_13">
      <!-- 6000 -->
      <g transform="translate(25.15 124.046364) scale(0.1 -0.1)">
       <defs>
        <path id="DejaVuSans-36" d="M 2113 2584 
Q 1688 2584 1439 2293 
Q 1191 2003 1191 1497 
Q 1191 994 1439 701 
Q 1688 409 2113 409 
Q 2538 409 2786 701 
Q 3034 994 3034 1497 
Q 3034 2003 2786 2293 
Q 2538 2584 2113 2584 
z
M 3366 4563 
L 3366 3988 
Q 3128 4100 2886 4159 
Q 2644 4219 2406 4219 
Q 1781 4219 1451 3797 
Q 1122 3375 1075 2522 
Q 1259 2794 1537 2939 
Q 1816 3084 2150 3084 
Q 2853 3084 3261 2657 
Q 3669 2231 3669 1497 
Q 3669 778 3244 343 
Q 2819 -91 2113 -91 
Q 1303 -91 875 529 
Q 447 1150 447 2328 
Q 447 3434 972 4092 
Q 1497 4750 2381 4750 
Q 2619 4750 2861 4703 
Q 3103 4656 3366 4563 
z
" transform="scale(0.015625)"/>
       </defs>
       <use xlink:href="#DejaVuSans-36"/>
       <use xlink:href="#DejaVuSans-30" x="63.623047"/>
       <use xlink:href="#DejaVuSans-30" x="127.246094"/>
       <use xlink:href="#DejaVuSans-30" x="190.869141"/>
      </g>
     </g>
    </g>
    <g id="ytick_5">
     <g id="line2d_13">
      <g>
       <use xlink:href="#mb91bb0df65" x="57.6" y="61.833527" style="stroke: #000000; stroke-width: 0.8"/>
      </g>
     </g>
     <g id="text_14">
      <!-- 8000 -->
      <g transform="translate(25.15 65.632746) scale(0.1 -0.1)">
       <defs>
        <path id="DejaVuSans-38" d="M 2034 2216 
Q 1584 2216 1326 1975 
Q 1069 1734 1069 1313 
Q 1069 891 1326 650 
Q 1584 409 2034 409 
Q 2484 409 2743 651 
Q 3003 894 3003 1313 
Q 3003 1734 2745 1975 
Q 2488 2216 2034 2216 
z
M 1403 2484 
Q 997 2584 770 2862 
Q 544 3141 544 3541 
Q 544 4100 942 4425 
Q 1341 4750 2034 4750 
Q 2731 4750 3128 4425 
Q 3525 4100 3525 3541 
Q 3525 3141 3298 2862 
Q 3072 2584 2669 2484 
Q 3125 2378 3379 2068 
Q 3634 1759 3634 1313 
Q 3634 634 3220 271 
Q 2806 -91 2034 -91 
Q 1263 -91 848 271 
Q 434 634 434 1313 
Q 434 1759 690 2068 
Q 947 2378 1403 2484 
z
M 1172 3481 
Q 1172 3119 1398 2916 
Q 1625 2713 2034 2713 
Q 2441 2713 2670 2916 
Q 2900 3119 2900 3481 
Q 2900 3844 2670 4047 
Q 2441 4250 2034 4250 
Q 1625 4250 1398 4047 
Q 1172 3844 1172 3481 
z
" transform="scale(0.015625)"/>
       </defs>
       <use xlink:href="#DejaVuSans-38"/>
       <use xlink:href="#DejaVuSans-30" x="63.623047"/>
       <use xlink:href="#DejaVuSans-30" x="127.246094"/>
       <use xlink:href="#DejaVuSans-30" x="190.869141"/>
      </g>
     </g>
    </g>
    <g id="text_15">
     <!-- Coverage -->
     <g transform="translate(19.070312 198.485031) rotate(-90) scale(0.1 -0.1)">
      <defs>
       <path id="DejaVuSans-43" d="M 4122 4306 
L 4122 3641 
Q 3803 3938 3442 4084 
Q 3081 4231 2675 4231 
Q 1875 4231 1450 3742 
Q 1025 3253 1025 2328 
Q 1025 1406 1450 917 
Q 1875 428 2675 428 
Q 3081 428 3442 575 
Q 3803 722 4122 1019 
L 4122 359 
Q 3791 134 3420 21 
Q 3050 -91 2638 -91 
Q 1578 -91 968 557 
Q 359 1206 359 2328 
Q 359 3453 968 4101 
Q 1578 4750 2638 4750 
Q 3056 4750 3426 4639 
Q 3797 4528 4122 4306 
z
" transform="scale(0.015625)"/>
       <path id="DejaVuSans-76" d="M 191 3500 
L 800 3500 
L 1894 563 
L 2988 3500 
L 3597 3500 
L 2284 0 
L 1503 0 
L 191 3500 
z
" transform="scale(0.015625)"/>
       <path id="DejaVuSans-72" d="M 2631 2963 
Q 2534 3019 2420 3045 
Q 2306 3072 2169 3072 
Q 1681 3072 1420 2755 
Q 1159 2438 1159 1844 
L 1159 0 
L 581 0 
L 581 3500 
L 1159 3500 
L 1159 2956 
Q 1341 3275 1631 3429 
Q 1922 3584 2338 3584 
Q 2397 3584 2469 3576 
Q 2541 3569 2628 3553 
L 2631 2963 
z
" transform="scale(0.015625)"/>
       <path id="DejaVuSans-61" d="M 2194 1759 
Q 1497 1759 1228 1600 
Q 959 1441 959 1056 
Q 959 750 1161 570 
Q 1363 391 1709 391 
Q 2188 391 2477 730 
Q 2766 1069 2766 1631 
L 2766 1759 
L 2194 1759 
z
M 3341 1997 
L 3341 0 
L 2766 0 
L 2766 531 
Q 2569 213 2275 61 
Q 1981 -91 1556 -91 
Q 1019 -91 701 211 
Q 384 513 384 1019 
Q 384 1609 779 1909 
Q 1175 2209 1959 2209 
L 2766 2209 
L 2766 2266 
Q 2766 2663 2505 2880 
Q 2244 3097 1772 3097 
Q 1472 3097 1187 3025 
Q 903 2953 641 2809 
L 641 3341 
Q 956 3463 1253 3523 
Q 1550 3584 1831 3584 
Q 2591 3584 2966 3190 
Q 3341 2797 3341 1997 
z
" transform="scale(0.015625)"/>
       <path id="DejaVuSans-67" d="M 2906 1791 
Q 2906 2416 2648 2759 
Q 2391 3103 1925 3103 
Q 1463 3103 1205 2759 
Q 947 2416 947 1791 
Q 947 1169 1205 825 
Q 1463 481 1925 481 
Q 2391 481 2648 825 
Q 2906 1169 2906 1791 
z
M 3481 434 
Q 3481 -459 3084 -895 
Q 2688 -1331 1869 -1331 
Q 1566 -1331 1297 -1286 
Q 1028 -1241 775 -1147 
L 775 -588 
Q 1028 -725 1275 -790 
Q 1522 -856 1778 -856 
Q 2344 -856 2625 -561 
Q 2906 -266 2906 331 
L 2906 616 
Q 2728 306 2450 153 
Q 2172 0 1784 0 
Q 1141 0 747 490 
Q 353 981 353 1791 
Q 353 2603 747 3093 
Q 1141 3584 1784 3584 
Q 2172 3584 2450 3431 
Q 2728 3278 2906 2969 
L 2906 3500 
L 3481 3500 
L 3481 434 
z
" transform="scale(0.015625)"/>
      </defs>
      <use xlink:href="#DejaVuSans-43"/>
      <use xlink:href="#DejaVuSans-6f" x="69.824219"/>
      <use xlink:href="#DejaVuSans-76" x="131.005859"/>
      <use xlink:href="#DejaVuSans-65" x="190.185547"/>
      <use xlink:href="#DejaVuSans-72" x="251.708984"/>
      <use xlink:href="#DejaVuSans-61" x="292.822266"/>
      <use xlink:href="#DejaVuSans-67" x="354.101562"/>
      <use xlink:href="#DejaVuSans-65" x="417.578125"/>
     </g>
    </g>
   </g>
   <g id="line2d_14">
    <path d="M 57.582548 295.488 
L 61.683765 295.40038 
L 61.753573 295.341966 
L 61.788477 295.488 
L 61.840833 295.371173 
L 61.875737 295.254346 
L 61.928093 295.429586 
L 63.428963 295.371173 
L 63.463867 295.312759 
L 63.481319 295.458793 
L 63.516223 295.458793 
L 77.408005 295.371173 
L 77.495265 295.225139 
L 77.617429 295.488 
L 78.437672 295.458793 
L 78.524932 295.254346 
L 78.542384 295.488 
L 83.673268 295.429586 
L 83.795432 295.371173 
L 83.830336 295.371173 
L 83.9525 295.488 
L 85.959478 295.458793 
L 85.994382 295.079105 
L 86.081642 295.166725 
L 86.116546 295.166725 
L 86.23871 295.488 
L 88.891412 295.488 
L 89.013576 295.341966 
L 89.065932 295.341966 
L 89.188096 295.488 
L 95.331195 295.488 
L 95.435907 295.225139 
L 95.558071 295.488 
L 97.285817 295.40038 
L 97.320721 295.341966 
L 97.338173 295.488 
L 97.373077 295.488 
L 100.566791 295.488 
L 100.688955 295.341966 
L 100.793667 295.341966 
L 100.915831 295.488 
L 114.214244 295.458793 
L 114.318956 294.816243 
L 114.44112 295.371173 
L 114.458572 295.371173 
L 114.580736 295.488 
L 120.479507 295.488 
L 120.514411 295.371173 
L 120.584219 295.488 
L 120.688931 295.488 
L 120.776191 295.254346 
L 120.793643 295.488 
L 122.922786 295.488 
L 123.010045 295.283552 
L 123.027497 295.40038 
L 161.7011 295.488 
L 161.823263 295.108311 
L 161.875619 295.108311 
L 161.997783 295.488 
L 165.418373 295.429586 
L 165.488181 295.341966 
L 165.505633 295.429586 
L 165.627797 295.488 
L 166.692368 295.458793 
L 166.744724 295.283552 
L 166.79708 295.458793 
L 166.936695 295.488 
L 169.275262 295.488 
L 169.397426 294.991484 
L 169.449782 294.991484 
L 169.571945 295.488 
L 170.601613 295.429586 
L 170.671421 295.341966 
L 170.688873 295.458793 
L 170.706325 295.458793 
L 171.927964 295.488 
L 172.050128 295.312759 
L 172.172291 295.488 
L 174.283982 295.488 
L 174.371242 295.371173 
L 174.388694 295.488 
L 180.008233 295.458793 
L 180.095493 295.341966 
L 180.112945 295.488 
L 185.505609 295.488 
L 185.592869 295.341966 
L 185.610321 295.488 
L 190.741205 295.458793 
L 190.863369 292.888594 
L 190.985533 295.488 
L 195.470693 295.488 
L 195.592857 292.74256 
L 195.715021 295.488 
L 208.350259 295.458793 
L 208.472423 293.005421 
L 208.594587 295.458793 
L 208.734203 295.488 
L 209.449735 295.40038 
L 209.519543 295.341966 
L 209.536995 295.488 
L 210.828442 295.488 
L 210.950605 295.312759 
L 211.072769 295.488 
L 211.666137 295.458793 
L 211.753397 295.225139 
L 211.770849 295.458793 
L 212.608544 295.488 
L 212.643448 295.020691 
L 212.730708 295.049898 
L 212.783064 295.049898 
L 212.905228 295.488 
L 220.671362 295.40038 
L 220.793526 295.108311 
L 220.968046 295.488 
L 222.434013 295.488 
L 222.503821 295.371173 
L 222.538725 295.429586 
L 228.99596 295.40038 
L 229.065767 283.746863 
L 229.118123 284.360206 
L 229.240287 295.488 
L 232.399097 295.488 
L 232.521261 285.937373 
L 232.556165 285.937373 
L 232.887753 280.972216 
L 233.04482 280.680148 
L 233.13208 280.738561 
L 233.254244 280.826182 
L 233.56838 280.738561 
L 233.603284 280.709355 
L 233.620736 280.855389 
L 233.690544 280.943009 
L 233.725448 280.913802 
L 233.847612 290.172361 
L 234.00468 294.84545 
L 234.126844 294.611796 
L 234.144296 294.611796 
L 234.1792 294.436555 
L 234.231555 294.494968 
L 234.388623 264.762437 
L 234.545691 264.149094 
L 234.615499 264.119887 
L 234.650403 263.973853 
L 234.772567 260.352209 
L 234.824923 260.293795 
L 234.947087 259.855693 
L 234.981991 259.97252 
L 235.034347 260.030934 
L 235.156511 259.651245 
L 235.208867 259.213143 
L 235.226319 259.32997 
L 235.296127 255.007363 
L 235.348483 255.241017 
L 235.470647 255.270224 
L 235.505551 255.445465 
L 235.523002 255.094983 
L 235.557906 255.094983 
L 235.627714 255.241017 
L 235.784782 256.380083 
L 235.94185 255.503878 
L 235.976754 255.620706 
L 236.081466 253.342574 
L 236.098918 253.547022 
L 236.133822 253.605436 
L 236.151274 253.517815 
L 236.238534 223.551629 
L 236.273438 223.785284 
L 236.413054 223.142734 
L 236.46541 223.142734 
L 236.587574 224.661488 
L 236.63993 224.632281 
L 236.779546 223.405595 
L 236.814449 223.405595 
L 236.849353 223.259561 
L 236.866805 223.785284 
L 236.936613 252.904472 
L 237.023873 252.729231 
L 237.041325 252.729231 
L 237.268201 247.092317 
L 237.303105 249.545689 
L 237.320557 250.4511 
L 237.372913 247.442799 
L 237.477625 234.913078 
L 237.599789 53.568 
L 237.896473 57.861401 
L 237.966281 57.919815 
L 238.001185 58.649985 
L 238.036089 58.591571 
L 238.1408 56.95599 
L 238.158252 57.160438 
L 238.280416 57.248058 
L 238.367676 57.452506 
L 238.542196 63.235454 
L 238.559648 63.410695 
L 238.66436 81.314469 
L 238.681812 90.777475 
L 238.803976 295.488 
L 239.467151 295.488 
L 239.536959 295.108311 
L 239.571863 295.195932 
L 239.676575 295.488 
L 239.763835 295.312759 
L 239.781287 295.341966 
L 239.903451 295.488 
L 241.997689 295.488 
L 242.102401 295.020691 
L 242.224565 295.488 
L 244.737651 295.40038 
L 244.772555 295.312759 
L 244.842363 295.371173 
L 245.034335 295.488 
L 245.645155 295.488 
L 245.714963 295.254346 
L 245.749867 295.312759 
L 245.87203 295.488 
L 246.74463 295.488 
L 246.866794 295.166725 
L 246.971506 295.254346 
L 247.09367 295.488 
L 250.165219 295.40038 
L 250.252479 295.40038 
L 250.269931 285.499271 
L 250.374643 285.908167 
L 250.461903 295.488 
L 250.496807 295.458793 
L 250.915655 295.429586 
L 250.985463 295.341966 
L 251.002915 295.458793 
L 251.020367 295.458793 
L 251.107626 295.40038 
L 251.125078 295.488 
L 251.439214 295.488 
L 251.509022 295.341966 
L 251.543926 295.488 
L 252.765565 295.40038 
L 252.817921 295.341966 
L 252.835373 295.458793 
L 252.852825 295.458793 
L 252.992441 295.488 
L 255.034323 295.40038 
L 255.121583 295.225139 
L 255.243747 295.488 
L 255.732403 295.488 
L 255.819663 295.312759 
L 255.837115 295.488 
L 257.652121 295.488 
L 257.756833 294.991484 
L 257.826641 295.488 
L 257.878997 295.458793 
L 258.245489 295.458793 
L 258.367653 295.225139 
L 258.489817 295.488 
L 259.100636 295.429586 
L 259.152992 295.283552 
L 259.205348 295.371173 
L 259.327512 295.488 
L 261.072711 295.458793 
L 261.090163 295.341966 
L 261.212327 293.151455 
L 261.334491 295.488 
L 263.515989 295.488 
L 263.603249 295.283552 
L 263.620701 295.429586 
L 263.673057 295.488 
L 263.742865 295.458793 
L 263.882481 295.488 
L 266.395567 295.458793 
L 266.517731 292.684146 
L 266.639894 295.488 
L 267.634658 295.488 
L 267.721918 295.137518 
L 267.756822 295.166725 
L 267.896437 295.488 
L 272.713186 295.40038 
L 272.817898 295.108311 
L 272.940062 295.488 
L 273.149485 295.429586 
L 273.184389 291.311426 
L 273.271649 291.428254 
L 273.393813 295.488 
L 277.250702 295.458793 
L 277.285606 295.371173 
L 277.355414 295.488 
L 281.491535 295.429586 
L 281.561343 295.341966 
L 281.578795 295.488 
L 282.50375 295.40038 
L 282.573558 295.341966 
L 282.59101 295.458793 
L 282.608462 295.429586 
L 282.713174 295.341966 
L 282.76553 295.254346 
L 282.782982 295.371173 
L 282.922598 295.488 
L 283.969717 295.488 
L 284.039525 295.371173 
L 284.074429 295.488 
L 284.406017 295.488 
L 284.493277 291.486667 
L 284.528181 291.691115 
L 284.650345 295.488 
L 286.988911 295.488 
L 287.076171 295.137518 
L 287.093623 295.254346 
L 287.215787 295.488 
L 289.88594 295.40038 
L 289.9732 295.283552 
L 290.008104 295.488 
L 290.025556 295.079105 
L 290.06046 295.079105 
L 290.112816 295.079105 
L 290.23498 295.488 
L 292.399027 295.488 
L 292.486286 295.254346 
L 292.503738 295.488 
L 306.849271 295.488 
L 306.936531 295.341966 
L 306.953983 295.488 
L 310.409477 295.40038 
L 310.496737 295.254346 
L 310.6189 295.488 
L 311.31698 295.40038 
L 311.386788 295.312759 
L 311.508952 295.488 
L 313.86497 295.488 
L 313.987134 295.283552 
L 314.109298 295.488 
L 320.042973 295.488 
L 320.147685 295.049898 
L 320.252397 295.488 
L 320.269849 295.458793 
L 320.828313 295.488 
L 320.933024 294.962277 
L 321.055188 295.488 
L 321.474036 295.40038 
L 321.578748 295.049898 
L 321.700912 295.488 
L 322.468799 295.40038 
L 322.503703 295.341966 
L 322.556059 295.488 
L 323.79515 295.458793 
L 323.830054 295.341966 
L 323.899862 295.458793 
L 325.522897 295.488 
L 325.557801 295.341966 
L 325.645061 295.40038 
L 335.051682 295.341966 
L 335.104038 295.283552 
L 335.12149 295.40038 
L 335.138942 295.40038 
L 337.861451 295.341966 
L 337.983615 293.326696 
L 338.105779 295.488 
L 343.358827 295.40038 
L 343.446087 295.371173 
L 343.568251 295.488 
L 344.301234 295.40038 
L 344.35359 295.225139 
L 344.388494 295.312759 
L 344.475754 295.458793 
L 344.493206 295.312759 
L 344.685178 295.488 
L 344.70263 295.458793 
L 349.083079 295.488 
L 349.135435 295.341966 
L 349.187791 295.488 
L 350.112746 295.488 
L 350.23491 295.312759 
L 350.252362 295.312759 
L 350.32217 295.488 
L 350.339622 295.458793 
L 350.40943 293.501937 
L 350.461786 293.969246 
L 350.58395 295.458793 
L 350.723565 295.488 
L 352.590928 295.429586 
L 352.625832 295.371173 
L 352.678188 295.488 
L 353.847471 295.458793 
L 353.952183 293.005421 
L 353.969635 293.239076 
L 354.091799 295.488 
L 359.257587 295.40038 
L 359.362299 295.137518 
L 359.484463 295.488 
L 367.98358 295.429586 
L 368.018484 295.283552 
L 368.088292 295.458793 
L 370.583926 295.458793 
L 370.70609 291.428254 
L 370.828254 295.488 
L 371.613593 295.429586 
L 371.700853 295.049898 
L 371.753209 295.166725 
L 371.875373 295.488 
L 375.557742 295.488 
L 375.679906 295.195932 
L 375.732262 295.195932 
L 375.854426 295.488 
L 376.604861 295.40038 
L 376.674669 295.312759 
L 376.796833 295.488 
L 377.878856 295.458793 
L 377.948664 295.371173 
L 378.00102 295.40038 
L 389.170292 295.341966 
L 389.205196 295.020691 
L 389.2401 291.194599 
L 389.32736 291.574288 
L 389.449524 295.458793 
L 390.357027 295.488 
L 390.461739 294.787037 
L 390.583903 295.488 
L 390.706067 295.488 
L 390.810778 295.488 
L 390.932942 295.283552 
L 390.985298 295.283552 
L 391.107462 295.488 
L 392.555977 295.488 
L 392.643237 295.195932 
L 392.660689 295.488 
L 393.55074 295.429586 
L 393.638 295.283552 
L 393.655452 295.488 
L 395.924211 295.488 
L 395.994018 295.371173 
L 396.028922 295.488 
L 396.569934 295.488 
L 396.657194 295.166725 
L 396.674646 295.488 
L 396.866618 295.458793 
L 396.901522 295.371173 
L 396.953878 295.488 
L 396.97133 295.488 
L 399.641484 295.40038 
L 399.711292 295.341966 
L 399.746196 295.429586 
L 400.775863 295.341966 
L 400.793315 295.283552 
L 400.810767 295.371173 
L 400.845671 295.341966 
L 400.967835 295.488 
L 401.055095 295.429586 
L 401.072547 295.488 
L 402.747937 295.488 
L 402.835197 295.312759 
L 402.852649 295.488 
L 404.179 295.488 
L 404.26626 295.312759 
L 404.283712 295.488 
L 404.78982 295.488 
L 404.87708 295.312759 
L 404.894532 295.429586 
L 405.016695 295.488 
L 409.344788 295.488 
L 409.432048 295.371173 
L 409.4495 295.488 
L 411.072535 295.488 
L 411.124891 295.283552 
L 411.177247 295.488 
L 411.299411 295.488 
L 414.737452 295.488 
L 414.737452 295.488 
" clip-path="url(#pa1c98f8b66)" style="fill: none; stroke: #1f77b4; stroke-width: 1.5; stroke-linecap: square"/>
   </g>
   <g id="line2d_15">
    <path d="M 232.416549 307.584 
L 232.416549 41.472 
" clip-path="url(#pa1c98f8b66)" style="fill: none; stroke-dasharray: 5.55,2.4; stroke-dashoffset: 0; stroke: #ff0000; stroke-width: 1.5"/>
   </g>
   <g id="line2d_16">
    <path d="M 238.612004 307.584 
L 238.612004 41.472 
" clip-path="url(#pa1c98f8b66)" style="fill: none; stroke-dasharray: 5.55,2.4; stroke-dashoffset: 0; stroke: #ff0000; stroke-width: 1.5"/>
   </g>
   <g id="patch_3">
    <path d="M 57.6 307.584 
L 57.6 41.472 
" style="fill: none; stroke: #000000; stroke-width: 0.8; stroke-linejoin: miter; stroke-linecap: square"/>
   </g>
   <g id="patch_4">
    <path d="M 414.72 307.584 
L 414.72 41.472 
" style="fill: none; stroke: #000000; stroke-width: 0.8; stroke-linejoin: miter; stroke-linecap: square"/>
   </g>
   <g id="patch_5">
    <path d="M 57.6 307.584 
L 414.72 307.584 
" style="fill: none; stroke: #000000; stroke-width: 0.8; stroke-linejoin: miter; stroke-linecap: square"/>
   </g>
   <g id="patch_6">
    <path d="M 57.6 41.472 
L 414.72 41.472 
" style="fill: none; stroke: #000000; stroke-width: 0.8; stroke-linejoin: miter; stroke-linecap: square"/>
   </g>
   <g id="text_16">
    <!-- Caudorviricetes sp. isolate ctJ1L4 -->
    <g transform="translate(136.21875 22.034625) scale(0.12 -0.12)">
     <defs>
      <path id="DejaVuSans-2e" d="M 684 794 
L 1344 794 
L 1344 0 
L 684 0 
L 684 794 
z
" transform="scale(0.015625)"/>
      <path id="DejaVuSans-4a" d="M 628 4666 
L 1259 4666 
L 1259 325 
Q 1259 -519 939 -900 
Q 619 -1281 -91 -1281 
L -331 -1281 
L -331 -750 
L -134 -750 
Q 284 -750 456 -515 
Q 628 -281 628 325 
L 628 4666 
z
" transform="scale(0.015625)"/>
      <path id="DejaVuSans-4c" d="M 628 4666 
L 1259 4666 
L 1259 531 
L 3531 531 
L 3531 0 
L 628 0 
L 628 4666 
z
" transform="scale(0.015625)"/>
     </defs>
     <use xlink:href="#DejaVuSans-43"/>
     <use xlink:href="#DejaVuSans-61" x="69.824219"/>
     <use xlink:href="#DejaVuSans-75" x="131.103516"/>
     <use xlink:href="#DejaVuSans-64" x="194.482422"/>
     <use xlink:href="#DejaVuSans-6f" x="257.958984"/>
     <use xlink:href="#DejaVuSans-72" x="319.140625"/>
     <use xlink:href="#DejaVuSans-76" x="360.253906"/>
     <use xlink:href="#DejaVuSans-69" x="419.433594"/>
     <use xlink:href="#DejaVuSans-72" x="447.216797"/>
     <use xlink:href="#DejaVuSans-69" x="488.330078"/>
     <use xlink:href="#DejaVuSans-63" x="516.113281"/>
     <use xlink:href="#DejaVuSans-65" x="571.09375"/>
     <use xlink:href="#DejaVuSans-74" x="632.617188"/>
     <use xlink:href="#DejaVuSans-65" x="671.826172"/>
     <use xlink:href="#DejaVuSans-73" x="733.349609"/>
     <use xlink:href="#DejaVuSans-20" x="785.449219"/>
     <use xlink:href="#DejaVuSans-73" x="817.236328"/>
     <use xlink:href="#DejaVuSans-70" x="869.335938"/>
     <use xlink:href="#DejaVuSans-2e" x="932.8125"/>
     <use xlink:href="#DejaVuSans-20" x="964.599609"/>
     <use xlink:href="#DejaVuSans-69" x="996.386719"/>
     <use xlink:href="#DejaVuSans-73" x="1024.169922"/>
     <use xlink:href="#DejaVuSans-6f" x="1076.269531"/>
     <use xlink:href="#DejaVuSans-6c" x="1137.451172"/>
     <use xlink:href="#DejaVuSans-61" x="1165.234375"/>
     <use xlink:href="#DejaVuSans-74" x="1226.513672"/>
     <use xlink:href="#DejaVuSans-65" x="1265.722656"/>
     <use xlink:href="#DejaVuSans-20" x="1327.246094"/>
     <use xlink:href="#DejaVuSans-63" x="1359.033203"/>
     <use xlink:href="#DejaVuSans-74" x="1414.013672"/>
     <use xlink:href="#DejaVuSans-4a" x="1453.222656"/>
     <use xlink:href="#DejaVuSans-31" x="1482.714844"/>
     <use xlink:href="#DejaVuSans-4c" x="1546.337891"/>
     <use xlink:href="#DejaVuSans-34" x="1602.050781"/>
    </g>
    <!-- Total coverage: 14.70% -->
    <g transform="translate(165.5775 35.472) scale(0.12 -0.12)">
     <defs>
      <path id="DejaVuSans-54" d="M -19 4666 
L 3928 4666 
L 3928 4134 
L 2272 4134 
L 2272 0 
L 1638 0 
L 1638 4134 
L -19 4134 
L -19 4666 
z
" transform="scale(0.015625)"/>
      <path id="DejaVuSans-3a" d="M 750 794 
L 1409 794 
L 1409 0 
L 750 0 
L 750 794 
z
M 750 3309 
L 1409 3309 
L 1409 2516 
L 750 2516 
L 750 3309 
z
" transform="scale(0.015625)"/>
      <path id="DejaVuSans-25" d="M 4653 2053 
Q 4381 2053 4226 1822 
Q 4072 1591 4072 1178 
Q 4072 772 4226 539 
Q 4381 306 4653 306 
Q 4919 306 5073 539 
Q 5228 772 5228 1178 
Q 5228 1588 5073 1820 
Q 4919 2053 4653 2053 
z
M 4653 2450 
Q 5147 2450 5437 2106 
Q 5728 1763 5728 1178 
Q 5728 594 5436 251 
Q 5144 -91 4653 -91 
Q 4153 -91 3862 251 
Q 3572 594 3572 1178 
Q 3572 1766 3864 2108 
Q 4156 2450 4653 2450 
z
M 1428 4353 
Q 1159 4353 1004 4120 
Q 850 3888 850 3481 
Q 850 3069 1003 2837 
Q 1156 2606 1428 2606 
Q 1700 2606 1854 2837 
Q 2009 3069 2009 3481 
Q 2009 3884 1853 4118 
Q 1697 4353 1428 4353 
z
M 4250 4750 
L 4750 4750 
L 1831 -91 
L 1331 -91 
L 4250 4750 
z
M 1428 4750 
Q 1922 4750 2215 4408 
Q 2509 4066 2509 3481 
Q 2509 2891 2217 2550 
Q 1925 2209 1428 2209 
Q 931 2209 642 2551 
Q 353 2894 353 3481 
Q 353 4063 643 4406 
Q 934 4750 1428 4750 
z
" transform="scale(0.015625)"/>
     </defs>
     <use xlink:href="#DejaVuSans-54"/>
     <use xlink:href="#DejaVuSans-6f" x="44.083984"/>
     <use xlink:href="#DejaVuSans-74" x="105.265625"/>
     <use xlink:href="#DejaVuSans-61" x="144.474609"/>
     <use xlink:href="#DejaVuSans-6c" x="205.753906"/>
     <use xlink:href="#DejaVuSans-20" x="233.537109"/>
     <use xlink:href="#DejaVuSans-63" x="265.324219"/>
     <use xlink:href="#DejaVuSans-6f" x="320.304688"/>
     <use xlink:href="#DejaVuSans-76" x="381.486328"/>
     <use xlink:href="#DejaVuSans-65" x="440.666016"/>
     <use xlink:href="#DejaVuSans-72" x="502.189453"/>
     <use xlink:href="#DejaVuSans-61" x="543.302734"/>
     <use xlink:href="#DejaVuSans-67" x="604.582031"/>
     <use xlink:href="#DejaVuSans-65" x="668.058594"/>
     <use xlink:href="#DejaVuSans-3a" x="729.582031"/>
     <use xlink:href="#DejaVuSans-20" x="763.273438"/>
     <use xlink:href="#DejaVuSans-31" x="795.060547"/>
     <use xlink:href="#DejaVuSans-34" x="858.683594"/>
     <use xlink:href="#DejaVuSans-2e" x="922.306641"/>
     <use xlink:href="#DejaVuSans-37" x="954.09375"/>
     <use xlink:href="#DejaVuSans-30" x="1017.716797"/>
     <use xlink:href="#DejaVuSans-25" x="1081.339844"/>
    </g>
   </g>
  </g>
 </g>
 <defs>
  <clipPath id="pa1c98f8b66">
   <rect x="57.6" y="41.472" width="357.12" height="266.112"/>
  </clipPath>
 </defs>
</svg>
