<?xml version="1.0" encoding="utf-8" standalone="no"?>
<!DOCTYPE svg PUBLIC "-//W3C//DTD SVG 1.1//EN"
  "http://www.w3.org/Graphics/SVG/1.1/DTD/svg11.dtd">
<svg xmlns:xlink="http://www.w3.org/1999/xlink" width="460.8pt" height="345.6pt" viewBox="0 0 460.8 345.6" xmlns="http://www.w3.org/2000/svg" version="1.1">
 <metadata>
  <rdf:RDF xmlns:dc="http://purl.org/dc/elements/1.1/" xmlns:cc="http://creativecommons.org/ns#" xmlns:rdf="http://www.w3.org/1999/02/22-rdf-syntax-ns#">
   <cc:Work>
    <dc:type rdf:resource="http://purl.org/dc/dcmitype/StillImage"/>
    <dc:date>2024-09-11T23:04:47.407301</dc:date>
    <dc:format>image/svg+xml</dc:format>
    <dc:creator>
     <cc:Agent>
      <dc:title>Matplotlib v3.9.1.post1, https://matplotlib.org/</dc:title>
     </cc:Agent>
    </dc:creator>
   </cc:Work>
  </rdf:RDF>
 </metadata>
 <defs>
  <style type="text/css">*{stroke-linejoin: round; stroke-linecap: butt}</style>
 </defs>
 <g id="figure_1">
  <g id="patch_1">
   <path d="M 0 345.6 
L 460.8 345.6 
L 460.8 0 
L 0 0 
z
" style="fill: #ffffff"/>
  </g>
  <g id="axes_1">
   <g id="patch_2">
    <path d="M 57.6 307.584 
L 414.72 307.584 
L 414.72 41.472 
L 57.6 41.472 
z
" style="fill: #ffffff"/>
   </g>
   <g id="PolyCollection_1"/>
   <g id="matplotlib.axis_1">
    <g id="xtick_1">
     <g id="line2d_1">
      <defs>
       <path id="mf3df8868ea" d="M 0 0 
L 0 3.5 
" style="stroke: #000000; stroke-width: 0.8"/>
      </defs>
      <g>
       <use xlink:href="#mf3df8868ea" x="73.823936" y="307.584" style="stroke: #000000; stroke-width: 0.8"/>
      </g>
     </g>
     <g id="text_1">
      <!-- 0 -->
      <g transform="translate(70.642686 322.182437) scale(0.1 -0.1)">
       <defs>
        <path id="DejaVuSans-30" d="M 2034 4250 
Q 1547 4250 1301 3770 
Q 1056 3291 1056 2328 
Q 1056 1369 1301 889 
Q 1547 409 2034 409 
Q 2525 409 2770 889 
Q 3016 1369 3016 2328 
Q 3016 3291 2770 3770 
Q 2525 4250 2034 4250 
z
M 2034 4750 
Q 2819 4750 3233 4129 
Q 3647 3509 3647 2328 
Q 3647 1150 3233 529 
Q 2819 -91 2034 -91 
Q 1250 -91 836 529 
Q 422 1150 422 2328 
Q 422 3509 836 4129 
Q 1250 4750 2034 4750 
z
" transform="scale(0.015625)"/>
       </defs>
       <use xlink:href="#DejaVuSans-30"/>
      </g>
     </g>
    </g>
    <g id="xtick_2">
     <g id="line2d_2">
      <g>
       <use xlink:href="#mf3df8868ea" x="117.778141" y="307.584" style="stroke: #000000; stroke-width: 0.8"/>
      </g>
     </g>
     <g id="text_2">
      <!-- 5000 -->
      <g transform="translate(105.053141 322.182437) scale(0.1 -0.1)">
       <defs>
        <path id="DejaVuSans-35" d="M 691 4666 
L 3169 4666 
L 3169 4134 
L 1269 4134 
L 1269 2991 
Q 1406 3038 1543 3061 
Q 1681 3084 1819 3084 
Q 2600 3084 3056 2656 
Q 3513 2228 3513 1497 
Q 3513 744 3044 326 
Q 2575 -91 1722 -91 
Q 1428 -91 1123 -41 
Q 819 9 494 109 
L 494 744 
Q 775 591 1075 516 
Q 1375 441 1709 441 
Q 2250 441 2565 725 
Q 2881 1009 2881 1497 
Q 2881 1984 2565 2268 
Q 2250 2553 1709 2553 
Q 1456 2553 1204 2497 
Q 953 2441 691 2322 
L 691 4666 
z
" transform="scale(0.015625)"/>
       </defs>
       <use xlink:href="#DejaVuSans-35"/>
       <use xlink:href="#DejaVuSans-30" x="63.623047"/>
       <use xlink:href="#DejaVuSans-30" x="127.246094"/>
       <use xlink:href="#DejaVuSans-30" x="190.869141"/>
      </g>
     </g>
    </g>
    <g id="xtick_3">
     <g id="line2d_3">
      <g>
       <use xlink:href="#mf3df8868ea" x="161.732345" y="307.584" style="stroke: #000000; stroke-width: 0.8"/>
      </g>
     </g>
     <g id="text_3">
      <!-- 10000 -->
      <g transform="translate(145.826095 322.182437) scale(0.1 -0.1)">
       <defs>
        <path id="DejaVuSans-31" d="M 794 531 
L 1825 531 
L 1825 4091 
L 703 3866 
L 703 4441 
L 1819 4666 
L 2450 4666 
L 2450 531 
L 3481 531 
L 3481 0 
L 794 0 
L 794 531 
z
" transform="scale(0.015625)"/>
       </defs>
       <use xlink:href="#DejaVuSans-31"/>
       <use xlink:href="#DejaVuSans-30" x="63.623047"/>
       <use xlink:href="#DejaVuSans-30" x="127.246094"/>
       <use xlink:href="#DejaVuSans-30" x="190.869141"/>
       <use xlink:href="#DejaVuSans-30" x="254.492188"/>
      </g>
     </g>
    </g>
    <g id="xtick_4">
     <g id="line2d_4">
      <g>
       <use xlink:href="#mf3df8868ea" x="205.68655" y="307.584" style="stroke: #000000; stroke-width: 0.8"/>
      </g>
     </g>
     <g id="text_4">
      <!-- 15000 -->
      <g transform="translate(189.7803 322.182437) scale(0.1 -0.1)">
       <use xlink:href="#DejaVuSans-31"/>
       <use xlink:href="#DejaVuSans-35" x="63.623047"/>
       <use xlink:href="#DejaVuSans-30" x="127.246094"/>
       <use xlink:href="#DejaVuSans-30" x="190.869141"/>
       <use xlink:href="#DejaVuSans-30" x="254.492188"/>
      </g>
     </g>
    </g>
    <g id="xtick_5">
     <g id="line2d_5">
      <g>
       <use xlink:href="#mf3df8868ea" x="249.640755" y="307.584" style="stroke: #000000; stroke-width: 0.8"/>
      </g>
     </g>
     <g id="text_5">
      <!-- 20000 -->
      <g transform="translate(233.734505 322.182437) scale(0.1 -0.1)">
       <defs>
        <path id="DejaVuSans-32" d="M 1228 531 
L 3431 531 
L 3431 0 
L 469 0 
L 469 531 
Q 828 903 1448 1529 
Q 2069 2156 2228 2338 
Q 2531 2678 2651 2914 
Q 2772 3150 2772 3378 
Q 2772 3750 2511 3984 
Q 2250 4219 1831 4219 
Q 1534 4219 1204 4116 
Q 875 4013 500 3803 
L 500 4441 
Q 881 4594 1212 4672 
Q 1544 4750 1819 4750 
Q 2544 4750 2975 4387 
Q 3406 4025 3406 3419 
Q 3406 3131 3298 2873 
Q 3191 2616 2906 2266 
Q 2828 2175 2409 1742 
Q 1991 1309 1228 531 
z
" transform="scale(0.015625)"/>
       </defs>
       <use xlink:href="#DejaVuSans-32"/>
       <use xlink:href="#DejaVuSans-30" x="63.623047"/>
       <use xlink:href="#DejaVuSans-30" x="127.246094"/>
       <use xlink:href="#DejaVuSans-30" x="190.869141"/>
       <use xlink:href="#DejaVuSans-30" x="254.492188"/>
      </g>
     </g>
    </g>
    <g id="xtick_6">
     <g id="line2d_6">
      <g>
       <use xlink:href="#mf3df8868ea" x="293.594959" y="307.584" style="stroke: #000000; stroke-width: 0.8"/>
      </g>
     </g>
     <g id="text_6">
      <!-- 25000 -->
      <g transform="translate(277.688709 322.182437) scale(0.1 -0.1)">
       <use xlink:href="#DejaVuSans-32"/>
       <use xlink:href="#DejaVuSans-35" x="63.623047"/>
       <use xlink:href="#DejaVuSans-30" x="127.246094"/>
       <use xlink:href="#DejaVuSans-30" x="190.869141"/>
       <use xlink:href="#DejaVuSans-30" x="254.492188"/>
      </g>
     </g>
    </g>
    <g id="xtick_7">
     <g id="line2d_7">
      <g>
       <use xlink:href="#mf3df8868ea" x="337.549164" y="307.584" style="stroke: #000000; stroke-width: 0.8"/>
      </g>
     </g>
     <g id="text_7">
      <!-- 30000 -->
      <g transform="translate(321.642914 322.182437) scale(0.1 -0.1)">
       <defs>
        <path id="DejaVuSans-33" d="M 2597 2516 
Q 3050 2419 3304 2112 
Q 3559 1806 3559 1356 
Q 3559 666 3084 287 
Q 2609 -91 1734 -91 
Q 1441 -91 1130 -33 
Q 819 25 488 141 
L 488 750 
Q 750 597 1062 519 
Q 1375 441 1716 441 
Q 2309 441 2620 675 
Q 2931 909 2931 1356 
Q 2931 1769 2642 2001 
Q 2353 2234 1838 2234 
L 1294 2234 
L 1294 2753 
L 1863 2753 
Q 2328 2753 2575 2939 
Q 2822 3125 2822 3475 
Q 2822 3834 2567 4026 
Q 2313 4219 1838 4219 
Q 1578 4219 1281 4162 
Q 984 4106 628 3988 
L 628 4550 
Q 988 4650 1302 4700 
Q 1616 4750 1894 4750 
Q 2613 4750 3031 4423 
Q 3450 4097 3450 3541 
Q 3450 3153 3228 2886 
Q 3006 2619 2597 2516 
z
" transform="scale(0.015625)"/>
       </defs>
       <use xlink:href="#DejaVuSans-33"/>
       <use xlink:href="#DejaVuSans-30" x="63.623047"/>
       <use xlink:href="#DejaVuSans-30" x="127.246094"/>
       <use xlink:href="#DejaVuSans-30" x="190.869141"/>
       <use xlink:href="#DejaVuSans-30" x="254.492188"/>
      </g>
     </g>
    </g>
    <g id="xtick_8">
     <g id="line2d_8">
      <g>
       <use xlink:href="#mf3df8868ea" x="381.503368" y="307.584" style="stroke: #000000; stroke-width: 0.8"/>
      </g>
     </g>
     <g id="text_8">
      <!-- 35000 -->
      <g transform="translate(365.597118 322.182437) scale(0.1 -0.1)">
       <use xlink:href="#DejaVuSans-33"/>
       <use xlink:href="#DejaVuSans-35" x="63.623047"/>
       <use xlink:href="#DejaVuSans-30" x="127.246094"/>
       <use xlink:href="#DejaVuSans-30" x="190.869141"/>
       <use xlink:href="#DejaVuSans-30" x="254.492188"/>
      </g>
     </g>
    </g>
    <g id="text_9">
     <!-- Nucleotide position -->
     <g transform="translate(187.982656 335.860562) scale(0.1 -0.1)">
      <defs>
       <path id="DejaVuSans-4e" d="M 628 4666 
L 1478 4666 
L 3547 763 
L 3547 4666 
L 4159 4666 
L 4159 0 
L 3309 0 
L 1241 3903 
L 1241 0 
L 628 0 
L 628 4666 
z
" transform="scale(0.015625)"/>
       <path id="DejaVuSans-75" d="M 544 1381 
L 544 3500 
L 1119 3500 
L 1119 1403 
Q 1119 906 1312 657 
Q 1506 409 1894 409 
Q 2359 409 2629 706 
Q 2900 1003 2900 1516 
L 2900 3500 
L 3475 3500 
L 3475 0 
L 2900 0 
L 2900 538 
Q 2691 219 2414 64 
Q 2138 -91 1772 -91 
Q 1169 -91 856 284 
Q 544 659 544 1381 
z
M 1991 3584 
L 1991 3584 
z
" transform="scale(0.015625)"/>
       <path id="DejaVuSans-63" d="M 3122 3366 
L 3122 2828 
Q 2878 2963 2633 3030 
Q 2388 3097 2138 3097 
Q 1578 3097 1268 2742 
Q 959 2388 959 1747 
Q 959 1106 1268 751 
Q 1578 397 2138 397 
Q 2388 397 2633 464 
Q 2878 531 3122 666 
L 3122 134 
Q 2881 22 2623 -34 
Q 2366 -91 2075 -91 
Q 1284 -91 818 406 
Q 353 903 353 1747 
Q 353 2603 823 3093 
Q 1294 3584 2113 3584 
Q 2378 3584 2631 3529 
Q 2884 3475 3122 3366 
z
" transform="scale(0.015625)"/>
       <path id="DejaVuSans-6c" d="M 603 4863 
L 1178 4863 
L 1178 0 
L 603 0 
L 603 4863 
z
" transform="scale(0.015625)"/>
       <path id="DejaVuSans-65" d="M 3597 1894 
L 3597 1613 
L 953 1613 
Q 991 1019 1311 708 
Q 1631 397 2203 397 
Q 2534 397 2845 478 
Q 3156 559 3463 722 
L 3463 178 
Q 3153 47 2828 -22 
Q 2503 -91 2169 -91 
Q 1331 -91 842 396 
Q 353 884 353 1716 
Q 353 2575 817 3079 
Q 1281 3584 2069 3584 
Q 2775 3584 3186 3129 
Q 3597 2675 3597 1894 
z
M 3022 2063 
Q 3016 2534 2758 2815 
Q 2500 3097 2075 3097 
Q 1594 3097 1305 2825 
Q 1016 2553 972 2059 
L 3022 2063 
z
" transform="scale(0.015625)"/>
       <path id="DejaVuSans-6f" d="M 1959 3097 
Q 1497 3097 1228 2736 
Q 959 2375 959 1747 
Q 959 1119 1226 758 
Q 1494 397 1959 397 
Q 2419 397 2687 759 
Q 2956 1122 2956 1747 
Q 2956 2369 2687 2733 
Q 2419 3097 1959 3097 
z
M 1959 3584 
Q 2709 3584 3137 3096 
Q 3566 2609 3566 1747 
Q 3566 888 3137 398 
Q 2709 -91 1959 -91 
Q 1206 -91 779 398 
Q 353 888 353 1747 
Q 353 2609 779 3096 
Q 1206 3584 1959 3584 
z
" transform="scale(0.015625)"/>
       <path id="DejaVuSans-74" d="M 1172 4494 
L 1172 3500 
L 2356 3500 
L 2356 3053 
L 1172 3053 
L 1172 1153 
Q 1172 725 1289 603 
Q 1406 481 1766 481 
L 2356 481 
L 2356 0 
L 1766 0 
Q 1100 0 847 248 
Q 594 497 594 1153 
L 594 3053 
L 172 3053 
L 172 3500 
L 594 3500 
L 594 4494 
L 1172 4494 
z
" transform="scale(0.015625)"/>
       <path id="DejaVuSans-69" d="M 603 3500 
L 1178 3500 
L 1178 0 
L 603 0 
L 603 3500 
z
M 603 4863 
L 1178 4863 
L 1178 4134 
L 603 4134 
L 603 4863 
z
" transform="scale(0.015625)"/>
       <path id="DejaVuSans-64" d="M 2906 2969 
L 2906 4863 
L 3481 4863 
L 3481 0 
L 2906 0 
L 2906 525 
Q 2725 213 2448 61 
Q 2172 -91 1784 -91 
Q 1150 -91 751 415 
Q 353 922 353 1747 
Q 353 2572 751 3078 
Q 1150 3584 1784 3584 
Q 2172 3584 2448 3432 
Q 2725 3281 2906 2969 
z
M 947 1747 
Q 947 1113 1208 752 
Q 1469 391 1925 391 
Q 2381 391 2643 752 
Q 2906 1113 2906 1747 
Q 2906 2381 2643 2742 
Q 2381 3103 1925 3103 
Q 1469 3103 1208 2742 
Q 947 2381 947 1747 
z
" transform="scale(0.015625)"/>
       <path id="DejaVuSans-20" transform="scale(0.015625)"/>
       <path id="DejaVuSans-70" d="M 1159 525 
L 1159 -1331 
L 581 -1331 
L 581 3500 
L 1159 3500 
L 1159 2969 
Q 1341 3281 1617 3432 
Q 1894 3584 2278 3584 
Q 2916 3584 3314 3078 
Q 3713 2572 3713 1747 
Q 3713 922 3314 415 
Q 2916 -91 2278 -91 
Q 1894 -91 1617 61 
Q 1341 213 1159 525 
z
M 3116 1747 
Q 3116 2381 2855 2742 
Q 2594 3103 2138 3103 
Q 1681 3103 1420 2742 
Q 1159 2381 1159 1747 
Q 1159 1113 1420 752 
Q 1681 391 2138 391 
Q 2594 391 2855 752 
Q 3116 1113 3116 1747 
z
" transform="scale(0.015625)"/>
       <path id="DejaVuSans-73" d="M 2834 3397 
L 2834 2853 
Q 2591 2978 2328 3040 
Q 2066 3103 1784 3103 
Q 1356 3103 1142 2972 
Q 928 2841 928 2578 
Q 928 2378 1081 2264 
Q 1234 2150 1697 2047 
L 1894 2003 
Q 2506 1872 2764 1633 
Q 3022 1394 3022 966 
Q 3022 478 2636 193 
Q 2250 -91 1575 -91 
Q 1294 -91 989 -36 
Q 684 19 347 128 
L 347 722 
Q 666 556 975 473 
Q 1284 391 1588 391 
Q 1994 391 2212 530 
Q 2431 669 2431 922 
Q 2431 1156 2273 1281 
Q 2116 1406 1581 1522 
L 1381 1569 
Q 847 1681 609 1914 
Q 372 2147 372 2553 
Q 372 3047 722 3315 
Q 1072 3584 1716 3584 
Q 2034 3584 2315 3537 
Q 2597 3491 2834 3397 
z
" transform="scale(0.015625)"/>
       <path id="DejaVuSans-6e" d="M 3513 2113 
L 3513 0 
L 2938 0 
L 2938 2094 
Q 2938 2591 2744 2837 
Q 2550 3084 2163 3084 
Q 1697 3084 1428 2787 
Q 1159 2491 1159 1978 
L 1159 0 
L 581 0 
L 581 3500 
L 1159 3500 
L 1159 2956 
Q 1366 3272 1645 3428 
Q 1925 3584 2291 3584 
Q 2894 3584 3203 3211 
Q 3513 2838 3513 2113 
z
" transform="scale(0.015625)"/>
      </defs>
      <use xlink:href="#DejaVuSans-4e"/>
      <use xlink:href="#DejaVuSans-75" x="74.804688"/>
      <use xlink:href="#DejaVuSans-63" x="138.183594"/>
      <use xlink:href="#DejaVuSans-6c" x="193.164062"/>
      <use xlink:href="#DejaVuSans-65" x="220.947266"/>
      <use xlink:href="#DejaVuSans-6f" x="282.470703"/>
      <use xlink:href="#DejaVuSans-74" x="343.652344"/>
      <use xlink:href="#DejaVuSans-69" x="382.861328"/>
      <use xlink:href="#DejaVuSans-64" x="410.644531"/>
      <use xlink:href="#DejaVuSans-65" x="474.121094"/>
      <use xlink:href="#DejaVuSans-20" x="535.644531"/>
      <use xlink:href="#DejaVuSans-70" x="567.431641"/>
      <use xlink:href="#DejaVuSans-6f" x="630.908203"/>
      <use xlink:href="#DejaVuSans-73" x="692.089844"/>
      <use xlink:href="#DejaVuSans-69" x="744.189453"/>
      <use xlink:href="#DejaVuSans-74" x="771.972656"/>
      <use xlink:href="#DejaVuSans-69" x="811.181641"/>
      <use xlink:href="#DejaVuSans-6f" x="838.964844"/>
      <use xlink:href="#DejaVuSans-6e" x="900.146484"/>
     </g>
    </g>
   </g>
   <g id="matplotlib.axis_2">
    <g id="ytick_1">
     <g id="line2d_9">
      <defs>
       <path id="med3633b1f7" d="M 0 0 
L -3.5 0 
" style="stroke: #000000; stroke-width: 0.8"/>
      </defs>
      <g>
       <use xlink:href="#med3633b1f7" x="57.6" y="295.488" style="stroke: #000000; stroke-width: 0.8"/>
      </g>
     </g>
     <g id="text_10">
      <!-- 0 -->
      <g transform="translate(44.2375 299.287219) scale(0.1 -0.1)">
       <use xlink:href="#DejaVuSans-30"/>
      </g>
     </g>
    </g>
    <g id="ytick_2">
     <g id="line2d_10">
      <g>
       <use xlink:href="#med3633b1f7" x="57.6" y="238.364033" style="stroke: #000000; stroke-width: 0.8"/>
      </g>
     </g>
     <g id="text_11">
      <!-- 2000 -->
      <g transform="translate(25.15 242.163252) scale(0.1 -0.1)">
       <use xlink:href="#DejaVuSans-32"/>
       <use xlink:href="#DejaVuSans-30" x="63.623047"/>
       <use xlink:href="#DejaVuSans-30" x="127.246094"/>
       <use xlink:href="#DejaVuSans-30" x="190.869141"/>
      </g>
     </g>
    </g>
    <g id="ytick_3">
     <g id="line2d_11">
      <g>
       <use xlink:href="#med3633b1f7" x="57.6" y="181.240066" style="stroke: #000000; stroke-width: 0.8"/>
      </g>
     </g>
     <g id="text_12">
      <!-- 4000 -->
      <g transform="translate(25.15 185.039285) scale(0.1 -0.1)">
       <defs>
        <path id="DejaVuSans-34" d="M 2419 4116 
L 825 1625 
L 2419 1625 
L 2419 4116 
z
M 2253 4666 
L 3047 4666 
L 3047 1625 
L 3713 1625 
L 3713 1100 
L 3047 1100 
L 3047 0 
L 2419 0 
L 2419 1100 
L 313 1100 
L 313 1709 
L 2253 4666 
z
" transform="scale(0.015625)"/>
       </defs>
       <use xlink:href="#DejaVuSans-34"/>
       <use xlink:href="#DejaVuSans-30" x="63.623047"/>
       <use xlink:href="#DejaVuSans-30" x="127.246094"/>
       <use xlink:href="#DejaVuSans-30" x="190.869141"/>
      </g>
     </g>
    </g>
    <g id="ytick_4">
     <g id="line2d_12">
      <g>
       <use xlink:href="#med3633b1f7" x="57.6" y="124.116099" style="stroke: #000000; stroke-width: 0.8"/>
      </g>
     </g>
     <g id="text_13">
      <!-- 6000 -->
      <g transform="translate(25.15 127.915318) scale(0.1 -0.1)">
       <defs>
        <path id="DejaVuSans-36" d="M 2113 2584 
Q 1688 2584 1439 2293 
Q 1191 2003 1191 1497 
Q 1191 994 1439 701 
Q 1688 409 2113 409 
Q 2538 409 2786 701 
Q 3034 994 3034 1497 
Q 3034 2003 2786 2293 
Q 2538 2584 2113 2584 
z
M 3366 4563 
L 3366 3988 
Q 3128 4100 2886 4159 
Q 2644 4219 2406 4219 
Q 1781 4219 1451 3797 
Q 1122 3375 1075 2522 
Q 1259 2794 1537 2939 
Q 1816 3084 2150 3084 
Q 2853 3084 3261 2657 
Q 3669 2231 3669 1497 
Q 3669 778 3244 343 
Q 2819 -91 2113 -91 
Q 1303 -91 875 529 
Q 447 1150 447 2328 
Q 447 3434 972 4092 
Q 1497 4750 2381 4750 
Q 2619 4750 2861 4703 
Q 3103 4656 3366 4563 
z
" transform="scale(0.015625)"/>
       </defs>
       <use xlink:href="#DejaVuSans-36"/>
       <use xlink:href="#DejaVuSans-30" x="63.623047"/>
       <use xlink:href="#DejaVuSans-30" x="127.246094"/>
       <use xlink:href="#DejaVuSans-30" x="190.869141"/>
      </g>
     </g>
    </g>
    <g id="ytick_5">
     <g id="line2d_13">
      <g>
       <use xlink:href="#med3633b1f7" x="57.6" y="66.992132" style="stroke: #000000; stroke-width: 0.8"/>
      </g>
     </g>
     <g id="text_14">
      <!-- 8000 -->
      <g transform="translate(25.15 70.791351) scale(0.1 -0.1)">
       <defs>
        <path id="DejaVuSans-38" d="M 2034 2216 
Q 1584 2216 1326 1975 
Q 1069 1734 1069 1313 
Q 1069 891 1326 650 
Q 1584 409 2034 409 
Q 2484 409 2743 651 
Q 3003 894 3003 1313 
Q 3003 1734 2745 1975 
Q 2488 2216 2034 2216 
z
M 1403 2484 
Q 997 2584 770 2862 
Q 544 3141 544 3541 
Q 544 4100 942 4425 
Q 1341 4750 2034 4750 
Q 2731 4750 3128 4425 
Q 3525 4100 3525 3541 
Q 3525 3141 3298 2862 
Q 3072 2584 2669 2484 
Q 3125 2378 3379 2068 
Q 3634 1759 3634 1313 
Q 3634 634 3220 271 
Q 2806 -91 2034 -91 
Q 1263 -91 848 271 
Q 434 634 434 1313 
Q 434 1759 690 2068 
Q 947 2378 1403 2484 
z
M 1172 3481 
Q 1172 3119 1398 2916 
Q 1625 2713 2034 2713 
Q 2441 2713 2670 2916 
Q 2900 3119 2900 3481 
Q 2900 3844 2670 4047 
Q 2441 4250 2034 4250 
Q 1625 4250 1398 4047 
Q 1172 3844 1172 3481 
z
" transform="scale(0.015625)"/>
       </defs>
       <use xlink:href="#DejaVuSans-38"/>
       <use xlink:href="#DejaVuSans-30" x="63.623047"/>
       <use xlink:href="#DejaVuSans-30" x="127.246094"/>
       <use xlink:href="#DejaVuSans-30" x="190.869141"/>
      </g>
     </g>
    </g>
    <g id="text_15">
     <!-- Coverage -->
     <g transform="translate(19.070312 198.485031) rotate(-90) scale(0.1 -0.1)">
      <defs>
       <path id="DejaVuSans-43" d="M 4122 4306 
L 4122 3641 
Q 3803 3938 3442 4084 
Q 3081 4231 2675 4231 
Q 1875 4231 1450 3742 
Q 1025 3253 1025 2328 
Q 1025 1406 1450 917 
Q 1875 428 2675 428 
Q 3081 428 3442 575 
Q 3803 722 4122 1019 
L 4122 359 
Q 3791 134 3420 21 
Q 3050 -91 2638 -91 
Q 1578 -91 968 557 
Q 359 1206 359 2328 
Q 359 3453 968 4101 
Q 1578 4750 2638 4750 
Q 3056 4750 3426 4639 
Q 3797 4528 4122 4306 
z
" transform="scale(0.015625)"/>
       <path id="DejaVuSans-76" d="M 191 3500 
L 800 3500 
L 1894 563 
L 2988 3500 
L 3597 3500 
L 2284 0 
L 1503 0 
L 191 3500 
z
" transform="scale(0.015625)"/>
       <path id="DejaVuSans-72" d="M 2631 2963 
Q 2534 3019 2420 3045 
Q 2306 3072 2169 3072 
Q 1681 3072 1420 2755 
Q 1159 2438 1159 1844 
L 1159 0 
L 581 0 
L 581 3500 
L 1159 3500 
L 1159 2956 
Q 1341 3275 1631 3429 
Q 1922 3584 2338 3584 
Q 2397 3584 2469 3576 
Q 2541 3569 2628 3553 
L 2631 2963 
z
" transform="scale(0.015625)"/>
       <path id="DejaVuSans-61" d="M 2194 1759 
Q 1497 1759 1228 1600 
Q 959 1441 959 1056 
Q 959 750 1161 570 
Q 1363 391 1709 391 
Q 2188 391 2477 730 
Q 2766 1069 2766 1631 
L 2766 1759 
L 2194 1759 
z
M 3341 1997 
L 3341 0 
L 2766 0 
L 2766 531 
Q 2569 213 2275 61 
Q 1981 -91 1556 -91 
Q 1019 -91 701 211 
Q 384 513 384 1019 
Q 384 1609 779 1909 
Q 1175 2209 1959 2209 
L 2766 2209 
L 2766 2266 
Q 2766 2663 2505 2880 
Q 2244 3097 1772 3097 
Q 1472 3097 1187 3025 
Q 903 2953 641 2809 
L 641 3341 
Q 956 3463 1253 3523 
Q 1550 3584 1831 3584 
Q 2591 3584 2966 3190 
Q 3341 2797 3341 1997 
z
" transform="scale(0.015625)"/>
       <path id="DejaVuSans-67" d="M 2906 1791 
Q 2906 2416 2648 2759 
Q 2391 3103 1925 3103 
Q 1463 3103 1205 2759 
Q 947 2416 947 1791 
Q 947 1169 1205 825 
Q 1463 481 1925 481 
Q 2391 481 2648 825 
Q 2906 1169 2906 1791 
z
M 3481 434 
Q 3481 -459 3084 -895 
Q 2688 -1331 1869 -1331 
Q 1566 -1331 1297 -1286 
Q 1028 -1241 775 -1147 
L 775 -588 
Q 1028 -725 1275 -790 
Q 1522 -856 1778 -856 
Q 2344 -856 2625 -561 
Q 2906 -266 2906 331 
L 2906 616 
Q 2728 306 2450 153 
Q 2172 0 1784 0 
Q 1141 0 747 490 
Q 353 981 353 1791 
Q 353 2603 747 3093 
Q 1141 3584 1784 3584 
Q 2172 3584 2450 3431 
Q 2728 3278 2906 2969 
L 2906 3500 
L 3481 3500 
L 3481 434 
z
" transform="scale(0.015625)"/>
      </defs>
      <use xlink:href="#DejaVuSans-43"/>
      <use xlink:href="#DejaVuSans-6f" x="69.824219"/>
      <use xlink:href="#DejaVuSans-76" x="131.005859"/>
      <use xlink:href="#DejaVuSans-65" x="190.185547"/>
      <use xlink:href="#DejaVuSans-72" x="251.708984"/>
      <use xlink:href="#DejaVuSans-61" x="292.822266"/>
      <use xlink:href="#DejaVuSans-67" x="354.101562"/>
      <use xlink:href="#DejaVuSans-65" x="417.578125"/>
     </g>
    </g>
   </g>
   <g id="line2d_14">
    <path d="M 73.832727 295.488 
L 87.55523 295.488 
L 87.599184 295.288066 
L 87.66072 295.488 
L 87.792583 295.402314 
L 87.836537 295.230942 
L 87.845328 295.488 
L 87.898073 295.488 
L 94.702184 295.488 
L 94.790092 295.288066 
L 94.807674 295.488 
L 98.499827 295.488 
L 98.53499 295.316628 
L 98.605317 295.488 
L 99.150349 295.459438 
L 99.194303 295.34519 
L 99.238257 295.488 
L 99.255839 295.488 
L 102.429333 295.488 
L 102.473287 295.288066 
L 102.534823 295.488 
L 106.226976 295.488 
L 106.262139 295.230942 
L 106.332466 295.488 
L 109.813639 295.459438 
L 109.892757 295.488 
L 109.945502 295.259504 
L 109.963083 295.20238 
L 109.989456 295.488 
L 110.015828 295.488 
L 110.543279 295.488 
L 110.604815 295.373752 
L 110.648769 295.459438 
L 110.771841 295.488 
L 111.422363 295.488 
L 111.439945 295.34519 
L 111.527853 295.488 
L 112.160794 295.488 
L 112.195957 295.288066 
L 112.266284 295.488 
L 112.486055 295.488 
L 112.530009 295.34519 
L 112.591545 295.459438 
L 118.323173 295.373752 
L 118.384709 293.003107 
L 118.3935 295.488 
L 118.428663 295.488 
L 119.791244 295.488 
L 119.826407 295.34519 
L 119.896734 295.488 
L 122.797711 295.430876 
L 122.841665 295.373752 
L 122.850456 295.488 
L 122.89441 295.488 
L 123.158136 295.459438 
L 123.20209 295.145256 
L 123.254835 295.488 
L 123.263626 295.488 
L 123.325162 295.459438 
L 123.351534 295.34519 
L 123.377907 295.488 
L 123.430652 295.488 
L 124.406435 295.488 
L 124.494343 295.173818 
L 124.511925 295.459438 
L 125.250356 295.488 
L 125.29431 295.316628 
L 125.355846 295.488 
L 125.593199 295.488 
L 125.637153 295.34519 
L 125.698689 295.459438 
L 130.788585 295.488 
L 130.894076 295.088132 
L 130.902866 295.373752 
L 130.946821 295.402314 
L 131.061102 295.488 
L 133.197276 295.430876 
L 133.214858 295.288066 
L 133.285184 295.488 
L 133.302766 295.488 
L 139.210211 295.430876 
L 139.219002 295.259504 
L 139.280538 273.89514 
L 139.289329 295.488 
L 139.324492 295.488 
L 139.684916 295.402314 
L 139.72008 295.288066 
L 139.728871 295.488 
L 139.781616 295.488 
L 141.935372 295.402314 
L 141.952953 295.373752 
L 142.02328 295.488 
L 143.025436 295.488 
L 143.060599 295.373752 
L 143.130926 295.488 
L 144.757232 295.459438 
L 144.774813 295.373752 
L 144.827558 295.488 
L 144.862722 295.488 
L 146.374746 295.488 
L 146.436282 295.373752 
L 146.480237 295.488 
L 147.746118 295.459438 
L 147.798863 295.002446 
L 147.834026 295.488 
L 147.851608 295.488 
L 147.974679 295.459438 
L 148.730692 295.373752 
L 148.748273 295.34519 
L 148.757064 295.488 
L 148.809809 295.488 
L 157.257807 295.488 
L 157.310553 294.945322 
L 157.380879 295.288066 
L 157.49516 295.488 
L 160.519209 295.488 
L 160.563164 295.34519 
L 160.6247 295.488 
L 161.653228 295.402314 
L 161.688391 295.316628 
L 161.723555 295.488 
L 161.741136 295.488 
L 163.437769 295.488 
L 163.525677 295.34519 
L 163.543259 295.488 
L 164.50146 295.402314 
L 164.536624 295.145256 
L 164.562996 295.488 
L 164.60695 295.488 
L 173.784588 295.430876 
L 173.828543 295.34519 
L 173.837333 295.488 
L 173.890078 295.459438 
L 180.483209 295.459438 
L 180.509582 294.945322 
L 180.571118 289.232926 
L 180.606281 295.488 
L 180.615072 295.488 
L 181.089777 295.459438 
L 181.177686 295.488 
L 181.256803 294.888198 
L 181.265594 294.888198 
L 181.379875 295.488 
L 183.691866 295.459438 
L 183.718239 295.316628 
L 183.744611 295.488 
L 183.797356 295.488 
L 184.992911 295.488 
L 185.080819 295.002446 
L 185.098401 295.488 
L 185.661014 295.459438 
L 185.696178 295.316628 
L 185.704969 295.488 
L 185.766505 295.488 
L 186.329118 295.488 
L 186.390654 295.316628 
L 186.434608 295.488 
L 187.515882 295.488 
L 187.559836 295.288066 
L 187.621372 295.488 
L 190.399278 295.459438 
L 190.408069 295.230942 
L 190.452023 295.488 
L 190.504768 295.488 
L 190.53114 295.488 
L 190.566304 295.373752 
L 190.63663 295.488 
L 193.168393 295.488 
L 193.212347 295.288066 
L 193.273883 295.488 
L 194.935352 295.488 
L 194.970515 295.34519 
L 195.040842 295.488 
L 195.805645 295.430876 
L 195.867181 292.917421 
L 195.884762 295.488 
L 195.911135 295.488 
L 196.236396 295.488 
L 196.271559 295.34519 
L 196.341886 295.488 
L 198.187963 295.459438 
L 198.249499 292.803174 
L 198.284662 295.488 
L 198.293453 295.488 
L 200.420836 295.402314 
L 200.482372 295.288066 
L 200.491163 295.488 
L 200.517536 295.459438 
L 201.651554 295.430876 
L 201.71309 292.631802 
L 201.721881 295.488 
L 201.757044 295.488 
L 202.513056 295.488 
L 202.557011 295.288066 
L 202.627337 295.316628 
L 202.741618 295.488 
L 203.902009 295.488 
L 203.945964 295.259504 
L 204.007499 295.488 
L 204.095408 295.488 
L 204.104199 295.373752 
L 204.12178 290.718149 
L 204.209689 295.488 
L 205.317335 295.430876 
L 205.334916 295.373752 
L 205.361289 295.488 
L 205.414034 295.488 
L 205.818413 295.459438 
L 205.941484 283.120661 
L 206.073347 281.349818 
L 206.090929 281.349818 
L 206.161255 281.121322 
L 206.20521 281.23557 
L 206.451353 281.321256 
L 206.468935 281.37838 
L 206.486517 281.349818 
L 206.609588 294.488331 
L 206.618379 294.888198 
L 206.715078 294.516893 
L 206.73266 294.545455 
L 206.864523 264.926678 
L 206.926059 264.926678 
L 206.94364 264.698182 
L 207.04034 261.042248 
L 207.057921 261.07081 
L 207.075503 261.099372 
L 207.224947 260.099702 
L 207.233738 260.21395 
L 207.268901 255.986777 
L 207.348019 256.243835 
L 207.35681 256.243835 
L 207.497463 256.90076 
L 207.506254 256.90076 
L 207.515045 257.32919 
L 207.594162 256.472331 
L 207.602953 256.586579 
L 207.611744 256.586579 
L 207.664489 254.358744 
L 207.699653 254.530116 
L 207.769979 224.939901 
L 207.813934 225.111273 
L 207.857888 224.682843 
L 207.910633 225.568264 
L 207.919424 226.196628 
L 208.007332 224.939901 
L 208.033705 224.939901 
L 208.051286 224.797091 
L 208.060077 225.311207 
L 208.09524 253.73038 
L 208.19194 253.187702 
L 208.200731 253.330512 
L 208.367756 235.136529 
L 208.473247 55.110347 
L 208.482037 55.681587 
L 208.50841 55.167471 
L 208.622691 58.166479 
L 208.649063 57.709488 
L 208.763344 53.568 
L 208.772135 53.653686 
L 208.816089 53.85362 
L 208.974325 84.929058 
L 209.088605 295.488 
L 209.580893 295.402314 
L 209.624847 295.259504 
L 209.633638 295.488 
L 209.686383 295.488 
L 209.932526 295.488 
L 209.985271 295.259504 
L 210.038016 295.488 
L 210.205042 295.402314 
L 210.28416 294.973884 
L 210.328114 295.373752 
L 210.451186 295.488 
L 216.130069 295.488 
L 216.165232 295.288066 
L 216.235559 295.488 
L 217.448695 295.459438 
L 217.457486 294.77395 
L 217.527813 295.488 
L 217.554185 295.488 
L 218.890393 295.430876 
L 218.925556 295.373752 
L 218.934347 295.488 
L 218.987092 295.488 
L 221.299083 295.488 
L 221.386992 295.20238 
L 221.404574 295.488 
L 225.167053 295.402314 
L 225.202217 295.34519 
L 225.263753 295.488 
L 226.573588 295.488 
L 226.608751 295.34519 
L 226.679078 295.488 
L 227.777933 295.459438 
L 227.944959 289.175802 
L 227.962541 289.404298 
L 228.05924 295.488 
L 228.076822 295.173818 
L 228.111985 295.173818 
L 228.226266 295.488 
L 232.771131 295.488 
L 232.806294 292.231934 
L 232.876621 295.430876 
L 233.008484 295.488 
L 234.406227 295.459438 
L 234.423809 295.316628 
L 234.476554 295.488 
L 234.511717 295.488 
L 236.656683 295.402314 
L 236.683055 295.316628 
L 236.744591 292.46043 
L 236.753382 295.459438 
L 236.788545 295.373752 
L 236.937989 295.488 
L 238.142335 295.488 
L 238.203871 295.34519 
L 238.247825 295.488 
L 241.878442 295.430876 
L 241.939978 295.20238 
L 241.948769 295.488 
L 241.975141 295.488 
L 242.467428 295.459438 
L 242.511383 295.288066 
L 242.546546 295.488 
L 242.572918 295.488 
L 243.627819 295.488 
L 243.645401 294.802512 
L 243.733309 295.488 
L 243.759682 295.459438 
L 243.84759 295.488 
L 244.964027 295.430876 
L 244.972818 295.316628 
L 245.025563 295.488 
L 245.069517 295.488 
L 245.746412 295.430876 
L 245.790366 295.259504 
L 245.799157 295.488 
L 245.851902 295.488 
L 247.425463 295.488 
L 247.460626 295.259504 
L 247.530953 295.488 
L 247.82105 295.488 
L 247.838632 295.173818 
L 247.926541 295.430876 
L 248.243011 295.488 
L 248.278174 295.173818 
L 248.348501 295.488 
L 248.700135 295.488 
L 248.744089 294.945322 
L 248.805625 295.488 
L 249.324284 295.402314 
L 249.359448 295.373752 
L 249.368238 295.488 
L 249.412193 295.488 
L 250.273695 295.488 
L 250.335231 295.373752 
L 250.379185 295.488 
L 253.412025 295.488 
L 253.438398 295.34519 
L 253.473561 289.404298 
L 253.535097 295.488 
L 253.543888 295.488 
L 253.992221 295.459438 
L 254.009802 295.373752 
L 254.036175 295.488 
L 254.097711 295.488 
L 255.811925 295.459438 
L 255.86467 295.288066 
L 255.891042 295.316628 
L 256.005323 291.260826 
L 256.014114 291.260826 
L 256.066859 290.746711 
L 256.128395 290.775273 
L 256.523983 290.689587 
L 256.541565 289.318612 
L 256.559146 292.917421 
L 256.620682 292.688926 
L 256.629473 292.688926 
L 256.752545 293.602909 
L 256.796499 293.602909 
L 256.840453 293.031669 
L 256.91078 293.288727 
L 256.972316 293.317289 
L 257.086597 293.145917 
L 257.095388 293.145917 
L 257.12176 292.374744 
L 257.148133 285.319934 
L 257.236041 287.347835 
L 257.490975 287.376397 
L 257.605256 287.633455 
L 257.64042 287.633455 
L 257.728328 288.29038 
L 257.860191 295.488 
L 257.948099 295.402314 
L 258.009635 295.288066 
L 258.018426 295.488 
L 258.044798 295.488 
L 260.251299 295.459438 
L 260.26009 293.260165 
L 260.347999 295.488 
L 260.35679 295.488 
L 263.099532 295.402314 
L 263.143486 295.145256 
L 263.152277 295.488 
L 263.205022 295.488 
L 265.464268 295.488 
L 265.499432 295.259504 
L 265.569758 295.488 
L 266.334561 295.488 
L 266.378516 295.259504 
L 266.440051 295.488 
L 266.765313 295.488 
L 266.826848 295.288066 
L 266.870803 295.488 
L 267.767468 295.459438 
L 267.78505 295.173818 
L 267.820214 295.488 
L 267.872959 295.488 
L 268.505899 295.488 
L 268.558644 293.974215 
L 268.611389 295.488 
L 270.800309 295.430876 
L 270.81789 295.288066 
L 270.853054 295.488 
L 270.905799 295.488 
L 272.136516 295.488 
L 272.215634 295.288066 
L 272.242006 295.488 
L 272.540895 295.488 
L 272.584849 295.230942 
L 272.646385 295.488 
L 274.228737 295.488 
L 274.2639 292.74605 
L 274.334227 295.488 
L 275.890205 295.488 
L 275.925369 295.373752 
L 275.995696 295.488 
L 279.265888 295.430876 
L 279.28347 295.316628 
L 279.353797 295.488 
L 279.371378 295.488 
L 279.512032 295.430876 
L 279.520823 295.34519 
L 279.582359 295.488 
L 279.617522 295.488 
L 281.472389 295.488 
L 281.525134 294.91676 
L 281.58667 295.288066 
L 281.709742 295.488 
L 285.542549 295.488 
L 285.586503 295.20238 
L 285.648039 295.488 
L 290.395093 295.488 
L 290.430256 295.173818 
L 290.500583 295.488 
L 292.9796 295.488 
L 293.023554 295.316628 
L 293.08509 295.488 
L 298.227732 295.402314 
L 298.262896 295.288066 
L 298.280477 295.430876 
L 298.324431 295.430876 
L 298.438712 295.488 
L 299.115607 295.488 
L 299.133189 295.288066 
L 299.221097 295.488 
L 299.713384 295.430876 
L 299.757339 295.316628 
L 299.77492 295.488 
L 299.818874 295.488 
L 302.763806 295.459438 
L 302.790179 295.230942 
L 302.825342 295.488 
L 302.878087 295.373752 
L 302.895669 295.373752 
L 303.00995 295.488 
L 303.11544 295.430876 
L 303.133021 295.230942 
L 303.194557 295.488 
L 303.22093 295.488 
L 304.539556 295.488 
L 304.574719 295.34519 
L 304.645046 295.488 
L 306.315306 295.402314 
L 306.350469 295.34519 
L 306.394423 295.488 
L 306.412005 295.488 
L 306.473541 295.488 
L 306.517495 295.259504 
L 306.579031 295.488 
L 307.633932 295.459438 
L 307.651514 295.05957 
L 307.71305 295.488 
L 307.748213 295.259504 
L 307.765795 295.288066 
L 307.880076 295.488 
L 309.216283 295.488 
L 309.251447 295.259504 
L 309.321773 295.488 
L 310.948079 295.488 
L 310.992033 295.20238 
L 311.053569 295.488 
L 315.405035 295.488 
L 315.44899 295.316628 
L 315.510525 295.488 
L 323.431073 295.488 
L 323.475027 295.05957 
L 323.536563 295.488 
L 324.617837 295.488 
L 324.661791 295.230942 
L 324.723327 295.488 
L 327.518814 295.459438 
L 327.562768 295.34519 
L 327.571559 295.488 
L 327.624304 295.488 
L 328.248454 295.488 
L 328.292408 295.20238 
L 328.353944 295.488 
L 329.505544 295.488 
L 329.540708 295.373752 
L 329.611034 295.488 
L 331.668091 295.430876 
L 331.703254 295.373752 
L 331.712045 295.488 
L 331.76479 295.488 
L 335.122891 295.430876 
L 335.166846 295.34519 
L 335.175637 295.488 
L 335.228382 295.488 
L 336.081093 295.488 
L 336.142629 295.373752 
L 336.186583 295.488 
L 338.102987 295.488 
L 338.13815 295.031008 
L 338.208477 295.488 
L 339.175469 295.488 
L 339.228214 293.831405 
L 339.280959 295.488 
L 343.333537 295.459438 
L 343.403864 292.517554 
L 343.439027 295.459438 
L 345.821345 295.488 
L 345.865299 295.116694 
L 345.926835 295.488 
L 346.550985 295.488 
L 346.612521 295.316628 
L 346.656475 295.488 
L 347.23667 295.488 
L 347.280624 295.230942 
L 347.34216 295.488 
L 347.474023 295.488 
L 347.491605 294.859636 
L 347.579513 295.488 
L 349.293727 295.430876 
L 349.3201 295.116694 
L 349.364054 295.459438 
L 349.399217 295.459438 
L 349.522289 295.488 
L 354.409996 295.488 
L 354.453951 292.717488 
L 354.515487 295.488 
L 356.405517 295.488 
L 356.440681 295.34519 
L 356.511007 295.488 
L 360.844892 295.488 
L 360.9328 295.316628 
L 360.950382 295.488 
L 367.314951 295.488 
L 367.341323 295.230942 
L 367.420441 295.488 
L 373.57403 295.488 
L 373.688311 295.20238 
L 373.802591 295.488 
L 374.127853 295.488 
L 374.171807 295.116694 
L 374.233343 295.488 
L 374.268506 295.459438 
L 374.347624 295.488 
L 375.842067 295.488 
L 375.87723 295.34519 
L 375.947557 295.488 
L 376.492589 295.488 
L 376.536543 295.20238 
L 376.60687 295.430876 
L 379.33203 295.488 
L 379.375985 295.05957 
L 379.43752 295.488 
L 382.523106 295.488 
L 382.558269 295.373752 
L 382.628596 295.488 
L 382.654968 295.459438 
L 382.742877 295.488 
L 386.004279 295.402314 
L 386.039442 295.088132 
L 386.065815 295.488 
L 386.109769 295.488 
L 387.771238 295.430876 
L 387.788819 295.288066 
L 387.823983 295.488 
L 387.876728 295.488 
L 390.426072 295.402314 
L 390.470026 295.373752 
L 390.496398 295.488 
L 390.51398 295.488 
L 395.252243 295.430876 
L 395.269825 295.34519 
L 395.340152 295.488 
L 395.357733 295.488 
L 395.674204 295.488 
L 395.726949 293.888529 
L 395.779694 295.488 
L 396.333517 295.488 
L 396.36868 295.373752 
L 396.439007 295.488 
L 398.487273 295.488 
L 398.487273 295.488 
" clip-path="url(#p485349eb0b)" style="fill: none; stroke: #1f77b4; stroke-width: 1.5; stroke-linecap: square"/>
   </g>
   <g id="line2d_15">
    <path d="M 205.827203 307.584 
L 205.827203 41.472 
" clip-path="url(#p485349eb0b)" style="fill: none; stroke-dasharray: 5.55,2.4; stroke-dashoffset: 0; stroke: #ff0000; stroke-width: 1.5"/>
   </g>
   <g id="line2d_16">
    <path d="M 208.974325 307.584 
L 208.974325 41.472 
" clip-path="url(#p485349eb0b)" style="fill: none; stroke-dasharray: 5.55,2.4; stroke-dashoffset: 0; stroke: #ff0000; stroke-width: 1.5"/>
   </g>
   <g id="patch_3">
    <path d="M 57.6 307.584 
L 57.6 41.472 
" style="fill: none; stroke: #000000; stroke-width: 0.8; stroke-linejoin: miter; stroke-linecap: square"/>
   </g>
   <g id="patch_4">
    <path d="M 414.72 307.584 
L 414.72 41.472 
" style="fill: none; stroke: #000000; stroke-width: 0.8; stroke-linejoin: miter; stroke-linecap: square"/>
   </g>
   <g id="patch_5">
    <path d="M 57.6 307.584 
L 414.72 307.584 
" style="fill: none; stroke: #000000; stroke-width: 0.8; stroke-linejoin: miter; stroke-linecap: square"/>
   </g>
   <g id="patch_6">
    <path d="M 57.6 41.472 
L 414.72 41.472 
" style="fill: none; stroke: #000000; stroke-width: 0.8; stroke-linejoin: miter; stroke-linecap: square"/>
   </g>
   <g id="text_16">
    <!-- Caudoviricetes sp. isolate ctzDR1 -->
    <g transform="translate(135.677813 22.034625) scale(0.12 -0.12)">
     <defs>
      <path id="DejaVuSans-2e" d="M 684 794 
L 1344 794 
L 1344 0 
L 684 0 
L 684 794 
z
" transform="scale(0.015625)"/>
      <path id="DejaVuSans-7a" d="M 353 3500 
L 3084 3500 
L 3084 2975 
L 922 459 
L 3084 459 
L 3084 0 
L 275 0 
L 275 525 
L 2438 3041 
L 353 3041 
L 353 3500 
z
" transform="scale(0.015625)"/>
      <path id="DejaVuSans-44" d="M 1259 4147 
L 1259 519 
L 2022 519 
Q 2988 519 3436 956 
Q 3884 1394 3884 2338 
Q 3884 3275 3436 3711 
Q 2988 4147 2022 4147 
L 1259 4147 
z
M 628 4666 
L 1925 4666 
Q 3281 4666 3915 4102 
Q 4550 3538 4550 2338 
Q 4550 1131 3912 565 
Q 3275 0 1925 0 
L 628 0 
L 628 4666 
z
" transform="scale(0.015625)"/>
      <path id="DejaVuSans-52" d="M 2841 2188 
Q 3044 2119 3236 1894 
Q 3428 1669 3622 1275 
L 4263 0 
L 3584 0 
L 2988 1197 
Q 2756 1666 2539 1819 
Q 2322 1972 1947 1972 
L 1259 1972 
L 1259 0 
L 628 0 
L 628 4666 
L 2053 4666 
Q 2853 4666 3247 4331 
Q 3641 3997 3641 3322 
Q 3641 2881 3436 2590 
Q 3231 2300 2841 2188 
z
M 1259 4147 
L 1259 2491 
L 2053 2491 
Q 2509 2491 2742 2702 
Q 2975 2913 2975 3322 
Q 2975 3731 2742 3939 
Q 2509 4147 2053 4147 
L 1259 4147 
z
" transform="scale(0.015625)"/>
     </defs>
     <use xlink:href="#DejaVuSans-43"/>
     <use xlink:href="#DejaVuSans-61" x="69.824219"/>
     <use xlink:href="#DejaVuSans-75" x="131.103516"/>
     <use xlink:href="#DejaVuSans-64" x="194.482422"/>
     <use xlink:href="#DejaVuSans-6f" x="257.958984"/>
     <use xlink:href="#DejaVuSans-76" x="319.140625"/>
     <use xlink:href="#DejaVuSans-69" x="378.320312"/>
     <use xlink:href="#DejaVuSans-72" x="406.103516"/>
     <use xlink:href="#DejaVuSans-69" x="447.216797"/>
     <use xlink:href="#DejaVuSans-63" x="475"/>
     <use xlink:href="#DejaVuSans-65" x="529.980469"/>
     <use xlink:href="#DejaVuSans-74" x="591.503906"/>
     <use xlink:href="#DejaVuSans-65" x="630.712891"/>
     <use xlink:href="#DejaVuSans-73" x="692.236328"/>
     <use xlink:href="#DejaVuSans-20" x="744.335938"/>
     <use xlink:href="#DejaVuSans-73" x="776.123047"/>
     <use xlink:href="#DejaVuSans-70" x="828.222656"/>
     <use xlink:href="#DejaVuSans-2e" x="891.699219"/>
     <use xlink:href="#DejaVuSans-20" x="923.486328"/>
     <use xlink:href="#DejaVuSans-69" x="955.273438"/>
     <use xlink:href="#DejaVuSans-73" x="983.056641"/>
     <use xlink:href="#DejaVuSans-6f" x="1035.15625"/>
     <use xlink:href="#DejaVuSans-6c" x="1096.337891"/>
     <use xlink:href="#DejaVuSans-61" x="1124.121094"/>
     <use xlink:href="#DejaVuSans-74" x="1185.400391"/>
     <use xlink:href="#DejaVuSans-65" x="1224.609375"/>
     <use xlink:href="#DejaVuSans-20" x="1286.132812"/>
     <use xlink:href="#DejaVuSans-63" x="1317.919922"/>
     <use xlink:href="#DejaVuSans-74" x="1372.900391"/>
     <use xlink:href="#DejaVuSans-7a" x="1412.109375"/>
     <use xlink:href="#DejaVuSans-44" x="1464.599609"/>
     <use xlink:href="#DejaVuSans-52" x="1541.601562"/>
     <use xlink:href="#DejaVuSans-31" x="1611.083984"/>
    </g>
    <!-- Total coverage: 13.39% -->
    <g transform="translate(165.5775 35.472) scale(0.12 -0.12)">
     <defs>
      <path id="DejaVuSans-54" d="M -19 4666 
L 3928 4666 
L 3928 4134 
L 2272 4134 
L 2272 0 
L 1638 0 
L 1638 4134 
L -19 4134 
L -19 4666 
z
" transform="scale(0.015625)"/>
      <path id="DejaVuSans-3a" d="M 750 794 
L 1409 794 
L 1409 0 
L 750 0 
L 750 794 
z
M 750 3309 
L 1409 3309 
L 1409 2516 
L 750 2516 
L 750 3309 
z
" transform="scale(0.015625)"/>
      <path id="DejaVuSans-39" d="M 703 97 
L 703 672 
Q 941 559 1184 500 
Q 1428 441 1663 441 
Q 2288 441 2617 861 
Q 2947 1281 2994 2138 
Q 2813 1869 2534 1725 
Q 2256 1581 1919 1581 
Q 1219 1581 811 2004 
Q 403 2428 403 3163 
Q 403 3881 828 4315 
Q 1253 4750 1959 4750 
Q 2769 4750 3195 4129 
Q 3622 3509 3622 2328 
Q 3622 1225 3098 567 
Q 2575 -91 1691 -91 
Q 1453 -91 1209 -44 
Q 966 3 703 97 
z
M 1959 2075 
Q 2384 2075 2632 2365 
Q 2881 2656 2881 3163 
Q 2881 3666 2632 3958 
Q 2384 4250 1959 4250 
Q 1534 4250 1286 3958 
Q 1038 3666 1038 3163 
Q 1038 2656 1286 2365 
Q 1534 2075 1959 2075 
z
" transform="scale(0.015625)"/>
      <path id="DejaVuSans-25" d="M 4653 2053 
Q 4381 2053 4226 1822 
Q 4072 1591 4072 1178 
Q 4072 772 4226 539 
Q 4381 306 4653 306 
Q 4919 306 5073 539 
Q 5228 772 5228 1178 
Q 5228 1588 5073 1820 
Q 4919 2053 4653 2053 
z
M 4653 2450 
Q 5147 2450 5437 2106 
Q 5728 1763 5728 1178 
Q 5728 594 5436 251 
Q 5144 -91 4653 -91 
Q 4153 -91 3862 251 
Q 3572 594 3572 1178 
Q 3572 1766 3864 2108 
Q 4156 2450 4653 2450 
z
M 1428 4353 
Q 1159 4353 1004 4120 
Q 850 3888 850 3481 
Q 850 3069 1003 2837 
Q 1156 2606 1428 2606 
Q 1700 2606 1854 2837 
Q 2009 3069 2009 3481 
Q 2009 3884 1853 4118 
Q 1697 4353 1428 4353 
z
M 4250 4750 
L 4750 4750 
L 1831 -91 
L 1331 -91 
L 4250 4750 
z
M 1428 4750 
Q 1922 4750 2215 4408 
Q 2509 4066 2509 3481 
Q 2509 2891 2217 2550 
Q 1925 2209 1428 2209 
Q 931 2209 642 2551 
Q 353 2894 353 3481 
Q 353 4063 643 4406 
Q 934 4750 1428 4750 
z
" transform="scale(0.015625)"/>
     </defs>
     <use xlink:href="#DejaVuSans-54"/>
     <use xlink:href="#DejaVuSans-6f" x="44.083984"/>
     <use xlink:href="#DejaVuSans-74" x="105.265625"/>
     <use xlink:href="#DejaVuSans-61" x="144.474609"/>
     <use xlink:href="#DejaVuSans-6c" x="205.753906"/>
     <use xlink:href="#DejaVuSans-20" x="233.537109"/>
     <use xlink:href="#DejaVuSans-63" x="265.324219"/>
     <use xlink:href="#DejaVuSans-6f" x="320.304688"/>
     <use xlink:href="#DejaVuSans-76" x="381.486328"/>
     <use xlink:href="#DejaVuSans-65" x="440.666016"/>
     <use xlink:href="#DejaVuSans-72" x="502.189453"/>
     <use xlink:href="#DejaVuSans-61" x="543.302734"/>
     <use xlink:href="#DejaVuSans-67" x="604.582031"/>
     <use xlink:href="#DejaVuSans-65" x="668.058594"/>
     <use xlink:href="#DejaVuSans-3a" x="729.582031"/>
     <use xlink:href="#DejaVuSans-20" x="763.273438"/>
     <use xlink:href="#DejaVuSans-31" x="795.060547"/>
     <use xlink:href="#DejaVuSans-33" x="858.683594"/>
     <use xlink:href="#DejaVuSans-2e" x="922.306641"/>
     <use xlink:href="#DejaVuSans-33" x="954.09375"/>
     <use xlink:href="#DejaVuSans-39" x="1017.716797"/>
     <use xlink:href="#DejaVuSans-25" x="1081.339844"/>
    </g>
   </g>
  </g>
 </g>
 <defs>
  <clipPath id="p485349eb0b">
   <rect x="57.6" y="41.472" width="357.12" height="266.112"/>
  </clipPath>
 </defs>
</svg>
