<?xml version="1.0" encoding="utf-8" standalone="no"?>
<!DOCTYPE svg PUBLIC "-//W3C//DTD SVG 1.1//EN"
  "http://www.w3.org/Graphics/SVG/1.1/DTD/svg11.dtd">
<svg xmlns:xlink="http://www.w3.org/1999/xlink" width="460.8pt" height="345.6pt" viewBox="0 0 460.8 345.6" xmlns="http://www.w3.org/2000/svg" version="1.1">
 <metadata>
  <rdf:RDF xmlns:dc="http://purl.org/dc/elements/1.1/" xmlns:cc="http://creativecommons.org/ns#" xmlns:rdf="http://www.w3.org/1999/02/22-rdf-syntax-ns#">
   <cc:Work>
    <dc:type rdf:resource="http://purl.org/dc/dcmitype/StillImage"/>
    <dc:date>2024-10-08T01:38:00.409605</dc:date>
    <dc:format>image/svg+xml</dc:format>
    <dc:creator>
     <cc:Agent>
      <dc:title>Matplotlib v3.9.1.post1, https://matplotlib.org/</dc:title>
     </cc:Agent>
    </dc:creator>
   </cc:Work>
  </rdf:RDF>
 </metadata>
 <defs>
  <style type="text/css">*{stroke-linejoin: round; stroke-linecap: butt}</style>
 </defs>
 <g id="figure_1">
  <g id="patch_1">
   <path d="M 0 345.6 
L 460.8 345.6 
L 460.8 0 
L 0 0 
z
" style="fill: #ffffff"/>
  </g>
  <g id="axes_1">
   <g id="patch_2">
    <path d="M 57.6 307.584 
L 414.72 307.584 
L 414.72 41.472 
L 57.6 41.472 
z
" style="fill: #ffffff"/>
   </g>
   <g id="PolyCollection_1"/>
   <g id="matplotlib.axis_1">
    <g id="xtick_1">
     <g id="line2d_1">
      <defs>
       <path id="m1c509f07a3" d="M 0 0 
L 0 3.5 
" style="stroke: #000000; stroke-width: 0.8"/>
      </defs>
      <g>
       <use xlink:href="#m1c509f07a3" x="73.832668" y="307.584" style="stroke: #000000; stroke-width: 0.8"/>
      </g>
     </g>
     <g id="text_1">
      <!-- 0 -->
      <g transform="translate(70.651418 322.182437) scale(0.1 -0.1)">
       <defs>
        <path id="DejaVuSans-30" d="M 2034 4250 
Q 1547 4250 1301 3770 
Q 1056 3291 1056 2328 
Q 1056 1369 1301 889 
Q 1547 409 2034 409 
Q 2525 409 2770 889 
Q 3016 1369 3016 2328 
Q 3016 3291 2770 3770 
Q 2525 4250 2034 4250 
z
M 2034 4750 
Q 2819 4750 3233 4129 
Q 3647 3509 3647 2328 
Q 3647 1150 3233 529 
Q 2819 -91 2034 -91 
Q 1250 -91 836 529 
Q 422 1150 422 2328 
Q 422 3509 836 4129 
Q 1250 4750 2034 4750 
z
" transform="scale(0.015625)"/>
       </defs>
       <use xlink:href="#DejaVuSans-30"/>
      </g>
     </g>
    </g>
    <g id="xtick_2">
     <g id="line2d_2">
      <g>
       <use xlink:href="#m1c509f07a3" x="132.734974" y="307.584" style="stroke: #000000; stroke-width: 0.8"/>
      </g>
     </g>
     <g id="text_2">
      <!-- 1 -->
      <g transform="translate(129.553724 322.182437) scale(0.1 -0.1)">
       <defs>
        <path id="DejaVuSans-31" d="M 794 531 
L 1825 531 
L 1825 4091 
L 703 3866 
L 703 4441 
L 1819 4666 
L 2450 4666 
L 2450 531 
L 3481 531 
L 3481 0 
L 794 0 
L 794 531 
z
" transform="scale(0.015625)"/>
       </defs>
       <use xlink:href="#DejaVuSans-31"/>
      </g>
     </g>
    </g>
    <g id="xtick_3">
     <g id="line2d_3">
      <g>
       <use xlink:href="#m1c509f07a3" x="191.637279" y="307.584" style="stroke: #000000; stroke-width: 0.8"/>
      </g>
     </g>
     <g id="text_3">
      <!-- 2 -->
      <g transform="translate(188.456029 322.182437) scale(0.1 -0.1)">
       <defs>
        <path id="DejaVuSans-32" d="M 1228 531 
L 3431 531 
L 3431 0 
L 469 0 
L 469 531 
Q 828 903 1448 1529 
Q 2069 2156 2228 2338 
Q 2531 2678 2651 2914 
Q 2772 3150 2772 3378 
Q 2772 3750 2511 3984 
Q 2250 4219 1831 4219 
Q 1534 4219 1204 4116 
Q 875 4013 500 3803 
L 500 4441 
Q 881 4594 1212 4672 
Q 1544 4750 1819 4750 
Q 2544 4750 2975 4387 
Q 3406 4025 3406 3419 
Q 3406 3131 3298 2873 
Q 3191 2616 2906 2266 
Q 2828 2175 2409 1742 
Q 1991 1309 1228 531 
z
" transform="scale(0.015625)"/>
       </defs>
       <use xlink:href="#DejaVuSans-32"/>
      </g>
     </g>
    </g>
    <g id="xtick_4">
     <g id="line2d_4">
      <g>
       <use xlink:href="#m1c509f07a3" x="250.539584" y="307.584" style="stroke: #000000; stroke-width: 0.8"/>
      </g>
     </g>
     <g id="text_4">
      <!-- 3 -->
      <g transform="translate(247.358334 322.182437) scale(0.1 -0.1)">
       <defs>
        <path id="DejaVuSans-33" d="M 2597 2516 
Q 3050 2419 3304 2112 
Q 3559 1806 3559 1356 
Q 3559 666 3084 287 
Q 2609 -91 1734 -91 
Q 1441 -91 1130 -33 
Q 819 25 488 141 
L 488 750 
Q 750 597 1062 519 
Q 1375 441 1716 441 
Q 2309 441 2620 675 
Q 2931 909 2931 1356 
Q 2931 1769 2642 2001 
Q 2353 2234 1838 2234 
L 1294 2234 
L 1294 2753 
L 1863 2753 
Q 2328 2753 2575 2939 
Q 2822 3125 2822 3475 
Q 2822 3834 2567 4026 
Q 2313 4219 1838 4219 
Q 1578 4219 1281 4162 
Q 984 4106 628 3988 
L 628 4550 
Q 988 4650 1302 4700 
Q 1616 4750 1894 4750 
Q 2613 4750 3031 4423 
Q 3450 4097 3450 3541 
Q 3450 3153 3228 2886 
Q 3006 2619 2597 2516 
z
" transform="scale(0.015625)"/>
       </defs>
       <use xlink:href="#DejaVuSans-33"/>
      </g>
     </g>
    </g>
    <g id="xtick_5">
     <g id="line2d_5">
      <g>
       <use xlink:href="#m1c509f07a3" x="309.441889" y="307.584" style="stroke: #000000; stroke-width: 0.8"/>
      </g>
     </g>
     <g id="text_5">
      <!-- 4 -->
      <g transform="translate(306.260639 322.182437) scale(0.1 -0.1)">
       <defs>
        <path id="DejaVuSans-34" d="M 2419 4116 
L 825 1625 
L 2419 1625 
L 2419 4116 
z
M 2253 4666 
L 3047 4666 
L 3047 1625 
L 3713 1625 
L 3713 1100 
L 3047 1100 
L 3047 0 
L 2419 0 
L 2419 1100 
L 313 1100 
L 313 1709 
L 2253 4666 
z
" transform="scale(0.015625)"/>
       </defs>
       <use xlink:href="#DejaVuSans-34"/>
      </g>
     </g>
    </g>
    <g id="xtick_6">
     <g id="line2d_6">
      <g>
       <use xlink:href="#m1c509f07a3" x="368.344195" y="307.584" style="stroke: #000000; stroke-width: 0.8"/>
      </g>
     </g>
     <g id="text_6">
      <!-- 5 -->
      <g transform="translate(365.162945 322.182437) scale(0.1 -0.1)">
       <defs>
        <path id="DejaVuSans-35" d="M 691 4666 
L 3169 4666 
L 3169 4134 
L 1269 4134 
L 1269 2991 
Q 1406 3038 1543 3061 
Q 1681 3084 1819 3084 
Q 2600 3084 3056 2656 
Q 3513 2228 3513 1497 
Q 3513 744 3044 326 
Q 2575 -91 1722 -91 
Q 1428 -91 1123 -41 
Q 819 9 494 109 
L 494 744 
Q 775 591 1075 516 
Q 1375 441 1709 441 
Q 2250 441 2565 725 
Q 2881 1009 2881 1497 
Q 2881 1984 2565 2268 
Q 2250 2553 1709 2553 
Q 1456 2553 1204 2497 
Q 953 2441 691 2322 
L 691 4666 
z
" transform="scale(0.015625)"/>
       </defs>
       <use xlink:href="#DejaVuSans-35"/>
      </g>
     </g>
    </g>
    <g id="text_7">
     <!-- Nucleotide position -->
     <g transform="translate(187.982656 335.860562) scale(0.1 -0.1)">
      <defs>
       <path id="DejaVuSans-4e" d="M 628 4666 
L 1478 4666 
L 3547 763 
L 3547 4666 
L 4159 4666 
L 4159 0 
L 3309 0 
L 1241 3903 
L 1241 0 
L 628 0 
L 628 4666 
z
" transform="scale(0.015625)"/>
       <path id="DejaVuSans-75" d="M 544 1381 
L 544 3500 
L 1119 3500 
L 1119 1403 
Q 1119 906 1312 657 
Q 1506 409 1894 409 
Q 2359 409 2629 706 
Q 2900 1003 2900 1516 
L 2900 3500 
L 3475 3500 
L 3475 0 
L 2900 0 
L 2900 538 
Q 2691 219 2414 64 
Q 2138 -91 1772 -91 
Q 1169 -91 856 284 
Q 544 659 544 1381 
z
M 1991 3584 
L 1991 3584 
z
" transform="scale(0.015625)"/>
       <path id="DejaVuSans-63" d="M 3122 3366 
L 3122 2828 
Q 2878 2963 2633 3030 
Q 2388 3097 2138 3097 
Q 1578 3097 1268 2742 
Q 959 2388 959 1747 
Q 959 1106 1268 751 
Q 1578 397 2138 397 
Q 2388 397 2633 464 
Q 2878 531 3122 666 
L 3122 134 
Q 2881 22 2623 -34 
Q 2366 -91 2075 -91 
Q 1284 -91 818 406 
Q 353 903 353 1747 
Q 353 2603 823 3093 
Q 1294 3584 2113 3584 
Q 2378 3584 2631 3529 
Q 2884 3475 3122 3366 
z
" transform="scale(0.015625)"/>
       <path id="DejaVuSans-6c" d="M 603 4863 
L 1178 4863 
L 1178 0 
L 603 0 
L 603 4863 
z
" transform="scale(0.015625)"/>
       <path id="DejaVuSans-65" d="M 3597 1894 
L 3597 1613 
L 953 1613 
Q 991 1019 1311 708 
Q 1631 397 2203 397 
Q 2534 397 2845 478 
Q 3156 559 3463 722 
L 3463 178 
Q 3153 47 2828 -22 
Q 2503 -91 2169 -91 
Q 1331 -91 842 396 
Q 353 884 353 1716 
Q 353 2575 817 3079 
Q 1281 3584 2069 3584 
Q 2775 3584 3186 3129 
Q 3597 2675 3597 1894 
z
M 3022 2063 
Q 3016 2534 2758 2815 
Q 2500 3097 2075 3097 
Q 1594 3097 1305 2825 
Q 1016 2553 972 2059 
L 3022 2063 
z
" transform="scale(0.015625)"/>
       <path id="DejaVuSans-6f" d="M 1959 3097 
Q 1497 3097 1228 2736 
Q 959 2375 959 1747 
Q 959 1119 1226 758 
Q 1494 397 1959 397 
Q 2419 397 2687 759 
Q 2956 1122 2956 1747 
Q 2956 2369 2687 2733 
Q 2419 3097 1959 3097 
z
M 1959 3584 
Q 2709 3584 3137 3096 
Q 3566 2609 3566 1747 
Q 3566 888 3137 398 
Q 2709 -91 1959 -91 
Q 1206 -91 779 398 
Q 353 888 353 1747 
Q 353 2609 779 3096 
Q 1206 3584 1959 3584 
z
" transform="scale(0.015625)"/>
       <path id="DejaVuSans-74" d="M 1172 4494 
L 1172 3500 
L 2356 3500 
L 2356 3053 
L 1172 3053 
L 1172 1153 
Q 1172 725 1289 603 
Q 1406 481 1766 481 
L 2356 481 
L 2356 0 
L 1766 0 
Q 1100 0 847 248 
Q 594 497 594 1153 
L 594 3053 
L 172 3053 
L 172 3500 
L 594 3500 
L 594 4494 
L 1172 4494 
z
" transform="scale(0.015625)"/>
       <path id="DejaVuSans-69" d="M 603 3500 
L 1178 3500 
L 1178 0 
L 603 0 
L 603 3500 
z
M 603 4863 
L 1178 4863 
L 1178 4134 
L 603 4134 
L 603 4863 
z
" transform="scale(0.015625)"/>
       <path id="DejaVuSans-64" d="M 2906 2969 
L 2906 4863 
L 3481 4863 
L 3481 0 
L 2906 0 
L 2906 525 
Q 2725 213 2448 61 
Q 2172 -91 1784 -91 
Q 1150 -91 751 415 
Q 353 922 353 1747 
Q 353 2572 751 3078 
Q 1150 3584 1784 3584 
Q 2172 3584 2448 3432 
Q 2725 3281 2906 2969 
z
M 947 1747 
Q 947 1113 1208 752 
Q 1469 391 1925 391 
Q 2381 391 2643 752 
Q 2906 1113 2906 1747 
Q 2906 2381 2643 2742 
Q 2381 3103 1925 3103 
Q 1469 3103 1208 2742 
Q 947 2381 947 1747 
z
" transform="scale(0.015625)"/>
       <path id="DejaVuSans-20" transform="scale(0.015625)"/>
       <path id="DejaVuSans-70" d="M 1159 525 
L 1159 -1331 
L 581 -1331 
L 581 3500 
L 1159 3500 
L 1159 2969 
Q 1341 3281 1617 3432 
Q 1894 3584 2278 3584 
Q 2916 3584 3314 3078 
Q 3713 2572 3713 1747 
Q 3713 922 3314 415 
Q 2916 -91 2278 -91 
Q 1894 -91 1617 61 
Q 1341 213 1159 525 
z
M 3116 1747 
Q 3116 2381 2855 2742 
Q 2594 3103 2138 3103 
Q 1681 3103 1420 2742 
Q 1159 2381 1159 1747 
Q 1159 1113 1420 752 
Q 1681 391 2138 391 
Q 2594 391 2855 752 
Q 3116 1113 3116 1747 
z
" transform="scale(0.015625)"/>
       <path id="DejaVuSans-73" d="M 2834 3397 
L 2834 2853 
Q 2591 2978 2328 3040 
Q 2066 3103 1784 3103 
Q 1356 3103 1142 2972 
Q 928 2841 928 2578 
Q 928 2378 1081 2264 
Q 1234 2150 1697 2047 
L 1894 2003 
Q 2506 1872 2764 1633 
Q 3022 1394 3022 966 
Q 3022 478 2636 193 
Q 2250 -91 1575 -91 
Q 1294 -91 989 -36 
Q 684 19 347 128 
L 347 722 
Q 666 556 975 473 
Q 1284 391 1588 391 
Q 1994 391 2212 530 
Q 2431 669 2431 922 
Q 2431 1156 2273 1281 
Q 2116 1406 1581 1522 
L 1381 1569 
Q 847 1681 609 1914 
Q 372 2147 372 2553 
Q 372 3047 722 3315 
Q 1072 3584 1716 3584 
Q 2034 3584 2315 3537 
Q 2597 3491 2834 3397 
z
" transform="scale(0.015625)"/>
       <path id="DejaVuSans-6e" d="M 3513 2113 
L 3513 0 
L 2938 0 
L 2938 2094 
Q 2938 2591 2744 2837 
Q 2550 3084 2163 3084 
Q 1697 3084 1428 2787 
Q 1159 2491 1159 1978 
L 1159 0 
L 581 0 
L 581 3500 
L 1159 3500 
L 1159 2956 
Q 1366 3272 1645 3428 
Q 1925 3584 2291 3584 
Q 2894 3584 3203 3211 
Q 3513 2838 3513 2113 
z
" transform="scale(0.015625)"/>
      </defs>
      <use xlink:href="#DejaVuSans-4e"/>
      <use xlink:href="#DejaVuSans-75" x="74.804688"/>
      <use xlink:href="#DejaVuSans-63" x="138.183594"/>
      <use xlink:href="#DejaVuSans-6c" x="193.164062"/>
      <use xlink:href="#DejaVuSans-65" x="220.947266"/>
      <use xlink:href="#DejaVuSans-6f" x="282.470703"/>
      <use xlink:href="#DejaVuSans-74" x="343.652344"/>
      <use xlink:href="#DejaVuSans-69" x="382.861328"/>
      <use xlink:href="#DejaVuSans-64" x="410.644531"/>
      <use xlink:href="#DejaVuSans-65" x="474.121094"/>
      <use xlink:href="#DejaVuSans-20" x="535.644531"/>
      <use xlink:href="#DejaVuSans-70" x="567.431641"/>
      <use xlink:href="#DejaVuSans-6f" x="630.908203"/>
      <use xlink:href="#DejaVuSans-73" x="692.089844"/>
      <use xlink:href="#DejaVuSans-69" x="744.189453"/>
      <use xlink:href="#DejaVuSans-74" x="771.972656"/>
      <use xlink:href="#DejaVuSans-69" x="811.181641"/>
      <use xlink:href="#DejaVuSans-6f" x="838.964844"/>
      <use xlink:href="#DejaVuSans-6e" x="900.146484"/>
     </g>
    </g>
    <g id="text_8">
     <!-- 1e6 -->
     <g transform="translate(395.841875 334.860562) scale(0.1 -0.1)">
      <defs>
       <path id="DejaVuSans-36" d="M 2113 2584 
Q 1688 2584 1439 2293 
Q 1191 2003 1191 1497 
Q 1191 994 1439 701 
Q 1688 409 2113 409 
Q 2538 409 2786 701 
Q 3034 994 3034 1497 
Q 3034 2003 2786 2293 
Q 2538 2584 2113 2584 
z
M 3366 4563 
L 3366 3988 
Q 3128 4100 2886 4159 
Q 2644 4219 2406 4219 
Q 1781 4219 1451 3797 
Q 1122 3375 1075 2522 
Q 1259 2794 1537 2939 
Q 1816 3084 2150 3084 
Q 2853 3084 3261 2657 
Q 3669 2231 3669 1497 
Q 3669 778 3244 343 
Q 2819 -91 2113 -91 
Q 1303 -91 875 529 
Q 447 1150 447 2328 
Q 447 3434 972 4092 
Q 1497 4750 2381 4750 
Q 2619 4750 2861 4703 
Q 3103 4656 3366 4563 
z
" transform="scale(0.015625)"/>
      </defs>
      <use xlink:href="#DejaVuSans-31"/>
      <use xlink:href="#DejaVuSans-65" x="63.623047"/>
      <use xlink:href="#DejaVuSans-36" x="125.146484"/>
     </g>
    </g>
   </g>
   <g id="matplotlib.axis_2">
    <g id="ytick_1">
     <g id="line2d_7">
      <defs>
       <path id="m5c9eb71d1a" d="M 0 0 
L -3.5 0 
" style="stroke: #000000; stroke-width: 0.8"/>
      </defs>
      <g>
       <use xlink:href="#m5c9eb71d1a" x="57.6" y="295.488" style="stroke: #000000; stroke-width: 0.8"/>
      </g>
     </g>
     <g id="text_9">
      <!-- 0 -->
      <g transform="translate(44.2375 299.287219) scale(0.1 -0.1)">
       <use xlink:href="#DejaVuSans-30"/>
      </g>
     </g>
    </g>
    <g id="ytick_2">
     <g id="line2d_8">
      <g>
       <use xlink:href="#m5c9eb71d1a" x="57.6" y="255.815976" style="stroke: #000000; stroke-width: 0.8"/>
      </g>
     </g>
     <g id="text_10">
      <!-- 500 -->
      <g transform="translate(31.5125 259.615195) scale(0.1 -0.1)">
       <use xlink:href="#DejaVuSans-35"/>
       <use xlink:href="#DejaVuSans-30" x="63.623047"/>
       <use xlink:href="#DejaVuSans-30" x="127.246094"/>
      </g>
     </g>
    </g>
    <g id="ytick_3">
     <g id="line2d_9">
      <g>
       <use xlink:href="#m5c9eb71d1a" x="57.6" y="216.143953" style="stroke: #000000; stroke-width: 0.8"/>
      </g>
     </g>
     <g id="text_11">
      <!-- 1000 -->
      <g transform="translate(25.15 219.943172) scale(0.1 -0.1)">
       <use xlink:href="#DejaVuSans-31"/>
       <use xlink:href="#DejaVuSans-30" x="63.623047"/>
       <use xlink:href="#DejaVuSans-30" x="127.246094"/>
       <use xlink:href="#DejaVuSans-30" x="190.869141"/>
      </g>
     </g>
    </g>
    <g id="ytick_4">
     <g id="line2d_10">
      <g>
       <use xlink:href="#m5c9eb71d1a" x="57.6" y="176.471929" style="stroke: #000000; stroke-width: 0.8"/>
      </g>
     </g>
     <g id="text_12">
      <!-- 1500 -->
      <g transform="translate(25.15 180.271148) scale(0.1 -0.1)">
       <use xlink:href="#DejaVuSans-31"/>
       <use xlink:href="#DejaVuSans-35" x="63.623047"/>
       <use xlink:href="#DejaVuSans-30" x="127.246094"/>
       <use xlink:href="#DejaVuSans-30" x="190.869141"/>
      </g>
     </g>
    </g>
    <g id="ytick_5">
     <g id="line2d_11">
      <g>
       <use xlink:href="#m5c9eb71d1a" x="57.6" y="136.799906" style="stroke: #000000; stroke-width: 0.8"/>
      </g>
     </g>
     <g id="text_13">
      <!-- 2000 -->
      <g transform="translate(25.15 140.599124) scale(0.1 -0.1)">
       <use xlink:href="#DejaVuSans-32"/>
       <use xlink:href="#DejaVuSans-30" x="63.623047"/>
       <use xlink:href="#DejaVuSans-30" x="127.246094"/>
       <use xlink:href="#DejaVuSans-30" x="190.869141"/>
      </g>
     </g>
    </g>
    <g id="ytick_6">
     <g id="line2d_12">
      <g>
       <use xlink:href="#m5c9eb71d1a" x="57.6" y="97.127882" style="stroke: #000000; stroke-width: 0.8"/>
      </g>
     </g>
     <g id="text_14">
      <!-- 2500 -->
      <g transform="translate(25.15 100.927101) scale(0.1 -0.1)">
       <use xlink:href="#DejaVuSans-32"/>
       <use xlink:href="#DejaVuSans-35" x="63.623047"/>
       <use xlink:href="#DejaVuSans-30" x="127.246094"/>
       <use xlink:href="#DejaVuSans-30" x="190.869141"/>
      </g>
     </g>
    </g>
    <g id="ytick_7">
     <g id="line2d_13">
      <g>
       <use xlink:href="#m5c9eb71d1a" x="57.6" y="57.455858" style="stroke: #000000; stroke-width: 0.8"/>
      </g>
     </g>
     <g id="text_15">
      <!-- 3000 -->
      <g transform="translate(25.15 61.255077) scale(0.1 -0.1)">
       <use xlink:href="#DejaVuSans-33"/>
       <use xlink:href="#DejaVuSans-30" x="63.623047"/>
       <use xlink:href="#DejaVuSans-30" x="127.246094"/>
       <use xlink:href="#DejaVuSans-30" x="190.869141"/>
      </g>
     </g>
    </g>
    <g id="text_16">
     <!-- Coverage -->
     <g transform="translate(19.070312 198.485031) rotate(-90) scale(0.1 -0.1)">
      <defs>
       <path id="DejaVuSans-43" d="M 4122 4306 
L 4122 3641 
Q 3803 3938 3442 4084 
Q 3081 4231 2675 4231 
Q 1875 4231 1450 3742 
Q 1025 3253 1025 2328 
Q 1025 1406 1450 917 
Q 1875 428 2675 428 
Q 3081 428 3442 575 
Q 3803 722 4122 1019 
L 4122 359 
Q 3791 134 3420 21 
Q 3050 -91 2638 -91 
Q 1578 -91 968 557 
Q 359 1206 359 2328 
Q 359 3453 968 4101 
Q 1578 4750 2638 4750 
Q 3056 4750 3426 4639 
Q 3797 4528 4122 4306 
z
" transform="scale(0.015625)"/>
       <path id="DejaVuSans-76" d="M 191 3500 
L 800 3500 
L 1894 563 
L 2988 3500 
L 3597 3500 
L 2284 0 
L 1503 0 
L 191 3500 
z
" transform="scale(0.015625)"/>
       <path id="DejaVuSans-72" d="M 2631 2963 
Q 2534 3019 2420 3045 
Q 2306 3072 2169 3072 
Q 1681 3072 1420 2755 
Q 1159 2438 1159 1844 
L 1159 0 
L 581 0 
L 581 3500 
L 1159 3500 
L 1159 2956 
Q 1341 3275 1631 3429 
Q 1922 3584 2338 3584 
Q 2397 3584 2469 3576 
Q 2541 3569 2628 3553 
L 2631 2963 
z
" transform="scale(0.015625)"/>
       <path id="DejaVuSans-61" d="M 2194 1759 
Q 1497 1759 1228 1600 
Q 959 1441 959 1056 
Q 959 750 1161 570 
Q 1363 391 1709 391 
Q 2188 391 2477 730 
Q 2766 1069 2766 1631 
L 2766 1759 
L 2194 1759 
z
M 3341 1997 
L 3341 0 
L 2766 0 
L 2766 531 
Q 2569 213 2275 61 
Q 1981 -91 1556 -91 
Q 1019 -91 701 211 
Q 384 513 384 1019 
Q 384 1609 779 1909 
Q 1175 2209 1959 2209 
L 2766 2209 
L 2766 2266 
Q 2766 2663 2505 2880 
Q 2244 3097 1772 3097 
Q 1472 3097 1187 3025 
Q 903 2953 641 2809 
L 641 3341 
Q 956 3463 1253 3523 
Q 1550 3584 1831 3584 
Q 2591 3584 2966 3190 
Q 3341 2797 3341 1997 
z
" transform="scale(0.015625)"/>
       <path id="DejaVuSans-67" d="M 2906 1791 
Q 2906 2416 2648 2759 
Q 2391 3103 1925 3103 
Q 1463 3103 1205 2759 
Q 947 2416 947 1791 
Q 947 1169 1205 825 
Q 1463 481 1925 481 
Q 2391 481 2648 825 
Q 2906 1169 2906 1791 
z
M 3481 434 
Q 3481 -459 3084 -895 
Q 2688 -1331 1869 -1331 
Q 1566 -1331 1297 -1286 
Q 1028 -1241 775 -1147 
L 775 -588 
Q 1028 -725 1275 -790 
Q 1522 -856 1778 -856 
Q 2344 -856 2625 -561 
Q 2906 -266 2906 331 
L 2906 616 
Q 2728 306 2450 153 
Q 2172 0 1784 0 
Q 1141 0 747 490 
Q 353 981 353 1791 
Q 353 2603 747 3093 
Q 1141 3584 1784 3584 
Q 2172 3584 2450 3431 
Q 2728 3278 2906 2969 
L 2906 3500 
L 3481 3500 
L 3481 434 
z
" transform="scale(0.015625)"/>
      </defs>
      <use xlink:href="#DejaVuSans-43"/>
      <use xlink:href="#DejaVuSans-6f" x="69.824219"/>
      <use xlink:href="#DejaVuSans-76" x="131.005859"/>
      <use xlink:href="#DejaVuSans-65" x="190.185547"/>
      <use xlink:href="#DejaVuSans-72" x="251.708984"/>
      <use xlink:href="#DejaVuSans-61" x="292.822266"/>
      <use xlink:href="#DejaVuSans-67" x="354.101562"/>
      <use xlink:href="#DejaVuSans-65" x="417.578125"/>
     </g>
    </g>
   </g>
   <g id="line2d_14">
    <path d="M 73.832727 295.488 
L 73.914896 295.488 
L 73.915014 295.329312 
L 74.025986 295.488 
L 74.363378 295.488 
L 74.36379 295.249968 
L 74.474468 295.488 
L 74.883544 295.488 
L 74.883957 295.329312 
L 74.994634 295.488 
L 75.024498 295.488 
L 75.02491 295.249968 
L 75.135587 295.488 
L 75.373376 295.488 
L 75.373788 295.249968 
L 75.484466 295.488 
L 76.343261 295.488 
L 76.343674 295.329312 
L 76.454351 295.488 
L 76.564322 295.408656 
L 76.565441 295.488 
L 76.757698 295.408656 
L 76.839278 295.249968 
L 76.758169 295.488 
L 76.868729 295.488 
L 76.917323 295.488 
L 76.936231 295.329312 
L 77.028413 295.488 
L 77.660376 295.488 
L 77.660788 295.170624 
L 77.771466 295.488 
L 79.223996 295.488 
L 79.300216 295.329312 
L 79.335086 295.488 
L 79.604859 295.488 
L 79.66971 295.249968 
L 79.715948 295.488 
L 79.993496 295.408656 
L 79.993791 295.329312 
L 79.99385 295.488 
L 80.104527 295.488 
L 80.161368 295.488 
L 80.16178 295.329312 
L 80.272457 295.488 
L 81.049497 295.408656 
L 81.125127 295.329312 
L 81.049968 295.488 
L 81.160527 295.488 
L 81.318209 295.488 
L 81.318621 295.249968 
L 81.429299 295.488 
L 81.668206 295.488 
L 81.668501 295.09128 
L 81.779296 295.488 
L 81.911355 295.488 
L 81.939746 294.853248 
L 82.022445 295.488 
L 82.090241 295.488 
L 82.131061 295.09128 
L 82.201331 295.488 
L 82.556512 295.488 
L 82.556807 295.329312 
L 82.667602 295.488 
L 82.678793 295.488 
L 82.7278 295.329312 
L 82.789883 295.488 
L 83.594665 295.488 
L 83.595078 295.249968 
L 83.705755 295.488 
L 83.743865 295.488 
L 83.744277 295.011936 
L 83.854955 295.488 
L 84.687892 295.488 
L 84.688304 295.329312 
L 84.798982 295.488 
L 86.215582 295.488 
L 86.215936 295.329312 
L 86.326672 295.488 
L 87.293612 295.488 
L 87.294025 295.249968 
L 87.404702 295.488 
L 87.885227 295.488 
L 87.885639 295.329312 
L 87.996317 295.488 
L 88.526437 295.488 
L 88.52685 295.329312 
L 88.637527 295.488 
L 89.038829 295.488 
L 89.039241 295.249968 
L 89.149918 295.488 
L 89.919241 295.488 
L 89.919654 295.329312 
L 90.030331 295.488 
L 90.258165 295.488 
L 90.258342 295.329312 
L 90.369255 295.488 
L 90.674781 295.488 
L 90.675194 295.249968 
L 90.785871 295.488 
L 91.115901 295.488 
L 91.116372 295.329312 
L 91.22699 295.488 
L 91.552367 295.488 
L 91.552779 295.329312 
L 91.663456 295.488 
L 91.861074 295.408656 
L 91.861486 295.249968 
L 91.861545 295.488 
L 91.972104 295.488 
L 92.189572 295.488 
L 92.230332 295.170624 
L 92.300662 295.488 
L 92.446386 295.488 
L 92.446798 295.329312 
L 92.557476 295.488 
L 93.073401 295.488 
L 93.073813 295.329312 
L 93.184491 295.488 
L 94.019902 295.488 
L 94.020314 295.249968 
L 94.130992 295.488 
L 94.614403 295.488 
L 94.614992 295.09128 
L 94.725493 295.488 
L 94.759892 295.488 
L 94.760304 295.329312 
L 94.870981 295.488 
L 95.000567 295.488 
L 95.00092 295.09128 
L 95.111656 295.488 
L 95.927394 295.488 
L 95.927689 295.329312 
L 96.038484 295.488 
L 96.652835 295.488 
L 96.734356 295.249968 
L 96.763925 295.488 
L 96.910297 295.488 
L 96.977505 295.329312 
L 97.021387 295.488 
L 97.095898 295.488 
L 97.177301 295.249968 
L 97.206988 295.488 
L 97.209108 295.408656 
L 97.209521 295.09128 
L 97.20958 295.488 
L 97.320198 295.488 
L 97.68769 295.488 
L 97.688102 295.249968 
L 97.798779 295.488 
L 97.928541 295.488 
L 97.928777 295.329312 
L 98.039631 295.488 
L 98.104365 295.488 
L 98.104777 295.329312 
L 98.215454 295.488 
L 98.679722 295.488 
L 98.757002 295.249968 
L 98.790812 295.488 
L 98.945666 295.488 
L 98.968403 295.329312 
L 99.056756 295.488 
L 99.16331 295.488 
L 99.163664 295.329312 
L 99.2744 295.408656 
L 99.567439 295.488 
L 99.567851 295.249968 
L 99.678529 295.488 
L 99.806582 295.488 
L 99.815477 295.329312 
L 99.917672 295.488 
L 101.779279 295.408656 
L 101.779456 295.329312 
L 101.779633 295.488 
L 101.89031 295.488 
L 101.959579 295.488 
L 101.960109 295.329312 
L 102.070669 295.488 
L 102.643671 295.488 
L 102.644083 295.329312 
L 102.75476 295.488 
L 103.044442 295.488 
L 103.044854 295.249968 
L 103.155532 295.488 
L 103.737074 295.488 
L 103.737487 295.329312 
L 103.848164 295.488 
L 103.958193 295.488 
L 103.958547 295.249968 
L 104.069283 295.488 
L 104.274676 295.488 
L 104.275088 295.329312 
L 104.385765 295.488 
L 104.760914 295.488 
L 104.761326 295.249968 
L 104.872004 295.488 
L 106.251555 295.488 
L 106.251967 295.329312 
L 106.362645 295.488 
L 108.016327 295.488 
L 108.016739 295.329312 
L 108.127416 295.488 
L 108.796017 295.488 
L 108.816515 295.170624 
L 108.907106 295.488 
L 110.236472 295.488 
L 110.236885 295.09128 
L 110.347562 295.488 
L 110.469549 295.488 
L 110.469961 295.329312 
L 110.580639 295.488 
L 111.332762 295.488 
L 111.333174 295.329312 
L 111.443852 295.488 
L 111.545812 295.408656 
L 111.622856 295.249968 
L 111.549876 295.488 
L 111.656843 295.488 
L 113.667237 295.488 
L 113.722311 295.249968 
L 113.778327 295.488 
L 113.960335 295.488 
L 113.960747 295.329312 
L 114.071425 295.488 
L 114.1715 295.488 
L 114.186108 294.773904 
L 114.28259 295.488 
L 115.074178 295.488 
L 115.130547 295.249968 
L 115.185267 295.488 
L 115.310611 295.488 
L 115.403029 295.249968 
L 115.421701 295.488 
L 115.550697 295.488 
L 115.55111 295.329312 
L 115.661787 295.488 
L 115.79738 295.488 
L 115.797792 295.329312 
L 115.90847 295.488 
L 116.283972 295.488 
L 116.284384 295.329312 
L 116.395062 295.488 
L 116.834002 295.408656 
L 116.836535 294.853248 
L 116.838184 295.488 
L 116.945092 295.488 
L 117.327898 295.488 
L 117.343919 294.773904 
L 117.438987 295.488 
L 117.442404 295.488 
L 117.442816 295.329312 
L 117.553493 295.488 
L 117.625649 295.408656 
L 117.625943 295.329312 
L 117.626002 295.488 
L 117.73668 295.488 
L 118.922147 295.408656 
L 118.942763 295.329312 
L 118.922619 295.488 
L 119.033178 295.488 
L 119.126126 295.488 
L 119.126538 295.249968 
L 119.237216 295.488 
L 119.284043 295.488 
L 119.284456 295.249968 
L 119.395133 295.488 
L 119.838844 295.488 
L 119.92867 295.329312 
L 119.949934 295.488 
L 120.169757 295.488 
L 120.260526 295.249968 
L 120.280847 295.488 
L 120.677318 295.488 
L 120.677731 295.249968 
L 120.788408 295.488 
L 121.131514 295.408656 
L 121.131926 295.329312 
L 121.131985 295.488 
L 121.242545 295.488 
L 121.603969 295.488 
L 121.604382 295.249968 
L 121.715059 295.488 
L 121.762063 295.488 
L 121.762476 295.329312 
L 121.873153 295.488 
L 122.869427 295.488 
L 122.869839 295.249968 
L 122.980516 295.488 
L 123.565122 295.488 
L 123.591745 293.425055 
L 123.676211 295.488 
L 123.891087 295.488 
L 123.895151 290.251293 
L 124.002177 295.488 
L 124.963521 295.488 
L 124.963934 295.329312 
L 125.074611 295.488 
L 126.615201 295.488 
L 126.617616 295.249968 
L 126.726291 295.488 
L 127.150976 295.488 
L 127.151389 295.329312 
L 127.262066 295.488 
L 127.465927 295.408656 
L 127.542618 295.329312 
L 127.466398 295.488 
L 127.576958 295.488 
L 127.712963 295.488 
L 127.713375 295.329312 
L 127.824053 295.488 
L 127.974372 295.488 
L 127.975137 295.329312 
L 128.085461 295.488 
L 128.099539 295.488 
L 128.099951 295.329312 
L 128.210629 295.488 
L 128.617349 295.408656 
L 128.617761 295.329312 
L 128.61782 295.488 
L 128.72838 295.488 
L 128.768787 295.488 
L 128.77238 295.249968 
L 128.879877 295.488 
L 129.038324 295.408656 
L 129.038677 295.329312 
L 129.038736 295.488 
L 129.149355 295.488 
L 130.147749 295.488 
L 130.148161 295.329312 
L 130.258839 295.488 
L 130.920783 295.488 
L 130.921195 295.329312 
L 131.031872 295.488 
L 131.173945 295.488 
L 131.174357 295.249968 
L 131.285034 295.488 
L 131.351653 295.408656 
L 131.351889 295.329312 
L 131.351948 295.488 
L 131.462684 295.488 
L 131.637388 295.488 
L 131.6378 295.249968 
L 131.748478 295.488 
L 132.286904 295.488 
L 132.369367 295.329312 
L 132.397994 295.488 
L 132.696452 295.488 
L 132.696864 295.09128 
L 132.807541 295.488 
L 132.874808 295.488 
L 132.983718 295.249968 
L 132.985897 295.488 
L 133.048687 295.488 
L 133.0491 295.249968 
L 133.159777 295.488 
L 133.34744 295.488 
L 133.402985 295.170624 
L 133.45853 295.488 
L 133.836506 295.488 
L 133.854824 295.249968 
L 133.947595 295.408656 
L 134.058744 295.488 
L 134.340297 295.488 
L 134.356908 295.249968 
L 134.451387 295.488 
L 134.528843 295.488 
L 134.529256 295.329312 
L 134.639933 295.488 
L 134.733411 295.488 
L 134.733823 295.170624 
L 134.844501 295.488 
L 135.56411 295.488 
L 135.564523 295.329312 
L 135.6752 295.488 
L 135.817979 295.488 
L 135.887189 295.329312 
L 135.929069 295.488 
L 136.233653 295.488 
L 136.234065 295.329312 
L 136.344743 295.488 
L 136.553257 295.488 
L 136.638842 295.09128 
L 136.664346 295.488 
L 136.801589 295.488 
L 136.802001 295.249968 
L 136.912679 295.488 
L 138.380112 295.488 
L 138.380524 295.329312 
L 138.491201 295.488 
L 138.77405 295.488 
L 138.774345 295.329312 
L 138.88514 295.488 
L 139.057724 295.488 
L 139.092123 295.329312 
L 139.168814 295.488 
L 139.439941 295.488 
L 139.440294 295.329312 
L 139.551031 295.488 
L 139.804605 295.488 
L 139.805017 295.170624 
L 139.915695 295.488 
L 140.14023 295.408656 
L 140.140525 295.329312 
L 140.140584 295.488 
L 140.251261 295.488 
L 141.319337 295.488 
L 141.388194 295.329312 
L 141.430426 295.488 
L 142.219541 295.488 
L 142.219953 295.329312 
L 142.33063 295.488 
L 142.917945 295.488 
L 142.91824 295.329312 
L 143.029035 295.488 
L 144.602964 295.488 
L 144.603376 295.329312 
L 144.714053 295.488 
L 145.186685 295.488 
L 145.187098 295.170624 
L 145.297775 295.488 
L 145.822889 295.488 
L 145.916838 295.09128 
L 145.933979 295.488 
L 145.984046 295.488 
L 146.001658 294.377183 
L 146.095136 295.488 
L 146.408201 295.488 
L 146.408614 295.170624 
L 146.519291 295.488 
L 146.740293 295.488 
L 146.740705 295.170624 
L 146.851382 295.488 
L 147.093883 295.488 
L 147.124748 295.329312 
L 147.204973 295.488 
L 147.342745 295.488 
L 147.343158 295.329312 
L 147.453835 295.488 
L 147.535297 295.488 
L 147.535709 295.329312 
L 147.646387 295.488 
L 147.707527 295.408656 
L 147.70794 295.329312 
L 147.707999 295.488 
L 147.818558 295.488 
L 147.872218 295.488 
L 147.87263 295.329312 
L 147.983308 295.488 
L 148.252904 295.488 
L 148.253316 295.249968 
L 148.363994 295.488 
L 148.96733 295.488 
L 148.967742 295.329312 
L 149.07842 295.488 
L 149.279512 295.488 
L 149.279924 295.329312 
L 149.390602 295.488 
L 150.017028 295.488 
L 150.121226 295.329312 
L 150.128118 295.488 
L 150.406843 295.488 
L 150.40755 295.329312 
L 150.517933 295.488 
L 150.569119 295.488 
L 150.569531 295.329312 
L 150.680209 295.488 
L 150.717141 295.488 
L 150.743588 295.09128 
L 150.82823 295.488 
L 151.46785 295.488 
L 151.468204 295.329312 
L 151.57894 295.488 
L 151.746871 295.488 
L 151.747283 295.329312 
L 151.85796 295.488 
L 151.878341 295.488 
L 151.878635 295.329312 
L 151.98943 295.488 
L 153.194984 295.488 
L 153.195396 295.011936 
L 153.306074 295.488 
L 153.369806 295.488 
L 153.370218 295.329312 
L 153.480896 295.488 
L 153.873833 295.488 
L 153.874186 295.329312 
L 153.984923 295.488 
L 154.839477 295.488 
L 154.83989 295.249968 
L 154.950567 295.488 
L 155.603617 295.488 
L 155.604029 295.329312 
L 155.714707 295.488 
L 156.038375 295.488 
L 156.038787 295.329312 
L 156.149465 295.488 
L 156.301079 295.488 
L 156.301256 295.329312 
L 156.412169 295.488 
L 156.954482 295.488 
L 156.954895 295.329312 
L 157.065572 295.488 
L 157.315023 295.488 
L 157.369744 295.329312 
L 157.426113 295.488 
L 157.664314 295.488 
L 157.742065 294.932592 
L 157.775404 295.488 
L 158.019672 295.488 
L 158.051243 295.329312 
L 158.130761 295.488 
L 158.385867 295.408656 
L 158.38628 295.170624 
L 158.386339 295.488 
L 158.496957 295.488 
L 158.565402 295.488 
L 158.565814 295.170624 
L 158.676491 295.488 
L 158.792647 295.488 
L 158.793059 295.329312 
L 158.903736 295.488 
L 158.921113 295.488 
L 158.921525 295.249968 
L 159.032202 295.488 
L 159.530634 295.488 
L 159.531046 295.329312 
L 159.641723 295.488 
L 159.762296 295.488 
L 159.762709 295.329312 
L 159.873386 295.488 
L 160.02877 295.488 
L 160.08838 295.170624 
L 160.13986 295.488 
L 160.61208 295.488 
L 160.612492 295.329312 
L 160.72317 295.488 
L 160.813997 295.488 
L 160.814409 295.329312 
L 160.925087 295.488 
L 160.926736 295.488 
L 160.927148 295.329312 
L 161.037826 295.488 
L 161.800375 295.488 
L 161.800787 295.329312 
L 161.911465 295.488 
L 162.43169 295.488 
L 162.431984 295.329312 
L 162.54278 295.488 
L 162.986491 295.488 
L 162.988493 295.249968 
L 163.097581 295.488 
L 163.70074 295.488 
L 163.701152 295.249968 
L 163.81183 295.488 
L 164.141153 295.488 
L 164.141565 295.249968 
L 164.252242 295.488 
L 164.298952 295.488 
L 164.299364 295.329312 
L 164.410042 295.488 
L 164.688767 295.488 
L 164.68918 295.329312 
L 164.799857 295.488 
L 165.245041 295.488 
L 165.261062 295.170624 
L 165.356131 295.488 
L 165.949218 295.488 
L 165.949571 295.329312 
L 166.060308 295.488 
L 166.277834 295.488 
L 166.278246 295.329312 
L 166.388924 295.488 
L 166.722252 295.408656 
L 166.802418 295.329312 
L 166.724785 295.488 
L 166.833283 295.488 
L 166.98743 295.488 
L 167.012758 295.170624 
L 167.09852 295.488 
L 168.255302 295.488 
L 168.255714 295.329312 
L 168.366392 295.488 
L 170.582002 295.488 
L 170.582414 295.249968 
L 170.693092 295.488 
L 170.788631 295.408656 
L 170.863732 295.249968 
L 170.792754 295.488 
L 170.899662 295.488 
L 171.751095 295.488 
L 171.751507 295.329312 
L 171.862185 295.488 
L 171.897467 295.488 
L 171.897879 295.329312 
L 172.008557 295.488 
L 173.329264 295.488 
L 173.329677 295.329312 
L 173.440354 295.488 
L 173.550737 295.488 
L 173.551149 295.249968 
L 173.661827 295.488 
L 175.223268 295.488 
L 175.223916 295.249968 
L 175.334358 295.488 
L 175.751622 295.488 
L 175.752034 295.249968 
L 175.862711 295.488 
L 176.567006 295.488 
L 176.567419 295.329312 
L 176.678096 295.488 
L 176.704543 295.408656 
L 176.786476 266.368735 
L 176.827296 279.698535 
L 176.845968 288.743756 
L 176.900276 242.644865 
L 176.936088 270.891345 
L 176.997641 53.568 
L 176.987745 295.249968 
L 177.044292 290.409981 
L 177.044351 290.409981 
L 177.155735 285.331962 
L 177.141893 295.329312 
L 177.156265 285.966714 
L 177.265352 295.488 
L 177.199499 275.969364 
L 177.270241 293.742431 
L 177.2703 293.742431 
L 177.362482 266.368735 
L 177.381507 293.425055 
L 177.382037 293.425055 
L 177.388811 294.853248 
L 177.428924 258.751706 
L 177.483232 267.320863 
L 177.489181 242.644865 
L 177.542782 295.488 
L 177.592437 295.488 
L 178.426199 295.408656 
L 178.426375 295.09128 
L 178.42667 295.488 
L 178.537288 295.488 
L 179.349846 295.488 
L 179.402151 294.615215 
L 179.460935 295.488 
L 179.548994 295.488 
L 179.643415 295.249968 
L 179.660084 295.488 
L 179.972796 295.488 
L 179.973209 295.249968 
L 180.083886 295.488 
L 180.329273 295.488 
L 180.329686 295.249968 
L 180.440363 295.488 
L 180.749954 295.488 
L 180.78129 295.09128 
L 180.861043 295.488 
L 181.187598 295.488 
L 181.187892 295.329312 
L 181.298687 295.488 
L 181.329493 295.488 
L 181.329906 295.249968 
L 181.440583 295.488 
L 181.667416 295.488 
L 181.766489 295.329312 
L 181.778506 295.488 
L 181.835523 295.488 
L 181.903378 295.329312 
L 181.946613 295.488 
L 183.219668 295.488 
L 183.246822 295.329312 
L 183.330758 295.488 
L 183.863529 295.408656 
L 183.863824 295.329312 
L 183.863883 295.488 
L 183.97456 295.488 
L 184.467573 295.488 
L 184.488895 294.615215 
L 184.578662 295.488 
L 185.248617 295.488 
L 185.249029 295.329312 
L 185.359707 295.488 
L 185.718068 295.488 
L 185.718481 295.249968 
L 185.829158 295.488 
L 185.903022 295.488 
L 185.903375 295.249968 
L 186.014111 295.488 
L 186.087798 295.488 
L 186.088211 295.329312 
L 186.198888 295.488 
L 186.521731 295.488 
L 186.522144 295.329312 
L 186.632821 295.488 
L 186.710337 295.488 
L 186.711044 295.170624 
L 186.821426 295.488 
L 186.851113 295.488 
L 186.851526 295.09128 
L 186.962203 295.488 
L 187.360029 295.488 
L 187.360441 295.329312 
L 187.471119 295.488 
L 188.052544 295.488 
L 188.052956 295.329312 
L 188.163633 295.488 
L 189.300094 295.488 
L 189.304159 294.773904 
L 189.411184 295.488 
L 189.537235 295.408656 
L 189.537588 295.329312 
L 189.537647 295.488 
L 189.648266 295.488 
L 189.912855 295.488 
L 189.913208 295.170624 
L 190.023945 295.488 
L 190.424422 295.488 
L 190.428368 295.011936 
L 190.535511 295.488 
L 190.863892 295.488 
L 190.864304 295.170624 
L 190.974981 295.488 
L 191.264604 295.488 
L 191.264722 295.329312 
L 191.375694 295.488 
L 191.389182 295.488 
L 191.389595 295.170624 
L 191.500272 295.488 
L 192.6031 295.488 
L 192.618179 294.773904 
L 192.71419 295.488 
L 192.715545 295.408656 
L 192.715839 295.329312 
L 192.715898 295.488 
L 192.826575 295.488 
L 193.065601 295.488 
L 193.066013 295.329312 
L 193.176691 295.488 
L 194.646421 295.488 
L 194.646833 295.329312 
L 194.757511 295.488 
L 195.053848 295.488 
L 195.054261 295.329312 
L 195.164938 295.488 
L 195.388472 295.488 
L 195.388885 295.329312 
L 195.499562 295.488 
L 195.885549 295.408656 
L 195.948751 295.09128 
L 195.88602 295.488 
L 195.99658 295.488 
L 196.134941 295.488 
L 196.139005 295.249968 
L 196.246031 295.488 
L 196.291091 295.488 
L 196.291386 295.329312 
L 196.402181 295.488 
L 196.53047 295.488 
L 196.606749 295.329312 
L 196.64156 295.488 
L 197.371065 295.488 
L 197.371477 295.329312 
L 197.482155 295.488 
L 197.807178 295.408656 
L 197.80759 295.329312 
L 197.807649 295.488 
L 197.918208 295.488 
L 197.990894 295.488 
L 197.991012 295.329312 
L 198.101984 295.488 
L 198.761572 295.488 
L 198.761984 295.329312 
L 198.872661 295.488 
L 199.955109 295.488 
L 199.955521 295.329312 
L 200.066199 295.488 
L 200.36289 295.488 
L 200.363302 295.329312 
L 200.473979 295.488 
L 201.206076 295.488 
L 201.206489 295.249968 
L 201.317166 295.488 
L 201.899415 295.488 
L 201.899828 295.329312 
L 202.010505 295.488 
L 202.013038 295.488 
L 202.01345 295.329312 
L 202.124128 295.488 
L 202.210125 295.488 
L 202.210537 295.329312 
L 202.321215 295.488 
L 202.338355 295.488 
L 202.338768 295.170624 
L 202.449445 295.488 
L 202.480604 295.488 
L 202.532026 295.329312 
L 202.591694 295.488 
L 203.712958 295.488 
L 203.713371 295.329312 
L 203.824048 295.488 
L 204.148011 295.488 
L 204.148423 295.249968 
L 204.2591 295.488 
L 204.260809 295.488 
L 204.261221 295.329312 
L 204.371898 295.488 
L 204.466554 295.488 
L 204.466967 295.329312 
L 204.577644 295.488 
L 204.794051 295.488 
L 204.794464 295.329312 
L 204.905141 295.488 
L 204.953735 295.488 
L 204.954148 295.249968 
L 205.064825 295.488 
L 205.232225 295.488 
L 205.232638 295.249968 
L 205.343315 295.488 
L 205.896879 295.408656 
L 205.897291 295.329312 
L 205.89735 295.488 
L 206.00791 295.488 
L 206.438957 295.408656 
L 206.44308 294.139151 
L 206.445672 295.488 
L 206.550047 295.488 
L 206.614427 295.488 
L 206.614839 295.249968 
L 206.725517 295.488 
L 206.945752 295.488 
L 206.946165 295.329312 
L 207.056842 295.488 
L 207.231664 295.488 
L 207.232077 295.249968 
L 207.342754 295.488 
L 208.553726 295.488 
L 208.554374 295.329312 
L 208.664816 295.488 
L 210.513936 295.408656 
L 210.51429 295.329312 
L 210.514349 295.488 
L 210.624967 295.488 
L 211.203623 295.488 
L 211.276486 295.249968 
L 211.314713 295.488 
L 211.499077 295.488 
L 211.49949 295.249968 
L 211.610167 295.488 
L 212.389857 295.488 
L 212.390269 295.249968 
L 212.500947 295.488 
L 212.659453 295.408656 
L 212.659688 295.329312 
L 212.659865 295.488 
L 212.770484 295.488 
L 212.889761 295.488 
L 212.890173 295.329312 
L 213.000851 295.488 
L 213.753269 295.488 
L 213.841269 295.249968 
L 213.864358 295.488 
L 214.249638 295.488 
L 214.254174 295.329312 
L 214.360728 295.488 
L 214.654003 295.488 
L 214.66755 295.329312 
L 214.765092 295.488 
L 214.869055 295.408656 
L 214.869408 295.329312 
L 214.869467 295.488 
L 214.980086 295.488 
L 215.194255 295.488 
L 215.194667 295.249968 
L 215.305344 295.488 
L 215.539717 295.488 
L 215.540129 295.329312 
L 215.650806 295.488 
L 216.245072 295.488 
L 216.246014 295.249968 
L 216.356161 295.488 
L 216.820606 295.488 
L 216.821195 294.615215 
L 216.931696 295.488 
L 217.291353 295.408656 
L 217.291766 295.249968 
L 217.291825 295.488 
L 217.402384 295.488 
L 217.652012 295.488 
L 217.652424 295.329312 
L 217.763102 295.488 
L 217.9639 295.488 
L 217.964312 295.011936 
L 218.07499 295.488 
L 218.375921 295.488 
L 218.376334 295.329312 
L 218.487011 295.488 
L 219.365127 295.488 
L 219.365539 295.170624 
L 219.476217 295.488 
L 219.668297 295.488 
L 219.766134 295.249968 
L 219.779387 295.488 
L 220.082557 295.408656 
L 220.082851 295.329312 
L 220.08291 295.488 
L 220.193588 295.488 
L 220.419066 295.488 
L 220.41936 295.329312 
L 220.530155 295.488 
L 221.05097 295.488 
L 221.051382 295.329312 
L 221.162059 295.488 
L 221.165594 295.488 
L 221.1663 295.329312 
L 221.276683 295.488 
L 222.260116 295.488 
L 222.260529 295.329312 
L 222.371206 295.488 
L 222.516812 295.488 
L 222.6087 295.329312 
L 222.627902 295.488 
L 223.207147 295.488 
L 223.20756 295.329312 
L 223.318237 295.488 
L 223.679132 295.488 
L 223.682784 295.329312 
L 223.790221 295.488 
L 224.770356 295.488 
L 224.770768 295.329312 
L 224.881445 295.488 
L 225.048316 295.488 
L 225.048728 295.09128 
L 225.159405 295.488 
L 225.187443 295.488 
L 225.187855 295.249968 
L 225.298533 295.488 
L 225.979502 295.488 
L 225.979915 295.249968 
L 226.090592 295.488 
L 226.349762 295.488 
L 226.35041 294.932592 
L 226.460852 295.488 
L 226.482175 295.488 
L 226.482764 295.249968 
L 226.593264 295.488 
L 226.757366 295.488 
L 226.757778 295.329312 
L 226.868456 295.488 
L 227.573575 295.488 
L 227.573929 295.249968 
L 227.684665 295.488 
L 228.558363 295.488 
L 228.558952 294.456527 
L 228.669453 295.488 
L 229.054497 295.488 
L 229.054909 295.329312 
L 229.165587 295.488 
L 229.8839 295.488 
L 229.985625 295.170624 
L 229.99499 295.488 
L 230.90456 295.488 
L 230.90509 295.329312 
L 231.015649 295.488 
L 231.402225 295.488 
L 231.402638 295.011936 
L 231.513315 295.488 
L 231.727955 295.488 
L 231.728367 295.329312 
L 231.839045 295.488 
L 232.115002 295.488 
L 232.115414 295.09128 
L 232.226092 295.488 
L 232.395495 295.488 
L 232.395848 295.249968 
L 232.506585 295.488 
L 232.89316 295.488 
L 232.893573 295.329312 
L 233.00425 295.488 
L 233.609648 295.488 
L 233.69005 295.329312 
L 233.720738 295.408656 
L 234.01201 295.488 
L 234.012422 295.249968 
L 234.123099 295.488 
L 234.897429 295.408656 
L 234.897841 295.329312 
L 234.8979 295.488 
L 235.00846 295.488 
L 235.871143 295.488 
L 235.871614 295.329312 
L 235.982233 295.488 
L 236.019989 295.488 
L 236.105692 295.249968 
L 236.131079 295.488 
L 236.333055 295.488 
L 236.333467 295.329312 
L 236.444145 295.488 
L 236.729409 295.488 
L 236.731824 295.249968 
L 236.840498 295.488 
L 236.956771 295.488 
L 236.957184 295.249968 
L 237.067861 295.488 
L 237.153859 295.408656 
L 237.181189 295.329312 
L 237.154271 295.488 
L 237.264889 295.488 
L 237.402662 295.488 
L 237.403015 295.329312 
L 237.513752 295.488 
L 238.742159 295.488 
L 238.746224 295.011936 
L 238.853249 295.488 
L 240.178786 295.488 
L 240.179199 295.329312 
L 240.289876 295.488 
L 240.304602 295.408656 
L 240.305014 295.329312 
L 240.305073 295.488 
L 240.415633 295.488 
L 240.838846 295.488 
L 240.839258 295.170624 
L 240.949935 295.488 
L 242.419548 295.488 
L 242.41996 295.329312 
L 242.530638 295.488 
L 243.922322 295.488 
L 243.922676 295.329312 
L 244.033412 295.488 
L 244.057739 295.488 
L 244.058151 295.329312 
L 244.168829 295.488 
L 244.363913 295.488 
L 244.364325 295.329312 
L 244.475003 295.488 
L 244.691822 295.488 
L 244.692529 295.170624 
L 244.802912 295.488 
L 245.290387 295.488 
L 245.2908 295.329312 
L 245.401477 295.488 
L 245.466741 295.488 
L 245.467153 295.249968 
L 245.577831 295.488 
L 245.715073 295.488 
L 245.715485 295.329312 
L 245.826163 295.488 
L 245.855496 295.488 
L 245.855908 295.329312 
L 245.966586 295.488 
L 246.832391 295.488 
L 246.832803 295.329312 
L 246.943481 295.488 
L 247.792322 295.488 
L 247.890983 295.329312 
L 247.903412 295.488 
L 247.904059 295.488 
L 247.904472 295.249968 
L 248.015149 295.488 
L 248.214828 295.488 
L 248.295406 295.329312 
L 248.325918 295.488 
L 248.509811 295.488 
L 248.513875 294.615215 
L 248.6209 295.488 
L 249.445768 295.488 
L 249.446416 295.329312 
L 249.556858 295.488 
L 249.632253 295.488 
L 249.713833 295.249968 
L 249.743343 295.488 
L 249.94255 295.488 
L 249.942904 295.329312 
L 250.05364 295.488 
L 250.537051 295.488 
L 250.537464 295.329312 
L 250.648141 295.488 
L 251.642235 295.488 
L 251.642648 295.329312 
L 251.753325 295.488 
L 252.354246 295.408656 
L 252.356072 295.329312 
L 252.358428 295.488 
L 252.465277 295.488 
L 252.620897 295.488 
L 252.621309 295.329312 
L 252.731987 295.488 
L 253.060426 295.488 
L 253.152903 295.329312 
L 253.171516 295.488 
L 253.623709 295.488 
L 253.624121 295.249968 
L 253.734799 295.488 
L 254.090333 295.408656 
L 254.090627 295.329312 
L 254.090686 295.488 
L 254.201364 295.488 
L 254.585407 295.488 
L 254.609321 295.170624 
L 254.696497 295.488 
L 254.758638 295.488 
L 254.758992 295.329312 
L 254.869728 295.488 
L 255.515003 295.488 
L 255.515415 295.170624 
L 255.626093 295.488 
L 255.850334 295.488 
L 255.850746 295.249968 
L 255.961424 295.488 
L 257.03374 295.488 
L 257.034152 295.170624 
L 257.14483 295.488 
L 257.621408 295.488 
L 257.621821 295.249968 
L 257.732498 295.488 
L 258.380247 295.488 
L 258.380659 295.329312 
L 258.491336 295.488 
L 258.795155 295.488 
L 258.795567 295.329312 
L 258.906244 295.488 
L 259.539974 295.408656 
L 259.540387 295.249968 
L 259.540445 295.488 
L 259.651005 295.488 
L 259.958829 295.488 
L 259.959418 295.249968 
L 260.069918 295.488 
L 260.512981 295.488 
L 260.513335 295.329312 
L 260.624071 295.488 
L 262.268859 295.488 
L 262.269448 294.773904 
L 262.379949 295.488 
L 262.429368 295.488 
L 262.42978 295.329312 
L 262.540458 295.488 
L 262.827312 295.488 
L 262.827547 295.170624 
L 262.938402 295.488 
L 264.20109 295.408656 
L 264.201326 295.329312 
L 264.201562 295.488 
L 264.312121 295.488 
L 264.368844 295.488 
L 264.369256 295.09128 
L 264.479934 295.488 
L 264.483704 295.488 
L 264.484057 295.170624 
L 264.594793 295.488 
L 264.642504 295.488 
L 264.642917 295.329312 
L 264.753594 295.488 
L 266.670687 295.488 
L 266.6711 295.329312 
L 266.781777 295.488 
L 266.938045 295.488 
L 266.938398 295.329312 
L 267.049135 295.488 
L 267.119287 295.488 
L 267.1197 295.329312 
L 267.230377 295.488 
L 267.534254 295.488 
L 267.534902 295.329312 
L 267.645344 295.488 
L 267.690581 295.488 
L 267.690934 295.329312 
L 267.80167 295.488 
L 268.022613 295.488 
L 268.023025 295.329312 
L 268.133703 295.488 
L 268.394345 295.408656 
L 268.394758 295.09128 
L 268.394817 295.488 
L 268.505435 295.488 
L 268.53954 295.488 
L 268.539952 295.249968 
L 268.650629 295.488 
L 268.851251 295.488 
L 268.851663 295.329312 
L 268.96234 295.488 
L 269.208434 295.488 
L 269.300557 295.329312 
L 269.319524 295.488 
L 269.343851 295.488 
L 269.344263 295.329312 
L 269.45494 295.488 
L 269.494935 295.488 
L 269.59177 295.329312 
L 269.606025 295.488 
L 270.094266 295.488 
L 270.094678 295.329312 
L 270.205356 295.488 
L 270.32964 295.488 
L 270.330052 295.249968 
L 270.440729 295.488 
L 270.838143 295.488 
L 270.838497 295.329312 
L 270.949233 295.488 
L 271.459975 295.488 
L 271.559225 295.170624 
L 271.571065 295.488 
L 271.68133 295.488 
L 271.681683 295.329312 
L 271.792419 295.488 
L 272.605742 295.488 
L 272.693095 295.249968 
L 272.716832 295.488 
L 272.854134 295.488 
L 272.854487 295.329312 
L 272.965223 295.488 
L 273.358691 295.408656 
L 273.45694 295.329312 
L 273.362873 295.488 
L 273.469721 295.488 
L 274.130134 295.488 
L 274.130546 295.249968 
L 274.241224 295.488 
L 274.496683 295.488 
L 274.497096 295.249968 
L 274.607773 295.488 
L 274.881315 295.488 
L 274.881728 295.329312 
L 274.992405 295.488 
L 276.186531 295.488 
L 276.238837 295.249968 
L 276.297621 295.488 
L 276.399287 295.408656 
L 276.399699 295.170624 
L 276.399817 295.488 
L 276.510317 295.488 
L 277.045209 295.488 
L 277.045622 295.249968 
L 277.156299 295.488 
L 277.18092 295.488 
L 277.181332 295.329312 
L 277.29201 295.488 
L 278.038125 295.488 
L 278.129542 295.170624 
L 278.149215 295.488 
L 278.332519 295.488 
L 278.332931 295.249968 
L 278.443609 295.488 
L 278.49397 295.488 
L 278.494383 295.329312 
L 278.60506 295.488 
L 279.130115 295.488 
L 279.144487 295.249968 
L 279.241205 295.488 
L 279.555272 295.408656 
L 279.555567 295.329312 
L 279.555625 295.488 
L 279.666303 295.488 
L 280.411181 295.488 
L 280.411594 295.329312 
L 280.522271 295.488 
L 280.927519 295.488 
L 280.927696 295.329312 
L 281.038609 295.488 
L 281.151819 295.408656 
L 281.158416 295.329312 
L 281.15229 295.488 
L 281.26285 295.488 
L 282.530428 295.488 
L 282.53084 295.329312 
L 282.641517 295.488 
L 282.773871 295.488 
L 282.777935 293.187023 
L 282.88496 295.488 
L 283.083461 295.488 
L 283.083874 295.329312 
L 283.194551 295.488 
L 283.2617 295.488 
L 283.342572 295.329312 
L 283.372789 295.488 
L 285.248592 295.488 
L 285.249005 295.329312 
L 285.359682 295.488 
L 285.392903 295.488 
L 285.393315 295.249968 
L 285.503993 295.488 
L 285.567313 295.488 
L 285.567725 295.249968 
L 285.678402 295.488 
L 285.68659 295.488 
L 285.687002 295.329312 
L 285.797679 295.488 
L 286.911345 295.488 
L 286.911758 295.329312 
L 287.022435 295.488 
L 288.876562 295.488 
L 288.976873 295.329312 
L 288.987652 295.488 
L 288.998018 295.488 
L 288.998431 295.329312 
L 289.109108 295.488 
L 289.680284 295.488 
L 289.680696 295.329312 
L 289.791374 295.488 
L 290.887781 295.488 
L 290.888193 295.170624 
L 290.998871 295.488 
L 291.819557 295.488 
L 291.819969 295.329312 
L 291.930646 295.488 
L 292.024301 295.488 
L 292.024596 295.329312 
L 292.135391 295.488 
L 292.192585 295.488 
L 292.192997 295.329312 
L 292.303675 295.488 
L 293.333935 295.488 
L 293.334347 295.329312 
L 293.445025 295.488 
L 294.086294 295.488 
L 294.090594 295.09128 
L 294.197384 295.488 
L 294.506621 295.488 
L 294.506974 295.170624 
L 294.617711 295.488 
L 295.046225 295.488 
L 295.046814 294.853248 
L 295.157315 295.488 
L 295.914268 295.488 
L 295.914681 295.329312 
L 296.025358 295.488 
L 296.380068 295.408656 
L 296.38048 295.329312 
L 296.380539 295.488 
L 296.491098 295.488 
L 296.569262 295.488 
L 296.569674 295.329312 
L 296.680352 295.488 
L 297.255061 295.488 
L 297.319854 295.329312 
L 297.366151 295.488 
L 297.435656 295.488 
L 297.442135 283.665737 
L 297.546746 295.488 
L 297.792722 295.488 
L 297.902339 295.329312 
L 297.903811 295.488 
L 298.050714 295.488 
L 298.051126 295.329312 
L 298.161803 295.488 
L 299.034029 295.488 
L 299.034441 295.329312 
L 299.145119 295.488 
L 299.297028 295.488 
L 299.297381 295.329312 
L 299.408117 295.488 
L 299.716883 295.488 
L 299.717296 295.329312 
L 299.827973 295.488 
L 300.285585 295.408656 
L 300.28588 295.329312 
L 300.285938 295.488 
L 300.396616 295.488 
L 300.850635 295.488 
L 300.851047 295.329312 
L 300.961725 295.488 
L 301.079588 295.408656 
L 301.080059 295.329312 
L 301.080118 295.488 
L 301.190619 295.488 
L 301.421634 295.488 
L 301.422046 295.249968 
L 301.532724 295.488 
L 302.442941 295.488 
L 302.443353 295.329312 
L 302.554031 295.488 
L 302.639969 295.488 
L 302.640381 295.09128 
L 302.751059 295.488 
L 302.814438 295.488 
L 302.81485 295.329312 
L 302.925527 295.488 
L 303.870733 295.488 
L 303.871145 295.329312 
L 303.981822 295.488 
L 304.224029 295.488 
L 304.224441 295.329312 
L 304.335118 295.488 
L 304.557062 295.488 
L 304.557475 295.329312 
L 304.668152 295.488 
L 305.950809 295.488 
L 305.951162 295.329312 
L 306.061898 295.488 
L 306.521631 295.408656 
L 306.551377 295.170624 
L 306.522043 295.488 
L 306.632662 295.488 
L 306.940544 295.488 
L 306.940956 295.329312 
L 307.051634 295.488 
L 307.192882 295.488 
L 307.193294 295.329312 
L 307.303971 295.488 
L 307.362991 295.488 
L 307.363404 295.249968 
L 307.474081 295.488 
L 307.987003 295.488 
L 307.999431 295.011936 
L 308.098092 295.488 
L 308.292764 295.488 
L 308.293177 295.329312 
L 308.403854 295.488 
L 308.469295 295.488 
L 308.475479 294.535871 
L 308.580384 295.488 
L 308.801327 295.488 
L 308.801739 295.329312 
L 308.912417 295.488 
L 309.505092 295.488 
L 309.505504 295.249968 
L 309.616181 295.488 
L 309.925183 295.488 
L 309.925772 295.011936 
L 310.036273 295.488 
L 310.766779 295.488 
L 310.767191 295.249968 
L 310.877869 295.488 
L 310.952086 295.488 
L 310.952498 295.170624 
L 311.063175 295.488 
L 311.670929 295.408656 
L 311.671224 295.329312 
L 311.671283 295.488 
L 311.78196 295.488 
L 311.787615 295.488 
L 311.787968 295.329312 
L 311.898705 295.488 
L 312.023165 295.488 
L 312.023577 295.329312 
L 312.134255 295.488 
L 312.146271 295.488 
L 312.146683 295.329312 
L 312.257361 295.488 
L 313.161982 295.488 
L 313.162395 295.249968 
L 313.273072 295.488 
L 313.393468 295.488 
L 313.394175 295.329312 
L 313.504558 295.488 
L 314.099825 295.488 
L 314.100237 295.09128 
L 314.210915 295.488 
L 314.712468 295.488 
L 314.712939 295.011936 
L 314.823557 295.488 
L 314.838047 295.488 
L 314.83846 295.329312 
L 314.949137 295.488 
L 315.584516 295.488 
L 315.584929 295.249968 
L 315.695606 295.488 
L 316.010262 295.488 
L 316.099735 295.249968 
L 316.121352 295.488 
L 316.51641 295.408656 
L 316.516586 295.170624 
L 316.516881 295.488 
L 316.627499 295.488 
L 316.943982 295.488 
L 316.977733 295.329312 
L 317.055071 295.488 
L 317.328083 295.488 
L 317.328496 295.329312 
L 317.439173 295.488 
L 317.456844 295.488 
L 317.458199 295.329312 
L 317.567934 295.488 
L 317.862445 295.488 
L 317.862858 295.09128 
L 317.973535 295.488 
L 318.360346 295.488 
L 318.360759 295.329312 
L 318.471436 295.488 
L 319.18869 295.488 
L 319.199528 294.773904 
L 319.299779 295.488 
L 319.772352 295.488 
L 319.772765 295.249968 
L 319.883442 295.488 
L 320.01933 295.488 
L 320.019742 295.249968 
L 320.13042 295.488 
L 320.514404 295.488 
L 320.514816 295.329312 
L 320.625493 295.488 
L 321.190367 295.488 
L 321.190779 295.329312 
L 321.301456 295.488 
L 321.838233 295.488 
L 321.838645 295.329312 
L 321.949323 295.488 
L 323.080129 295.488 
L 323.080542 295.329312 
L 323.191219 295.488 
L 323.933683 295.488 
L 323.934095 295.329312 
L 324.044772 295.488 
L 324.118577 295.488 
L 324.118989 295.329312 
L 324.229667 295.488 
L 324.273431 295.488 
L 324.273843 295.249968 
L 324.384521 295.488 
L 324.391825 295.488 
L 324.392237 295.329312 
L 324.502914 295.488 
L 325.253271 295.488 
L 325.322304 295.329312 
L 325.364361 295.488 
L 325.631954 295.488 
L 325.632602 295.249968 
L 325.743044 295.488 
L 327.474006 295.408656 
L 327.551344 295.329312 
L 327.474477 295.488 
L 327.585036 295.488 
L 328.979843 295.488 
L 328.980255 295.329312 
L 329.090933 295.488 
L 329.462371 295.488 
L 329.462783 295.329312 
L 329.57346 295.488 
L 330.105172 295.488 
L 330.105584 295.249968 
L 330.216261 295.488 
L 332.51351 295.488 
L 332.513922 295.249968 
L 332.6246 295.488 
L 332.970651 295.488 
L 332.971063 295.329312 
L 333.081741 295.488 
L 333.380905 295.488 
L 333.381318 295.170624 
L 333.491995 295.488 
L 333.554903 295.488 
L 333.555315 295.329312 
L 333.665993 295.408656 
L 334.172494 295.488 
L 334.207128 293.583743 
L 334.283583 295.488 
L 334.376885 295.488 
L 334.377474 295.329312 
L 334.487974 295.488 
L 335.170593 295.488 
L 335.193742 295.329312 
L 335.281683 295.488 
L 335.692703 295.488 
L 335.693115 295.329312 
L 335.803793 295.488 
L 335.822642 295.488 
L 335.823054 295.329312 
L 335.933731 295.488 
L 337.31181 295.408656 
L 337.312222 295.170624 
L 337.312281 295.488 
L 337.422899 295.488 
L 338.149518 295.488 
L 338.150048 295.329312 
L 338.260608 295.488 
L 338.566016 295.488 
L 338.566429 295.329312 
L 338.677106 295.488 
L 338.677695 295.488 
L 338.678108 295.329312 
L 338.788785 295.488 
L 339.708957 295.408656 
L 339.709016 295.329312 
L 339.709428 295.488 
L 339.819988 295.488 
L 339.947629 295.488 
L 339.948041 295.249968 
L 340.058719 295.488 
L 340.156909 295.488 
L 340.157321 295.329312 
L 340.267999 295.488 
L 340.501723 295.488 
L 340.502135 295.329312 
L 340.612813 295.488 
L 342.025467 295.488 
L 342.02582 295.329312 
L 342.136556 295.488 
L 343.816627 295.408656 
L 343.816745 295.329312 
L 343.81698 295.488 
L 343.927658 295.488 
L 345.335894 295.488 
L 345.336306 295.329312 
L 345.446984 295.488 
L 345.616387 295.488 
L 345.616799 295.329312 
L 345.727477 295.488 
L 346.233565 295.488 
L 346.233919 295.170624 
L 346.344655 295.488 
L 346.957003 295.488 
L 346.957416 295.249968 
L 347.068093 295.488 
L 347.246744 295.488 
L 347.313539 295.249968 
L 347.357833 295.488 
L 347.44654 295.488 
L 347.450663 294.932592 
L 347.55763 295.488 
L 347.630021 295.488 
L 347.630316 295.329312 
L 347.741111 295.488 
L 347.794241 295.488 
L 347.794653 295.329312 
L 347.90533 295.488 
L 348.178048 295.408656 
L 348.178166 295.329312 
L 348.178519 295.488 
L 348.289079 295.488 
L 348.337261 295.488 
L 348.337556 295.329312 
L 348.448351 295.488 
L 348.520388 295.488 
L 348.520801 295.329312 
L 348.631478 295.488 
L 349.94441 295.488 
L 349.956426 295.329312 
L 350.0555 295.488 
L 350.231382 295.488 
L 350.231795 295.329312 
L 350.342472 295.488 
L 350.440073 295.488 
L 350.440486 295.329312 
L 350.551163 295.488 
L 350.786183 295.488 
L 350.786596 295.329312 
L 350.897273 295.488 
L 351.761605 295.488 
L 351.761959 295.249968 
L 351.872695 295.488 
L 352.827207 295.488 
L 352.827619 295.170624 
L 352.938297 295.488 
L 353.147518 295.408656 
L 353.14793 295.170624 
L 353.147989 295.488 
L 353.258608 295.488 
L 354.309012 295.408656 
L 354.309425 295.249968 
L 354.309484 295.488 
L 354.420043 295.488 
L 354.948456 295.408656 
L 354.948868 295.329312 
L 354.948927 295.488 
L 355.059487 295.488 
L 356.693495 295.488 
L 356.693908 295.329312 
L 356.804585 295.488 
L 357.853517 295.488 
L 357.85393 295.249968 
L 357.964607 295.488 
L 358.003895 295.488 
L 358.010021 295.170624 
L 358.114985 295.408656 
L 358.209111 295.488 
L 358.209523 295.249968 
L 358.3202 295.488 
L 358.559108 295.488 
L 358.55952 295.329312 
L 358.670198 295.488 
L 359.821679 295.488 
L 359.822032 295.249968 
L 359.932769 295.488 
L 360.459886 295.488 
L 360.48109 295.011936 
L 360.570975 295.488 
L 361.979683 295.488 
L 361.980095 295.249968 
L 362.090773 295.488 
L 363.097354 295.488 
L 363.097649 295.249968 
L 363.208444 295.488 
L 363.33956 295.488 
L 363.339973 295.329312 
L 363.45065 295.488 
L 363.472444 295.488 
L 363.472856 295.249968 
L 363.583534 295.488 
L 363.674538 295.488 
L 363.727255 295.249968 
L 363.785628 295.488 
L 363.874629 295.488 
L 363.875218 295.329312 
L 363.985719 295.488 
L 364.04733 295.488 
L 364.047743 295.249968 
L 364.15842 295.488 
L 364.947181 295.488 
L 364.947593 295.249968 
L 365.058271 295.488 
L 365.472472 295.408656 
L 365.504043 295.249968 
L 365.472943 295.488 
L 365.583503 295.488 
L 365.64052 295.408656 
L 365.721687 295.249968 
L 365.640873 295.488 
L 365.751551 295.488 
L 365.781473 295.488 
L 365.781886 295.329312 
L 365.892563 295.488 
L 366.172231 295.488 
L 366.241206 295.329312 
L 366.283321 295.488 
L 366.373618 295.488 
L 366.37403 295.329312 
L 366.484708 295.488 
L 366.818566 295.488 
L 366.818978 295.329312 
L 366.929656 295.488 
L 367.451707 295.488 
L 367.452119 295.329312 
L 367.562797 295.488 
L 368.333003 295.488 
L 368.333298 295.249968 
L 368.444093 295.488 
L 368.693309 295.488 
L 368.697373 295.011936 
L 368.804398 295.488 
L 368.905298 295.488 
L 368.906182 295.249968 
L 369.016388 295.488 
L 369.287103 295.488 
L 369.291226 295.329312 
L 369.398193 295.488 
L 369.594926 295.488 
L 369.595339 295.249968 
L 369.706016 295.488 
L 371.762649 295.488 
L 371.763061 295.249968 
L 371.873739 295.488 
L 371.926103 295.488 
L 371.926515 295.329312 
L 372.037193 295.488 
L 372.998007 295.488 
L 372.998596 295.170624 
L 373.109097 295.488 
L 373.293225 295.408656 
L 373.293402 295.329312 
L 373.293461 295.488 
L 373.404256 295.488 
L 375.361226 295.488 
L 375.361815 295.170624 
L 375.472316 295.488 
L 375.817542 295.488 
L 375.822019 294.69456 
L 375.928632 295.488 
L 376.769522 295.488 
L 376.769934 295.329312 
L 376.880611 295.488 
L 377.701651 295.488 
L 377.702063 295.329312 
L 377.81274 295.488 
L 377.867107 295.488 
L 377.952515 295.329312 
L 377.978197 295.488 
L 378.445763 295.488 
L 378.446176 295.329312 
L 378.556853 295.488 
L 378.566984 295.488 
L 378.567397 295.329312 
L 378.678074 295.488 
L 378.777501 295.488 
L 378.777913 295.249968 
L 378.888591 295.488 
L 379.058583 295.488 
L 379.058995 295.249968 
L 379.169673 295.488 
L 379.382016 295.488 
L 379.382428 295.249968 
L 379.493105 295.488 
L 379.51537 295.488 
L 379.515783 295.170624 
L 379.62646 295.488 
L 381.050423 295.488 
L 381.064501 295.249968 
L 381.161513 295.488 
L 381.595976 295.488 
L 381.596389 295.329312 
L 381.707066 295.488 
L 382.055473 295.488 
L 382.055886 295.170624 
L 382.166563 295.488 
L 382.260866 295.408656 
L 382.260983 295.329312 
L 382.261337 295.488 
L 382.371897 295.488 
L 382.615104 295.488 
L 382.615811 295.329312 
L 382.726194 295.488 
L 382.958563 295.488 
L 382.958976 295.329312 
L 383.069653 295.488 
L 383.427897 295.408656 
L 383.428309 295.249968 
L 383.428368 295.488 
L 383.538928 295.488 
L 383.636529 295.488 
L 383.636941 295.329312 
L 383.747619 295.488 
L 384.014269 295.408656 
L 384.014564 295.329312 
L 384.014623 295.488 
L 384.1253 295.488 
L 384.790602 295.488 
L 384.791014 295.329312 
L 384.901692 295.488 
L 385.204921 295.488 
L 385.236846 295.329312 
L 385.31601 295.488 
L 385.812734 295.488 
L 385.813146 295.329312 
L 385.923823 295.488 
L 386.126918 295.488 
L 386.127331 295.329312 
L 386.238008 295.488 
L 386.962978 295.488 
L 386.96339 295.170624 
L 387.074068 295.488 
L 387.096274 295.488 
L 387.150994 295.329312 
L 387.207363 295.488 
L 387.529265 295.488 
L 387.529618 295.329312 
L 387.640354 295.488 
L 388.496853 295.488 
L 388.533254 295.329312 
L 388.607942 295.488 
L 389.021437 295.408656 
L 389.021849 295.249968 
L 389.021908 295.488 
L 389.132468 295.488 
L 389.227006 295.408656 
L 389.227418 295.329312 
L 389.227477 295.488 
L 389.338037 295.488 
L 389.961282 295.488 
L 389.961871 295.329312 
L 390.072372 295.488 
L 390.271756 295.408656 
L 390.272168 295.329312 
L 390.272227 295.488 
L 390.382787 295.488 
L 390.383788 295.488 
L 390.3842 295.170624 
L 390.494878 295.488 
L 391.458578 295.488 
L 391.458991 295.170624 
L 391.569668 295.488 
L 392.625904 295.488 
L 392.626317 295.09128 
L 392.736994 295.488 
L 394.211495 295.488 
L 394.321407 295.329312 
L 394.322585 295.488 
L 394.797338 295.408656 
L 394.79775 295.249968 
L 394.797868 295.488 
L 394.908369 295.488 
L 395.16159 295.488 
L 395.188214 295.170624 
L 395.272679 295.488 
L 395.303426 295.488 
L 395.303839 295.329312 
L 395.414516 295.488 
L 395.487143 295.488 
L 395.532144 295.329312 
L 395.598232 295.488 
L 395.668385 295.488 
L 395.668797 295.329312 
L 395.779475 295.488 
L 396.690104 295.488 
L 396.707304 295.329312 
L 396.801194 295.488 
L 396.833826 295.488 
L 396.834238 295.249968 
L 396.944916 295.488 
L 397.041457 295.408656 
L 397.04181 295.329312 
L 397.041869 295.488 
L 397.152488 295.488 
L 398.487273 295.488 
L 398.487273 295.488 
" clip-path="url(#pdc05c3719b)" style="fill: none; stroke: #1f77b4; stroke-width: 1.5; stroke-linecap: square"/>
   </g>
   <g id="line2d_15">
    <path d="M 176.970251 307.584 
L 176.970251 41.472 
" clip-path="url(#pdc05c3719b)" style="fill: none; stroke-dasharray: 5.55,2.4; stroke-dashoffset: 0; stroke: #ff0000; stroke-width: 1.5"/>
   </g>
   <g id="line2d_16">
    <path d="M 177.014016 307.584 
L 177.014016 41.472 
" clip-path="url(#pdc05c3719b)" style="fill: none; stroke-dasharray: 5.55,2.4; stroke-dashoffset: 0; stroke: #ff0000; stroke-width: 1.5"/>
   </g>
   <g id="patch_3">
    <path d="M 57.6 307.584 
L 57.6 41.472 
" style="fill: none; stroke: #000000; stroke-width: 0.8; stroke-linejoin: miter; stroke-linecap: square"/>
   </g>
   <g id="patch_4">
    <path d="M 414.72 307.584 
L 414.72 41.472 
" style="fill: none; stroke: #000000; stroke-width: 0.8; stroke-linejoin: miter; stroke-linecap: square"/>
   </g>
   <g id="patch_5">
    <path d="M 57.6 307.584 
L 414.72 307.584 
" style="fill: none; stroke: #000000; stroke-width: 0.8; stroke-linejoin: miter; stroke-linecap: square"/>
   </g>
   <g id="patch_6">
    <path d="M 57.6 41.472 
L 414.72 41.472 
" style="fill: none; stroke: #000000; stroke-width: 0.8; stroke-linejoin: miter; stroke-linecap: square"/>
   </g>
   <g id="text_17">
    <!-- Phocaeicola dorei strain JR01 -->
    <g transform="translate(148.86375 22.034625) scale(0.12 -0.12)">
     <defs>
      <path id="DejaVuSans-50" d="M 1259 4147 
L 1259 2394 
L 2053 2394 
Q 2494 2394 2734 2622 
Q 2975 2850 2975 3272 
Q 2975 3691 2734 3919 
Q 2494 4147 2053 4147 
L 1259 4147 
z
M 628 4666 
L 2053 4666 
Q 2838 4666 3239 4311 
Q 3641 3956 3641 3272 
Q 3641 2581 3239 2228 
Q 2838 1875 2053 1875 
L 1259 1875 
L 1259 0 
L 628 0 
L 628 4666 
z
" transform="scale(0.015625)"/>
      <path id="DejaVuSans-68" d="M 3513 2113 
L 3513 0 
L 2938 0 
L 2938 2094 
Q 2938 2591 2744 2837 
Q 2550 3084 2163 3084 
Q 1697 3084 1428 2787 
Q 1159 2491 1159 1978 
L 1159 0 
L 581 0 
L 581 4863 
L 1159 4863 
L 1159 2956 
Q 1366 3272 1645 3428 
Q 1925 3584 2291 3584 
Q 2894 3584 3203 3211 
Q 3513 2838 3513 2113 
z
" transform="scale(0.015625)"/>
      <path id="DejaVuSans-4a" d="M 628 4666 
L 1259 4666 
L 1259 325 
Q 1259 -519 939 -900 
Q 619 -1281 -91 -1281 
L -331 -1281 
L -331 -750 
L -134 -750 
Q 284 -750 456 -515 
Q 628 -281 628 325 
L 628 4666 
z
" transform="scale(0.015625)"/>
      <path id="DejaVuSans-52" d="M 2841 2188 
Q 3044 2119 3236 1894 
Q 3428 1669 3622 1275 
L 4263 0 
L 3584 0 
L 2988 1197 
Q 2756 1666 2539 1819 
Q 2322 1972 1947 1972 
L 1259 1972 
L 1259 0 
L 628 0 
L 628 4666 
L 2053 4666 
Q 2853 4666 3247 4331 
Q 3641 3997 3641 3322 
Q 3641 2881 3436 2590 
Q 3231 2300 2841 2188 
z
M 1259 4147 
L 1259 2491 
L 2053 2491 
Q 2509 2491 2742 2702 
Q 2975 2913 2975 3322 
Q 2975 3731 2742 3939 
Q 2509 4147 2053 4147 
L 1259 4147 
z
" transform="scale(0.015625)"/>
     </defs>
     <use xlink:href="#DejaVuSans-50"/>
     <use xlink:href="#DejaVuSans-68" x="60.302734"/>
     <use xlink:href="#DejaVuSans-6f" x="123.681641"/>
     <use xlink:href="#DejaVuSans-63" x="184.863281"/>
     <use xlink:href="#DejaVuSans-61" x="239.84375"/>
     <use xlink:href="#DejaVuSans-65" x="301.123047"/>
     <use xlink:href="#DejaVuSans-69" x="362.646484"/>
     <use xlink:href="#DejaVuSans-63" x="390.429688"/>
     <use xlink:href="#DejaVuSans-6f" x="445.410156"/>
     <use xlink:href="#DejaVuSans-6c" x="506.591797"/>
     <use xlink:href="#DejaVuSans-61" x="534.375"/>
     <use xlink:href="#DejaVuSans-20" x="595.654297"/>
     <use xlink:href="#DejaVuSans-64" x="627.441406"/>
     <use xlink:href="#DejaVuSans-6f" x="690.917969"/>
     <use xlink:href="#DejaVuSans-72" x="752.099609"/>
     <use xlink:href="#DejaVuSans-65" x="790.962891"/>
     <use xlink:href="#DejaVuSans-69" x="852.486328"/>
     <use xlink:href="#DejaVuSans-20" x="880.269531"/>
     <use xlink:href="#DejaVuSans-73" x="912.056641"/>
     <use xlink:href="#DejaVuSans-74" x="964.15625"/>
     <use xlink:href="#DejaVuSans-72" x="1003.365234"/>
     <use xlink:href="#DejaVuSans-61" x="1044.478516"/>
     <use xlink:href="#DejaVuSans-69" x="1105.757812"/>
     <use xlink:href="#DejaVuSans-6e" x="1133.541016"/>
     <use xlink:href="#DejaVuSans-20" x="1196.919922"/>
     <use xlink:href="#DejaVuSans-4a" x="1228.707031"/>
     <use xlink:href="#DejaVuSans-52" x="1258.199219"/>
     <use xlink:href="#DejaVuSans-30" x="1327.681641"/>
     <use xlink:href="#DejaVuSans-31" x="1391.304688"/>
    </g>
    <!-- Total coverage: 0.77% -->
    <g transform="translate(169.395 35.472) scale(0.12 -0.12)">
     <defs>
      <path id="DejaVuSans-54" d="M -19 4666 
L 3928 4666 
L 3928 4134 
L 2272 4134 
L 2272 0 
L 1638 0 
L 1638 4134 
L -19 4134 
L -19 4666 
z
" transform="scale(0.015625)"/>
      <path id="DejaVuSans-3a" d="M 750 794 
L 1409 794 
L 1409 0 
L 750 0 
L 750 794 
z
M 750 3309 
L 1409 3309 
L 1409 2516 
L 750 2516 
L 750 3309 
z
" transform="scale(0.015625)"/>
      <path id="DejaVuSans-2e" d="M 684 794 
L 1344 794 
L 1344 0 
L 684 0 
L 684 794 
z
" transform="scale(0.015625)"/>
      <path id="DejaVuSans-37" d="M 525 4666 
L 3525 4666 
L 3525 4397 
L 1831 0 
L 1172 0 
L 2766 4134 
L 525 4134 
L 525 4666 
z
" transform="scale(0.015625)"/>
      <path id="DejaVuSans-25" d="M 4653 2053 
Q 4381 2053 4226 1822 
Q 4072 1591 4072 1178 
Q 4072 772 4226 539 
Q 4381 306 4653 306 
Q 4919 306 5073 539 
Q 5228 772 5228 1178 
Q 5228 1588 5073 1820 
Q 4919 2053 4653 2053 
z
M 4653 2450 
Q 5147 2450 5437 2106 
Q 5728 1763 5728 1178 
Q 5728 594 5436 251 
Q 5144 -91 4653 -91 
Q 4153 -91 3862 251 
Q 3572 594 3572 1178 
Q 3572 1766 3864 2108 
Q 4156 2450 4653 2450 
z
M 1428 4353 
Q 1159 4353 1004 4120 
Q 850 3888 850 3481 
Q 850 3069 1003 2837 
Q 1156 2606 1428 2606 
Q 1700 2606 1854 2837 
Q 2009 3069 2009 3481 
Q 2009 3884 1853 4118 
Q 1697 4353 1428 4353 
z
M 4250 4750 
L 4750 4750 
L 1831 -91 
L 1331 -91 
L 4250 4750 
z
M 1428 4750 
Q 1922 4750 2215 4408 
Q 2509 4066 2509 3481 
Q 2509 2891 2217 2550 
Q 1925 2209 1428 2209 
Q 931 2209 642 2551 
Q 353 2894 353 3481 
Q 353 4063 643 4406 
Q 934 4750 1428 4750 
z
" transform="scale(0.015625)"/>
     </defs>
     <use xlink:href="#DejaVuSans-54"/>
     <use xlink:href="#DejaVuSans-6f" x="44.083984"/>
     <use xlink:href="#DejaVuSans-74" x="105.265625"/>
     <use xlink:href="#DejaVuSans-61" x="144.474609"/>
     <use xlink:href="#DejaVuSans-6c" x="205.753906"/>
     <use xlink:href="#DejaVuSans-20" x="233.537109"/>
     <use xlink:href="#DejaVuSans-63" x="265.324219"/>
     <use xlink:href="#DejaVuSans-6f" x="320.304688"/>
     <use xlink:href="#DejaVuSans-76" x="381.486328"/>
     <use xlink:href="#DejaVuSans-65" x="440.666016"/>
     <use xlink:href="#DejaVuSans-72" x="502.189453"/>
     <use xlink:href="#DejaVuSans-61" x="543.302734"/>
     <use xlink:href="#DejaVuSans-67" x="604.582031"/>
     <use xlink:href="#DejaVuSans-65" x="668.058594"/>
     <use xlink:href="#DejaVuSans-3a" x="729.582031"/>
     <use xlink:href="#DejaVuSans-20" x="763.273438"/>
     <use xlink:href="#DejaVuSans-30" x="795.060547"/>
     <use xlink:href="#DejaVuSans-2e" x="858.683594"/>
     <use xlink:href="#DejaVuSans-37" x="890.470703"/>
     <use xlink:href="#DejaVuSans-37" x="954.09375"/>
     <use xlink:href="#DejaVuSans-25" x="1017.716797"/>
    </g>
   </g>
  </g>
 </g>
 <defs>
  <clipPath id="pdc05c3719b">
   <rect x="57.6" y="41.472" width="357.12" height="266.112"/>
  </clipPath>
 </defs>
</svg>
