<?xml version="1.0" encoding="utf-8" standalone="no"?>
<!DOCTYPE svg PUBLIC "-//W3C//DTD SVG 1.1//EN"
  "http://www.w3.org/Graphics/SVG/1.1/DTD/svg11.dtd">
<svg xmlns:xlink="http://www.w3.org/1999/xlink" width="432pt" height="432pt" viewBox="0 0 432 432" xmlns="http://www.w3.org/2000/svg" version="1.1">
 <metadata>
  <rdf:RDF xmlns:dc="http://purl.org/dc/elements/1.1/" xmlns:cc="http://creativecommons.org/ns#" xmlns:rdf="http://www.w3.org/1999/02/22-rdf-syntax-ns#">
   <cc:Work>
    <dc:type rdf:resource="http://purl.org/dc/dcmitype/StillImage"/>
    <dc:date>2024-06-23T16:57:49.569150</dc:date>
    <dc:format>image/svg+xml</dc:format>
    <dc:creator>
     <cc:Agent>
      <dc:title>Matplotlib v3.6.0, https://matplotlib.org/</dc:title>
     </cc:Agent>
    </dc:creator>
   </cc:Work>
  </rdf:RDF>
 </metadata>
 <defs>
  <style type="text/css">*{stroke-linejoin: round; stroke-linecap: butt}</style>
 </defs>
 <g id="figure_1">
  <g id="patch_1">
   <path d="M 0 432 
L 432 432 
L 432 0 
L 0 0 
z
" style="fill: #ffffff"/>
  </g>
  <g id="axes_1">
   <g id="patch_2">
    <path d="M 45.83 390.04 
L 356.850857 390.04 
L 356.850857 75.812571 
L 45.83 75.812571 
z
" style="fill: #ffffff"/>
   </g>
   <g id="line2d_1">
    <path d="M 45.83 197.408284 
L 356.850857 197.408284 
" clip-path="url(#pf6b9ea7052)" style="fill: none; stroke: #d3d3d3; stroke-width: 1.5; stroke-linecap: round"/>
   </g>
   <g id="line2d_2">
    <path d="M 182.197294 390.04 
L 182.197294 75.812571 
" clip-path="url(#pf6b9ea7052)" style="fill: none; stroke: #d3d3d3; stroke-width: 1.5; stroke-linecap: round"/>
   </g>
   <g id="matplotlib.axis_1">
    <g id="xtick_1">
     <g id="text_1">
      <!-- −7.5 -->
      <g style="fill: #262626" transform="translate(65.288669 404.197812) scale(0.1 -0.1)">
       <defs>
        <path id="ArialMT-2212" d="M 3381 1997 
L 356 1997 
L 356 2522 
L 3381 2522 
L 3381 1997 
z
" transform="scale(0.015625)"/>
        <path id="ArialMT-37" d="M 303 3981 
L 303 4522 
L 3269 4522 
L 3269 4084 
Q 2831 3619 2401 2847 
Q 1972 2075 1738 1259 
Q 1569 684 1522 0 
L 944 0 
Q 953 541 1156 1306 
Q 1359 2072 1739 2783 
Q 2119 3494 2547 3981 
L 303 3981 
z
" transform="scale(0.015625)"/>
        <path id="ArialMT-2e" d="M 581 0 
L 581 641 
L 1222 641 
L 1222 0 
L 581 0 
z
" transform="scale(0.015625)"/>
        <path id="ArialMT-35" d="M 266 1200 
L 856 1250 
Q 922 819 1161 601 
Q 1400 384 1738 384 
Q 2144 384 2425 690 
Q 2706 997 2706 1503 
Q 2706 1984 2436 2262 
Q 2166 2541 1728 2541 
Q 1456 2541 1237 2417 
Q 1019 2294 894 2097 
L 366 2166 
L 809 4519 
L 3088 4519 
L 3088 3981 
L 1259 3981 
L 1013 2750 
Q 1425 3038 1878 3038 
Q 2478 3038 2890 2622 
Q 3303 2206 3303 1553 
Q 3303 931 2941 478 
Q 2500 -78 1738 -78 
Q 1113 -78 717 272 
Q 322 622 266 1200 
z
" transform="scale(0.015625)"/>
       </defs>
       <use xlink:href="#ArialMT-2212"/>
       <use xlink:href="#ArialMT-37" x="58.398438"/>
       <use xlink:href="#ArialMT-2e" x="114.013672"/>
       <use xlink:href="#ArialMT-35" x="141.796875"/>
      </g>
     </g>
    </g>
    <g id="xtick_2">
     <g id="text_2">
      <!-- −5.0 -->
      <g style="fill: #262626" transform="translate(100.968106 404.197812) scale(0.1 -0.1)">
       <defs>
        <path id="ArialMT-30" d="M 266 2259 
Q 266 3072 433 3567 
Q 600 4063 929 4331 
Q 1259 4600 1759 4600 
Q 2128 4600 2406 4451 
Q 2684 4303 2865 4023 
Q 3047 3744 3150 3342 
Q 3253 2941 3253 2259 
Q 3253 1453 3087 958 
Q 2922 463 2592 192 
Q 2263 -78 1759 -78 
Q 1097 -78 719 397 
Q 266 969 266 2259 
z
M 844 2259 
Q 844 1131 1108 757 
Q 1372 384 1759 384 
Q 2147 384 2411 759 
Q 2675 1134 2675 2259 
Q 2675 3391 2411 3762 
Q 2147 4134 1753 4134 
Q 1366 4134 1134 3806 
Q 844 3388 844 2259 
z
" transform="scale(0.015625)"/>
       </defs>
       <use xlink:href="#ArialMT-2212"/>
       <use xlink:href="#ArialMT-35" x="58.398438"/>
       <use xlink:href="#ArialMT-2e" x="114.013672"/>
       <use xlink:href="#ArialMT-30" x="141.796875"/>
      </g>
     </g>
    </g>
    <g id="xtick_3">
     <g id="text_3">
      <!-- −2.5 -->
      <g style="fill: #262626" transform="translate(136.647544 404.197812) scale(0.1 -0.1)">
       <defs>
        <path id="ArialMT-32" d="M 3222 541 
L 3222 0 
L 194 0 
Q 188 203 259 391 
Q 375 700 629 1000 
Q 884 1300 1366 1694 
Q 2113 2306 2375 2664 
Q 2638 3022 2638 3341 
Q 2638 3675 2398 3904 
Q 2159 4134 1775 4134 
Q 1369 4134 1125 3890 
Q 881 3647 878 3216 
L 300 3275 
Q 359 3922 746 4261 
Q 1134 4600 1788 4600 
Q 2447 4600 2831 4234 
Q 3216 3869 3216 3328 
Q 3216 3053 3103 2787 
Q 2991 2522 2730 2228 
Q 2469 1934 1863 1422 
Q 1356 997 1212 845 
Q 1069 694 975 541 
L 3222 541 
z
" transform="scale(0.015625)"/>
       </defs>
       <use xlink:href="#ArialMT-2212"/>
       <use xlink:href="#ArialMT-32" x="58.398438"/>
       <use xlink:href="#ArialMT-2e" x="114.013672"/>
       <use xlink:href="#ArialMT-35" x="141.796875"/>
      </g>
     </g>
    </g>
    <g id="xtick_4">
     <g id="text_4">
      <!-- 0.0 -->
      <g style="fill: #262626" transform="translate(175.247294 404.197812) scale(0.1 -0.1)">
       <use xlink:href="#ArialMT-30"/>
       <use xlink:href="#ArialMT-2e" x="55.615234"/>
       <use xlink:href="#ArialMT-30" x="83.398438"/>
      </g>
     </g>
    </g>
    <g id="xtick_5">
     <g id="text_5">
      <!-- 2.5 -->
      <g style="fill: #262626" transform="translate(210.926731 404.197812) scale(0.1 -0.1)">
       <use xlink:href="#ArialMT-32"/>
       <use xlink:href="#ArialMT-2e" x="55.615234"/>
       <use xlink:href="#ArialMT-35" x="83.398438"/>
      </g>
     </g>
    </g>
    <g id="xtick_6">
     <g id="text_6">
      <!-- 5.0 -->
      <g style="fill: #262626" transform="translate(246.606168 404.197812) scale(0.1 -0.1)">
       <use xlink:href="#ArialMT-35"/>
       <use xlink:href="#ArialMT-2e" x="55.615234"/>
       <use xlink:href="#ArialMT-30" x="83.398438"/>
      </g>
     </g>
    </g>
    <g id="xtick_7">
     <g id="text_7">
      <!-- 7.5 -->
      <g style="fill: #262626" transform="translate(282.285606 404.197812) scale(0.1 -0.1)">
       <use xlink:href="#ArialMT-37"/>
       <use xlink:href="#ArialMT-2e" x="55.615234"/>
       <use xlink:href="#ArialMT-35" x="83.398438"/>
      </g>
     </g>
    </g>
    <g id="xtick_8">
     <g id="text_8">
      <!-- 10.0 -->
      <g style="fill: #262626" transform="translate(315.184574 404.197812) scale(0.1 -0.1)">
       <defs>
        <path id="ArialMT-31" d="M 2384 0 
L 1822 0 
L 1822 3584 
Q 1619 3391 1289 3197 
Q 959 3003 697 2906 
L 697 3450 
Q 1169 3672 1522 3987 
Q 1875 4303 2022 4600 
L 2384 4600 
L 2384 0 
z
" transform="scale(0.015625)"/>
       </defs>
       <use xlink:href="#ArialMT-31"/>
       <use xlink:href="#ArialMT-30" x="55.615234"/>
       <use xlink:href="#ArialMT-2e" x="111.230469"/>
       <use xlink:href="#ArialMT-30" x="139.013672"/>
      </g>
     </g>
    </g>
    <g id="text_9">
     <!-- Net charge -->
     <g style="fill: #262626" transform="translate(176.884179 417.343125) scale(0.1 -0.1)">
      <defs>
       <path id="ArialMT-4e" d="M 488 0 
L 488 4581 
L 1109 4581 
L 3516 984 
L 3516 4581 
L 4097 4581 
L 4097 0 
L 3475 0 
L 1069 3600 
L 1069 0 
L 488 0 
z
" transform="scale(0.015625)"/>
       <path id="ArialMT-65" d="M 2694 1069 
L 3275 997 
Q 3138 488 2766 206 
Q 2394 -75 1816 -75 
Q 1088 -75 661 373 
Q 234 822 234 1631 
Q 234 2469 665 2931 
Q 1097 3394 1784 3394 
Q 2450 3394 2872 2941 
Q 3294 2488 3294 1666 
Q 3294 1616 3291 1516 
L 816 1516 
Q 847 969 1125 678 
Q 1403 388 1819 388 
Q 2128 388 2347 550 
Q 2566 713 2694 1069 
z
M 847 1978 
L 2700 1978 
Q 2663 2397 2488 2606 
Q 2219 2931 1791 2931 
Q 1403 2931 1139 2672 
Q 875 2413 847 1978 
z
" transform="scale(0.015625)"/>
       <path id="ArialMT-74" d="M 1650 503 
L 1731 6 
Q 1494 -44 1306 -44 
Q 1000 -44 831 53 
Q 663 150 594 308 
Q 525 466 525 972 
L 525 2881 
L 113 2881 
L 113 3319 
L 525 3319 
L 525 4141 
L 1084 4478 
L 1084 3319 
L 1650 3319 
L 1650 2881 
L 1084 2881 
L 1084 941 
Q 1084 700 1114 631 
Q 1144 563 1211 522 
Q 1278 481 1403 481 
Q 1497 481 1650 503 
z
" transform="scale(0.015625)"/>
       <path id="ArialMT-20" transform="scale(0.015625)"/>
       <path id="ArialMT-63" d="M 2588 1216 
L 3141 1144 
Q 3050 572 2676 248 
Q 2303 -75 1759 -75 
Q 1078 -75 664 370 
Q 250 816 250 1647 
Q 250 2184 428 2587 
Q 606 2991 970 3192 
Q 1334 3394 1763 3394 
Q 2303 3394 2647 3120 
Q 2991 2847 3088 2344 
L 2541 2259 
Q 2463 2594 2264 2762 
Q 2066 2931 1784 2931 
Q 1359 2931 1093 2626 
Q 828 2322 828 1663 
Q 828 994 1084 691 
Q 1341 388 1753 388 
Q 2084 388 2306 591 
Q 2528 794 2588 1216 
z
" transform="scale(0.015625)"/>
       <path id="ArialMT-68" d="M 422 0 
L 422 4581 
L 984 4581 
L 984 2938 
Q 1378 3394 1978 3394 
Q 2347 3394 2619 3248 
Q 2891 3103 3008 2847 
Q 3125 2591 3125 2103 
L 3125 0 
L 2563 0 
L 2563 2103 
Q 2563 2525 2380 2717 
Q 2197 2909 1863 2909 
Q 1613 2909 1392 2779 
Q 1172 2650 1078 2428 
Q 984 2206 984 1816 
L 984 0 
L 422 0 
z
" transform="scale(0.015625)"/>
       <path id="ArialMT-61" d="M 2588 409 
Q 2275 144 1986 34 
Q 1697 -75 1366 -75 
Q 819 -75 525 192 
Q 231 459 231 875 
Q 231 1119 342 1320 
Q 453 1522 633 1644 
Q 813 1766 1038 1828 
Q 1203 1872 1538 1913 
Q 2219 1994 2541 2106 
Q 2544 2222 2544 2253 
Q 2544 2597 2384 2738 
Q 2169 2928 1744 2928 
Q 1347 2928 1158 2789 
Q 969 2650 878 2297 
L 328 2372 
Q 403 2725 575 2942 
Q 747 3159 1072 3276 
Q 1397 3394 1825 3394 
Q 2250 3394 2515 3294 
Q 2781 3194 2906 3042 
Q 3031 2891 3081 2659 
Q 3109 2516 3109 2141 
L 3109 1391 
Q 3109 606 3145 398 
Q 3181 191 3288 0 
L 2700 0 
Q 2613 175 2588 409 
z
M 2541 1666 
Q 2234 1541 1622 1453 
Q 1275 1403 1131 1340 
Q 988 1278 909 1158 
Q 831 1038 831 891 
Q 831 666 1001 516 
Q 1172 366 1500 366 
Q 1825 366 2078 508 
Q 2331 650 2450 897 
Q 2541 1088 2541 1459 
L 2541 1666 
z
" transform="scale(0.015625)"/>
       <path id="ArialMT-72" d="M 416 0 
L 416 3319 
L 922 3319 
L 922 2816 
Q 1116 3169 1280 3281 
Q 1444 3394 1641 3394 
Q 1925 3394 2219 3213 
L 2025 2691 
Q 1819 2813 1613 2813 
Q 1428 2813 1281 2702 
Q 1134 2591 1072 2394 
Q 978 2094 978 1738 
L 978 0 
L 416 0 
z
" transform="scale(0.015625)"/>
       <path id="ArialMT-67" d="M 319 -275 
L 866 -356 
Q 900 -609 1056 -725 
Q 1266 -881 1628 -881 
Q 2019 -881 2231 -725 
Q 2444 -569 2519 -288 
Q 2563 -116 2559 434 
Q 2191 0 1641 0 
Q 956 0 581 494 
Q 206 988 206 1678 
Q 206 2153 378 2554 
Q 550 2956 876 3175 
Q 1203 3394 1644 3394 
Q 2231 3394 2613 2919 
L 2613 3319 
L 3131 3319 
L 3131 450 
Q 3131 -325 2973 -648 
Q 2816 -972 2473 -1159 
Q 2131 -1347 1631 -1347 
Q 1038 -1347 672 -1080 
Q 306 -813 319 -275 
z
M 784 1719 
Q 784 1066 1043 766 
Q 1303 466 1694 466 
Q 2081 466 2343 764 
Q 2606 1063 2606 1700 
Q 2606 2309 2336 2618 
Q 2066 2928 1684 2928 
Q 1309 2928 1046 2623 
Q 784 2319 784 1719 
z
" transform="scale(0.015625)"/>
      </defs>
      <use xlink:href="#ArialMT-4e"/>
      <use xlink:href="#ArialMT-65" x="72.216797"/>
      <use xlink:href="#ArialMT-74" x="127.832031"/>
      <use xlink:href="#ArialMT-20" x="155.615234"/>
      <use xlink:href="#ArialMT-63" x="183.398438"/>
      <use xlink:href="#ArialMT-68" x="233.398438"/>
      <use xlink:href="#ArialMT-61" x="289.013672"/>
      <use xlink:href="#ArialMT-72" x="344.628906"/>
      <use xlink:href="#ArialMT-67" x="377.929688"/>
      <use xlink:href="#ArialMT-65" x="433.544922"/>
     </g>
    </g>
   </g>
   <g id="matplotlib.axis_2">
    <g id="ytick_1">
     <g id="text_10">
      <!-- −6 -->
      <g style="fill: #262626" transform="translate(27.428438 377.735539) scale(0.1 -0.1)">
       <defs>
        <path id="ArialMT-36" d="M 3184 3459 
L 2625 3416 
Q 2550 3747 2413 3897 
Q 2184 4138 1850 4138 
Q 1581 4138 1378 3988 
Q 1113 3794 959 3422 
Q 806 3050 800 2363 
Q 1003 2672 1297 2822 
Q 1591 2972 1913 2972 
Q 2475 2972 2870 2558 
Q 3266 2144 3266 1488 
Q 3266 1056 3080 686 
Q 2894 316 2569 119 
Q 2244 -78 1831 -78 
Q 1128 -78 684 439 
Q 241 956 241 2144 
Q 241 3472 731 4075 
Q 1159 4600 1884 4600 
Q 2425 4600 2770 4297 
Q 3116 3994 3184 3459 
z
M 888 1484 
Q 888 1194 1011 928 
Q 1134 663 1356 523 
Q 1578 384 1822 384 
Q 2178 384 2434 671 
Q 2691 959 2691 1453 
Q 2691 1928 2437 2201 
Q 2184 2475 1800 2475 
Q 1419 2475 1153 2201 
Q 888 1928 888 1484 
z
" transform="scale(0.015625)"/>
       </defs>
       <use xlink:href="#ArialMT-2212"/>
       <use xlink:href="#ArialMT-36" x="58.398438"/>
      </g>
     </g>
    </g>
    <g id="ytick_2">
     <g id="text_11">
      <!-- −4 -->
      <g style="fill: #262626" transform="translate(27.428438 318.819423) scale(0.1 -0.1)">
       <defs>
        <path id="ArialMT-34" d="M 2069 0 
L 2069 1097 
L 81 1097 
L 81 1613 
L 2172 4581 
L 2631 4581 
L 2631 1613 
L 3250 1613 
L 3250 1097 
L 2631 1097 
L 2631 0 
L 2069 0 
z
M 2069 1613 
L 2069 3678 
L 634 1613 
L 2069 1613 
z
" transform="scale(0.015625)"/>
       </defs>
       <use xlink:href="#ArialMT-2212"/>
       <use xlink:href="#ArialMT-34" x="58.398438"/>
      </g>
     </g>
    </g>
    <g id="ytick_3">
     <g id="text_12">
      <!-- −2 -->
      <g style="fill: #262626" transform="translate(27.428438 259.903307) scale(0.1 -0.1)">
       <use xlink:href="#ArialMT-2212"/>
       <use xlink:href="#ArialMT-32" x="58.398438"/>
      </g>
     </g>
    </g>
    <g id="ytick_4">
     <g id="text_13">
      <!-- 0 -->
      <g style="fill: #262626" transform="translate(33.269063 200.987191) scale(0.1 -0.1)">
       <use xlink:href="#ArialMT-30"/>
      </g>
     </g>
    </g>
    <g id="ytick_5">
     <g id="text_14">
      <!-- 2 -->
      <g style="fill: #262626" transform="translate(33.269063 142.071074) scale(0.1 -0.1)">
       <use xlink:href="#ArialMT-32"/>
      </g>
     </g>
    </g>
    <g id="ytick_6">
     <g id="text_15">
      <!-- 4 -->
      <g style="fill: #262626" transform="translate(33.269063 83.154958) scale(0.1 -0.1)">
       <use xlink:href="#ArialMT-34"/>
      </g>
     </g>
    </g>
    <g id="text_16">
     <!-- GRAVY index -->
     <g style="fill: #262626" transform="translate(21.440938 263.316911) rotate(-90) scale(0.1 -0.1)">
      <defs>
       <path id="ArialMT-47" d="M 2638 1797 
L 2638 2334 
L 4578 2338 
L 4578 638 
Q 4131 281 3656 101 
Q 3181 -78 2681 -78 
Q 2006 -78 1454 211 
Q 903 500 622 1047 
Q 341 1594 341 2269 
Q 341 2938 620 3517 
Q 900 4097 1425 4378 
Q 1950 4659 2634 4659 
Q 3131 4659 3532 4498 
Q 3934 4338 4162 4050 
Q 4391 3763 4509 3300 
L 3963 3150 
Q 3859 3500 3706 3700 
Q 3553 3900 3268 4020 
Q 2984 4141 2638 4141 
Q 2222 4141 1919 4014 
Q 1616 3888 1430 3681 
Q 1244 3475 1141 3228 
Q 966 2803 966 2306 
Q 966 1694 1177 1281 
Q 1388 869 1791 669 
Q 2194 469 2647 469 
Q 3041 469 3416 620 
Q 3791 772 3984 944 
L 3984 1797 
L 2638 1797 
z
" transform="scale(0.015625)"/>
       <path id="ArialMT-52" d="M 503 0 
L 503 4581 
L 2534 4581 
Q 3147 4581 3465 4457 
Q 3784 4334 3975 4021 
Q 4166 3709 4166 3331 
Q 4166 2844 3850 2509 
Q 3534 2175 2875 2084 
Q 3116 1969 3241 1856 
Q 3506 1613 3744 1247 
L 4541 0 
L 3778 0 
L 3172 953 
Q 2906 1366 2734 1584 
Q 2563 1803 2427 1890 
Q 2291 1978 2150 2013 
Q 2047 2034 1813 2034 
L 1109 2034 
L 1109 0 
L 503 0 
z
M 1109 2559 
L 2413 2559 
Q 2828 2559 3062 2645 
Q 3297 2731 3419 2920 
Q 3541 3109 3541 3331 
Q 3541 3656 3305 3865 
Q 3069 4075 2559 4075 
L 1109 4075 
L 1109 2559 
z
" transform="scale(0.015625)"/>
       <path id="ArialMT-41" d="M -9 0 
L 1750 4581 
L 2403 4581 
L 4278 0 
L 3588 0 
L 3053 1388 
L 1138 1388 
L 634 0 
L -9 0 
z
M 1313 1881 
L 2866 1881 
L 2388 3150 
Q 2169 3728 2063 4100 
Q 1975 3659 1816 3225 
L 1313 1881 
z
" transform="scale(0.015625)"/>
       <path id="ArialMT-56" d="M 1803 0 
L 28 4581 
L 684 4581 
L 1875 1253 
Q 2019 853 2116 503 
Q 2222 878 2363 1253 
L 3600 4581 
L 4219 4581 
L 2425 0 
L 1803 0 
z
" transform="scale(0.015625)"/>
       <path id="ArialMT-59" d="M 1784 0 
L 1784 1941 
L 19 4581 
L 756 4581 
L 1659 3200 
Q 1909 2813 2125 2425 
Q 2331 2784 2625 3234 
L 3513 4581 
L 4219 4581 
L 2391 1941 
L 2391 0 
L 1784 0 
z
" transform="scale(0.015625)"/>
       <path id="ArialMT-69" d="M 425 3934 
L 425 4581 
L 988 4581 
L 988 3934 
L 425 3934 
z
M 425 0 
L 425 3319 
L 988 3319 
L 988 0 
L 425 0 
z
" transform="scale(0.015625)"/>
       <path id="ArialMT-6e" d="M 422 0 
L 422 3319 
L 928 3319 
L 928 2847 
Q 1294 3394 1984 3394 
Q 2284 3394 2536 3286 
Q 2788 3178 2913 3003 
Q 3038 2828 3088 2588 
Q 3119 2431 3119 2041 
L 3119 0 
L 2556 0 
L 2556 2019 
Q 2556 2363 2490 2533 
Q 2425 2703 2258 2804 
Q 2091 2906 1866 2906 
Q 1506 2906 1245 2678 
Q 984 2450 984 1813 
L 984 0 
L 422 0 
z
" transform="scale(0.015625)"/>
       <path id="ArialMT-64" d="M 2575 0 
L 2575 419 
Q 2259 -75 1647 -75 
Q 1250 -75 917 144 
Q 584 363 401 755 
Q 219 1147 219 1656 
Q 219 2153 384 2558 
Q 550 2963 881 3178 
Q 1213 3394 1622 3394 
Q 1922 3394 2156 3267 
Q 2391 3141 2538 2938 
L 2538 4581 
L 3097 4581 
L 3097 0 
L 2575 0 
z
M 797 1656 
Q 797 1019 1065 703 
Q 1334 388 1700 388 
Q 2069 388 2326 689 
Q 2584 991 2584 1609 
Q 2584 2291 2321 2609 
Q 2059 2928 1675 2928 
Q 1300 2928 1048 2622 
Q 797 2316 797 1656 
z
" transform="scale(0.015625)"/>
       <path id="ArialMT-78" d="M 47 0 
L 1259 1725 
L 138 3319 
L 841 3319 
L 1350 2541 
Q 1494 2319 1581 2169 
Q 1719 2375 1834 2534 
L 2394 3319 
L 3066 3319 
L 1919 1756 
L 3153 0 
L 2463 0 
L 1781 1031 
L 1600 1309 
L 728 0 
L 47 0 
z
" transform="scale(0.015625)"/>
      </defs>
      <use xlink:href="#ArialMT-47"/>
      <use xlink:href="#ArialMT-52" x="77.783203"/>
      <use xlink:href="#ArialMT-41" x="150"/>
      <use xlink:href="#ArialMT-56" x="209.324219"/>
      <use xlink:href="#ArialMT-59" x="276.023438"/>
      <use xlink:href="#ArialMT-20" x="340.972656"/>
      <use xlink:href="#ArialMT-69" x="368.755859"/>
      <use xlink:href="#ArialMT-6e" x="390.972656"/>
      <use xlink:href="#ArialMT-64" x="446.587891"/>
      <use xlink:href="#ArialMT-65" x="502.203125"/>
      <use xlink:href="#ArialMT-78" x="557.818359"/>
     </g>
    </g>
   </g>
   <g id="PathCollection_1">
    <defs>
     <path id="C0_0_ebb2e5850e" d="M 0 3 
C 0.795609 3 1.55874 2.683901 2.12132 2.12132 
C 2.683901 1.55874 3 0.795609 3 -0 
C 3 -0.795609 2.683901 -1.55874 2.12132 -2.12132 
C 1.55874 -2.683901 0.795609 -3 0 -3 
C -0.795609 -3 -1.55874 -2.683901 -2.12132 -2.12132 
C -2.683901 -1.55874 -3 -0.795609 -3 0 
C -3 0.795609 -2.683901 1.55874 -2.12132 2.12132 
C -1.55874 2.683901 -0.795609 3 0 3 
z
"/>
    </defs>
    <g clip-path="url(#pf6b9ea7052)">
     <use xlink:href="#C0_0_ebb2e5850e" x="274.556388" y="209.600647" style="fill: #ffa500; stroke: #ffffff; stroke-width: 0.48"/>
    </g>
    <g clip-path="url(#pf6b9ea7052)">
     <use xlink:href="#C0_0_ebb2e5850e" x="231.548548" y="247.486983" style="fill: #ffa500; stroke: #ffffff; stroke-width: 0.48"/>
    </g>
    <g clip-path="url(#pf6b9ea7052)">
     <use xlink:href="#C0_0_ebb2e5850e" x="235.87526" y="192.989576" style="fill: #ffa500; stroke: #ffffff; stroke-width: 0.48"/>
    </g>
    <g clip-path="url(#pf6b9ea7052)">
     <use xlink:href="#C0_0_ebb2e5850e" x="189.323986" y="197.899252" style="fill: #ffa500; stroke: #ffffff; stroke-width: 0.48"/>
    </g>
    <g clip-path="url(#pf6b9ea7052)">
     <use xlink:href="#C0_0_ebb2e5850e" x="203.621471" y="248.141606" style="fill: #ffa500; stroke: #ffffff; stroke-width: 0.48"/>
    </g>
    <g clip-path="url(#pf6b9ea7052)">
     <use xlink:href="#C0_0_ebb2e5850e" x="193.088593" y="220.739066" style="fill: #ffa500; stroke: #ffffff; stroke-width: 0.48"/>
    </g>
    <g clip-path="url(#pf6b9ea7052)">
     <use xlink:href="#C0_0_ebb2e5850e" x="203.595618" y="189.22549" style="fill: #ff0000; stroke: #ffffff; stroke-width: 0.48"/>
    </g>
    <g clip-path="url(#pf6b9ea7052)">
     <use xlink:href="#C0_0_ebb2e5850e" x="177.598029" y="221.654532" style="fill: #ff0000; stroke: #ffffff; stroke-width: 0.48"/>
    </g>
    <g clip-path="url(#pf6b9ea7052)">
     <use xlink:href="#C0_0_ebb2e5850e" x="278.517004" y="219.546461" style="fill: #ff0000; stroke: #ffffff; stroke-width: 0.48"/>
    </g>
    <g clip-path="url(#pf6b9ea7052)">
     <use xlink:href="#C0_0_ebb2e5850e" x="175.068206" y="210.500755" style="fill: #ff0000; stroke: #ffffff; stroke-width: 0.48"/>
    </g>
    <g clip-path="url(#pf6b9ea7052)">
     <use xlink:href="#C0_0_ebb2e5850e" x="207.260038" y="185.625061" style="fill: #ff0000; stroke: #ffffff; stroke-width: 0.48"/>
    </g>
    <g clip-path="url(#pf6b9ea7052)">
     <use xlink:href="#C0_0_ebb2e5850e" x="209.685268" y="206.947084" style="fill: #ff0000; stroke: #ffffff; stroke-width: 0.48"/>
    </g>
    <g clip-path="url(#pf6b9ea7052)">
     <use xlink:href="#C0_0_ebb2e5850e" x="264.304222" y="243.181575" style="fill: #ff0000; stroke: #ffffff; stroke-width: 0.48"/>
    </g>
    <g clip-path="url(#pf6b9ea7052)">
     <use xlink:href="#C0_0_ebb2e5850e" x="193.044368" y="296.303193" style="fill: #ff0000; stroke: #ffffff; stroke-width: 0.48"/>
    </g>
    <g clip-path="url(#pf6b9ea7052)">
     <use xlink:href="#C0_0_ebb2e5850e" x="177.526214" y="178.891791" style="fill: #ff0000; stroke: #ffffff; stroke-width: 0.48"/>
    </g>
    <g clip-path="url(#pf6b9ea7052)">
     <use xlink:href="#C0_0_ebb2e5850e" x="203.595618" y="180.995938" style="fill: #ff0000; stroke: #ffffff; stroke-width: 0.48"/>
    </g>
    <g clip-path="url(#pf6b9ea7052)">
     <use xlink:href="#C0_0_ebb2e5850e" x="118.176182" y="262.216012" style="fill: #ff0000; stroke: #ffffff; stroke-width: 0.48"/>
    </g>
    <g clip-path="url(#pf6b9ea7052)">
     <use xlink:href="#C0_0_ebb2e5850e" x="175.068206" y="196.819123" style="fill: #ff0000; stroke: #ffffff; stroke-width: 0.48"/>
    </g>
    <g clip-path="url(#pf6b9ea7052)">
     <use xlink:href="#C0_0_ebb2e5850e" x="208.369311" y="307.581421" style="fill: #ff0000; stroke: #ffffff; stroke-width: 0.48"/>
    </g>
    <g clip-path="url(#pf6b9ea7052)">
     <use xlink:href="#C0_0_ebb2e5850e" x="207.29348" y="197.713023" style="fill: #ff0000; stroke: #ffffff; stroke-width: 0.48"/>
    </g>
    <g clip-path="url(#pf6b9ea7052)">
     <use xlink:href="#C0_0_ebb2e5850e" x="189.389806" y="273.344612" style="fill: #ff0000; stroke: #ffffff; stroke-width: 0.48"/>
    </g>
    <g clip-path="url(#pf6b9ea7052)">
     <use xlink:href="#C0_0_ebb2e5850e" x="189.363953" y="246.832359" style="fill: #ff0000; stroke: #ffffff; stroke-width: 0.48"/>
    </g>
    <g clip-path="url(#pf6b9ea7052)">
     <use xlink:href="#C0_0_ebb2e5850e" x="238.400187" y="242.816803" style="fill: #ff0000; stroke: #ffffff; stroke-width: 0.48"/>
    </g>
    <g clip-path="url(#pf6b9ea7052)">
     <use xlink:href="#C0_0_ebb2e5850e" x="189.375691" y="228.707471" style="fill: #ff0000; stroke: #ffffff; stroke-width: 0.48"/>
    </g>
    <g clip-path="url(#pf6b9ea7052)">
     <use xlink:href="#C0_0_ebb2e5850e" x="175.066468" y="158.27115" style="fill: #ff0000; stroke: #ffffff; stroke-width: 0.48"/>
    </g>
   </g>
   <g id="PathCollection_2"/>
   <g id="PathCollection_3"/>
   <g id="patch_3">
    <path d="M 45.83 390.04 
L 45.83 75.812571 
" style="fill: none; stroke: #262626; stroke-width: 0.8; stroke-linejoin: miter; stroke-linecap: square"/>
   </g>
   <g id="patch_4">
    <path d="M 45.83 390.04 
L 356.850857 390.04 
" style="fill: none; stroke: #262626; stroke-width: 0.8; stroke-linejoin: miter; stroke-linecap: square"/>
   </g>
   <g id="legend_1">
    <g id="patch_5">
     <path d="M 295.072732 112.103196 
L 349.850857 112.103196 
Q 351.850857 112.103196 351.850857 110.103196 
L 351.850857 82.812571 
Q 351.850857 80.812571 349.850857 80.812571 
L 295.072732 80.812571 
Q 293.072732 80.812571 293.072732 82.812571 
L 293.072732 110.103196 
Q 293.072732 112.103196 295.072732 112.103196 
z
" style="fill: #ffffff; opacity: 0.8; stroke: #cccccc; stroke-linejoin: miter"/>
    </g>
    <g id="PathCollection_4">
     <defs>
      <path id="mcf481e9538" d="M 0 3 
C 0.795609 3 1.55874 2.683901 2.12132 2.12132 
C 2.683901 1.55874 3 0.795609 3 0 
C 3 -0.795609 2.683901 -1.55874 2.12132 -2.12132 
C 1.55874 -2.683901 0.795609 -3 0 -3 
C -0.795609 -3 -1.55874 -2.683901 -2.12132 -2.12132 
C -2.683901 -1.55874 -3 -0.795609 -3 0 
C -3 0.795609 -2.683901 1.55874 -2.12132 2.12132 
C -1.55874 2.683901 -0.795609 3 0 3 
z
" style="stroke: #ffa500"/>
     </defs>
     <g>
      <use xlink:href="#mcf481e9538" x="307.072732" y="89.345384" style="fill: #ffa500; stroke: #ffa500"/>
     </g>
    </g>
    <g id="text_17">
     <!-- Ob -->
     <g style="fill: #262626" transform="translate(325.072732 91.970384) scale(0.1 -0.1)">
      <defs>
       <path id="ArialMT-4f" d="M 309 2231 
Q 309 3372 921 4017 
Q 1534 4663 2503 4663 
Q 3138 4663 3647 4359 
Q 4156 4056 4423 3514 
Q 4691 2972 4691 2284 
Q 4691 1588 4409 1038 
Q 4128 488 3612 205 
Q 3097 -78 2500 -78 
Q 1853 -78 1343 234 
Q 834 547 571 1087 
Q 309 1628 309 2231 
z
M 934 2222 
Q 934 1394 1379 917 
Q 1825 441 2497 441 
Q 3181 441 3623 922 
Q 4066 1403 4066 2288 
Q 4066 2847 3877 3264 
Q 3688 3681 3323 3911 
Q 2959 4141 2506 4141 
Q 1863 4141 1398 3698 
Q 934 3256 934 2222 
z
" transform="scale(0.015625)"/>
       <path id="ArialMT-62" d="M 941 0 
L 419 0 
L 419 4581 
L 981 4581 
L 981 2947 
Q 1338 3394 1891 3394 
Q 2197 3394 2470 3270 
Q 2744 3147 2920 2923 
Q 3097 2700 3197 2384 
Q 3297 2069 3297 1709 
Q 3297 856 2875 390 
Q 2453 -75 1863 -75 
Q 1275 -75 941 416 
L 941 0 
z
M 934 1684 
Q 934 1088 1097 822 
Q 1363 388 1816 388 
Q 2184 388 2453 708 
Q 2722 1028 2722 1663 
Q 2722 2313 2464 2622 
Q 2206 2931 1841 2931 
Q 1472 2931 1203 2611 
Q 934 2291 934 1684 
z
" transform="scale(0.015625)"/>
      </defs>
      <use xlink:href="#ArialMT-4f"/>
      <use xlink:href="#ArialMT-62" x="77.783203"/>
     </g>
    </g>
    <g id="PathCollection_5">
     <defs>
      <path id="mf41f10daf8" d="M 0 3 
C 0.795609 3 1.55874 2.683901 2.12132 2.12132 
C 2.683901 1.55874 3 0.795609 3 0 
C 3 -0.795609 2.683901 -1.55874 2.12132 -2.12132 
C 1.55874 -2.683901 0.795609 -3 0 -3 
C -0.795609 -3 -1.55874 -2.683901 -2.12132 -2.12132 
C -2.683901 -1.55874 -3 -0.795609 -3 0 
C -3 0.795609 -2.683901 1.55874 -2.12132 2.12132 
C -1.55874 2.683901 -0.795609 3 0 3 
z
" style="stroke: #ff0000"/>
     </defs>
     <g>
      <use xlink:href="#mf41f10daf8" x="307.072732" y="103.490696" style="fill: #ff0000; stroke: #ff0000"/>
     </g>
    </g>
    <g id="text_18">
     <!-- OMS -->
     <g style="fill: #262626" transform="translate(325.072732 106.115696) scale(0.1 -0.1)">
      <defs>
       <path id="ArialMT-4d" d="M 475 0 
L 475 4581 
L 1388 4581 
L 2472 1338 
Q 2622 884 2691 659 
Q 2769 909 2934 1394 
L 4031 4581 
L 4847 4581 
L 4847 0 
L 4263 0 
L 4263 3834 
L 2931 0 
L 2384 0 
L 1059 3900 
L 1059 0 
L 475 0 
z
" transform="scale(0.015625)"/>
       <path id="ArialMT-53" d="M 288 1472 
L 859 1522 
Q 900 1178 1048 958 
Q 1197 738 1509 602 
Q 1822 466 2213 466 
Q 2559 466 2825 569 
Q 3091 672 3220 851 
Q 3350 1031 3350 1244 
Q 3350 1459 3225 1620 
Q 3100 1781 2813 1891 
Q 2628 1963 1997 2114 
Q 1366 2266 1113 2400 
Q 784 2572 623 2826 
Q 463 3081 463 3397 
Q 463 3744 659 4045 
Q 856 4347 1234 4503 
Q 1613 4659 2075 4659 
Q 2584 4659 2973 4495 
Q 3363 4331 3572 4012 
Q 3781 3694 3797 3291 
L 3216 3247 
Q 3169 3681 2898 3903 
Q 2628 4125 2100 4125 
Q 1550 4125 1298 3923 
Q 1047 3722 1047 3438 
Q 1047 3191 1225 3031 
Q 1400 2872 2139 2705 
Q 2878 2538 3153 2413 
Q 3553 2228 3743 1945 
Q 3934 1663 3934 1294 
Q 3934 928 3725 604 
Q 3516 281 3123 101 
Q 2731 -78 2241 -78 
Q 1619 -78 1198 103 
Q 778 284 539 648 
Q 300 1013 288 1472 
z
" transform="scale(0.015625)"/>
      </defs>
      <use xlink:href="#ArialMT-4f"/>
      <use xlink:href="#ArialMT-4d" x="77.783203"/>
      <use xlink:href="#ArialMT-53" x="161.083984"/>
     </g>
    </g>
   </g>
  </g>
  <g id="axes_2">
   <g id="patch_6">
    <path d="M 45.83 64.977143 
L 356.850857 64.977143 
L 356.850857 10.8 
L 45.83 10.8 
z
" style="fill: #ffffff"/>
   </g>
   <g id="matplotlib.axis_3">
    <g id="xtick_9"/>
    <g id="xtick_10"/>
    <g id="xtick_11"/>
    <g id="xtick_12"/>
    <g id="xtick_13"/>
    <g id="xtick_14"/>
    <g id="xtick_15"/>
    <g id="xtick_16"/>
   </g>
   <g id="matplotlib.axis_4">
    <g id="ytick_7"/>
    <g id="ytick_8"/>
   </g>
   <g id="PolyCollection_1">
    <defs>
     <path id="mc15604754b" d="M 59.967312 -367.070236 
L 59.967312 -367.022857 
L 61.358058 -367.022857 
L 62.748805 -367.022857 
L 64.139551 -367.022857 
L 65.530298 -367.022857 
L 66.921044 -367.022857 
L 68.311791 -367.022857 
L 69.702538 -367.022857 
L 71.093284 -367.022857 
L 72.484031 -367.022857 
L 73.874777 -367.022857 
L 75.265524 -367.022857 
L 76.65627 -367.022857 
L 78.047017 -367.022857 
L 79.437763 -367.022857 
L 80.82851 -367.022857 
L 82.219256 -367.022857 
L 83.610003 -367.022857 
L 85.00075 -367.022857 
L 86.391496 -367.022857 
L 87.782243 -367.022857 
L 89.172989 -367.022857 
L 90.563736 -367.022857 
L 91.954482 -367.022857 
L 93.345229 -367.022857 
L 94.735975 -367.022857 
L 96.126722 -367.022857 
L 97.517469 -367.022857 
L 98.908215 -367.022857 
L 100.298962 -367.022857 
L 101.689708 -367.022857 
L 103.080455 -367.022857 
L 104.471201 -367.022857 
L 105.861948 -367.022857 
L 107.252694 -367.022857 
L 108.643441 -367.022857 
L 110.034187 -367.022857 
L 111.424934 -367.022857 
L 112.815681 -367.022857 
L 114.206427 -367.022857 
L 115.597174 -367.022857 
L 116.98792 -367.022857 
L 118.378667 -367.022857 
L 119.769413 -367.022857 
L 121.16016 -367.022857 
L 122.550906 -367.022857 
L 123.941653 -367.022857 
L 125.3324 -367.022857 
L 126.723146 -367.022857 
L 128.113893 -367.022857 
L 129.504639 -367.022857 
L 130.895386 -367.022857 
L 132.286132 -367.022857 
L 133.676879 -367.022857 
L 135.067625 -367.022857 
L 136.458372 -367.022857 
L 137.849118 -367.022857 
L 139.239865 -367.022857 
L 140.630612 -367.022857 
L 142.021358 -367.022857 
L 143.412105 -367.022857 
L 144.802851 -367.022857 
L 146.193598 -367.022857 
L 147.584344 -367.022857 
L 148.975091 -367.022857 
L 150.365837 -367.022857 
L 151.756584 -367.022857 
L 153.147331 -367.022857 
L 154.538077 -367.022857 
L 155.928824 -367.022857 
L 157.31957 -367.022857 
L 158.710317 -367.022857 
L 160.101063 -367.022857 
L 161.49181 -367.022857 
L 162.882556 -367.022857 
L 164.273303 -367.022857 
L 165.664049 -367.022857 
L 167.054796 -367.022857 
L 168.445543 -367.022857 
L 169.836289 -367.022857 
L 171.227036 -367.022857 
L 172.617782 -367.022857 
L 174.008529 -367.022857 
L 175.399275 -367.022857 
L 176.790022 -367.022857 
L 178.180768 -367.022857 
L 179.571515 -367.022857 
L 180.962261 -367.022857 
L 182.353008 -367.022857 
L 183.743755 -367.022857 
L 185.134501 -367.022857 
L 186.525248 -367.022857 
L 187.915994 -367.022857 
L 189.306741 -367.022857 
L 190.697487 -367.022857 
L 192.088234 -367.022857 
L 193.47898 -367.022857 
L 194.869727 -367.022857 
L 196.260474 -367.022857 
L 197.65122 -367.022857 
L 199.041967 -367.022857 
L 200.432713 -367.022857 
L 201.82346 -367.022857 
L 203.214206 -367.022857 
L 204.604953 -367.022857 
L 205.995699 -367.022857 
L 207.386446 -367.022857 
L 208.777192 -367.022857 
L 210.167939 -367.022857 
L 211.558686 -367.022857 
L 212.949432 -367.022857 
L 214.340179 -367.022857 
L 215.730925 -367.022857 
L 217.121672 -367.022857 
L 218.512418 -367.022857 
L 219.903165 -367.022857 
L 221.293911 -367.022857 
L 222.684658 -367.022857 
L 224.075405 -367.022857 
L 225.466151 -367.022857 
L 226.856898 -367.022857 
L 228.247644 -367.022857 
L 229.638391 -367.022857 
L 231.029137 -367.022857 
L 232.419884 -367.022857 
L 233.81063 -367.022857 
L 235.201377 -367.022857 
L 236.592123 -367.022857 
L 237.98287 -367.022857 
L 239.373617 -367.022857 
L 240.764363 -367.022857 
L 242.15511 -367.022857 
L 243.545856 -367.022857 
L 244.936603 -367.022857 
L 246.327349 -367.022857 
L 247.718096 -367.022857 
L 249.108842 -367.022857 
L 250.499589 -367.022857 
L 251.890336 -367.022857 
L 253.281082 -367.022857 
L 254.671829 -367.022857 
L 256.062575 -367.022857 
L 257.453322 -367.022857 
L 258.844068 -367.022857 
L 260.234815 -367.022857 
L 261.625561 -367.022857 
L 263.016308 -367.022857 
L 264.407054 -367.022857 
L 265.797801 -367.022857 
L 267.188548 -367.022857 
L 268.579294 -367.022857 
L 269.970041 -367.022857 
L 271.360787 -367.022857 
L 272.751534 -367.022857 
L 274.14228 -367.022857 
L 275.533027 -367.022857 
L 276.923773 -367.022857 
L 278.31452 -367.022857 
L 279.705267 -367.022857 
L 281.096013 -367.022857 
L 282.48676 -367.022857 
L 283.877506 -367.022857 
L 285.268253 -367.022857 
L 286.658999 -367.022857 
L 288.049746 -367.022857 
L 289.440492 -367.022857 
L 290.831239 -367.022857 
L 292.221985 -367.022857 
L 293.612732 -367.022857 
L 295.003479 -367.022857 
L 296.394225 -367.022857 
L 297.784972 -367.022857 
L 299.175718 -367.022857 
L 300.566465 -367.022857 
L 301.957211 -367.022857 
L 303.347958 -367.022857 
L 304.738704 -367.022857 
L 306.129451 -367.022857 
L 307.520197 -367.022857 
L 308.910944 -367.022857 
L 310.301691 -367.022857 
L 311.692437 -367.022857 
L 313.083184 -367.022857 
L 314.47393 -367.022857 
L 315.864677 -367.022857 
L 317.255423 -367.022857 
L 318.64617 -367.022857 
L 320.036916 -367.022857 
L 321.427663 -367.022857 
L 322.81841 -367.022857 
L 324.209156 -367.022857 
L 325.599903 -367.022857 
L 326.990649 -367.022857 
L 328.381396 -367.022857 
L 329.772142 -367.022857 
L 331.162889 -367.022857 
L 332.553635 -367.022857 
L 333.944382 -367.022857 
L 335.335128 -367.022857 
L 336.725875 -367.022857 
L 336.725875 -367.074272 
L 336.725875 -367.074272 
L 335.335128 -367.086713 
L 333.944382 -367.101776 
L 332.553635 -367.119913 
L 331.162889 -367.141634 
L 329.772142 -367.167508 
L 328.381396 -367.198159 
L 326.990649 -367.234274 
L 325.599903 -367.276594 
L 324.209156 -367.325913 
L 322.81841 -367.383074 
L 321.427663 -367.448959 
L 320.036916 -367.52448 
L 318.64617 -367.610566 
L 317.255423 -367.708149 
L 315.864677 -367.818145 
L 314.47393 -367.941435 
L 313.083184 -368.078846 
L 311.692437 -368.231121 
L 310.301691 -368.398902 
L 308.910944 -368.5827 
L 307.520197 -368.782873 
L 306.129451 -368.999598 
L 304.738704 -369.232853 
L 303.347958 -369.482394 
L 301.957211 -369.747736 
L 300.566465 -370.028148 
L 299.175718 -370.322637 
L 297.784972 -370.629951 
L 296.394225 -370.948581 
L 295.003479 -371.276777 
L 293.612732 -371.612557 
L 292.221985 -371.953743 
L 290.831239 -372.297982 
L 289.440492 -372.642793 
L 288.049746 -372.985605 
L 286.658999 -373.323808 
L 285.268253 -373.654805 
L 283.877506 -373.976066 
L 282.48676 -374.285185 
L 281.096013 -374.579935 
L 279.705267 -374.858325 
L 278.31452 -375.118645 
L 276.923773 -375.35952 
L 275.533027 -375.57995 
L 274.14228 -375.779341 
L 272.751534 -375.957539 
L 271.360787 -376.11485 
L 269.970041 -376.25205 
L 268.579294 -376.370395 
L 267.188548 -376.471614 
L 265.797801 -376.557906 
L 264.407054 -376.63192 
L 263.016308 -376.696739 
L 261.625561 -376.755848 
L 260.234815 -376.813111 
L 258.844068 -376.872732 
L 257.453322 -376.939223 
L 256.062575 -377.017363 
L 254.671829 -377.112158 
L 253.281082 -377.228796 
L 251.890336 -377.372603 
L 250.499589 -377.548992 
L 249.108842 -377.763411 
L 247.718096 -378.021286 
L 246.327349 -378.327956 
L 244.936603 -378.688611 
L 243.545856 -379.108216 
L 242.15511 -379.591431 
L 240.764363 -380.142531 
L 239.373617 -380.765317 
L 237.98287 -381.463022 
L 236.592123 -382.238225 
L 235.201377 -383.092753 
L 233.81063 -384.027598 
L 232.419884 -385.042834 
L 231.029137 -386.137546 
L 229.638391 -387.309768 
L 228.247644 -388.556442 
L 226.856898 -389.873394 
L 225.466151 -391.255323 
L 224.075405 -392.695821 
L 222.684658 -394.187414 
L 221.293911 -395.721621 
L 219.903165 -397.289039 
L 218.512418 -398.879451 
L 217.121672 -400.481941 
L 215.730925 -402.085043 
L 214.340179 -403.676879 
L 212.949432 -405.245321 
L 211.558686 -406.778152 
L 210.167939 -408.263218 
L 208.777192 -409.688589 
L 207.386446 -411.042698 
L 205.995699 -412.314478 
L 204.604953 -413.493478 
L 203.214206 -414.569973 
L 201.82346 -415.53505 
L 200.432713 -416.380679 
L 199.041967 -417.099776 
L 197.65122 -417.686246 
L 196.260474 -418.135015 
L 194.869727 -418.442053 
L 193.47898 -418.604393 
L 192.088234 -418.620136 
L 190.697487 -418.48846 
L 189.306741 -418.209619 
L 187.915994 -417.784946 
L 186.525248 -417.216848 
L 185.134501 -416.508801 
L 183.743755 -415.66534 
L 182.353008 -414.692042 
L 180.962261 -413.595506 
L 179.571515 -412.383317 
L 178.180768 -411.064005 
L 176.790022 -409.646986 
L 175.399275 -408.142491 
L 174.008529 -406.56148 
L 172.617782 -404.915537 
L 171.227036 -403.216753 
L 169.836289 -401.477595 
L 168.445543 -399.710759 
L 167.054796 -397.92902 
L 165.664049 -396.145067 
L 164.273303 -394.371344 
L 162.882556 -392.619887 
L 161.49181 -390.902164 
L 160.101063 -389.228932 
L 158.710317 -387.610094 
L 157.31957 -386.054587 
L 155.928824 -384.570274 
L 154.538077 -383.16387 
L 153.147331 -381.840876 
L 151.756584 -380.60555 
L 150.365837 -379.460893 
L 148.975091 -378.408658 
L 147.584344 -377.449386 
L 146.193598 -376.582454 
L 144.802851 -375.806146 
L 143.412105 -375.117741 
L 142.021358 -374.513609 
L 140.630612 -373.989319 
L 139.239865 -373.539759 
L 137.849118 -373.159253 
L 136.458372 -372.841687 
L 135.067625 -372.580632 
L 133.676879 -372.369468 
L 132.286132 -372.201496 
L 130.895386 -372.070057 
L 129.504639 -371.96863 
L 128.113893 -371.89093 
L 126.723146 -371.830996 
L 125.3324 -371.783262 
L 123.941653 -371.742623 
L 122.550906 -371.704486 
L 121.16016 -371.664808 
L 119.769413 -371.620123 
L 118.378667 -371.567557 
L 116.98792 -371.50483 
L 115.597174 -371.430244 
L 114.206427 -371.342666 
L 112.815681 -371.241496 
L 111.424934 -371.126628 
L 110.034187 -370.998403 
L 108.643441 -370.857558 
L 107.252694 -370.705168 
L 105.861948 -370.542587 
L 104.471201 -370.371384 
L 103.080455 -370.193286 
L 101.689708 -370.010118 
L 100.298962 -369.823743 
L 98.908215 -369.636018 
L 97.517469 -369.448739 
L 96.126722 -369.263609 
L 94.735975 -369.0822 
L 93.345229 -368.905924 
L 91.954482 -368.736021 
L 90.563736 -368.57354 
L 89.172989 -368.419333 
L 87.782243 -368.274058 
L 86.391496 -368.13818 
L 85.00075 -368.011986 
L 83.610003 -367.895589 
L 82.219256 -367.788954 
L 80.82851 -367.69191 
L 79.437763 -367.60417 
L 78.047017 -367.525352 
L 76.65627 -367.454997 
L 75.265524 -367.39259 
L 73.874777 -367.337575 
L 72.484031 -367.289375 
L 71.093284 -367.2474 
L 69.702538 -367.211068 
L 68.311791 -367.179805 
L 66.921044 -367.153066 
L 65.530298 -367.130328 
L 64.139551 -367.111107 
L 62.748805 -367.094952 
L 61.358058 -367.081452 
L 59.967312 -367.070236 
z
" style="stroke: #ff0000"/>
    </defs>
    <g clip-path="url(#p286086c7d3)">
     <use xlink:href="#mc15604754b" x="0" y="432" style="fill: #ff0000; fill-opacity: 0.25; stroke: #ff0000"/>
    </g>
   </g>
   <g id="PolyCollection_2">
    <defs>
     <path id="m8186167cd1" d="M 121.166828 -367.092661 
L 121.166828 -367.022857 
L 122.280128 -367.022857 
L 123.393429 -367.022857 
L 124.506729 -367.022857 
L 125.620029 -367.022857 
L 126.733329 -367.022857 
L 127.846629 -367.022857 
L 128.959929 -367.022857 
L 130.073229 -367.022857 
L 131.186529 -367.022857 
L 132.299829 -367.022857 
L 133.413129 -367.022857 
L 134.526429 -367.022857 
L 135.639729 -367.022857 
L 136.75303 -367.022857 
L 137.86633 -367.022857 
L 138.97963 -367.022857 
L 140.09293 -367.022857 
L 141.20623 -367.022857 
L 142.31953 -367.022857 
L 143.43283 -367.022857 
L 144.54613 -367.022857 
L 145.65943 -367.022857 
L 146.77273 -367.022857 
L 147.88603 -367.022857 
L 148.99933 -367.022857 
L 150.112631 -367.022857 
L 151.225931 -367.022857 
L 152.339231 -367.022857 
L 153.452531 -367.022857 
L 154.565831 -367.022857 
L 155.679131 -367.022857 
L 156.792431 -367.022857 
L 157.905731 -367.022857 
L 159.019031 -367.022857 
L 160.132331 -367.022857 
L 161.245631 -367.022857 
L 162.358932 -367.022857 
L 163.472232 -367.022857 
L 164.585532 -367.022857 
L 165.698832 -367.022857 
L 166.812132 -367.022857 
L 167.925432 -367.022857 
L 169.038732 -367.022857 
L 170.152032 -367.022857 
L 171.265332 -367.022857 
L 172.378632 -367.022857 
L 173.491932 -367.022857 
L 174.605232 -367.022857 
L 175.718533 -367.022857 
L 176.831833 -367.022857 
L 177.945133 -367.022857 
L 179.058433 -367.022857 
L 180.171733 -367.022857 
L 181.285033 -367.022857 
L 182.398333 -367.022857 
L 183.511633 -367.022857 
L 184.624933 -367.022857 
L 185.738233 -367.022857 
L 186.851533 -367.022857 
L 187.964833 -367.022857 
L 189.078134 -367.022857 
L 190.191434 -367.022857 
L 191.304734 -367.022857 
L 192.418034 -367.022857 
L 193.531334 -367.022857 
L 194.644634 -367.022857 
L 195.757934 -367.022857 
L 196.871234 -367.022857 
L 197.984534 -367.022857 
L 199.097834 -367.022857 
L 200.211134 -367.022857 
L 201.324435 -367.022857 
L 202.437735 -367.022857 
L 203.551035 -367.022857 
L 204.664335 -367.022857 
L 205.777635 -367.022857 
L 206.890935 -367.022857 
L 208.004235 -367.022857 
L 209.117535 -367.022857 
L 210.230835 -367.022857 
L 211.344135 -367.022857 
L 212.457435 -367.022857 
L 213.570735 -367.022857 
L 214.684036 -367.022857 
L 215.797336 -367.022857 
L 216.910636 -367.022857 
L 218.023936 -367.022857 
L 219.137236 -367.022857 
L 220.250536 -367.022857 
L 221.363836 -367.022857 
L 222.477136 -367.022857 
L 223.590436 -367.022857 
L 224.703736 -367.022857 
L 225.817036 -367.022857 
L 226.930337 -367.022857 
L 228.043637 -367.022857 
L 229.156937 -367.022857 
L 230.270237 -367.022857 
L 231.383537 -367.022857 
L 232.496837 -367.022857 
L 233.610137 -367.022857 
L 234.723437 -367.022857 
L 235.836737 -367.022857 
L 236.950037 -367.022857 
L 238.063337 -367.022857 
L 239.176637 -367.022857 
L 240.289938 -367.022857 
L 241.403238 -367.022857 
L 242.516538 -367.022857 
L 243.629838 -367.022857 
L 244.743138 -367.022857 
L 245.856438 -367.022857 
L 246.969738 -367.022857 
L 248.083038 -367.022857 
L 249.196338 -367.022857 
L 250.309638 -367.022857 
L 251.422938 -367.022857 
L 252.536238 -367.022857 
L 253.649539 -367.022857 
L 254.762839 -367.022857 
L 255.876139 -367.022857 
L 256.989439 -367.022857 
L 258.102739 -367.022857 
L 259.216039 -367.022857 
L 260.329339 -367.022857 
L 261.442639 -367.022857 
L 262.555939 -367.022857 
L 263.669239 -367.022857 
L 264.782539 -367.022857 
L 265.89584 -367.022857 
L 267.00914 -367.022857 
L 268.12244 -367.022857 
L 269.23574 -367.022857 
L 270.34904 -367.022857 
L 271.46234 -367.022857 
L 272.57564 -367.022857 
L 273.68894 -367.022857 
L 274.80224 -367.022857 
L 275.91554 -367.022857 
L 277.02884 -367.022857 
L 278.14214 -367.022857 
L 279.255441 -367.022857 
L 280.368741 -367.022857 
L 281.482041 -367.022857 
L 282.595341 -367.022857 
L 283.708641 -367.022857 
L 284.821941 -367.022857 
L 285.935241 -367.022857 
L 287.048541 -367.022857 
L 288.161841 -367.022857 
L 289.275141 -367.022857 
L 290.388441 -367.022857 
L 291.501741 -367.022857 
L 292.615042 -367.022857 
L 293.728342 -367.022857 
L 294.841642 -367.022857 
L 295.954942 -367.022857 
L 297.068242 -367.022857 
L 298.181542 -367.022857 
L 299.294842 -367.022857 
L 300.408142 -367.022857 
L 301.521442 -367.022857 
L 302.634742 -367.022857 
L 303.748042 -367.022857 
L 304.861343 -367.022857 
L 305.974643 -367.022857 
L 307.087943 -367.022857 
L 308.201243 -367.022857 
L 309.314543 -367.022857 
L 310.427843 -367.022857 
L 311.541143 -367.022857 
L 312.654443 -367.022857 
L 313.767743 -367.022857 
L 314.881043 -367.022857 
L 315.994343 -367.022857 
L 317.107643 -367.022857 
L 318.220944 -367.022857 
L 319.334244 -367.022857 
L 320.447544 -367.022857 
L 321.560844 -367.022857 
L 322.674144 -367.022857 
L 323.787444 -367.022857 
L 324.900744 -367.022857 
L 326.014044 -367.022857 
L 327.127344 -367.022857 
L 328.240644 -367.022857 
L 329.353944 -367.022857 
L 330.467245 -367.022857 
L 331.580545 -367.022857 
L 332.693845 -367.022857 
L 333.807145 -367.022857 
L 334.920445 -367.022857 
L 336.033745 -367.022857 
L 337.147045 -367.022857 
L 338.260345 -367.022857 
L 339.373645 -367.022857 
L 340.486945 -367.022857 
L 341.600245 -367.022857 
L 342.713545 -367.022857 
L 342.713545 -367.063401 
L 342.713545 -367.063401 
L 341.600245 -367.069774 
L 340.486945 -367.077019 
L 339.373645 -367.085234 
L 338.260345 -367.094524 
L 337.147045 -367.105002 
L 336.033745 -367.116788 
L 334.920445 -367.13001 
L 333.807145 -367.144804 
L 332.693845 -367.161311 
L 331.580545 -367.179681 
L 330.467245 -367.200069 
L 329.353944 -367.222633 
L 328.240644 -367.247541 
L 327.127344 -367.274959 
L 326.014044 -367.305058 
L 324.900744 -367.338011 
L 323.787444 -367.373987 
L 322.674144 -367.413157 
L 321.560844 -367.455686 
L 320.447544 -367.501734 
L 319.334244 -367.551454 
L 318.220944 -367.604989 
L 317.107643 -367.662471 
L 315.994343 -367.724018 
L 314.881043 -367.789732 
L 313.767743 -367.859699 
L 312.654443 -367.933984 
L 311.541143 -368.012632 
L 310.427843 -368.095663 
L 309.314543 -368.183076 
L 308.201243 -368.274841 
L 307.087943 -368.370905 
L 305.974643 -368.471186 
L 304.861343 -368.575575 
L 303.748042 -368.683939 
L 302.634742 -368.796117 
L 301.521442 -368.911922 
L 300.408142 -369.031145 
L 299.294842 -369.153557 
L 298.181542 -369.278907 
L 297.068242 -369.40693 
L 295.954942 -369.537346 
L 294.841642 -369.669868 
L 293.728342 -369.804201 
L 292.615042 -369.940049 
L 291.501741 -370.077119 
L 290.388441 -370.215126 
L 289.275141 -370.353793 
L 288.161841 -370.492861 
L 287.048541 -370.63209 
L 285.935241 -370.771264 
L 284.821941 -370.910193 
L 283.708641 -371.048718 
L 282.595341 -371.186711 
L 281.482041 -371.324081 
L 280.368741 -371.460772 
L 279.255441 -371.596764 
L 278.14214 -371.732077 
L 277.02884 -371.866763 
L 275.91554 -372.000913 
L 274.80224 -372.134646 
L 273.68894 -372.268115 
L 272.57564 -372.401496 
L 271.46234 -372.534988 
L 270.34904 -372.668808 
L 269.23574 -372.803183 
L 268.12244 -372.938348 
L 267.00914 -373.074538 
L 265.89584 -373.211985 
L 264.782539 -373.350908 
L 263.669239 -373.491511 
L 262.555939 -373.633977 
L 261.442639 -373.778462 
L 260.329339 -373.925091 
L 259.216039 -374.073956 
L 258.102739 -374.22511 
L 256.989439 -374.378569 
L 255.876139 -374.534305 
L 254.762839 -374.692252 
L 253.649539 -374.8523 
L 252.536238 -375.014301 
L 251.422938 -375.17807 
L 250.309638 -375.343386 
L 249.196338 -375.509997 
L 248.083038 -375.677627 
L 246.969738 -375.845973 
L 245.856438 -376.014718 
L 244.743138 -376.183533 
L 243.629838 -376.352079 
L 242.516538 -376.520019 
L 241.403238 -376.687017 
L 240.289938 -376.852745 
L 239.176637 -377.016887 
L 238.063337 -377.179141 
L 236.950037 -377.339223 
L 235.836737 -377.49687 
L 234.723437 -377.651836 
L 233.610137 -377.803897 
L 232.496837 -377.952848 
L 231.383537 -378.098501 
L 230.270237 -378.240682 
L 229.156937 -378.379228 
L 228.043637 -378.513984 
L 226.930337 -378.644797 
L 225.817036 -378.771508 
L 224.703736 -378.893954 
L 223.590436 -379.011955 
L 222.477136 -379.125311 
L 221.363836 -379.233801 
L 220.250536 -379.33717 
L 219.137236 -379.435134 
L 218.023936 -379.52737 
L 216.910636 -379.613516 
L 215.797336 -379.69317 
L 214.684036 -379.765891 
L 213.570735 -379.831196 
L 212.457435 -379.888565 
L 211.344135 -379.937445 
L 210.230835 -379.977254 
L 209.117535 -380.007385 
L 208.004235 -380.027216 
L 206.890935 -380.036117 
L 205.777635 -380.033457 
L 204.664335 -380.018615 
L 203.551035 -379.990992 
L 202.437735 -379.950017 
L 201.324435 -379.895161 
L 200.211134 -379.825945 
L 199.097834 -379.741952 
L 197.984534 -379.642835 
L 196.871234 -379.528326 
L 195.757934 -379.398244 
L 194.644634 -379.252505 
L 193.531334 -379.09112 
L 192.418034 -378.914207 
L 191.304734 -378.72199 
L 190.191434 -378.514801 
L 189.078134 -378.293079 
L 187.964833 -378.05737 
L 186.851533 -377.808324 
L 185.738233 -377.546686 
L 184.624933 -377.273297 
L 183.511633 -376.98908 
L 182.398333 -376.695035 
L 181.285033 -376.39223 
L 180.171733 -376.081787 
L 179.058433 -375.764876 
L 177.945133 -375.4427 
L 176.831833 -375.116485 
L 175.718533 -374.787467 
L 174.605232 -374.456881 
L 173.491932 -374.125949 
L 172.378632 -373.795871 
L 171.265332 -373.467811 
L 170.152032 -373.14289 
L 169.038732 -372.822177 
L 167.925432 -372.506679 
L 166.812132 -372.197336 
L 165.698832 -371.895015 
L 164.585532 -371.600503 
L 163.472232 -371.314507 
L 162.358932 -371.037649 
L 161.245631 -370.770465 
L 160.132331 -370.513403 
L 159.019031 -370.266829 
L 157.905731 -370.031022 
L 156.792431 -369.80618 
L 155.679131 -369.592424 
L 154.565831 -369.389799 
L 153.452531 -369.19828 
L 152.339231 -369.017779 
L 151.225931 -368.848145 
L 150.112631 -368.689175 
L 148.99933 -368.540618 
L 147.88603 -368.402179 
L 146.77273 -368.273527 
L 145.65943 -368.1543 
L 144.54613 -368.044112 
L 143.43283 -367.942554 
L 142.31953 -367.849206 
L 141.20623 -367.763636 
L 140.09293 -367.685407 
L 138.97963 -367.614082 
L 137.86633 -367.549224 
L 136.75303 -367.490404 
L 135.639729 -367.437203 
L 134.526429 -367.389209 
L 133.413129 -367.346028 
L 132.299829 -367.307279 
L 131.186529 -367.272597 
L 130.073229 -367.241638 
L 128.959929 -367.214073 
L 127.846629 -367.189594 
L 126.733329 -367.167911 
L 125.620029 -367.148756 
L 124.506729 -367.131876 
L 123.393429 -367.11704 
L 122.280128 -367.104034 
L 121.166828 -367.092661 
z
" style="stroke: #ffa500"/>
    </defs>
    <g clip-path="url(#p286086c7d3)">
     <use xlink:href="#m8186167cd1" x="0" y="432" style="fill: #ffa500; fill-opacity: 0.25; stroke: #ffa500"/>
    </g>
   </g>
   <g id="patch_7">
    <path d="M 45.83 64.977143 
L 356.850857 64.977143 
" style="fill: none; stroke: #262626; stroke-width: 0.8; stroke-linejoin: miter; stroke-linecap: square"/>
   </g>
  </g>
  <g id="axes_3">
   <g id="patch_8">
    <path d="M 367.575714 390.04 
L 421.2 390.04 
L 421.2 75.812571 
L 367.575714 75.812571 
z
" style="fill: #ffffff"/>
   </g>
   <g id="matplotlib.axis_5">
    <g id="xtick_17"/>
    <g id="xtick_18"/>
   </g>
   <g id="matplotlib.axis_6">
    <g id="ytick_9"/>
    <g id="ytick_10"/>
    <g id="ytick_11"/>
    <g id="ytick_12"/>
    <g id="ytick_13"/>
    <g id="ytick_14"/>
   </g>
   <g id="PolyCollection_3">
    <defs>
     <path id="m85017da00c" d="M 367.648059 -56.243065 
L 367.575714 -56.243065 
L 367.575714 -57.678549 
L 367.575714 -59.114033 
L 367.575714 -60.549517 
L 367.575714 -61.985001 
L 367.575714 -63.420485 
L 367.575714 -64.855968 
L 367.575714 -66.291452 
L 367.575714 -67.726936 
L 367.575714 -69.16242 
L 367.575714 -70.597904 
L 367.575714 -72.033388 
L 367.575714 -73.468872 
L 367.575714 -74.904356 
L 367.575714 -76.33984 
L 367.575714 -77.775324 
L 367.575714 -79.210808 
L 367.575714 -80.646291 
L 367.575714 -82.081775 
L 367.575714 -83.517259 
L 367.575714 -84.952743 
L 367.575714 -86.388227 
L 367.575714 -87.823711 
L 367.575714 -89.259195 
L 367.575714 -90.694679 
L 367.575714 -92.130163 
L 367.575714 -93.565647 
L 367.575714 -95.001131 
L 367.575714 -96.436615 
L 367.575714 -97.872098 
L 367.575714 -99.307582 
L 367.575714 -100.743066 
L 367.575714 -102.17855 
L 367.575714 -103.614034 
L 367.575714 -105.049518 
L 367.575714 -106.485002 
L 367.575714 -107.920486 
L 367.575714 -109.35597 
L 367.575714 -110.791454 
L 367.575714 -112.226938 
L 367.575714 -113.662421 
L 367.575714 -115.097905 
L 367.575714 -116.533389 
L 367.575714 -117.968873 
L 367.575714 -119.404357 
L 367.575714 -120.839841 
L 367.575714 -122.275325 
L 367.575714 -123.710809 
L 367.575714 -125.146293 
L 367.575714 -126.581777 
L 367.575714 -128.017261 
L 367.575714 -129.452745 
L 367.575714 -130.888228 
L 367.575714 -132.323712 
L 367.575714 -133.759196 
L 367.575714 -135.19468 
L 367.575714 -136.630164 
L 367.575714 -138.065648 
L 367.575714 -139.501132 
L 367.575714 -140.936616 
L 367.575714 -142.3721 
L 367.575714 -143.807584 
L 367.575714 -145.243068 
L 367.575714 -146.678551 
L 367.575714 -148.114035 
L 367.575714 -149.549519 
L 367.575714 -150.985003 
L 367.575714 -152.420487 
L 367.575714 -153.855971 
L 367.575714 -155.291455 
L 367.575714 -156.726939 
L 367.575714 -158.162423 
L 367.575714 -159.597907 
L 367.575714 -161.033391 
L 367.575714 -162.468875 
L 367.575714 -163.904358 
L 367.575714 -165.339842 
L 367.575714 -166.775326 
L 367.575714 -168.21081 
L 367.575714 -169.646294 
L 367.575714 -171.081778 
L 367.575714 -172.517262 
L 367.575714 -173.952746 
L 367.575714 -175.38823 
L 367.575714 -176.823714 
L 367.575714 -178.259198 
L 367.575714 -179.694681 
L 367.575714 -181.130165 
L 367.575714 -182.565649 
L 367.575714 -184.001133 
L 367.575714 -185.436617 
L 367.575714 -186.872101 
L 367.575714 -188.307585 
L 367.575714 -189.743069 
L 367.575714 -191.178553 
L 367.575714 -192.614037 
L 367.575714 -194.049521 
L 367.575714 -195.485005 
L 367.575714 -196.920488 
L 367.575714 -198.355972 
L 367.575714 -199.791456 
L 367.575714 -201.22694 
L 367.575714 -202.662424 
L 367.575714 -204.097908 
L 367.575714 -205.533392 
L 367.575714 -206.968876 
L 367.575714 -208.40436 
L 367.575714 -209.839844 
L 367.575714 -211.275328 
L 367.575714 -212.710811 
L 367.575714 -214.146295 
L 367.575714 -215.581779 
L 367.575714 -217.017263 
L 367.575714 -218.452747 
L 367.575714 -219.888231 
L 367.575714 -221.323715 
L 367.575714 -222.759199 
L 367.575714 -224.194683 
L 367.575714 -225.630167 
L 367.575714 -227.065651 
L 367.575714 -228.501135 
L 367.575714 -229.936618 
L 367.575714 -231.372102 
L 367.575714 -232.807586 
L 367.575714 -234.24307 
L 367.575714 -235.678554 
L 367.575714 -237.114038 
L 367.575714 -238.549522 
L 367.575714 -239.985006 
L 367.575714 -241.42049 
L 367.575714 -242.855974 
L 367.575714 -244.291458 
L 367.575714 -245.726941 
L 367.575714 -247.162425 
L 367.575714 -248.597909 
L 367.575714 -250.033393 
L 367.575714 -251.468877 
L 367.575714 -252.904361 
L 367.575714 -254.339845 
L 367.575714 -255.775329 
L 367.575714 -257.210813 
L 367.575714 -258.646297 
L 367.575714 -260.081781 
L 367.575714 -261.517265 
L 367.575714 -262.952748 
L 367.575714 -264.388232 
L 367.575714 -265.823716 
L 367.575714 -267.2592 
L 367.575714 -268.694684 
L 367.575714 -270.130168 
L 367.575714 -271.565652 
L 367.575714 -273.001136 
L 367.575714 -274.43662 
L 367.575714 -275.872104 
L 367.575714 -277.307588 
L 367.575714 -278.743071 
L 367.575714 -280.178555 
L 367.575714 -281.614039 
L 367.575714 -283.049523 
L 367.575714 -284.485007 
L 367.575714 -285.920491 
L 367.575714 -287.355975 
L 367.575714 -288.791459 
L 367.575714 -290.226943 
L 367.575714 -291.662427 
L 367.575714 -293.097911 
L 367.575714 -294.533395 
L 367.575714 -295.968878 
L 367.575714 -297.404362 
L 367.575714 -298.839846 
L 367.575714 -300.27533 
L 367.575714 -301.710814 
L 367.575714 -303.146298 
L 367.575714 -304.581782 
L 367.575714 -306.017266 
L 367.575714 -307.45275 
L 367.575714 -308.888234 
L 367.575714 -310.323718 
L 367.575714 -311.759201 
L 367.575714 -313.194685 
L 367.575714 -314.630169 
L 367.575714 -316.065653 
L 367.575714 -317.501137 
L 367.575714 -318.936621 
L 367.575714 -320.372105 
L 367.575714 -321.807589 
L 367.575714 -323.243073 
L 367.575714 -324.678557 
L 367.575714 -326.114041 
L 367.575714 -327.549525 
L 367.575714 -328.985008 
L 367.575714 -330.420492 
L 367.575714 -331.855976 
L 367.575714 -333.29146 
L 367.575714 -334.726944 
L 367.575714 -336.162428 
L 367.575714 -337.597912 
L 367.575714 -339.033396 
L 367.575714 -340.46888 
L 367.575714 -341.904364 
L 367.64163 -341.904364 
L 367.64163 -341.904364 
L 367.655697 -340.46888 
L 367.672416 -339.033396 
L 367.69221 -337.597912 
L 367.715556 -336.162428 
L 367.742986 -334.726944 
L 367.775096 -333.29146 
L 367.812541 -331.855976 
L 367.856047 -330.420492 
L 367.906409 -328.985008 
L 367.964495 -327.549525 
L 368.031248 -326.114041 
L 368.107687 -324.678557 
L 368.194906 -323.243073 
L 368.29408 -321.807589 
L 368.406455 -320.372105 
L 368.533354 -318.936621 
L 368.67617 -317.501137 
L 368.836365 -316.065653 
L 369.015461 -314.630169 
L 369.215039 -313.194685 
L 369.43673 -311.759201 
L 369.682208 -310.323718 
L 369.953179 -308.888234 
L 370.251373 -307.45275 
L 370.578533 -306.017266 
L 370.9364 -304.581782 
L 371.326705 -303.146298 
L 371.751148 -301.710814 
L 372.211388 -300.27533 
L 372.709023 -298.839846 
L 373.245572 -297.404362 
L 373.82246 -295.968878 
L 374.440992 -294.533395 
L 375.102335 -293.097911 
L 375.807497 -291.662427 
L 376.557298 -290.226943 
L 377.352357 -288.791459 
L 378.193055 -287.355975 
L 379.079521 -285.920491 
L 380.011603 -284.485007 
L 380.988847 -283.049523 
L 382.010472 -281.614039 
L 383.075354 -280.178555 
L 384.182003 -278.743071 
L 385.328554 -277.307588 
L 386.512751 -275.872104 
L 387.731944 -274.43662 
L 388.983085 -273.001136 
L 390.262732 -271.565652 
L 391.56706 -270.130168 
L 392.89188 -268.694684 
L 394.232654 -267.2592 
L 395.584535 -265.823716 
L 396.942397 -264.388232 
L 398.30088 -262.952748 
L 399.654439 -261.517265 
L 400.9974 -260.081781 
L 402.324014 -258.646297 
L 403.628527 -257.210813 
L 404.905237 -255.775329 
L 406.148565 -254.339845 
L 407.353118 -252.904361 
L 408.513753 -251.468877 
L 409.625639 -250.033393 
L 410.684311 -248.597909 
L 411.685725 -247.162425 
L 412.626297 -245.726941 
L 413.502943 -244.291458 
L 414.313106 -242.855974 
L 415.054774 -241.42049 
L 415.72649 -239.985006 
L 416.327353 -238.549522 
L 416.857005 -237.114038 
L 417.315619 -235.678554 
L 417.703866 -234.24307 
L 418.022884 -232.807586 
L 418.274238 -231.372102 
L 418.459869 -229.936618 
L 418.58205 -228.501135 
L 418.643327 -227.065651 
L 418.646463 -225.630167 
L 418.594385 -224.194683 
L 418.490129 -222.759199 
L 418.336781 -221.323715 
L 418.137431 -219.888231 
L 417.895126 -218.452747 
L 417.612823 -217.017263 
L 417.293362 -215.581779 
L 416.939424 -214.146295 
L 416.553518 -212.710811 
L 416.137955 -211.275328 
L 415.694841 -209.839844 
L 415.226071 -208.40436 
L 414.733334 -206.968876 
L 414.218116 -205.533392 
L 413.681716 -204.097908 
L 413.125267 -202.662424 
L 412.54975 -201.22694 
L 411.956026 -199.791456 
L 411.344863 -198.355972 
L 410.716961 -196.920488 
L 410.072988 -195.485005 
L 409.413604 -194.049521 
L 408.739494 -192.614037 
L 408.051393 -191.178553 
L 407.350111 -189.743069 
L 406.636552 -188.307585 
L 405.911732 -186.872101 
L 405.176795 -185.436617 
L 404.433014 -184.001133 
L 403.681799 -182.565649 
L 402.924695 -181.130165 
L 402.163371 -179.694681 
L 401.399611 -178.259198 
L 400.635296 -176.823714 
L 399.872383 -175.38823 
L 399.112879 -173.952746 
L 398.358813 -172.517262 
L 397.612208 -171.081778 
L 396.875045 -169.646294 
L 396.149231 -168.21081 
L 395.436564 -166.775326 
L 394.738702 -165.339842 
L 394.057128 -163.904358 
L 393.393125 -162.468875 
L 392.747745 -161.033391 
L 392.12179 -159.597907 
L 391.515793 -158.162423 
L 390.930003 -156.726939 
L 390.364381 -155.291455 
L 389.818595 -153.855971 
L 389.292025 -152.420487 
L 388.783776 -150.985003 
L 388.292692 -149.549519 
L 387.817376 -148.114035 
L 387.356226 -146.678551 
L 386.907457 -145.243068 
L 386.469145 -143.807584 
L 386.039266 -142.3721 
L 385.615738 -140.936616 
L 385.196467 -139.501132 
L 384.779387 -138.065648 
L 384.362515 -136.630164 
L 383.943982 -135.19468 
L 383.522084 -133.759196 
L 383.09531 -132.323712 
L 382.662381 -130.888228 
L 382.222274 -129.452745 
L 381.774241 -128.017261 
L 381.31783 -126.581777 
L 380.852884 -125.146293 
L 380.379551 -123.710809 
L 379.898271 -122.275325 
L 379.409768 -120.839841 
L 378.915027 -119.404357 
L 378.415277 -117.968873 
L 377.911956 -116.533389 
L 377.406678 -115.097905 
L 376.901202 -113.662421 
L 376.39739 -112.226938 
L 375.897171 -110.791454 
L 375.402499 -109.35597 
L 374.915316 -107.920486 
L 374.437518 -106.485002 
L 373.970917 -105.049518 
L 373.517215 -103.614034 
L 373.077976 -102.17855 
L 372.654601 -100.743066 
L 372.248317 -99.307582 
L 371.860156 -97.872098 
L 371.490952 -96.436615 
L 371.141336 -95.001131 
L 370.811738 -93.565647 
L 370.502387 -92.130163 
L 370.213325 -90.694679 
L 369.944414 -89.259195 
L 369.695354 -87.823711 
L 369.465693 -86.388227 
L 369.254851 -84.952743 
L 369.062132 -83.517259 
L 368.886749 -82.081775 
L 368.727836 -80.646291 
L 368.584472 -79.210808 
L 368.455697 -77.775324 
L 368.340525 -76.33984 
L 368.237962 -74.904356 
L 368.147021 -73.468872 
L 368.066731 -72.033388 
L 367.996146 -70.597904 
L 367.934359 -69.16242 
L 367.880502 -67.726936 
L 367.833758 -66.291452 
L 367.793358 -64.855968 
L 367.758589 -63.420485 
L 367.728792 -61.985001 
L 367.703364 -60.549517 
L 367.681755 -59.114033 
L 367.663469 -57.678549 
L 367.648059 -56.243065 
z
" style="stroke: #ff0000"/>
    </defs>
    <g clip-path="url(#p3046a0f6f6)">
     <use xlink:href="#m85017da00c" x="0" y="432" style="fill: #ff0000; fill-opacity: 0.25; stroke: #ff0000"/>
    </g>
   </g>
   <g id="PolyCollection_4">
    <defs>
     <path id="m513734416b" d="M 367.72993 -133.608077 
L 367.575714 -133.608077 
L 367.575714 -134.390251 
L 367.575714 -135.172425 
L 367.575714 -135.954599 
L 367.575714 -136.736773 
L 367.575714 -137.518948 
L 367.575714 -138.301122 
L 367.575714 -139.083296 
L 367.575714 -139.86547 
L 367.575714 -140.647644 
L 367.575714 -141.429819 
L 367.575714 -142.211993 
L 367.575714 -142.994167 
L 367.575714 -143.776341 
L 367.575714 -144.558515 
L 367.575714 -145.34069 
L 367.575714 -146.122864 
L 367.575714 -146.905038 
L 367.575714 -147.687212 
L 367.575714 -148.469386 
L 367.575714 -149.25156 
L 367.575714 -150.033735 
L 367.575714 -150.815909 
L 367.575714 -151.598083 
L 367.575714 -152.380257 
L 367.575714 -153.162431 
L 367.575714 -153.944606 
L 367.575714 -154.72678 
L 367.575714 -155.508954 
L 367.575714 -156.291128 
L 367.575714 -157.073302 
L 367.575714 -157.855477 
L 367.575714 -158.637651 
L 367.575714 -159.419825 
L 367.575714 -160.201999 
L 367.575714 -160.984173 
L 367.575714 -161.766348 
L 367.575714 -162.548522 
L 367.575714 -163.330696 
L 367.575714 -164.11287 
L 367.575714 -164.895044 
L 367.575714 -165.677219 
L 367.575714 -166.459393 
L 367.575714 -167.241567 
L 367.575714 -168.023741 
L 367.575714 -168.805915 
L 367.575714 -169.58809 
L 367.575714 -170.370264 
L 367.575714 -171.152438 
L 367.575714 -171.934612 
L 367.575714 -172.716786 
L 367.575714 -173.498961 
L 367.575714 -174.281135 
L 367.575714 -175.063309 
L 367.575714 -175.845483 
L 367.575714 -176.627657 
L 367.575714 -177.409831 
L 367.575714 -178.192006 
L 367.575714 -178.97418 
L 367.575714 -179.756354 
L 367.575714 -180.538528 
L 367.575714 -181.320702 
L 367.575714 -182.102877 
L 367.575714 -182.885051 
L 367.575714 -183.667225 
L 367.575714 -184.449399 
L 367.575714 -185.231573 
L 367.575714 -186.013748 
L 367.575714 -186.795922 
L 367.575714 -187.578096 
L 367.575714 -188.36027 
L 367.575714 -189.142444 
L 367.575714 -189.924619 
L 367.575714 -190.706793 
L 367.575714 -191.488967 
L 367.575714 -192.271141 
L 367.575714 -193.053315 
L 367.575714 -193.83549 
L 367.575714 -194.617664 
L 367.575714 -195.399838 
L 367.575714 -196.182012 
L 367.575714 -196.964186 
L 367.575714 -197.746361 
L 367.575714 -198.528535 
L 367.575714 -199.310709 
L 367.575714 -200.092883 
L 367.575714 -200.875057 
L 367.575714 -201.657232 
L 367.575714 -202.439406 
L 367.575714 -203.22158 
L 367.575714 -204.003754 
L 367.575714 -204.785928 
L 367.575714 -205.568102 
L 367.575714 -206.350277 
L 367.575714 -207.132451 
L 367.575714 -207.914625 
L 367.575714 -208.696799 
L 367.575714 -209.478973 
L 367.575714 -210.261148 
L 367.575714 -211.043322 
L 367.575714 -211.825496 
L 367.575714 -212.60767 
L 367.575714 -213.389844 
L 367.575714 -214.172019 
L 367.575714 -214.954193 
L 367.575714 -215.736367 
L 367.575714 -216.518541 
L 367.575714 -217.300715 
L 367.575714 -218.08289 
L 367.575714 -218.865064 
L 367.575714 -219.647238 
L 367.575714 -220.429412 
L 367.575714 -221.211586 
L 367.575714 -221.993761 
L 367.575714 -222.775935 
L 367.575714 -223.558109 
L 367.575714 -224.340283 
L 367.575714 -225.122457 
L 367.575714 -225.904632 
L 367.575714 -226.686806 
L 367.575714 -227.46898 
L 367.575714 -228.251154 
L 367.575714 -229.033328 
L 367.575714 -229.815503 
L 367.575714 -230.597677 
L 367.575714 -231.379851 
L 367.575714 -232.162025 
L 367.575714 -232.944199 
L 367.575714 -233.726374 
L 367.575714 -234.508548 
L 367.575714 -235.290722 
L 367.575714 -236.072896 
L 367.575714 -236.85507 
L 367.575714 -237.637244 
L 367.575714 -238.419419 
L 367.575714 -239.201593 
L 367.575714 -239.983767 
L 367.575714 -240.765941 
L 367.575714 -241.548115 
L 367.575714 -242.33029 
L 367.575714 -243.112464 
L 367.575714 -243.894638 
L 367.575714 -244.676812 
L 367.575714 -245.458986 
L 367.575714 -246.241161 
L 367.575714 -247.023335 
L 367.575714 -247.805509 
L 367.575714 -248.587683 
L 367.575714 -249.369857 
L 367.575714 -250.152032 
L 367.575714 -250.934206 
L 367.575714 -251.71638 
L 367.575714 -252.498554 
L 367.575714 -253.280728 
L 367.575714 -254.062903 
L 367.575714 -254.845077 
L 367.575714 -255.627251 
L 367.575714 -256.409425 
L 367.575714 -257.191599 
L 367.575714 -257.973774 
L 367.575714 -258.755948 
L 367.575714 -259.538122 
L 367.575714 -260.320296 
L 367.575714 -261.10247 
L 367.575714 -261.884645 
L 367.575714 -262.666819 
L 367.575714 -263.448993 
L 367.575714 -264.231167 
L 367.575714 -265.013341 
L 367.575714 -265.795515 
L 367.575714 -266.57769 
L 367.575714 -267.359864 
L 367.575714 -268.142038 
L 367.575714 -268.924212 
L 367.575714 -269.706386 
L 367.575714 -270.488561 
L 367.575714 -271.270735 
L 367.575714 -272.052909 
L 367.575714 -272.835083 
L 367.575714 -273.617257 
L 367.575714 -274.399432 
L 367.575714 -275.181606 
L 367.575714 -275.96378 
L 367.575714 -276.745954 
L 367.575714 -277.528128 
L 367.575714 -278.310303 
L 367.575714 -279.092477 
L 367.575714 -279.874651 
L 367.575714 -280.656825 
L 367.575714 -281.438999 
L 367.575714 -282.221174 
L 367.575714 -283.003348 
L 367.575714 -283.785522 
L 367.575714 -284.567696 
L 367.575714 -285.34987 
L 367.575714 -286.132045 
L 367.575714 -286.914219 
L 367.575714 -287.696393 
L 367.575714 -288.478567 
L 367.575714 -289.260741 
L 367.6924 -289.260741 
L 367.6924 -289.260741 
L 367.710466 -288.478567 
L 367.731004 -287.696393 
L 367.754297 -286.914219 
L 367.780655 -286.132045 
L 367.810413 -285.34987 
L 367.843931 -284.567696 
L 367.881597 -283.785522 
L 367.923828 -283.003348 
L 367.971067 -282.221174 
L 368.023785 -281.438999 
L 368.082482 -280.656825 
L 368.147683 -279.874651 
L 368.21994 -279.092477 
L 368.29983 -278.310303 
L 368.387953 -277.528128 
L 368.48493 -276.745954 
L 368.5914 -275.96378 
L 368.708017 -275.181606 
L 368.835446 -274.399432 
L 368.974362 -273.617257 
L 369.125441 -272.835083 
L 369.289357 -272.052909 
L 369.466777 -271.270735 
L 369.658357 -270.488561 
L 369.864729 -269.706386 
L 370.086502 -268.924212 
L 370.324251 -268.142038 
L 370.578509 -267.359864 
L 370.849762 -266.57769 
L 371.138442 -265.795515 
L 371.444915 -265.013341 
L 371.769477 -264.231167 
L 372.112348 -263.448993 
L 372.473661 -262.666819 
L 372.853457 -261.884645 
L 373.251679 -261.10247 
L 373.668166 -260.320296 
L 374.10265 -259.538122 
L 374.554748 -258.755948 
L 375.02396 -257.973774 
L 375.509669 -257.191599 
L 376.011136 -256.409425 
L 376.527502 -255.627251 
L 377.057788 -254.845077 
L 377.600897 -254.062903 
L 378.15562 -253.280728 
L 378.720634 -252.498554 
L 379.294515 -251.71638 
L 379.87574 -250.934206 
L 380.462697 -250.152032 
L 381.053694 -249.369857 
L 381.646968 -248.587683 
L 382.240699 -247.805509 
L 382.833017 -247.023335 
L 383.422018 -246.241161 
L 384.005779 -245.458986 
L 384.582365 -244.676812 
L 385.149849 -243.894638 
L 385.706324 -243.112464 
L 386.249915 -242.33029 
L 386.778796 -241.548115 
L 387.2912 -240.765941 
L 387.785437 -239.983767 
L 388.259901 -239.201593 
L 388.713084 -238.419419 
L 389.143589 -237.637244 
L 389.550137 -236.85507 
L 389.931577 -236.072896 
L 390.286896 -235.290722 
L 390.615222 -234.508548 
L 390.915833 -233.726374 
L 391.18816 -232.944199 
L 391.431791 -232.162025 
L 391.646472 -231.379851 
L 391.832108 -230.597677 
L 391.988763 -229.815503 
L 392.11666 -229.033328 
L 392.216174 -228.251154 
L 392.287834 -227.46898 
L 392.332311 -226.686806 
L 392.350419 -225.904632 
L 392.343104 -225.122457 
L 392.311438 -224.340283 
L 392.25661 -223.558109 
L 392.179915 -222.775935 
L 392.082747 -221.993761 
L 391.966585 -221.211586 
L 391.832985 -220.429412 
L 391.683563 -219.647238 
L 391.519989 -218.865064 
L 391.343969 -218.08289 
L 391.157233 -217.300715 
L 390.961522 -216.518541 
L 390.758574 -215.736367 
L 390.55011 -214.954193 
L 390.337819 -214.172019 
L 390.123345 -213.389844 
L 389.908273 -212.60767 
L 389.694115 -211.825496 
L 389.482297 -211.043322 
L 389.274144 -210.261148 
L 389.070874 -209.478973 
L 388.873578 -208.696799 
L 388.683218 -207.914625 
L 388.500612 -207.132451 
L 388.326426 -206.350277 
L 388.161172 -205.568102 
L 388.005197 -204.785928 
L 387.858682 -204.003754 
L 387.721641 -203.22158 
L 387.593915 -202.439406 
L 387.475183 -201.657232 
L 387.364957 -200.875057 
L 387.262591 -200.092883 
L 387.167288 -199.310709 
L 387.078108 -198.528535 
L 386.993981 -197.746361 
L 386.913717 -196.964186 
L 386.836025 -196.182012 
L 386.759521 -195.399838 
L 386.682752 -194.617664 
L 386.604211 -193.83549 
L 386.522356 -193.053315 
L 386.43563 -192.271141 
L 386.342481 -191.488967 
L 386.241381 -190.706793 
L 386.130846 -189.924619 
L 386.009454 -189.142444 
L 385.875867 -188.36027 
L 385.728845 -187.578096 
L 385.567263 -186.795922 
L 385.390126 -186.013748 
L 385.19658 -185.231573 
L 384.985928 -184.449399 
L 384.757632 -183.667225 
L 384.511327 -182.885051 
L 384.246818 -182.102877 
L 383.96409 -181.320702 
L 383.663302 -180.538528 
L 383.344787 -179.756354 
L 383.00905 -178.97418 
L 382.656755 -178.192006 
L 382.288725 -177.409831 
L 381.905924 -176.627657 
L 381.509449 -175.845483 
L 381.100516 -175.063309 
L 380.680445 -174.281135 
L 380.250645 -173.498961 
L 379.812597 -172.716786 
L 379.36784 -171.934612 
L 378.917948 -171.152438 
L 378.464522 -170.370264 
L 378.009165 -169.58809 
L 377.553471 -168.805915 
L 377.099009 -168.023741 
L 376.647307 -167.241567 
L 376.19984 -166.459393 
L 375.758016 -165.677219 
L 375.323168 -164.895044 
L 374.896543 -164.11287 
L 374.479293 -163.330696 
L 374.07247 -162.548522 
L 373.67702 -161.766348 
L 373.293779 -160.984173 
L 372.923475 -160.201999 
L 372.566719 -159.419825 
L 372.224014 -158.637651 
L 371.895752 -157.855477 
L 371.582219 -157.073302 
L 371.283598 -156.291128 
L 370.999973 -155.508954 
L 370.731337 -154.72678 
L 370.477596 -153.944606 
L 370.238577 -153.162431 
L 370.014034 -152.380257 
L 369.803655 -151.598083 
L 369.607074 -150.815909 
L 369.42387 -150.033735 
L 369.253582 -149.25156 
L 369.095714 -148.469386 
L 368.949739 -147.687212 
L 368.81511 -146.905038 
L 368.691265 -146.122864 
L 368.577631 -145.34069 
L 368.473631 -144.558515 
L 368.378689 -143.776341 
L 368.292234 -142.994167 
L 368.213707 -142.211993 
L 368.142557 -141.429819 
L 368.078252 -140.647644 
L 368.020277 -139.86547 
L 367.968139 -139.083296 
L 367.921366 -138.301122 
L 367.879507 -137.518948 
L 367.842139 -136.736773 
L 367.80886 -135.954599 
L 367.779296 -135.172425 
L 367.753094 -134.390251 
L 367.72993 -133.608077 
z
" style="stroke: #ffa500"/>
    </defs>
    <g clip-path="url(#p3046a0f6f6)">
     <use xlink:href="#m513734416b" x="0" y="432" style="fill: #ffa500; fill-opacity: 0.25; stroke: #ffa500"/>
    </g>
   </g>
   <g id="patch_9">
    <path d="M 367.575714 390.04 
L 367.575714 75.812571 
" style="fill: none; stroke: #262626; stroke-width: 0.8; stroke-linejoin: miter; stroke-linecap: square"/>
   </g>
  </g>
 </g>
 <defs>
  <clipPath id="pf6b9ea7052">
   <rect x="45.83" y="75.812571" width="311.020857" height="314.227429"/>
  </clipPath>
  <clipPath id="p286086c7d3">
   <rect x="45.83" y="10.8" width="311.020857" height="54.177143"/>
  </clipPath>
  <clipPath id="p3046a0f6f6">
   <rect x="367.575714" y="75.812571" width="53.624286" height="314.227429"/>
  </clipPath>
 </defs>
</svg>
