<?xml version="1.0" encoding="UTF-8" standalone="no"?>
<!DOCTYPE svg PUBLIC "-//W3C//DTD SVG 1.1//EN" "http://www.w3.org/Graphics/SVG/1.1/DTD/svg11.dtd">
<svg xmlns:xlink="http://www.w3.org/1999/xlink" height="463px" version="1.1" viewBox="0 0 594 463" width="594px" x="0px" y="0px" xmlns="http://www.w3.org/2000/svg">
  <defs>
    <clipPath id="clip963788800">
      <rect height="463" width="594" x="81" y="83"/>
    </clipPath>
  </defs>
  <g clip-path="url(#clip963788800)" transform="translate(-81 -83)">
    <rect height="463" style="fill:rgb(255,255,255);stroke:none;" width="594" x="81" y="83"/>
    <rect height="584" style="fill:rgb(255,255,255);stroke:none;" width="687" x="0" y="0"/>
    <text style="fill:rgb(128,128,128);stroke:none;" x="86" y="103">Assigned:</text>
    <line style="fill:none;stroke:rgb(251,253,251);stroke-miterlimit:10;stroke-linecap:square;" x1="151" x2="151" y1="88" y2="108"/>
    <line style="fill:none;stroke:rgb(212,236,207);stroke-miterlimit:10;stroke-linecap:square;" x1="152" x2="152" y1="88" y2="108"/>
    <line style="fill:none;stroke:rgb(195,229,188);stroke-miterlimit:10;stroke-linecap:square;" x1="153" x2="153" y1="88" y2="108"/>
    <line style="fill:none;stroke:rgb(182,223,174);stroke-miterlimit:10;stroke-linecap:square;" x1="154" x2="154" y1="88" y2="108"/>
    <line style="fill:none;stroke:rgb(170,218,161);stroke-miterlimit:10;stroke-linecap:square;" x1="155" x2="155" y1="88" y2="108"/>
    <line style="fill:none;stroke:rgb(161,214,151);stroke-miterlimit:10;stroke-linecap:square;" x1="156" x2="156" y1="88" y2="108"/>
    <line style="fill:none;stroke:rgb(153,211,141);stroke-miterlimit:10;stroke-linecap:square;" x1="157" x2="157" y1="88" y2="108"/>
    <line style="fill:none;stroke:rgb(143,206,130);stroke-miterlimit:10;stroke-linecap:square;" x1="158" x2="158" y1="88" y2="108"/>
    <line style="fill:none;stroke:rgb(135,203,123);stroke-miterlimit:10;stroke-linecap:square;" x1="159" x2="159" y1="88" y2="108"/>
    <line style="fill:none;stroke:rgb(129,200,115);stroke-miterlimit:10;stroke-linecap:square;" x1="160" x2="160" y1="88" y2="108"/>
    <line style="fill:none;stroke:rgb(121,197,108);stroke-miterlimit:10;stroke-linecap:square;" x1="161" x2="161" y1="88" y2="108"/>
    <line style="fill:none;stroke:rgb(115,195,104);stroke-miterlimit:10;stroke-linecap:square;" x1="162" x2="162" y1="88" y2="108"/>
    <line style="fill:none;stroke:rgb(108,192,99);stroke-miterlimit:10;stroke-linecap:square;" x1="163" x2="163" y1="88" y2="108"/>
    <line style="fill:none;stroke:rgb(102,190,95);stroke-miterlimit:10;stroke-linecap:square;" x1="164" x2="164" y1="88" y2="108"/>
    <line style="fill:none;stroke:rgb(96,187,91);stroke-miterlimit:10;stroke-linecap:square;" x1="165" x2="165" y1="88" y2="108"/>
    <line style="fill:none;stroke:rgb(91,184,86);stroke-miterlimit:10;stroke-linecap:square;" x1="166" x2="166" y1="88" y2="108"/>
    <line style="fill:none;stroke:rgb(85,182,83);stroke-miterlimit:10;stroke-linecap:square;" x1="167" x2="167" y1="88" y2="108"/>
    <line style="fill:none;stroke:rgb(80,180,78);stroke-miterlimit:10;stroke-linecap:square;" x1="168" x2="168" y1="88" y2="108"/>
    <line style="fill:none;stroke:rgb(74,177,74);stroke-miterlimit:10;stroke-linecap:square;" x1="169" x2="169" y1="88" y2="108"/>
    <line style="fill:none;stroke:rgb(69,175,70);stroke-miterlimit:10;stroke-linecap:square;" x1="170" x2="170" y1="88" y2="108"/>
    <line style="fill:none;stroke:rgb(66,174,67);stroke-miterlimit:10;stroke-linecap:square;" x1="171" x2="171" y1="88" y2="108"/>
    <line style="fill:none;stroke:rgb(60,172,63);stroke-miterlimit:10;stroke-linecap:square;" x1="172" x2="172" y1="88" y2="108"/>
    <line style="fill:none;stroke:rgb(57,170,60);stroke-miterlimit:10;stroke-linecap:square;" x1="173" x2="173" y1="88" y2="108"/>
    <line style="fill:none;stroke:rgb(52,168,57);stroke-miterlimit:10;stroke-linecap:square;" x1="174" x2="174" y1="88" y2="108"/>
    <line style="fill:none;stroke:rgb(48,167,54);stroke-miterlimit:10;stroke-linecap:square;" x1="175" x2="175" y1="88" y2="108"/>
    <line style="fill:none;stroke:rgb(42,164,49);stroke-miterlimit:10;stroke-linecap:square;" x1="176" x2="176" y1="88" y2="108"/>
    <line style="fill:none;stroke:rgb(39,162,47);stroke-miterlimit:10;stroke-linecap:square;" x1="177" x2="177" y1="88" y2="108"/>
    <line style="fill:none;stroke:rgb(35,160,44);stroke-miterlimit:10;stroke-linecap:square;" x1="178" x2="178" y1="88" y2="108"/>
    <line style="fill:none;stroke:rgb(32,159,41);stroke-miterlimit:10;stroke-linecap:square;" x1="179" x2="179" y1="88" y2="108"/>
    <line style="fill:none;stroke:rgb(27,156,37);stroke-miterlimit:10;stroke-linecap:square;" x1="180" x2="180" y1="88" y2="108"/>
    <line style="fill:none;stroke:rgb(26,152,36);stroke-miterlimit:10;stroke-linecap:square;" x1="181" x2="181" y1="88" y2="108"/>
    <line style="fill:none;stroke:rgb(25,148,34);stroke-miterlimit:10;stroke-linecap:square;" x1="182" x2="182" y1="88" y2="108"/>
    <line style="fill:none;stroke:rgb(25,144,36);stroke-miterlimit:10;stroke-linecap:square;" x1="183" x2="183" y1="88" y2="108"/>
    <line style="fill:none;stroke:rgb(24,140,36);stroke-miterlimit:10;stroke-linecap:square;" x1="184" x2="184" y1="88" y2="108"/>
    <line style="fill:none;stroke:rgb(22,136,34);stroke-miterlimit:10;stroke-linecap:square;" x1="185" x2="185" y1="88" y2="108"/>
    <line style="fill:none;stroke:rgb(22,132,36);stroke-miterlimit:10;stroke-linecap:square;" x1="186" x2="186" y1="88" y2="108"/>
    <line style="fill:none;stroke:rgb(21,128,36);stroke-miterlimit:10;stroke-linecap:square;" x1="187" x2="187" y1="88" y2="108"/>
    <line style="fill:none;stroke:rgb(20,125,35);stroke-miterlimit:10;stroke-linecap:square;" x1="188" x2="188" y1="88" y2="108"/>
    <line style="fill:none;stroke:rgb(21,121,36);stroke-miterlimit:10;stroke-linecap:square;" x1="189" x2="189" y1="88" y2="108"/>
    <line style="fill:none;stroke:rgb(19,118,36);stroke-miterlimit:10;stroke-linecap:square;" x1="190" x2="190" y1="88" y2="108"/>
    <line style="fill:none;stroke:rgb(17,114,35);stroke-miterlimit:10;stroke-linecap:square;" x1="191" x2="191" y1="88" y2="108"/>
    <line style="fill:none;stroke:rgb(18,112,35);stroke-miterlimit:10;stroke-linecap:square;" x1="192" x2="192" y1="88" y2="108"/>
    <line style="fill:none;stroke:rgb(18,109,37);stroke-miterlimit:10;stroke-linecap:square;" x1="193" x2="193" y1="88" y2="108"/>
    <line style="fill:none;stroke:rgb(17,105,36);stroke-miterlimit:10;stroke-linecap:square;" x1="194" x2="194" y1="88" y2="108"/>
    <line style="fill:none;stroke:rgb(16,101,35);stroke-miterlimit:10;stroke-linecap:square;" x1="195" x2="195" y1="88" y2="108"/>
    <line style="fill:none;stroke:rgb(17,99,38);stroke-miterlimit:10;stroke-linecap:square;" x1="196" x2="196" y1="88" y2="108"/>
    <line style="fill:none;stroke:rgb(16,97,38);stroke-miterlimit:10;stroke-linecap:square;" x1="197" x2="197" y1="88" y2="108"/>
    <line style="fill:none;stroke:rgb(15,93,37);stroke-miterlimit:10;stroke-linecap:square;" x1="198" x2="198" y1="88" y2="108"/>
    <line style="fill:none;stroke:rgb(14,89,38);stroke-miterlimit:10;stroke-linecap:square;" x1="199" x2="199" y1="88" y2="108"/>
    <line style="fill:none;stroke:rgb(15,87,39);stroke-miterlimit:10;stroke-linecap:square;" x1="200" x2="200" y1="88" y2="108"/>
    <rect height="20" style="fill:none;stroke:rgb(128,128,128);stroke-miterlimit:10;stroke-linecap:square;" width="50" x="150" y="88"/>
    <line style="fill:none;stroke:rgb(128,128,128);stroke-miterlimit:10;stroke-linecap:square;" x1="162" x2="162" y1="88" y2="108"/>
    <line style="fill:none;stroke:rgb(128,128,128);stroke-miterlimit:10;stroke-linecap:square;" x1="175" x2="175" y1="88" y2="108"/>
    <line style="fill:none;stroke:rgb(128,128,128);stroke-miterlimit:10;stroke-linecap:square;" x1="187" x2="187" y1="88" y2="108"/>
    <text style="fill:rgb(128,128,128);stroke:none;font-size:9px;" x="147" y="118">0</text>
    <text style="fill:rgb(128,128,128);stroke:none;font-size:9px;" x="156" y="118">25</text>
    <text style="fill:rgb(128,128,128);stroke:none;font-size:9px;" x="170" y="118">50</text>
    <text style="fill:rgb(128,128,128);stroke:none;font-size:9px;" x="182" y="118">75</text>
    <text style="fill:rgb(128,128,128);stroke:none;font-size:9px;" x="195" y="118">100%</text>
    <text style="fill:rgb(128,128,128);stroke:none;" x="202" y="97">100</text>
    <line style="fill:none;stroke:rgb(192,192,192);stroke-miterlimit:10;stroke-linecap:square;" x1="150" x2="150" y1="310" y2="275"/>
    <line style="fill:none;stroke:rgb(192,192,192);stroke-miterlimit:10;stroke-linecap:square;" x1="150" x2="177" y1="275" y2="275"/>
    <line style="fill:none;stroke:rgb(0,0,0);stroke-miterlimit:10;stroke-linecap:square;" x1="181" x2="190" y1="275" y2="275"/>
    <line style="fill:none;stroke:rgb(0,0,0);stroke-miterlimit:10;stroke-linecap:square;" x1="207" x2="207" y1="268" y2="133"/>
    <line style="fill:none;stroke:rgb(0,0,0);stroke-miterlimit:10;stroke-linecap:square;" x1="207" x2="234" y1="133" y2="133"/>
    <line style="fill:none;stroke:rgb(0,0,0);stroke-miterlimit:10;stroke-linecap:square;" x1="238" x2="263" y1="133" y2="133"/>
    <line style="fill:none;stroke:rgb(0,0,0);stroke-miterlimit:10;stroke-linecap:square;" x1="267" x2="292" y1="133" y2="133"/>
    <line style="fill:none;stroke:rgb(0,0,0);stroke-miterlimit:10;stroke-linecap:square;" x1="296" x2="320" y1="133" y2="133"/>
    <line style="fill:none;stroke:rgb(0,0,0);stroke-miterlimit:10;stroke-linecap:square;" x1="324" x2="334" y1="133" y2="133"/>
    <line style="fill:none;stroke:rgb(0,0,0);stroke-miterlimit:10;stroke-linecap:square;" x1="351" x2="351" y1="126" y2="117"/>
    <line style="fill:none;stroke:rgb(0,0,0);stroke-miterlimit:10;stroke-linecap:square;" x1="351" x2="363" y1="117" y2="117"/>
    <line style="fill:none;stroke:rgb(0,0,0);stroke-miterlimit:10;stroke-linecap:square;" x1="380" x2="380" y1="110" y2="108"/>
    <line style="fill:none;stroke:rgb(0,0,0);stroke-miterlimit:10;stroke-linecap:square;" x1="380" x2="392" y1="108" y2="108"/>
    <line style="fill:none;stroke:rgb(0,0,0);stroke-miterlimit:10;stroke-linecap:square;" x1="409" x2="409" y1="101" y2="100"/>
    <line style="fill:none;stroke:rgb(0,0,0);stroke-miterlimit:10;stroke-linecap:square;" x1="409" x2="420" y1="100" y2="100"/>
    <rect height="10" style="fill:rgb(219,239,215);stroke:none;" width="30" x="422" y="96"/>
    <rect height="10" style="fill:none;stroke:rgb(64,64,64);stroke-miterlimit:10;stroke-linecap:square;" width="30" x="422" y="96"/>
    <line style="fill:none;stroke:rgb(0,0,0);stroke-miterlimit:10;stroke-linecap:square;" x1="409" x2="409" y1="115" y2="117"/>
    <line style="fill:none;stroke:rgb(0,0,0);stroke-miterlimit:10;stroke-linecap:square;" x1="409" x2="420" y1="117" y2="117"/>
    <rect height="10" style="fill:rgb(219,239,215);stroke:none;" width="30" x="422" y="113"/>
    <rect height="10" style="fill:none;stroke:rgb(64,64,64);stroke-miterlimit:10;stroke-linecap:square;" width="30" x="422" y="113"/>
    <rect height="10" style="fill:rgb(158,213,147);stroke:none;" width="30" x="394" y="104"/>
    <rect height="10" style="fill:none;stroke:rgb(64,64,64);stroke-miterlimit:10;stroke-linecap:square;" width="30" x="394" y="104"/>
    <line style="fill:none;stroke:rgb(0,0,0);stroke-miterlimit:10;stroke-linecap:square;" x1="380" x2="380" y1="124" y2="133"/>
    <line style="fill:none;stroke:rgb(0,0,0);stroke-miterlimit:10;stroke-linecap:square;" x1="380" x2="392" y1="133" y2="133"/>
    <line style="fill:none;stroke:rgb(0,0,0);stroke-miterlimit:10;stroke-linecap:square;" x1="426" x2="420" y1="133" y2="133"/>
    <rect height="10" style="fill:rgb(219,239,215);stroke:none;" width="30" x="422" y="129"/>
    <rect height="10" style="fill:none;stroke:rgb(64,64,64);stroke-miterlimit:10;stroke-linecap:square;" width="30" x="422" y="129"/>
    <rect height="10" style="fill:rgb(158,213,147);stroke:none;" width="30" x="394" y="129"/>
    <rect height="10" style="fill:none;stroke:rgb(64,64,64);stroke-miterlimit:10;stroke-linecap:square;" width="30" x="394" y="129"/>
    <rect height="10" style="fill:rgb(219,239,215);stroke:none;" width="30" x="365" y="113"/>
    <rect height="10" style="fill:none;stroke:rgb(64,64,64);stroke-miterlimit:10;stroke-linecap:square;" width="30" x="365" y="113"/>
    <line style="fill:none;stroke:rgb(0,0,0);stroke-miterlimit:10;stroke-linecap:square;" x1="351" x2="351" y1="140" y2="150"/>
    <line style="fill:none;stroke:rgb(0,0,0);stroke-miterlimit:10;stroke-linecap:square;" x1="351" x2="378" y1="150" y2="150"/>
    <line style="fill:none;stroke:rgb(0,0,0);stroke-miterlimit:10;stroke-linecap:square;" x1="382" x2="407" y1="150" y2="150"/>
    <line style="fill:none;stroke:rgb(0,0,0);stroke-miterlimit:10;stroke-linecap:square;" x1="411" x2="420" y1="150" y2="150"/>
    <rect height="10" style="fill:rgb(219,239,215);stroke:none;" width="30" x="422" y="146"/>
    <rect height="10" style="fill:none;stroke:rgb(64,64,64);stroke-miterlimit:10;stroke-linecap:square;" width="30" x="422" y="146"/>
    <ellipse cx="409.5" cy="150.5" rx="0.5" ry="0.5" style="fill:rgb(255,255,255);stroke:none;"/>
    <ellipse cx="409.5" cy="150.5" rx="0.5" ry="0.5" style="fill:none;stroke:rgb(0,0,0);stroke-miterlimit:10;stroke-linecap:square;"/>
    <ellipse cx="380.5" cy="150.5" rx="0.5" ry="0.5" style="fill:rgb(255,255,255);stroke:none;"/>
    <ellipse cx="380.5" cy="150.5" rx="0.5" ry="0.5" style="fill:none;stroke:rgb(0,0,0);stroke-miterlimit:10;stroke-linecap:square;"/>
    <line style="fill:none;stroke:rgb(0,0,0);stroke-miterlimit:10;stroke-linecap:square;" x1="351" x2="351" y1="140" y2="167"/>
    <line style="fill:none;stroke:rgb(0,0,0);stroke-miterlimit:10;stroke-linecap:square;" x1="351" x2="378" y1="167" y2="167"/>
    <line style="fill:none;stroke:rgb(0,0,0);stroke-miterlimit:10;stroke-linecap:square;" x1="382" x2="392" y1="167" y2="167"/>
    <rect height="10" style="fill:rgb(195,229,188);stroke:none;" width="30" x="394" y="163"/>
    <rect height="10" style="fill:none;stroke:rgb(64,64,64);stroke-miterlimit:10;stroke-linecap:square;" width="30" x="394" y="163"/>
    <ellipse cx="380.5" cy="167.5" rx="0.5" ry="0.5" style="fill:rgb(255,255,255);stroke:none;"/>
    <ellipse cx="380.5" cy="167.5" rx="0.5" ry="0.5" style="fill:none;stroke:rgb(0,0,0);stroke-miterlimit:10;stroke-linecap:square;"/>
    <rect height="10" style="fill:rgb(219,239,215);stroke:none;" width="30" x="336" y="129"/>
    <rect height="10" style="fill:none;stroke:rgb(64,64,64);stroke-miterlimit:10;stroke-linecap:square;" width="30" x="336" y="129"/>
    <ellipse cx="322.5" cy="133.5" rx="0.5" ry="0.5" style="fill:rgb(255,255,255);stroke:none;"/>
    <ellipse cx="322.5" cy="133.5" rx="0.5" ry="0.5" style="fill:none;stroke:rgb(0,0,0);stroke-miterlimit:10;stroke-linecap:square;"/>
    <ellipse cx="294.5" cy="133.5" rx="0.5" ry="0.5" style="fill:rgb(255,255,255);stroke:none;"/>
    <ellipse cx="294.5" cy="133.5" rx="0.5" ry="0.5" style="fill:none;stroke:rgb(0,0,0);stroke-miterlimit:10;stroke-linecap:square;"/>
    <ellipse cx="265.5" cy="133.5" rx="0.5" ry="0.5" style="fill:rgb(255,255,255);stroke:none;"/>
    <ellipse cx="265.5" cy="133.5" rx="0.5" ry="0.5" style="fill:none;stroke:rgb(0,0,0);stroke-miterlimit:10;stroke-linecap:square;"/>
    <ellipse cx="236.5" cy="133.5" rx="0.5" ry="0.5" style="fill:rgb(255,255,255);stroke:none;"/>
    <ellipse cx="236.5" cy="133.5" rx="0.5" ry="0.5" style="fill:none;stroke:rgb(0,0,0);stroke-miterlimit:10;stroke-linecap:square;"/>
    <line style="fill:none;stroke:rgb(0,0,0);stroke-miterlimit:10;stroke-linecap:square;" x1="207" x2="207" y1="268" y2="192"/>
    <line style="fill:none;stroke:rgb(0,0,0);stroke-miterlimit:10;stroke-linecap:square;" x1="207" x2="234" y1="192" y2="192"/>
    <line style="fill:none;stroke:rgb(0,0,0);stroke-miterlimit:10;stroke-linecap:square;" x1="236" x2="236" y1="190" y2="184"/>
    <line style="fill:none;stroke:rgb(0,0,0);stroke-miterlimit:10;stroke-linecap:square;" x1="236" x2="263" y1="184" y2="184"/>
    <line style="fill:none;stroke:rgb(0,0,0);stroke-miterlimit:10;stroke-linecap:square;" x1="267" x2="292" y1="184" y2="184"/>
    <line style="fill:none;stroke:rgb(0,0,0);stroke-miterlimit:10;stroke-linecap:square;" x1="296" x2="305" y1="184" y2="184"/>
    <rect height="10" style="fill:rgb(219,239,215);stroke:none;" width="30" x="307" y="180"/>
    <rect height="10" style="fill:none;stroke:rgb(64,64,64);stroke-miterlimit:10;stroke-linecap:square;" width="30" x="307" y="180"/>
    <ellipse cx="294.5" cy="184.5" rx="0.5" ry="0.5" style="fill:rgb(255,255,255);stroke:none;"/>
    <ellipse cx="294.5" cy="184.5" rx="0.5" ry="0.5" style="fill:none;stroke:rgb(0,0,0);stroke-miterlimit:10;stroke-linecap:square;"/>
    <ellipse cx="265.5" cy="184.5" rx="0.5" ry="0.5" style="fill:rgb(255,255,255);stroke:none;"/>
    <ellipse cx="265.5" cy="184.5" rx="0.5" ry="0.5" style="fill:none;stroke:rgb(0,0,0);stroke-miterlimit:10;stroke-linecap:square;"/>
    <line style="fill:none;stroke:rgb(0,0,0);stroke-miterlimit:10;stroke-linecap:square;" x1="236" x2="236" y1="194" y2="200"/>
    <line style="fill:none;stroke:rgb(0,0,0);stroke-miterlimit:10;stroke-linecap:square;" x1="236" x2="263" y1="200" y2="200"/>
    <line style="fill:none;stroke:rgb(0,0,0);stroke-miterlimit:10;stroke-linecap:square;" x1="267" x2="292" y1="200" y2="200"/>
    <line style="fill:none;stroke:rgb(0,0,0);stroke-miterlimit:10;stroke-linecap:square;" x1="296" x2="320" y1="200" y2="200"/>
    <line style="fill:none;stroke:rgb(0,0,0);stroke-miterlimit:10;stroke-linecap:square;" x1="324" x2="349" y1="200" y2="200"/>
    <line style="fill:none;stroke:rgb(0,0,0);stroke-miterlimit:10;stroke-linecap:square;" x1="353" x2="363" y1="200" y2="200"/>
    <rect height="10" style="fill:rgb(219,239,215);stroke:none;" width="30" x="365" y="196"/>
    <rect height="10" style="fill:none;stroke:rgb(64,64,64);stroke-miterlimit:10;stroke-linecap:square;" width="30" x="365" y="196"/>
    <ellipse cx="351.5" cy="200.5" rx="0.5" ry="0.5" style="fill:rgb(255,255,255);stroke:none;"/>
    <ellipse cx="351.5" cy="200.5" rx="0.5" ry="0.5" style="fill:none;stroke:rgb(0,0,0);stroke-miterlimit:10;stroke-linecap:square;"/>
    <ellipse cx="322.5" cy="200.5" rx="0.5" ry="0.5" style="fill:rgb(255,255,255);stroke:none;"/>
    <ellipse cx="322.5" cy="200.5" rx="0.5" ry="0.5" style="fill:none;stroke:rgb(0,0,0);stroke-miterlimit:10;stroke-linecap:square;"/>
    <ellipse cx="294.5" cy="200.5" rx="0.5" ry="0.5" style="fill:rgb(255,255,255);stroke:none;"/>
    <ellipse cx="294.5" cy="200.5" rx="0.5" ry="0.5" style="fill:none;stroke:rgb(0,0,0);stroke-miterlimit:10;stroke-linecap:square;"/>
    <ellipse cx="265.5" cy="200.5" rx="0.5" ry="0.5" style="fill:rgb(255,255,255);stroke:none;"/>
    <ellipse cx="265.5" cy="200.5" rx="0.5" ry="0.5" style="fill:none;stroke:rgb(0,0,0);stroke-miterlimit:10;stroke-linecap:square;"/>
    <ellipse cx="236.5" cy="192.5" rx="0.5" ry="0.5" style="fill:rgb(255,255,255);stroke:none;"/>
    <ellipse cx="236.5" cy="192.5" rx="0.5" ry="0.5" style="fill:none;stroke:rgb(0,0,0);stroke-miterlimit:10;stroke-linecap:square;"/>
    <line style="fill:none;stroke:rgb(0,0,0);stroke-miterlimit:10;stroke-linecap:square;" x1="207" x2="207" y1="282" y2="334"/>
    <line style="fill:none;stroke:rgb(0,0,0);stroke-miterlimit:10;stroke-linecap:square;" x1="207" x2="234" y1="334" y2="334"/>
    <line style="fill:none;stroke:rgb(0,0,0);stroke-miterlimit:10;stroke-linecap:square;" x1="238" x2="263" y1="334" y2="334"/>
    <line style="fill:none;stroke:rgb(0,0,0);stroke-miterlimit:10;stroke-linecap:square;" x1="267" x2="292" y1="334" y2="334"/>
    <line style="fill:none;stroke:rgb(0,0,0);stroke-miterlimit:10;stroke-linecap:square;" x1="296" x2="305" y1="334" y2="334"/>
    <line style="fill:none;stroke:rgb(0,0,0);stroke-miterlimit:10;stroke-linecap:square;" x1="322" x2="322" y1="327" y2="217"/>
    <line style="fill:none;stroke:rgb(0,0,0);stroke-miterlimit:10;stroke-linecap:square;" x1="322" x2="349" y1="217" y2="217"/>
    <line style="fill:none;stroke:rgb(0,0,0);stroke-miterlimit:10;stroke-linecap:square;" x1="353" x2="378" y1="217" y2="217"/>
    <line style="fill:none;stroke:rgb(0,0,0);stroke-miterlimit:10;stroke-linecap:square;" x1="382" x2="392" y1="217" y2="217"/>
    <rect height="10" style="fill:rgb(219,239,215);stroke:none;" width="30" x="394" y="213"/>
    <rect height="10" style="fill:none;stroke:rgb(64,64,64);stroke-miterlimit:10;stroke-linecap:square;" width="30" x="394" y="213"/>
    <ellipse cx="380.5" cy="217.5" rx="0.5" ry="0.5" style="fill:rgb(255,255,255);stroke:none;"/>
    <ellipse cx="380.5" cy="217.5" rx="0.5" ry="0.5" style="fill:none;stroke:rgb(0,0,0);stroke-miterlimit:10;stroke-linecap:square;"/>
    <ellipse cx="351.5" cy="217.5" rx="0.5" ry="0.5" style="fill:rgb(255,255,255);stroke:none;"/>
    <ellipse cx="351.5" cy="217.5" rx="0.5" ry="0.5" style="fill:none;stroke:rgb(0,0,0);stroke-miterlimit:10;stroke-linecap:square;"/>
    <line style="fill:none;stroke:rgb(0,0,0);stroke-miterlimit:10;stroke-linecap:square;" x1="322" x2="322" y1="327" y2="284"/>
    <line style="fill:none;stroke:rgb(0,0,0);stroke-miterlimit:10;stroke-linecap:square;" x1="322" x2="334" y1="284" y2="284"/>
    <line style="fill:none;stroke:rgb(0,0,0);stroke-miterlimit:10;stroke-linecap:square;" x1="351" x2="351" y1="277" y2="234"/>
    <line style="fill:none;stroke:rgb(0,0,0);stroke-miterlimit:10;stroke-linecap:square;" x1="351" x2="378" y1="234" y2="234"/>
    <line style="fill:none;stroke:rgb(0,0,0);stroke-miterlimit:10;stroke-linecap:square;" x1="382" x2="392" y1="234" y2="234"/>
    <rect height="10" style="fill:rgb(219,239,215);stroke:none;" width="30" x="394" y="230"/>
    <rect height="10" style="fill:none;stroke:rgb(64,64,64);stroke-miterlimit:10;stroke-linecap:square;" width="30" x="394" y="230"/>
    <ellipse cx="380.5" cy="234.5" rx="0.5" ry="0.5" style="fill:rgb(255,255,255);stroke:none;"/>
    <ellipse cx="380.5" cy="234.5" rx="0.5" ry="0.5" style="fill:none;stroke:rgb(0,0,0);stroke-miterlimit:10;stroke-linecap:square;"/>
    <line style="fill:none;stroke:rgb(0,0,0);stroke-miterlimit:10;stroke-linecap:square;" x1="351" x2="351" y1="277" y2="250"/>
    <line style="fill:none;stroke:rgb(0,0,0);stroke-miterlimit:10;stroke-linecap:square;" x1="351" x2="378" y1="250" y2="250"/>
    <line style="fill:none;stroke:rgb(0,0,0);stroke-miterlimit:10;stroke-linecap:square;" x1="382" x2="407" y1="250" y2="250"/>
    <line style="fill:none;stroke:rgb(0,0,0);stroke-miterlimit:10;stroke-linecap:square;" x1="411" x2="420" y1="250" y2="250"/>
    <rect height="10" style="fill:rgb(219,239,215);stroke:none;" width="30" x="422" y="246"/>
    <rect height="10" style="fill:none;stroke:rgb(64,64,64);stroke-miterlimit:10;stroke-linecap:square;" width="30" x="422" y="246"/>
    <ellipse cx="409.5" cy="250.5" rx="0.5" ry="0.5" style="fill:rgb(255,255,255);stroke:none;"/>
    <ellipse cx="409.5" cy="250.5" rx="0.5" ry="0.5" style="fill:none;stroke:rgb(0,0,0);stroke-miterlimit:10;stroke-linecap:square;"/>
    <ellipse cx="380.5" cy="250.5" rx="0.5" ry="0.5" style="fill:rgb(255,255,255);stroke:none;"/>
    <ellipse cx="380.5" cy="250.5" rx="0.5" ry="0.5" style="fill:none;stroke:rgb(0,0,0);stroke-miterlimit:10;stroke-linecap:square;"/>
    <line style="fill:none;stroke:rgb(0,0,0);stroke-miterlimit:10;stroke-linecap:square;" x1="351" x2="351" y1="277" y2="267"/>
    <line style="fill:none;stroke:rgb(0,0,0);stroke-miterlimit:10;stroke-linecap:square;" x1="351" x2="378" y1="267" y2="267"/>
    <line style="fill:none;stroke:rgb(0,0,0);stroke-miterlimit:10;stroke-linecap:square;" x1="382" x2="392" y1="267" y2="267"/>
    <rect height="10" style="fill:rgb(219,239,215);stroke:none;" width="30" x="394" y="263"/>
    <rect height="10" style="fill:none;stroke:rgb(64,64,64);stroke-miterlimit:10;stroke-linecap:square;" width="30" x="394" y="263"/>
    <ellipse cx="380.5" cy="267.5" rx="0.5" ry="0.5" style="fill:rgb(255,255,255);stroke:none;"/>
    <ellipse cx="380.5" cy="267.5" rx="0.5" ry="0.5" style="fill:none;stroke:rgb(0,0,0);stroke-miterlimit:10;stroke-linecap:square;"/>
    <line style="fill:none;stroke:rgb(0,0,0);stroke-miterlimit:10;stroke-linecap:square;" x1="368" x2="378" y1="284" y2="284"/>
    <line style="fill:none;stroke:rgb(0,0,0);stroke-miterlimit:10;stroke-linecap:square;" x1="382" x2="392" y1="284" y2="284"/>
    <rect height="10" style="fill:rgb(219,239,215);stroke:none;" width="30" x="394" y="280"/>
    <rect height="10" style="fill:none;stroke:rgb(64,64,64);stroke-miterlimit:10;stroke-linecap:square;" width="30" x="394" y="280"/>
    <ellipse cx="380.5" cy="284.5" rx="0.5" ry="0.5" style="fill:rgb(255,255,255);stroke:none;"/>
    <ellipse cx="380.5" cy="284.5" rx="0.5" ry="0.5" style="fill:none;stroke:rgb(0,0,0);stroke-miterlimit:10;stroke-linecap:square;"/>
    <line style="fill:none;stroke:rgb(0,0,0);stroke-miterlimit:10;stroke-linecap:square;" x1="351" x2="351" y1="291" y2="300"/>
    <line style="fill:none;stroke:rgb(0,0,0);stroke-miterlimit:10;stroke-linecap:square;" x1="351" x2="378" y1="300" y2="300"/>
    <line style="fill:none;stroke:rgb(0,0,0);stroke-miterlimit:10;stroke-linecap:square;" x1="382" x2="392" y1="300" y2="300"/>
    <rect height="10" style="fill:rgb(219,239,215);stroke:none;" width="30" x="394" y="296"/>
    <rect height="10" style="fill:none;stroke:rgb(64,64,64);stroke-miterlimit:10;stroke-linecap:square;" width="30" x="394" y="296"/>
    <ellipse cx="380.5" cy="300.5" rx="0.5" ry="0.5" style="fill:rgb(255,255,255);stroke:none;"/>
    <ellipse cx="380.5" cy="300.5" rx="0.5" ry="0.5" style="fill:none;stroke:rgb(0,0,0);stroke-miterlimit:10;stroke-linecap:square;"/>
    <line style="fill:none;stroke:rgb(0,0,0);stroke-miterlimit:10;stroke-linecap:square;" x1="351" x2="351" y1="291" y2="325"/>
    <line style="fill:none;stroke:rgb(0,0,0);stroke-miterlimit:10;stroke-linecap:square;" x1="351" x2="363" y1="325" y2="325"/>
    <line style="fill:none;stroke:rgb(0,0,0);stroke-miterlimit:10;stroke-linecap:square;" x1="380" x2="380" y1="318" y2="317"/>
    <line style="fill:none;stroke:rgb(0,0,0);stroke-miterlimit:10;stroke-linecap:square;" x1="380" x2="392" y1="317" y2="317"/>
    <rect height="10" style="fill:rgb(206,233,199);stroke:none;" width="30" x="394" y="313"/>
    <rect height="10" style="fill:none;stroke:rgb(64,64,64);stroke-miterlimit:10;stroke-linecap:square;" width="30" x="394" y="313"/>
    <line style="fill:none;stroke:rgb(0,0,0);stroke-miterlimit:10;stroke-linecap:square;" x1="380" x2="380" y1="332" y2="334"/>
    <line style="fill:none;stroke:rgb(0,0,0);stroke-miterlimit:10;stroke-linecap:square;" x1="380" x2="392" y1="334" y2="334"/>
    <rect height="10" style="fill:rgb(219,239,215);stroke:none;" width="30" x="394" y="330"/>
    <rect height="10" style="fill:none;stroke:rgb(64,64,64);stroke-miterlimit:10;stroke-linecap:square;" width="30" x="394" y="330"/>
    <rect height="10" style="fill:rgb(219,239,215);stroke:none;" width="30" x="365" y="321"/>
    <rect height="10" style="fill:none;stroke:rgb(64,64,64);stroke-miterlimit:10;stroke-linecap:square;" width="30" x="365" y="321"/>
    <rect height="10" style="fill:rgb(219,239,215);stroke:none;" width="30" x="336" y="280"/>
    <rect height="10" style="fill:none;stroke:rgb(64,64,64);stroke-miterlimit:10;stroke-linecap:square;" width="30" x="336" y="280"/>
    <line style="fill:none;stroke:rgb(0,0,0);stroke-miterlimit:10;stroke-linecap:square;" x1="322" x2="322" y1="341" y2="392"/>
    <line style="fill:none;stroke:rgb(0,0,0);stroke-miterlimit:10;stroke-linecap:square;" x1="322" x2="334" y1="392" y2="392"/>
    <line style="fill:none;stroke:rgb(0,0,0);stroke-miterlimit:10;stroke-linecap:square;" x1="351" x2="351" y1="385" y2="351"/>
    <line style="fill:none;stroke:rgb(0,0,0);stroke-miterlimit:10;stroke-linecap:square;" x1="351" x2="378" y1="351" y2="351"/>
    <line style="fill:none;stroke:rgb(0,0,0);stroke-miterlimit:10;stroke-linecap:square;" x1="382" x2="407" y1="351" y2="351"/>
    <line style="fill:none;stroke:rgb(0,0,0);stroke-miterlimit:10;stroke-linecap:square;" x1="411" x2="420" y1="351" y2="351"/>
    <rect height="10" style="fill:rgb(219,239,215);stroke:none;" width="30" x="422" y="347"/>
    <rect height="10" style="fill:none;stroke:rgb(64,64,64);stroke-miterlimit:10;stroke-linecap:square;" width="30" x="422" y="347"/>
    <ellipse cx="409.5" cy="351.5" rx="0.5" ry="0.5" style="fill:rgb(255,255,255);stroke:none;"/>
    <ellipse cx="409.5" cy="351.5" rx="0.5" ry="0.5" style="fill:none;stroke:rgb(0,0,0);stroke-miterlimit:10;stroke-linecap:square;"/>
    <ellipse cx="380.5" cy="351.5" rx="0.5" ry="0.5" style="fill:rgb(255,255,255);stroke:none;"/>
    <ellipse cx="380.5" cy="351.5" rx="0.5" ry="0.5" style="fill:none;stroke:rgb(0,0,0);stroke-miterlimit:10;stroke-linecap:square;"/>
    <line style="fill:none;stroke:rgb(0,0,0);stroke-miterlimit:10;stroke-linecap:square;" x1="351" x2="351" y1="385" y2="367"/>
    <line style="fill:none;stroke:rgb(0,0,0);stroke-miterlimit:10;stroke-linecap:square;" x1="351" x2="378" y1="367" y2="367"/>
    <line style="fill:none;stroke:rgb(0,0,0);stroke-miterlimit:10;stroke-linecap:square;" x1="382" x2="392" y1="367" y2="367"/>
    <rect height="10" style="fill:rgb(15,85,38);stroke:none;" width="30" x="394" y="363"/>
    <rect height="10" style="fill:none;stroke:rgb(64,64,64);stroke-miterlimit:10;stroke-linecap:square;" width="30" x="394" y="363"/>
    <ellipse cx="380.5" cy="367.5" rx="0.5" ry="0.5" style="fill:rgb(255,255,255);stroke:none;"/>
    <ellipse cx="380.5" cy="367.5" rx="0.5" ry="0.5" style="fill:none;stroke:rgb(0,0,0);stroke-miterlimit:10;stroke-linecap:square;"/>
    <line style="fill:none;stroke:rgb(0,0,0);stroke-miterlimit:10;stroke-linecap:square;" x1="351" x2="351" y1="385" y2="384"/>
    <line style="fill:none;stroke:rgb(0,0,0);stroke-miterlimit:10;stroke-linecap:square;" x1="351" x2="378" y1="384" y2="384"/>
    <line style="fill:none;stroke:rgb(0,0,0);stroke-miterlimit:10;stroke-linecap:square;" x1="382" x2="392" y1="384" y2="384"/>
    <rect height="10" style="fill:rgb(219,239,215);stroke:none;" width="30" x="394" y="380"/>
    <rect height="10" style="fill:none;stroke:rgb(64,64,64);stroke-miterlimit:10;stroke-linecap:square;" width="30" x="394" y="380"/>
    <ellipse cx="380.5" cy="384.5" rx="0.5" ry="0.5" style="fill:rgb(255,255,255);stroke:none;"/>
    <ellipse cx="380.5" cy="384.5" rx="0.5" ry="0.5" style="fill:none;stroke:rgb(0,0,0);stroke-miterlimit:10;stroke-linecap:square;"/>
    <line style="fill:none;stroke:rgb(0,0,0);stroke-miterlimit:10;stroke-linecap:square;" x1="351" x2="351" y1="399" y2="401"/>
    <line style="fill:none;stroke:rgb(0,0,0);stroke-miterlimit:10;stroke-linecap:square;" x1="351" x2="378" y1="401" y2="401"/>
    <line style="fill:none;stroke:rgb(0,0,0);stroke-miterlimit:10;stroke-linecap:square;" x1="382" x2="392" y1="401" y2="401"/>
    <rect height="10" style="fill:rgb(219,239,215);stroke:none;" width="30" x="394" y="397"/>
    <rect height="10" style="fill:none;stroke:rgb(64,64,64);stroke-miterlimit:10;stroke-linecap:square;" width="30" x="394" y="397"/>
    <ellipse cx="380.5" cy="401.5" rx="0.5" ry="0.5" style="fill:rgb(255,255,255);stroke:none;"/>
    <ellipse cx="380.5" cy="401.5" rx="0.5" ry="0.5" style="fill:none;stroke:rgb(0,0,0);stroke-miterlimit:10;stroke-linecap:square;"/>
    <line style="fill:none;stroke:rgb(0,0,0);stroke-miterlimit:10;stroke-linecap:square;" x1="351" x2="351" y1="399" y2="417"/>
    <line style="fill:none;stroke:rgb(0,0,0);stroke-miterlimit:10;stroke-linecap:square;" x1="351" x2="378" y1="417" y2="417"/>
    <line style="fill:none;stroke:rgb(0,0,0);stroke-miterlimit:10;stroke-linecap:square;" x1="382" x2="392" y1="417" y2="417"/>
    <rect height="10" style="fill:rgb(206,233,199);stroke:none;" width="30" x="394" y="413"/>
    <rect height="10" style="fill:none;stroke:rgb(64,64,64);stroke-miterlimit:10;stroke-linecap:square;" width="30" x="394" y="413"/>
    <ellipse cx="380.5" cy="417.5" rx="0.5" ry="0.5" style="fill:rgb(255,255,255);stroke:none;"/>
    <ellipse cx="380.5" cy="417.5" rx="0.5" ry="0.5" style="fill:none;stroke:rgb(0,0,0);stroke-miterlimit:10;stroke-linecap:square;"/>
    <line style="fill:none;stroke:rgb(0,0,0);stroke-miterlimit:10;stroke-linecap:square;" x1="351" x2="351" y1="399" y2="434"/>
    <line style="fill:none;stroke:rgb(0,0,0);stroke-miterlimit:10;stroke-linecap:square;" x1="351" x2="378" y1="434" y2="434"/>
    <line style="fill:none;stroke:rgb(0,0,0);stroke-miterlimit:10;stroke-linecap:square;" x1="382" x2="392" y1="434" y2="434"/>
    <rect height="10" style="fill:rgb(219,239,215);stroke:none;" width="30" x="394" y="430"/>
    <rect height="10" style="fill:none;stroke:rgb(64,64,64);stroke-miterlimit:10;stroke-linecap:square;" width="30" x="394" y="430"/>
    <ellipse cx="380.5" cy="434.5" rx="0.5" ry="0.5" style="fill:rgb(255,255,255);stroke:none;"/>
    <ellipse cx="380.5" cy="434.5" rx="0.5" ry="0.5" style="fill:none;stroke:rgb(0,0,0);stroke-miterlimit:10;stroke-linecap:square;"/>
    <rect height="10" style="fill:rgb(206,233,199);stroke:none;" width="30" x="336" y="388"/>
    <rect height="10" style="fill:none;stroke:rgb(64,64,64);stroke-miterlimit:10;stroke-linecap:square;" width="30" x="336" y="388"/>
    <line style="fill:none;stroke:rgb(0,0,0);stroke-miterlimit:10;stroke-linecap:square;" x1="322" x2="322" y1="341" y2="451"/>
    <line style="fill:none;stroke:rgb(0,0,0);stroke-miterlimit:10;stroke-linecap:square;" x1="322" x2="349" y1="451" y2="451"/>
    <line style="fill:none;stroke:rgb(0,0,0);stroke-miterlimit:10;stroke-linecap:square;" x1="353" x2="363" y1="451" y2="451"/>
    <line style="fill:none;stroke:rgb(0,0,0);stroke-miterlimit:10;stroke-linecap:square;" x1="397" x2="392" y1="451" y2="451"/>
    <rect height="10" style="fill:rgb(219,239,215);stroke:none;" width="30" x="394" y="447"/>
    <rect height="10" style="fill:none;stroke:rgb(64,64,64);stroke-miterlimit:10;stroke-linecap:square;" width="30" x="394" y="447"/>
    <rect height="10" style="fill:rgb(219,239,215);stroke:none;" width="30" x="365" y="447"/>
    <rect height="10" style="fill:none;stroke:rgb(64,64,64);stroke-miterlimit:10;stroke-linecap:square;" width="30" x="365" y="447"/>
    <ellipse cx="351.5" cy="451.5" rx="0.5" ry="0.5" style="fill:rgb(255,255,255);stroke:none;"/>
    <ellipse cx="351.5" cy="451.5" rx="0.5" ry="0.5" style="fill:none;stroke:rgb(0,0,0);stroke-miterlimit:10;stroke-linecap:square;"/>
    <rect height="10" style="fill:rgb(186,225,178);stroke:none;" width="30" x="307" y="330"/>
    <rect height="10" style="fill:none;stroke:rgb(64,64,64);stroke-miterlimit:10;stroke-linecap:square;" width="30" x="307" y="330"/>
    <ellipse cx="294.5" cy="334.5" rx="0.5" ry="0.5" style="fill:rgb(255,255,255);stroke:none;"/>
    <ellipse cx="294.5" cy="334.5" rx="0.5" ry="0.5" style="fill:none;stroke:rgb(0,0,0);stroke-miterlimit:10;stroke-linecap:square;"/>
    <ellipse cx="265.5" cy="334.5" rx="0.5" ry="0.5" style="fill:rgb(255,255,255);stroke:none;"/>
    <ellipse cx="265.5" cy="334.5" rx="0.5" ry="0.5" style="fill:none;stroke:rgb(0,0,0);stroke-miterlimit:10;stroke-linecap:square;"/>
    <ellipse cx="236.5" cy="334.5" rx="0.5" ry="0.5" style="fill:rgb(255,255,255);stroke:none;"/>
    <ellipse cx="236.5" cy="334.5" rx="0.5" ry="0.5" style="fill:none;stroke:rgb(0,0,0);stroke-miterlimit:10;stroke-linecap:square;"/>
    <rect height="10" style="fill:rgb(206,233,199);stroke:none;" width="30" x="192" y="271"/>
    <rect height="10" style="fill:none;stroke:rgb(64,64,64);stroke-miterlimit:10;stroke-linecap:square;" width="30" x="192" y="271"/>
    <ellipse cx="179.5" cy="275.5" rx="0.5" ry="0.5" style="fill:rgb(255,255,255);stroke:none;"/>
    <ellipse cx="179.5" cy="275.5" rx="0.5" ry="0.5" style="fill:none;stroke:rgb(0,0,0);stroke-miterlimit:10;stroke-linecap:square;"/>
    <line style="fill:none;stroke:rgb(192,192,192);stroke-miterlimit:10;stroke-linecap:square;" x1="150" x2="150" y1="324" y2="484"/>
    <line style="fill:none;stroke:rgb(192,192,192);stroke-miterlimit:10;stroke-linecap:square;" x1="150" x2="177" y1="484" y2="484"/>
    <line style="fill:none;stroke:rgb(0,0,0);stroke-miterlimit:10;stroke-linecap:square;" x1="179" x2="179" y1="482" y2="476"/>
    <line style="fill:none;stroke:rgb(0,0,0);stroke-miterlimit:10;stroke-linecap:square;" x1="179" x2="205" y1="476" y2="476"/>
    <line style="fill:none;stroke:rgb(0,0,0);stroke-miterlimit:10;stroke-linecap:square;" x1="209" x2="234" y1="476" y2="476"/>
    <line style="fill:none;stroke:rgb(0,0,0);stroke-miterlimit:10;stroke-linecap:square;" x1="238" x2="263" y1="476" y2="476"/>
    <line style="fill:none;stroke:rgb(0,0,0);stroke-miterlimit:10;stroke-linecap:square;" x1="267" x2="292" y1="476" y2="476"/>
    <line style="fill:none;stroke:rgb(0,0,0);stroke-miterlimit:10;stroke-linecap:square;" x1="296" x2="305" y1="476" y2="476"/>
    <line style="fill:none;stroke:rgb(0,0,0);stroke-miterlimit:10;stroke-linecap:square;" x1="322" x2="322" y1="469" y2="467"/>
    <line style="fill:none;stroke:rgb(0,0,0);stroke-miterlimit:10;stroke-linecap:square;" x1="322" x2="349" y1="467" y2="467"/>
    <line style="fill:none;stroke:rgb(0,0,0);stroke-miterlimit:10;stroke-linecap:square;" x1="353" x2="378" y1="467" y2="467"/>
    <line style="fill:none;stroke:rgb(0,0,0);stroke-miterlimit:10;stroke-linecap:square;" x1="382" x2="392" y1="467" y2="467"/>
    <rect height="10" style="fill:rgb(219,239,215);stroke:none;" width="30" x="394" y="463"/>
    <rect height="10" style="fill:none;stroke:rgb(64,64,64);stroke-miterlimit:10;stroke-linecap:square;" width="30" x="394" y="463"/>
    <ellipse cx="380.5" cy="467.5" rx="0.5" ry="0.5" style="fill:rgb(255,255,255);stroke:none;"/>
    <ellipse cx="380.5" cy="467.5" rx="0.5" ry="0.5" style="fill:none;stroke:rgb(0,0,0);stroke-miterlimit:10;stroke-linecap:square;"/>
    <ellipse cx="351.5" cy="467.5" rx="0.5" ry="0.5" style="fill:rgb(255,255,255);stroke:none;"/>
    <ellipse cx="351.5" cy="467.5" rx="0.5" ry="0.5" style="fill:none;stroke:rgb(0,0,0);stroke-miterlimit:10;stroke-linecap:square;"/>
    <line style="fill:none;stroke:rgb(0,0,0);stroke-miterlimit:10;stroke-linecap:square;" x1="322" x2="322" y1="483" y2="484"/>
    <line style="fill:none;stroke:rgb(0,0,0);stroke-miterlimit:10;stroke-linecap:square;" x1="322" x2="349" y1="484" y2="484"/>
    <line style="fill:none;stroke:rgb(0,0,0);stroke-miterlimit:10;stroke-linecap:square;" x1="353" x2="378" y1="484" y2="484"/>
    <line style="fill:none;stroke:rgb(0,0,0);stroke-miterlimit:10;stroke-linecap:square;" x1="382" x2="392" y1="484" y2="484"/>
    <rect height="10" style="fill:rgb(165,216,155);stroke:none;" width="30" x="394" y="480"/>
    <rect height="10" style="fill:none;stroke:rgb(64,64,64);stroke-miterlimit:10;stroke-linecap:square;" width="30" x="394" y="480"/>
    <ellipse cx="380.5" cy="484.5" rx="0.5" ry="0.5" style="fill:rgb(255,255,255);stroke:none;"/>
    <ellipse cx="380.5" cy="484.5" rx="0.5" ry="0.5" style="fill:none;stroke:rgb(0,0,0);stroke-miterlimit:10;stroke-linecap:square;"/>
    <ellipse cx="351.5" cy="484.5" rx="0.5" ry="0.5" style="fill:rgb(255,255,255);stroke:none;"/>
    <ellipse cx="351.5" cy="484.5" rx="0.5" ry="0.5" style="fill:none;stroke:rgb(0,0,0);stroke-miterlimit:10;stroke-linecap:square;"/>
    <rect height="10" style="fill:rgb(195,229,188);stroke:none;" width="30" x="307" y="472"/>
    <rect height="10" style="fill:none;stroke:rgb(64,64,64);stroke-miterlimit:10;stroke-linecap:square;" width="30" x="307" y="472"/>
    <ellipse cx="294.5" cy="476.5" rx="0.5" ry="0.5" style="fill:rgb(255,255,255);stroke:none;"/>
    <ellipse cx="294.5" cy="476.5" rx="0.5" ry="0.5" style="fill:none;stroke:rgb(0,0,0);stroke-miterlimit:10;stroke-linecap:square;"/>
    <ellipse cx="265.5" cy="476.5" rx="0.5" ry="0.5" style="fill:rgb(255,255,255);stroke:none;"/>
    <ellipse cx="265.5" cy="476.5" rx="0.5" ry="0.5" style="fill:none;stroke:rgb(0,0,0);stroke-miterlimit:10;stroke-linecap:square;"/>
    <ellipse cx="236.5" cy="476.5" rx="0.5" ry="0.5" style="fill:rgb(255,255,255);stroke:none;"/>
    <ellipse cx="236.5" cy="476.5" rx="0.5" ry="0.5" style="fill:none;stroke:rgb(0,0,0);stroke-miterlimit:10;stroke-linecap:square;"/>
    <ellipse cx="207.5" cy="476.5" rx="0.5" ry="0.5" style="fill:rgb(255,255,255);stroke:none;"/>
    <ellipse cx="207.5" cy="476.5" rx="0.5" ry="0.5" style="fill:none;stroke:rgb(0,0,0);stroke-miterlimit:10;stroke-linecap:square;"/>
    <line style="fill:none;stroke:rgb(0,0,0);stroke-miterlimit:10;stroke-linecap:square;" x1="179" x2="179" y1="486" y2="501"/>
    <line style="fill:none;stroke:rgb(0,0,0);stroke-miterlimit:10;stroke-linecap:square;" x1="179" x2="205" y1="501" y2="501"/>
    <line style="fill:none;stroke:rgb(0,0,0);stroke-miterlimit:10;stroke-linecap:square;" x1="209" x2="219" y1="501" y2="501"/>
    <rect height="10" style="fill:rgb(165,216,155);stroke:none;" width="30" x="221" y="497"/>
    <rect height="10" style="fill:none;stroke:rgb(64,64,64);stroke-miterlimit:10;stroke-linecap:square;" width="30" x="221" y="497"/>
    <ellipse cx="207.5" cy="501.5" rx="0.5" ry="0.5" style="fill:rgb(255,255,255);stroke:none;"/>
    <ellipse cx="207.5" cy="501.5" rx="0.5" ry="0.5" style="fill:none;stroke:rgb(0,0,0);stroke-miterlimit:10;stroke-linecap:square;"/>
    <ellipse cx="179.5" cy="484.5" rx="0.5" ry="0.5" style="fill:rgb(255,255,255);stroke:none;"/>
    <ellipse cx="179.5" cy="484.5" rx="0.5" ry="0.5" style="fill:none;stroke:rgb(0,0,0);stroke-miterlimit:10;stroke-linecap:square;"/>
    <line style="fill:none;stroke:rgb(192,192,192);stroke-miterlimit:10;stroke-linecap:square;" x1="150" x2="150" y1="324" y2="518"/>
    <line style="fill:none;stroke:rgb(192,192,192);stroke-miterlimit:10;stroke-linecap:square;" x1="150" x2="162" y1="518" y2="518"/>
    <rect height="10" style="fill:rgb(69,175,70);stroke:none;" width="30" x="164" y="514"/>
    <rect height="10" style="fill:none;stroke:rgb(64,64,64);stroke-miterlimit:10;stroke-linecap:square;" width="30" x="164" y="514"/>
    <line style="fill:none;stroke:rgb(192,192,192);stroke-miterlimit:10;stroke-linecap:square;" x1="150" x2="150" y1="324" y2="534"/>
    <line style="fill:none;stroke:rgb(192,192,192);stroke-miterlimit:10;stroke-linecap:square;" x1="150" x2="162" y1="534" y2="534"/>
    <rect height="10" style="fill:rgb(133,202,119);stroke:none;" width="30" x="164" y="530"/>
    <rect height="10" style="fill:none;stroke:rgb(64,64,64);stroke-miterlimit:10;stroke-linecap:square;" width="30" x="164" y="530"/>
    <rect height="10" style="fill:rgb(195,229,188);stroke:none;" width="30" x="135" y="313"/>
    <rect height="10" style="fill:none;stroke:rgb(64,64,64);stroke-miterlimit:10;stroke-linecap:square;" width="30" x="135" y="313"/>
    <text style="fill:rgb(0,0,0);stroke:none;font-family:&quot;DejaVu Sans&quot;;font-size:11px;" x="455" y="105">Bacteroides caccae; 1</text>
    <text style="fill:rgb(0,0,0);stroke:none;font-family:&quot;DejaVu Sans&quot;;font-size:11px;" x="455" y="122">Bacteroides xylanisolvens; 1</text>
    <text style="fill:rgb(0,0,0);stroke:none;font-family:&quot;DejaVu Sans&quot;;font-size:11px;" x="311" y="97">Bacteroides; 8</text>
    <text style="fill:rgb(0,0,0);stroke:none;font-family:&quot;DejaVu Sans&quot;;font-size:11px;" x="455" y="138">Phocaeicola vulgatus; 1</text>
    <text style="fill:rgb(0,0,0);stroke:none;font-family:&quot;DejaVu Sans&quot;;font-size:11px;" x="256" y="112">Bacteroidaceae; 1</text>
    <text style="fill:rgb(0,0,0);stroke:none;font-family:&quot;DejaVu Sans&quot;;font-size:11px;" x="455" y="155">Paraprevotella xylaniphila; 1</text>
    <text style="fill:rgb(0,0,0);stroke:none;font-family:&quot;DejaVu Sans&quot;;font-size:11px;" x="427" y="172">Parabacteroides; 3</text>
    <text style="fill:rgb(0,0,0);stroke:none;font-family:&quot;DejaVu Sans&quot;;font-size:11px;" x="240" y="125">Bacteroidales; 1</text>
    <text style="fill:rgb(0,0,0);stroke:none;font-family:&quot;DejaVu Sans&quot;;font-size:11px;" x="340" y="189">Neisseriaceae; 1</text>
    <text style="fill:rgb(0,0,0);stroke:none;font-family:&quot;DejaVu Sans&quot;;font-size:11px;" x="398" y="205">Escherichia coli; 1</text>
    <text style="fill:rgb(0,0,0);stroke:none;font-family:&quot;DejaVu Sans&quot;;font-size:11px;" x="129" y="189">Proteobacteria; 0</text>
    <text style="fill:rgb(0,0,0);stroke:none;font-family:&quot;DejaVu Sans&quot;;font-size:11px;" x="427" y="222">Clostridiaceae bacterium Marseille-Q4143; 1</text>
    <text style="fill:rgb(0,0,0);stroke:none;font-family:&quot;DejaVu Sans&quot;;font-size:11px;" x="427" y="239">Anaerostipes hadrus; 1</text>
    <text style="fill:rgb(0,0,0);stroke:none;font-family:&quot;DejaVu Sans&quot;;font-size:11px;" x="455" y="255">uncultured Blautia sp.; 1</text>
    <text style="fill:rgb(0,0,0);stroke:none;font-family:&quot;DejaVu Sans&quot;;font-size:11px;" x="427" y="272">Coprococcus comes; 1</text>
    <text style="fill:rgb(0,0,0);stroke:none;font-family:&quot;DejaVu Sans&quot;;font-size:11px;" x="427" y="289">[Ruminococcus] torques; 1</text>
    <text style="fill:rgb(0,0,0);stroke:none;font-family:&quot;DejaVu Sans&quot;;font-size:11px;" x="427" y="305">Roseburia intestinalis; 1</text>
    <text style="fill:rgb(0,0,0);stroke:none;font-family:&quot;DejaVu Sans&quot;;font-size:11px;" x="427" y="322">Lachnospiraceae bacterium; 2</text>
    <text style="fill:rgb(0,0,0);stroke:none;font-family:&quot;DejaVu Sans&quot;;font-size:11px;" x="427" y="339">Lachnospiraceae bacterium NSJ-29; 1</text>
    <text style="fill:rgb(0,0,0);stroke:none;font-family:&quot;DejaVu Sans&quot;;font-size:11px;" x="176" y="314">unclassified Lachnospiraceae; 1</text>
    <text style="fill:rgb(0,0,0);stroke:none;font-family:&quot;DejaVu Sans&quot;;font-size:11px;" x="219" y="273">Lachnospiraceae; 1</text>
    <text style="fill:rgb(0,0,0);stroke:none;font-family:&quot;DejaVu Sans&quot;;font-size:11px;" x="455" y="356">Dysosmobacter sp. Marseille-Q4140; 1</text>
    <text style="fill:rgb(0,0,0);stroke:none;font-family:&quot;DejaVu Sans&quot;;font-size:11px;" x="427" y="372">Faecalibacterium prausnitzii; 76</text>
    <text style="fill:rgb(0,0,0);stroke:none;font-family:&quot;DejaVu Sans&quot;;font-size:11px;" x="427" y="389">Flavonifractor plautii; 1</text>
    <text style="fill:rgb(0,0,0);stroke:none;font-family:&quot;DejaVu Sans&quot;;font-size:11px;" x="427" y="406">Pusillimonas faecalis; 1</text>
    <text style="fill:rgb(0,0,0);stroke:none;font-family:&quot;DejaVu Sans&quot;;font-size:11px;" x="427" y="422">Ruminococcus bicirculans; 2</text>
    <text style="fill:rgb(0,0,0);stroke:none;font-family:&quot;DejaVu Sans&quot;;font-size:11px;" x="427" y="439">Ruthenibacterium lactatiformans; 1</text>
    <text style="fill:rgb(0,0,0);stroke:none;font-family:&quot;DejaVu Sans&quot;;font-size:11px;" x="224" y="384">Oscillospiraceae; 2</text>
    <text style="fill:rgb(0,0,0);stroke:none;font-family:&quot;DejaVu Sans&quot;;font-size:11px;" x="427" y="456">Romboutsia ilealis; 1</text>
    <text style="fill:rgb(0,0,0);stroke:none;font-family:&quot;DejaVu Sans&quot;;font-size:11px;" x="215" y="329">Eubacteriales; 4</text>
    <text style="fill:rgb(0,0,0);stroke:none;font-family:&quot;DejaVu Sans&quot;;font-size:11px;" x="127" y="267">Bacteria; 2</text>
    <text style="fill:rgb(0,0,0);stroke:none;font-family:&quot;DejaVu Sans&quot;;font-size:11px;" x="427" y="472">Myoviridae sp.; 1</text>
    <text style="fill:rgb(0,0,0);stroke:none;font-family:&quot;DejaVu Sans&quot;;font-size:11px;" x="427" y="489">Siphoviridae sp.; 7</text>
    <text style="fill:rgb(0,0,0);stroke:none;font-family:&quot;DejaVu Sans&quot;;font-size:11px;" x="215" y="468">Caudovirales; 3</text>
    <text style="fill:rgb(0,0,0);stroke:none;font-family:&quot;DejaVu Sans&quot;;font-size:11px;" x="254" y="506">uncultured human fecal virus; 7</text>
    <text style="fill:rgb(0,0,0);stroke:none;font-family:&quot;DejaVu Sans&quot;;font-size:11px;" x="115" y="484">Viruses; 0</text>
    <text style="fill:rgb(192,192,192);stroke:none;font-family:&quot;DejaVu Sans&quot;;font-size:11px;" x="197" y="523">No hits; 29</text>
    <text style="fill:rgb(192,192,192);stroke:none;font-family:&quot;DejaVu Sans&quot;;font-size:11px;" x="197" y="539">Not assigned; 13</text>
    <text style="fill:rgb(192,192,192);stroke:none;font-family:&quot;DejaVu Sans&quot;;font-size:11px;" x="90" y="322">NCBI; 3</text>
    <text style="fill:rgb(128,128,128);stroke:none;font-family:&quot;DejaVu Sans&quot;;font-size:9px;font-style:italic;" x="634" y="544">Species</text>
  </g>
</svg>
