<?xml version="1.0" encoding="utf-8" standalone="no"?>
<!DOCTYPE svg PUBLIC "-//W3C//DTD SVG 1.1//EN"
  "http://www.w3.org/Graphics/SVG/1.1/DTD/svg11.dtd">
<svg xmlns:xlink="http://www.w3.org/1999/xlink" width="460.8pt" height="345.6pt" viewBox="0 0 460.8 345.6" xmlns="http://www.w3.org/2000/svg" version="1.1">
 <metadata>
  <rdf:RDF xmlns:dc="http://purl.org/dc/elements/1.1/" xmlns:cc="http://creativecommons.org/ns#" xmlns:rdf="http://www.w3.org/1999/02/22-rdf-syntax-ns#">
   <cc:Work>
    <dc:type rdf:resource="http://purl.org/dc/dcmitype/StillImage"/>
    <dc:date>2023-10-17T09:29:09.733067</dc:date>
    <dc:format>image/svg+xml</dc:format>
    <dc:creator>
     <cc:Agent>
      <dc:title>Matplotlib v3.6.0, https://matplotlib.org/</dc:title>
     </cc:Agent>
    </dc:creator>
   </cc:Work>
  </rdf:RDF>
 </metadata>
 <defs>
  <style type="text/css">*{stroke-linejoin: round; stroke-linecap: butt}</style>
 </defs>
 <g id="figure_1">
  <g id="patch_1">
   <path d="M 0 345.6 
L 460.8 345.6 
L 460.8 0 
L 0 0 
z
" style="fill: #ffffff"/>
  </g>
  <g id="axes_1">
   <g id="patch_2">
    <path d="M 47.81 244.996156 
L 450 244.996156 
L 450 11.427253 
L 47.81 11.427253 
z
" style="fill: #ffffff"/>
   </g>
   <g id="patch_3">
    <path d="M 54.781293 201.573283 
L 81.057707 201.573283 
L 81.057707 98.081544 
L 54.781293 98.081544 
L 54.781293 201.573283 
z
" clip-path="url(#p5a9d1b7d73)" style="fill: #df9c20; stroke: #4c4c4c; stroke-width: 1.5; stroke-linejoin: miter"/>
   </g>
   <g id="patch_4">
    <path d="M 81.59396 234.379388 
L 107.870373 234.379388 
L 107.870373 234.379388 
L 81.59396 234.379388 
L 81.59396 234.379388 
z
" clip-path="url(#p5a9d1b7d73)" style="fill: #df2020; stroke: #4c4c4c; stroke-width: 1.5; stroke-linejoin: miter"/>
   </g>
   <g id="patch_5">
    <path d="M 121.81296 180.874935 
L 148.089373 180.874935 
L 148.089373 80.322755 
L 121.81296 80.322755 
L 121.81296 180.874935 
z
" clip-path="url(#p5a9d1b7d73)" style="fill: #df9c20; stroke: #4c4c4c; stroke-width: 1.5; stroke-linejoin: miter"/>
   </g>
   <g id="patch_6">
    <path d="M 148.625627 234.379388 
L 174.90204 234.379388 
L 174.90204 213.68104 
L 148.625627 213.68104 
L 148.625627 234.379388 
z
" clip-path="url(#p5a9d1b7d73)" style="fill: #df2020; stroke: #4c4c4c; stroke-width: 1.5; stroke-linejoin: miter"/>
   </g>
   <g id="patch_7">
    <path d="M 188.844627 132.81486 
L 215.12104 132.81486 
L 215.12104 56.221872 
L 188.844627 56.221872 
L 188.844627 132.81486 
z
" clip-path="url(#p5a9d1b7d73)" style="fill: #df9c20; stroke: #4c4c4c; stroke-width: 1.5; stroke-linejoin: miter"/>
   </g>
   <g id="patch_8">
    <path d="M 215.657293 234.379388 
L 241.933707 234.379388 
L 241.933707 234.379388 
L 215.657293 234.379388 
L 215.657293 234.379388 
z
" clip-path="url(#p5a9d1b7d73)" style="fill: #df2020; stroke: #4c4c4c; stroke-width: 1.5; stroke-linejoin: miter"/>
   </g>
   <g id="patch_9">
    <path d="M 255.876293 146.454307 
L 282.152707 146.454307 
L 282.152707 51.553159 
L 255.876293 51.553159 
L 255.876293 146.454307 
z
" clip-path="url(#p5a9d1b7d73)" style="fill: #df9c20; stroke: #4c4c4c; stroke-width: 1.5; stroke-linejoin: miter"/>
   </g>
   <g id="patch_10">
    <path d="M 282.68896 234.379388 
L 308.965373 234.379388 
L 308.965373 201.573283 
L 282.68896 201.573283 
L 282.68896 234.379388 
z
" clip-path="url(#p5a9d1b7d73)" style="fill: #df2020; stroke: #4c4c4c; stroke-width: 1.5; stroke-linejoin: miter"/>
   </g>
   <g id="patch_11">
    <path d="M 322.90796 148.06883 
L 349.184373 148.06883 
L 349.184373 50.777495 
L 322.90796 50.777495 
L 322.90796 148.06883 
z
" clip-path="url(#p5a9d1b7d73)" style="fill: #df9c20; stroke: #4c4c4c; stroke-width: 1.5; stroke-linejoin: miter"/>
   </g>
   <g id="patch_12">
    <path d="M 349.720627 213.68104 
L 375.99704 213.68104 
L 375.99704 165.620965 
L 349.720627 165.620965 
L 349.720627 213.68104 
z
" clip-path="url(#p5a9d1b7d73)" style="fill: #df2020; stroke: #4c4c4c; stroke-width: 1.5; stroke-linejoin: miter"/>
   </g>
   <g id="patch_13">
    <path d="M 389.939627 213.68104 
L 416.21604 213.68104 
L 416.21604 107.513357 
L 389.939627 107.513357 
L 389.939627 213.68104 
z
" clip-path="url(#p5a9d1b7d73)" style="fill: #df9c20; stroke: #4c4c4c; stroke-width: 1.5; stroke-linejoin: miter"/>
   </g>
   <g id="patch_14">
    <path d="M 416.752293 234.379388 
L 443.028707 234.379388 
L 443.028707 213.68104 
L 416.752293 213.68104 
L 416.752293 234.379388 
z
" clip-path="url(#p5a9d1b7d73)" style="fill: #df2020; stroke: #4c4c4c; stroke-width: 1.5; stroke-linejoin: miter"/>
   </g>
   <g id="patch_15">
    <path d="M 81.325833 234.379388 
L 81.325833 234.379388 
L 81.325833 234.379388 
L 81.325833 234.379388 
z
" clip-path="url(#p5a9d1b7d73)" style="fill: #df9c20; stroke: #4c4c4c; stroke-width: 0.75; stroke-linejoin: miter"/>
   </g>
   <g id="patch_16">
    <path d="M 81.325833 234.379388 
L 81.325833 234.379388 
L 81.325833 234.379388 
L 81.325833 234.379388 
z
" clip-path="url(#p5a9d1b7d73)" style="fill: #df2020; stroke: #4c4c4c; stroke-width: 0.75; stroke-linejoin: miter"/>
   </g>
   <g id="matplotlib.axis_1">
    <g id="xtick_1">
     <g id="line2d_1">
      <defs>
       <path id="m2f7c382ddb" d="M 0 0 
L 0 3.5 
" style="stroke: #000000; stroke-width: 0.8"/>
      </defs>
      <g>
       <use xlink:href="#m2f7c382ddb" x="81.325833" y="244.996156" style="stroke: #000000; stroke-width: 0.8"/>
      </g>
     </g>
     <g id="text_1">
      <!-- AMP_138200_c2_g1_i1 -->
      <g transform="translate(34.337918 333.591613) rotate(-60) scale(0.08 -0.08)">
       <defs>
        <path id="DejaVuSans-41" d="M 2188 4044 
L 1331 1722 
L 3047 1722 
L 2188 4044 
z
M 1831 4666 
L 2547 4666 
L 4325 0 
L 3669 0 
L 3244 1197 
L 1141 1197 
L 716 0 
L 50 0 
L 1831 4666 
z
" transform="scale(0.015625)"/>
        <path id="DejaVuSans-4d" d="M 628 4666 
L 1569 4666 
L 2759 1491 
L 3956 4666 
L 4897 4666 
L 4897 0 
L 4281 0 
L 4281 4097 
L 3078 897 
L 2444 897 
L 1241 4097 
L 1241 0 
L 628 0 
L 628 4666 
z
" transform="scale(0.015625)"/>
        <path id="DejaVuSans-50" d="M 1259 4147 
L 1259 2394 
L 2053 2394 
Q 2494 2394 2734 2622 
Q 2975 2850 2975 3272 
Q 2975 3691 2734 3919 
Q 2494 4147 2053 4147 
L 1259 4147 
z
M 628 4666 
L 2053 4666 
Q 2838 4666 3239 4311 
Q 3641 3956 3641 3272 
Q 3641 2581 3239 2228 
Q 2838 1875 2053 1875 
L 1259 1875 
L 1259 0 
L 628 0 
L 628 4666 
z
" transform="scale(0.015625)"/>
        <path id="DejaVuSans-5f" d="M 3263 -1063 
L 3263 -1509 
L -63 -1509 
L -63 -1063 
L 3263 -1063 
z
" transform="scale(0.015625)"/>
        <path id="DejaVuSans-31" d="M 794 531 
L 1825 531 
L 1825 4091 
L 703 3866 
L 703 4441 
L 1819 4666 
L 2450 4666 
L 2450 531 
L 3481 531 
L 3481 0 
L 794 0 
L 794 531 
z
" transform="scale(0.015625)"/>
        <path id="DejaVuSans-33" d="M 2597 2516 
Q 3050 2419 3304 2112 
Q 3559 1806 3559 1356 
Q 3559 666 3084 287 
Q 2609 -91 1734 -91 
Q 1441 -91 1130 -33 
Q 819 25 488 141 
L 488 750 
Q 750 597 1062 519 
Q 1375 441 1716 441 
Q 2309 441 2620 675 
Q 2931 909 2931 1356 
Q 2931 1769 2642 2001 
Q 2353 2234 1838 2234 
L 1294 2234 
L 1294 2753 
L 1863 2753 
Q 2328 2753 2575 2939 
Q 2822 3125 2822 3475 
Q 2822 3834 2567 4026 
Q 2313 4219 1838 4219 
Q 1578 4219 1281 4162 
Q 984 4106 628 3988 
L 628 4550 
Q 988 4650 1302 4700 
Q 1616 4750 1894 4750 
Q 2613 4750 3031 4423 
Q 3450 4097 3450 3541 
Q 3450 3153 3228 2886 
Q 3006 2619 2597 2516 
z
" transform="scale(0.015625)"/>
        <path id="DejaVuSans-38" d="M 2034 2216 
Q 1584 2216 1326 1975 
Q 1069 1734 1069 1313 
Q 1069 891 1326 650 
Q 1584 409 2034 409 
Q 2484 409 2743 651 
Q 3003 894 3003 1313 
Q 3003 1734 2745 1975 
Q 2488 2216 2034 2216 
z
M 1403 2484 
Q 997 2584 770 2862 
Q 544 3141 544 3541 
Q 544 4100 942 4425 
Q 1341 4750 2034 4750 
Q 2731 4750 3128 4425 
Q 3525 4100 3525 3541 
Q 3525 3141 3298 2862 
Q 3072 2584 2669 2484 
Q 3125 2378 3379 2068 
Q 3634 1759 3634 1313 
Q 3634 634 3220 271 
Q 2806 -91 2034 -91 
Q 1263 -91 848 271 
Q 434 634 434 1313 
Q 434 1759 690 2068 
Q 947 2378 1403 2484 
z
M 1172 3481 
Q 1172 3119 1398 2916 
Q 1625 2713 2034 2713 
Q 2441 2713 2670 2916 
Q 2900 3119 2900 3481 
Q 2900 3844 2670 4047 
Q 2441 4250 2034 4250 
Q 1625 4250 1398 4047 
Q 1172 3844 1172 3481 
z
" transform="scale(0.015625)"/>
        <path id="DejaVuSans-32" d="M 1228 531 
L 3431 531 
L 3431 0 
L 469 0 
L 469 531 
Q 828 903 1448 1529 
Q 2069 2156 2228 2338 
Q 2531 2678 2651 2914 
Q 2772 3150 2772 3378 
Q 2772 3750 2511 3984 
Q 2250 4219 1831 4219 
Q 1534 4219 1204 4116 
Q 875 4013 500 3803 
L 500 4441 
Q 881 4594 1212 4672 
Q 1544 4750 1819 4750 
Q 2544 4750 2975 4387 
Q 3406 4025 3406 3419 
Q 3406 3131 3298 2873 
Q 3191 2616 2906 2266 
Q 2828 2175 2409 1742 
Q 1991 1309 1228 531 
z
" transform="scale(0.015625)"/>
        <path id="DejaVuSans-30" d="M 2034 4250 
Q 1547 4250 1301 3770 
Q 1056 3291 1056 2328 
Q 1056 1369 1301 889 
Q 1547 409 2034 409 
Q 2525 409 2770 889 
Q 3016 1369 3016 2328 
Q 3016 3291 2770 3770 
Q 2525 4250 2034 4250 
z
M 2034 4750 
Q 2819 4750 3233 4129 
Q 3647 3509 3647 2328 
Q 3647 1150 3233 529 
Q 2819 -91 2034 -91 
Q 1250 -91 836 529 
Q 422 1150 422 2328 
Q 422 3509 836 4129 
Q 1250 4750 2034 4750 
z
" transform="scale(0.015625)"/>
        <path id="DejaVuSans-63" d="M 3122 3366 
L 3122 2828 
Q 2878 2963 2633 3030 
Q 2388 3097 2138 3097 
Q 1578 3097 1268 2742 
Q 959 2388 959 1747 
Q 959 1106 1268 751 
Q 1578 397 2138 397 
Q 2388 397 2633 464 
Q 2878 531 3122 666 
L 3122 134 
Q 2881 22 2623 -34 
Q 2366 -91 2075 -91 
Q 1284 -91 818 406 
Q 353 903 353 1747 
Q 353 2603 823 3093 
Q 1294 3584 2113 3584 
Q 2378 3584 2631 3529 
Q 2884 3475 3122 3366 
z
" transform="scale(0.015625)"/>
        <path id="DejaVuSans-67" d="M 2906 1791 
Q 2906 2416 2648 2759 
Q 2391 3103 1925 3103 
Q 1463 3103 1205 2759 
Q 947 2416 947 1791 
Q 947 1169 1205 825 
Q 1463 481 1925 481 
Q 2391 481 2648 825 
Q 2906 1169 2906 1791 
z
M 3481 434 
Q 3481 -459 3084 -895 
Q 2688 -1331 1869 -1331 
Q 1566 -1331 1297 -1286 
Q 1028 -1241 775 -1147 
L 775 -588 
Q 1028 -725 1275 -790 
Q 1522 -856 1778 -856 
Q 2344 -856 2625 -561 
Q 2906 -266 2906 331 
L 2906 616 
Q 2728 306 2450 153 
Q 2172 0 1784 0 
Q 1141 0 747 490 
Q 353 981 353 1791 
Q 353 2603 747 3093 
Q 1141 3584 1784 3584 
Q 2172 3584 2450 3431 
Q 2728 3278 2906 2969 
L 2906 3500 
L 3481 3500 
L 3481 434 
z
" transform="scale(0.015625)"/>
        <path id="DejaVuSans-69" d="M 603 3500 
L 1178 3500 
L 1178 0 
L 603 0 
L 603 3500 
z
M 603 4863 
L 1178 4863 
L 1178 4134 
L 603 4134 
L 603 4863 
z
" transform="scale(0.015625)"/>
       </defs>
       <use xlink:href="#DejaVuSans-41"/>
       <use xlink:href="#DejaVuSans-4d" x="68.408203"/>
       <use xlink:href="#DejaVuSans-50" x="154.6875"/>
       <use xlink:href="#DejaVuSans-5f" x="214.990234"/>
       <use xlink:href="#DejaVuSans-31" x="264.990234"/>
       <use xlink:href="#DejaVuSans-33" x="328.613281"/>
       <use xlink:href="#DejaVuSans-38" x="392.236328"/>
       <use xlink:href="#DejaVuSans-32" x="455.859375"/>
       <use xlink:href="#DejaVuSans-30" x="519.482422"/>
       <use xlink:href="#DejaVuSans-30" x="583.105469"/>
       <use xlink:href="#DejaVuSans-5f" x="646.728516"/>
       <use xlink:href="#DejaVuSans-63" x="696.728516"/>
       <use xlink:href="#DejaVuSans-32" x="751.708984"/>
       <use xlink:href="#DejaVuSans-5f" x="815.332031"/>
       <use xlink:href="#DejaVuSans-67" x="865.332031"/>
       <use xlink:href="#DejaVuSans-31" x="928.808594"/>
       <use xlink:href="#DejaVuSans-5f" x="992.431641"/>
       <use xlink:href="#DejaVuSans-69" x="1042.431641"/>
       <use xlink:href="#DejaVuSans-31" x="1070.214844"/>
      </g>
     </g>
    </g>
    <g id="xtick_2">
     <g id="line2d_2">
      <g>
       <use xlink:href="#m2f7c382ddb" x="148.3575" y="244.996156" style="stroke: #000000; stroke-width: 0.8"/>
      </g>
     </g>
     <g id="text_2">
      <!-- AMP_143020_c3_g1_i1 -->
      <g transform="translate(101.369585 333.591613) rotate(-60) scale(0.08 -0.08)">
       <defs>
        <path id="DejaVuSans-34" d="M 2419 4116 
L 825 1625 
L 2419 1625 
L 2419 4116 
z
M 2253 4666 
L 3047 4666 
L 3047 1625 
L 3713 1625 
L 3713 1100 
L 3047 1100 
L 3047 0 
L 2419 0 
L 2419 1100 
L 313 1100 
L 313 1709 
L 2253 4666 
z
" transform="scale(0.015625)"/>
       </defs>
       <use xlink:href="#DejaVuSans-41"/>
       <use xlink:href="#DejaVuSans-4d" x="68.408203"/>
       <use xlink:href="#DejaVuSans-50" x="154.6875"/>
       <use xlink:href="#DejaVuSans-5f" x="214.990234"/>
       <use xlink:href="#DejaVuSans-31" x="264.990234"/>
       <use xlink:href="#DejaVuSans-34" x="328.613281"/>
       <use xlink:href="#DejaVuSans-33" x="392.236328"/>
       <use xlink:href="#DejaVuSans-30" x="455.859375"/>
       <use xlink:href="#DejaVuSans-32" x="519.482422"/>
       <use xlink:href="#DejaVuSans-30" x="583.105469"/>
       <use xlink:href="#DejaVuSans-5f" x="646.728516"/>
       <use xlink:href="#DejaVuSans-63" x="696.728516"/>
       <use xlink:href="#DejaVuSans-33" x="751.708984"/>
       <use xlink:href="#DejaVuSans-5f" x="815.332031"/>
       <use xlink:href="#DejaVuSans-67" x="865.332031"/>
       <use xlink:href="#DejaVuSans-31" x="928.808594"/>
       <use xlink:href="#DejaVuSans-5f" x="992.431641"/>
       <use xlink:href="#DejaVuSans-69" x="1042.431641"/>
       <use xlink:href="#DejaVuSans-31" x="1070.214844"/>
      </g>
     </g>
    </g>
    <g id="xtick_3">
     <g id="line2d_3">
      <g>
       <use xlink:href="#m2f7c382ddb" x="215.389167" y="244.996156" style="stroke: #000000; stroke-width: 0.8"/>
      </g>
     </g>
     <g id="text_3">
      <!-- AMP_144897_c3_g1_i5 -->
      <g transform="translate(168.401251 333.591613) rotate(-60) scale(0.08 -0.08)">
       <defs>
        <path id="DejaVuSans-39" d="M 703 97 
L 703 672 
Q 941 559 1184 500 
Q 1428 441 1663 441 
Q 2288 441 2617 861 
Q 2947 1281 2994 2138 
Q 2813 1869 2534 1725 
Q 2256 1581 1919 1581 
Q 1219 1581 811 2004 
Q 403 2428 403 3163 
Q 403 3881 828 4315 
Q 1253 4750 1959 4750 
Q 2769 4750 3195 4129 
Q 3622 3509 3622 2328 
Q 3622 1225 3098 567 
Q 2575 -91 1691 -91 
Q 1453 -91 1209 -44 
Q 966 3 703 97 
z
M 1959 2075 
Q 2384 2075 2632 2365 
Q 2881 2656 2881 3163 
Q 2881 3666 2632 3958 
Q 2384 4250 1959 4250 
Q 1534 4250 1286 3958 
Q 1038 3666 1038 3163 
Q 1038 2656 1286 2365 
Q 1534 2075 1959 2075 
z
" transform="scale(0.015625)"/>
        <path id="DejaVuSans-37" d="M 525 4666 
L 3525 4666 
L 3525 4397 
L 1831 0 
L 1172 0 
L 2766 4134 
L 525 4134 
L 525 4666 
z
" transform="scale(0.015625)"/>
        <path id="DejaVuSans-35" d="M 691 4666 
L 3169 4666 
L 3169 4134 
L 1269 4134 
L 1269 2991 
Q 1406 3038 1543 3061 
Q 1681 3084 1819 3084 
Q 2600 3084 3056 2656 
Q 3513 2228 3513 1497 
Q 3513 744 3044 326 
Q 2575 -91 1722 -91 
Q 1428 -91 1123 -41 
Q 819 9 494 109 
L 494 744 
Q 775 591 1075 516 
Q 1375 441 1709 441 
Q 2250 441 2565 725 
Q 2881 1009 2881 1497 
Q 2881 1984 2565 2268 
Q 2250 2553 1709 2553 
Q 1456 2553 1204 2497 
Q 953 2441 691 2322 
L 691 4666 
z
" transform="scale(0.015625)"/>
       </defs>
       <use xlink:href="#DejaVuSans-41"/>
       <use xlink:href="#DejaVuSans-4d" x="68.408203"/>
       <use xlink:href="#DejaVuSans-50" x="154.6875"/>
       <use xlink:href="#DejaVuSans-5f" x="214.990234"/>
       <use xlink:href="#DejaVuSans-31" x="264.990234"/>
       <use xlink:href="#DejaVuSans-34" x="328.613281"/>
       <use xlink:href="#DejaVuSans-34" x="392.236328"/>
       <use xlink:href="#DejaVuSans-38" x="455.859375"/>
       <use xlink:href="#DejaVuSans-39" x="519.482422"/>
       <use xlink:href="#DejaVuSans-37" x="583.105469"/>
       <use xlink:href="#DejaVuSans-5f" x="646.728516"/>
       <use xlink:href="#DejaVuSans-63" x="696.728516"/>
       <use xlink:href="#DejaVuSans-33" x="751.708984"/>
       <use xlink:href="#DejaVuSans-5f" x="815.332031"/>
       <use xlink:href="#DejaVuSans-67" x="865.332031"/>
       <use xlink:href="#DejaVuSans-31" x="928.808594"/>
       <use xlink:href="#DejaVuSans-5f" x="992.431641"/>
       <use xlink:href="#DejaVuSans-69" x="1042.431641"/>
       <use xlink:href="#DejaVuSans-35" x="1070.214844"/>
      </g>
     </g>
    </g>
    <g id="xtick_4">
     <g id="line2d_4">
      <g>
       <use xlink:href="#m2f7c382ddb" x="282.420833" y="244.996156" style="stroke: #000000; stroke-width: 0.8"/>
      </g>
     </g>
     <g id="text_4">
      <!-- AMP_143683_c0_g2_i1 -->
      <g transform="translate(235.432918 333.591613) rotate(-60) scale(0.08 -0.08)">
       <defs>
        <path id="DejaVuSans-36" d="M 2113 2584 
Q 1688 2584 1439 2293 
Q 1191 2003 1191 1497 
Q 1191 994 1439 701 
Q 1688 409 2113 409 
Q 2538 409 2786 701 
Q 3034 994 3034 1497 
Q 3034 2003 2786 2293 
Q 2538 2584 2113 2584 
z
M 3366 4563 
L 3366 3988 
Q 3128 4100 2886 4159 
Q 2644 4219 2406 4219 
Q 1781 4219 1451 3797 
Q 1122 3375 1075 2522 
Q 1259 2794 1537 2939 
Q 1816 3084 2150 3084 
Q 2853 3084 3261 2657 
Q 3669 2231 3669 1497 
Q 3669 778 3244 343 
Q 2819 -91 2113 -91 
Q 1303 -91 875 529 
Q 447 1150 447 2328 
Q 447 3434 972 4092 
Q 1497 4750 2381 4750 
Q 2619 4750 2861 4703 
Q 3103 4656 3366 4563 
z
" transform="scale(0.015625)"/>
       </defs>
       <use xlink:href="#DejaVuSans-41"/>
       <use xlink:href="#DejaVuSans-4d" x="68.408203"/>
       <use xlink:href="#DejaVuSans-50" x="154.6875"/>
       <use xlink:href="#DejaVuSans-5f" x="214.990234"/>
       <use xlink:href="#DejaVuSans-31" x="264.990234"/>
       <use xlink:href="#DejaVuSans-34" x="328.613281"/>
       <use xlink:href="#DejaVuSans-33" x="392.236328"/>
       <use xlink:href="#DejaVuSans-36" x="455.859375"/>
       <use xlink:href="#DejaVuSans-38" x="519.482422"/>
       <use xlink:href="#DejaVuSans-33" x="583.105469"/>
       <use xlink:href="#DejaVuSans-5f" x="646.728516"/>
       <use xlink:href="#DejaVuSans-63" x="696.728516"/>
       <use xlink:href="#DejaVuSans-30" x="751.708984"/>
       <use xlink:href="#DejaVuSans-5f" x="815.332031"/>
       <use xlink:href="#DejaVuSans-67" x="865.332031"/>
       <use xlink:href="#DejaVuSans-32" x="928.808594"/>
       <use xlink:href="#DejaVuSans-5f" x="992.431641"/>
       <use xlink:href="#DejaVuSans-69" x="1042.431641"/>
       <use xlink:href="#DejaVuSans-31" x="1070.214844"/>
      </g>
     </g>
    </g>
    <g id="xtick_5">
     <g id="line2d_5">
      <g>
       <use xlink:href="#m2f7c382ddb" x="349.4525" y="244.996156" style="stroke: #000000; stroke-width: 0.8"/>
      </g>
     </g>
     <g id="text_5">
      <!-- AMP_141075_c3_g1_i1 -->
      <g transform="translate(302.464585 333.591613) rotate(-60) scale(0.08 -0.08)">
       <use xlink:href="#DejaVuSans-41"/>
       <use xlink:href="#DejaVuSans-4d" x="68.408203"/>
       <use xlink:href="#DejaVuSans-50" x="154.6875"/>
       <use xlink:href="#DejaVuSans-5f" x="214.990234"/>
       <use xlink:href="#DejaVuSans-31" x="264.990234"/>
       <use xlink:href="#DejaVuSans-34" x="328.613281"/>
       <use xlink:href="#DejaVuSans-31" x="392.236328"/>
       <use xlink:href="#DejaVuSans-30" x="455.859375"/>
       <use xlink:href="#DejaVuSans-37" x="519.482422"/>
       <use xlink:href="#DejaVuSans-35" x="583.105469"/>
       <use xlink:href="#DejaVuSans-5f" x="646.728516"/>
       <use xlink:href="#DejaVuSans-63" x="696.728516"/>
       <use xlink:href="#DejaVuSans-33" x="751.708984"/>
       <use xlink:href="#DejaVuSans-5f" x="815.332031"/>
       <use xlink:href="#DejaVuSans-67" x="865.332031"/>
       <use xlink:href="#DejaVuSans-31" x="928.808594"/>
       <use xlink:href="#DejaVuSans-5f" x="992.431641"/>
       <use xlink:href="#DejaVuSans-69" x="1042.431641"/>
       <use xlink:href="#DejaVuSans-31" x="1070.214844"/>
      </g>
     </g>
    </g>
    <g id="xtick_6">
     <g id="line2d_6">
      <g>
       <use xlink:href="#m2f7c382ddb" x="416.484167" y="244.996156" style="stroke: #000000; stroke-width: 0.8"/>
      </g>
     </g>
     <g id="text_6">
      <!-- AMP_385865_c1_g1_i1 -->
      <g transform="translate(369.496251 333.591613) rotate(-60) scale(0.08 -0.08)">
       <use xlink:href="#DejaVuSans-41"/>
       <use xlink:href="#DejaVuSans-4d" x="68.408203"/>
       <use xlink:href="#DejaVuSans-50" x="154.6875"/>
       <use xlink:href="#DejaVuSans-5f" x="214.990234"/>
       <use xlink:href="#DejaVuSans-33" x="264.990234"/>
       <use xlink:href="#DejaVuSans-38" x="328.613281"/>
       <use xlink:href="#DejaVuSans-35" x="392.236328"/>
       <use xlink:href="#DejaVuSans-38" x="455.859375"/>
       <use xlink:href="#DejaVuSans-36" x="519.482422"/>
       <use xlink:href="#DejaVuSans-35" x="583.105469"/>
       <use xlink:href="#DejaVuSans-5f" x="646.728516"/>
       <use xlink:href="#DejaVuSans-63" x="696.728516"/>
       <use xlink:href="#DejaVuSans-31" x="751.708984"/>
       <use xlink:href="#DejaVuSans-5f" x="815.332031"/>
       <use xlink:href="#DejaVuSans-67" x="865.332031"/>
       <use xlink:href="#DejaVuSans-31" x="928.808594"/>
       <use xlink:href="#DejaVuSans-5f" x="992.431641"/>
       <use xlink:href="#DejaVuSans-69" x="1042.431641"/>
       <use xlink:href="#DejaVuSans-31" x="1070.214844"/>
      </g>
     </g>
    </g>
   </g>
   <g id="matplotlib.axis_2">
    <g id="ytick_1">
     <g id="line2d_7">
      <defs>
       <path id="mab5f32e55a" d="M 0 0 
L -3.5 0 
" style="stroke: #000000; stroke-width: 0.8"/>
      </defs>
      <g>
       <use xlink:href="#mab5f32e55a" x="47.81" y="234.379388" style="stroke: #000000; stroke-width: 0.8"/>
      </g>
     </g>
     <g id="text_7">
      <!-- 0.0 -->
      <g transform="translate(24.906875 238.178607) scale(0.1 -0.1)">
       <defs>
        <path id="DejaVuSans-2e" d="M 684 794 
L 1344 794 
L 1344 0 
L 684 0 
L 684 794 
z
" transform="scale(0.015625)"/>
       </defs>
       <use xlink:href="#DejaVuSans-30"/>
       <use xlink:href="#DejaVuSans-2e" x="63.623047"/>
       <use xlink:href="#DejaVuSans-30" x="95.410156"/>
      </g>
     </g>
    </g>
    <g id="ytick_2">
     <g id="line2d_8">
      <g>
       <use xlink:href="#mab5f32e55a" x="47.81" y="206.876019" style="stroke: #000000; stroke-width: 0.8"/>
      </g>
     </g>
     <g id="text_8">
      <!-- 0.2 -->
      <g transform="translate(24.906875 210.675238) scale(0.1 -0.1)">
       <use xlink:href="#DejaVuSans-30"/>
       <use xlink:href="#DejaVuSans-2e" x="63.623047"/>
       <use xlink:href="#DejaVuSans-32" x="95.410156"/>
      </g>
     </g>
    </g>
    <g id="ytick_3">
     <g id="line2d_9">
      <g>
       <use xlink:href="#mab5f32e55a" x="47.81" y="179.37265" style="stroke: #000000; stroke-width: 0.8"/>
      </g>
     </g>
     <g id="text_9">
      <!-- 0.4 -->
      <g transform="translate(24.906875 183.171868) scale(0.1 -0.1)">
       <use xlink:href="#DejaVuSans-30"/>
       <use xlink:href="#DejaVuSans-2e" x="63.623047"/>
       <use xlink:href="#DejaVuSans-34" x="95.410156"/>
      </g>
     </g>
    </g>
    <g id="ytick_4">
     <g id="line2d_10">
      <g>
       <use xlink:href="#mab5f32e55a" x="47.81" y="151.869281" style="stroke: #000000; stroke-width: 0.8"/>
      </g>
     </g>
     <g id="text_10">
      <!-- 0.6 -->
      <g transform="translate(24.906875 155.668499) scale(0.1 -0.1)">
       <use xlink:href="#DejaVuSans-30"/>
       <use xlink:href="#DejaVuSans-2e" x="63.623047"/>
       <use xlink:href="#DejaVuSans-36" x="95.410156"/>
      </g>
     </g>
    </g>
    <g id="ytick_5">
     <g id="line2d_11">
      <g>
       <use xlink:href="#mab5f32e55a" x="47.81" y="124.365911" style="stroke: #000000; stroke-width: 0.8"/>
      </g>
     </g>
     <g id="text_11">
      <!-- 0.8 -->
      <g transform="translate(24.906875 128.16513) scale(0.1 -0.1)">
       <use xlink:href="#DejaVuSans-30"/>
       <use xlink:href="#DejaVuSans-2e" x="63.623047"/>
       <use xlink:href="#DejaVuSans-38" x="95.410156"/>
      </g>
     </g>
    </g>
    <g id="ytick_6">
     <g id="line2d_12">
      <g>
       <use xlink:href="#mab5f32e55a" x="47.81" y="96.862542" style="stroke: #000000; stroke-width: 0.8"/>
      </g>
     </g>
     <g id="text_12">
      <!-- 1.0 -->
      <g transform="translate(24.906875 100.661761) scale(0.1 -0.1)">
       <use xlink:href="#DejaVuSans-31"/>
       <use xlink:href="#DejaVuSans-2e" x="63.623047"/>
       <use xlink:href="#DejaVuSans-30" x="95.410156"/>
      </g>
     </g>
    </g>
    <g id="ytick_7">
     <g id="line2d_13">
      <g>
       <use xlink:href="#mab5f32e55a" x="47.81" y="69.359173" style="stroke: #000000; stroke-width: 0.8"/>
      </g>
     </g>
     <g id="text_13">
      <!-- 1.2 -->
      <g transform="translate(24.906875 73.158392) scale(0.1 -0.1)">
       <use xlink:href="#DejaVuSans-31"/>
       <use xlink:href="#DejaVuSans-2e" x="63.623047"/>
       <use xlink:href="#DejaVuSans-32" x="95.410156"/>
      </g>
     </g>
    </g>
    <g id="ytick_8">
     <g id="line2d_14">
      <g>
       <use xlink:href="#mab5f32e55a" x="47.81" y="41.855804" style="stroke: #000000; stroke-width: 0.8"/>
      </g>
     </g>
     <g id="text_14">
      <!-- 1.4 -->
      <g transform="translate(24.906875 45.655023) scale(0.1 -0.1)">
       <use xlink:href="#DejaVuSans-31"/>
       <use xlink:href="#DejaVuSans-2e" x="63.623047"/>
       <use xlink:href="#DejaVuSans-34" x="95.410156"/>
      </g>
     </g>
    </g>
    <g id="ytick_9">
     <g id="line2d_15">
      <g>
       <use xlink:href="#mab5f32e55a" x="47.81" y="14.352435" style="stroke: #000000; stroke-width: 0.8"/>
      </g>
     </g>
     <g id="text_15">
      <!-- 1.6 -->
      <g transform="translate(24.906875 18.151654) scale(0.1 -0.1)">
       <use xlink:href="#DejaVuSans-31"/>
       <use xlink:href="#DejaVuSans-2e" x="63.623047"/>
       <use xlink:href="#DejaVuSans-36" x="95.410156"/>
      </g>
     </g>
    </g>
    <g id="text_16">
     <!-- log10 Abundance -->
     <g transform="translate(18.827188 171.950767) rotate(-90) scale(0.1 -0.1)">
      <defs>
       <path id="DejaVuSans-6c" d="M 603 4863 
L 1178 4863 
L 1178 0 
L 603 0 
L 603 4863 
z
" transform="scale(0.015625)"/>
       <path id="DejaVuSans-6f" d="M 1959 3097 
Q 1497 3097 1228 2736 
Q 959 2375 959 1747 
Q 959 1119 1226 758 
Q 1494 397 1959 397 
Q 2419 397 2687 759 
Q 2956 1122 2956 1747 
Q 2956 2369 2687 2733 
Q 2419 3097 1959 3097 
z
M 1959 3584 
Q 2709 3584 3137 3096 
Q 3566 2609 3566 1747 
Q 3566 888 3137 398 
Q 2709 -91 1959 -91 
Q 1206 -91 779 398 
Q 353 888 353 1747 
Q 353 2609 779 3096 
Q 1206 3584 1959 3584 
z
" transform="scale(0.015625)"/>
       <path id="DejaVuSans-20" transform="scale(0.015625)"/>
       <path id="DejaVuSans-62" d="M 3116 1747 
Q 3116 2381 2855 2742 
Q 2594 3103 2138 3103 
Q 1681 3103 1420 2742 
Q 1159 2381 1159 1747 
Q 1159 1113 1420 752 
Q 1681 391 2138 391 
Q 2594 391 2855 752 
Q 3116 1113 3116 1747 
z
M 1159 2969 
Q 1341 3281 1617 3432 
Q 1894 3584 2278 3584 
Q 2916 3584 3314 3078 
Q 3713 2572 3713 1747 
Q 3713 922 3314 415 
Q 2916 -91 2278 -91 
Q 1894 -91 1617 61 
Q 1341 213 1159 525 
L 1159 0 
L 581 0 
L 581 4863 
L 1159 4863 
L 1159 2969 
z
" transform="scale(0.015625)"/>
       <path id="DejaVuSans-75" d="M 544 1381 
L 544 3500 
L 1119 3500 
L 1119 1403 
Q 1119 906 1312 657 
Q 1506 409 1894 409 
Q 2359 409 2629 706 
Q 2900 1003 2900 1516 
L 2900 3500 
L 3475 3500 
L 3475 0 
L 2900 0 
L 2900 538 
Q 2691 219 2414 64 
Q 2138 -91 1772 -91 
Q 1169 -91 856 284 
Q 544 659 544 1381 
z
M 1991 3584 
L 1991 3584 
z
" transform="scale(0.015625)"/>
       <path id="DejaVuSans-6e" d="M 3513 2113 
L 3513 0 
L 2938 0 
L 2938 2094 
Q 2938 2591 2744 2837 
Q 2550 3084 2163 3084 
Q 1697 3084 1428 2787 
Q 1159 2491 1159 1978 
L 1159 0 
L 581 0 
L 581 3500 
L 1159 3500 
L 1159 2956 
Q 1366 3272 1645 3428 
Q 1925 3584 2291 3584 
Q 2894 3584 3203 3211 
Q 3513 2838 3513 2113 
z
" transform="scale(0.015625)"/>
       <path id="DejaVuSans-64" d="M 2906 2969 
L 2906 4863 
L 3481 4863 
L 3481 0 
L 2906 0 
L 2906 525 
Q 2725 213 2448 61 
Q 2172 -91 1784 -91 
Q 1150 -91 751 415 
Q 353 922 353 1747 
Q 353 2572 751 3078 
Q 1150 3584 1784 3584 
Q 2172 3584 2448 3432 
Q 2725 3281 2906 2969 
z
M 947 1747 
Q 947 1113 1208 752 
Q 1469 391 1925 391 
Q 2381 391 2643 752 
Q 2906 1113 2906 1747 
Q 2906 2381 2643 2742 
Q 2381 3103 1925 3103 
Q 1469 3103 1208 2742 
Q 947 2381 947 1747 
z
" transform="scale(0.015625)"/>
       <path id="DejaVuSans-61" d="M 2194 1759 
Q 1497 1759 1228 1600 
Q 959 1441 959 1056 
Q 959 750 1161 570 
Q 1363 391 1709 391 
Q 2188 391 2477 730 
Q 2766 1069 2766 1631 
L 2766 1759 
L 2194 1759 
z
M 3341 1997 
L 3341 0 
L 2766 0 
L 2766 531 
Q 2569 213 2275 61 
Q 1981 -91 1556 -91 
Q 1019 -91 701 211 
Q 384 513 384 1019 
Q 384 1609 779 1909 
Q 1175 2209 1959 2209 
L 2766 2209 
L 2766 2266 
Q 2766 2663 2505 2880 
Q 2244 3097 1772 3097 
Q 1472 3097 1187 3025 
Q 903 2953 641 2809 
L 641 3341 
Q 956 3463 1253 3523 
Q 1550 3584 1831 3584 
Q 2591 3584 2966 3190 
Q 3341 2797 3341 1997 
z
" transform="scale(0.015625)"/>
       <path id="DejaVuSans-65" d="M 3597 1894 
L 3597 1613 
L 953 1613 
Q 991 1019 1311 708 
Q 1631 397 2203 397 
Q 2534 397 2845 478 
Q 3156 559 3463 722 
L 3463 178 
Q 3153 47 2828 -22 
Q 2503 -91 2169 -91 
Q 1331 -91 842 396 
Q 353 884 353 1716 
Q 353 2575 817 3079 
Q 1281 3584 2069 3584 
Q 2775 3584 3186 3129 
Q 3597 2675 3597 1894 
z
M 3022 2063 
Q 3016 2534 2758 2815 
Q 2500 3097 2075 3097 
Q 1594 3097 1305 2825 
Q 1016 2553 972 2059 
L 3022 2063 
z
" transform="scale(0.015625)"/>
      </defs>
      <use xlink:href="#DejaVuSans-6c"/>
      <use xlink:href="#DejaVuSans-6f" x="27.783203"/>
      <use xlink:href="#DejaVuSans-67" x="88.964844"/>
      <use xlink:href="#DejaVuSans-31" x="152.441406"/>
      <use xlink:href="#DejaVuSans-30" x="216.064453"/>
      <use xlink:href="#DejaVuSans-20" x="279.6875"/>
      <use xlink:href="#DejaVuSans-41" x="311.474609"/>
      <use xlink:href="#DejaVuSans-62" x="379.882812"/>
      <use xlink:href="#DejaVuSans-75" x="443.359375"/>
      <use xlink:href="#DejaVuSans-6e" x="506.738281"/>
      <use xlink:href="#DejaVuSans-64" x="570.117188"/>
      <use xlink:href="#DejaVuSans-61" x="633.59375"/>
      <use xlink:href="#DejaVuSans-6e" x="694.873047"/>
      <use xlink:href="#DejaVuSans-63" x="758.251953"/>
      <use xlink:href="#DejaVuSans-65" x="813.232422"/>
     </g>
    </g>
   </g>
   <g id="line2d_16">
    <path d="M 67.9195 201.573283 
L 67.9195 234.379388 
" clip-path="url(#p5a9d1b7d73)" style="fill: none; stroke: #4c4c4c; stroke-width: 1.5; stroke-linecap: square"/>
   </g>
   <g id="line2d_17">
    <path d="M 67.9195 98.081544 
L 67.9195 27.395911 
" clip-path="url(#p5a9d1b7d73)" style="fill: none; stroke: #4c4c4c; stroke-width: 1.5; stroke-linecap: square"/>
   </g>
   <g id="line2d_18">
    <path d="M 61.350397 234.379388 
L 74.488603 234.379388 
" clip-path="url(#p5a9d1b7d73)" style="fill: none; stroke: #4c4c4c; stroke-width: 1.5; stroke-linecap: square"/>
   </g>
   <g id="line2d_19">
    <path d="M 61.350397 27.395911 
L 74.488603 27.395911 
" clip-path="url(#p5a9d1b7d73)" style="fill: none; stroke: #4c4c4c; stroke-width: 1.5; stroke-linecap: square"/>
   </g>
   <g id="line2d_20"/>
   <g id="line2d_21">
    <path d="M 94.732167 234.379388 
L 94.732167 234.379388 
" clip-path="url(#p5a9d1b7d73)" style="fill: none; stroke: #4c4c4c; stroke-width: 1.5; stroke-linecap: square"/>
   </g>
   <g id="line2d_22">
    <path d="M 94.732167 234.379388 
L 94.732167 234.379388 
" clip-path="url(#p5a9d1b7d73)" style="fill: none; stroke: #4c4c4c; stroke-width: 1.5; stroke-linecap: square"/>
   </g>
   <g id="line2d_23">
    <path d="M 88.163063 234.379388 
L 101.30127 234.379388 
" clip-path="url(#p5a9d1b7d73)" style="fill: none; stroke: #4c4c4c; stroke-width: 1.5; stroke-linecap: square"/>
   </g>
   <g id="line2d_24">
    <path d="M 88.163063 234.379388 
L 101.30127 234.379388 
" clip-path="url(#p5a9d1b7d73)" style="fill: none; stroke: #4c4c4c; stroke-width: 1.5; stroke-linecap: square"/>
   </g>
   <g id="line2d_25"/>
   <g id="line2d_26">
    <path d="M 134.951167 180.874935 
L 134.951167 234.379388 
" clip-path="url(#p5a9d1b7d73)" style="fill: none; stroke: #4c4c4c; stroke-width: 1.5; stroke-linecap: square"/>
   </g>
   <g id="line2d_27">
    <path d="M 134.951167 80.322755 
L 134.951167 33.275028 
" clip-path="url(#p5a9d1b7d73)" style="fill: none; stroke: #4c4c4c; stroke-width: 1.5; stroke-linecap: square"/>
   </g>
   <g id="line2d_28">
    <path d="M 128.382063 234.379388 
L 141.52027 234.379388 
" clip-path="url(#p5a9d1b7d73)" style="fill: none; stroke: #4c4c4c; stroke-width: 1.5; stroke-linecap: square"/>
   </g>
   <g id="line2d_29">
    <path d="M 128.382063 33.275028 
L 141.52027 33.275028 
" clip-path="url(#p5a9d1b7d73)" style="fill: none; stroke: #4c4c4c; stroke-width: 1.5; stroke-linecap: square"/>
   </g>
   <g id="line2d_30"/>
   <g id="line2d_31">
    <path d="M 161.763833 234.379388 
L 161.763833 234.379388 
" clip-path="url(#p5a9d1b7d73)" style="fill: none; stroke: #4c4c4c; stroke-width: 1.5; stroke-linecap: square"/>
   </g>
   <g id="line2d_32">
    <path d="M 161.763833 213.68104 
L 161.763833 192.982692 
" clip-path="url(#p5a9d1b7d73)" style="fill: none; stroke: #4c4c4c; stroke-width: 1.5; stroke-linecap: square"/>
   </g>
   <g id="line2d_33">
    <path d="M 155.19473 234.379388 
L 168.332937 234.379388 
" clip-path="url(#p5a9d1b7d73)" style="fill: none; stroke: #4c4c4c; stroke-width: 1.5; stroke-linecap: square"/>
   </g>
   <g id="line2d_34">
    <path d="M 155.19473 192.982692 
L 168.332937 192.982692 
" clip-path="url(#p5a9d1b7d73)" style="fill: none; stroke: #4c4c4c; stroke-width: 1.5; stroke-linecap: square"/>
   </g>
   <g id="line2d_35"/>
   <g id="line2d_36">
    <path d="M 201.982833 132.81486 
L 201.982833 192.982692 
" clip-path="url(#p5a9d1b7d73)" style="fill: none; stroke: #4c4c4c; stroke-width: 1.5; stroke-linecap: square"/>
   </g>
   <g id="line2d_37">
    <path d="M 201.982833 56.221872 
L 201.982833 39.796717 
" clip-path="url(#p5a9d1b7d73)" style="fill: none; stroke: #4c4c4c; stroke-width: 1.5; stroke-linecap: square"/>
   </g>
   <g id="line2d_38">
    <path d="M 195.41373 192.982692 
L 208.551937 192.982692 
" clip-path="url(#p5a9d1b7d73)" style="fill: none; stroke: #4c4c4c; stroke-width: 1.5; stroke-linecap: square"/>
   </g>
   <g id="line2d_39">
    <path d="M 195.41373 39.796717 
L 208.551937 39.796717 
" clip-path="url(#p5a9d1b7d73)" style="fill: none; stroke: #4c4c4c; stroke-width: 1.5; stroke-linecap: square"/>
   </g>
   <g id="line2d_40"/>
   <g id="line2d_41">
    <path d="M 228.7955 234.379388 
L 228.7955 234.379388 
" clip-path="url(#p5a9d1b7d73)" style="fill: none; stroke: #4c4c4c; stroke-width: 1.5; stroke-linecap: square"/>
   </g>
   <g id="line2d_42">
    <path d="M 228.7955 234.379388 
L 228.7955 234.379388 
" clip-path="url(#p5a9d1b7d73)" style="fill: none; stroke: #4c4c4c; stroke-width: 1.5; stroke-linecap: square"/>
   </g>
   <g id="line2d_43">
    <path d="M 222.226397 234.379388 
L 235.364603 234.379388 
" clip-path="url(#p5a9d1b7d73)" style="fill: none; stroke: #4c4c4c; stroke-width: 1.5; stroke-linecap: square"/>
   </g>
   <g id="line2d_44">
    <path d="M 222.226397 234.379388 
L 235.364603 234.379388 
" clip-path="url(#p5a9d1b7d73)" style="fill: none; stroke: #4c4c4c; stroke-width: 1.5; stroke-linecap: square"/>
   </g>
   <g id="line2d_45"/>
   <g id="line2d_46">
    <path d="M 269.0145 146.454307 
L 269.0145 234.379388 
" clip-path="url(#p5a9d1b7d73)" style="fill: none; stroke: #4c4c4c; stroke-width: 1.5; stroke-linecap: square"/>
   </g>
   <g id="line2d_47">
    <path d="M 269.0145 51.553159 
L 269.0145 44.577092 
" clip-path="url(#p5a9d1b7d73)" style="fill: none; stroke: #4c4c4c; stroke-width: 1.5; stroke-linecap: square"/>
   </g>
   <g id="line2d_48">
    <path d="M 262.445397 234.379388 
L 275.583603 234.379388 
" clip-path="url(#p5a9d1b7d73)" style="fill: none; stroke: #4c4c4c; stroke-width: 1.5; stroke-linecap: square"/>
   </g>
   <g id="line2d_49">
    <path d="M 262.445397 44.577092 
L 275.583603 44.577092 
" clip-path="url(#p5a9d1b7d73)" style="fill: none; stroke: #4c4c4c; stroke-width: 1.5; stroke-linecap: square"/>
   </g>
   <g id="line2d_50"/>
   <g id="line2d_51">
    <path d="M 295.827167 234.379388 
L 295.827167 234.379388 
" clip-path="url(#p5a9d1b7d73)" style="fill: none; stroke: #4c4c4c; stroke-width: 1.5; stroke-linecap: square"/>
   </g>
   <g id="line2d_52">
    <path d="M 295.827167 201.573283 
L 295.827167 168.767178 
" clip-path="url(#p5a9d1b7d73)" style="fill: none; stroke: #4c4c4c; stroke-width: 1.5; stroke-linecap: square"/>
   </g>
   <g id="line2d_53">
    <path d="M 289.258063 234.379388 
L 302.39627 234.379388 
" clip-path="url(#p5a9d1b7d73)" style="fill: none; stroke: #4c4c4c; stroke-width: 1.5; stroke-linecap: square"/>
   </g>
   <g id="line2d_54">
    <path d="M 289.258063 168.767178 
L 302.39627 168.767178 
" clip-path="url(#p5a9d1b7d73)" style="fill: none; stroke: #4c4c4c; stroke-width: 1.5; stroke-linecap: square"/>
   </g>
   <g id="line2d_55"/>
   <g id="line2d_56">
    <path d="M 336.046167 148.06883 
L 336.046167 234.379388 
" clip-path="url(#p5a9d1b7d73)" style="fill: none; stroke: #4c4c4c; stroke-width: 1.5; stroke-linecap: square"/>
   </g>
   <g id="line2d_57">
    <path d="M 336.046167 50.777495 
L 336.046167 39.796717 
" clip-path="url(#p5a9d1b7d73)" style="fill: none; stroke: #4c4c4c; stroke-width: 1.5; stroke-linecap: square"/>
   </g>
   <g id="line2d_58">
    <path d="M 329.477063 234.379388 
L 342.61527 234.379388 
" clip-path="url(#p5a9d1b7d73)" style="fill: none; stroke: #4c4c4c; stroke-width: 1.5; stroke-linecap: square"/>
   </g>
   <g id="line2d_59">
    <path d="M 329.477063 39.796717 
L 342.61527 39.796717 
" clip-path="url(#p5a9d1b7d73)" style="fill: none; stroke: #4c4c4c; stroke-width: 1.5; stroke-linecap: square"/>
   </g>
   <g id="line2d_60"/>
   <g id="line2d_61">
    <path d="M 362.858833 213.68104 
L 362.858833 234.379388 
" clip-path="url(#p5a9d1b7d73)" style="fill: none; stroke: #4c4c4c; stroke-width: 1.5; stroke-linecap: square"/>
   </g>
   <g id="line2d_62">
    <path d="M 362.858833 165.620965 
L 362.858833 138.259238 
" clip-path="url(#p5a9d1b7d73)" style="fill: none; stroke: #4c4c4c; stroke-width: 1.5; stroke-linecap: square"/>
   </g>
   <g id="line2d_63">
    <path d="M 356.28973 234.379388 
L 369.427937 234.379388 
" clip-path="url(#p5a9d1b7d73)" style="fill: none; stroke: #4c4c4c; stroke-width: 1.5; stroke-linecap: square"/>
   </g>
   <g id="line2d_64">
    <path d="M 356.28973 138.259238 
L 369.427937 138.259238 
" clip-path="url(#p5a9d1b7d73)" style="fill: none; stroke: #4c4c4c; stroke-width: 1.5; stroke-linecap: square"/>
   </g>
   <g id="line2d_65"/>
   <g id="line2d_66">
    <path d="M 403.077833 213.68104 
L 403.077833 234.379388 
" clip-path="url(#p5a9d1b7d73)" style="fill: none; stroke: #4c4c4c; stroke-width: 1.5; stroke-linecap: square"/>
   </g>
   <g id="line2d_67">
    <path d="M 403.077833 107.513357 
L 403.077833 22.044021 
" clip-path="url(#p5a9d1b7d73)" style="fill: none; stroke: #4c4c4c; stroke-width: 1.5; stroke-linecap: square"/>
   </g>
   <g id="line2d_68">
    <path d="M 396.50873 234.379388 
L 409.646937 234.379388 
" clip-path="url(#p5a9d1b7d73)" style="fill: none; stroke: #4c4c4c; stroke-width: 1.5; stroke-linecap: square"/>
   </g>
   <g id="line2d_69">
    <path d="M 396.50873 22.044021 
L 409.646937 22.044021 
" clip-path="url(#p5a9d1b7d73)" style="fill: none; stroke: #4c4c4c; stroke-width: 1.5; stroke-linecap: square"/>
   </g>
   <g id="line2d_70"/>
   <g id="line2d_71">
    <path d="M 429.8905 234.379388 
L 429.8905 234.379388 
" clip-path="url(#p5a9d1b7d73)" style="fill: none; stroke: #4c4c4c; stroke-width: 1.5; stroke-linecap: square"/>
   </g>
   <g id="line2d_72">
    <path d="M 429.8905 213.68104 
L 429.8905 192.982692 
" clip-path="url(#p5a9d1b7d73)" style="fill: none; stroke: #4c4c4c; stroke-width: 1.5; stroke-linecap: square"/>
   </g>
   <g id="line2d_73">
    <path d="M 423.321397 234.379388 
L 436.459603 234.379388 
" clip-path="url(#p5a9d1b7d73)" style="fill: none; stroke: #4c4c4c; stroke-width: 1.5; stroke-linecap: square"/>
   </g>
   <g id="line2d_74">
    <path d="M 423.321397 192.982692 
L 436.459603 192.982692 
" clip-path="url(#p5a9d1b7d73)" style="fill: none; stroke: #4c4c4c; stroke-width: 1.5; stroke-linecap: square"/>
   </g>
   <g id="line2d_75"/>
   <g id="line2d_76">
    <path d="M 54.781293 168.767178 
L 81.057707 168.767178 
" clip-path="url(#p5a9d1b7d73)" style="fill: none; stroke: #4c4c4c; stroke-width: 1.5; stroke-linecap: square"/>
   </g>
   <g id="line2d_77">
    <path d="M 81.59396 234.379388 
L 107.870373 234.379388 
" clip-path="url(#p5a9d1b7d73)" style="fill: none; stroke: #4c4c4c; stroke-width: 1.5; stroke-linecap: square"/>
   </g>
   <g id="line2d_78">
    <path d="M 121.81296 127.370483 
L 148.089373 127.370483 
" clip-path="url(#p5a9d1b7d73)" style="fill: none; stroke: #4c4c4c; stroke-width: 1.5; stroke-linecap: square"/>
   </g>
   <g id="line2d_79">
    <path d="M 148.625627 234.379388 
L 174.90204 234.379388 
" clip-path="url(#p5a9d1b7d73)" style="fill: none; stroke: #4c4c4c; stroke-width: 1.5; stroke-linecap: square"/>
   </g>
   <g id="line2d_80">
    <path d="M 188.844627 72.647028 
L 215.12104 72.647028 
" clip-path="url(#p5a9d1b7d73)" style="fill: none; stroke: #4c4c4c; stroke-width: 1.5; stroke-linecap: square"/>
   </g>
   <g id="line2d_81">
    <path d="M 215.657293 234.379388 
L 241.933707 234.379388 
" clip-path="url(#p5a9d1b7d73)" style="fill: none; stroke: #4c4c4c; stroke-width: 1.5; stroke-linecap: square"/>
   </g>
   <g id="line2d_82">
    <path d="M 255.876293 58.529227 
L 282.152707 58.529227 
" clip-path="url(#p5a9d1b7d73)" style="fill: none; stroke: #4c4c4c; stroke-width: 1.5; stroke-linecap: square"/>
   </g>
   <g id="line2d_83">
    <path d="M 282.68896 234.379388 
L 308.965373 234.379388 
" clip-path="url(#p5a9d1b7d73)" style="fill: none; stroke: #4c4c4c; stroke-width: 1.5; stroke-linecap: square"/>
   </g>
   <g id="line2d_84">
    <path d="M 322.90796 61.758273 
L 349.184373 61.758273 
" clip-path="url(#p5a9d1b7d73)" style="fill: none; stroke: #4c4c4c; stroke-width: 1.5; stroke-linecap: square"/>
   </g>
   <g id="line2d_85">
    <path d="M 349.720627 192.982692 
L 375.99704 192.982692 
" clip-path="url(#p5a9d1b7d73)" style="fill: none; stroke: #4c4c4c; stroke-width: 1.5; stroke-linecap: square"/>
   </g>
   <g id="line2d_86">
    <path d="M 389.939627 192.982692 
L 416.21604 192.982692 
" clip-path="url(#p5a9d1b7d73)" style="fill: none; stroke: #4c4c4c; stroke-width: 1.5; stroke-linecap: square"/>
   </g>
   <g id="line2d_87">
    <path d="M 416.752293 234.379388 
L 443.028707 234.379388 
" clip-path="url(#p5a9d1b7d73)" style="fill: none; stroke: #4c4c4c; stroke-width: 1.5; stroke-linecap: square"/>
   </g>
   <g id="patch_17">
    <path d="M 47.81 244.996156 
L 47.81 11.427253 
" style="fill: none; stroke: #000000; stroke-width: 0.8; stroke-linejoin: miter; stroke-linecap: square"/>
   </g>
   <g id="patch_18">
    <path d="M 450 244.996156 
L 450 11.427253 
" style="fill: none; stroke: #000000; stroke-width: 0.8; stroke-linejoin: miter; stroke-linecap: square"/>
   </g>
   <g id="patch_19">
    <path d="M 47.81 244.996156 
L 450 244.996156 
" style="fill: none; stroke: #000000; stroke-width: 0.8; stroke-linejoin: miter; stroke-linecap: square"/>
   </g>
   <g id="patch_20">
    <path d="M 47.81 11.427253 
L 450 11.427253 
" style="fill: none; stroke: #000000; stroke-width: 0.8; stroke-linejoin: miter; stroke-linecap: square"/>
   </g>
   <g id="legend_1">
    <g id="patch_21">
     <path d="M 54.81 151.728892 
L 109.658438 151.728892 
Q 111.658438 151.728892 111.658438 149.728892 
L 111.658438 106.694517 
Q 111.658438 104.694517 109.658438 104.694517 
L 54.81 104.694517 
Q 52.81 104.694517 52.81 106.694517 
L 52.81 149.728892 
Q 52.81 151.728892 54.81 151.728892 
z
" style="fill: #ffffff; opacity: 0.8; stroke: #cccccc; stroke-linejoin: miter"/>
    </g>
    <g id="text_17">
     <!-- group -->
     <g transform="translate(67.714688 116.292955) scale(0.1 -0.1)">
      <defs>
       <path id="DejaVuSans-72" d="M 2631 2963 
Q 2534 3019 2420 3045 
Q 2306 3072 2169 3072 
Q 1681 3072 1420 2755 
Q 1159 2438 1159 1844 
L 1159 0 
L 581 0 
L 581 3500 
L 1159 3500 
L 1159 2956 
Q 1341 3275 1631 3429 
Q 1922 3584 2338 3584 
Q 2397 3584 2469 3576 
Q 2541 3569 2628 3553 
L 2631 2963 
z
" transform="scale(0.015625)"/>
       <path id="DejaVuSans-70" d="M 1159 525 
L 1159 -1331 
L 581 -1331 
L 581 3500 
L 1159 3500 
L 1159 2969 
Q 1341 3281 1617 3432 
Q 1894 3584 2278 3584 
Q 2916 3584 3314 3078 
Q 3713 2572 3713 1747 
Q 3713 922 3314 415 
Q 2916 -91 2278 -91 
Q 1894 -91 1617 61 
Q 1341 213 1159 525 
z
M 3116 1747 
Q 3116 2381 2855 2742 
Q 2594 3103 2138 3103 
Q 1681 3103 1420 2742 
Q 1159 2381 1159 1747 
Q 1159 1113 1420 752 
Q 1681 391 2138 391 
Q 2594 391 2855 752 
Q 3116 1113 3116 1747 
z
" transform="scale(0.015625)"/>
      </defs>
      <use xlink:href="#DejaVuSans-67"/>
      <use xlink:href="#DejaVuSans-72" x="63.476562"/>
      <use xlink:href="#DejaVuSans-6f" x="102.339844"/>
      <use xlink:href="#DejaVuSans-75" x="163.521484"/>
      <use xlink:href="#DejaVuSans-70" x="226.900391"/>
     </g>
    </g>
    <g id="patch_22">
     <path d="M 56.81 130.97108 
L 76.81 130.97108 
L 76.81 123.97108 
L 56.81 123.97108 
z
" style="fill: #df9c20; stroke: #4c4c4c; stroke-width: 0.75; stroke-linejoin: miter"/>
    </g>
    <g id="text_18">
     <!-- Ob -->
     <g transform="translate(84.81 130.97108) scale(0.1 -0.1)">
      <defs>
       <path id="DejaVuSans-4f" d="M 2522 4238 
Q 1834 4238 1429 3725 
Q 1025 3213 1025 2328 
Q 1025 1447 1429 934 
Q 1834 422 2522 422 
Q 3209 422 3611 934 
Q 4013 1447 4013 2328 
Q 4013 3213 3611 3725 
Q 3209 4238 2522 4238 
z
M 2522 4750 
Q 3503 4750 4090 4092 
Q 4678 3434 4678 2328 
Q 4678 1225 4090 567 
Q 3503 -91 2522 -91 
Q 1538 -91 948 565 
Q 359 1222 359 2328 
Q 359 3434 948 4092 
Q 1538 4750 2522 4750 
z
" transform="scale(0.015625)"/>
      </defs>
      <use xlink:href="#DejaVuSans-4f"/>
      <use xlink:href="#DejaVuSans-62" x="78.710938"/>
     </g>
    </g>
    <g id="patch_23">
     <path d="M 56.81 145.649205 
L 76.81 145.649205 
L 76.81 138.649205 
L 56.81 138.649205 
z
" style="fill: #df2020; stroke: #4c4c4c; stroke-width: 0.75; stroke-linejoin: miter"/>
    </g>
    <g id="text_19">
     <!-- OMS -->
     <g transform="translate(84.81 145.649205) scale(0.1 -0.1)">
      <defs>
       <path id="DejaVuSans-53" d="M 3425 4513 
L 3425 3897 
Q 3066 4069 2747 4153 
Q 2428 4238 2131 4238 
Q 1616 4238 1336 4038 
Q 1056 3838 1056 3469 
Q 1056 3159 1242 3001 
Q 1428 2844 1947 2747 
L 2328 2669 
Q 3034 2534 3370 2195 
Q 3706 1856 3706 1288 
Q 3706 609 3251 259 
Q 2797 -91 1919 -91 
Q 1588 -91 1214 -16 
Q 841 59 441 206 
L 441 856 
Q 825 641 1194 531 
Q 1563 422 1919 422 
Q 2459 422 2753 634 
Q 3047 847 3047 1241 
Q 3047 1584 2836 1778 
Q 2625 1972 2144 2069 
L 1759 2144 
Q 1053 2284 737 2584 
Q 422 2884 422 3419 
Q 422 4038 858 4394 
Q 1294 4750 2059 4750 
Q 2388 4750 2728 4690 
Q 3069 4631 3425 4513 
z
" transform="scale(0.015625)"/>
      </defs>
      <use xlink:href="#DejaVuSans-4f"/>
      <use xlink:href="#DejaVuSans-4d" x="78.710938"/>
      <use xlink:href="#DejaVuSans-53" x="164.990234"/>
     </g>
    </g>
   </g>
  </g>
 </g>
 <defs>
  <clipPath id="p5a9d1b7d73">
   <rect x="47.81" y="11.427253" width="402.19" height="233.568903"/>
  </clipPath>
 </defs>
</svg>
