<?xml version='1.0' encoding='ASCII' standalone='yes'?>
<svg xmlns="http://www.w3.org/2000/svg" xmlns:xlink="http://www.w3.org/1999/xlink" version="1.1">
  <g>
    <g transform="translate(5, 0) scale(0.35 0.35) "><metadata xmlns:rdf="http://www.w3.org/1999/02/22-rdf-syntax-ns#" xmlns:cc="http://creativecommons.org/ns#" xmlns:dc="http://purl.org/dc/elements/1.1/" id="metadata10294">
    <rdf:RDF>
      <cc:Work rdf:about="">
        <dc:type rdf:resource="http://purl.org/dc/dcmitype/StillImage"/>
      </cc:Work>
    </rdf:RDF>
  </metadata>
  <sodipodi:namedview xmlns:sodipodi="http://sodipodi.sourceforge.net/DTD/sodipodi-0.dtd" xmlns:inkscape="http://www.inkscape.org/namespaces/inkscape" inkscape:window-height="1033" inkscape:window-width="1920" inkscape:pageshadow="2" inkscape:pageopacity="0.0" guidetolerance="10.0" gridtolerance="10.0" objecttolerance="10.0" borderopacity="1.0" bordercolor="#666666" pagecolor="#ffffff" id="base" inkscape:zoom="1.0263363" inkscape:cx="107.01865" inkscape:cy="242.91965" inkscape:window-x="1276" inkscape:window-y="-4" inkscape:current-layer="svg2" showborder="true" inkscape:showpageshadow="true" borderlayer="true" showgrid="false" fit-margin-top="10" fit-margin-left="10" fit-margin-right="10" fit-margin-bottom="10" inkscape:window-maximized="1"/>
  <defs id="defs5"/>
  <path xmlns:inkscape="http://www.inkscape.org/namespaces/inkscape" d="m 253.07128,138.97343 c 0,61.53006 -54.15538,111.41002 -120.95943,111.41002 -66.804032,0 -120.959417,-49.87996 -120.959417,-111.41002 0,-61.530065 54.155385,-111.410015 120.959417,-111.410015 66.80405,0 120.95943,49.87995 120.95943,111.410015 l 0,0 z" style="font-size:13.79855060999999900px;font-style:normal;font-variant:normal;font-weight:normal;font-stretch:normal;text-align:center;line-height:125%;writing-mode:lr-tb;text-anchor:middle;fill:#1335a8;fill-opacity:0.48627450999999999;stroke:#1335a8;stroke-width:2.30486679000000020;stroke-opacity:0.48627451;font-family:Arial" id="path3134" inkscape:connector-curvature="0"/>
  <path xmlns:inkscape="http://www.inkscape.org/namespaces/inkscape" d="m 364.37609,141.07339 c 0,61.53006 -54.15538,111.41002 -120.95943,111.41002 -66.80403,0 -120.95942,-49.87996 -120.95942,-111.41002 0,-61.530055 54.15539,-111.410015 120.95942,-111.410015 66.80405,0 120.95943,49.87996 120.95943,111.410015 l 0,0 z" style="font-size:13.79855061px;font-style:normal;font-variant:normal;font-weight:normal;font-stretch:normal;text-align:center;line-height:125%;writing-mode:lr-tb;text-anchor:middle;fill:#cc1717;fill-opacity:0.49019608;stroke:#cc1717;stroke-width:2.30486679;stroke-opacity:0.49019608;font-family:Arial" id="path3298" inkscape:connector-curvature="0"/>
  <path xmlns:inkscape="http://www.inkscape.org/namespaces/inkscape" d="m 307.67365,237.17722 c 0,61.53006 -54.15538,111.41002 -120.95944,111.41002 -66.80403,0 -120.959411,-49.87996 -120.959411,-111.41002 0,-61.53005 54.155381,-111.41001 120.959411,-111.41001 66.80406,0 120.95944,49.87996 120.95944,111.41001 l 0,0 z" style="font-size:13.79855061px;font-style:normal;font-variant:normal;font-weight:normal;font-stretch:normal;text-align:center;line-height:125%;writing-mode:lr-tb;text-anchor:middle;fill:#129d13;fill-opacity:0.48627451;stroke:#129d13;stroke-width:2.30486679;stroke-opacity:0.48627451;font-family:Arial" id="path3296" inkscape:connector-curvature="0"/>
  <text xmlns:sodipodi="http://sodipodi.sourceforge.net/DTD/sodipodi-0.dtd" xml:space="preserve" style="font-size:27.6584034px;font-style:normal;font-variant:normal;font-weight:normal;font-stretch:normal;text-align:center;line-height:125%;writing-mode:lr-tb;text-anchor:middle;fill:#000000;fill-opacity:1;stroke:none;font-family:Arial" x="69.289894" y="123.56261" id="text1418" sodipodi:linespacing="125%"><tspan sodipodi:role="line" id="tspan1420" x="69.289894" y="123.56261">3</tspan></text>
  <text xmlns:sodipodi="http://sodipodi.sourceforge.net/DTD/sodipodi-0.dtd" xml:space="preserve" style="font-size:27.6584034px;font-style:normal;font-variant:normal;font-weight:normal;font-stretch:normal;text-align:center;line-height:125%;writing-mode:lr-tb;text-anchor:middle;fill:#000000;fill-opacity:1;stroke:none;font-family:Arial" x="182.61353" y="300.73053" id="text1422" sodipodi:linespacing="125%"><tspan sodipodi:role="line" id="tspan1424" x="182.61353" y="300.73053">301</tspan></text>
  <text xmlns:sodipodi="http://sodipodi.sourceforge.net/DTD/sodipodi-0.dtd" xml:space="preserve" style="font-size:27.6584034px;font-style:normal;font-variant:normal;font-weight:normal;font-stretch:normal;text-align:center;line-height:125%;writing-mode:lr-tb;text-anchor:middle;fill:#000000;fill-opacity:1;stroke:none;font-family:Arial" x="299.42236" y="121.68048" id="text1426" sodipodi:linespacing="125%"><tspan sodipodi:role="line" id="tspan1428" x="299.42236" y="121.68048">40</tspan></text>
  <text xmlns:sodipodi="http://sodipodi.sourceforge.net/DTD/sodipodi-0.dtd" xml:space="preserve" style="font-size:27.6584034px;font-style:normal;font-variant:normal;font-weight:normal;font-stretch:normal;text-align:center;line-height:125%;writing-mode:lr-tb;text-anchor:middle;fill:#000000;fill-opacity:1;stroke:none;font-family:Arial" x="187.72922" y="102.92285" id="text1430" sodipodi:linespacing="125%"><tspan sodipodi:role="line" id="tspan1432" x="187.72922" y="102.92285">1</tspan></text>
  <text xmlns:sodipodi="http://sodipodi.sourceforge.net/DTD/sodipodi-0.dtd" xml:space="preserve" style="font-size:27.6584034px;font-style:normal;font-variant:normal;font-weight:normal;font-stretch:normal;text-align:center;line-height:125%;writing-mode:lr-tb;text-anchor:middle;fill:#000000;fill-opacity:1;stroke:none;font-family:Arial" x="109.28825" y="227.40529" id="text1434" sodipodi:linespacing="125%"><tspan sodipodi:role="line" id="tspan1436" x="109.28825" y="227.40529">8</tspan></text>
  <text xmlns:sodipodi="http://sodipodi.sourceforge.net/DTD/sodipodi-0.dtd" xml:space="preserve" style="font-size:27.6584034px;font-style:normal;font-variant:normal;font-weight:normal;font-stretch:normal;text-align:center;line-height:125%;writing-mode:lr-tb;text-anchor:middle;fill:#000000;fill-opacity:1;stroke:none;font-family:Arial" x="255.08617" y="229.96312" id="text1438" sodipodi:linespacing="125%"><tspan sodipodi:role="line" id="tspan1440" x="255.08617" y="229.96312">60</tspan></text>
  <text xmlns:sodipodi="http://sodipodi.sourceforge.net/DTD/sodipodi-0.dtd" xml:space="preserve" style="font-size:27.6584034px;font-style:normal;font-variant:normal;font-weight:normal;font-stretch:normal;text-align:center;line-height:125%;writing-mode:lr-tb;text-anchor:middle;fill:#000000;fill-opacity:1;stroke:none;font-family:Arial" x="187.72923" y="177.10072" id="text1442" sodipodi:linespacing="125%"><tspan sodipodi:role="line" id="tspan1444" x="187.72923" y="177.10072">7</tspan></text>
  <text xmlns:sodipodi="http://sodipodi.sourceforge.net/DTD/sodipodi-0.dtd" xml:space="preserve" style="font-size:23.04866791px;font-style:normal;font-variant:normal;font-weight:normal;font-stretch:normal;text-align:center;line-height:125%;writing-mode:lr-tb;text-anchor:middle;fill:#000000;fill-opacity:1;stroke:none;font-family:Arial" x="73.927574" y="26.498705" id="text1734" sodipodi:linespacing="125%"><tspan sodipodi:role="line" id="tspan1736" x="73.927574" y="26.498705">Macrel</tspan></text>
  <text xmlns:sodipodi="http://sodipodi.sourceforge.net/DTD/sodipodi-0.dtd" xml:space="preserve" style="font-size:23.04866791px;font-style:normal;font-variant:normal;font-weight:normal;font-stretch:normal;text-align:center;line-height:125%;writing-mode:lr-tb;text-anchor:middle;fill:#000000;fill-opacity:1;stroke:none;font-family:Arial" x="289.66177" y="27.059649" id="text1738" sodipodi:linespacing="125%"><tspan sodipodi:role="line" id="tspan1740" x="289.66177" y="27.059649">AMP Scanner v2</tspan></text>
  <text xmlns:sodipodi="http://sodipodi.sourceforge.net/DTD/sodipodi-0.dtd" xml:space="preserve" style="font-size:23.04866791px;font-style:normal;font-variant:normal;font-weight:normal;font-stretch:normal;text-align:center;line-height:125%;writing-mode:lr-tb;text-anchor:middle;fill:#000000;fill-opacity:1;stroke:none;font-family:Arial" x="185.82953" y="368.99164" id="text1742" sodipodi:linespacing="125%"><tspan sodipodi:role="line" id="tspan1744" x="185.82953" y="368.99164">AxPEP</tspan></text>
</g>
    <g transform="translate(140, 5) scale(0.35 0.35) "><metadata>
  <rdf:RDF xmlns:dc="http://purl.org/dc/elements/1.1/" xmlns:cc="http://creativecommons.org/ns#" xmlns:rdf="http://www.w3.org/1999/02/22-rdf-syntax-ns#">
   <cc:Work>
    <dc:type rdf:resource="http://purl.org/dc/dcmitype/StillImage"/>
    <dc:date>2023-09-01T16:57:27.703707</dc:date>
    <dc:format>image/svg+xml</dc:format>
    <dc:creator>
     <cc:Agent>
      <dc:title>Matplotlib v3.6.3, https://matplotlib.org/</dc:title>
     </cc:Agent>
    </dc:creator>
   </cc:Work>
  </rdf:RDF>
 </metadata>
 <defs>
  <style type="text/css">*{stroke-linejoin: round; stroke-linecap: butt}</style>
 </defs>
 <g id="figure_1">
  <g id="patch_1">
   <path d="M 0 345.6  L 460.8 345.6  L 460.8 0  L 0 0  z " style="fill: #ffffff"/>
  </g>
  <g id="axes_1">
   <g id="patch_2">
    <path d="M 44.57 303.64  L 450 303.64  L 450 26.88  L 44.57 26.88  z " style="fill: #ffffff"/>
   </g>
   <g id="patch_3">
    <path d="M 62.998636 303.64  L 70.370091 303.64  L 70.370091 185.297532  L 62.998636 185.297532  z " clip-path="url(#p75d374d1c2)" style="fill: #1f77b4; fill-opacity: 0.5; stroke: #000000; stroke-width: 0.649309; stroke-linejoin: miter"/>
   </g>
   <g id="patch_4">
    <path d="M 70.370091 303.64  L 77.741545 303.64  L 77.741545 77.713469  L 70.370091 77.713469  z " clip-path="url(#p75d374d1c2)" style="fill: #1f77b4; fill-opacity: 0.5; stroke: #000000; stroke-width: 0.649309; stroke-linejoin: miter"/>
   </g>
   <g id="patch_5">
    <path d="M 77.741545 303.64  L 85.113 303.64  L 85.113 120.747094  L 77.741545 120.747094  z " clip-path="url(#p75d374d1c2)" style="fill: #1f77b4; fill-opacity: 0.5; stroke: #000000; stroke-width: 0.649309; stroke-linejoin: miter"/>
   </g>
   <g id="patch_6">
    <path d="M 85.113 303.64  L 92.484455 303.64  L 92.484455 40.059048  L 85.113 40.059048  z " clip-path="url(#p75d374d1c2)" style="fill: #1f77b4; fill-opacity: 0.5; stroke: #000000; stroke-width: 0.649309; stroke-linejoin: miter"/>
   </g>
   <g id="patch_7">
    <path d="M 92.484455 303.64  L 99.855909 303.64  L 99.855909 163.780719  L 92.484455 163.780719  z " clip-path="url(#p75d374d1c2)" style="fill: #1f77b4; fill-opacity: 0.5; stroke: #000000; stroke-width: 0.649309; stroke-linejoin: miter"/>
   </g>
   <g id="patch_8">
    <path d="M 99.855909 303.64  L 107.227364 303.64  L 107.227364 190.676735  L 99.855909 190.676735  z " clip-path="url(#p75d374d1c2)" style="fill: #1f77b4; fill-opacity: 0.5; stroke: #000000; stroke-width: 0.649309; stroke-linejoin: miter"/>
   </g>
   <g id="patch_9">
    <path d="M 107.227364 303.64  L 114.598818 303.64  L 114.598818 153.022313  L 107.227364 153.022313  z " clip-path="url(#p75d374d1c2)" style="fill: #1f77b4; fill-opacity: 0.5; stroke: #000000; stroke-width: 0.649309; stroke-linejoin: miter"/>
   </g>
   <g id="patch_10">
    <path d="M 114.598818 303.64  L 121.970273 303.64  L 121.970273 179.918328  L 114.598818 179.918328  z " clip-path="url(#p75d374d1c2)" style="fill: #1f77b4; fill-opacity: 0.5; stroke: #000000; stroke-width: 0.649309; stroke-linejoin: miter"/>
   </g>
   <g id="patch_11">
    <path d="M 121.970273 303.64  L 129.341727 303.64  L 129.341727 239.089563  L 121.970273 239.089563  z " clip-path="url(#p75d374d1c2)" style="fill: #1f77b4; fill-opacity: 0.5; stroke: #000000; stroke-width: 0.649309; stroke-linejoin: miter"/>
   </g>
   <g id="patch_12">
    <path d="M 129.341727 303.64  L 136.713182 303.64  L 136.713182 249.847969  L 129.341727 249.847969  z " clip-path="url(#p75d374d1c2)" style="fill: #1f77b4; fill-opacity: 0.5; stroke: #000000; stroke-width: 0.649309; stroke-linejoin: miter"/>
   </g>
   <g id="patch_13">
    <path d="M 136.713182 303.64  L 144.084636 303.64  L 144.084636 201.435141  L 136.713182 201.435141  z " clip-path="url(#p75d374d1c2)" style="fill: #1f77b4; fill-opacity: 0.5; stroke: #000000; stroke-width: 0.649309; stroke-linejoin: miter"/>
   </g>
   <g id="patch_14">
    <path d="M 144.084636 303.64  L 151.456091 303.64  L 151.456091 222.951953  L 144.084636 222.951953  z " clip-path="url(#p75d374d1c2)" style="fill: #1f77b4; fill-opacity: 0.5; stroke: #000000; stroke-width: 0.649309; stroke-linejoin: miter"/>
   </g>
   <g id="patch_15">
    <path d="M 151.456091 303.64  L 158.827545 303.64  L 158.827545 222.951953  L 151.456091 222.951953  z " clip-path="url(#p75d374d1c2)" style="fill: #1f77b4; fill-opacity: 0.5; stroke: #000000; stroke-width: 0.649309; stroke-linejoin: miter"/>
   </g>
   <g id="patch_16">
    <path d="M 158.827545 303.64  L 166.199 303.64  L 166.199 255.227172  L 158.827545 255.227172  z " clip-path="url(#p75d374d1c2)" style="fill: #1f77b4; fill-opacity: 0.5; stroke: #000000; stroke-width: 0.649309; stroke-linejoin: miter"/>
   </g>
   <g id="patch_17">
    <path d="M 166.199 303.64  L 173.570455 303.64  L 173.570455 292.881594  L 166.199 292.881594  z " clip-path="url(#p75d374d1c2)" style="fill: #1f77b4; fill-opacity: 0.5; stroke: #000000; stroke-width: 0.649309; stroke-linejoin: miter"/>
   </g>
   <g id="patch_18">
    <path d="M 173.570455 303.64  L 180.941909 303.64  L 180.941909 271.364781  L 173.570455 271.364781  z " clip-path="url(#p75d374d1c2)" style="fill: #1f77b4; fill-opacity: 0.5; stroke: #000000; stroke-width: 0.649309; stroke-linejoin: miter"/>
   </g>
   <g id="patch_19">
    <path d="M 180.941909 303.64  L 188.313364 303.64  L 188.313364 265.985578  L 180.941909 265.985578  z " clip-path="url(#p75d374d1c2)" style="fill: #1f77b4; fill-opacity: 0.5; stroke: #000000; stroke-width: 0.649309; stroke-linejoin: miter"/>
   </g>
   <g id="patch_20">
    <path d="M 188.313364 303.64  L 195.684818 303.64  L 195.684818 282.123188  L 188.313364 282.123188  z " clip-path="url(#p75d374d1c2)" style="fill: #1f77b4; fill-opacity: 0.5; stroke: #000000; stroke-width: 0.649309; stroke-linejoin: miter"/>
   </g>
   <g id="patch_21">
    <path d="M 195.684818 303.64  L 203.056273 303.64  L 203.056273 287.502391  L 195.684818 287.502391  z " clip-path="url(#p75d374d1c2)" style="fill: #1f77b4; fill-opacity: 0.5; stroke: #000000; stroke-width: 0.649309; stroke-linejoin: miter"/>
   </g>
   <g id="patch_22">
    <path d="M 203.056273 303.64  L 210.427727 303.64  L 210.427727 282.123188  L 203.056273 282.123188  z " clip-path="url(#p75d374d1c2)" style="fill: #1f77b4; fill-opacity: 0.5; stroke: #000000; stroke-width: 0.649309; stroke-linejoin: miter"/>
   </g>
   <g id="patch_23">
    <path d="M 210.427727 303.64  L 217.799182 303.64  L 217.799182 265.985578  L 210.427727 265.985578  z " clip-path="url(#p75d374d1c2)" style="fill: #1f77b4; fill-opacity: 0.5; stroke: #000000; stroke-width: 0.649309; stroke-linejoin: miter"/>
   </g>
   <g id="patch_24">
    <path d="M 217.799182 303.64  L 225.170636 303.64  L 225.170636 282.123188  L 217.799182 282.123188  z " clip-path="url(#p75d374d1c2)" style="fill: #1f77b4; fill-opacity: 0.5; stroke: #000000; stroke-width: 0.649309; stroke-linejoin: miter"/>
   </g>
   <g id="patch_25">
    <path d="M 225.170636 303.64  L 232.542091 303.64  L 232.542091 282.123188  L 225.170636 282.123188  z " clip-path="url(#p75d374d1c2)" style="fill: #1f77b4; fill-opacity: 0.5; stroke: #000000; stroke-width: 0.649309; stroke-linejoin: miter"/>
   </g>
   <g id="patch_26">
    <path d="M 232.542091 303.64  L 239.913545 303.64  L 239.913545 292.881594  L 232.542091 292.881594  z " clip-path="url(#p75d374d1c2)" style="fill: #1f77b4; fill-opacity: 0.5; stroke: #000000; stroke-width: 0.649309; stroke-linejoin: miter"/>
   </g>
   <g id="patch_27">
    <path d="M 239.913545 303.64  L 247.285 303.64  L 247.285 287.502391  L 239.913545 287.502391  z " clip-path="url(#p75d374d1c2)" style="fill: #1f77b4; fill-opacity: 0.5; stroke: #000000; stroke-width: 0.649309; stroke-linejoin: miter"/>
   </g>
   <g id="patch_28">
    <path d="M 247.285 303.64  L 254.656455 303.64  L 254.656455 287.502391  L 247.285 287.502391  z " clip-path="url(#p75d374d1c2)" style="fill: #1f77b4; fill-opacity: 0.5; stroke: #000000; stroke-width: 0.649309; stroke-linejoin: miter"/>
   </g>
   <g id="patch_29">
    <path d="M 254.656455 303.64  L 262.027909 303.64  L 262.027909 287.502391  L 254.656455 287.502391  z " clip-path="url(#p75d374d1c2)" style="fill: #1f77b4; fill-opacity: 0.5; stroke: #000000; stroke-width: 0.649309; stroke-linejoin: miter"/>
   </g>
   <g id="patch_30">
    <path d="M 262.027909 303.64  L 269.399364 303.64  L 269.399364 298.260797  L 262.027909 298.260797  z " clip-path="url(#p75d374d1c2)" style="fill: #1f77b4; fill-opacity: 0.5; stroke: #000000; stroke-width: 0.649309; stroke-linejoin: miter"/>
   </g>
   <g id="patch_31">
    <path d="M 269.399364 303.64  L 276.770818 303.64  L 276.770818 303.64  L 269.399364 303.64  z " clip-path="url(#p75d374d1c2)" style="fill: #1f77b4; fill-opacity: 0.5; stroke: #000000; stroke-width: 0.649309; stroke-linejoin: miter"/>
   </g>
   <g id="patch_32">
    <path d="M 276.770818 303.64  L 284.142273 303.64  L 284.142273 303.64  L 276.770818 303.64  z " clip-path="url(#p75d374d1c2)" style="fill: #1f77b4; fill-opacity: 0.5; stroke: #000000; stroke-width: 0.649309; stroke-linejoin: miter"/>
   </g>
   <g id="patch_33">
    <path d="M 284.142273 303.64  L 291.513727 303.64  L 291.513727 303.64  L 284.142273 303.64  z " clip-path="url(#p75d374d1c2)" style="fill: #1f77b4; fill-opacity: 0.5; stroke: #000000; stroke-width: 0.649309; stroke-linejoin: miter"/>
   </g>
   <g id="patch_34">
    <path d="M 291.513727 303.64  L 298.885182 303.64  L 298.885182 292.881594  L 291.513727 292.881594  z " clip-path="url(#p75d374d1c2)" style="fill: #1f77b4; fill-opacity: 0.5; stroke: #000000; stroke-width: 0.649309; stroke-linejoin: miter"/>
   </g>
   <g id="patch_35">
    <path d="M 298.885182 303.64  L 306.256636 303.64  L 306.256636 303.64  L 298.885182 303.64  z " clip-path="url(#p75d374d1c2)" style="fill: #1f77b4; fill-opacity: 0.5; stroke: #000000; stroke-width: 0.649309; stroke-linejoin: miter"/>
   </g>
   <g id="patch_36">
    <path d="M 306.256636 303.64  L 313.628091 303.64  L 313.628091 276.743984  L 306.256636 276.743984  z " clip-path="url(#p75d374d1c2)" style="fill: #1f77b4; fill-opacity: 0.5; stroke: #000000; stroke-width: 0.649309; stroke-linejoin: miter"/>
   </g>
   <g id="patch_37">
    <path d="M 313.628091 303.64  L 320.999545 303.64  L 320.999545 287.502391  L 313.628091 287.502391  z " clip-path="url(#p75d374d1c2)" style="fill: #1f77b4; fill-opacity: 0.5; stroke: #000000; stroke-width: 0.649309; stroke-linejoin: miter"/>
   </g>
   <g id="patch_38">
    <path d="M 320.999545 303.64  L 328.371 303.64  L 328.371 276.743984  L 320.999545 276.743984  z " clip-path="url(#p75d374d1c2)" style="fill: #1f77b4; fill-opacity: 0.5; stroke: #000000; stroke-width: 0.649309; stroke-linejoin: miter"/>
   </g>
   <g id="patch_39">
    <path d="M 328.371 303.64  L 335.742455 303.64  L 335.742455 287.502391  L 328.371 287.502391  z " clip-path="url(#p75d374d1c2)" style="fill: #1f77b4; fill-opacity: 0.5; stroke: #000000; stroke-width: 0.649309; stroke-linejoin: miter"/>
   </g>
   <g id="patch_40">
    <path d="M 335.742455 303.64  L 343.113909 303.64  L 343.113909 298.260797  L 335.742455 298.260797  z " clip-path="url(#p75d374d1c2)" style="fill: #1f77b4; fill-opacity: 0.5; stroke: #000000; stroke-width: 0.649309; stroke-linejoin: miter"/>
   </g>
   <g id="patch_41">
    <path d="M 343.113909 303.64  L 350.485364 303.64  L 350.485364 282.123188  L 343.113909 282.123188  z " clip-path="url(#p75d374d1c2)" style="fill: #1f77b4; fill-opacity: 0.5; stroke: #000000; stroke-width: 0.649309; stroke-linejoin: miter"/>
   </g>
   <g id="patch_42">
    <path d="M 350.485364 303.64  L 357.856818 303.64  L 357.856818 298.260797  L 350.485364 298.260797  z " clip-path="url(#p75d374d1c2)" style="fill: #1f77b4; fill-opacity: 0.5; stroke: #000000; stroke-width: 0.649309; stroke-linejoin: miter"/>
   </g>
   <g id="patch_43">
    <path d="M 357.856818 303.64  L 365.228273 303.64  L 365.228273 287.502391  L 357.856818 287.502391  z " clip-path="url(#p75d374d1c2)" style="fill: #1f77b4; fill-opacity: 0.5; stroke: #000000; stroke-width: 0.649309; stroke-linejoin: miter"/>
   </g>
   <g id="patch_44">
    <path d="M 365.228273 303.64  L 372.599727 303.64  L 372.599727 298.260797  L 365.228273 298.260797  z " clip-path="url(#p75d374d1c2)" style="fill: #1f77b4; fill-opacity: 0.5; stroke: #000000; stroke-width: 0.649309; stroke-linejoin: miter"/>
   </g>
   <g id="patch_45">
    <path d="M 372.599727 303.64  L 379.971182 303.64  L 379.971182 282.123188  L 372.599727 282.123188  z " clip-path="url(#p75d374d1c2)" style="fill: #1f77b4; fill-opacity: 0.5; stroke: #000000; stroke-width: 0.649309; stroke-linejoin: miter"/>
   </g>
   <g id="patch_46">
    <path d="M 379.971182 303.64  L 387.342636 303.64  L 387.342636 287.502391  L 379.971182 287.502391  z " clip-path="url(#p75d374d1c2)" style="fill: #1f77b4; fill-opacity: 0.5; stroke: #000000; stroke-width: 0.649309; stroke-linejoin: miter"/>
   </g>
   <g id="patch_47">
    <path d="M 387.342636 303.64  L 394.714091 303.64  L 394.714091 298.260797  L 387.342636 298.260797  z " clip-path="url(#p75d374d1c2)" style="fill: #1f77b4; fill-opacity: 0.5; stroke: #000000; stroke-width: 0.649309; stroke-linejoin: miter"/>
   </g>
   <g id="patch_48">
    <path d="M 394.714091 303.64  L 402.085545 303.64  L 402.085545 303.64  L 394.714091 303.64  z " clip-path="url(#p75d374d1c2)" style="fill: #1f77b4; fill-opacity: 0.5; stroke: #000000; stroke-width: 0.649309; stroke-linejoin: miter"/>
   </g>
   <g id="patch_49">
    <path d="M 402.085545 303.64  L 409.457 303.64  L 409.457 287.502391  L 402.085545 287.502391  z " clip-path="url(#p75d374d1c2)" style="fill: #1f77b4; fill-opacity: 0.5; stroke: #000000; stroke-width: 0.649309; stroke-linejoin: miter"/>
   </g>
   <g id="patch_50">
    <path d="M 409.457 303.64  L 416.828455 303.64  L 416.828455 303.64  L 409.457 303.64  z " clip-path="url(#p75d374d1c2)" style="fill: #1f77b4; fill-opacity: 0.5; stroke: #000000; stroke-width: 0.649309; stroke-linejoin: miter"/>
   </g>
   <g id="patch_51">
    <path d="M 416.828455 303.64  L 424.199909 303.64  L 424.199909 298.260797  L 416.828455 298.260797  z " clip-path="url(#p75d374d1c2)" style="fill: #1f77b4; fill-opacity: 0.5; stroke: #000000; stroke-width: 0.649309; stroke-linejoin: miter"/>
   </g>
   <g id="patch_52">
    <path d="M 424.199909 303.64  L 431.571364 303.64  L 431.571364 292.881594  L 424.199909 292.881594  z " clip-path="url(#p75d374d1c2)" style="fill: #1f77b4; fill-opacity: 0.5; stroke: #000000; stroke-width: 0.649309; stroke-linejoin: miter"/>
   </g>
   <g id="matplotlib.axis_1">
    <g id="xtick_1">
     <g id="line2d_1">
      <defs>
       <path id="m444eafcd04" d="M 0 0  L 0 3.5  " style="stroke: #000000; stroke-width: 0.8"/>
      </defs>
      <g>
       <use xlink:href="#m444eafcd04" x="47.479785" y="303.64" style="stroke: #000000; stroke-width: 0.8"/>
      </g>
     </g>
     <g id="text_1">
      <!-- 0 -->
      <g transform="translate(44.298535 318.238437) scale(0.1 -0.1)">
       <defs>
        <path id="DejaVuSans-30" d="M 2034 4250  Q 1547 4250 1301 3770  Q 1056 3291 1056 2328  Q 1056 1369 1301 889  Q 1547 409 2034 409  Q 2525 409 2770 889  Q 3016 1369 3016 2328  Q 3016 3291 2770 3770  Q 2525 4250 2034 4250  z M 2034 4750  Q 2819 4750 3233 4129  Q 3647 3509 3647 2328  Q 3647 1150 3233 529  Q 2819 -91 2034 -91  Q 1250 -91 836 529  Q 422 1150 422 2328  Q 422 3509 836 4129  Q 1250 4750 2034 4750  z " transform="scale(0.015625)"/>
       </defs>
       <use xlink:href="#DejaVuSans-30"/>
      </g>
     </g>
    </g>
    <g id="xtick_2">
     <g id="line2d_2">
      <g>
       <use xlink:href="#m444eafcd04" x="125.074043" y="303.64" style="stroke: #000000; stroke-width: 0.8"/>
      </g>
     </g>
     <g id="text_2">
      <!-- 20 -->
      <g transform="translate(118.711543 318.238437) scale(0.1 -0.1)">
       <defs>
        <path id="DejaVuSans-32" d="M 1228 531  L 3431 531  L 3431 0  L 469 0  L 469 531  Q 828 903 1448 1529  Q 2069 2156 2228 2338  Q 2531 2678 2651 2914  Q 2772 3150 2772 3378  Q 2772 3750 2511 3984  Q 2250 4219 1831 4219  Q 1534 4219 1204 4116  Q 875 4013 500 3803  L 500 4441  Q 881 4594 1212 4672  Q 1544 4750 1819 4750  Q 2544 4750 2975 4387  Q 3406 4025 3406 3419  Q 3406 3131 3298 2873  Q 3191 2616 2906 2266  Q 2828 2175 2409 1742  Q 1991 1309 1228 531  z " transform="scale(0.015625)"/>
       </defs>
       <use xlink:href="#DejaVuSans-32"/>
       <use xlink:href="#DejaVuSans-30" x="63.623047"/>
      </g>
     </g>
    </g>
    <g id="xtick_3">
     <g id="line2d_3">
      <g>
       <use xlink:href="#m444eafcd04" x="202.668301" y="303.64" style="stroke: #000000; stroke-width: 0.8"/>
      </g>
     </g>
     <g id="text_3">
      <!-- 40 -->
      <g transform="translate(196.305801 318.238437) scale(0.1 -0.1)">
       <defs>
        <path id="DejaVuSans-34" d="M 2419 4116  L 825 1625  L 2419 1625  L 2419 4116  z M 2253 4666  L 3047 4666  L 3047 1625  L 3713 1625  L 3713 1100  L 3047 1100  L 3047 0  L 2419 0  L 2419 1100  L 313 1100  L 313 1709  L 2253 4666  z " transform="scale(0.015625)"/>
       </defs>
       <use xlink:href="#DejaVuSans-34"/>
       <use xlink:href="#DejaVuSans-30" x="63.623047"/>
      </g>
     </g>
    </g>
    <g id="xtick_4">
     <g id="line2d_4">
      <g>
       <use xlink:href="#m444eafcd04" x="280.26256" y="303.64" style="stroke: #000000; stroke-width: 0.8"/>
      </g>
     </g>
     <g id="text_4">
      <!-- 60 -->
      <g transform="translate(273.90006 318.238437) scale(0.1 -0.1)">
       <defs>
        <path id="DejaVuSans-36" d="M 2113 2584  Q 1688 2584 1439 2293  Q 1191 2003 1191 1497  Q 1191 994 1439 701  Q 1688 409 2113 409  Q 2538 409 2786 701  Q 3034 994 3034 1497  Q 3034 2003 2786 2293  Q 2538 2584 2113 2584  z M 3366 4563  L 3366 3988  Q 3128 4100 2886 4159  Q 2644 4219 2406 4219  Q 1781 4219 1451 3797  Q 1122 3375 1075 2522  Q 1259 2794 1537 2939  Q 1816 3084 2150 3084  Q 2853 3084 3261 2657  Q 3669 2231 3669 1497  Q 3669 778 3244 343  Q 2819 -91 2113 -91  Q 1303 -91 875 529  Q 447 1150 447 2328  Q 447 3434 972 4092  Q 1497 4750 2381 4750  Q 2619 4750 2861 4703  Q 3103 4656 3366 4563  z " transform="scale(0.015625)"/>
       </defs>
       <use xlink:href="#DejaVuSans-36"/>
       <use xlink:href="#DejaVuSans-30" x="63.623047"/>
      </g>
     </g>
    </g>
    <g id="xtick_5">
     <g id="line2d_5">
      <g>
       <use xlink:href="#m444eafcd04" x="357.856818" y="303.64" style="stroke: #000000; stroke-width: 0.8"/>
      </g>
     </g>
     <g id="text_5">
      <!-- 80 -->
      <g transform="translate(351.494318 318.238437) scale(0.1 -0.1)">
       <defs>
        <path id="DejaVuSans-38" d="M 2034 2216  Q 1584 2216 1326 1975  Q 1069 1734 1069 1313  Q 1069 891 1326 650  Q 1584 409 2034 409  Q 2484 409 2743 651  Q 3003 894 3003 1313  Q 3003 1734 2745 1975  Q 2488 2216 2034 2216  z M 1403 2484  Q 997 2584 770 2862  Q 544 3141 544 3541  Q 544 4100 942 4425  Q 1341 4750 2034 4750  Q 2731 4750 3128 4425  Q 3525 4100 3525 3541  Q 3525 3141 3298 2862  Q 3072 2584 2669 2484  Q 3125 2378 3379 2068  Q 3634 1759 3634 1313  Q 3634 634 3220 271  Q 2806 -91 2034 -91  Q 1263 -91 848 271  Q 434 634 434 1313  Q 434 1759 690 2068  Q 947 2378 1403 2484  z M 1172 3481  Q 1172 3119 1398 2916  Q 1625 2713 2034 2713  Q 2441 2713 2670 2916  Q 2900 3119 2900 3481  Q 2900 3844 2670 4047  Q 2441 4250 2034 4250  Q 1625 4250 1398 4047  Q 1172 3844 1172 3481  z " transform="scale(0.015625)"/>
       </defs>
       <use xlink:href="#DejaVuSans-38"/>
       <use xlink:href="#DejaVuSans-30" x="63.623047"/>
      </g>
     </g>
    </g>
    <g id="xtick_6">
     <g id="line2d_6">
      <g>
       <use xlink:href="#m444eafcd04" x="435.451077" y="303.64" style="stroke: #000000; stroke-width: 0.8"/>
      </g>
     </g>
     <g id="text_6">
      <!-- 100 -->
      <g transform="translate(425.907327 318.238437) scale(0.1 -0.1)">
       <defs>
        <path id="DejaVuSans-31" d="M 794 531  L 1825 531  L 1825 4091  L 703 3866  L 703 4441  L 1819 4666  L 2450 4666  L 2450 531  L 3481 531  L 3481 0  L 794 0  L 794 531  z " transform="scale(0.015625)"/>
       </defs>
       <use xlink:href="#DejaVuSans-31"/>
       <use xlink:href="#DejaVuSans-30" x="63.623047"/>
       <use xlink:href="#DejaVuSans-30" x="127.246094"/>
      </g>
     </g>
    </g>
    <g id="text_7">
     <!-- Length -->
     <g transform="translate(230.038125 331.916562) scale(0.1 -0.1)">
      <defs>
       <path id="DejaVuSans-4c" d="M 628 4666  L 1259 4666  L 1259 531  L 3531 531  L 3531 0  L 628 0  L 628 4666  z " transform="scale(0.015625)"/>
       <path id="DejaVuSans-65" d="M 3597 1894  L 3597 1613  L 953 1613  Q 991 1019 1311 708  Q 1631 397 2203 397  Q 2534 397 2845 478  Q 3156 559 3463 722  L 3463 178  Q 3153 47 2828 -22  Q 2503 -91 2169 -91  Q 1331 -91 842 396  Q 353 884 353 1716  Q 353 2575 817 3079  Q 1281 3584 2069 3584  Q 2775 3584 3186 3129  Q 3597 2675 3597 1894  z M 3022 2063  Q 3016 2534 2758 2815  Q 2500 3097 2075 3097  Q 1594 3097 1305 2825  Q 1016 2553 972 2059  L 3022 2063  z " transform="scale(0.015625)"/>
       <path id="DejaVuSans-6e" d="M 3513 2113  L 3513 0  L 2938 0  L 2938 2094  Q 2938 2591 2744 2837  Q 2550 3084 2163 3084  Q 1697 3084 1428 2787  Q 1159 2491 1159 1978  L 1159 0  L 581 0  L 581 3500  L 1159 3500  L 1159 2956  Q 1366 3272 1645 3428  Q 1925 3584 2291 3584  Q 2894 3584 3203 3211  Q 3513 2838 3513 2113  z " transform="scale(0.015625)"/>
       <path id="DejaVuSans-67" d="M 2906 1791  Q 2906 2416 2648 2759  Q 2391 3103 1925 3103  Q 1463 3103 1205 2759  Q 947 2416 947 1791  Q 947 1169 1205 825  Q 1463 481 1925 481  Q 2391 481 2648 825  Q 2906 1169 2906 1791  z M 3481 434  Q 3481 -459 3084 -895  Q 2688 -1331 1869 -1331  Q 1566 -1331 1297 -1286  Q 1028 -1241 775 -1147  L 775 -588  Q 1028 -725 1275 -790  Q 1522 -856 1778 -856  Q 2344 -856 2625 -561  Q 2906 -266 2906 331  L 2906 616  Q 2728 306 2450 153  Q 2172 0 1784 0  Q 1141 0 747 490  Q 353 981 353 1791  Q 353 2603 747 3093  Q 1141 3584 1784 3584  Q 2172 3584 2450 3431  Q 2728 3278 2906 2969  L 2906 3500  L 3481 3500  L 3481 434  z " transform="scale(0.015625)"/>
       <path id="DejaVuSans-74" d="M 1172 4494  L 1172 3500  L 2356 3500  L 2356 3053  L 1172 3053  L 1172 1153  Q 1172 725 1289 603  Q 1406 481 1766 481  L 2356 481  L 2356 0  L 1766 0  Q 1100 0 847 248  Q 594 497 594 1153  L 594 3053  L 172 3053  L 172 3500  L 594 3500  L 594 4494  L 1172 4494  z " transform="scale(0.015625)"/>
       <path id="DejaVuSans-68" d="M 3513 2113  L 3513 0  L 2938 0  L 2938 2094  Q 2938 2591 2744 2837  Q 2550 3084 2163 3084  Q 1697 3084 1428 2787  Q 1159 2491 1159 1978  L 1159 0  L 581 0  L 581 4863  L 1159 4863  L 1159 2956  Q 1366 3272 1645 3428  Q 1925 3584 2291 3584  Q 2894 3584 3203 3211  Q 3513 2838 3513 2113  z " transform="scale(0.015625)"/>
      </defs>
      <use xlink:href="#DejaVuSans-4c"/>
      <use xlink:href="#DejaVuSans-65" x="53.962891"/>
      <use xlink:href="#DejaVuSans-6e" x="115.486328"/>
      <use xlink:href="#DejaVuSans-67" x="178.865234"/>
      <use xlink:href="#DejaVuSans-74" x="242.341797"/>
      <use xlink:href="#DejaVuSans-68" x="281.550781"/>
     </g>
    </g>
   </g>
   <g id="matplotlib.axis_2">
    <g id="ytick_1">
     <g id="line2d_7">
      <defs>
       <path id="m047b25e181" d="M 0 0  L -3.5 0  " style="stroke: #000000; stroke-width: 0.8"/>
      </defs>
      <g>
       <use xlink:href="#m047b25e181" x="44.57" y="303.64" style="stroke: #000000; stroke-width: 0.8"/>
      </g>
     </g>
     <g id="text_8">
      <!-- 0 -->
      <g transform="translate(31.2075 307.439219) scale(0.1 -0.1)">
       <use xlink:href="#DejaVuSans-30"/>
      </g>
     </g>
    </g>
    <g id="ytick_2">
     <g id="line2d_8">
      <g>
       <use xlink:href="#m047b25e181" x="44.57" y="249.847969" style="stroke: #000000; stroke-width: 0.8"/>
      </g>
     </g>
     <g id="text_9">
      <!-- 10 -->
      <g transform="translate(24.845 253.647188) scale(0.1 -0.1)">
       <use xlink:href="#DejaVuSans-31"/>
       <use xlink:href="#DejaVuSans-30" x="63.623047"/>
      </g>
     </g>
    </g>
    <g id="ytick_3">
     <g id="line2d_9">
      <g>
       <use xlink:href="#m047b25e181" x="44.57" y="196.055938" style="stroke: #000000; stroke-width: 0.8"/>
      </g>
     </g>
     <g id="text_10">
      <!-- 20 -->
      <g transform="translate(24.845 199.855157) scale(0.1 -0.1)">
       <use xlink:href="#DejaVuSans-32"/>
       <use xlink:href="#DejaVuSans-30" x="63.623047"/>
      </g>
     </g>
    </g>
    <g id="ytick_4">
     <g id="line2d_10">
      <g>
       <use xlink:href="#m047b25e181" x="44.57" y="142.263907" style="stroke: #000000; stroke-width: 0.8"/>
      </g>
     </g>
     <g id="text_11">
      <!-- 30 -->
      <g transform="translate(24.845 146.063125) scale(0.1 -0.1)">
       <defs>
        <path id="DejaVuSans-33" d="M 2597 2516  Q 3050 2419 3304 2112  Q 3559 1806 3559 1356  Q 3559 666 3084 287  Q 2609 -91 1734 -91  Q 1441 -91 1130 -33  Q 819 25 488 141  L 488 750  Q 750 597 1062 519  Q 1375 441 1716 441  Q 2309 441 2620 675  Q 2931 909 2931 1356  Q 2931 1769 2642 2001  Q 2353 2234 1838 2234  L 1294 2234  L 1294 2753  L 1863 2753  Q 2328 2753 2575 2939  Q 2822 3125 2822 3475  Q 2822 3834 2567 4026  Q 2313 4219 1838 4219  Q 1578 4219 1281 4162  Q 984 4106 628 3988  L 628 4550  Q 988 4650 1302 4700  Q 1616 4750 1894 4750  Q 2613 4750 3031 4423  Q 3450 4097 3450 3541  Q 3450 3153 3228 2886  Q 3006 2619 2597 2516  z " transform="scale(0.015625)"/>
       </defs>
       <use xlink:href="#DejaVuSans-33"/>
       <use xlink:href="#DejaVuSans-30" x="63.623047"/>
      </g>
     </g>
    </g>
    <g id="ytick_5">
     <g id="line2d_11">
      <g>
       <use xlink:href="#m047b25e181" x="44.57" y="88.471876" style="stroke: #000000; stroke-width: 0.8"/>
      </g>
     </g>
     <g id="text_12">
      <!-- 40 -->
      <g transform="translate(24.845 92.271094) scale(0.1 -0.1)">
       <use xlink:href="#DejaVuSans-34"/>
       <use xlink:href="#DejaVuSans-30" x="63.623047"/>
      </g>
     </g>
    </g>
    <g id="ytick_6">
     <g id="line2d_12">
      <g>
       <use xlink:href="#m047b25e181" x="44.57" y="34.679845" style="stroke: #000000; stroke-width: 0.8"/>
      </g>
     </g>
     <g id="text_13">
      <!-- 50 -->
      <g transform="translate(24.845 38.479063) scale(0.1 -0.1)">
       <defs>
        <path id="DejaVuSans-35" d="M 691 4666  L 3169 4666  L 3169 4134  L 1269 4134  L 1269 2991  Q 1406 3038 1543 3061  Q 1681 3084 1819 3084  Q 2600 3084 3056 2656  Q 3513 2228 3513 1497  Q 3513 744 3044 326  Q 2575 -91 1722 -91  Q 1428 -91 1123 -41  Q 819 9 494 109  L 494 744  Q 775 591 1075 516  Q 1375 441 1709 441  Q 2250 441 2565 725  Q 2881 1009 2881 1497  Q 2881 1984 2565 2268  Q 2250 2553 1709 2553  Q 1456 2553 1204 2497  Q 953 2441 691 2322  L 691 4666  z " transform="scale(0.015625)"/>
       </defs>
       <use xlink:href="#DejaVuSans-35"/>
       <use xlink:href="#DejaVuSans-30" x="63.623047"/>
      </g>
     </g>
    </g>
    <g id="text_14">
     <!-- Number of AMPs -->
     <g transform="translate(18.765313 206.61) rotate(-90) scale(0.1 -0.1)">
      <defs>
       <path id="DejaVuSans-4e" d="M 628 4666  L 1478 4666  L 3547 763  L 3547 4666  L 4159 4666  L 4159 0  L 3309 0  L 1241 3903  L 1241 0  L 628 0  L 628 4666  z " transform="scale(0.015625)"/>
       <path id="DejaVuSans-75" d="M 544 1381  L 544 3500  L 1119 3500  L 1119 1403  Q 1119 906 1312 657  Q 1506 409 1894 409  Q 2359 409 2629 706  Q 2900 1003 2900 1516  L 2900 3500  L 3475 3500  L 3475 0  L 2900 0  L 2900 538  Q 2691 219 2414 64  Q 2138 -91 1772 -91  Q 1169 -91 856 284  Q 544 659 544 1381  z M 1991 3584  L 1991 3584  z " transform="scale(0.015625)"/>
       <path id="DejaVuSans-6d" d="M 3328 2828  Q 3544 3216 3844 3400  Q 4144 3584 4550 3584  Q 5097 3584 5394 3201  Q 5691 2819 5691 2113  L 5691 0  L 5113 0  L 5113 2094  Q 5113 2597 4934 2840  Q 4756 3084 4391 3084  Q 3944 3084 3684 2787  Q 3425 2491 3425 1978  L 3425 0  L 2847 0  L 2847 2094  Q 2847 2600 2669 2842  Q 2491 3084 2119 3084  Q 1678 3084 1418 2786  Q 1159 2488 1159 1978  L 1159 0  L 581 0  L 581 3500  L 1159 3500  L 1159 2956  Q 1356 3278 1631 3431  Q 1906 3584 2284 3584  Q 2666 3584 2933 3390  Q 3200 3197 3328 2828  z " transform="scale(0.015625)"/>
       <path id="DejaVuSans-62" d="M 3116 1747  Q 3116 2381 2855 2742  Q 2594 3103 2138 3103  Q 1681 3103 1420 2742  Q 1159 2381 1159 1747  Q 1159 1113 1420 752  Q 1681 391 2138 391  Q 2594 391 2855 752  Q 3116 1113 3116 1747  z M 1159 2969  Q 1341 3281 1617 3432  Q 1894 3584 2278 3584  Q 2916 3584 3314 3078  Q 3713 2572 3713 1747  Q 3713 922 3314 415  Q 2916 -91 2278 -91  Q 1894 -91 1617 61  Q 1341 213 1159 525  L 1159 0  L 581 0  L 581 4863  L 1159 4863  L 1159 2969  z " transform="scale(0.015625)"/>
       <path id="DejaVuSans-72" d="M 2631 2963  Q 2534 3019 2420 3045  Q 2306 3072 2169 3072  Q 1681 3072 1420 2755  Q 1159 2438 1159 1844  L 1159 0  L 581 0  L 581 3500  L 1159 3500  L 1159 2956  Q 1341 3275 1631 3429  Q 1922 3584 2338 3584  Q 2397 3584 2469 3576  Q 2541 3569 2628 3553  L 2631 2963  z " transform="scale(0.015625)"/>
       <path id="DejaVuSans-20" transform="scale(0.015625)"/>
       <path id="DejaVuSans-6f" d="M 1959 3097  Q 1497 3097 1228 2736  Q 959 2375 959 1747  Q 959 1119 1226 758  Q 1494 397 1959 397  Q 2419 397 2687 759  Q 2956 1122 2956 1747  Q 2956 2369 2687 2733  Q 2419 3097 1959 3097  z M 1959 3584  Q 2709 3584 3137 3096  Q 3566 2609 3566 1747  Q 3566 888 3137 398  Q 2709 -91 1959 -91  Q 1206 -91 779 398  Q 353 888 353 1747  Q 353 2609 779 3096  Q 1206 3584 1959 3584  z " transform="scale(0.015625)"/>
       <path id="DejaVuSans-66" d="M 2375 4863  L 2375 4384  L 1825 4384  Q 1516 4384 1395 4259  Q 1275 4134 1275 3809  L 1275 3500  L 2222 3500  L 2222 3053  L 1275 3053  L 1275 0  L 697 0  L 697 3053  L 147 3053  L 147 3500  L 697 3500  L 697 3744  Q 697 4328 969 4595  Q 1241 4863 1831 4863  L 2375 4863  z " transform="scale(0.015625)"/>
       <path id="DejaVuSans-41" d="M 2188 4044  L 1331 1722  L 3047 1722  L 2188 4044  z M 1831 4666  L 2547 4666  L 4325 0  L 3669 0  L 3244 1197  L 1141 1197  L 716 0  L 50 0  L 1831 4666  z " transform="scale(0.015625)"/>
       <path id="DejaVuSans-4d" d="M 628 4666  L 1569 4666  L 2759 1491  L 3956 4666  L 4897 4666  L 4897 0  L 4281 0  L 4281 4097  L 3078 897  L 2444 897  L 1241 4097  L 1241 0  L 628 0  L 628 4666  z " transform="scale(0.015625)"/>
       <path id="DejaVuSans-50" d="M 1259 4147  L 1259 2394  L 2053 2394  Q 2494 2394 2734 2622  Q 2975 2850 2975 3272  Q 2975 3691 2734 3919  Q 2494 4147 2053 4147  L 1259 4147  z M 628 4666  L 2053 4666  Q 2838 4666 3239 4311  Q 3641 3956 3641 3272  Q 3641 2581 3239 2228  Q 2838 1875 2053 1875  L 1259 1875  L 1259 0  L 628 0  L 628 4666  z " transform="scale(0.015625)"/>
       <path id="DejaVuSans-73" d="M 2834 3397  L 2834 2853  Q 2591 2978 2328 3040  Q 2066 3103 1784 3103  Q 1356 3103 1142 2972  Q 928 2841 928 2578  Q 928 2378 1081 2264  Q 1234 2150 1697 2047  L 1894 2003  Q 2506 1872 2764 1633  Q 3022 1394 3022 966  Q 3022 478 2636 193  Q 2250 -91 1575 -91  Q 1294 -91 989 -36  Q 684 19 347 128  L 347 722  Q 666 556 975 473  Q 1284 391 1588 391  Q 1994 391 2212 530  Q 2431 669 2431 922  Q 2431 1156 2273 1281  Q 2116 1406 1581 1522  L 1381 1569  Q 847 1681 609 1914  Q 372 2147 372 2553  Q 372 3047 722 3315  Q 1072 3584 1716 3584  Q 2034 3584 2315 3537  Q 2597 3491 2834 3397  z " transform="scale(0.015625)"/>
      </defs>
      <use xlink:href="#DejaVuSans-4e"/>
      <use xlink:href="#DejaVuSans-75" x="74.804688"/>
      <use xlink:href="#DejaVuSans-6d" x="138.183594"/>
      <use xlink:href="#DejaVuSans-62" x="235.595703"/>
      <use xlink:href="#DejaVuSans-65" x="299.072266"/>
      <use xlink:href="#DejaVuSans-72" x="360.595703"/>
      <use xlink:href="#DejaVuSans-20" x="401.708984"/>
      <use xlink:href="#DejaVuSans-6f" x="433.496094"/>
      <use xlink:href="#DejaVuSans-66" x="494.677734"/>
      <use xlink:href="#DejaVuSans-20" x="529.882812"/>
      <use xlink:href="#DejaVuSans-41" x="561.669922"/>
      <use xlink:href="#DejaVuSans-4d" x="630.078125"/>
      <use xlink:href="#DejaVuSans-50" x="716.357422"/>
      <use xlink:href="#DejaVuSans-73" x="774.910156"/>
     </g>
    </g>
   </g>
   <g id="line2d_13">
    <path d="M 141.590535 303.64  L 141.590535 26.88  " clip-path="url(#p75d374d1c2)" style="fill: none; stroke: #1f77b4; stroke-width: 1.5; stroke-linecap: square"/>
   </g>
   <g id="patch_53">
    <path d="M 44.57 303.64  L 44.57 26.88  " style="fill: none; stroke: #000000; stroke-width: 0.8; stroke-linejoin: miter; stroke-linecap: square"/>
   </g>
   <g id="patch_54">
    <path d="M 450 303.64  L 450 26.88  " style="fill: none; stroke: #000000; stroke-width: 0.8; stroke-linejoin: miter; stroke-linecap: square"/>
   </g>
   <g id="patch_55">
    <path d="M 44.57 303.64  L 450 303.64  " style="fill: none; stroke: #000000; stroke-width: 0.8; stroke-linejoin: miter; stroke-linecap: square"/>
   </g>
   <g id="patch_56">
    <path d="M 44.57 26.88  L 450 26.88  " style="fill: none; stroke: #000000; stroke-width: 0.8; stroke-linejoin: miter; stroke-linecap: square"/>
   </g>
   <g id="text_15">
    <!-- Predicted AMPs length distribution -->
    <g transform="translate(144.16375 20.88) scale(0.12 -0.12)">
     <defs>
      <path id="DejaVuSans-64" d="M 2906 2969  L 2906 4863  L 3481 4863  L 3481 0  L 2906 0  L 2906 525  Q 2725 213 2448 61  Q 2172 -91 1784 -91  Q 1150 -91 751 415  Q 353 922 353 1747  Q 353 2572 751 3078  Q 1150 3584 1784 3584  Q 2172 3584 2448 3432  Q 2725 3281 2906 2969  z M 947 1747  Q 947 1113 1208 752  Q 1469 391 1925 391  Q 2381 391 2643 752  Q 2906 1113 2906 1747  Q 2906 2381 2643 2742  Q 2381 3103 1925 3103  Q 1469 3103 1208 2742  Q 947 2381 947 1747  z " transform="scale(0.015625)"/>
      <path id="DejaVuSans-69" d="M 603 3500  L 1178 3500  L 1178 0  L 603 0  L 603 3500  z M 603 4863  L 1178 4863  L 1178 4134  L 603 4134  L 603 4863  z " transform="scale(0.015625)"/>
      <path id="DejaVuSans-63" d="M 3122 3366  L 3122 2828  Q 2878 2963 2633 3030  Q 2388 3097 2138 3097  Q 1578 3097 1268 2742  Q 959 2388 959 1747  Q 959 1106 1268 751  Q 1578 397 2138 397  Q 2388 397 2633 464  Q 2878 531 3122 666  L 3122 134  Q 2881 22 2623 -34  Q 2366 -91 2075 -91  Q 1284 -91 818 406  Q 353 903 353 1747  Q 353 2603 823 3093  Q 1294 3584 2113 3584  Q 2378 3584 2631 3529  Q 2884 3475 3122 3366  z " transform="scale(0.015625)"/>
      <path id="DejaVuSans-6c" d="M 603 4863  L 1178 4863  L 1178 0  L 603 0  L 603 4863  z " transform="scale(0.015625)"/>
     </defs>
     <use xlink:href="#DejaVuSans-50"/>
     <use xlink:href="#DejaVuSans-72" x="58.552734"/>
     <use xlink:href="#DejaVuSans-65" x="97.416016"/>
     <use xlink:href="#DejaVuSans-64" x="158.939453"/>
     <use xlink:href="#DejaVuSans-69" x="222.416016"/>
     <use xlink:href="#DejaVuSans-63" x="250.199219"/>
     <use xlink:href="#DejaVuSans-74" x="305.179688"/>
     <use xlink:href="#DejaVuSans-65" x="344.388672"/>
     <use xlink:href="#DejaVuSans-64" x="405.912109"/>
     <use xlink:href="#DejaVuSans-20" x="469.388672"/>
     <use xlink:href="#DejaVuSans-41" x="501.175781"/>
     <use xlink:href="#DejaVuSans-4d" x="569.583984"/>
     <use xlink:href="#DejaVuSans-50" x="655.863281"/>
     <use xlink:href="#DejaVuSans-73" x="714.416016"/>
     <use xlink:href="#DejaVuSans-20" x="766.515625"/>
     <use xlink:href="#DejaVuSans-6c" x="798.302734"/>
     <use xlink:href="#DejaVuSans-65" x="826.085938"/>
     <use xlink:href="#DejaVuSans-6e" x="887.609375"/>
     <use xlink:href="#DejaVuSans-67" x="950.988281"/>
     <use xlink:href="#DejaVuSans-74" x="1014.464844"/>
     <use xlink:href="#DejaVuSans-68" x="1053.673828"/>
     <use xlink:href="#DejaVuSans-20" x="1117.052734"/>
     <use xlink:href="#DejaVuSans-64" x="1148.839844"/>
     <use xlink:href="#DejaVuSans-69" x="1212.316406"/>
     <use xlink:href="#DejaVuSans-73" x="1240.099609"/>
     <use xlink:href="#DejaVuSans-74" x="1292.199219"/>
     <use xlink:href="#DejaVuSans-72" x="1331.408203"/>
     <use xlink:href="#DejaVuSans-69" x="1372.521484"/>
     <use xlink:href="#DejaVuSans-62" x="1400.304688"/>
     <use xlink:href="#DejaVuSans-75" x="1463.78125"/>
     <use xlink:href="#DejaVuSans-74" x="1527.160156"/>
     <use xlink:href="#DejaVuSans-69" x="1566.369141"/>
     <use xlink:href="#DejaVuSans-6f" x="1594.152344"/>
     <use xlink:href="#DejaVuSans-6e" x="1655.333984"/>
    </g>
   </g>
   <g id="legend_1">
    <g id="patch_57">
     <path d="M 439 39.88  L 443 39.88  Q 445 39.88 445 37.88  L 445 33.88  Q 445 31.88 443 31.88  L 439 31.88  Q 437 31.88 437 33.88  L 437 37.88  Q 437 39.88 439 39.88  z " style="fill: #ffffff; opacity: 0.8; stroke: #cccccc; stroke-linejoin: miter"/>
    </g>
   </g>
  </g>
 </g>
 <defs>
  <clipPath id="p75d374d1c2">
   <rect x="44.57" y="26.88" width="405.43" height="276.76"/>
  </clipPath>
 </defs>
</g>
  </g>
  <g>
    <text x="5" y="15" font-size="12" font-family="Verdana" font-weight="bold" letter-spacing="0" text-anchor="start" fill="black">A</text>
    <text x="140" y="15" font-size="12" font-family="Verdana" font-weight="bold" letter-spacing="0" text-anchor="start" fill="black">B</text>
  </g>
</svg>
