<?xml version="1.0" encoding="utf-8" standalone="no"?>
<!DOCTYPE svg PUBLIC "-//W3C//DTD SVG 1.1//EN"
  "http://www.w3.org/Graphics/SVG/1.1/DTD/svg11.dtd">
<svg xmlns:xlink="http://www.w3.org/1999/xlink" width="460.8pt" height="345.6pt" viewBox="0 0 460.8 345.6" xmlns="http://www.w3.org/2000/svg" version="1.1">
 <metadata>
  <rdf:RDF xmlns:dc="http://purl.org/dc/elements/1.1/" xmlns:cc="http://creativecommons.org/ns#" xmlns:rdf="http://www.w3.org/1999/02/22-rdf-syntax-ns#">
   <cc:Work>
    <dc:type rdf:resource="http://purl.org/dc/dcmitype/StillImage"/>
    <dc:date>2024-06-22T20:08:10.295257</dc:date>
    <dc:format>image/svg+xml</dc:format>
    <dc:creator>
     <cc:Agent>
      <dc:title>Matplotlib v3.6.0, https://matplotlib.org/</dc:title>
     </cc:Agent>
    </dc:creator>
   </cc:Work>
  </rdf:RDF>
 </metadata>
 <defs>
  <style type="text/css">*{stroke-linejoin: round; stroke-linecap: butt}</style>
 </defs>
 <g id="figure_1">
  <g id="patch_1">
   <path d="M 0 345.6 
L 460.8 345.6 
L 460.8 0 
L 0 0 
z
" style="fill: #ffffff"/>
  </g>
  <g id="axes_1">
   <g id="patch_2">
    <path d="M 57.6 307.584 
L 414.72 307.584 
L 414.72 41.472 
L 57.6 41.472 
z
" style="fill: #ffffff"/>
   </g>
   <g id="PolyCollection_1"/>
   <g id="matplotlib.axis_1">
    <g id="xtick_1">
     <g id="line2d_1">
      <defs>
       <path id="m8dde3878ef" d="M 0 0 
L 0 3.5 
" style="stroke: #000000; stroke-width: 0.8"/>
      </defs>
      <g>
       <use xlink:href="#m8dde3878ef" x="96.544661" y="307.584" style="stroke: #000000; stroke-width: 0.8"/>
      </g>
     </g>
     <g id="text_1">
      <!-- 6000 -->
      <g transform="translate(83.819661 322.182437) scale(0.1 -0.1)">
       <defs>
        <path id="DejaVuSans-36" d="M 2113 2584 
Q 1688 2584 1439 2293 
Q 1191 2003 1191 1497 
Q 1191 994 1439 701 
Q 1688 409 2113 409 
Q 2538 409 2786 701 
Q 3034 994 3034 1497 
Q 3034 2003 2786 2293 
Q 2538 2584 2113 2584 
z
M 3366 4563 
L 3366 3988 
Q 3128 4100 2886 4159 
Q 2644 4219 2406 4219 
Q 1781 4219 1451 3797 
Q 1122 3375 1075 2522 
Q 1259 2794 1537 2939 
Q 1816 3084 2150 3084 
Q 2853 3084 3261 2657 
Q 3669 2231 3669 1497 
Q 3669 778 3244 343 
Q 2819 -91 2113 -91 
Q 1303 -91 875 529 
Q 447 1150 447 2328 
Q 447 3434 972 4092 
Q 1497 4750 2381 4750 
Q 2619 4750 2861 4703 
Q 3103 4656 3366 4563 
z
" transform="scale(0.015625)"/>
        <path id="DejaVuSans-30" d="M 2034 4250 
Q 1547 4250 1301 3770 
Q 1056 3291 1056 2328 
Q 1056 1369 1301 889 
Q 1547 409 2034 409 
Q 2525 409 2770 889 
Q 3016 1369 3016 2328 
Q 3016 3291 2770 3770 
Q 2525 4250 2034 4250 
z
M 2034 4750 
Q 2819 4750 3233 4129 
Q 3647 3509 3647 2328 
Q 3647 1150 3233 529 
Q 2819 -91 2034 -91 
Q 1250 -91 836 529 
Q 422 1150 422 2328 
Q 422 3509 836 4129 
Q 1250 4750 2034 4750 
z
" transform="scale(0.015625)"/>
       </defs>
       <use xlink:href="#DejaVuSans-36"/>
       <use xlink:href="#DejaVuSans-30" x="63.623047"/>
       <use xlink:href="#DejaVuSans-30" x="127.246094"/>
       <use xlink:href="#DejaVuSans-30" x="190.869141"/>
      </g>
     </g>
    </g>
    <g id="xtick_2">
     <g id="line2d_2">
      <g>
       <use xlink:href="#m8dde3878ef" x="160.179729" y="307.584" style="stroke: #000000; stroke-width: 0.8"/>
      </g>
     </g>
     <g id="text_2">
      <!-- 8000 -->
      <g transform="translate(147.454729 322.182437) scale(0.1 -0.1)">
       <defs>
        <path id="DejaVuSans-38" d="M 2034 2216 
Q 1584 2216 1326 1975 
Q 1069 1734 1069 1313 
Q 1069 891 1326 650 
Q 1584 409 2034 409 
Q 2484 409 2743 651 
Q 3003 894 3003 1313 
Q 3003 1734 2745 1975 
Q 2488 2216 2034 2216 
z
M 1403 2484 
Q 997 2584 770 2862 
Q 544 3141 544 3541 
Q 544 4100 942 4425 
Q 1341 4750 2034 4750 
Q 2731 4750 3128 4425 
Q 3525 4100 3525 3541 
Q 3525 3141 3298 2862 
Q 3072 2584 2669 2484 
Q 3125 2378 3379 2068 
Q 3634 1759 3634 1313 
Q 3634 634 3220 271 
Q 2806 -91 2034 -91 
Q 1263 -91 848 271 
Q 434 634 434 1313 
Q 434 1759 690 2068 
Q 947 2378 1403 2484 
z
M 1172 3481 
Q 1172 3119 1398 2916 
Q 1625 2713 2034 2713 
Q 2441 2713 2670 2916 
Q 2900 3119 2900 3481 
Q 2900 3844 2670 4047 
Q 2441 4250 2034 4250 
Q 1625 4250 1398 4047 
Q 1172 3844 1172 3481 
z
" transform="scale(0.015625)"/>
       </defs>
       <use xlink:href="#DejaVuSans-38"/>
       <use xlink:href="#DejaVuSans-30" x="63.623047"/>
       <use xlink:href="#DejaVuSans-30" x="127.246094"/>
       <use xlink:href="#DejaVuSans-30" x="190.869141"/>
      </g>
     </g>
    </g>
    <g id="xtick_3">
     <g id="line2d_3">
      <g>
       <use xlink:href="#m8dde3878ef" x="223.814797" y="307.584" style="stroke: #000000; stroke-width: 0.8"/>
      </g>
     </g>
     <g id="text_3">
      <!-- 10000 -->
      <g transform="translate(207.908547 322.182437) scale(0.1 -0.1)">
       <defs>
        <path id="DejaVuSans-31" d="M 794 531 
L 1825 531 
L 1825 4091 
L 703 3866 
L 703 4441 
L 1819 4666 
L 2450 4666 
L 2450 531 
L 3481 531 
L 3481 0 
L 794 0 
L 794 531 
z
" transform="scale(0.015625)"/>
       </defs>
       <use xlink:href="#DejaVuSans-31"/>
       <use xlink:href="#DejaVuSans-30" x="63.623047"/>
       <use xlink:href="#DejaVuSans-30" x="127.246094"/>
       <use xlink:href="#DejaVuSans-30" x="190.869141"/>
       <use xlink:href="#DejaVuSans-30" x="254.492188"/>
      </g>
     </g>
    </g>
    <g id="xtick_4">
     <g id="line2d_4">
      <g>
       <use xlink:href="#m8dde3878ef" x="287.449865" y="307.584" style="stroke: #000000; stroke-width: 0.8"/>
      </g>
     </g>
     <g id="text_4">
      <!-- 12000 -->
      <g transform="translate(271.543615 322.182437) scale(0.1 -0.1)">
       <defs>
        <path id="DejaVuSans-32" d="M 1228 531 
L 3431 531 
L 3431 0 
L 469 0 
L 469 531 
Q 828 903 1448 1529 
Q 2069 2156 2228 2338 
Q 2531 2678 2651 2914 
Q 2772 3150 2772 3378 
Q 2772 3750 2511 3984 
Q 2250 4219 1831 4219 
Q 1534 4219 1204 4116 
Q 875 4013 500 3803 
L 500 4441 
Q 881 4594 1212 4672 
Q 1544 4750 1819 4750 
Q 2544 4750 2975 4387 
Q 3406 4025 3406 3419 
Q 3406 3131 3298 2873 
Q 3191 2616 2906 2266 
Q 2828 2175 2409 1742 
Q 1991 1309 1228 531 
z
" transform="scale(0.015625)"/>
       </defs>
       <use xlink:href="#DejaVuSans-31"/>
       <use xlink:href="#DejaVuSans-32" x="63.623047"/>
       <use xlink:href="#DejaVuSans-30" x="127.246094"/>
       <use xlink:href="#DejaVuSans-30" x="190.869141"/>
       <use xlink:href="#DejaVuSans-30" x="254.492188"/>
      </g>
     </g>
    </g>
    <g id="xtick_5">
     <g id="line2d_5">
      <g>
       <use xlink:href="#m8dde3878ef" x="351.084932" y="307.584" style="stroke: #000000; stroke-width: 0.8"/>
      </g>
     </g>
     <g id="text_5">
      <!-- 14000 -->
      <g transform="translate(335.178682 322.182437) scale(0.1 -0.1)">
       <defs>
        <path id="DejaVuSans-34" d="M 2419 4116 
L 825 1625 
L 2419 1625 
L 2419 4116 
z
M 2253 4666 
L 3047 4666 
L 3047 1625 
L 3713 1625 
L 3713 1100 
L 3047 1100 
L 3047 0 
L 2419 0 
L 2419 1100 
L 313 1100 
L 313 1709 
L 2253 4666 
z
" transform="scale(0.015625)"/>
       </defs>
       <use xlink:href="#DejaVuSans-31"/>
       <use xlink:href="#DejaVuSans-34" x="63.623047"/>
       <use xlink:href="#DejaVuSans-30" x="127.246094"/>
       <use xlink:href="#DejaVuSans-30" x="190.869141"/>
       <use xlink:href="#DejaVuSans-30" x="254.492188"/>
      </g>
     </g>
    </g>
    <g id="xtick_6">
     <g id="line2d_6">
      <g>
       <use xlink:href="#m8dde3878ef" x="414.72" y="307.584" style="stroke: #000000; stroke-width: 0.8"/>
      </g>
     </g>
     <g id="text_6">
      <!-- 16000 -->
      <g transform="translate(398.81375 322.182437) scale(0.1 -0.1)">
       <use xlink:href="#DejaVuSans-31"/>
       <use xlink:href="#DejaVuSans-36" x="63.623047"/>
       <use xlink:href="#DejaVuSans-30" x="127.246094"/>
       <use xlink:href="#DejaVuSans-30" x="190.869141"/>
       <use xlink:href="#DejaVuSans-30" x="254.492188"/>
      </g>
     </g>
    </g>
    <g id="text_7">
     <!-- Nucleotide position -->
     <g transform="translate(187.982656 335.860562) scale(0.1 -0.1)">
      <defs>
       <path id="DejaVuSans-4e" d="M 628 4666 
L 1478 4666 
L 3547 763 
L 3547 4666 
L 4159 4666 
L 4159 0 
L 3309 0 
L 1241 3903 
L 1241 0 
L 628 0 
L 628 4666 
z
" transform="scale(0.015625)"/>
       <path id="DejaVuSans-75" d="M 544 1381 
L 544 3500 
L 1119 3500 
L 1119 1403 
Q 1119 906 1312 657 
Q 1506 409 1894 409 
Q 2359 409 2629 706 
Q 2900 1003 2900 1516 
L 2900 3500 
L 3475 3500 
L 3475 0 
L 2900 0 
L 2900 538 
Q 2691 219 2414 64 
Q 2138 -91 1772 -91 
Q 1169 -91 856 284 
Q 544 659 544 1381 
z
M 1991 3584 
L 1991 3584 
z
" transform="scale(0.015625)"/>
       <path id="DejaVuSans-63" d="M 3122 3366 
L 3122 2828 
Q 2878 2963 2633 3030 
Q 2388 3097 2138 3097 
Q 1578 3097 1268 2742 
Q 959 2388 959 1747 
Q 959 1106 1268 751 
Q 1578 397 2138 397 
Q 2388 397 2633 464 
Q 2878 531 3122 666 
L 3122 134 
Q 2881 22 2623 -34 
Q 2366 -91 2075 -91 
Q 1284 -91 818 406 
Q 353 903 353 1747 
Q 353 2603 823 3093 
Q 1294 3584 2113 3584 
Q 2378 3584 2631 3529 
Q 2884 3475 3122 3366 
z
" transform="scale(0.015625)"/>
       <path id="DejaVuSans-6c" d="M 603 4863 
L 1178 4863 
L 1178 0 
L 603 0 
L 603 4863 
z
" transform="scale(0.015625)"/>
       <path id="DejaVuSans-65" d="M 3597 1894 
L 3597 1613 
L 953 1613 
Q 991 1019 1311 708 
Q 1631 397 2203 397 
Q 2534 397 2845 478 
Q 3156 559 3463 722 
L 3463 178 
Q 3153 47 2828 -22 
Q 2503 -91 2169 -91 
Q 1331 -91 842 396 
Q 353 884 353 1716 
Q 353 2575 817 3079 
Q 1281 3584 2069 3584 
Q 2775 3584 3186 3129 
Q 3597 2675 3597 1894 
z
M 3022 2063 
Q 3016 2534 2758 2815 
Q 2500 3097 2075 3097 
Q 1594 3097 1305 2825 
Q 1016 2553 972 2059 
L 3022 2063 
z
" transform="scale(0.015625)"/>
       <path id="DejaVuSans-6f" d="M 1959 3097 
Q 1497 3097 1228 2736 
Q 959 2375 959 1747 
Q 959 1119 1226 758 
Q 1494 397 1959 397 
Q 2419 397 2687 759 
Q 2956 1122 2956 1747 
Q 2956 2369 2687 2733 
Q 2419 3097 1959 3097 
z
M 1959 3584 
Q 2709 3584 3137 3096 
Q 3566 2609 3566 1747 
Q 3566 888 3137 398 
Q 2709 -91 1959 -91 
Q 1206 -91 779 398 
Q 353 888 353 1747 
Q 353 2609 779 3096 
Q 1206 3584 1959 3584 
z
" transform="scale(0.015625)"/>
       <path id="DejaVuSans-74" d="M 1172 4494 
L 1172 3500 
L 2356 3500 
L 2356 3053 
L 1172 3053 
L 1172 1153 
Q 1172 725 1289 603 
Q 1406 481 1766 481 
L 2356 481 
L 2356 0 
L 1766 0 
Q 1100 0 847 248 
Q 594 497 594 1153 
L 594 3053 
L 172 3053 
L 172 3500 
L 594 3500 
L 594 4494 
L 1172 4494 
z
" transform="scale(0.015625)"/>
       <path id="DejaVuSans-69" d="M 603 3500 
L 1178 3500 
L 1178 0 
L 603 0 
L 603 3500 
z
M 603 4863 
L 1178 4863 
L 1178 4134 
L 603 4134 
L 603 4863 
z
" transform="scale(0.015625)"/>
       <path id="DejaVuSans-64" d="M 2906 2969 
L 2906 4863 
L 3481 4863 
L 3481 0 
L 2906 0 
L 2906 525 
Q 2725 213 2448 61 
Q 2172 -91 1784 -91 
Q 1150 -91 751 415 
Q 353 922 353 1747 
Q 353 2572 751 3078 
Q 1150 3584 1784 3584 
Q 2172 3584 2448 3432 
Q 2725 3281 2906 2969 
z
M 947 1747 
Q 947 1113 1208 752 
Q 1469 391 1925 391 
Q 2381 391 2643 752 
Q 2906 1113 2906 1747 
Q 2906 2381 2643 2742 
Q 2381 3103 1925 3103 
Q 1469 3103 1208 2742 
Q 947 2381 947 1747 
z
" transform="scale(0.015625)"/>
       <path id="DejaVuSans-20" transform="scale(0.015625)"/>
       <path id="DejaVuSans-70" d="M 1159 525 
L 1159 -1331 
L 581 -1331 
L 581 3500 
L 1159 3500 
L 1159 2969 
Q 1341 3281 1617 3432 
Q 1894 3584 2278 3584 
Q 2916 3584 3314 3078 
Q 3713 2572 3713 1747 
Q 3713 922 3314 415 
Q 2916 -91 2278 -91 
Q 1894 -91 1617 61 
Q 1341 213 1159 525 
z
M 3116 1747 
Q 3116 2381 2855 2742 
Q 2594 3103 2138 3103 
Q 1681 3103 1420 2742 
Q 1159 2381 1159 1747 
Q 1159 1113 1420 752 
Q 1681 391 2138 391 
Q 2594 391 2855 752 
Q 3116 1113 3116 1747 
z
" transform="scale(0.015625)"/>
       <path id="DejaVuSans-73" d="M 2834 3397 
L 2834 2853 
Q 2591 2978 2328 3040 
Q 2066 3103 1784 3103 
Q 1356 3103 1142 2972 
Q 928 2841 928 2578 
Q 928 2378 1081 2264 
Q 1234 2150 1697 2047 
L 1894 2003 
Q 2506 1872 2764 1633 
Q 3022 1394 3022 966 
Q 3022 478 2636 193 
Q 2250 -91 1575 -91 
Q 1294 -91 989 -36 
Q 684 19 347 128 
L 347 722 
Q 666 556 975 473 
Q 1284 391 1588 391 
Q 1994 391 2212 530 
Q 2431 669 2431 922 
Q 2431 1156 2273 1281 
Q 2116 1406 1581 1522 
L 1381 1569 
Q 847 1681 609 1914 
Q 372 2147 372 2553 
Q 372 3047 722 3315 
Q 1072 3584 1716 3584 
Q 2034 3584 2315 3537 
Q 2597 3491 2834 3397 
z
" transform="scale(0.015625)"/>
       <path id="DejaVuSans-6e" d="M 3513 2113 
L 3513 0 
L 2938 0 
L 2938 2094 
Q 2938 2591 2744 2837 
Q 2550 3084 2163 3084 
Q 1697 3084 1428 2787 
Q 1159 2491 1159 1978 
L 1159 0 
L 581 0 
L 581 3500 
L 1159 3500 
L 1159 2956 
Q 1366 3272 1645 3428 
Q 1925 3584 2291 3584 
Q 2894 3584 3203 3211 
Q 3513 2838 3513 2113 
z
" transform="scale(0.015625)"/>
      </defs>
      <use xlink:href="#DejaVuSans-4e"/>
      <use xlink:href="#DejaVuSans-75" x="74.804688"/>
      <use xlink:href="#DejaVuSans-63" x="138.183594"/>
      <use xlink:href="#DejaVuSans-6c" x="193.164062"/>
      <use xlink:href="#DejaVuSans-65" x="220.947266"/>
      <use xlink:href="#DejaVuSans-6f" x="282.470703"/>
      <use xlink:href="#DejaVuSans-74" x="343.652344"/>
      <use xlink:href="#DejaVuSans-69" x="382.861328"/>
      <use xlink:href="#DejaVuSans-64" x="410.644531"/>
      <use xlink:href="#DejaVuSans-65" x="474.121094"/>
      <use xlink:href="#DejaVuSans-20" x="535.644531"/>
      <use xlink:href="#DejaVuSans-70" x="567.431641"/>
      <use xlink:href="#DejaVuSans-6f" x="630.908203"/>
      <use xlink:href="#DejaVuSans-73" x="692.089844"/>
      <use xlink:href="#DejaVuSans-69" x="744.189453"/>
      <use xlink:href="#DejaVuSans-74" x="771.972656"/>
      <use xlink:href="#DejaVuSans-69" x="811.181641"/>
      <use xlink:href="#DejaVuSans-6f" x="838.964844"/>
      <use xlink:href="#DejaVuSans-6e" x="900.146484"/>
     </g>
    </g>
   </g>
   <g id="matplotlib.axis_2">
    <g id="ytick_1">
     <g id="line2d_7">
      <defs>
       <path id="m26f974ade8" d="M 0 0 
L -3.5 0 
" style="stroke: #000000; stroke-width: 0.8"/>
      </defs>
      <g>
       <use xlink:href="#m26f974ade8" x="57.6" y="295.488" style="stroke: #000000; stroke-width: 0.8"/>
      </g>
     </g>
     <g id="text_8">
      <!-- 0 -->
      <g transform="translate(44.2375 299.287219) scale(0.1 -0.1)">
       <use xlink:href="#DejaVuSans-30"/>
      </g>
     </g>
    </g>
    <g id="ytick_2">
     <g id="line2d_8">
      <g>
       <use xlink:href="#m26f974ade8" x="57.6" y="262.353721" style="stroke: #000000; stroke-width: 0.8"/>
      </g>
     </g>
     <g id="text_9">
      <!-- 2500 -->
      <g transform="translate(25.15 266.152939) scale(0.1 -0.1)">
       <defs>
        <path id="DejaVuSans-35" d="M 691 4666 
L 3169 4666 
L 3169 4134 
L 1269 4134 
L 1269 2991 
Q 1406 3038 1543 3061 
Q 1681 3084 1819 3084 
Q 2600 3084 3056 2656 
Q 3513 2228 3513 1497 
Q 3513 744 3044 326 
Q 2575 -91 1722 -91 
Q 1428 -91 1123 -41 
Q 819 9 494 109 
L 494 744 
Q 775 591 1075 516 
Q 1375 441 1709 441 
Q 2250 441 2565 725 
Q 2881 1009 2881 1497 
Q 2881 1984 2565 2268 
Q 2250 2553 1709 2553 
Q 1456 2553 1204 2497 
Q 953 2441 691 2322 
L 691 4666 
z
" transform="scale(0.015625)"/>
       </defs>
       <use xlink:href="#DejaVuSans-32"/>
       <use xlink:href="#DejaVuSans-35" x="63.623047"/>
       <use xlink:href="#DejaVuSans-30" x="127.246094"/>
       <use xlink:href="#DejaVuSans-30" x="190.869141"/>
      </g>
     </g>
    </g>
    <g id="ytick_3">
     <g id="line2d_9">
      <g>
       <use xlink:href="#m26f974ade8" x="57.6" y="229.219441" style="stroke: #000000; stroke-width: 0.8"/>
      </g>
     </g>
     <g id="text_10">
      <!-- 5000 -->
      <g transform="translate(25.15 233.01866) scale(0.1 -0.1)">
       <use xlink:href="#DejaVuSans-35"/>
       <use xlink:href="#DejaVuSans-30" x="63.623047"/>
       <use xlink:href="#DejaVuSans-30" x="127.246094"/>
       <use xlink:href="#DejaVuSans-30" x="190.869141"/>
      </g>
     </g>
    </g>
    <g id="ytick_4">
     <g id="line2d_10">
      <g>
       <use xlink:href="#m26f974ade8" x="57.6" y="196.085162" style="stroke: #000000; stroke-width: 0.8"/>
      </g>
     </g>
     <g id="text_11">
      <!-- 7500 -->
      <g transform="translate(25.15 199.884381) scale(0.1 -0.1)">
       <defs>
        <path id="DejaVuSans-37" d="M 525 4666 
L 3525 4666 
L 3525 4397 
L 1831 0 
L 1172 0 
L 2766 4134 
L 525 4134 
L 525 4666 
z
" transform="scale(0.015625)"/>
       </defs>
       <use xlink:href="#DejaVuSans-37"/>
       <use xlink:href="#DejaVuSans-35" x="63.623047"/>
       <use xlink:href="#DejaVuSans-30" x="127.246094"/>
       <use xlink:href="#DejaVuSans-30" x="190.869141"/>
      </g>
     </g>
    </g>
    <g id="ytick_5">
     <g id="line2d_11">
      <g>
       <use xlink:href="#m26f974ade8" x="57.6" y="162.950883" style="stroke: #000000; stroke-width: 0.8"/>
      </g>
     </g>
     <g id="text_12">
      <!-- 10000 -->
      <g transform="translate(18.7875 166.750102) scale(0.1 -0.1)">
       <use xlink:href="#DejaVuSans-31"/>
       <use xlink:href="#DejaVuSans-30" x="63.623047"/>
       <use xlink:href="#DejaVuSans-30" x="127.246094"/>
       <use xlink:href="#DejaVuSans-30" x="190.869141"/>
       <use xlink:href="#DejaVuSans-30" x="254.492188"/>
      </g>
     </g>
    </g>
    <g id="ytick_6">
     <g id="line2d_12">
      <g>
       <use xlink:href="#m26f974ade8" x="57.6" y="129.816604" style="stroke: #000000; stroke-width: 0.8"/>
      </g>
     </g>
     <g id="text_13">
      <!-- 12500 -->
      <g transform="translate(18.7875 133.615822) scale(0.1 -0.1)">
       <use xlink:href="#DejaVuSans-31"/>
       <use xlink:href="#DejaVuSans-32" x="63.623047"/>
       <use xlink:href="#DejaVuSans-35" x="127.246094"/>
       <use xlink:href="#DejaVuSans-30" x="190.869141"/>
       <use xlink:href="#DejaVuSans-30" x="254.492188"/>
      </g>
     </g>
    </g>
    <g id="ytick_7">
     <g id="line2d_13">
      <g>
       <use xlink:href="#m26f974ade8" x="57.6" y="96.682324" style="stroke: #000000; stroke-width: 0.8"/>
      </g>
     </g>
     <g id="text_14">
      <!-- 15000 -->
      <g transform="translate(18.7875 100.481543) scale(0.1 -0.1)">
       <use xlink:href="#DejaVuSans-31"/>
       <use xlink:href="#DejaVuSans-35" x="63.623047"/>
       <use xlink:href="#DejaVuSans-30" x="127.246094"/>
       <use xlink:href="#DejaVuSans-30" x="190.869141"/>
       <use xlink:href="#DejaVuSans-30" x="254.492188"/>
      </g>
     </g>
    </g>
    <g id="ytick_8">
     <g id="line2d_14">
      <g>
       <use xlink:href="#m26f974ade8" x="57.6" y="63.548045" style="stroke: #000000; stroke-width: 0.8"/>
      </g>
     </g>
     <g id="text_15">
      <!-- 17500 -->
      <g transform="translate(18.7875 67.347264) scale(0.1 -0.1)">
       <use xlink:href="#DejaVuSans-31"/>
       <use xlink:href="#DejaVuSans-37" x="63.623047"/>
       <use xlink:href="#DejaVuSans-35" x="127.246094"/>
       <use xlink:href="#DejaVuSans-30" x="190.869141"/>
       <use xlink:href="#DejaVuSans-30" x="254.492188"/>
      </g>
     </g>
    </g>
    <g id="text_16">
     <!-- Coverage -->
     <g transform="translate(12.707812 198.485031) rotate(-90) scale(0.1 -0.1)">
      <defs>
       <path id="DejaVuSans-43" d="M 4122 4306 
L 4122 3641 
Q 3803 3938 3442 4084 
Q 3081 4231 2675 4231 
Q 1875 4231 1450 3742 
Q 1025 3253 1025 2328 
Q 1025 1406 1450 917 
Q 1875 428 2675 428 
Q 3081 428 3442 575 
Q 3803 722 4122 1019 
L 4122 359 
Q 3791 134 3420 21 
Q 3050 -91 2638 -91 
Q 1578 -91 968 557 
Q 359 1206 359 2328 
Q 359 3453 968 4101 
Q 1578 4750 2638 4750 
Q 3056 4750 3426 4639 
Q 3797 4528 4122 4306 
z
" transform="scale(0.015625)"/>
       <path id="DejaVuSans-76" d="M 191 3500 
L 800 3500 
L 1894 563 
L 2988 3500 
L 3597 3500 
L 2284 0 
L 1503 0 
L 191 3500 
z
" transform="scale(0.015625)"/>
       <path id="DejaVuSans-72" d="M 2631 2963 
Q 2534 3019 2420 3045 
Q 2306 3072 2169 3072 
Q 1681 3072 1420 2755 
Q 1159 2438 1159 1844 
L 1159 0 
L 581 0 
L 581 3500 
L 1159 3500 
L 1159 2956 
Q 1341 3275 1631 3429 
Q 1922 3584 2338 3584 
Q 2397 3584 2469 3576 
Q 2541 3569 2628 3553 
L 2631 2963 
z
" transform="scale(0.015625)"/>
       <path id="DejaVuSans-61" d="M 2194 1759 
Q 1497 1759 1228 1600 
Q 959 1441 959 1056 
Q 959 750 1161 570 
Q 1363 391 1709 391 
Q 2188 391 2477 730 
Q 2766 1069 2766 1631 
L 2766 1759 
L 2194 1759 
z
M 3341 1997 
L 3341 0 
L 2766 0 
L 2766 531 
Q 2569 213 2275 61 
Q 1981 -91 1556 -91 
Q 1019 -91 701 211 
Q 384 513 384 1019 
Q 384 1609 779 1909 
Q 1175 2209 1959 2209 
L 2766 2209 
L 2766 2266 
Q 2766 2663 2505 2880 
Q 2244 3097 1772 3097 
Q 1472 3097 1187 3025 
Q 903 2953 641 2809 
L 641 3341 
Q 956 3463 1253 3523 
Q 1550 3584 1831 3584 
Q 2591 3584 2966 3190 
Q 3341 2797 3341 1997 
z
" transform="scale(0.015625)"/>
       <path id="DejaVuSans-67" d="M 2906 1791 
Q 2906 2416 2648 2759 
Q 2391 3103 1925 3103 
Q 1463 3103 1205 2759 
Q 947 2416 947 1791 
Q 947 1169 1205 825 
Q 1463 481 1925 481 
Q 2391 481 2648 825 
Q 2906 1169 2906 1791 
z
M 3481 434 
Q 3481 -459 3084 -895 
Q 2688 -1331 1869 -1331 
Q 1566 -1331 1297 -1286 
Q 1028 -1241 775 -1147 
L 775 -588 
Q 1028 -725 1275 -790 
Q 1522 -856 1778 -856 
Q 2344 -856 2625 -561 
Q 2906 -266 2906 331 
L 2906 616 
Q 2728 306 2450 153 
Q 2172 0 1784 0 
Q 1141 0 747 490 
Q 353 981 353 1791 
Q 353 2603 747 3093 
Q 1141 3584 1784 3584 
Q 2172 3584 2450 3431 
Q 2728 3278 2906 2969 
L 2906 3500 
L 3481 3500 
L 3481 434 
z
" transform="scale(0.015625)"/>
      </defs>
      <use xlink:href="#DejaVuSans-43"/>
      <use xlink:href="#DejaVuSans-6f" x="69.824219"/>
      <use xlink:href="#DejaVuSans-76" x="131.005859"/>
      <use xlink:href="#DejaVuSans-65" x="190.185547"/>
      <use xlink:href="#DejaVuSans-72" x="251.708984"/>
      <use xlink:href="#DejaVuSans-61" x="292.822266"/>
      <use xlink:href="#DejaVuSans-67" x="354.101562"/>
      <use xlink:href="#DejaVuSans-65" x="417.578125"/>
     </g>
    </g>
   </g>
   <g id="line2d_15">
    <path d="M 57.568182 295.488 
L 59.986315 295.488 
L 60.113585 295.289194 
L 60.145403 295.289194 
L 60.209038 295.488 
L 60.272673 295.474746 
L 74.304205 295.38197 
L 74.336023 294.215644 
L 74.431475 294.321673 
L 74.463293 294.374688 
L 74.654198 295.488 
L 77.263236 295.395224 
L 77.295053 295.275941 
L 77.390506 295.302448 
L 77.549594 295.408478 
L 77.676864 295.488 
L 110.003478 295.38197 
L 110.130748 295.38197 
L 110.226201 295.488 
L 110.258019 295.448239 
L 135.043877 295.488 
L 135.171148 295.063881 
L 135.234783 295.063881 
L 135.362053 295.488 
L 148.979957 295.488 
L 149.107227 295.302448 
L 149.139045 295.302448 
L 149.266315 295.488 
L 154.261668 295.474746 
L 154.388938 295.077135 
L 154.707113 295.488 
L 160.243364 295.395224 
L 160.306999 295.302448 
L 160.370634 295.342209 
L 160.529722 295.488 
L 160.879715 295.461493 
L 168.611376 295.488 
L 168.738646 295.275941 
L 168.929551 295.275941 
L 169.056821 295.488 
L 169.343179 295.488 
L 193.58814 295.474746 
L 193.747227 295.196418 
L 194.09722 295.488 
L 216.146771 295.488 
L 216.274041 295.262687 
L 216.305859 295.262687 
L 216.464947 295.488 
L 218.596721 295.474746 
L 218.723991 295.38197 
L 219.26489 295.488 
L 219.551247 295.488 
L 232.723706 295.488 
L 232.850976 295.196418 
L 232.882794 295.236179 
L 233.010064 295.488 
L 240.359914 295.488 
L 240.487185 295.355463 
L 240.67809 295.355463 
L 240.80536 295.488 
L 243.478033 295.395224 
L 243.605303 295.302448 
L 243.764391 295.488 
L 252.068767 295.474746 
L 252.196037 295.328955 
L 252.227855 295.328955 
L 252.355125 295.488 
L 256.618674 295.474746 
L 256.745944 294.997613 
L 256.777762 295.02412 
L 256.93685 295.488 
L 260.468596 295.461493 
L 260.532231 294.957852 
L 260.595866 294.971105 
L 260.627684 295.050628 
L 260.754954 295.488 
L 271.700185 295.474746 
L 271.827455 295.010866 
L 271.859273 295.010866 
L 271.986543 295.488 
L 274.818304 295.488 
L 274.945574 295.090389 
L 274.977391 295.090389 
L 275.104661 295.488 
L 275.422837 295.395224 
L 275.486472 295.368717 
L 275.613742 295.488 
L 282.199971 295.488 
L 282.327242 295.183165 
L 282.359059 295.183165 
L 282.454512 295.488 
L 282.486329 295.474746 
L 283.059045 295.474746 
L 283.186315 295.328955 
L 283.281768 295.328955 
L 283.409038 295.488 
L 285.763535 295.448239 
L 285.890805 295.116896 
L 285.95444 295.116896 
L 286.081711 295.488 
L 287.163507 295.421731 
L 287.38623 295.077135 
L 287.5135 295.488 
L 294.86335 295.488 
L 294.99062 294.944598 
L 295.086073 294.944598 
L 295.213343 295.488 
L 296.072416 295.488 
L 296.167869 295.368717 
L 296.199686 295.38197 
L 296.422409 295.488 
L 298.999629 295.395224 
L 299.1269 295.342209 
L 299.222352 295.488 
L 299.25417 295.474746 
L 301.067769 295.474746 
L 301.195039 294.878329 
L 301.290492 294.865076 
L 301.417762 295.395224 
L 301.449579 295.488 
L 301.608667 294.904837 
L 301.640485 294.904837 
L 301.767755 295.488 
L 305.140413 295.461493 
L 305.235866 295.289194 
L 305.267684 295.302448 
L 305.299501 295.302448 
L 305.426771 295.488 
L 309.563051 295.448239 
L 309.658503 295.355463 
L 309.690321 295.368717 
L 309.913043 295.448239 
L 310.231219 295.408478 
L 310.422124 295.474746 
L 310.549394 295.474746 
L 310.676664 295.38197 
L 310.835752 295.488 
L 311.24938 295.434985 
L 311.37665 295.368717 
L 311.50392 295.408478 
L 311.981183 295.488 
L 312.967527 295.434985 
L 313.031162 295.156657 
L 313.158432 285.348911 
L 313.253885 285.362164 
L 313.381155 295.488 
L 318.21742 295.448239 
L 318.281055 294.957852 
L 318.34469 294.997613 
L 318.440143 295.077135 
L 318.567413 295.488 
L 318.7265 295.434985 
L 323.085502 295.421731 
L 323.212773 294.931344 
L 323.49913 295.488 
L 323.658218 295.408478 
L 323.849123 295.156657 
L 323.976393 295.474746 
L 324.262751 295.474746 
L 324.294569 295.461493 
L 324.453656 294.984359 
L 324.485474 294.984359 
L 324.517292 295.421731 
L 324.612744 295.395224 
L 372.752673 295.488 
L 372.848125 294.904837 
L 372.879943 294.91809 
L 372.911761 294.944598 
L 373.039031 295.488 
L 375.902609 295.488 
L 376.029879 294.175883 
L 376.125331 293.765017 
L 376.316237 284.262106 
L 376.443507 69.512215 
L 376.602594 67.789233 
L 376.952587 65.81443 
L 377.016222 65.81443 
L 377.30258 64.78064 
L 377.461668 62.646793 
L 377.525303 62.31545 
L 377.684391 60.327393 
L 377.907113 56.722383 
L 377.938931 56.656115 
L 378.193471 53.568 
L 378.225289 55.900653 
L 378.288924 54.509014 
L 378.384376 54.681312 
L 378.543464 61.414197 
L 378.670734 220.551514 
L 378.766187 221.744348 
L 378.798004 221.479274 
L 378.925274 234.481165 
L 378.957092 234.282359 
L 379.11618 231.896691 
L 379.593443 223.57336 
L 379.62526 223.546853 
L 379.720713 222.28775 
L 379.75253 222.778138 
L 379.784348 223.162495 
L 379.911618 219.25265 
L 379.943435 219.729784 
L 379.975253 219.650262 
L 380.007071 219.849067 
L 380.166158 223.029958 
L 380.197976 222.85766 
L 380.261611 223.082973 
L 380.293428 222.897421 
L 380.357063 222.937182 
L 380.579786 225.150552 
L 380.611604 224.646911 
L 380.643421 224.766194 
L 380.707056 225.852999 
L 380.770691 225.362611 
L 380.802509 225.110791 
L 380.834326 225.137298 
L 380.929779 226.489177 
L 380.993414 261.293424 
L 381.057049 260.166858 
L 381.088867 260.113843 
L 381.120684 259.583695 
L 381.184319 259.954799 
L 381.216137 260.060829 
L 381.311589 260.948827 
L 381.343407 260.882559 
L 381.375225 260.81629 
L 381.407042 261.425961 
L 381.43886 260.484947 
L 381.470677 261.081364 
L 381.502495 260.392171 
L 381.534312 261.068111 
L 381.597947 262.764586 
L 381.6934 262.618795 
L 381.852488 258.417368 
L 381.916123 258.616174 
L 382.011575 258.284831 
L 382.107028 259.252352 
L 382.20248 222.619093 
L 382.329751 226.038551 
L 382.393386 226.396401 
L 382.552473 224.540881 
L 382.584291 224.50112 
L 382.616108 224.540881 
L 382.711561 225.150552 
L 382.807014 223.57336 
L 382.838831 223.851688 
L 382.870649 223.984225 
L 382.997919 223.427569 
L 383.029736 223.533599 
L 383.061554 223.414316 
L 383.093371 223.281779 
L 383.125189 222.672108 
L 383.188824 223.374555 
L 383.220641 223.414316 
L 383.347912 220.89611 
L 383.475182 224.580642 
L 383.538817 224.567389 
L 383.697904 223.745658 
L 383.729722 223.67939 
L 383.825175 225.468641 
L 383.984262 228.0001 
L 384.01608 228.10613 
L 384.206985 233.076272 
L 384.238803 232.625645 
L 384.302438 237.184922 
L 384.366073 237.171668 
L 384.39789 237.092146 
L 384.556978 235.939073 
L 384.588795 236.111372 
L 384.620613 235.859551 
L 384.652431 236.416207 
L 384.716066 236.668027 
L 385.002423 239.093457 
L 385.034241 238.96092 
L 385.066058 239.040442 
L 385.129694 238.828382 
L 385.161511 239.371785 
L 385.288781 235.210119 
L 385.352416 236.124625 
L 385.384234 236.442714 
L 385.479686 236.389699 
L 385.575139 236.469222 
L 385.606957 235.60773 
L 385.638774 228.861591 
L 385.734227 229.484516 
L 385.988767 231.737647 
L 386.275125 233.063018 
L 386.370577 233.208809 
L 386.561483 233.884748 
L 386.625118 233.937763 
L 386.784205 235.634238 
L 386.816023 235.71376 
L 386.911475 236.880087 
L 387.038746 274.401345 
L 387.229651 275.011015 
L 387.261468 275.037523 
L 387.516009 276.402655 
L 387.738731 282.327064 
L 387.993272 285.534462 
L 388.120542 295.434985 
L 414.72 295.488 
L 414.72 295.488 
" clip-path="url(#p7ee00b06aa)" style="fill: none; stroke: #1f77b4; stroke-width: 1.5; stroke-linecap: square"/>
   </g>
   <g id="line2d_16">
    <path d="M 376.316237 307.584 
L 376.316237 41.472 
" clip-path="url(#p7ee00b06aa)" style="fill: none; stroke-dasharray: 5.55,2.4; stroke-dashoffset: 0; stroke: #ff0000; stroke-width: 1.5"/>
   </g>
   <g id="line2d_17">
    <path d="M 387.356921 307.584 
L 387.356921 41.472 
" clip-path="url(#p7ee00b06aa)" style="fill: none; stroke-dasharray: 5.55,2.4; stroke-dashoffset: 0; stroke: #ff0000; stroke-width: 1.5"/>
   </g>
   <g id="patch_3">
    <path d="M 57.6 307.584 
L 57.6 41.472 
" style="fill: none; stroke: #000000; stroke-width: 0.8; stroke-linejoin: miter; stroke-linecap: square"/>
   </g>
   <g id="patch_4">
    <path d="M 414.72 307.584 
L 414.72 41.472 
" style="fill: none; stroke: #000000; stroke-width: 0.8; stroke-linejoin: miter; stroke-linecap: square"/>
   </g>
   <g id="patch_5">
    <path d="M 57.6 307.584 
L 414.72 307.584 
" style="fill: none; stroke: #000000; stroke-width: 0.8; stroke-linejoin: miter; stroke-linecap: square"/>
   </g>
   <g id="patch_6">
    <path d="M 57.6 41.472 
L 414.72 41.472 
" style="fill: none; stroke: #000000; stroke-width: 0.8; stroke-linejoin: miter; stroke-linecap: square"/>
   </g>
   <g id="text_17">
    <!-- Caudoviricetes sp. isolate ctUyu4 -->
    <g transform="translate(135.870937 22.034625) scale(0.12 -0.12)">
     <defs>
      <path id="DejaVuSans-2e" d="M 684 794 
L 1344 794 
L 1344 0 
L 684 0 
L 684 794 
z
" transform="scale(0.015625)"/>
      <path id="DejaVuSans-55" d="M 556 4666 
L 1191 4666 
L 1191 1831 
Q 1191 1081 1462 751 
Q 1734 422 2344 422 
Q 2950 422 3222 751 
Q 3494 1081 3494 1831 
L 3494 4666 
L 4128 4666 
L 4128 1753 
Q 4128 841 3676 375 
Q 3225 -91 2344 -91 
Q 1459 -91 1007 375 
Q 556 841 556 1753 
L 556 4666 
z
" transform="scale(0.015625)"/>
      <path id="DejaVuSans-79" d="M 2059 -325 
Q 1816 -950 1584 -1140 
Q 1353 -1331 966 -1331 
L 506 -1331 
L 506 -850 
L 844 -850 
Q 1081 -850 1212 -737 
Q 1344 -625 1503 -206 
L 1606 56 
L 191 3500 
L 800 3500 
L 1894 763 
L 2988 3500 
L 3597 3500 
L 2059 -325 
z
" transform="scale(0.015625)"/>
     </defs>
     <use xlink:href="#DejaVuSans-43"/>
     <use xlink:href="#DejaVuSans-61" x="69.824219"/>
     <use xlink:href="#DejaVuSans-75" x="131.103516"/>
     <use xlink:href="#DejaVuSans-64" x="194.482422"/>
     <use xlink:href="#DejaVuSans-6f" x="257.958984"/>
     <use xlink:href="#DejaVuSans-76" x="319.140625"/>
     <use xlink:href="#DejaVuSans-69" x="378.320312"/>
     <use xlink:href="#DejaVuSans-72" x="406.103516"/>
     <use xlink:href="#DejaVuSans-69" x="447.216797"/>
     <use xlink:href="#DejaVuSans-63" x="475"/>
     <use xlink:href="#DejaVuSans-65" x="529.980469"/>
     <use xlink:href="#DejaVuSans-74" x="591.503906"/>
     <use xlink:href="#DejaVuSans-65" x="630.712891"/>
     <use xlink:href="#DejaVuSans-73" x="692.236328"/>
     <use xlink:href="#DejaVuSans-20" x="744.335938"/>
     <use xlink:href="#DejaVuSans-73" x="776.123047"/>
     <use xlink:href="#DejaVuSans-70" x="828.222656"/>
     <use xlink:href="#DejaVuSans-2e" x="891.699219"/>
     <use xlink:href="#DejaVuSans-20" x="923.486328"/>
     <use xlink:href="#DejaVuSans-69" x="955.273438"/>
     <use xlink:href="#DejaVuSans-73" x="983.056641"/>
     <use xlink:href="#DejaVuSans-6f" x="1035.15625"/>
     <use xlink:href="#DejaVuSans-6c" x="1096.337891"/>
     <use xlink:href="#DejaVuSans-61" x="1124.121094"/>
     <use xlink:href="#DejaVuSans-74" x="1185.400391"/>
     <use xlink:href="#DejaVuSans-65" x="1224.609375"/>
     <use xlink:href="#DejaVuSans-20" x="1286.132812"/>
     <use xlink:href="#DejaVuSans-63" x="1317.919922"/>
     <use xlink:href="#DejaVuSans-74" x="1372.900391"/>
     <use xlink:href="#DejaVuSans-55" x="1412.109375"/>
     <use xlink:href="#DejaVuSans-79" x="1485.302734"/>
     <use xlink:href="#DejaVuSans-75" x="1544.482422"/>
     <use xlink:href="#DejaVuSans-34" x="1607.861328"/>
    </g>
    <!-- Total coverage: 23.56% -->
    <g transform="translate(165.5775 35.472) scale(0.12 -0.12)">
     <defs>
      <path id="DejaVuSans-54" d="M -19 4666 
L 3928 4666 
L 3928 4134 
L 2272 4134 
L 2272 0 
L 1638 0 
L 1638 4134 
L -19 4134 
L -19 4666 
z
" transform="scale(0.015625)"/>
      <path id="DejaVuSans-3a" d="M 750 794 
L 1409 794 
L 1409 0 
L 750 0 
L 750 794 
z
M 750 3309 
L 1409 3309 
L 1409 2516 
L 750 2516 
L 750 3309 
z
" transform="scale(0.015625)"/>
      <path id="DejaVuSans-33" d="M 2597 2516 
Q 3050 2419 3304 2112 
Q 3559 1806 3559 1356 
Q 3559 666 3084 287 
Q 2609 -91 1734 -91 
Q 1441 -91 1130 -33 
Q 819 25 488 141 
L 488 750 
Q 750 597 1062 519 
Q 1375 441 1716 441 
Q 2309 441 2620 675 
Q 2931 909 2931 1356 
Q 2931 1769 2642 2001 
Q 2353 2234 1838 2234 
L 1294 2234 
L 1294 2753 
L 1863 2753 
Q 2328 2753 2575 2939 
Q 2822 3125 2822 3475 
Q 2822 3834 2567 4026 
Q 2313 4219 1838 4219 
Q 1578 4219 1281 4162 
Q 984 4106 628 3988 
L 628 4550 
Q 988 4650 1302 4700 
Q 1616 4750 1894 4750 
Q 2613 4750 3031 4423 
Q 3450 4097 3450 3541 
Q 3450 3153 3228 2886 
Q 3006 2619 2597 2516 
z
" transform="scale(0.015625)"/>
      <path id="DejaVuSans-25" d="M 4653 2053 
Q 4381 2053 4226 1822 
Q 4072 1591 4072 1178 
Q 4072 772 4226 539 
Q 4381 306 4653 306 
Q 4919 306 5073 539 
Q 5228 772 5228 1178 
Q 5228 1588 5073 1820 
Q 4919 2053 4653 2053 
z
M 4653 2450 
Q 5147 2450 5437 2106 
Q 5728 1763 5728 1178 
Q 5728 594 5436 251 
Q 5144 -91 4653 -91 
Q 4153 -91 3862 251 
Q 3572 594 3572 1178 
Q 3572 1766 3864 2108 
Q 4156 2450 4653 2450 
z
M 1428 4353 
Q 1159 4353 1004 4120 
Q 850 3888 850 3481 
Q 850 3069 1003 2837 
Q 1156 2606 1428 2606 
Q 1700 2606 1854 2837 
Q 2009 3069 2009 3481 
Q 2009 3884 1853 4118 
Q 1697 4353 1428 4353 
z
M 4250 4750 
L 4750 4750 
L 1831 -91 
L 1331 -91 
L 4250 4750 
z
M 1428 4750 
Q 1922 4750 2215 4408 
Q 2509 4066 2509 3481 
Q 2509 2891 2217 2550 
Q 1925 2209 1428 2209 
Q 931 2209 642 2551 
Q 353 2894 353 3481 
Q 353 4063 643 4406 
Q 934 4750 1428 4750 
z
" transform="scale(0.015625)"/>
     </defs>
     <use xlink:href="#DejaVuSans-54"/>
     <use xlink:href="#DejaVuSans-6f" x="44.083984"/>
     <use xlink:href="#DejaVuSans-74" x="105.265625"/>
     <use xlink:href="#DejaVuSans-61" x="144.474609"/>
     <use xlink:href="#DejaVuSans-6c" x="205.753906"/>
     <use xlink:href="#DejaVuSans-20" x="233.537109"/>
     <use xlink:href="#DejaVuSans-63" x="265.324219"/>
     <use xlink:href="#DejaVuSans-6f" x="320.304688"/>
     <use xlink:href="#DejaVuSans-76" x="381.486328"/>
     <use xlink:href="#DejaVuSans-65" x="440.666016"/>
     <use xlink:href="#DejaVuSans-72" x="502.189453"/>
     <use xlink:href="#DejaVuSans-61" x="543.302734"/>
     <use xlink:href="#DejaVuSans-67" x="604.582031"/>
     <use xlink:href="#DejaVuSans-65" x="668.058594"/>
     <use xlink:href="#DejaVuSans-3a" x="729.582031"/>
     <use xlink:href="#DejaVuSans-20" x="763.273438"/>
     <use xlink:href="#DejaVuSans-32" x="795.060547"/>
     <use xlink:href="#DejaVuSans-33" x="858.683594"/>
     <use xlink:href="#DejaVuSans-2e" x="922.306641"/>
     <use xlink:href="#DejaVuSans-35" x="954.09375"/>
     <use xlink:href="#DejaVuSans-36" x="1017.716797"/>
     <use xlink:href="#DejaVuSans-25" x="1081.339844"/>
    </g>
   </g>
  </g>
 </g>
 <defs>
  <clipPath id="p7ee00b06aa">
   <rect x="57.6" y="41.472" width="357.12" height="266.112"/>
  </clipPath>
 </defs>
</svg>
