<?xml version="1.0" encoding="utf-8" standalone="no"?>
<!DOCTYPE svg PUBLIC "-//W3C//DTD SVG 1.1//EN"
  "http://www.w3.org/Graphics/SVG/1.1/DTD/svg11.dtd">
<svg xmlns:xlink="http://www.w3.org/1999/xlink" width="460.8pt" height="345.6pt" viewBox="0 0 460.8 345.6" xmlns="http://www.w3.org/2000/svg" version="1.1">
 <metadata>
  <rdf:RDF xmlns:dc="http://purl.org/dc/elements/1.1/" xmlns:cc="http://creativecommons.org/ns#" xmlns:rdf="http://www.w3.org/1999/02/22-rdf-syntax-ns#">
   <cc:Work>
    <dc:type rdf:resource="http://purl.org/dc/dcmitype/StillImage"/>
    <dc:date>2024-06-22T20:08:10.941502</dc:date>
    <dc:format>image/svg+xml</dc:format>
    <dc:creator>
     <cc:Agent>
      <dc:title>Matplotlib v3.6.0, https://matplotlib.org/</dc:title>
     </cc:Agent>
    </dc:creator>
   </cc:Work>
  </rdf:RDF>
 </metadata>
 <defs>
  <style type="text/css">*{stroke-linejoin: round; stroke-linecap: butt}</style>
 </defs>
 <g id="figure_1">
  <g id="patch_1">
   <path d="M 0 345.6 
L 460.8 345.6 
L 460.8 0 
L 0 0 
z
" style="fill: #ffffff"/>
  </g>
  <g id="axes_1">
   <g id="patch_2">
    <path d="M 57.6 307.584 
L 414.72 307.584 
L 414.72 41.472 
L 57.6 41.472 
z
" style="fill: #ffffff"/>
   </g>
   <g id="PolyCollection_1"/>
   <g id="matplotlib.axis_1">
    <g id="xtick_1">
     <g id="line2d_1">
      <defs>
       <path id="mbe3ecc9f78" d="M 0 0 
L 0 3.5 
" style="stroke: #000000; stroke-width: 0.8"/>
      </defs>
      <g>
       <use xlink:href="#mbe3ecc9f78" x="73.754854" y="307.584" style="stroke: #000000; stroke-width: 0.8"/>
      </g>
     </g>
     <g id="text_1">
      <!-- 0 -->
      <g transform="translate(70.573604 322.182437) scale(0.1 -0.1)">
       <defs>
        <path id="DejaVuSans-30" d="M 2034 4250 
Q 1547 4250 1301 3770 
Q 1056 3291 1056 2328 
Q 1056 1369 1301 889 
Q 1547 409 2034 409 
Q 2525 409 2770 889 
Q 3016 1369 3016 2328 
Q 3016 3291 2770 3770 
Q 2525 4250 2034 4250 
z
M 2034 4750 
Q 2819 4750 3233 4129 
Q 3647 3509 3647 2328 
Q 3647 1150 3233 529 
Q 2819 -91 2034 -91 
Q 1250 -91 836 529 
Q 422 1150 422 2328 
Q 422 3509 836 4129 
Q 1250 4750 2034 4750 
z
" transform="scale(0.015625)"/>
       </defs>
       <use xlink:href="#DejaVuSans-30"/>
      </g>
     </g>
    </g>
    <g id="xtick_2">
     <g id="line2d_2">
      <g>
       <use xlink:href="#mbe3ecc9f78" x="151.628336" y="307.584" style="stroke: #000000; stroke-width: 0.8"/>
      </g>
     </g>
     <g id="text_2">
      <!-- 1000 -->
      <g transform="translate(138.903336 322.182437) scale(0.1 -0.1)">
       <defs>
        <path id="DejaVuSans-31" d="M 794 531 
L 1825 531 
L 1825 4091 
L 703 3866 
L 703 4441 
L 1819 4666 
L 2450 4666 
L 2450 531 
L 3481 531 
L 3481 0 
L 794 0 
L 794 531 
z
" transform="scale(0.015625)"/>
       </defs>
       <use xlink:href="#DejaVuSans-31"/>
       <use xlink:href="#DejaVuSans-30" x="63.623047"/>
       <use xlink:href="#DejaVuSans-30" x="127.246094"/>
       <use xlink:href="#DejaVuSans-30" x="190.869141"/>
      </g>
     </g>
    </g>
    <g id="xtick_3">
     <g id="line2d_3">
      <g>
       <use xlink:href="#mbe3ecc9f78" x="229.501817" y="307.584" style="stroke: #000000; stroke-width: 0.8"/>
      </g>
     </g>
     <g id="text_3">
      <!-- 2000 -->
      <g transform="translate(216.776817 322.182437) scale(0.1 -0.1)">
       <defs>
        <path id="DejaVuSans-32" d="M 1228 531 
L 3431 531 
L 3431 0 
L 469 0 
L 469 531 
Q 828 903 1448 1529 
Q 2069 2156 2228 2338 
Q 2531 2678 2651 2914 
Q 2772 3150 2772 3378 
Q 2772 3750 2511 3984 
Q 2250 4219 1831 4219 
Q 1534 4219 1204 4116 
Q 875 4013 500 3803 
L 500 4441 
Q 881 4594 1212 4672 
Q 1544 4750 1819 4750 
Q 2544 4750 2975 4387 
Q 3406 4025 3406 3419 
Q 3406 3131 3298 2873 
Q 3191 2616 2906 2266 
Q 2828 2175 2409 1742 
Q 1991 1309 1228 531 
z
" transform="scale(0.015625)"/>
       </defs>
       <use xlink:href="#DejaVuSans-32"/>
       <use xlink:href="#DejaVuSans-30" x="63.623047"/>
       <use xlink:href="#DejaVuSans-30" x="127.246094"/>
       <use xlink:href="#DejaVuSans-30" x="190.869141"/>
      </g>
     </g>
    </g>
    <g id="xtick_4">
     <g id="line2d_4">
      <g>
       <use xlink:href="#mbe3ecc9f78" x="307.375299" y="307.584" style="stroke: #000000; stroke-width: 0.8"/>
      </g>
     </g>
     <g id="text_4">
      <!-- 3000 -->
      <g transform="translate(294.650299 322.182437) scale(0.1 -0.1)">
       <defs>
        <path id="DejaVuSans-33" d="M 2597 2516 
Q 3050 2419 3304 2112 
Q 3559 1806 3559 1356 
Q 3559 666 3084 287 
Q 2609 -91 1734 -91 
Q 1441 -91 1130 -33 
Q 819 25 488 141 
L 488 750 
Q 750 597 1062 519 
Q 1375 441 1716 441 
Q 2309 441 2620 675 
Q 2931 909 2931 1356 
Q 2931 1769 2642 2001 
Q 2353 2234 1838 2234 
L 1294 2234 
L 1294 2753 
L 1863 2753 
Q 2328 2753 2575 2939 
Q 2822 3125 2822 3475 
Q 2822 3834 2567 4026 
Q 2313 4219 1838 4219 
Q 1578 4219 1281 4162 
Q 984 4106 628 3988 
L 628 4550 
Q 988 4650 1302 4700 
Q 1616 4750 1894 4750 
Q 2613 4750 3031 4423 
Q 3450 4097 3450 3541 
Q 3450 3153 3228 2886 
Q 3006 2619 2597 2516 
z
" transform="scale(0.015625)"/>
       </defs>
       <use xlink:href="#DejaVuSans-33"/>
       <use xlink:href="#DejaVuSans-30" x="63.623047"/>
       <use xlink:href="#DejaVuSans-30" x="127.246094"/>
       <use xlink:href="#DejaVuSans-30" x="190.869141"/>
      </g>
     </g>
    </g>
    <g id="xtick_5">
     <g id="line2d_5">
      <g>
       <use xlink:href="#mbe3ecc9f78" x="385.248781" y="307.584" style="stroke: #000000; stroke-width: 0.8"/>
      </g>
     </g>
     <g id="text_5">
      <!-- 4000 -->
      <g transform="translate(372.523781 322.182437) scale(0.1 -0.1)">
       <defs>
        <path id="DejaVuSans-34" d="M 2419 4116 
L 825 1625 
L 2419 1625 
L 2419 4116 
z
M 2253 4666 
L 3047 4666 
L 3047 1625 
L 3713 1625 
L 3713 1100 
L 3047 1100 
L 3047 0 
L 2419 0 
L 2419 1100 
L 313 1100 
L 313 1709 
L 2253 4666 
z
" transform="scale(0.015625)"/>
       </defs>
       <use xlink:href="#DejaVuSans-34"/>
       <use xlink:href="#DejaVuSans-30" x="63.623047"/>
       <use xlink:href="#DejaVuSans-30" x="127.246094"/>
       <use xlink:href="#DejaVuSans-30" x="190.869141"/>
      </g>
     </g>
    </g>
    <g id="text_6">
     <!-- Nucleotide position -->
     <g transform="translate(187.982656 335.860562) scale(0.1 -0.1)">
      <defs>
       <path id="DejaVuSans-4e" d="M 628 4666 
L 1478 4666 
L 3547 763 
L 3547 4666 
L 4159 4666 
L 4159 0 
L 3309 0 
L 1241 3903 
L 1241 0 
L 628 0 
L 628 4666 
z
" transform="scale(0.015625)"/>
       <path id="DejaVuSans-75" d="M 544 1381 
L 544 3500 
L 1119 3500 
L 1119 1403 
Q 1119 906 1312 657 
Q 1506 409 1894 409 
Q 2359 409 2629 706 
Q 2900 1003 2900 1516 
L 2900 3500 
L 3475 3500 
L 3475 0 
L 2900 0 
L 2900 538 
Q 2691 219 2414 64 
Q 2138 -91 1772 -91 
Q 1169 -91 856 284 
Q 544 659 544 1381 
z
M 1991 3584 
L 1991 3584 
z
" transform="scale(0.015625)"/>
       <path id="DejaVuSans-63" d="M 3122 3366 
L 3122 2828 
Q 2878 2963 2633 3030 
Q 2388 3097 2138 3097 
Q 1578 3097 1268 2742 
Q 959 2388 959 1747 
Q 959 1106 1268 751 
Q 1578 397 2138 397 
Q 2388 397 2633 464 
Q 2878 531 3122 666 
L 3122 134 
Q 2881 22 2623 -34 
Q 2366 -91 2075 -91 
Q 1284 -91 818 406 
Q 353 903 353 1747 
Q 353 2603 823 3093 
Q 1294 3584 2113 3584 
Q 2378 3584 2631 3529 
Q 2884 3475 3122 3366 
z
" transform="scale(0.015625)"/>
       <path id="DejaVuSans-6c" d="M 603 4863 
L 1178 4863 
L 1178 0 
L 603 0 
L 603 4863 
z
" transform="scale(0.015625)"/>
       <path id="DejaVuSans-65" d="M 3597 1894 
L 3597 1613 
L 953 1613 
Q 991 1019 1311 708 
Q 1631 397 2203 397 
Q 2534 397 2845 478 
Q 3156 559 3463 722 
L 3463 178 
Q 3153 47 2828 -22 
Q 2503 -91 2169 -91 
Q 1331 -91 842 396 
Q 353 884 353 1716 
Q 353 2575 817 3079 
Q 1281 3584 2069 3584 
Q 2775 3584 3186 3129 
Q 3597 2675 3597 1894 
z
M 3022 2063 
Q 3016 2534 2758 2815 
Q 2500 3097 2075 3097 
Q 1594 3097 1305 2825 
Q 1016 2553 972 2059 
L 3022 2063 
z
" transform="scale(0.015625)"/>
       <path id="DejaVuSans-6f" d="M 1959 3097 
Q 1497 3097 1228 2736 
Q 959 2375 959 1747 
Q 959 1119 1226 758 
Q 1494 397 1959 397 
Q 2419 397 2687 759 
Q 2956 1122 2956 1747 
Q 2956 2369 2687 2733 
Q 2419 3097 1959 3097 
z
M 1959 3584 
Q 2709 3584 3137 3096 
Q 3566 2609 3566 1747 
Q 3566 888 3137 398 
Q 2709 -91 1959 -91 
Q 1206 -91 779 398 
Q 353 888 353 1747 
Q 353 2609 779 3096 
Q 1206 3584 1959 3584 
z
" transform="scale(0.015625)"/>
       <path id="DejaVuSans-74" d="M 1172 4494 
L 1172 3500 
L 2356 3500 
L 2356 3053 
L 1172 3053 
L 1172 1153 
Q 1172 725 1289 603 
Q 1406 481 1766 481 
L 2356 481 
L 2356 0 
L 1766 0 
Q 1100 0 847 248 
Q 594 497 594 1153 
L 594 3053 
L 172 3053 
L 172 3500 
L 594 3500 
L 594 4494 
L 1172 4494 
z
" transform="scale(0.015625)"/>
       <path id="DejaVuSans-69" d="M 603 3500 
L 1178 3500 
L 1178 0 
L 603 0 
L 603 3500 
z
M 603 4863 
L 1178 4863 
L 1178 4134 
L 603 4134 
L 603 4863 
z
" transform="scale(0.015625)"/>
       <path id="DejaVuSans-64" d="M 2906 2969 
L 2906 4863 
L 3481 4863 
L 3481 0 
L 2906 0 
L 2906 525 
Q 2725 213 2448 61 
Q 2172 -91 1784 -91 
Q 1150 -91 751 415 
Q 353 922 353 1747 
Q 353 2572 751 3078 
Q 1150 3584 1784 3584 
Q 2172 3584 2448 3432 
Q 2725 3281 2906 2969 
z
M 947 1747 
Q 947 1113 1208 752 
Q 1469 391 1925 391 
Q 2381 391 2643 752 
Q 2906 1113 2906 1747 
Q 2906 2381 2643 2742 
Q 2381 3103 1925 3103 
Q 1469 3103 1208 2742 
Q 947 2381 947 1747 
z
" transform="scale(0.015625)"/>
       <path id="DejaVuSans-20" transform="scale(0.015625)"/>
       <path id="DejaVuSans-70" d="M 1159 525 
L 1159 -1331 
L 581 -1331 
L 581 3500 
L 1159 3500 
L 1159 2969 
Q 1341 3281 1617 3432 
Q 1894 3584 2278 3584 
Q 2916 3584 3314 3078 
Q 3713 2572 3713 1747 
Q 3713 922 3314 415 
Q 2916 -91 2278 -91 
Q 1894 -91 1617 61 
Q 1341 213 1159 525 
z
M 3116 1747 
Q 3116 2381 2855 2742 
Q 2594 3103 2138 3103 
Q 1681 3103 1420 2742 
Q 1159 2381 1159 1747 
Q 1159 1113 1420 752 
Q 1681 391 2138 391 
Q 2594 391 2855 752 
Q 3116 1113 3116 1747 
z
" transform="scale(0.015625)"/>
       <path id="DejaVuSans-73" d="M 2834 3397 
L 2834 2853 
Q 2591 2978 2328 3040 
Q 2066 3103 1784 3103 
Q 1356 3103 1142 2972 
Q 928 2841 928 2578 
Q 928 2378 1081 2264 
Q 1234 2150 1697 2047 
L 1894 2003 
Q 2506 1872 2764 1633 
Q 3022 1394 3022 966 
Q 3022 478 2636 193 
Q 2250 -91 1575 -91 
Q 1294 -91 989 -36 
Q 684 19 347 128 
L 347 722 
Q 666 556 975 473 
Q 1284 391 1588 391 
Q 1994 391 2212 530 
Q 2431 669 2431 922 
Q 2431 1156 2273 1281 
Q 2116 1406 1581 1522 
L 1381 1569 
Q 847 1681 609 1914 
Q 372 2147 372 2553 
Q 372 3047 722 3315 
Q 1072 3584 1716 3584 
Q 2034 3584 2315 3537 
Q 2597 3491 2834 3397 
z
" transform="scale(0.015625)"/>
       <path id="DejaVuSans-6e" d="M 3513 2113 
L 3513 0 
L 2938 0 
L 2938 2094 
Q 2938 2591 2744 2837 
Q 2550 3084 2163 3084 
Q 1697 3084 1428 2787 
Q 1159 2491 1159 1978 
L 1159 0 
L 581 0 
L 581 3500 
L 1159 3500 
L 1159 2956 
Q 1366 3272 1645 3428 
Q 1925 3584 2291 3584 
Q 2894 3584 3203 3211 
Q 3513 2838 3513 2113 
z
" transform="scale(0.015625)"/>
      </defs>
      <use xlink:href="#DejaVuSans-4e"/>
      <use xlink:href="#DejaVuSans-75" x="74.804688"/>
      <use xlink:href="#DejaVuSans-63" x="138.183594"/>
      <use xlink:href="#DejaVuSans-6c" x="193.164062"/>
      <use xlink:href="#DejaVuSans-65" x="220.947266"/>
      <use xlink:href="#DejaVuSans-6f" x="282.470703"/>
      <use xlink:href="#DejaVuSans-74" x="343.652344"/>
      <use xlink:href="#DejaVuSans-69" x="382.861328"/>
      <use xlink:href="#DejaVuSans-64" x="410.644531"/>
      <use xlink:href="#DejaVuSans-65" x="474.121094"/>
      <use xlink:href="#DejaVuSans-20" x="535.644531"/>
      <use xlink:href="#DejaVuSans-70" x="567.431641"/>
      <use xlink:href="#DejaVuSans-6f" x="630.908203"/>
      <use xlink:href="#DejaVuSans-73" x="692.089844"/>
      <use xlink:href="#DejaVuSans-69" x="744.189453"/>
      <use xlink:href="#DejaVuSans-74" x="771.972656"/>
      <use xlink:href="#DejaVuSans-69" x="811.181641"/>
      <use xlink:href="#DejaVuSans-6f" x="838.964844"/>
      <use xlink:href="#DejaVuSans-6e" x="900.146484"/>
     </g>
    </g>
   </g>
   <g id="matplotlib.axis_2">
    <g id="ytick_1">
     <g id="line2d_6">
      <defs>
       <path id="m4262c12b00" d="M 0 0 
L -3.5 0 
" style="stroke: #000000; stroke-width: 0.8"/>
      </defs>
      <g>
       <use xlink:href="#m4262c12b00" x="57.6" y="295.488" style="stroke: #000000; stroke-width: 0.8"/>
      </g>
     </g>
     <g id="text_7">
      <!-- 0 -->
      <g transform="translate(44.2375 299.287219) scale(0.1 -0.1)">
       <use xlink:href="#DejaVuSans-30"/>
      </g>
     </g>
    </g>
    <g id="ytick_2">
     <g id="line2d_7">
      <g>
       <use xlink:href="#m4262c12b00" x="57.6" y="256.910421" style="stroke: #000000; stroke-width: 0.8"/>
      </g>
     </g>
     <g id="text_8">
      <!-- 2000 -->
      <g transform="translate(25.15 260.709639) scale(0.1 -0.1)">
       <use xlink:href="#DejaVuSans-32"/>
       <use xlink:href="#DejaVuSans-30" x="63.623047"/>
       <use xlink:href="#DejaVuSans-30" x="127.246094"/>
       <use xlink:href="#DejaVuSans-30" x="190.869141"/>
      </g>
     </g>
    </g>
    <g id="ytick_3">
     <g id="line2d_8">
      <g>
       <use xlink:href="#m4262c12b00" x="57.6" y="218.332841" style="stroke: #000000; stroke-width: 0.8"/>
      </g>
     </g>
     <g id="text_9">
      <!-- 4000 -->
      <g transform="translate(25.15 222.13206) scale(0.1 -0.1)">
       <use xlink:href="#DejaVuSans-34"/>
       <use xlink:href="#DejaVuSans-30" x="63.623047"/>
       <use xlink:href="#DejaVuSans-30" x="127.246094"/>
       <use xlink:href="#DejaVuSans-30" x="190.869141"/>
      </g>
     </g>
    </g>
    <g id="ytick_4">
     <g id="line2d_9">
      <g>
       <use xlink:href="#m4262c12b00" x="57.6" y="179.755262" style="stroke: #000000; stroke-width: 0.8"/>
      </g>
     </g>
     <g id="text_10">
      <!-- 6000 -->
      <g transform="translate(25.15 183.554481) scale(0.1 -0.1)">
       <defs>
        <path id="DejaVuSans-36" d="M 2113 2584 
Q 1688 2584 1439 2293 
Q 1191 2003 1191 1497 
Q 1191 994 1439 701 
Q 1688 409 2113 409 
Q 2538 409 2786 701 
Q 3034 994 3034 1497 
Q 3034 2003 2786 2293 
Q 2538 2584 2113 2584 
z
M 3366 4563 
L 3366 3988 
Q 3128 4100 2886 4159 
Q 2644 4219 2406 4219 
Q 1781 4219 1451 3797 
Q 1122 3375 1075 2522 
Q 1259 2794 1537 2939 
Q 1816 3084 2150 3084 
Q 2853 3084 3261 2657 
Q 3669 2231 3669 1497 
Q 3669 778 3244 343 
Q 2819 -91 2113 -91 
Q 1303 -91 875 529 
Q 447 1150 447 2328 
Q 447 3434 972 4092 
Q 1497 4750 2381 4750 
Q 2619 4750 2861 4703 
Q 3103 4656 3366 4563 
z
" transform="scale(0.015625)"/>
       </defs>
       <use xlink:href="#DejaVuSans-36"/>
       <use xlink:href="#DejaVuSans-30" x="63.623047"/>
       <use xlink:href="#DejaVuSans-30" x="127.246094"/>
       <use xlink:href="#DejaVuSans-30" x="190.869141"/>
      </g>
     </g>
    </g>
    <g id="ytick_5">
     <g id="line2d_10">
      <g>
       <use xlink:href="#m4262c12b00" x="57.6" y="141.177683" style="stroke: #000000; stroke-width: 0.8"/>
      </g>
     </g>
     <g id="text_11">
      <!-- 8000 -->
      <g transform="translate(25.15 144.976901) scale(0.1 -0.1)">
       <defs>
        <path id="DejaVuSans-38" d="M 2034 2216 
Q 1584 2216 1326 1975 
Q 1069 1734 1069 1313 
Q 1069 891 1326 650 
Q 1584 409 2034 409 
Q 2484 409 2743 651 
Q 3003 894 3003 1313 
Q 3003 1734 2745 1975 
Q 2488 2216 2034 2216 
z
M 1403 2484 
Q 997 2584 770 2862 
Q 544 3141 544 3541 
Q 544 4100 942 4425 
Q 1341 4750 2034 4750 
Q 2731 4750 3128 4425 
Q 3525 4100 3525 3541 
Q 3525 3141 3298 2862 
Q 3072 2584 2669 2484 
Q 3125 2378 3379 2068 
Q 3634 1759 3634 1313 
Q 3634 634 3220 271 
Q 2806 -91 2034 -91 
Q 1263 -91 848 271 
Q 434 634 434 1313 
Q 434 1759 690 2068 
Q 947 2378 1403 2484 
z
M 1172 3481 
Q 1172 3119 1398 2916 
Q 1625 2713 2034 2713 
Q 2441 2713 2670 2916 
Q 2900 3119 2900 3481 
Q 2900 3844 2670 4047 
Q 2441 4250 2034 4250 
Q 1625 4250 1398 4047 
Q 1172 3844 1172 3481 
z
" transform="scale(0.015625)"/>
       </defs>
       <use xlink:href="#DejaVuSans-38"/>
       <use xlink:href="#DejaVuSans-30" x="63.623047"/>
       <use xlink:href="#DejaVuSans-30" x="127.246094"/>
       <use xlink:href="#DejaVuSans-30" x="190.869141"/>
      </g>
     </g>
    </g>
    <g id="ytick_6">
     <g id="line2d_11">
      <g>
       <use xlink:href="#m4262c12b00" x="57.6" y="102.600103" style="stroke: #000000; stroke-width: 0.8"/>
      </g>
     </g>
     <g id="text_12">
      <!-- 10000 -->
      <g transform="translate(18.7875 106.399322) scale(0.1 -0.1)">
       <use xlink:href="#DejaVuSans-31"/>
       <use xlink:href="#DejaVuSans-30" x="63.623047"/>
       <use xlink:href="#DejaVuSans-30" x="127.246094"/>
       <use xlink:href="#DejaVuSans-30" x="190.869141"/>
       <use xlink:href="#DejaVuSans-30" x="254.492188"/>
      </g>
     </g>
    </g>
    <g id="ytick_7">
     <g id="line2d_12">
      <g>
       <use xlink:href="#m4262c12b00" x="57.6" y="64.022524" style="stroke: #000000; stroke-width: 0.8"/>
      </g>
     </g>
     <g id="text_13">
      <!-- 12000 -->
      <g transform="translate(18.7875 67.821743) scale(0.1 -0.1)">
       <use xlink:href="#DejaVuSans-31"/>
       <use xlink:href="#DejaVuSans-32" x="63.623047"/>
       <use xlink:href="#DejaVuSans-30" x="127.246094"/>
       <use xlink:href="#DejaVuSans-30" x="190.869141"/>
       <use xlink:href="#DejaVuSans-30" x="254.492188"/>
      </g>
     </g>
    </g>
    <g id="text_14">
     <!-- Coverage -->
     <g transform="translate(12.707812 198.485031) rotate(-90) scale(0.1 -0.1)">
      <defs>
       <path id="DejaVuSans-43" d="M 4122 4306 
L 4122 3641 
Q 3803 3938 3442 4084 
Q 3081 4231 2675 4231 
Q 1875 4231 1450 3742 
Q 1025 3253 1025 2328 
Q 1025 1406 1450 917 
Q 1875 428 2675 428 
Q 3081 428 3442 575 
Q 3803 722 4122 1019 
L 4122 359 
Q 3791 134 3420 21 
Q 3050 -91 2638 -91 
Q 1578 -91 968 557 
Q 359 1206 359 2328 
Q 359 3453 968 4101 
Q 1578 4750 2638 4750 
Q 3056 4750 3426 4639 
Q 3797 4528 4122 4306 
z
" transform="scale(0.015625)"/>
       <path id="DejaVuSans-76" d="M 191 3500 
L 800 3500 
L 1894 563 
L 2988 3500 
L 3597 3500 
L 2284 0 
L 1503 0 
L 191 3500 
z
" transform="scale(0.015625)"/>
       <path id="DejaVuSans-72" d="M 2631 2963 
Q 2534 3019 2420 3045 
Q 2306 3072 2169 3072 
Q 1681 3072 1420 2755 
Q 1159 2438 1159 1844 
L 1159 0 
L 581 0 
L 581 3500 
L 1159 3500 
L 1159 2956 
Q 1341 3275 1631 3429 
Q 1922 3584 2338 3584 
Q 2397 3584 2469 3576 
Q 2541 3569 2628 3553 
L 2631 2963 
z
" transform="scale(0.015625)"/>
       <path id="DejaVuSans-61" d="M 2194 1759 
Q 1497 1759 1228 1600 
Q 959 1441 959 1056 
Q 959 750 1161 570 
Q 1363 391 1709 391 
Q 2188 391 2477 730 
Q 2766 1069 2766 1631 
L 2766 1759 
L 2194 1759 
z
M 3341 1997 
L 3341 0 
L 2766 0 
L 2766 531 
Q 2569 213 2275 61 
Q 1981 -91 1556 -91 
Q 1019 -91 701 211 
Q 384 513 384 1019 
Q 384 1609 779 1909 
Q 1175 2209 1959 2209 
L 2766 2209 
L 2766 2266 
Q 2766 2663 2505 2880 
Q 2244 3097 1772 3097 
Q 1472 3097 1187 3025 
Q 903 2953 641 2809 
L 641 3341 
Q 956 3463 1253 3523 
Q 1550 3584 1831 3584 
Q 2591 3584 2966 3190 
Q 3341 2797 3341 1997 
z
" transform="scale(0.015625)"/>
       <path id="DejaVuSans-67" d="M 2906 1791 
Q 2906 2416 2648 2759 
Q 2391 3103 1925 3103 
Q 1463 3103 1205 2759 
Q 947 2416 947 1791 
Q 947 1169 1205 825 
Q 1463 481 1925 481 
Q 2391 481 2648 825 
Q 2906 1169 2906 1791 
z
M 3481 434 
Q 3481 -459 3084 -895 
Q 2688 -1331 1869 -1331 
Q 1566 -1331 1297 -1286 
Q 1028 -1241 775 -1147 
L 775 -588 
Q 1028 -725 1275 -790 
Q 1522 -856 1778 -856 
Q 2344 -856 2625 -561 
Q 2906 -266 2906 331 
L 2906 616 
Q 2728 306 2450 153 
Q 2172 0 1784 0 
Q 1141 0 747 490 
Q 353 981 353 1791 
Q 353 2603 747 3093 
Q 1141 3584 1784 3584 
Q 2172 3584 2450 3431 
Q 2728 3278 2906 2969 
L 2906 3500 
L 3481 3500 
L 3481 434 
z
" transform="scale(0.015625)"/>
      </defs>
      <use xlink:href="#DejaVuSans-43"/>
      <use xlink:href="#DejaVuSans-6f" x="69.824219"/>
      <use xlink:href="#DejaVuSans-76" x="131.005859"/>
      <use xlink:href="#DejaVuSans-65" x="190.185547"/>
      <use xlink:href="#DejaVuSans-72" x="251.708984"/>
      <use xlink:href="#DejaVuSans-61" x="292.822266"/>
      <use xlink:href="#DejaVuSans-67" x="354.101562"/>
      <use xlink:href="#DejaVuSans-65" x="417.578125"/>
     </g>
    </g>
   </g>
   <g id="line2d_13">
    <path d="M 73.832727 295.488 
L 74.222095 295.410845 
L 74.455715 295.488 
L 84.890762 295.468711 
L 85.046509 295.237246 
L 85.435876 295.237246 
L 85.591623 295.468711 
L 92.132995 295.488 
L 92.288742 294.581427 
L 92.522363 294.600716 
L 92.67811 295.468711 
L 92.989604 295.488 
L 110.744758 295.391556 
L 110.900505 295.179379 
L 111.134125 295.488 
L 113.626076 295.468711 
L 113.781823 295.372267 
L 113.93757 295.372267 
L 114.093317 295.488 
L 114.716305 295.468711 
L 114.872052 295.372267 
L 115.105673 295.468711 
L 115.572913 295.488 
L 123.671756 295.410845 
L 123.827503 295.430134 
L 124.45049 295.488 
L 124.917731 295.468711 
L 127.409683 295.468711 
L 127.56543 295.352978 
L 127.876924 295.488 
L 141.037542 295.488 
L 141.193289 295.33369 
L 141.66053 295.391556 
L 141.972024 295.488 
L 144.152481 295.488 
L 144.308228 294.349961 
L 144.541849 294.446405 
L 144.697596 295.488 
L 154.353907 295.468711 
L 154.587528 294.832181 
L 154.743275 294.85147 
L 154.899022 295.488 
L 155.599883 295.391556 
L 155.75563 294.85147 
L 156.144997 294.812892 
L 156.300744 295.488 
L 158.247581 295.488 
L 158.403328 295.198668 
L 158.559075 295.237246 
L 158.714822 295.372267 
L 158.948443 295.391556 
L 159.10419 295.468711 
L 159.259937 295.410845 
L 159.493557 295.488 
L 172.498429 295.391556 
L 172.654176 295.198668 
L 173.277163 295.295112 
L 173.43291 295.430134 
L 174.211645 295.391556 
L 174.289519 294.870759 
L 174.367392 294.967203 
L 174.678886 294.967203 
L 174.75676 294.639293 
L 174.912507 295.160091 
L 175.224001 295.140802 
L 175.379747 295.468711 
L 175.535494 295.430134 
L 175.769115 295.488 
L 179.662789 295.410845 
L 179.896409 295.121513 
L 180.285777 295.082935 
L 180.441524 295.488 
L 182.855602 295.488 
L 183.089222 295.237246 
L 183.167096 295.256535 
L 183.322843 295.410845 
L 183.634337 295.430134 
L 183.94583 295.468711 
L 184.101577 295.198668 
L 184.413071 295.179379 
L 184.490945 295.179379 
L 184.646692 294.349961 
L 184.880312 294.330673 
L 185.036059 295.217957 
L 185.736921 295.179379 
L 185.892668 294.986491 
L 186.282035 295.00578 
L 186.437782 295.217957 
L 186.593529 295.102224 
L 187.450137 295.217957 
L 189.396974 295.217957 
L 189.474848 295.488 
L 189.630595 295.217957 
L 190.019962 295.217957 
L 190.175709 295.082935 
L 190.487203 295.063647 
L 190.954444 295.217957 
L 191.188064 295.160091 
L 191.343811 294.909336 
L 191.733179 294.947914 
L 191.888926 295.217957 
L 193.757889 295.140802 
L 193.913636 295.121513 
L 195.393232 295.217957 
L 195.548979 295.488 
L 196.094094 295.468711 
L 196.405588 295.063647 
L 196.872828 295.102224 
L 197.028575 295.488 
L 198.508172 295.468711 
L 198.663919 295.314401 
L 198.975412 295.33369 
L 199.131159 295.449422 
L 201.311617 295.372267 
L 201.467364 295.217957 
L 201.856731 295.391556 
L 217.587175 295.430134 
L 217.820795 294.890048 
L 218.132289 294.890048 
L 218.365909 295.488 
L 231.838022 295.410845 
L 232.071642 295.160091 
L 232.149516 295.275823 
L 232.227389 295.275823 
L 232.383136 295.449422 
L 233.006124 295.449422 
L 233.161871 294.407828 
L 233.395491 294.600716 
L 233.551238 295.314401 
L 233.706985 295.488 
L 234.096353 295.468711 
L 234.2521 295.314401 
L 234.407847 295.295112 
L 234.563594 295.468711 
L 235.030835 295.488 
L 238.535141 295.488 
L 238.690888 294.330673 
L 238.924509 294.484983 
L 239.080256 295.025069 
L 239.158129 295.121513 
L 239.313876 295.488 
L 239.62537 295.410845 
L 239.703243 295.372267 
L 239.85899 295.082935 
L 240.170484 295.488 
L 246.088869 295.449422 
L 246.244616 294.870759 
L 246.478236 294.947914 
L 246.633983 294.947914 
L 246.711857 295.488 
L 246.78973 295.468711 
L 247.023351 295.468711 
L 247.490592 295.488 
L 250.216163 295.468711 
L 250.605531 294.581427 
L 250.761278 294.562138 
L 250.917025 295.488 
L 252.007254 295.488 
L 252.163001 295.295112 
L 252.785988 295.352978 
L 252.941735 295.33369 
L 253.097482 295.488 
L 254.031964 295.488 
L 254.187711 293.983474 
L 254.577078 294.002763 
L 254.732825 295.410845 
L 254.966446 295.488 
L 257.536271 295.468711 
L 257.692018 295.063647 
L 258.081385 295.082935 
L 258.315006 295.488 
L 258.937993 295.468711 
L 259.09374 295.217957 
L 259.483108 295.237246 
L 259.638855 295.488 
L 261.507818 295.488 
L 261.663565 294.812892 
L 261.819312 294.755026 
L 262.052933 294.85147 
L 262.286553 295.488 
L 262.675921 295.488 
L 263.844023 295.488 
L 264.077643 295.217957 
L 264.155517 295.217957 
L 264.389137 295.468711 
L 266.180227 295.488 
L 266.335974 294.484983 
L 266.569595 294.407828 
L 266.725342 295.488 
L 267.036836 295.468711 
L 267.192582 295.295112 
L 267.348329 295.352978 
L 267.426203 295.449422 
L 267.58195 294.716448 
L 267.81557 294.870759 
L 267.971317 295.372267 
L 268.282811 295.275823 
L 268.360685 295.256535 
L 268.594305 295.391556 
L 269.061546 295.352978 
L 269.217293 294.484983 
L 269.450913 294.446405 
L 269.60666 295.488 
L 269.996028 295.488 
L 272.176485 295.488 
L 272.332232 295.352978 
L 272.487979 295.352978 
L 272.643726 295.488 
L 273.656081 295.468711 
L 273.811828 295.391556 
L 282.144291 295.488 
L 282.300038 294.735737 
L 282.455785 294.735737 
L 282.533658 294.928625 
L 282.689405 295.488 
L 285.570724 295.449422 
L 285.804345 295.352978 
L 285.882218 295.352978 
L 286.037965 295.488 
L 287.05032 295.488 
L 287.206067 294.716448 
L 287.283941 294.716448 
L 287.595435 294.253517 
L 287.751182 295.160091 
L 287.984802 295.160091 
L 288.218423 295.468711 
L 288.452043 295.391556 
L 288.60779 294.465694 
L 288.84141 294.639293 
L 288.997157 295.488 
L 294.058934 295.468711 
L 294.214681 295.33369 
L 294.604048 295.488 
L 298.264102 295.449422 
L 298.341975 295.140802 
L 298.419849 295.179379 
L 298.497722 295.179379 
L 298.731343 295.00578 
L 298.809216 295.025069 
L 298.964963 295.449422 
L 299.198583 295.468711 
L 299.665824 295.488 
L 315.552015 295.468711 
L 315.707762 295.295112 
L 315.863509 295.352978 
L 316.019256 295.488 
L 316.720117 295.430134 
L 316.79799 295.217957 
L 317.031611 293.366233 
L 317.265231 293.385522 
L 317.420978 295.488 
L 320.847411 295.488 
L 321.003158 295.372267 
L 321.314652 295.410845 
L 321.548273 295.488 
L 322.482755 295.488 
L 322.638501 295.160091 
L 323.027869 295.140802 
L 323.183616 295.468711 
L 323.49511 295.372267 
L 323.806604 295.372267 
L 324.040224 295.449422 
L 324.741086 295.449422 
L 324.896832 294.774315 
L 325.052579 294.69716 
L 325.208326 294.755026 
L 325.2862 294.755026 
L 325.441947 295.33369 
L 325.597694 295.488 
L 327.933898 295.488 
L 328.089645 294.947914 
L 328.323266 294.947914 
L 328.401139 295.488 
L 328.479013 295.449422 
L 328.556886 295.449422 
L 328.712633 295.237246 
L 329.024127 295.33369 
L 329.179874 295.488 
L 337.278716 295.449422 
L 337.434463 295.33369 
L 337.82383 295.430134 
L 340.393655 295.468711 
L 340.549402 294.69716 
L 340.783023 294.639293 
L 340.93877 295.488 
L 348.10313 295.468711 
L 348.33675 295.102224 
L 348.492497 295.160091 
L 348.570371 295.217957 
L 348.726118 295.488 
L 350.828702 295.468711 
L 351.140196 295.102224 
L 351.373816 293.019035 
L 351.607437 293.057613 
L 351.763184 295.430134 
L 352.230425 295.468711 
L 352.386172 295.295112 
L 353.009159 295.488 
L 360.485014 295.410845 
L 360.640761 293.73272 
L 360.796508 293.752009 
L 360.874381 293.867742 
L 361.030128 295.044358 
L 361.263748 295.430134 
L 361.341622 295.468711 
L 361.497369 295.372267 
L 361.730989 295.468711 
L 362.120357 295.468711 
L 365.235296 295.430134 
L 365.391043 295.352978 
L 366.091904 295.488 
L 366.325525 295.410845 
L 367.026386 295.488 
L 371.309428 295.488 
L 371.620922 294.947914 
L 372.010289 287.984661 
L 372.166036 176.804077 
L 372.399656 170.245889 
L 372.555403 168.972829 
L 372.633277 168.837807 
L 372.866897 159.54061 
L 373.022644 158.132529 
L 373.256265 151.42003 
L 373.334138 151.26572 
L 373.412012 150.841366 
L 373.645632 146.79072 
L 374.657987 128.369926 
L 374.891608 112.591696 
L 374.969481 112.109477 
L 375.125228 100.921979 
L 375.592469 90.120256 
L 375.82609 78.373384 
L 375.903963 77.601832 
L 376.604824 59.971878 
L 376.682698 59.952589 
L 376.994192 58.042999 
L 377.149939 58.640952 
L 377.305686 58.02371 
L 377.383559 58.891706 
L 377.461433 130.85818 
L 377.539306 130.202361 
L 377.61718 130.530271 
L 377.695053 133.442878 
L 377.772927 133.018525 
L 378.162294 122.911199 
L 378.318041 122.004626 
L 378.551661 110.257753 
L 378.629535 110.277042 
L 378.863155 107.306568 
L 378.941029 107.846654 
L 379.018902 107.036525 
L 379.096776 108.733938 
L 379.174649 107.808077 
L 379.330396 98.858078 
L 379.40827 99.745362 
L 379.64189 93.939437 
L 379.719764 93.900859 
L 379.797637 94.305924 
L 379.875511 94.248057 
L 379.953384 96.678445 
L 380.031258 95.868316 
L 380.342751 88.596442 
L 380.498498 87.381248 
L 380.576372 87.959912 
L 380.809992 97.912927 
L 380.887866 97.72004 
L 380.965739 98.279414 
L 381.121486 62.132223 
L 381.19936 60.434809 
L 381.355107 53.568 
L 381.43298 53.587289 
L 381.744474 57.830823 
L 381.822348 57.445047 
L 382.133842 64.157546 
L 382.211715 63.058085 
L 382.367462 59.393214 
L 382.523209 58.081577 
L 382.601082 58.100866 
L 382.678956 58.66024 
L 382.756829 57.734379 
L 382.834703 57.985133 
L 382.912576 57.445047 
L 382.99045 57.830823 
L 383.068323 56.499896 
L 383.146197 56.692784 
L 383.301944 59.489658 
L 383.457691 98.858078 
L 383.535564 99.050966 
L 383.613438 100.478336 
L 383.847058 109.949132 
L 383.924932 108.560339 
L 384.002805 108.637494 
L 384.236426 118.571221 
L 384.470046 126.653224 
L 384.937287 135.333179 
L 385.01516 135.79611 
L 385.093034 135.198158 
L 385.248781 145.729837 
L 385.326654 146.617121 
L 385.560275 154.544814 
L 385.638148 155.624986 
L 385.716022 154.660547 
L 385.871769 155.72143 
L 385.949642 155.335654 
L 386.33901 169.725091 
L 386.650503 175.858926 
L 386.728377 175.01022 
L 386.80625 177.459896 
L 386.884124 186.024119 
L 387.039871 233.97605 
L 387.273491 238.624648 
L 387.351365 238.605359 
L 387.740732 242.019475 
L 387.818606 242.231652 
L 388.1301 244.758483 
L 388.36372 252.666887 
L 388.519467 253.168395 
L 388.675214 255.579494 
L 388.830961 256.698244 
L 388.908834 256.408912 
L 389.064581 259.610851 
L 389.298202 261.05751 
L 389.376075 261.713329 
L 389.453949 261.674752 
L 389.531822 261.809773 
L 389.843316 264.182294 
L 389.92119 264.105139 
L 389.999063 264.645225 
L 390.076937 267.982186 
L 390.15481 267.770009 
L 390.232684 267.673565 
L 390.388431 268.483694 
L 390.466304 268.445117 
L 390.622051 267.92432 
L 390.777798 268.117207 
L 390.855672 267.92432 
L 391.245039 269.390268 
L 391.322912 269.506 
L 391.868027 272.206431 
L 392.101647 272.611495 
L 392.179521 273.055138 
L 392.257394 272.939405 
L 392.413141 271.280569 
L 392.491015 266.80557 
L 392.568888 267.037035 
L 392.646762 267.056324 
L 392.724635 266.824859 
L 392.802509 268.155785 
L 392.880382 267.673565 
L 392.958256 267.905031 
L 393.036129 269.756755 
L 393.114002 269.428845 
L 393.191876 270.451151 
L 393.269749 270.065375 
L 393.347623 267.172057 
L 393.425496 267.519255 
L 393.50337 267.577121 
L 393.892737 268.927337 
L 393.970611 269.023781 
L 394.126358 269.583155 
L 394.204231 269.641022 
L 394.593599 270.509017 
L 394.671472 270.528306 
L 394.749346 270.798349 
L 394.905093 271.569901 
L 395.06084 271.859233 
L 395.216586 272.457185 
L 395.52808 273.035849 
L 396.073195 274.656107 
L 396.228942 275.215482 
L 396.306815 275.273348 
L 396.384689 275.485525 
L 396.540436 277.009339 
L 396.696183 278.128089 
L 397.007677 279.246839 
L 397.241297 279.55546 
L 398.097905 283.336063 
L 398.253652 284.107614 
L 398.487273 293.829164 
L 398.487273 293.829164 
" clip-path="url(#pf7206226cb)" style="fill: none; stroke: #1f77b4; stroke-width: 1.5; stroke-linecap: square"/>
   </g>
   <g id="line2d_14">
    <path d="M 389.609696 307.584 
L 389.609696 41.472 
" clip-path="url(#pf7206226cb)" style="fill: none; stroke-dasharray: 5.55,2.4; stroke-dashoffset: 0; stroke: #ff0000; stroke-width: 1.5"/>
   </g>
   <g id="line2d_15">
    <path d="M 397.552791 307.584 
L 397.552791 41.472 
" clip-path="url(#pf7206226cb)" style="fill: none; stroke-dasharray: 5.55,2.4; stroke-dashoffset: 0; stroke: #ff0000; stroke-width: 1.5"/>
   </g>
   <g id="patch_3">
    <path d="M 57.6 307.584 
L 57.6 41.472 
" style="fill: none; stroke: #000000; stroke-width: 0.8; stroke-linejoin: miter; stroke-linecap: square"/>
   </g>
   <g id="patch_4">
    <path d="M 414.72 307.584 
L 414.72 41.472 
" style="fill: none; stroke: #000000; stroke-width: 0.8; stroke-linejoin: miter; stroke-linecap: square"/>
   </g>
   <g id="patch_5">
    <path d="M 57.6 307.584 
L 414.72 307.584 
" style="fill: none; stroke: #000000; stroke-width: 0.8; stroke-linejoin: miter; stroke-linecap: square"/>
   </g>
   <g id="patch_6">
    <path d="M 57.6 41.472 
L 414.72 41.472 
" style="fill: none; stroke: #000000; stroke-width: 0.8; stroke-linejoin: miter; stroke-linecap: square"/>
   </g>
   <g id="text_15">
    <!-- New phage scaffold 11136 -->
    <g transform="translate(156.001875 22.034625) scale(0.12 -0.12)">
     <defs>
      <path id="DejaVuSans-77" d="M 269 3500 
L 844 3500 
L 1563 769 
L 2278 3500 
L 2956 3500 
L 3675 769 
L 4391 3500 
L 4966 3500 
L 4050 0 
L 3372 0 
L 2619 2869 
L 1863 0 
L 1184 0 
L 269 3500 
z
" transform="scale(0.015625)"/>
      <path id="DejaVuSans-68" d="M 3513 2113 
L 3513 0 
L 2938 0 
L 2938 2094 
Q 2938 2591 2744 2837 
Q 2550 3084 2163 3084 
Q 1697 3084 1428 2787 
Q 1159 2491 1159 1978 
L 1159 0 
L 581 0 
L 581 4863 
L 1159 4863 
L 1159 2956 
Q 1366 3272 1645 3428 
Q 1925 3584 2291 3584 
Q 2894 3584 3203 3211 
Q 3513 2838 3513 2113 
z
" transform="scale(0.015625)"/>
      <path id="DejaVuSans-66" d="M 2375 4863 
L 2375 4384 
L 1825 4384 
Q 1516 4384 1395 4259 
Q 1275 4134 1275 3809 
L 1275 3500 
L 2222 3500 
L 2222 3053 
L 1275 3053 
L 1275 0 
L 697 0 
L 697 3053 
L 147 3053 
L 147 3500 
L 697 3500 
L 697 3744 
Q 697 4328 969 4595 
Q 1241 4863 1831 4863 
L 2375 4863 
z
" transform="scale(0.015625)"/>
     </defs>
     <use xlink:href="#DejaVuSans-4e"/>
     <use xlink:href="#DejaVuSans-65" x="74.804688"/>
     <use xlink:href="#DejaVuSans-77" x="136.328125"/>
     <use xlink:href="#DejaVuSans-20" x="218.115234"/>
     <use xlink:href="#DejaVuSans-70" x="249.902344"/>
     <use xlink:href="#DejaVuSans-68" x="313.378906"/>
     <use xlink:href="#DejaVuSans-61" x="376.757812"/>
     <use xlink:href="#DejaVuSans-67" x="438.037109"/>
     <use xlink:href="#DejaVuSans-65" x="501.513672"/>
     <use xlink:href="#DejaVuSans-20" x="563.037109"/>
     <use xlink:href="#DejaVuSans-73" x="594.824219"/>
     <use xlink:href="#DejaVuSans-63" x="646.923828"/>
     <use xlink:href="#DejaVuSans-61" x="701.904297"/>
     <use xlink:href="#DejaVuSans-66" x="763.183594"/>
     <use xlink:href="#DejaVuSans-66" x="798.388672"/>
     <use xlink:href="#DejaVuSans-6f" x="833.59375"/>
     <use xlink:href="#DejaVuSans-6c" x="894.775391"/>
     <use xlink:href="#DejaVuSans-64" x="922.558594"/>
     <use xlink:href="#DejaVuSans-20" x="986.035156"/>
     <use xlink:href="#DejaVuSans-31" x="1017.822266"/>
     <use xlink:href="#DejaVuSans-31" x="1081.445312"/>
     <use xlink:href="#DejaVuSans-31" x="1145.068359"/>
     <use xlink:href="#DejaVuSans-33" x="1208.691406"/>
     <use xlink:href="#DejaVuSans-36" x="1272.314453"/>
    </g>
    <!-- Total coverage: 45.92% -->
    <g transform="translate(165.5775 35.472) scale(0.12 -0.12)">
     <defs>
      <path id="DejaVuSans-54" d="M -19 4666 
L 3928 4666 
L 3928 4134 
L 2272 4134 
L 2272 0 
L 1638 0 
L 1638 4134 
L -19 4134 
L -19 4666 
z
" transform="scale(0.015625)"/>
      <path id="DejaVuSans-3a" d="M 750 794 
L 1409 794 
L 1409 0 
L 750 0 
L 750 794 
z
M 750 3309 
L 1409 3309 
L 1409 2516 
L 750 2516 
L 750 3309 
z
" transform="scale(0.015625)"/>
      <path id="DejaVuSans-35" d="M 691 4666 
L 3169 4666 
L 3169 4134 
L 1269 4134 
L 1269 2991 
Q 1406 3038 1543 3061 
Q 1681 3084 1819 3084 
Q 2600 3084 3056 2656 
Q 3513 2228 3513 1497 
Q 3513 744 3044 326 
Q 2575 -91 1722 -91 
Q 1428 -91 1123 -41 
Q 819 9 494 109 
L 494 744 
Q 775 591 1075 516 
Q 1375 441 1709 441 
Q 2250 441 2565 725 
Q 2881 1009 2881 1497 
Q 2881 1984 2565 2268 
Q 2250 2553 1709 2553 
Q 1456 2553 1204 2497 
Q 953 2441 691 2322 
L 691 4666 
z
" transform="scale(0.015625)"/>
      <path id="DejaVuSans-2e" d="M 684 794 
L 1344 794 
L 1344 0 
L 684 0 
L 684 794 
z
" transform="scale(0.015625)"/>
      <path id="DejaVuSans-39" d="M 703 97 
L 703 672 
Q 941 559 1184 500 
Q 1428 441 1663 441 
Q 2288 441 2617 861 
Q 2947 1281 2994 2138 
Q 2813 1869 2534 1725 
Q 2256 1581 1919 1581 
Q 1219 1581 811 2004 
Q 403 2428 403 3163 
Q 403 3881 828 4315 
Q 1253 4750 1959 4750 
Q 2769 4750 3195 4129 
Q 3622 3509 3622 2328 
Q 3622 1225 3098 567 
Q 2575 -91 1691 -91 
Q 1453 -91 1209 -44 
Q 966 3 703 97 
z
M 1959 2075 
Q 2384 2075 2632 2365 
Q 2881 2656 2881 3163 
Q 2881 3666 2632 3958 
Q 2384 4250 1959 4250 
Q 1534 4250 1286 3958 
Q 1038 3666 1038 3163 
Q 1038 2656 1286 2365 
Q 1534 2075 1959 2075 
z
" transform="scale(0.015625)"/>
      <path id="DejaVuSans-25" d="M 4653 2053 
Q 4381 2053 4226 1822 
Q 4072 1591 4072 1178 
Q 4072 772 4226 539 
Q 4381 306 4653 306 
Q 4919 306 5073 539 
Q 5228 772 5228 1178 
Q 5228 1588 5073 1820 
Q 4919 2053 4653 2053 
z
M 4653 2450 
Q 5147 2450 5437 2106 
Q 5728 1763 5728 1178 
Q 5728 594 5436 251 
Q 5144 -91 4653 -91 
Q 4153 -91 3862 251 
Q 3572 594 3572 1178 
Q 3572 1766 3864 2108 
Q 4156 2450 4653 2450 
z
M 1428 4353 
Q 1159 4353 1004 4120 
Q 850 3888 850 3481 
Q 850 3069 1003 2837 
Q 1156 2606 1428 2606 
Q 1700 2606 1854 2837 
Q 2009 3069 2009 3481 
Q 2009 3884 1853 4118 
Q 1697 4353 1428 4353 
z
M 4250 4750 
L 4750 4750 
L 1831 -91 
L 1331 -91 
L 4250 4750 
z
M 1428 4750 
Q 1922 4750 2215 4408 
Q 2509 4066 2509 3481 
Q 2509 2891 2217 2550 
Q 1925 2209 1428 2209 
Q 931 2209 642 2551 
Q 353 2894 353 3481 
Q 353 4063 643 4406 
Q 934 4750 1428 4750 
z
" transform="scale(0.015625)"/>
     </defs>
     <use xlink:href="#DejaVuSans-54"/>
     <use xlink:href="#DejaVuSans-6f" x="44.083984"/>
     <use xlink:href="#DejaVuSans-74" x="105.265625"/>
     <use xlink:href="#DejaVuSans-61" x="144.474609"/>
     <use xlink:href="#DejaVuSans-6c" x="205.753906"/>
     <use xlink:href="#DejaVuSans-20" x="233.537109"/>
     <use xlink:href="#DejaVuSans-63" x="265.324219"/>
     <use xlink:href="#DejaVuSans-6f" x="320.304688"/>
     <use xlink:href="#DejaVuSans-76" x="381.486328"/>
     <use xlink:href="#DejaVuSans-65" x="440.666016"/>
     <use xlink:href="#DejaVuSans-72" x="502.189453"/>
     <use xlink:href="#DejaVuSans-61" x="543.302734"/>
     <use xlink:href="#DejaVuSans-67" x="604.582031"/>
     <use xlink:href="#DejaVuSans-65" x="668.058594"/>
     <use xlink:href="#DejaVuSans-3a" x="729.582031"/>
     <use xlink:href="#DejaVuSans-20" x="763.273438"/>
     <use xlink:href="#DejaVuSans-34" x="795.060547"/>
     <use xlink:href="#DejaVuSans-35" x="858.683594"/>
     <use xlink:href="#DejaVuSans-2e" x="922.306641"/>
     <use xlink:href="#DejaVuSans-39" x="954.09375"/>
     <use xlink:href="#DejaVuSans-32" x="1017.716797"/>
     <use xlink:href="#DejaVuSans-25" x="1081.339844"/>
    </g>
   </g>
  </g>
 </g>
 <defs>
  <clipPath id="pf7206226cb">
   <rect x="57.6" y="41.472" width="357.12" height="266.112"/>
  </clipPath>
 </defs>
</svg>
